<svg xmlns="http://www.w3.org/2000/svg" width="557" height="37">
         <defs>
            <style type="text/css">
               @namespace "http://www.w3.org/2000/svg";
               .line                 {fill: none; stroke: #1F1F1F;}
               .bold-line            {stroke: #0A0A0A; shape-rendering: crispEdges; stroke-width:
               2; }
               .thin-line            {stroke: #0F0F0F; shape-rendering: crispEdges}
               .filled               {fill: #1F1F1F; stroke: none;}
               text.terminal         {font-family: Verdana, Sans-serif;
               font-size: 12px;
               fill: #0A0A0A;
               font-weight: bold;
               }
               text.nonterminal      {font-family: Verdana, Sans-serif; font-style: italic;
               font-size: 12px;
               fill: #0D0D0D;
               }
               text.regexp           {font-family: Verdana, Sans-serif;
               font-size: 12px;
               fill: #0F0F0F;
               }
               rect, circle, polygon {fill: #1F1F1F; stroke: #1F1F1F;}
               rect.terminal         {fill: #CCCCCC; stroke: #1F1F1F;}
               rect.nonterminal      {fill: #E3E3E3; stroke: #1F1F1F;}
               rect.text             {fill: none; stroke: none;}
               polygon.regexp        {fill: #EFEFEF; stroke: #1F1F1F;}

            </style>
         </defs>

         <defs>
            <style type="text/css">
    @namespace "http://www.w3.org/2000/svg";
    .line                 {fill: none; stroke: #1F1F1F; stroke-width: 1;}
    .bold-line            {stroke: #0A0A0A; shape-rendering: crispEdges; stroke-width: 2;}
    .thin-line            {stroke: #0F0F0F; shape-rendering: crispEdges}
    .filled               {fill: #1F1F1F; stroke: none;}
    text.terminal         {font-family: Verdana, Sans-serif;
                            font-size: 12px;
                            fill: #0A0A0A;
                            font-weight: bold;
                          }
    text.nonterminal      {font-family: Verdana, Sans-serif;
                            font-size: 12px;
                            fill: #0D0D0D;
                            font-weight: normal;
                          }
    text.regexp           {font-family: Verdana, Sans-serif;
                            font-size: 12px;
                            fill: #0F0F0F;
                            font-weight: normal;
                          }
    rect, circle, polygon {fill: #1F1F1F; stroke: #1F1F1F;}
    rect.terminal         {fill: #cccccc; stroke: #1F1F1F; stroke-width: 1;}
    rect.nonterminal      {fill: #E3E3E3; stroke: #1F1F1F; stroke-width: 1;}
    rect.text             {fill: none; stroke: none;}
    polygon.regexp        {fill: #EFEFEF; stroke: #1F1F1F; stroke-width: 1;}
  </style>
         </defs>
         <polygon points="9 17 1 13 1 21"/>
         <polygon points="17 17 9 13 9 21"/>
         <rect x="31" y="3" width="128" height="32" rx="10"/>
         <rect x="29" y="1" width="128" height="32" class="terminal" rx="10"/>
         <text class="terminal" x="39" y="21">SysStemInsert(</text><a xmlns:xlink="http://www.w3.org/1999/xlink" xlink:href="#stem" xlink:title="stem">
            <rect x="179" y="3" width="52" height="32"/>
            <rect x="177" y="1" width="52" height="32" class="nonterminal"/>
            <text class="nonterminal" x="187" y="21">stem</text></a><rect x="251" y="3" width="24" height="32" rx="10"/>
         <rect x="249" y="1" width="24" height="32" class="terminal" rx="10"/>
         <text class="terminal" x="259" y="21">,</text><a xmlns:xlink="http://www.w3.org/1999/xlink" xlink:href="#position" xlink:title="position">
            <rect x="295" y="3" width="70" height="32"/>
            <rect x="293" y="1" width="70" height="32" class="nonterminal"/>
            <text class="nonterminal" x="303" y="21">position</text></a><rect x="385" y="3" width="24" height="32" rx="10"/>
         <rect x="383" y="1" width="24" height="32" class="terminal" rx="10"/>
         <text class="terminal" x="393" y="21">,</text><a xmlns:xlink="http://www.w3.org/1999/xlink" xlink:href="#value" xlink:title="value">
            <rect x="429" y="3" width="54" height="32"/>
            <rect x="427" y="1" width="54" height="32" class="nonterminal"/>
            <text class="nonterminal" x="437" y="21">value</text></a><rect x="503" y="3" width="26" height="32" rx="10"/>
         <rect x="501" y="1" width="26" height="32" class="terminal" rx="10"/>
         <text class="terminal" x="511" y="21">)</text>
         <svg:path xmlns:svg="http://www.w3.org/2000/svg" class="line" d="m17 17 h2 m0 0 h10 m128 0 h10 m0 0 h10 m52 0 h10 m0 0 h10 m24 0 h10 m0 0 h10 m70 0 h10 m0 0 h10 m24 0 h10 m0 0 h10 m54 0 h10 m0 0 h10 m26 0 h10 m3 0 h-3"/>
         <polygon points="547 17 555 13 555 21"/>
         <polygon points="547 17 539 13 539 21"/>
</svg>