      <svg xmlns="http://www.w3.org/2000/svg" width="636" height="272">
         <defs>
            <style type="text/css">
               @namespace "http://www.w3.org/2000/svg";
               .line                 {fill: none; stroke: #1F1F1F;}
               .bold-line            {stroke: #0A0A0A; shape-rendering: crispEdges; stroke-width:
               2; }
               .thin-line            {stroke: #0F0F0F; shape-rendering: crispEdges}
               .filled               {fill: #1F1F1F; stroke: none;}
               text.terminal         {font-family: Verdana, Sans-serif;
               font-size: 12px;
               fill: #0A0A0A;
               font-weight: bold;
               }
               text.nonterminal      {font-family: Verdana, Sans-serif; font-style: italic;
               font-size: 12px;
               fill: #0D0D0D;
               }
               text.regexp           {font-family: Verdana, Sans-serif;
               font-size: 12px;
               fill: #0F0F0F;
               }
               rect, circle, polygon {fill: #1F1F1F; stroke: #1F1F1F;}
               rect.terminal         {fill: #CCCCCC; stroke: #1F1F1F;}
               rect.nonterminal      {fill: #E3E3E3; stroke: #1F1F1F;}
               rect.text             {fill: none; stroke: none;}    
               polygon.regexp        {fill: #EFEFEF; stroke: #1F1F1F;}
               
            </style>
         </defs>
         <polygon points="9 33 1 29 1 37"/>
         <polygon points="17 33 9 29 9 37"/>
         <rect x="31" y="19" width="102" height="32" rx="10"/>
         <rect x="29" y="17" width="102" height="32" class="terminal" rx="10"/>
         <text class="terminal" x="39" y="37">::ANNOTATE</text>
         <rect x="173" y="19" width="94" height="32" rx="10"/>
         <rect x="171" y="17" width="94" height="32" class="terminal" rx="10"/>
         <text class="terminal" x="181" y="37">ATTRIBUTE</text>
<!--     <a xmlns:xlink="http://www.w3.org/1999/xlink" xlink:href="#attribute" xlink:title="attribute"> -->
            <rect x="287" y="19" width="74" height="32"/>
            <rect x="285" y="17" width="74" height="32" class="nonterminal"/>
            <text class="nonterminal" x="295" y="37">attribute</text>
<!--     </a> -->
         <rect x="173" y="63" width="64" height="32" rx="10"/>
         <rect x="171" y="61" width="64" height="32" class="terminal" rx="10"/>
         <text class="terminal" x="181" y="81">CLASS</text>
<!--     <a xmlns:xlink="http://www.w3.org/1999/xlink" xlink:href="#class" xlink:title="class"> -->
            <rect x="257" y="63" width="50" height="32"/>
            <rect x="255" y="61" width="50" height="32" class="nonterminal"/>
            <text class="nonterminal" x="265" y="81">class</text>
<!--     </a> -->
         <rect x="173" y="107" width="94" height="32" rx="10"/>
         <rect x="171" y="105" width="94" height="32" class="terminal" rx="10"/>
         <text class="terminal" x="181" y="125">CONSTANT</text>
<!--     <a xmlns:xlink="http://www.w3.org/1999/xlink" xlink:href="#constant" xlink:title="constant"> -->
            <rect x="287" y="107" width="74" height="32"/>
            <rect x="285" y="105" width="74" height="32" class="nonterminal"/>
            <text class="nonterminal" x="295" y="125">constant</text>
<!--     </a> -->
         <rect x="173" y="151" width="78" height="32" rx="10"/>
         <rect x="171" y="149" width="78" height="32" class="terminal" rx="10"/>
         <text class="terminal" x="181" y="169">METHOD</text>
<!--     <a xmlns:xlink="http://www.w3.org/1999/xlink" xlink:href="#method" xlink:title="method"> -->
            <rect x="271" y="151" width="68" height="32"/>
            <rect x="269" y="149" width="68" height="32" class="nonterminal"/>
            <text class="nonterminal" x="279" y="169">method</text>
<!--     </a> -->
         <rect x="173" y="195" width="82" height="32" rx="10"/>
         <rect x="171" y="193" width="82" height="32" class="terminal" rx="10"/>
         <text class="terminal" x="181" y="213">PACKAGE</text>
         <rect x="173" y="239" width="82" height="32" rx="10"/>
         <rect x="171" y="237" width="82" height="32" class="terminal" rx="10"/>
         <text class="terminal" x="181" y="257">ROUTINE</text>
<!--     <a xmlns:xlink="http://www.w3.org/1999/xlink" xlink:href="#routine" xlink:title="routine"> -->
            <rect x="275" y="239" width="64" height="32"/>
            <rect x="273" y="237" width="64" height="32" class="nonterminal"/>
            <text class="nonterminal" x="283" y="257">routine</text>
<!--     </a> -->
<!--     <a xmlns:xlink="http://www.w3.org/1999/xlink" xlink:href="#name" xlink:title="name"> -->
            <rect x="441" y="19" width="54" height="32"/>
            <rect x="439" y="17" width="54" height="32" class="nonterminal"/>
            <text class="nonterminal" x="449" y="37">name</text>
<!--     </a> -->
<!--     <a xmlns:xlink="http://www.w3.org/1999/xlink" xlink:href="#value" xlink:title="value"> -->
            <rect x="515" y="19" width="54" height="32"/>
            <rect x="513" y="17" width="54" height="32" class="nonterminal"/>
            <text class="nonterminal" x="523" y="37">value</text>
<!--     </a> -->
         <svg:path xmlns:svg="http://www.w3.org/2000/svg" class="line" d="m17 33 h2 m0 0 h10 m102 0 h10 m20 0 h10 m94 0 h10 m0 0 h10 m74 0 h10 m-228 0 h20 m208 0 h20 m-248 0 q10 0 10 10 m228 0 q0 -10 10 -10 m-238 10 v24 m228 0 v-24 m-228 24 q0 10 10 10 m208 0 q10 0 10 -10 m-218 10 h10 m64 0 h10 m0 0 h10 m50 0 h10 m0 0 h54 m-218 -10 v20 m228 0 v-20 m-228 20 v24 m228 0 v-24 m-228 24 q0 10 10 10 m208 0 q10 0 10 -10 m-218 10 h10 m94 0 h10 m0 0 h10 m74 0 h10 m-218 -10 v20 m228 0 v-20 m-228 20 v24 m228 0 v-24 m-228 24 q0 10 10 10 m208 0 q10 0 10 -10 m-218 10 h10 m78 0 h10 m0 0 h10 m68 0 h10 m0 0 h22 m-218 -10 v20 m228 0 v-20 m-228 20 v24 m228 0 v-24 m-228 24 q0 10 10 10 m208 0 q10 0 10 -10 m-218 10 h10 m82 0 h10 m0 0 h106 m-218 -10 v20 m228 0 v-20 m-228 20 v24 m228 0 v-24 m-228 24 q0 10 10 10 m208 0 q10 0 10 -10 m-218 10 h10 m82 0 h10 m0 0 h10 m64 0 h10 m0 0 h22 m60 -220 h10 m54 0 h10 m0 0 h10 m54 0 h10 m-168 0 l20 0 m-1 0 q-9 0 -9 -10 l0 -12 q0 -10 10 -10 m148 32 l20 0 m-20 0 q10 0 10 -10 l0 -12 q0 -10 -10 -10 m-148 0 h10 m0 0 h138 m-188 32 h20 m188 0 h20 m-228 0 q10 0 10 10 m208 0 q0 -10 10 -10 m-218 10 v14 m208 0 v-14 m-208 14 q0 10 10 10 m188 0 q10 0 10 -10 m-198 10 h10 m0 0 h178 m23 -34 h-3"/>
         <polygon points="627 33 635 29 635 37"/>
         <polygon points="627 33 619 29 619 37"/>
      </svg>
