      <svg xmlns="http://www.w3.org/2000/svg" width="764" height="286">
         <defs>
            <style type="text/css">
               @namespace "http://www.w3.org/2000/svg";
               .line                 {fill: none; stroke: #1F1F1F;}
               .bold-line            {stroke: #0A0A0A; shape-rendering: crispEdges; stroke-width:
               2; }
               .thin-line            {stroke: #0F0F0F; shape-rendering: crispEdges}
               .filled               {fill: #1F1F1F; stroke: none;}
               text.terminal         {font-family: Verdana, Sans-serif;
               font-size: 12px;
               fill: #0A0A0A;
               font-weight: bold;
               }
               text.nonterminal      {font-family: Verdana, Sans-serif; font-style: italic;
               font-size: 12px;
               fill: #0D0D0D;
               }
               text.regexp           {font-family: Verdana, Sans-serif;
               font-size: 12px;
               fill: #0F0F0F;
               }
               rect, circle, polygon {fill: #1F1F1F; stroke: #1F1F1F;}
               rect.terminal         {fill: #CCCCCC; stroke: #1F1F1F;}
               rect.nonterminal      {fill: #E3E3E3; stroke: #1F1F1F;}
               rect.text             {fill: none; stroke: none;}    
               polygon.regexp        {fill: #EFEFEF; stroke: #1F1F1F;}
               
            </style>
         </defs>
         <polygon points="9 17 1 13 1 21"/>
         <polygon points="17 17 9 13 9 21"/>
         <rect x="31" y="3" width="104" height="32" rx="10"/>
         <rect x="29" y="1" width="104" height="32" class="terminal" rx="10"/>
         <text class="terminal" x="39" y="21">::ATTRIBUTE</text>
<!--     <a xmlns:xlink="http://www.w3.org/1999/xlink" xlink:href="#name" xlink:title="name"> -->
            <rect x="155" y="3" width="54" height="32"/>
            <rect x="153" y="1" width="54" height="32" class="nonterminal"/>
            <text class="nonterminal" x="163" y="21">name</text>
<!--     </a> -->
         <rect x="249" y="35" width="46" height="32" rx="10"/>
         <rect x="247" y="33" width="46" height="32" class="terminal" rx="10"/>
         <text class="terminal" x="257" y="53">GET</text>
         <rect x="249" y="79" width="44" height="32" rx="10"/>
         <rect x="247" y="77" width="44" height="32" class="terminal" rx="10"/>
         <text class="terminal" x="257" y="97">SET</text>
         <rect x="355" y="35" width="64" height="32" rx="10"/>
         <rect x="353" y="33" width="64" height="32" class="terminal" rx="10"/>
         <text class="terminal" x="363" y="53">CLASS</text>
         <rect x="479" y="35" width="70" height="32" rx="10"/>
         <rect x="477" y="33" width="70" height="32" class="terminal" rx="10"/>
         <text class="terminal" x="487" y="53">PUBLIC</text>
         <rect x="479" y="79" width="78" height="32" rx="10"/>
         <rect x="477" y="77" width="78" height="32" class="terminal" rx="10"/>
         <text class="terminal" x="487" y="97">PRIVATE</text>
         <rect x="617" y="35" width="86" height="32" rx="10"/>
         <rect x="615" y="33" width="86" height="32" class="terminal" rx="10"/>
         <text class="terminal" x="625" y="53">GUARDED</text>
         <rect x="617" y="79" width="106" height="32" rx="10"/>
         <rect x="615" y="77" width="106" height="32" class="terminal" rx="10"/>
         <text class="terminal" x="625" y="97">UNGUARDED</text>
         <rect x="319" y="165" width="120" height="32" rx="10"/>
         <rect x="317" y="163" width="120" height="32" class="terminal" rx="10"/>
         <text class="terminal" x="327" y="183">UNPROTECTED</text>
         <rect x="319" y="209" width="100" height="32" rx="10"/>
         <rect x="317" y="207" width="100" height="32" class="terminal" rx="10"/>
         <text class="terminal" x="327" y="227">PROTECTED</text>
         <rect x="499" y="165" width="90" height="32" rx="10"/>
         <rect x="497" y="163" width="90" height="32" class="terminal" rx="10"/>
         <text class="terminal" x="507" y="183">ABSTRACT</text>
         <rect x="499" y="209" width="88" height="32" rx="10"/>
         <rect x="497" y="207" width="88" height="32" class="terminal" rx="10"/>
         <text class="terminal" x="507" y="227">DELEGATE</text>
<!--     <a xmlns:xlink="http://www.w3.org/1999/xlink" xlink:href="#delegatename" xlink:title="delegatename"> -->
            <rect x="607" y="209" width="110" height="32"/>
            <rect x="605" y="207" width="110" height="32" class="nonterminal"/>
            <text class="nonterminal" x="615" y="227">delegatename</text>
<!--     </a> -->
         <rect x="499" y="253" width="88" height="32" rx="10"/>
         <rect x="497" y="251" width="88" height="32" class="terminal" rx="10"/>
         <text class="terminal" x="507" y="271">EXTERNAL</text>
<!--     <a xmlns:xlink="http://www.w3.org/1999/xlink" xlink:href="#spec" xlink:title="spec"> -->
            <rect x="607" y="253" width="48" height="32"/>
            <rect x="605" y="251" width="48" height="32" class="nonterminal"/>
            <text class="nonterminal" x="615" y="271">spec</text>
<!--     </a> -->
         <svg:path xmlns:svg="http://www.w3.org/2000/svg" class="line" d="m17 17 h2 m0 0 h10 m104 0 h10 m0 0 h10 m54 0 h10 m20 0 h10 m0 0 h56 m-86 0 h20 m66 0 h20 m-106 0 q10 0 10 10 m86 0 q0 -10 10 -10 m-96 10 v12 m86 0 v-12 m-86 12 q0 10 10 10 m66 0 q10 0 10 -10 m-76 10 h10 m46 0 h10 m-76 -10 v20 m86 0 v-20 m-86 20 v24 m86 0 v-24 m-86 24 q0 10 10 10 m66 0 q10 0 10 -10 m-76 10 h10 m44 0 h10 m0 0 h2 m40 -76 h10 m0 0 h74 m-104 0 h20 m84 0 h20 m-124 0 q10 0 10 10 m104 0 q0 -10 10 -10 m-114 10 v12 m104 0 v-12 m-104 12 q0 10 10 10 m84 0 q10 0 10 -10 m-94 10 h10 m64 0 h10 m40 -32 h10 m0 0 h88 m-118 0 h20 m98 0 h20 m-138 0 q10 0 10 10 m118 0 q0 -10 10 -10 m-128 10 v12 m118 0 v-12 m-118 12 q0 10 10 10 m98 0 q10 0 10 -10 m-108 10 h10 m70 0 h10 m0 0 h8 m-108 -10 v20 m118 0 v-20 m-118 20 v24 m118 0 v-24 m-118 24 q0 10 10 10 m98 0 q10 0 10 -10 m-108 10 h10 m78 0 h10 m40 -76 h10 m0 0 h116 m-146 0 h20 m126 0 h20 m-166 0 q10 0 10 10 m146 0 q0 -10 10 -10 m-156 10 v12 m146 0 v-12 m-146 12 q0 10 10 10 m126 0 q10 0 10 -10 m-136 10 h10 m86 0 h10 m0 0 h20 m-136 -10 v20 m146 0 v-20 m-146 20 v24 m146 0 v-24 m-146 24 q0 10 10 10 m126 0 q10 0 10 -10 m-136 10 h10 m106 0 h10 m22 -76 l2 0 m2 0 l2 0 m2 0 l2 0 m-488 130 l2 0 m2 0 l2 0 m2 0 l2 0 m22 0 h10 m0 0 h130 m-160 0 h20 m140 0 h20 m-180 0 q10 0 10 10 m160 0 q0 -10 10 -10 m-170 10 v12 m160 0 v-12 m-160 12 q0 10 10 10 m140 0 q10 0 10 -10 m-150 10 h10 m120 0 h10 m-150 -10 v20 m160 0 v-20 m-160 20 v24 m160 0 v-24 m-160 24 q0 10 10 10 m140 0 q10 0 10 -10 m-150 10 h10 m100 0 h10 m0 0 h20 m40 -76 h10 m0 0 h228 m-258 0 h20 m238 0 h20 m-278 0 q10 0 10 10 m258 0 q0 -10 10 -10 m-268 10 v12 m258 0 v-12 m-258 12 q0 10 10 10 m238 0 q10 0 10 -10 m-248 10 h10 m90 0 h10 m0 0 h128 m-248 -10 v20 m258 0 v-20 m-258 20 v24 m258 0 v-24 m-258 24 q0 10 10 10 m238 0 q10 0 10 -10 m-248 10 h10 m88 0 h10 m0 0 h10 m110 0 h10 m-248 -10 v20 m258 0 v-20 m-258 20 v24 m258 0 v-24 m-258 24 q0 10 10 10 m238 0 q10 0 10 -10 m-248 10 h10 m88 0 h10 m0 0 h10 m48 0 h10 m0 0 h62 m23 -120 h-3"/>
         <polygon points="755 147 763 143 763 151"/>
         <polygon points="755 147 747 143 747 151"/>
      </svg>
