      <svg xmlns="http://www.w3.org/2000/svg" width="914" height="222">
         <defs>
            <style type="text/css">
               @namespace "http://www.w3.org/2000/svg";
               .line                 {fill: none; stroke: #1F1F1F;}
               .bold-line            {stroke: #0A0A0A; shape-rendering: crispEdges; stroke-width:
               2; }
               .thin-line            {stroke: #0F0F0F; shape-rendering: crispEdges}
               .filled               {fill: #1F1F1F; stroke: none;}
               text.terminal         {font-family: Verdana, Sans-serif;
               font-size: 12px;
               fill: #0A0A0A;
               font-weight: bold;
               }
               text.nonterminal      {font-family: Verdana, Sans-serif;
               font-size: 12px;
               fill: #0D0D0D;
               }
               text.regexp           {font-family: Verdana, Sans-serif;
               font-size: 12px;
               fill: #0F0F0F;
               }
               rect, circle, polygon {fill: #1F1F1F; stroke: #1F1F1F;}
               rect.terminal         {fill: #CCCCCC; stroke: #1F1F1F;}
               rect.nonterminal      {fill: #E3E3E3; stroke: #1F1F1F;}
               rect.text             {fill: none; stroke: none;}    
               polygon.regexp        {fill: #EFEFEF; stroke: #1F1F1F;}
               
            </style>
         </defs>
         <polygon points="9 17 1 13 1 21"/>
         <polygon points="17 17 9 13 9 21"/>
         <rect x="31" y="3" width="104" height="32" rx="10"/>
         <rect x="29" y="1" width="104" height="32" class="terminal" rx="10"/>
         <text class="terminal" x="39" y="21">::ATTRIBUTE</text>
         <a xmlns:xlink="http://www.w3.org/1999/xlink" xlink:href="#name" xlink:title="name">
            <rect x="155" y="3" width="54" height="32"/>
            <rect x="153" y="1" width="54" height="32" class="nonterminal"/>
            <text class="nonterminal" x="163" y="21">name</text>
         </a>
         <rect x="249" y="3" width="46" height="32" rx="10"/>
         <rect x="247" y="1" width="46" height="32" class="terminal" rx="10"/>
         <text class="terminal" x="257" y="21">GET</text>
         <rect x="249" y="47" width="44" height="32" rx="10"/>
         <rect x="247" y="45" width="44" height="32" class="terminal" rx="10"/>
         <text class="terminal" x="257" y="65">SET</text>
         <rect x="355" y="3" width="64" height="32" rx="10"/>
         <rect x="353" y="1" width="64" height="32" class="terminal" rx="10"/>
         <text class="terminal" x="363" y="21">CLASS</text>
         <rect x="479" y="3" width="90" height="32" rx="10"/>
         <rect x="477" y="1" width="90" height="32" class="terminal" rx="10"/>
         <text class="terminal" x="487" y="21">ABSTRACT</text>
         <rect x="629" y="3" width="62" height="32" rx="10"/>
         <rect x="627" y="1" width="62" height="32" class="terminal" rx="10"/>
         <text class="terminal" x="637" y="21">PUBIC</text>
         <rect x="629" y="47" width="78" height="32" rx="10"/>
         <rect x="627" y="45" width="78" height="32" class="terminal" rx="10"/>
         <text class="terminal" x="637" y="65">PRIVATE</text>
         <rect x="767" y="3" width="86" height="32" rx="10"/>
         <rect x="765" y="1" width="86" height="32" class="terminal" rx="10"/>
         <text class="terminal" x="775" y="21">GUARDED</text>
         <rect x="767" y="47" width="106" height="32" rx="10"/>
         <rect x="765" y="45" width="106" height="32" class="terminal" rx="10"/>
         <text class="terminal" x="775" y="65">UNGUARDED</text>
         <rect x="747" y="129" width="120" height="32" rx="10"/>
         <rect x="745" y="127" width="120" height="32" class="terminal" rx="10"/>
         <text class="terminal" x="755" y="147">UNPROTECTED</text>
         <rect x="747" y="173" width="100" height="32" rx="10"/>
         <rect x="745" y="171" width="100" height="32" class="terminal" rx="10"/>
         <text class="terminal" x="755" y="191">PROTECTED</text>
         <svg:path xmlns:svg="http://www.w3.org/2000/svg" class="line" d="m17 17 h2 m0 0 h10 m104 0 h10 m0 0 h10 m54 0 h10 m20 0 h10 m46 0 h10 m-86 0 h20 m66 0 h20 m-106 0 q10 0 10 10 m86 0 q0 -10 10 -10 m-96 10 v24 m86 0 v-24 m-86 24 q0 10 10 10 m66 0 q10 0 10 -10 m-76 10 h10 m44 0 h10 m0 0 h2 m-76 -10 v20 m86 0 v-20 m-86 20 v14 m86 0 v-14 m-86 14 q0 10 10 10 m66 0 q10 0 10 -10 m-76 10 h10 m0 0 h56 m40 -78 h10 m64 0 h10 m-104 0 h20 m84 0 h20 m-124 0 q10 0 10 10 m104 0 q0 -10 10 -10 m-114 10 v14 m104 0 v-14 m-104 14 q0 10 10 10 m84 0 q10 0 10 -10 m-94 10 h10 m0 0 h74 m40 -34 h10 m90 0 h10 m-130 0 h20 m110 0 h20 m-150 0 q10 0 10 10 m130 0 q0 -10 10 -10 m-140 10 v14 m130 0 v-14 m-130 14 q0 10 10 10 m110 0 q10 0 10 -10 m-120 10 h10 m0 0 h100 m40 -34 h10 m62 0 h10 m0 0 h16 m-118 0 h20 m98 0 h20 m-138 0 q10 0 10 10 m118 0 q0 -10 10 -10 m-128 10 v24 m118 0 v-24 m-118 24 q0 10 10 10 m98 0 q10 0 10 -10 m-108 10 h10 m78 0 h10 m-108 -10 v20 m118 0 v-20 m-118 20 v14 m118 0 v-14 m-118 14 q0 10 10 10 m98 0 q10 0 10 -10 m-108 10 h10 m0 0 h88 m40 -78 h10 m86 0 h10 m0 0 h20 m-146 0 h20 m126 0 h20 m-166 0 q10 0 10 10 m146 0 q0 -10 10 -10 m-156 10 v24 m146 0 v-24 m-146 24 q0 10 10 10 m126 0 q10 0 10 -10 m-136 10 h10 m106 0 h10 m-136 -10 v20 m146 0 v-20 m-146 20 v14 m146 0 v-14 m-146 14 q0 10 10 10 m126 0 q10 0 10 -10 m-136 10 h10 m0 0 h116 m22 -78 l2 0 m2 0 l2 0 m2 0 l2 0 m-210 126 l2 0 m2 0 l2 0 m2 0 l2 0 m22 0 h10 m120 0 h10 m-160 0 h20 m140 0 h20 m-180 0 q10 0 10 10 m160 0 q0 -10 10 -10 m-170 10 v24 m160 0 v-24 m-160 24 q0 10 10 10 m140 0 q10 0 10 -10 m-150 10 h10 m100 0 h10 m0 0 h20 m-150 -10 v20 m160 0 v-20 m-160 20 v14 m160 0 v-14 m-160 14 q0 10 10 10 m140 0 q10 0 10 -10 m-150 10 h10 m0 0 h130 m23 -78 h-3"/>
         <polygon points="905 143 913 139 913 147"/>
         <polygon points="905 143 897 139 897 147"/>
      </svg>
