      <svg xmlns="http://www.w3.org/2000/svg" width="676" height="270">
         <defs>
            <style type="text/css">
               @namespace "http://www.w3.org/2000/svg";
               .line                 {fill: none; stroke: #1F1F1F;}
               .bold-line            {stroke: #0A0A0A; shape-rendering: crispEdges; stroke-width:
               2; }
               .thin-line            {stroke: #0F0F0F; shape-rendering: crispEdges}
               .filled               {fill: #1F1F1F; stroke: none;}
               text.terminal         {font-family: Verdana, Sans-serif;
               font-size: 12px;
               fill: #0A0A0A;
               font-weight: bold;
               }
               text.nonterminal      {font-family: Verdana, Sans-serif; font-style: italic;
               font-size: 12px;
               fill: #0D0D0D;
               }
               text.regexp           {font-family: Verdana, Sans-serif;
               font-size: 12px;
               fill: #0F0F0F;
               }
               rect, circle, polygon {fill: #1F1F1F; stroke: #1F1F1F;}
               rect.terminal         {fill: #CCCCCC; stroke: #1F1F1F;}
               rect.nonterminal      {fill: #E3E3E3; stroke: #1F1F1F;}
               rect.text             {fill: none; stroke: none;}    
               polygon.regexp        {fill: #EFEFEF; stroke: #1F1F1F;}
               
            </style>
         </defs>
         <polygon points="11 17 3 13 3 21"/>
         <polygon points="19 17 11 13 11 21"/>
         <rect x="33" y="3" width="74" height="32" rx="10"/>
         <rect x="31" y="1" width="74" height="32" class="terminal" rx="10"/>
         <text class="terminal" x="41" y="21">::CLASS</text>
<!--     <a xmlns:xlink="http://www.w3.org/1999/xlink" xlink:href="#classname" xlink:title="classname"> -->
            <rect x="127" y="3" width="82" height="32"/>
            <rect x="125" y="1" width="82" height="32" class="nonterminal"/>
            <text class="nonterminal" x="135" y="21">classname</text>
<!--     </a> -->
         <rect x="249" y="35" width="100" height="32" rx="10"/>
         <rect x="247" y="33" width="100" height="32" class="terminal" rx="10"/>
         <text class="terminal" x="257" y="53">METACLASS</text>
<!--     <a xmlns:xlink="http://www.w3.org/1999/xlink" xlink:href="#metaclass" xlink:title="metaclass"> -->
            <rect x="369" y="35" width="80" height="32"/>
            <rect x="367" y="33" width="80" height="32" class="nonterminal"/>
            <text class="nonterminal" x="377" y="53">metaclass</text>
<!--     </a> -->
         <rect x="509" y="35" width="78" height="32" rx="10"/>
         <rect x="507" y="33" width="78" height="32" class="terminal" rx="10"/>
         <text class="terminal" x="517" y="53">PRIVATE</text>
         <rect x="509" y="79" width="70" height="32" rx="10"/>
         <rect x="507" y="77" width="70" height="32" class="terminal" rx="10"/>
         <text class="terminal" x="517" y="97">PUBLIC</text>
         <rect x="45" y="193" width="106" height="32" rx="10"/>
         <rect x="43" y="191" width="106" height="32" class="terminal" rx="10"/>
         <text class="terminal" x="53" y="211">MIXINCLASS</text>
<!--     <a xmlns:xlink="http://www.w3.org/1999/xlink" xlink:href="#mclass" xlink:title="mclass"> -->
            <rect x="171" y="193" width="60" height="32"/>
            <rect x="169" y="191" width="60" height="32" class="nonterminal"/>
            <text class="nonterminal" x="179" y="211">mclass</text>
<!--     </a> -->
         <rect x="45" y="237" width="90" height="32" rx="10"/>
         <rect x="43" y="235" width="90" height="32" class="terminal" rx="10"/>
         <text class="terminal" x="53" y="255">SUBCLASS</text>
<!--     <a xmlns:xlink="http://www.w3.org/1999/xlink" xlink:href="#sclass" xlink:title="sclass"> -->
            <rect x="155" y="237" width="54" height="32"/>
            <rect x="153" y="235" width="54" height="32" class="nonterminal"/>
            <text class="nonterminal" x="163" y="255">sclass</text>
<!--     </a> -->
         <rect x="291" y="193" width="90" height="32" rx="10"/>
         <rect x="289" y="191" width="90" height="32" class="terminal" rx="10"/>
         <text class="terminal" x="299" y="211">ABSTRACT</text>
         <rect x="441" y="161" width="78" height="32" rx="10"/>
         <rect x="439" y="159" width="78" height="32" class="terminal" rx="10"/>
         <text class="terminal" x="449" y="179">INHERIT</text>
<!--     <a xmlns:xlink="http://www.w3.org/1999/xlink" xlink:href="#iclass" xlink:title="iclass"> -->
            <rect x="559" y="161" width="50" height="32"/>
            <rect x="557" y="159" width="50" height="32" class="nonterminal"/>
            <text class="nonterminal" x="567" y="179">iclass</text>
<!--     </a> -->
         <svg:path xmlns:svg="http://www.w3.org/2000/svg" class="line" d="m19 17 h2 m0 0 h10 m74 0 h10 m0 0 h10 m82 0 h10 m20 0 h10 m0 0 h210 m-240 0 h20 m220 0 h20 m-260 0 q10 0 10 10 m240 0 q0 -10 10 -10 m-250 10 v12 m240 0 v-12 m-240 12 q0 10 10 10 m220 0 q10 0 10 -10 m-230 10 h10 m100 0 h10 m0 0 h10 m80 0 h10 m40 -32 h10 m0 0 h88 m-118 0 h20 m98 0 h20 m-138 0 q10 0 10 10 m118 0 q0 -10 10 -10 m-128 10 v12 m118 0 v-12 m-118 12 q0 10 10 10 m98 0 q10 0 10 -10 m-108 10 h10 m78 0 h10 m-108 -10 v20 m118 0 v-20 m-118 20 v24 m118 0 v-24 m-118 24 q0 10 10 10 m98 0 q10 0 10 -10 m-108 10 h10 m70 0 h10 m0 0 h8 m22 -76 l2 0 m2 0 l2 0 m2 0 l2 0 m-626 158 l2 0 m2 0 l2 0 m2 0 l2 0 m22 0 h10 m0 0 h196 m-226 0 h20 m206 0 h20 m-246 0 q10 0 10 10 m226 0 q0 -10 10 -10 m-236 10 v12 m226 0 v-12 m-226 12 q0 10 10 10 m206 0 q10 0 10 -10 m-216 10 h10 m106 0 h10 m0 0 h10 m60 0 h10 m-216 -10 v20 m226 0 v-20 m-226 20 v24 m226 0 v-24 m-226 24 q0 10 10 10 m206 0 q10 0 10 -10 m-216 10 h10 m90 0 h10 m0 0 h10 m54 0 h10 m0 0 h22 m40 -76 h10 m0 0 h100 m-130 0 h20 m110 0 h20 m-150 0 q10 0 10 10 m130 0 q0 -10 10 -10 m-140 10 v12 m130 0 v-12 m-130 12 q0 10 10 10 m110 0 q10 0 10 -10 m-120 10 h10 m90 0 h10 m40 -32 h10 m78 0 h10 m20 0 h10 m50 0 h10 m-90 0 l20 0 m-1 0 q-9 0 -9 -10 l0 -12 q0 -10 10 -10 m70 32 l20 0 m-20 0 q10 0 10 -10 l0 -12 q0 -10 -10 -10 m-70 0 h10 m0 0 h60 m-208 32 h20 m208 0 h20 m-248 0 q10 0 10 10 m228 0 q0 -10 10 -10 m-238 10 v14 m228 0 v-14 m-228 14 q0 10 10 10 m208 0 q10 0 10 -10 m-218 10 h10 m0 0 h198 m23 -34 h-3"/>
         <polygon points="667 175 675 171 675 179"/>
         <polygon points="667 175 659 171 659 179"/>
      </svg>
