      <svg xmlns="http://www.w3.org/2000/svg" width="916" height="222">
         <defs>
            <style type="text/css">
               @namespace "http://www.w3.org/2000/svg";
               .line                 {fill: none; stroke: #1F1F1F;}
               .bold-line            {stroke: #0A0A0A; shape-rendering: crispEdges; stroke-width:
               2; }
               .thin-line            {stroke: #0F0F0F; shape-rendering: crispEdges}
               .filled               {fill: #1F1F1F; stroke: none;}
               text.terminal         {font-family: Verdana, Sans-serif;
               font-size: 12px;
               fill: #0A0A0A;
               font-weight: bold;
               }
               text.nonterminal      {font-family: Verdana, Sans-serif;
               font-size: 12px;
               fill: #0D0D0D;
               }
               text.regexp           {font-family: Verdana, Sans-serif;
               font-size: 12px;
               fill: #0F0F0F;
               }
               rect, circle, polygon {fill: #1F1F1F; stroke: #1F1F1F;}
               rect.terminal         {fill: #CCCCCC; stroke: #1F1F1F;}
               rect.nonterminal      {fill: #E3E3E3; stroke: #1F1F1F;}
               rect.text             {fill: none; stroke: none;}    
               polygon.regexp        {fill: #EFEFEF; stroke: #1F1F1F;}
               
            </style>
         </defs>
         <polygon points="9 17 1 13 1 21"/>
         <polygon points="17 17 9 13 9 21"/>
         <rect x="31" y="3" width="74" height="32" rx="10"/>
         <rect x="29" y="1" width="74" height="32" class="terminal" rx="10"/>
         <text class="terminal" x="39" y="21">::CLASS</text>
         <a xmlns:xlink="http://www.w3.org/1999/xlink" xlink:href="#classname" xlink:title="classname">
            <rect x="125" y="3" width="86" height="32"/>
            <rect x="123" y="1" width="86" height="32" class="nonterminal"/>
            <text class="nonterminal" x="133" y="21">classname</text>
         </a>
         <rect x="251" y="3" width="100" height="32" rx="10"/>
         <rect x="249" y="1" width="100" height="32" class="terminal" rx="10"/>
         <text class="terminal" x="259" y="21">METACLASS</text>
         <a xmlns:xlink="http://www.w3.org/1999/xlink" xlink:href="#metaclassname" xlink:title="metaclassname">
            <rect x="371" y="3" width="118" height="32"/>
            <rect x="369" y="1" width="118" height="32" class="nonterminal"/>
            <text class="nonterminal" x="379" y="21">metaclassname</text>
         </a>
         <rect x="549" y="3" width="92" height="32" rx="10"/>
         <rect x="547" y="1" width="92" height="32" class="terminal" rx="10"/>
         <text class="terminal" x="557" y="21">SUBCLASS</text>
         <a xmlns:xlink="http://www.w3.org/1999/xlink" xlink:href="#object" xlink:title="object">
            <rect x="661" y="3" width="58" height="32"/>
            <rect x="659" y="1" width="58" height="32" class="nonterminal"/>
            <text class="nonterminal" x="669" y="21">object</text>
         </a>
         <rect x="549" y="47" width="106" height="32" rx="10"/>
         <rect x="547" y="45" width="106" height="32" class="terminal" rx="10"/>
         <text class="terminal" x="557" y="65">MIXINCLASS</text>
         <a xmlns:xlink="http://www.w3.org/1999/xlink" xlink:href="#mclass" xlink:title="mclass">
            <rect x="675" y="47" width="62" height="32"/>
            <rect x="673" y="45" width="62" height="32" class="nonterminal"/>
            <text class="nonterminal" x="683" y="65">mclass</text>
         </a>
         <rect x="549" y="91" width="92" height="32" rx="10"/>
         <rect x="547" y="89" width="92" height="32" class="terminal" rx="10"/>
         <text class="terminal" x="557" y="109">SUBCLASS</text>
         <a xmlns:xlink="http://www.w3.org/1999/xlink" xlink:href="#sclass" xlink:title="sclass">
            <rect x="661" y="91" width="58" height="32"/>
            <rect x="659" y="89" width="58" height="32" class="nonterminal"/>
            <text class="nonterminal" x="669" y="109">sclass</text>
         </a>
         <rect x="797" y="3" width="78" height="32" rx="10"/>
         <rect x="795" y="1" width="78" height="32" class="terminal" rx="10"/>
         <text class="terminal" x="805" y="21">PRIVATE</text>
         <rect x="797" y="47" width="70" height="32" rx="10"/>
         <rect x="795" y="45" width="70" height="32" class="terminal" rx="10"/>
         <text class="terminal" x="805" y="65">PUBLIC</text>
         <rect x="715" y="173" width="76" height="32" rx="10"/>
         <rect x="713" y="171" width="76" height="32" class="terminal" rx="10"/>
         <text class="terminal" x="723" y="191">INHERIT</text>
         <a xmlns:xlink="http://www.w3.org/1999/xlink" xlink:href="#oclass" xlink:title="oclass">
            <rect x="811" y="173" width="58" height="32"/>
            <rect x="809" y="171" width="58" height="32" class="nonterminal"/>
            <text class="nonterminal" x="819" y="191">oclass</text>
         </a>
         <svg:path xmlns:svg="http://www.w3.org/2000/svg" class="line" d="m17 17 h2 m0 0 h10 m74 0 h10 m0 0 h10 m86 0 h10 m20 0 h10 m100 0 h10 m0 0 h10 m118 0 h10 m-278 0 h20 m258 0 h20 m-298 0 q10 0 10 10 m278 0 q0 -10 10 -10 m-288 10 v14 m278 0 v-14 m-278 14 q0 10 10 10 m258 0 q10 0 10 -10 m-268 10 h10 m0 0 h248 m40 -34 h10 m92 0 h10 m0 0 h10 m58 0 h10 m0 0 h18 m-228 0 h20 m208 0 h20 m-248 0 q10 0 10 10 m228 0 q0 -10 10 -10 m-238 10 v24 m228 0 v-24 m-228 24 q0 10 10 10 m208 0 q10 0 10 -10 m-218 10 h10 m106 0 h10 m0 0 h10 m62 0 h10 m-218 -10 v20 m228 0 v-20 m-228 20 v24 m228 0 v-24 m-228 24 q0 10 10 10 m208 0 q10 0 10 -10 m-218 10 h10 m92 0 h10 m0 0 h10 m58 0 h10 m0 0 h18 m-218 -10 v20 m228 0 v-20 m-228 20 v14 m228 0 v-14 m-228 14 q0 10 10 10 m208 0 q10 0 10 -10 m-218 10 h10 m0 0 h198 m40 -122 h10 m78 0 h10 m-118 0 h20 m98 0 h20 m-138 0 q10 0 10 10 m118 0 q0 -10 10 -10 m-128 10 v24 m118 0 v-24 m-118 24 q0 10 10 10 m98 0 q10 0 10 -10 m-108 10 h10 m70 0 h10 m0 0 h8 m-108 -10 v20 m118 0 v-20 m-118 20 v14 m118 0 v-14 m-118 14 q0 10 10 10 m98 0 q10 0 10 -10 m-108 10 h10 m0 0 h88 m22 -78 l2 0 m2 0 l2 0 m2 0 l2 0 m-244 170 l2 0 m2 0 l2 0 m2 0 l2 0 m22 0 h10 m76 0 h10 m0 0 h10 m58 0 h10 m-194 0 h20 m174 0 h20 m-214 0 q10 0 10 10 m194 0 q0 -10 10 -10 m-204 10 v14 m194 0 v-14 m-194 14 q0 10 10 10 m174 0 q10 0 10 -10 m-184 10 h10 m0 0 h164 m23 -34 h-3"/>
         <polygon points="907 187 915 183 915 191"/>
         <polygon points="907 187 899 183 899 191"/>
      </svg>
