<svg xmlns="http://www.w3.org/2000/svg" width="887" height="227">
         <defs>
            <style type="text/css">
               @namespace "http://www.w3.org/2000/svg";
               .line                 {fill: none; stroke: #1F1F1F;}
               .bold-line            {stroke: #0A0A0A; shape-rendering: crispEdges; stroke-width:
               2; }
               .thin-line            {stroke: #0F0F0F; shape-rendering: crispEdges}
               .filled               {fill: #1F1F1F; stroke: none;}
               text.terminal         {font-family: Verdana, Sans-serif;
               font-size: 12px;
               fill: #0A0A0A;
               font-weight: bold;
               }
               text.nonterminal      {font-family: Verdana, Sans-serif; font-style: italic;
               font-size: 12px;
               fill: #0D0D0D;
               }
               text.regexp           {font-family: Verdana, Sans-serif;
               font-size: 12px;
               fill: #0F0F0F;
               }
               rect, circle, polygon {fill: #1F1F1F; stroke: #1F1F1F;}
               rect.terminal         {fill: #CCCCCC; stroke: #1F1F1F;}
               rect.nonterminal      {fill: #E3E3E3; stroke: #1F1F1F;}
               rect.text             {fill: none; stroke: none;}
               polygon.regexp        {fill: #EFEFEF; stroke: #1F1F1F;}

            </style>
         </defs>

         <polygon points="9 17 1 13 1 21"/>
         <polygon points="17 17 9 13 9 21"/>
         <rect x="31" y="3" width="74" height="32" rx="10"/>
         <rect x="29" y="1" width="74" height="32" class="terminal" rx="10"/>
         <text class="terminal" x="39" y="21">::CLASS</text><a xmlns:xlink="http://www.w3.org/1999/xlink" xlink:href="#classname" xlink:title="classname">
            <rect x="125" y="3" width="86" height="32"/>
            <rect x="123" y="1" width="86" height="32" class="nonterminal"/>
            <text class="nonterminal" x="133" y="21">classname</text></a><rect x="251" y="35" width="100" height="32" rx="10"/>
         <rect x="249" y="33" width="100" height="32" class="terminal" rx="10"/>
         <text class="terminal" x="259" y="53">METACLASS</text><a xmlns:xlink="http://www.w3.org/1999/xlink" xlink:href="#metaclass" xlink:title="metaclass">
            <rect x="371" y="35" width="84" height="32"/>
            <rect x="369" y="33" width="84" height="32" class="nonterminal"/>
            <text class="nonterminal" x="379" y="53">metaclass</text></a><rect x="515" y="35" width="80" height="32" rx="10"/>
         <rect x="513" y="33" width="80" height="32" class="terminal" rx="10"/>
         <text class="terminal" x="523" y="53">PRIVATE</text>
         <rect x="515" y="79" width="70" height="32" rx="10"/>
         <rect x="513" y="77" width="70" height="32" class="terminal" rx="10"/>
         <text class="terminal" x="523" y="97">PUBLIC</text>
         <rect x="655" y="35" width="108" height="32" rx="10"/>
         <rect x="653" y="33" width="108" height="32" class="terminal" rx="10"/>
         <text class="terminal" x="663" y="53">MIXINCLASS</text><a xmlns:xlink="http://www.w3.org/1999/xlink" xlink:href="#mclass" xlink:title="mclass">
            <rect x="783" y="35" width="62" height="32"/>
            <rect x="781" y="33" width="62" height="32" class="nonterminal"/>
            <text class="nonterminal" x="791" y="53">mclass</text></a><rect x="655" y="79" width="92" height="32" rx="10"/>
         <rect x="653" y="77" width="92" height="32" class="terminal" rx="10"/>
         <text class="terminal" x="663" y="97">SUBCLASS</text><a xmlns:xlink="http://www.w3.org/1999/xlink" xlink:href="#sclass" xlink:title="sclass">
            <rect x="767" y="79" width="58" height="32"/>
            <rect x="765" y="77" width="58" height="32" class="nonterminal"/>
            <text class="nonterminal" x="775" y="97">sclass</text></a><rect x="495" y="193" width="92" height="32" rx="10"/>
         <rect x="493" y="191" width="92" height="32" class="terminal" rx="10"/>
         <text class="terminal" x="503" y="211">ABSTRACT</text>
         <rect x="647" y="161" width="78" height="32" rx="10"/>
         <rect x="645" y="159" width="78" height="32" class="terminal" rx="10"/>
         <text class="terminal" x="655" y="179">INHERIT</text><a xmlns:xlink="http://www.w3.org/1999/xlink" xlink:href="#iclass" xlink:title="iclass">
            <rect x="765" y="161" width="54" height="32"/>
            <rect x="763" y="159" width="54" height="32" class="nonterminal"/>
            <text class="nonterminal" x="773" y="179">iclass</text></a><path class="line" d="m17 17 h2 m0 0 h10 m74 0 h10 m0 0 h10 m86 0 h10 m20 0 h10 m0 0 h214 m-244 0 h20 m224 0 h20 m-264 0 q10 0 10 10 m244 0 q0 -10 10 -10 m-254 10 v12 m244 0 v-12 m-244 12 q0 10 10 10 m224 0 q10 0 10 -10 m-234 10 h10 m100 0 h10 m0 0 h10 m84 0 h10 m40 -32 h10 m0 0 h90 m-120 0 h20 m100 0 h20 m-140 0 q10 0 10 10 m120 0 q0 -10 10 -10 m-130 10 v12 m120 0 v-12 m-120 12 q0 10 10 10 m100 0 q10 0 10 -10 m-110 10 h10 m80 0 h10 m-110 -10 v20 m120 0 v-20 m-120 20 v24 m120 0 v-24 m-120 24 q0 10 10 10 m100 0 q10 0 10 -10 m-110 10 h10 m70 0 h10 m0 0 h10 m40 -76 h10 m0 0 h200 m-230 0 h20 m210 0 h20 m-250 0 q10 0 10 10 m230 0 q0 -10 10 -10 m-240 10 v12 m230 0 v-12 m-230 12 q0 10 10 10 m210 0 q10 0 10 -10 m-220 10 h10 m108 0 h10 m0 0 h10 m62 0 h10 m-220 -10 v20 m230 0 v-20 m-230 20 v24 m230 0 v-24 m-230 24 q0 10 10 10 m210 0 q10 0 10 -10 m-220 10 h10 m92 0 h10 m0 0 h10 m58 0 h10 m0 0 h20 m22 -76 l2 0 m2 0 l2 0 m2 0 l2 0 m-434 158 l2 0 m2 0 l2 0 m2 0 l2 0 m22 0 h10 m0 0 h102 m-132 0 h20 m112 0 h20 m-152 0 q10 0 10 10 m132 0 q0 -10 10 -10 m-142 10 v12 m132 0 v-12 m-132 12 q0 10 10 10 m112 0 q10 0 10 -10 m-122 10 h10 m92 0 h10 m40 -32 h10 m78 0 h10 m20 0 h10 m54 0 h10 m-94 0 l20 0 m-1 0 q-9 0 -9 -10 l0 -12 q0 -10 10 -10 m74 32 l20 0 m-20 0 q10 0 10 -10 l0 -12 q0 -10 -10 -10 m-74 0 h10 m0 0 h64 m-212 32 h20 m212 0 h20 m-252 0 q10 0 10 10 m232 0 q0 -10 10 -10 m-242 10 v14 m232 0 v-14 m-232 14 q0 10 10 10 m212 0 q10 0 10 -10 m-222 10 h10 m0 0 h202 m23 -34 h-3"/>
         <polygon points="877 175 885 171 885 179"/>
         <polygon points="877 175 869 171 869 179"/>
</svg>