      <svg xmlns="http://www.w3.org/2000/svg" width="880" height="194">
         <defs>
            <style type="text/css">
               @namespace "http://www.w3.org/2000/svg";
               .line                 {fill: none; stroke: #1F1F1F;}
               .bold-line            {stroke: #0A0A0A; shape-rendering: crispEdges; stroke-width:
               2; }
               .thin-line            {stroke: #0F0F0F; shape-rendering: crispEdges}
               .filled               {fill: #1F1F1F; stroke: none;}
               text.terminal         {font-family: Verdana, Sans-serif;
               font-size: 12px;
               fill: #0A0A0A;
               font-weight: bold;
               }
               text.nonterminal      {font-family: Verdana, Sans-serif; font-style: italic;
               font-size: 12px;
               fill: #0D0D0D;
               }
               text.regexp           {font-family: Verdana, Sans-serif;
               font-size: 12px;
               fill: #0F0F0F;
               }
               rect, circle, polygon {fill: #1F1F1F; stroke: #1F1F1F;}
               rect.terminal         {fill: #CCCCCC; stroke: #1F1F1F;}
               rect.nonterminal      {fill: #E3E3E3; stroke: #1F1F1F;}
               rect.text             {fill: none; stroke: none;}    
               polygon.regexp        {fill: #EFEFEF; stroke: #1F1F1F;}
               
            </style>
         </defs>
         <polygon points="9 17 1 13 1 21"/>
         <polygon points="17 17 9 13 9 21"/>
         <rect x="31" y="3" width="74" height="32" rx="10"/>
         <rect x="29" y="1" width="74" height="32" class="terminal" rx="10"/>
         <text class="terminal" x="39" y="21">::CLASS</text>
<!--     <a xmlns:xlink="http://www.w3.org/1999/xlink" xlink:href="#classname" xlink:title="classname"> -->
            <rect x="125" y="3" width="86" height="32"/>
            <rect x="123" y="1" width="86" height="32" class="nonterminal"/>
            <text class="nonterminal" x="133" y="21">classname</text>
<!--     </a> -->
         <rect x="251" y="3" width="100" height="32" rx="10"/>
         <rect x="249" y="1" width="100" height="32" class="terminal" rx="10"/>
         <text class="terminal" x="259" y="21">METACLASS</text>
<!--     <a xmlns:xlink="http://www.w3.org/1999/xlink" xlink:href="#metaclass" xlink:title="metaclass"> -->
            <rect x="371" y="3" width="82" height="32"/>
            <rect x="369" y="1" width="82" height="32" class="nonterminal"/>
            <text class="nonterminal" x="379" y="21">metaclass</text>
<!--     </a> -->
         <rect x="513" y="3" width="78" height="32" rx="10"/>
         <rect x="511" y="1" width="78" height="32" class="terminal" rx="10"/>
         <text class="terminal" x="521" y="21">PRIVATE</text>
         <rect x="513" y="47" width="70" height="32" rx="10"/>
         <rect x="511" y="45" width="70" height="32" class="terminal" rx="10"/>
         <text class="terminal" x="521" y="65">PUBLIC</text>
         <rect x="651" y="3" width="106" height="32" rx="10"/>
         <rect x="649" y="1" width="106" height="32" class="terminal" rx="10"/>
         <text class="terminal" x="659" y="21">MIXINCLASS</text>
<!--     <a xmlns:xlink="http://www.w3.org/1999/xlink" xlink:href="#mclass" xlink:title="mclass"> -->
            <rect x="777" y="3" width="62" height="32"/>
            <rect x="775" y="1" width="62" height="32" class="nonterminal"/>
            <text class="nonterminal" x="785" y="21">mclass</text>
<!--     </a> -->
         <rect x="651" y="47" width="92" height="32" rx="10"/>
         <rect x="649" y="45" width="92" height="32" class="terminal" rx="10"/>
         <text class="terminal" x="659" y="65">SUBCLASS</text>
<!--     <a xmlns:xlink="http://www.w3.org/1999/xlink" xlink:href="#sclass" xlink:title="sclass"> -->
            <rect x="763" y="47" width="58" height="32"/>
            <rect x="761" y="45" width="58" height="32" class="nonterminal"/>
            <text class="nonterminal" x="771" y="65">sclass</text>
<!--     </a> -->
         <rect x="493" y="145" width="90" height="32" rx="10"/>
         <rect x="491" y="143" width="90" height="32" class="terminal" rx="10"/>
         <text class="terminal" x="501" y="163">ABSTRACT</text>
         <rect x="643" y="145" width="76" height="32" rx="10"/>
         <rect x="641" y="143" width="76" height="32" class="terminal" rx="10"/>
         <text class="terminal" x="651" y="163">INHERIT</text>
<!--     <a xmlns:xlink="http://www.w3.org/1999/xlink" xlink:href="#iclass" xlink:title="iclass"> -->
            <rect x="759" y="145" width="54" height="32"/>
            <rect x="757" y="143" width="54" height="32" class="nonterminal"/>
            <text class="nonterminal" x="767" y="163">iclass</text>
<!--     </a> -->
         <svg:path xmlns:svg="http://www.w3.org/2000/svg" class="line" d="m17 17 h2 m0 0 h10 m74 0 h10 m0 0 h10 m86 0 h10 m20 0 h10 m100 0 h10 m0 0 h10 m82 0 h10 m-242 0 h20 m222 0 h20 m-262 0 q10 0 10 10 m242 0 q0 -10 10 -10 m-252 10 v14 m242 0 v-14 m-242 14 q0 10 10 10 m222 0 q10 0 10 -10 m-232 10 h10 m0 0 h212 m40 -34 h10 m78 0 h10 m-118 0 h20 m98 0 h20 m-138 0 q10 0 10 10 m118 0 q0 -10 10 -10 m-128 10 v24 m118 0 v-24 m-118 24 q0 10 10 10 m98 0 q10 0 10 -10 m-108 10 h10 m70 0 h10 m0 0 h8 m-108 -10 v20 m118 0 v-20 m-118 20 v14 m118 0 v-14 m-118 14 q0 10 10 10 m98 0 q10 0 10 -10 m-108 10 h10 m0 0 h88 m40 -78 h10 m106 0 h10 m0 0 h10 m62 0 h10 m-228 0 h20 m208 0 h20 m-248 0 q10 0 10 10 m228 0 q0 -10 10 -10 m-238 10 v24 m228 0 v-24 m-228 24 q0 10 10 10 m208 0 q10 0 10 -10 m-218 10 h10 m92 0 h10 m0 0 h10 m58 0 h10 m0 0 h18 m-218 -10 v20 m228 0 v-20 m-228 20 v14 m228 0 v-14 m-228 14 q0 10 10 10 m208 0 q10 0 10 -10 m-218 10 h10 m0 0 h198 m22 -78 l2 0 m2 0 l2 0 m2 0 l2 0 m-430 142 l2 0 m2 0 l2 0 m2 0 l2 0 m22 0 h10 m90 0 h10 m-130 0 h20 m110 0 h20 m-150 0 q10 0 10 10 m130 0 q0 -10 10 -10 m-140 10 v14 m130 0 v-14 m-130 14 q0 10 10 10 m110 0 q10 0 10 -10 m-120 10 h10 m0 0 h100 m40 -34 h10 m76 0 h10 m20 0 h10 m54 0 h10 m-94 0 l20 0 m-1 0 q-9 0 -9 -10 l0 -12 q0 -10 10 -10 m74 32 l20 0 m-20 0 q10 0 10 -10 l0 -12 q0 -10 -10 -10 m-74 0 h10 m0 0 h64 m-210 32 h20 m210 0 h20 m-250 0 q10 0 10 10 m230 0 q0 -10 10 -10 m-240 10 v14 m230 0 v-14 m-230 14 q0 10 10 10 m210 0 q10 0 10 -10 m-220 10 h10 m0 0 h200 m23 -34 h-3"/>
         <polygon points="871 159 879 155 879 163"/>
         <polygon points="871 159 863 155 863 163"/>
      </svg>
