      <svg xmlns="http://www.w3.org/2000/svg" width="680" height="270">
         <defs>
            <style type="text/css">
               @namespace "http://www.w3.org/2000/svg";
               .line                 {fill: none; stroke: #1F1F1F;}
               .bold-line            {stroke: #0A0A0A; shape-rendering: crispEdges; stroke-width:
               2; }
               .thin-line            {stroke: #0F0F0F; shape-rendering: crispEdges}
               .filled               {fill: #1F1F1F; stroke: none;}
               text.terminal         {font-family: Verdana, Sans-serif;
               font-size: 12px;
               fill: #0A0A0A;
               font-weight: bold;
               }
               text.nonterminal      {font-family: Verdana, Sans-serif; font-style: italic;
               font-size: 12px;
               fill: #0D0D0D;
               }
               text.regexp           {font-family: Verdana, Sans-serif;
               font-size: 12px;
               fill: #0F0F0F;
               }
               rect, circle, polygon {fill: #1F1F1F; stroke: #1F1F1F;}
               rect.terminal         {fill: #CCCCCC; stroke: #1F1F1F;}
               rect.nonterminal      {fill: #E3E3E3; stroke: #1F1F1F;}
               rect.text             {fill: none; stroke: none;}    
               polygon.regexp        {fill: #EFEFEF; stroke: #1F1F1F;}
               
            </style>
         </defs>
         <polygon points="11 17 3 13 3 21"/>
         <polygon points="19 17 11 13 11 21"/>
         <rect x="33" y="3" width="74" height="32" rx="10"/>
         <rect x="31" y="1" width="74" height="32" class="terminal" rx="10"/>
         <text class="terminal" x="41" y="21">::CLASS</text>
<!--     <a xmlns:xlink="http://www.w3.org/1999/xlink" xlink:href="#classname" xlink:title="classname"> -->
            <rect x="127" y="3" width="86" height="32"/>
            <rect x="125" y="1" width="86" height="32" class="nonterminal"/>
            <text class="nonterminal" x="135" y="21">classname</text>
<!--     </a> -->
         <rect x="253" y="35" width="100" height="32" rx="10"/>
         <rect x="251" y="33" width="100" height="32" class="terminal" rx="10"/>
         <text class="terminal" x="261" y="53">METACLASS</text>
<!--     <a xmlns:xlink="http://www.w3.org/1999/xlink" xlink:href="#metaclass" xlink:title="metaclass"> -->
            <rect x="373" y="35" width="82" height="32"/>
            <rect x="371" y="33" width="82" height="32" class="nonterminal"/>
            <text class="nonterminal" x="381" y="53">metaclass</text>
<!--     </a> -->
         <rect x="515" y="35" width="78" height="32" rx="10"/>
         <rect x="513" y="33" width="78" height="32" class="terminal" rx="10"/>
         <text class="terminal" x="523" y="53">PRIVATE</text>
         <rect x="515" y="79" width="70" height="32" rx="10"/>
         <rect x="513" y="77" width="70" height="32" class="terminal" rx="10"/>
         <text class="terminal" x="523" y="97">PUBLIC</text>
         <rect x="45" y="193" width="106" height="32" rx="10"/>
         <rect x="43" y="191" width="106" height="32" class="terminal" rx="10"/>
         <text class="terminal" x="53" y="211">MIXINCLASS</text>
<!--     <a xmlns:xlink="http://www.w3.org/1999/xlink" xlink:href="#mclass" xlink:title="mclass"> -->
            <rect x="171" y="193" width="62" height="32"/>
            <rect x="169" y="191" width="62" height="32" class="nonterminal"/>
            <text class="nonterminal" x="179" y="211">mclass</text>
<!--     </a> -->
         <rect x="45" y="237" width="92" height="32" rx="10"/>
         <rect x="43" y="235" width="92" height="32" class="terminal" rx="10"/>
         <text class="terminal" x="53" y="255">SUBCLASS</text>
<!--     <a xmlns:xlink="http://www.w3.org/1999/xlink" xlink:href="#sclass" xlink:title="sclass"> -->
            <rect x="157" y="237" width="58" height="32"/>
            <rect x="155" y="235" width="58" height="32" class="nonterminal"/>
            <text class="nonterminal" x="165" y="255">sclass</text>
<!--     </a> -->
         <rect x="293" y="193" width="90" height="32" rx="10"/>
         <rect x="291" y="191" width="90" height="32" class="terminal" rx="10"/>
         <text class="terminal" x="301" y="211">ABSTRACT</text>
         <rect x="443" y="161" width="76" height="32" rx="10"/>
         <rect x="441" y="159" width="76" height="32" class="terminal" rx="10"/>
         <text class="terminal" x="451" y="179">INHERIT</text>
<!--     <a xmlns:xlink="http://www.w3.org/1999/xlink" xlink:href="#iclass" xlink:title="iclass"> -->
            <rect x="559" y="161" width="54" height="32"/>
            <rect x="557" y="159" width="54" height="32" class="nonterminal"/>
            <text class="nonterminal" x="567" y="179">iclass</text>
<!--     </a> -->
         <svg:path xmlns:svg="http://www.w3.org/2000/svg" class="line" d="m19 17 h2 m0 0 h10 m74 0 h10 m0 0 h10 m86 0 h10 m20 0 h10 m0 0 h212 m-242 0 h20 m222 0 h20 m-262 0 q10 0 10 10 m242 0 q0 -10 10 -10 m-252 10 v12 m242 0 v-12 m-242 12 q0 10 10 10 m222 0 q10 0 10 -10 m-232 10 h10 m100 0 h10 m0 0 h10 m82 0 h10 m40 -32 h10 m0 0 h88 m-118 0 h20 m98 0 h20 m-138 0 q10 0 10 10 m118 0 q0 -10 10 -10 m-128 10 v12 m118 0 v-12 m-118 12 q0 10 10 10 m98 0 q10 0 10 -10 m-108 10 h10 m78 0 h10 m-108 -10 v20 m118 0 v-20 m-118 20 v24 m118 0 v-24 m-118 24 q0 10 10 10 m98 0 q10 0 10 -10 m-108 10 h10 m70 0 h10 m0 0 h8 m22 -76 l2 0 m2 0 l2 0 m2 0 l2 0 m-632 158 l2 0 m2 0 l2 0 m2 0 l2 0 m22 0 h10 m0 0 h198 m-228 0 h20 m208 0 h20 m-248 0 q10 0 10 10 m228 0 q0 -10 10 -10 m-238 10 v12 m228 0 v-12 m-228 12 q0 10 10 10 m208 0 q10 0 10 -10 m-218 10 h10 m106 0 h10 m0 0 h10 m62 0 h10 m-218 -10 v20 m228 0 v-20 m-228 20 v24 m228 0 v-24 m-228 24 q0 10 10 10 m208 0 q10 0 10 -10 m-218 10 h10 m92 0 h10 m0 0 h10 m58 0 h10 m0 0 h18 m40 -76 h10 m0 0 h100 m-130 0 h20 m110 0 h20 m-150 0 q10 0 10 10 m130 0 q0 -10 10 -10 m-140 10 v12 m130 0 v-12 m-130 12 q0 10 10 10 m110 0 q10 0 10 -10 m-120 10 h10 m90 0 h10 m40 -32 h10 m76 0 h10 m20 0 h10 m54 0 h10 m-94 0 l20 0 m-1 0 q-9 0 -9 -10 l0 -12 q0 -10 10 -10 m74 32 l20 0 m-20 0 q10 0 10 -10 l0 -12 q0 -10 -10 -10 m-74 0 h10 m0 0 h64 m-210 32 h20 m210 0 h20 m-250 0 q10 0 10 10 m230 0 q0 -10 10 -10 m-240 10 v14 m230 0 v-14 m-230 14 q0 10 10 10 m210 0 q10 0 10 -10 m-220 10 h10 m0 0 h200 m23 -34 h-3"/>
         <polygon points="671 175 679 171 679 179"/>
         <polygon points="671 175 663 171 663 179"/>
      </svg>
