      <svg xmlns="http://www.w3.org/2000/svg" width="344" height="68">
         <defs>
            <style type="text/css">
               @namespace "http://www.w3.org/2000/svg";
               .line                 {fill: none; stroke: #1F1F1F;}
               .bold-line            {stroke: #0A0A0A; shape-rendering: crispEdges; stroke-width:
               2; }
               .thin-line            {stroke: #0F0F0F; shape-rendering: crispEdges}
               .filled               {fill: #1F1F1F; stroke: none;}
               text.terminal         {font-family: Verdana, Sans-serif;
               font-size: 12px;
               fill: #0A0A0A;
               font-weight: bold;
               }
               text.nonterminal      {font-family: Verdana, Sans-serif; font-style: italic;
               font-size: 12px;
               fill: #0D0D0D;
               }
               text.regexp           {font-family: Verdana, Sans-serif;
               font-size: 12px;
               fill: #0F0F0F;
               }
               rect, circle, polygon {fill: #1F1F1F; stroke: #1F1F1F;}
               rect.terminal         {fill: #CCCCCC; stroke: #1F1F1F;}
               rect.nonterminal      {fill: #E3E3E3; stroke: #1F1F1F;}
               rect.text             {fill: none; stroke: none;}    
               polygon.regexp        {fill: #EFEFEF; stroke: #1F1F1F;}
               
            </style>
         </defs>
         <polygon points="9 17 1 13 1 21"/>
         <polygon points="17 17 9 13 9 21"/>
         <rect x="31" y="3" width="102" height="32" rx="10"/>
         <rect x="29" y="1" width="102" height="32" class="terminal" rx="10"/>
         <text class="terminal" x="39" y="21">::CONSTANT</text>
<!--     <a xmlns:xlink="http://www.w3.org/1999/xlink" xlink:href="#name" xlink:title="name"> -->
            <rect x="153" y="3" width="54" height="32"/>
            <rect x="151" y="1" width="54" height="32" class="nonterminal"/>
            <text class="nonterminal" x="161" y="21">name</text>
<!--     </a> -->
<!--     <a xmlns:xlink="http://www.w3.org/1999/xlink" xlink:href="#value" xlink:title="value"> -->
            <rect x="247" y="35" width="50" height="32"/>
            <rect x="245" y="33" width="50" height="32" class="nonterminal"/>
            <text class="nonterminal" x="255" y="53">value</text>
<!--     </a> -->
         <svg:path xmlns:svg="http://www.w3.org/2000/svg" class="line" d="m17 17 h2 m0 0 h10 m102 0 h10 m0 0 h10 m54 0 h10 m20 0 h10 m0 0 h60 m-90 0 h20 m70 0 h20 m-110 0 q10 0 10 10 m90 0 q0 -10 10 -10 m-100 10 v12 m90 0 v-12 m-90 12 q0 10 10 10 m70 0 q10 0 10 -10 m-80 10 h10 m50 0 h10 m23 -32 h-3"/>
         <polygon points="335 17 343 13 343 21"/>
         <polygon points="335 17 327 13 327 21"/>
      </svg>
