      <svg xmlns="http://www.w3.org/2000/svg" width="840" height="286">
         <defs>
            <style type="text/css">
               @namespace "http://www.w3.org/2000/svg";
               .line                 {fill: none; stroke: #1F1F1F;}
               .bold-line            {stroke: #0A0A0A; shape-rendering: crispEdges; stroke-width:
               2; }
               .thin-line            {stroke: #0F0F0F; shape-rendering: crispEdges}
               .filled               {fill: #1F1F1F; stroke: none;}
               text.terminal         {font-family: Verdana, Sans-serif;
               font-size: 12px;
               fill: #0A0A0A;
               font-weight: bold;
               }
               text.nonterminal      {font-family: Verdana, Sans-serif; font-style: italic;
               font-size: 12px;
               fill: #0D0D0D;
               }
               text.regexp           {font-family: Verdana, Sans-serif;
               font-size: 12px;
               fill: #0F0F0F;
               }
               rect, circle, polygon {fill: #1F1F1F; stroke: #1F1F1F;}
               rect.terminal         {fill: #CCCCCC; stroke: #1F1F1F;}
               rect.nonterminal      {fill: #E3E3E3; stroke: #1F1F1F;}
               rect.text             {fill: none; stroke: none;}    
               polygon.regexp        {fill: #EFEFEF; stroke: #1F1F1F;}
               
            </style>
         </defs>
         <polygon points="9 17 1 13 1 21"/>
         <polygon points="17 17 9 13 9 21"/>
         <rect x="31" y="3" width="86" height="32" rx="10"/>
         <rect x="29" y="1" width="86" height="32" class="terminal" rx="10"/>
         <text class="terminal" x="39" y="21">::METHOD</text>
<!--     <a xmlns:xlink="http://www.w3.org/1999/xlink" xlink:href="#methodname" xlink:title="methodname"> -->
            <rect x="137" y="3" width="100" height="32"/>
            <rect x="135" y="1" width="100" height="32" class="nonterminal"/>
            <text class="nonterminal" x="145" y="21">methodname</text>
<!--     </a> -->
         <rect x="277" y="35" width="96" height="32" rx="10"/>
         <rect x="275" y="33" width="96" height="32" class="terminal" rx="10"/>
         <text class="terminal" x="285" y="53">ATTRIBUTE</text>
         <rect x="433" y="35" width="64" height="32" rx="10"/>
         <rect x="431" y="33" width="64" height="32" class="terminal" rx="10"/>
         <text class="terminal" x="441" y="53">CLASS</text>
         <rect x="557" y="35" width="70" height="32" rx="10"/>
         <rect x="555" y="33" width="70" height="32" class="terminal" rx="10"/>
         <text class="terminal" x="565" y="53">PUBLIC</text>
         <rect x="557" y="79" width="78" height="32" rx="10"/>
         <rect x="555" y="77" width="78" height="32" class="terminal" rx="10"/>
         <text class="terminal" x="565" y="97">PRIVATE</text>
         <rect x="695" y="35" width="86" height="32" rx="10"/>
         <rect x="693" y="33" width="86" height="32" class="terminal" rx="10"/>
         <text class="terminal" x="703" y="53">GUARDED</text>
         <rect x="695" y="79" width="104" height="32" rx="10"/>
         <rect x="693" y="77" width="104" height="32" class="terminal" rx="10"/>
         <text class="terminal" x="703" y="97">UNGUARDED</text>
         <rect x="403" y="165" width="118" height="32" rx="10"/>
         <rect x="401" y="163" width="118" height="32" class="terminal" rx="10"/>
         <text class="terminal" x="411" y="183">UNPROTECTED</text>
         <rect x="403" y="209" width="98" height="32" rx="10"/>
         <rect x="401" y="207" width="98" height="32" class="terminal" rx="10"/>
         <text class="terminal" x="411" y="227">PROTECTED</text>
         <rect x="581" y="165" width="90" height="32" rx="10"/>
         <rect x="579" y="163" width="90" height="32" class="terminal" rx="10"/>
         <text class="terminal" x="589" y="183">ABSTRACT</text>
         <rect x="581" y="209" width="88" height="32" rx="10"/>
         <rect x="579" y="207" width="88" height="32" class="terminal" rx="10"/>
         <text class="terminal" x="589" y="227">DELEGATE</text>
<!--     <a xmlns:xlink="http://www.w3.org/1999/xlink" xlink:href="#delegatename" xlink:title="delegatename"> -->
            <rect x="689" y="209" width="104" height="32"/>
            <rect x="687" y="207" width="104" height="32" class="nonterminal"/>
            <text class="nonterminal" x="697" y="227">delegatename</text>
<!--     </a> -->
         <rect x="581" y="253" width="90" height="32" rx="10"/>
         <rect x="579" y="251" width="90" height="32" class="terminal" rx="10"/>
         <text class="terminal" x="589" y="271">EXTERNAL</text>
<!--     <a xmlns:xlink="http://www.w3.org/1999/xlink" xlink:href="#spec" xlink:title="spec"> -->
            <rect x="691" y="253" width="46" height="32"/>
            <rect x="689" y="251" width="46" height="32" class="nonterminal"/>
            <text class="nonterminal" x="699" y="271">spec</text>
<!--     </a> -->
         <svg:path xmlns:svg="http://www.w3.org/2000/svg" class="line" d="m17 17 h2 m0 0 h10 m86 0 h10 m0 0 h10 m100 0 h10 m20 0 h10 m0 0 h106 m-136 0 h20 m116 0 h20 m-156 0 q10 0 10 10 m136 0 q0 -10 10 -10 m-146 10 v12 m136 0 v-12 m-136 12 q0 10 10 10 m116 0 q10 0 10 -10 m-126 10 h10 m96 0 h10 m40 -32 h10 m0 0 h74 m-104 0 h20 m84 0 h20 m-124 0 q10 0 10 10 m104 0 q0 -10 10 -10 m-114 10 v12 m104 0 v-12 m-104 12 q0 10 10 10 m84 0 q10 0 10 -10 m-94 10 h10 m64 0 h10 m40 -32 h10 m0 0 h88 m-118 0 h20 m98 0 h20 m-138 0 q10 0 10 10 m118 0 q0 -10 10 -10 m-128 10 v12 m118 0 v-12 m-118 12 q0 10 10 10 m98 0 q10 0 10 -10 m-108 10 h10 m70 0 h10 m0 0 h8 m-108 -10 v20 m118 0 v-20 m-118 20 v24 m118 0 v-24 m-118 24 q0 10 10 10 m98 0 q10 0 10 -10 m-108 10 h10 m78 0 h10 m40 -76 h10 m0 0 h114 m-144 0 h20 m124 0 h20 m-164 0 q10 0 10 10 m144 0 q0 -10 10 -10 m-154 10 v12 m144 0 v-12 m-144 12 q0 10 10 10 m124 0 q10 0 10 -10 m-134 10 h10 m86 0 h10 m0 0 h18 m-134 -10 v20 m144 0 v-20 m-144 20 v24 m144 0 v-24 m-144 24 q0 10 10 10 m124 0 q10 0 10 -10 m-134 10 h10 m104 0 h10 m22 -76 l2 0 m2 0 l2 0 m2 0 l2 0 m-480 130 l2 0 m2 0 l2 0 m2 0 l2 0 m22 0 h10 m0 0 h128 m-158 0 h20 m138 0 h20 m-178 0 q10 0 10 10 m158 0 q0 -10 10 -10 m-168 10 v12 m158 0 v-12 m-158 12 q0 10 10 10 m138 0 q10 0 10 -10 m-148 10 h10 m118 0 h10 m-148 -10 v20 m158 0 v-20 m-158 20 v24 m158 0 v-24 m-158 24 q0 10 10 10 m138 0 q10 0 10 -10 m-148 10 h10 m98 0 h10 m0 0 h20 m40 -76 h10 m0 0 h222 m-252 0 h20 m232 0 h20 m-272 0 q10 0 10 10 m252 0 q0 -10 10 -10 m-262 10 v12 m252 0 v-12 m-252 12 q0 10 10 10 m232 0 q10 0 10 -10 m-242 10 h10 m90 0 h10 m0 0 h122 m-242 -10 v20 m252 0 v-20 m-252 20 v24 m252 0 v-24 m-252 24 q0 10 10 10 m232 0 q10 0 10 -10 m-242 10 h10 m88 0 h10 m0 0 h10 m104 0 h10 m-242 -10 v20 m252 0 v-20 m-252 20 v24 m252 0 v-24 m-252 24 q0 10 10 10 m232 0 q10 0 10 -10 m-242 10 h10 m90 0 h10 m0 0 h10 m46 0 h10 m0 0 h56 m23 -120 h-3"/>
         <polygon points="831 147 839 143 839 151"/>
         <polygon points="831 147 823 143 823 151"/>
      </svg>
