      <svg xmlns="http://www.w3.org/2000/svg" width="844" height="266">
         <defs>
            <style type="text/css">
               @namespace "http://www.w3.org/2000/svg";
               .line                 {fill: none; stroke: #1F1F1F;}
               .bold-line            {stroke: #0A0A0A; shape-rendering: crispEdges; stroke-width:
               2; }
               .thin-line            {stroke: #0F0F0F; shape-rendering: crispEdges}
               .filled               {fill: #1F1F1F; stroke: none;}
               text.terminal         {font-family: Verdana, Sans-serif;
               font-size: 12px;
               fill: #0A0A0A;
               font-weight: bold;
               }
               text.nonterminal      {font-family: Verdana, Sans-serif; font-style: italic;
               font-size: 12px;
               fill: #0D0D0D;
               }
               text.regexp           {font-family: Verdana, Sans-serif;
               font-size: 12px;
               fill: #0F0F0F;
               }
               rect, circle, polygon {fill: #1F1F1F; stroke: #1F1F1F;}
               rect.terminal         {fill: #CCCCCC; stroke: #1F1F1F;}
               rect.nonterminal      {fill: #E3E3E3; stroke: #1F1F1F;}
               rect.text             {fill: none; stroke: none;}    
               polygon.regexp        {fill: #EFEFEF; stroke: #1F1F1F;}
               
            </style>
         </defs>
         <polygon points="9 17 1 13 1 21"/>
         <polygon points="17 17 9 13 9 21"/>
         <rect x="31" y="3" width="88" height="32" rx="10"/>
         <rect x="29" y="1" width="88" height="32" class="terminal" rx="10"/>
         <text class="terminal" x="39" y="21">::METHOD</text>
<!--     <a xmlns:xlink="http://www.w3.org/1999/xlink" xlink:href="#methodname" xlink:title="methodname"> -->
            <rect x="139" y="3" width="102" height="32"/>
            <rect x="137" y="1" width="102" height="32" class="nonterminal"/>
            <text class="nonterminal" x="147" y="21">methodname</text>
<!--     </a> -->
         <rect x="281" y="3" width="94" height="32" rx="10"/>
         <rect x="279" y="1" width="94" height="32" class="terminal" rx="10"/>
         <text class="terminal" x="289" y="21">ATTRIBUTE</text>
         <rect x="435" y="3" width="64" height="32" rx="10"/>
         <rect x="433" y="1" width="64" height="32" class="terminal" rx="10"/>
         <text class="terminal" x="443" y="21">CLASS</text>
         <rect x="559" y="3" width="70" height="32" rx="10"/>
         <rect x="557" y="1" width="70" height="32" class="terminal" rx="10"/>
         <text class="terminal" x="567" y="21">PUBLIC</text>
         <rect x="559" y="47" width="78" height="32" rx="10"/>
         <rect x="557" y="45" width="78" height="32" class="terminal" rx="10"/>
         <text class="terminal" x="567" y="65">PRIVATE</text>
         <rect x="697" y="3" width="86" height="32" rx="10"/>
         <rect x="695" y="1" width="86" height="32" class="terminal" rx="10"/>
         <text class="terminal" x="705" y="21">GUARDED</text>
         <rect x="697" y="47" width="106" height="32" rx="10"/>
         <rect x="695" y="45" width="106" height="32" class="terminal" rx="10"/>
         <text class="terminal" x="705" y="65">UNGUARDED</text>
         <rect x="399" y="129" width="120" height="32" rx="10"/>
         <rect x="397" y="127" width="120" height="32" class="terminal" rx="10"/>
         <text class="terminal" x="407" y="147">UNPROTECTED</text>
         <rect x="399" y="173" width="100" height="32" rx="10"/>
         <rect x="397" y="171" width="100" height="32" class="terminal" rx="10"/>
         <text class="terminal" x="407" y="191">PROTECTED</text>
         <rect x="579" y="129" width="90" height="32" rx="10"/>
         <rect x="577" y="127" width="90" height="32" class="terminal" rx="10"/>
         <text class="terminal" x="587" y="147">ABSTRACT</text>
         <rect x="579" y="173" width="88" height="32" rx="10"/>
         <rect x="577" y="171" width="88" height="32" class="terminal" rx="10"/>
         <text class="terminal" x="587" y="191">DELEGATE</text>
<!--     <a xmlns:xlink="http://www.w3.org/1999/xlink" xlink:href="#delegatename" xlink:title="delegatename"> -->
            <rect x="687" y="173" width="110" height="32"/>
            <rect x="685" y="171" width="110" height="32" class="nonterminal"/>
            <text class="nonterminal" x="695" y="191">delegatename</text>
<!--     </a> -->
         <rect x="579" y="217" width="88" height="32" rx="10"/>
         <rect x="577" y="215" width="88" height="32" class="terminal" rx="10"/>
         <text class="terminal" x="587" y="235">EXTERNAL</text>
<!--     <a xmlns:xlink="http://www.w3.org/1999/xlink" xlink:href="#spec" xlink:title="spec"> -->
            <rect x="687" y="217" width="48" height="32"/>
            <rect x="685" y="215" width="48" height="32" class="nonterminal"/>
            <text class="nonterminal" x="695" y="235">spec</text>
<!--     </a> -->
         <svg:path xmlns:svg="http://www.w3.org/2000/svg" class="line" d="m17 17 h2 m0 0 h10 m88 0 h10 m0 0 h10 m102 0 h10 m20 0 h10 m94 0 h10 m-134 0 h20 m114 0 h20 m-154 0 q10 0 10 10 m134 0 q0 -10 10 -10 m-144 10 v14 m134 0 v-14 m-134 14 q0 10 10 10 m114 0 q10 0 10 -10 m-124 10 h10 m0 0 h104 m40 -34 h10 m64 0 h10 m-104 0 h20 m84 0 h20 m-124 0 q10 0 10 10 m104 0 q0 -10 10 -10 m-114 10 v14 m104 0 v-14 m-104 14 q0 10 10 10 m84 0 q10 0 10 -10 m-94 10 h10 m0 0 h74 m40 -34 h10 m70 0 h10 m0 0 h8 m-118 0 h20 m98 0 h20 m-138 0 q10 0 10 10 m118 0 q0 -10 10 -10 m-128 10 v24 m118 0 v-24 m-118 24 q0 10 10 10 m98 0 q10 0 10 -10 m-108 10 h10 m78 0 h10 m-108 -10 v20 m118 0 v-20 m-118 20 v14 m118 0 v-14 m-118 14 q0 10 10 10 m98 0 q10 0 10 -10 m-108 10 h10 m0 0 h88 m40 -78 h10 m86 0 h10 m0 0 h20 m-146 0 h20 m126 0 h20 m-166 0 q10 0 10 10 m146 0 q0 -10 10 -10 m-156 10 v24 m146 0 v-24 m-146 24 q0 10 10 10 m126 0 q10 0 10 -10 m-136 10 h10 m106 0 h10 m-136 -10 v20 m146 0 v-20 m-146 20 v14 m146 0 v-14 m-146 14 q0 10 10 10 m126 0 q10 0 10 -10 m-136 10 h10 m0 0 h116 m22 -78 l2 0 m2 0 l2 0 m2 0 l2 0 m-488 126 l2 0 m2 0 l2 0 m2 0 l2 0 m22 0 h10 m120 0 h10 m-160 0 h20 m140 0 h20 m-180 0 q10 0 10 10 m160 0 q0 -10 10 -10 m-170 10 v24 m160 0 v-24 m-160 24 q0 10 10 10 m140 0 q10 0 10 -10 m-150 10 h10 m100 0 h10 m0 0 h20 m-150 -10 v20 m160 0 v-20 m-160 20 v14 m160 0 v-14 m-160 14 q0 10 10 10 m140 0 q10 0 10 -10 m-150 10 h10 m0 0 h130 m40 -78 h10 m90 0 h10 m0 0 h128 m-258 0 h20 m238 0 h20 m-278 0 q10 0 10 10 m258 0 q0 -10 10 -10 m-268 10 v24 m258 0 v-24 m-258 24 q0 10 10 10 m238 0 q10 0 10 -10 m-248 10 h10 m88 0 h10 m0 0 h10 m110 0 h10 m-248 -10 v20 m258 0 v-20 m-258 20 v24 m258 0 v-24 m-258 24 q0 10 10 10 m238 0 q10 0 10 -10 m-248 10 h10 m88 0 h10 m0 0 h10 m48 0 h10 m0 0 h62 m-248 -10 v20 m258 0 v-20 m-258 20 v14 m258 0 v-14 m-258 14 q0 10 10 10 m238 0 q10 0 10 -10 m-248 10 h10 m0 0 h228 m23 -122 h-3"/>
         <polygon points="835 143 843 139 843 147"/>
         <polygon points="835 143 827 139 827 147"/>
      </svg>
