<svg xmlns="http://www.w3.org/2000/svg" width="855" height="331">
         <defs>
            <style type="text/css">
               @namespace "http://www.w3.org/2000/svg";
               .line                 {fill: none; stroke: #1F1F1F;}
               .bold-line            {stroke: #0A0A0A; shape-rendering: crispEdges; stroke-width:
               2; }
               .thin-line            {stroke: #0F0F0F; shape-rendering: crispEdges}
               .filled               {fill: #1F1F1F; stroke: none;}
               text.terminal         {font-family: Verdana, Sans-serif;
               font-size: 12px;
               fill: #0A0A0A;
               font-weight: bold;
               }
               text.nonterminal      {font-family: Verdana, Sans-serif; font-style: italic;
               font-size: 12px;
               fill: #0D0D0D;
               }
               text.regexp           {font-family: Verdana, Sans-serif;
               font-size: 12px;
               fill: #0F0F0F;
               }
               rect, circle, polygon {fill: #1F1F1F; stroke: #1F1F1F;}
               rect.terminal         {fill: #CCCCCC; stroke: #1F1F1F;}
               rect.nonterminal      {fill: #E3E3E3; stroke: #1F1F1F;}
               rect.text             {fill: none; stroke: none;}
               polygon.regexp        {fill: #EFEFEF; stroke: #1F1F1F;}

            </style>
         </defs>

         <defs>
            <style type="text/css">
    @namespace "http://www.w3.org/2000/svg";
    .line                 {fill: none; stroke: #1F1F1F; stroke-width: 1;}
    .bold-line            {stroke: #0A0A0A; shape-rendering: crispEdges; stroke-width: 2;}
    .thin-line            {stroke: #0F0F0F; shape-rendering: crispEdges}
    .filled               {fill: #1F1F1F; stroke: none;}
    text.terminal         {font-family: Verdana, Sans-serif;
                            font-size: 12px;
                            fill: #0A0A0A;
                            font-weight: bold;
                          }
    text.nonterminal      {font-family: Verdana, Sans-serif;
                            font-size: 12px;
                            fill: #0D0D0D;
                            font-weight: normal;
                          }
    text.regexp           {font-family: Verdana, Sans-serif;
                            font-size: 12px;
                            fill: #0F0F0F;
                            font-weight: normal;
                          }
    rect, circle, polygon {fill: #1F1F1F; stroke: #1F1F1F;}
    rect.terminal         {fill: #cccccc; stroke: #1F1F1F; stroke-width: 1;}
    rect.nonterminal      {fill: #E3E3E3; stroke: #1F1F1F; stroke-width: 1;}
    rect.text             {fill: none; stroke: none;}
    polygon.regexp        {fill: #EFEFEF; stroke: #1F1F1F; stroke-width: 1;}
  </style>
         </defs>
         <polygon points="9 17 1 13 1 21"/>
         <polygon points="17 17 9 13 9 21"/>
         <rect x="31" y="3" width="88" height="32" rx="10"/>
         <rect x="29" y="1" width="88" height="32" class="terminal" rx="10"/>
         <text class="terminal" x="39" y="21">::METHOD</text><a xmlns:xlink="http://www.w3.org/1999/xlink" xlink:href="#methodname" xlink:title="methodname">
            <rect x="139" y="3" width="104" height="32"/>
            <rect x="137" y="1" width="104" height="32" class="nonterminal"/>
            <text class="nonterminal" x="147" y="21">methodname</text></a><rect x="283" y="35" width="96" height="32" rx="10"/>
         <rect x="281" y="33" width="96" height="32" class="terminal" rx="10"/>
         <text class="terminal" x="291" y="53">ATTRIBUTE</text>
         <rect x="439" y="35" width="64" height="32" rx="10"/>
         <rect x="437" y="33" width="64" height="32" class="terminal" rx="10"/>
         <text class="terminal" x="447" y="53">CLASS</text>
         <rect x="563" y="35" width="70" height="32" rx="10"/>
         <rect x="561" y="33" width="70" height="32" class="terminal" rx="10"/>
         <text class="terminal" x="571" y="53">PUBLIC</text>
         <rect x="563" y="79" width="84" height="32" rx="10"/>
         <rect x="561" y="77" width="84" height="32" class="terminal" rx="10"/>
         <text class="terminal" x="571" y="97">PACKAGE</text>
         <rect x="563" y="123" width="80" height="32" rx="10"/>
         <rect x="561" y="121" width="80" height="32" class="terminal" rx="10"/>
         <text class="terminal" x="571" y="141">PRIVATE</text>
         <rect x="707" y="35" width="86" height="32" rx="10"/>
         <rect x="705" y="33" width="86" height="32" class="terminal" rx="10"/>
         <text class="terminal" x="715" y="53">GUARDED</text>
         <rect x="707" y="79" width="106" height="32" rx="10"/>
         <rect x="705" y="77" width="106" height="32" class="terminal" rx="10"/>
         <text class="terminal" x="715" y="97">UNGUARDED</text>
         <rect x="405" y="209" width="120" height="32" rx="10"/>
         <rect x="403" y="207" width="120" height="32" class="terminal" rx="10"/>
         <text class="terminal" x="413" y="227">UNPROTECTED</text>
         <rect x="405" y="253" width="100" height="32" rx="10"/>
         <rect x="403" y="251" width="100" height="32" class="terminal" rx="10"/>
         <text class="terminal" x="413" y="271">PROTECTED</text>
         <rect x="585" y="209" width="92" height="32" rx="10"/>
         <rect x="583" y="207" width="92" height="32" class="terminal" rx="10"/>
         <text class="terminal" x="593" y="227">ABSTRACT</text>
         <rect x="585" y="253" width="90" height="32" rx="10"/>
         <rect x="583" y="251" width="90" height="32" class="terminal" rx="10"/>
         <text class="terminal" x="593" y="271">DELEGATE</text><a xmlns:xlink="http://www.w3.org/1999/xlink" xlink:href="#delegatename" xlink:title="delegatename">
            <rect x="695" y="253" width="112" height="32"/>
            <rect x="693" y="251" width="112" height="32" class="nonterminal"/>
            <text class="nonterminal" x="703" y="271">delegatename</text></a><rect x="585" y="297" width="90" height="32" rx="10"/>
         <rect x="583" y="295" width="90" height="32" class="terminal" rx="10"/>
         <text class="terminal" x="593" y="315">EXTERNAL</text><a xmlns:xlink="http://www.w3.org/1999/xlink" xlink:href="#spec" xlink:title="spec">
            <rect x="695" y="297" width="48" height="32"/>
            <rect x="693" y="295" width="48" height="32" class="nonterminal"/>
            <text class="nonterminal" x="703" y="315">spec</text></a><svg:path xmlns:svg="http://www.w3.org/2000/svg" class="line" d="m17 17 h2 m0 0 h10 m88 0 h10 m0 0 h10 m104 0 h10 m20 0 h10 m0 0 h106 m-136 0 h20 m116 0 h20 m-156 0 q10 0 10 10 m136 0 q0 -10 10 -10 m-146 10 v12 m136 0 v-12 m-136 12 q0 10 10 10 m116 0 q10 0 10 -10 m-126 10 h10 m96 0 h10 m40 -32 h10 m0 0 h74 m-104 0 h20 m84 0 h20 m-124 0 q10 0 10 10 m104 0 q0 -10 10 -10 m-114 10 v12 m104 0 v-12 m-104 12 q0 10 10 10 m84 0 q10 0 10 -10 m-94 10 h10 m64 0 h10 m40 -32 h10 m0 0 h94 m-124 0 h20 m104 0 h20 m-144 0 q10 0 10 10 m124 0 q0 -10 10 -10 m-134 10 v12 m124 0 v-12 m-124 12 q0 10 10 10 m104 0 q10 0 10 -10 m-114 10 h10 m70 0 h10 m0 0 h14 m-114 -10 v20 m124 0 v-20 m-124 20 v24 m124 0 v-24 m-124 24 q0 10 10 10 m104 0 q10 0 10 -10 m-114 10 h10 m84 0 h10 m-114 -10 v20 m124 0 v-20 m-124 20 v24 m124 0 v-24 m-124 24 q0 10 10 10 m104 0 q10 0 10 -10 m-114 10 h10 m80 0 h10 m0 0 h4 m40 -120 h10 m0 0 h116 m-146 0 h20 m126 0 h20 m-166 0 q10 0 10 10 m146 0 q0 -10 10 -10 m-156 10 v12 m146 0 v-12 m-146 12 q0 10 10 10 m126 0 q10 0 10 -10 m-136 10 h10 m86 0 h10 m0 0 h20 m-136 -10 v20 m146 0 v-20 m-146 20 v24 m146 0 v-24 m-146 24 q0 10 10 10 m126 0 q10 0 10 -10 m-136 10 h10 m106 0 h10 m22 -76 l2 0 m2 0 l2 0 m2 0 l2 0 m-492 174 l2 0 m2 0 l2 0 m2 0 l2 0 m22 0 h10 m0 0 h130 m-160 0 h20 m140 0 h20 m-180 0 q10 0 10 10 m160 0 q0 -10 10 -10 m-170 10 v12 m160 0 v-12 m-160 12 q0 10 10 10 m140 0 q10 0 10 -10 m-150 10 h10 m120 0 h10 m-150 -10 v20 m160 0 v-20 m-160 20 v24 m160 0 v-24 m-160 24 q0 10 10 10 m140 0 q10 0 10 -10 m-150 10 h10 m100 0 h10 m0 0 h20 m40 -76 h10 m0 0 h232 m-262 0 h20 m242 0 h20 m-282 0 q10 0 10 10 m262 0 q0 -10 10 -10 m-272 10 v12 m262 0 v-12 m-262 12 q0 10 10 10 m242 0 q10 0 10 -10 m-252 10 h10 m92 0 h10 m0 0 h130 m-252 -10 v20 m262 0 v-20 m-262 20 v24 m262 0 v-24 m-262 24 q0 10 10 10 m242 0 q10 0 10 -10 m-252 10 h10 m90 0 h10 m0 0 h10 m112 0 h10 m-252 -10 v20 m262 0 v-20 m-262 20 v24 m262 0 v-24 m-262 24 q0 10 10 10 m242 0 q10 0 10 -10 m-252 10 h10 m90 0 h10 m0 0 h10 m48 0 h10 m0 0 h64 m23 -120 h-3"/>
         <polygon points="845 191 853 187 853 195"/>
         <polygon points="845 191 837 187 837 195"/>
</svg>