      <svg xmlns="http://www.w3.org/2000/svg" width="536" height="420">
         <defs>
            <style type="text/css">
               @namespace "http://www.w3.org/2000/svg";
               .line                 {fill: none; stroke: #1F1F1F;}
               .bold-line            {stroke: #0A0A0A; shape-rendering: crispEdges; stroke-width:
               2; }
               .thin-line            {stroke: #0F0F0F; shape-rendering: crispEdges}
               .filled               {fill: #1F1F1F; stroke: none;}
               text.terminal         {font-family: Verdana, Sans-serif;
               font-size: 12px;
               fill: #0A0A0A;
               font-weight: bold;
               }
               text.nonterminal      {font-family: Verdana, Sans-serif; font-style: italic;
               font-size: 12px;
               fill: #0D0D0D;
               }
               text.regexp           {font-family: Verdana, Sans-serif;
               font-size: 12px;
               fill: #0F0F0F;
               }
               rect, circle, polygon {fill: #1F1F1F; stroke: #1F1F1F;}
               rect.terminal         {fill: #CCCCCC; stroke: #1F1F1F;}
               rect.nonterminal      {fill: #E3E3E3; stroke: #1F1F1F;}
               rect.text             {fill: none; stroke: none;}    
               polygon.regexp        {fill: #EFEFEF; stroke: #1F1F1F;}
               
            </style>
         </defs>
         <polygon points="9 33 1 29 1 37"/>
         <polygon points="17 33 9 29 9 37"/>
         <rect x="31" y="19" width="94" height="32" rx="10"/>
         <rect x="29" y="17" width="94" height="32" class="terminal" rx="10"/>
         <text class="terminal" x="39" y="37">::OPTIONS</text>
         <rect x="205" y="19" width="68" height="32" rx="10"/>
         <rect x="203" y="17" width="68" height="32" class="terminal" rx="10"/>
         <text class="terminal" x="213" y="37">DIGITS</text>
<!--     <a xmlns:xlink="http://www.w3.org/1999/xlink" xlink:href="#digits" xlink:title="digits"> -->
            <rect x="293" y="19" width="54" height="32"/>
            <rect x="291" y="17" width="54" height="32" class="nonterminal"/>
            <text class="nonterminal" x="301" y="37">digits</text>
<!--     </a> -->
         <rect x="205" y="63" width="58" height="32" rx="10"/>
         <rect x="203" y="61" width="58" height="32" class="terminal" rx="10"/>
         <text class="terminal" x="213" y="81">FORM</text>
         <rect x="303" y="63" width="114" height="32" rx="10"/>
         <rect x="301" y="61" width="114" height="32" class="terminal" rx="10"/>
         <text class="terminal" x="311" y="81">ENGINEERING</text>
         <rect x="303" y="107" width="98" height="32" rx="10"/>
         <rect x="301" y="105" width="98" height="32" class="terminal" rx="10"/>
         <text class="terminal" x="311" y="125">SCIENTIFIC</text>
         <rect x="205" y="151" width="54" height="32" rx="10"/>
         <rect x="203" y="149" width="54" height="32" class="terminal" rx="10"/>
         <text class="terminal" x="213" y="169">FUZZ</text>
<!--     <a xmlns:xlink="http://www.w3.org/1999/xlink" xlink:href="#fuzz" xlink:title="fuzz"> -->
            <rect x="279" y="151" width="46" height="32"/>
            <rect x="277" y="149" width="46" height="32" class="nonterminal"/>
            <text class="nonterminal" x="287" y="169">fuzz</text>
<!--     </a> -->
         <rect x="205" y="195" width="84" height="32" rx="10"/>
         <rect x="203" y="193" width="84" height="32" class="terminal" rx="10"/>
         <text class="terminal" x="213" y="213">NOVALUE</text>
         <rect x="329" y="195" width="100" height="32" rx="10"/>
         <rect x="327" y="193" width="100" height="32" class="terminal" rx="10"/>
         <text class="terminal" x="337" y="213">CONDITION</text>
         <rect x="329" y="239" width="66" height="32" rx="10"/>
         <rect x="327" y="237" width="66" height="32" class="terminal" rx="10"/>
         <text class="terminal" x="337" y="257">ERROR</text>
         <rect x="205" y="283" width="78" height="32" rx="10"/>
         <rect x="203" y="281" width="78" height="32" class="terminal" rx="10"/>
         <text class="terminal" x="213" y="301">PROLOG</text>
         <rect x="205" y="327" width="98" height="32" rx="10"/>
         <rect x="203" y="325" width="98" height="32" class="terminal" rx="10"/>
         <text class="terminal" x="213" y="345">NOPROLOG</text>
         <rect x="205" y="371" width="62" height="32" rx="10"/>
         <rect x="203" y="369" width="62" height="32" class="terminal" rx="10"/>
         <text class="terminal" x="213" y="389">TRACE</text>
<!--     <a xmlns:xlink="http://www.w3.org/1999/xlink" xlink:href="#trace" xlink:title="trace"> -->
            <rect x="287" y="371" width="52" height="32"/>
            <rect x="285" y="369" width="52" height="32" class="nonterminal"/>
            <text class="nonterminal" x="295" y="389">trace</text>
<!--     </a> -->
         <svg:path xmlns:svg="http://www.w3.org/2000/svg" class="line" d="m17 33 h2 m0 0 h10 m94 0 h10 m60 0 h10 m68 0 h10 m0 0 h10 m54 0 h10 m0 0 h102 m-284 0 h20 m264 0 h20 m-304 0 q10 0 10 10 m284 0 q0 -10 10 -10 m-294 10 v24 m284 0 v-24 m-284 24 q0 10 10 10 m264 0 q10 0 10 -10 m-274 10 h10 m58 0 h10 m20 0 h10 m114 0 h10 m-154 0 h20 m134 0 h20 m-174 0 q10 0 10 10 m154 0 q0 -10 10 -10 m-164 10 v24 m154 0 v-24 m-154 24 q0 10 10 10 m134 0 q10 0 10 -10 m-144 10 h10 m98 0 h10 m0 0 h16 m20 -44 h12 m-274 -10 v20 m284 0 v-20 m-284 20 v68 m284 0 v-68 m-284 68 q0 10 10 10 m264 0 q10 0 10 -10 m-274 10 h10 m54 0 h10 m0 0 h10 m46 0 h10 m0 0 h124 m-274 -10 v20 m284 0 v-20 m-284 20 v24 m284 0 v-24 m-284 24 q0 10 10 10 m264 0 q10 0 10 -10 m-274 10 h10 m84 0 h10 m20 0 h10 m100 0 h10 m-140 0 h20 m120 0 h20 m-160 0 q10 0 10 10 m140 0 q0 -10 10 -10 m-150 10 v24 m140 0 v-24 m-140 24 q0 10 10 10 m120 0 q10 0 10 -10 m-130 10 h10 m66 0 h10 m0 0 h34 m-254 -54 v20 m284 0 v-20 m-284 20 v68 m284 0 v-68 m-284 68 q0 10 10 10 m264 0 q10 0 10 -10 m-274 10 h10 m78 0 h10 m0 0 h166 m-274 -10 v20 m284 0 v-20 m-284 20 v24 m284 0 v-24 m-284 24 q0 10 10 10 m264 0 q10 0 10 -10 m-274 10 h10 m98 0 h10 m0 0 h146 m-274 -10 v20 m284 0 v-20 m-284 20 v24 m284 0 v-24 m-284 24 q0 10 10 10 m264 0 q10 0 10 -10 m-274 10 h10 m62 0 h10 m0 0 h10 m52 0 h10 m0 0 h110 m-304 -352 l20 0 m-1 0 q-9 0 -9 -10 l0 -12 q0 -10 10 -10 m304 32 l20 0 m-20 0 q10 0 10 -10 l0 -12 q0 -10 -10 -10 m-304 0 h10 m0 0 h294 m-344 32 h20 m344 0 h20 m-384 0 q10 0 10 10 m364 0 q0 -10 10 -10 m-374 10 v366 m364 0 v-366 m-364 366 q0 10 10 10 m344 0 q10 0 10 -10 m-354 10 h10 m0 0 h334 m23 -386 h-3"/>
         <polygon points="527 33 535 29 535 37"/>
         <polygon points="527 33 519 29 519 37"/>
      </svg>
