      <svg xmlns="http://www.w3.org/2000/svg" width="916" height="52">
         <defs>
            <style type="text/css">
               @namespace "http://www.w3.org/2000/svg";
               .line                 {fill: none; stroke: #1F1F1F;}
               .bold-line            {stroke: #0A0A0A; shape-rendering: crispEdges; stroke-width:
               2; }
               .thin-line            {stroke: #0F0F0F; shape-rendering: crispEdges}
               .filled               {fill: #1F1F1F; stroke: none;}
               text.terminal         {font-family: Verdana, Sans-serif;
               font-size: 12px;
               fill: #0A0A0A;
               font-weight: bold;
               }
               text.nonterminal      {font-family: Verdana, Sans-serif;
               font-size: 12px;
               fill: #0D0D0D;
               }
               text.regexp           {font-family: Verdana, Sans-serif;
               font-size: 12px;
               fill: #0F0F0F;
               }
               rect, circle, polygon {fill: #1F1F1F; stroke: #1F1F1F;}
               rect.terminal         {fill: #CCCCCC; stroke: #1F1F1F;}
               rect.nonterminal      {fill: #E3E3E3; stroke: #1F1F1F;}
               rect.text             {fill: none; stroke: none;}    
               polygon.regexp        {fill: #EFEFEF; stroke: #1F1F1F;}
               
            </style>
         </defs>
         <polygon points="9 17 1 13 1 21"/>
         <polygon points="17 17 9 13 9 21"/>
         <rect x="31" y="3" width="94" height="32" rx="10"/>
         <rect x="29" y="1" width="94" height="32" class="terminal" rx="10"/>
         <text class="terminal" x="39" y="21">::OPTIONS</text>
         <rect x="165" y="3" width="68" height="32" rx="10"/>
         <rect x="163" y="1" width="68" height="32" class="terminal" rx="10"/>
         <text class="terminal" x="173" y="21">DIGITS</text>
         <a xmlns:xlink="http://www.w3.org/1999/xlink" xlink:href="#digits" xlink:title="digits">
            <rect x="253" y="3" width="54" height="32"/>
            <rect x="251" y="1" width="54" height="32" class="nonterminal"/>
            <text class="nonterminal" x="261" y="21">digits</text>
         </a>
         <rect x="367" y="3" width="58" height="32" rx="10"/>
         <rect x="365" y="1" width="58" height="32" class="terminal" rx="10"/>
         <text class="terminal" x="375" y="21">FORM</text>
         <a xmlns:xlink="http://www.w3.org/1999/xlink" xlink:href="#form" xlink:title="form">
            <rect x="445" y="3" width="48" height="32"/>
            <rect x="443" y="1" width="48" height="32" class="nonterminal"/>
            <text class="nonterminal" x="453" y="21">form</text>
         </a>
         <rect x="553" y="3" width="54" height="32" rx="10"/>
         <rect x="551" y="1" width="54" height="32" class="terminal" rx="10"/>
         <text class="terminal" x="561" y="21">FUZZ</text>
         <a xmlns:xlink="http://www.w3.org/1999/xlink" xlink:href="#fuzz" xlink:title="fuzz">
            <rect x="627" y="3" width="46" height="32"/>
            <rect x="625" y="1" width="46" height="32" class="nonterminal"/>
            <text class="nonterminal" x="635" y="21">fuzz</text>
         </a>
         <rect x="733" y="3" width="64" height="32" rx="10"/>
         <rect x="731" y="1" width="64" height="32" class="terminal" rx="10"/>
         <text class="terminal" x="741" y="21">TRACS</text>
         <a xmlns:xlink="http://www.w3.org/1999/xlink" xlink:href="#trace" xlink:title="trace">
            <rect x="817" y="3" width="52" height="32"/>
            <rect x="815" y="1" width="52" height="32" class="nonterminal"/>
            <text class="nonterminal" x="825" y="21">trace</text>
         </a>
         <svg:path xmlns:svg="http://www.w3.org/2000/svg" class="line" d="m17 17 h2 m0 0 h10 m94 0 h10 m20 0 h10 m68 0 h10 m0 0 h10 m54 0 h10 m-182 0 h20 m162 0 h20 m-202 0 q10 0 10 10 m182 0 q0 -10 10 -10 m-192 10 v14 m182 0 v-14 m-182 14 q0 10 10 10 m162 0 q10 0 10 -10 m-172 10 h10 m0 0 h152 m40 -34 h10 m58 0 h10 m0 0 h10 m48 0 h10 m-166 0 h20 m146 0 h20 m-186 0 q10 0 10 10 m166 0 q0 -10 10 -10 m-176 10 v14 m166 0 v-14 m-166 14 q0 10 10 10 m146 0 q10 0 10 -10 m-156 10 h10 m0 0 h136 m40 -34 h10 m54 0 h10 m0 0 h10 m46 0 h10 m-160 0 h20 m140 0 h20 m-180 0 q10 0 10 10 m160 0 q0 -10 10 -10 m-170 10 v14 m160 0 v-14 m-160 14 q0 10 10 10 m140 0 q10 0 10 -10 m-150 10 h10 m0 0 h130 m40 -34 h10 m64 0 h10 m0 0 h10 m52 0 h10 m-176 0 h20 m156 0 h20 m-196 0 q10 0 10 10 m176 0 q0 -10 10 -10 m-186 10 v14 m176 0 v-14 m-176 14 q0 10 10 10 m156 0 q10 0 10 -10 m-166 10 h10 m0 0 h146 m23 -34 h-3"/>
         <polygon points="907 17 915 13 915 21"/>
         <polygon points="907 17 899 13 899 21"/>
      </svg>
