<svg xmlns="http://www.w3.org/2000/svg" width="539" height="421">
         <defs>
            <style type="text/css">
    @namespace "http://www.w3.org/2000/svg";
    .line                 {fill: none; stroke: #1F1F1F;}
    .bold-line            {stroke: #0A0A0A; shape-rendering: crispEdges; stroke-width: 2; }
    .thin-line            {stroke: #0F0F0F; shape-rendering: crispEdges}
    .filled               {fill: #1F1F1F; stroke: none;}
    text.terminal         {font-family: Verdana, Sans-serif;
                            font-size: 12px;
                            fill: #0A0A0A;
                            font-weight: bold;
                          }
    text.nonterminal      {font-family: Verdana, Sans-serif; font-style: italic;
                            font-size: 12px;
                            fill: #0D0D0D;
                            font-weight: normal;
                          }
    text.regexp           {font-family: Verdana, Sans-serif;
                            font-size: 12px;
                            fill: #0F0F0F;
                            font-weight: normal;
                          }
    rect, circle, polygon {fill: #1F1F1F; stroke: #1F1F1F;}
    rect.terminal         {fill: #cccccc; stroke: #1F1F1F;}
    rect.nonterminal      {fill: #E3E3E3; stroke: #1F1F1F;}
    rect.text             {fill: none; stroke: none;}    
    polygon.regexp        {fill: #EFEFEF; stroke: #1F1F1F;}
  </style>
         </defs>
         <polygon points="9 33 1 29 1 37"/>
         <polygon points="17 33 9 29 9 37"/>
         <rect x="31" y="19" width="94" height="32" rx="10"/>
         <rect x="29" y="17" width="94" height="32" class="terminal" rx="10"/>
         <text class="terminal" x="39" y="37">::OPTIONS</text>
         <rect x="205" y="19" width="70" height="32" rx="10"/>
         <rect x="203" y="17" width="70" height="32" class="terminal" rx="10"/>
         <text class="terminal" x="213" y="37">DIGITS</text>
<!--  <a xmlns:xlink="http://www.w3.org/1999/xlink" xlink:href="#digits" xlink:title="digits"> -->
            <rect x="295" y="19" width="54" height="32"/>
            <rect x="293" y="17" width="54" height="32" class="nonterminal"/>
            <text class="nonterminal" x="303" y="37">digits</text><!-- </a> -->
<rect x="205" y="63" width="60" height="32" rx="10"/>
         <rect x="203" y="61" width="60" height="32" class="terminal" rx="10"/>
         <text class="terminal" x="213" y="81">FORM</text>
         <rect x="305" y="63" width="116" height="32" rx="10"/>
         <rect x="303" y="61" width="116" height="32" class="terminal" rx="10"/>
         <text class="terminal" x="313" y="81">ENGINEERING</text>
         <rect x="305" y="107" width="100" height="32" rx="10"/>
         <rect x="303" y="105" width="100" height="32" class="terminal" rx="10"/>
         <text class="terminal" x="313" y="125">SCIENTIFIC</text>
         <rect x="205" y="151" width="54" height="32" rx="10"/>
         <rect x="203" y="149" width="54" height="32" class="terminal" rx="10"/>
         <text class="terminal" x="213" y="169">FUZZ</text>
<!--  <a xmlns:xlink="http://www.w3.org/1999/xlink" xlink:href="#fuzz" xlink:title="fuzz"> -->
            <rect x="279" y="151" width="46" height="32"/>
            <rect x="277" y="149" width="46" height="32" class="nonterminal"/>
            <text class="nonterminal" x="287" y="169">fuzz</text><!-- </a> -->
<rect x="205" y="195" width="84" height="32" rx="10"/>
         <rect x="203" y="193" width="84" height="32" class="terminal" rx="10"/>
         <text class="terminal" x="213" y="213">NOVALUE</text>
         <rect x="329" y="195" width="102" height="32" rx="10"/>
         <rect x="327" y="193" width="102" height="32" class="terminal" rx="10"/>
         <text class="terminal" x="337" y="213">CONDITION</text>
         <rect x="329" y="239" width="66" height="32" rx="10"/>
         <rect x="327" y="237" width="66" height="32" class="terminal" rx="10"/>
         <text class="terminal" x="337" y="257">ERROR</text>
         <rect x="205" y="283" width="78" height="32" rx="10"/>
         <rect x="203" y="281" width="78" height="32" class="terminal" rx="10"/>
         <text class="terminal" x="213" y="301">PROLOG</text>
         <rect x="205" y="327" width="98" height="32" rx="10"/>
         <rect x="203" y="325" width="98" height="32" class="terminal" rx="10"/>
         <text class="terminal" x="213" y="345">NOPROLOG</text>
         <rect x="205" y="371" width="64" height="32" rx="10"/>
         <rect x="203" y="369" width="64" height="32" class="terminal" rx="10"/>
         <text class="terminal" x="213" y="389">TRACE</text>
<!--  <a xmlns:xlink="http://www.w3.org/1999/xlink" xlink:href="#trace" xlink:title="trace"> -->
            <rect x="289" y="371" width="52" height="32"/>
            <rect x="287" y="369" width="52" height="32" class="nonterminal"/>
            <text class="nonterminal" x="297" y="389">trace</text><!-- </a> -->
<svg:path xmlns:svg="http://www.w3.org/2000/svg" class="line" d="m17 33 h2 m0 0 h10 m94 0 h10 m60 0 h10 m70 0 h10 m0 0 h10 m54 0 h10 m0 0 h102 m-286 0 h20 m266 0 h20 m-306 0 q10 0 10 10 m286 0 q0 -10 10 -10 m-296 10 v24 m286 0 v-24 m-286 24 q0 10 10 10 m266 0 q10 0 10 -10 m-276 10 h10 m60 0 h10 m20 0 h10 m116 0 h10 m-156 0 h20 m136 0 h20 m-176 0 q10 0 10 10 m156 0 q0 -10 10 -10 m-166 10 v24 m156 0 v-24 m-156 24 q0 10 10 10 m136 0 q10 0 10 -10 m-146 10 h10 m100 0 h10 m0 0 h16 m20 -44 h10 m-276 -10 v20 m286 0 v-20 m-286 20 v68 m286 0 v-68 m-286 68 q0 10 10 10 m266 0 q10 0 10 -10 m-276 10 h10 m54 0 h10 m0 0 h10 m46 0 h10 m0 0 h126 m-276 -10 v20 m286 0 v-20 m-286 20 v24 m286 0 v-24 m-286 24 q0 10 10 10 m266 0 q10 0 10 -10 m-276 10 h10 m84 0 h10 m20 0 h10 m102 0 h10 m-142 0 h20 m122 0 h20 m-162 0 q10 0 10 10 m142 0 q0 -10 10 -10 m-152 10 v24 m142 0 v-24 m-142 24 q0 10 10 10 m122 0 q10 0 10 -10 m-132 10 h10 m66 0 h10 m0 0 h36 m-256 -54 v20 m286 0 v-20 m-286 20 v68 m286 0 v-68 m-286 68 q0 10 10 10 m266 0 q10 0 10 -10 m-276 10 h10 m78 0 h10 m0 0 h168 m-276 -10 v20 m286 0 v-20 m-286 20 v24 m286 0 v-24 m-286 24 q0 10 10 10 m266 0 q10 0 10 -10 m-276 10 h10 m98 0 h10 m0 0 h148 m-276 -10 v20 m286 0 v-20 m-286 20 v24 m286 0 v-24 m-286 24 q0 10 10 10 m266 0 q10 0 10 -10 m-276 10 h10 m64 0 h10 m0 0 h10 m52 0 h10 m0 0 h110 m-306 -352 l20 0 m-1 0 q-9 0 -9 -10 l0 -12 q0 -10 10 -10 m306 32 l20 0 m-20 0 q10 0 10 -10 l0 -12 q0 -10 -10 -10 m-306 0 h10 m0 0 h296 m-346 32 h20 m346 0 h20 m-386 0 q10 0 10 10 m366 0 q0 -10 10 -10 m-376 10 v366 m366 0 v-366 m-366 366 q0 10 10 10 m346 0 q10 0 10 -10 m-356 10 h10 m0 0 h336 m23 -386 h-3"/>
         <polygon points="529 33 537 29 537 37"/>
         <polygon points="529 33 521 29 521 37"/></svg>
