      <svg xmlns="http://www.w3.org/2000/svg" width="532" height="420">
         <defs>
            <style type="text/css">
               @namespace "http://www.w3.org/2000/svg";
               .line                 {fill: none; stroke: #1F1F1F;}
               .bold-line            {stroke: #0A0A0A; shape-rendering: crispEdges; stroke-width:
               2; }
               .thin-line            {stroke: #0F0F0F; shape-rendering: crispEdges}
               .filled               {fill: #1F1F1F; stroke: none;}
               text.terminal         {font-family: Verdana, Sans-serif;
               font-size: 12px;
               fill: #0A0A0A;
               font-weight: bold;
               }
               text.nonterminal      {font-family: Verdana, Sans-serif; font-style: italic;
               font-size: 12px;
               fill: #0D0D0D;
               }
               text.regexp           {font-family: Verdana, Sans-serif;
               font-size: 12px;
               fill: #0F0F0F;
               }
               rect, circle, polygon {fill: #1F1F1F; stroke: #1F1F1F;}
               rect.terminal         {fill: #CCCCCC; stroke: #1F1F1F;}
               rect.nonterminal      {fill: #E3E3E3; stroke: #1F1F1F;}
               rect.text             {fill: none; stroke: none;}    
               polygon.regexp        {fill: #EFEFEF; stroke: #1F1F1F;}
               
            </style>
         </defs>
         <polygon points="9 33 1 29 1 37"/>
         <polygon points="17 33 9 29 9 37"/>
         <rect x="31" y="19" width="92" height="32" rx="10"/>
         <rect x="29" y="17" width="92" height="32" class="terminal" rx="10"/>
         <text class="terminal" x="39" y="37">::OPTIONS</text>
         <rect x="203" y="19" width="68" height="32" rx="10"/>
         <rect x="201" y="17" width="68" height="32" class="terminal" rx="10"/>
         <text class="terminal" x="211" y="37">DIGITS</text>
<!--     <a xmlns:xlink="http://www.w3.org/1999/xlink" xlink:href="#digits" xlink:title="digits"> -->
            <rect x="291" y="19" width="50" height="32"/>
            <rect x="289" y="17" width="50" height="32" class="nonterminal"/>
            <text class="nonterminal" x="299" y="37">digits</text>
<!--     </a> -->
         <rect x="203" y="63" width="58" height="32" rx="10"/>
         <rect x="201" y="61" width="58" height="32" class="terminal" rx="10"/>
         <text class="terminal" x="211" y="81">FORM</text>
         <rect x="301" y="63" width="114" height="32" rx="10"/>
         <rect x="299" y="61" width="114" height="32" class="terminal" rx="10"/>
         <text class="terminal" x="309" y="81">ENGINEERING</text>
         <rect x="301" y="107" width="98" height="32" rx="10"/>
         <rect x="299" y="105" width="98" height="32" class="terminal" rx="10"/>
         <text class="terminal" x="309" y="125">SCIENTIFIC</text>
         <rect x="203" y="151" width="54" height="32" rx="10"/>
         <rect x="201" y="149" width="54" height="32" class="terminal" rx="10"/>
         <text class="terminal" x="211" y="169">FUZZ</text>
<!--     <a xmlns:xlink="http://www.w3.org/1999/xlink" xlink:href="#fuzz" xlink:title="fuzz"> -->
            <rect x="277" y="151" width="46" height="32"/>
            <rect x="275" y="149" width="46" height="32" class="nonterminal"/>
            <text class="nonterminal" x="285" y="169">fuzz</text>
<!--     </a> -->
         <rect x="203" y="195" width="84" height="32" rx="10"/>
         <rect x="201" y="193" width="84" height="32" class="terminal" rx="10"/>
         <text class="terminal" x="211" y="213">NOVALUE</text>
         <rect x="327" y="195" width="98" height="32" rx="10"/>
         <rect x="325" y="193" width="98" height="32" class="terminal" rx="10"/>
         <text class="terminal" x="335" y="213">CONDITION</text>
         <rect x="327" y="239" width="66" height="32" rx="10"/>
         <rect x="325" y="237" width="66" height="32" class="terminal" rx="10"/>
         <text class="terminal" x="335" y="257">ERROR</text>
         <rect x="203" y="283" width="76" height="32" rx="10"/>
         <rect x="201" y="281" width="76" height="32" class="terminal" rx="10"/>
         <text class="terminal" x="211" y="301">PROLOG</text>
         <rect x="203" y="327" width="96" height="32" rx="10"/>
         <rect x="201" y="325" width="96" height="32" class="terminal" rx="10"/>
         <text class="terminal" x="211" y="345">NOPROLOG</text>
         <rect x="203" y="371" width="64" height="32" rx="10"/>
         <rect x="201" y="369" width="64" height="32" class="terminal" rx="10"/>
         <text class="terminal" x="211" y="389">TRACE</text>
<!--     <a xmlns:xlink="http://www.w3.org/1999/xlink" xlink:href="#trace" xlink:title="trace"> -->
            <rect x="287" y="371" width="50" height="32"/>
            <rect x="285" y="369" width="50" height="32" class="nonterminal"/>
            <text class="nonterminal" x="295" y="389">trace</text>
<!--     </a> -->
         <svg:path xmlns:svg="http://www.w3.org/2000/svg" class="line" d="m17 33 h2 m0 0 h10 m92 0 h10 m60 0 h10 m68 0 h10 m0 0 h10 m50 0 h10 m0 0 h104 m-282 0 h20 m262 0 h20 m-302 0 q10 0 10 10 m282 0 q0 -10 10 -10 m-292 10 v24 m282 0 v-24 m-282 24 q0 10 10 10 m262 0 q10 0 10 -10 m-272 10 h10 m58 0 h10 m20 0 h10 m114 0 h10 m-154 0 h20 m134 0 h20 m-174 0 q10 0 10 10 m154 0 q0 -10 10 -10 m-164 10 v24 m154 0 v-24 m-154 24 q0 10 10 10 m134 0 q10 0 10 -10 m-144 10 h10 m98 0 h10 m0 0 h16 m20 -44 h10 m-272 -10 v20 m282 0 v-20 m-282 20 v68 m282 0 v-68 m-282 68 q0 10 10 10 m262 0 q10 0 10 -10 m-272 10 h10 m54 0 h10 m0 0 h10 m46 0 h10 m0 0 h122 m-272 -10 v20 m282 0 v-20 m-282 20 v24 m282 0 v-24 m-282 24 q0 10 10 10 m262 0 q10 0 10 -10 m-272 10 h10 m84 0 h10 m20 0 h10 m98 0 h10 m-138 0 h20 m118 0 h20 m-158 0 q10 0 10 10 m138 0 q0 -10 10 -10 m-148 10 v24 m138 0 v-24 m-138 24 q0 10 10 10 m118 0 q10 0 10 -10 m-128 10 h10 m66 0 h10 m0 0 h32 m-252 -54 v20 m282 0 v-20 m-282 20 v68 m282 0 v-68 m-282 68 q0 10 10 10 m262 0 q10 0 10 -10 m-272 10 h10 m76 0 h10 m0 0 h166 m-272 -10 v20 m282 0 v-20 m-282 20 v24 m282 0 v-24 m-282 24 q0 10 10 10 m262 0 q10 0 10 -10 m-272 10 h10 m96 0 h10 m0 0 h146 m-272 -10 v20 m282 0 v-20 m-282 20 v24 m282 0 v-24 m-282 24 q0 10 10 10 m262 0 q10 0 10 -10 m-272 10 h10 m64 0 h10 m0 0 h10 m50 0 h10 m0 0 h108 m-302 -352 l20 0 m-1 0 q-9 0 -9 -10 l0 -12 q0 -10 10 -10 m302 32 l20 0 m-20 0 q10 0 10 -10 l0 -12 q0 -10 -10 -10 m-302 0 h10 m0 0 h292 m-342 32 h20 m342 0 h20 m-382 0 q10 0 10 10 m362 0 q0 -10 10 -10 m-372 10 v366 m362 0 v-366 m-362 366 q0 10 10 10 m342 0 q10 0 10 -10 m-352 10 h10 m0 0 h332 m23 -386 h-3"/>
         <polygon points="523 33 531 29 531 37"/>
         <polygon points="523 33 515 29 515 37"/>
      </svg>
