<svg xmlns="http://www.w3.org/2000/svg" width="601" height="729">
         <defs>
            <style type="text/css">
               @namespace "http://www.w3.org/2000/svg";
               .line                 {fill: none; stroke: #1F1F1F;}
               .bold-line            {stroke: #0A0A0A; shape-rendering: crispEdges; stroke-width:
               2; }
               .thin-line            {stroke: #0F0F0F; shape-rendering: crispEdges}
               .filled               {fill: #1F1F1F; stroke: none;}
               text.terminal         {font-family: Verdana, Sans-serif;
               font-size: 12px;
               fill: #0A0A0A;
               font-weight: bold;
               }
               text.nonterminal      {font-family: Verdana, Sans-serif; font-style: italic;
               font-size: 12px;
               fill: #0D0D0D;
               }
               text.regexp           {font-family: Verdana, Sans-serif;
               font-size: 12px;
               fill: #0F0F0F;
               }
               rect, circle, polygon {fill: #1F1F1F; stroke: #1F1F1F;}
               rect.terminal         {fill: #CCCCCC; stroke: #1F1F1F;}
               rect.nonterminal      {fill: #E3E3E3; stroke: #1F1F1F;}
               rect.text             {fill: none; stroke: none;}
               polygon.regexp        {fill: #EFEFEF; stroke: #1F1F1F;}

            </style>
         </defs>

         <polygon points="9 33 1 29 1 37"/>
         <polygon points="17 33 9 29 9 37"/>
         <rect x="31" y="19" width="94" height="32" rx="10"/>
         <rect x="29" y="17" width="94" height="32" class="terminal" rx="10"/>
         <text class="terminal" x="39" y="37">::OPTIONS</text>
         <rect x="205" y="19" width="70" height="32" rx="10"/>
         <rect x="203" y="17" width="70" height="32" class="terminal" rx="10"/>
         <text class="terminal" x="213" y="37">DIGITS</text><a xmlns:xlink="http://www.w3.org/1999/xlink" xlink:href="#digits" xlink:title="digits">
            <rect x="295" y="19" width="54" height="32"/>
            <rect x="293" y="17" width="54" height="32" class="nonterminal"/>
            <text class="nonterminal" x="303" y="37">digits</text></a><rect x="205" y="63" width="60" height="32" rx="10"/>
         <rect x="203" y="61" width="60" height="32" class="terminal" rx="10"/>
         <text class="terminal" x="213" y="81">FORM</text>
         <rect x="305" y="63" width="116" height="32" rx="10"/>
         <rect x="303" y="61" width="116" height="32" class="terminal" rx="10"/>
         <text class="terminal" x="313" y="81">ENGINEERING</text>
         <rect x="305" y="107" width="100" height="32" rx="10"/>
         <rect x="303" y="105" width="100" height="32" class="terminal" rx="10"/>
         <text class="terminal" x="313" y="125">SCIENTIFIC</text>
         <rect x="205" y="151" width="54" height="32" rx="10"/>
         <rect x="203" y="149" width="54" height="32" class="terminal" rx="10"/>
         <text class="terminal" x="213" y="169">FUZZ</text><a xmlns:xlink="http://www.w3.org/1999/xlink" xlink:href="#fuzz" xlink:title="fuzz">
            <rect x="279" y="151" width="46" height="32"/>
            <rect x="277" y="149" width="46" height="32" class="nonterminal"/>
            <text class="nonterminal" x="287" y="169">fuzz</text></a><rect x="205" y="195" width="84" height="32" rx="10"/>
         <rect x="203" y="193" width="84" height="32" class="terminal" rx="10"/>
         <text class="terminal" x="213" y="213">NUMERIC</text>
         <rect x="329" y="195" width="78" height="32" rx="10"/>
         <rect x="327" y="193" width="78" height="32" class="terminal" rx="10"/>
         <text class="terminal" x="337" y="213">INHERIT</text>
         <rect x="329" y="239" width="100" height="32" rx="10"/>
         <rect x="327" y="237" width="100" height="32" class="terminal" rx="10"/>
         <text class="terminal" x="337" y="257">NOINHERIT</text>
         <rect x="225" y="283" width="44" height="32" rx="10"/>
         <rect x="223" y="281" width="44" height="32" class="terminal" rx="10"/>
         <text class="terminal" x="233" y="301">ALL</text>
         <rect x="225" y="327" width="66" height="32" rx="10"/>
         <rect x="223" y="325" width="66" height="32" class="terminal" rx="10"/>
         <text class="terminal" x="233" y="345">ERROR</text>
         <rect x="225" y="371" width="78" height="32" rx="10"/>
         <rect x="223" y="369" width="78" height="32" class="terminal" rx="10"/>
         <text class="terminal" x="233" y="389">FAILURE</text>
         <rect x="225" y="415" width="106" height="32" rx="10"/>
         <rect x="223" y="413" width="106" height="32" class="terminal" rx="10"/>
         <text class="terminal" x="233" y="433">LOSTDIGITS</text>
         <rect x="225" y="459" width="94" height="32" rx="10"/>
         <rect x="223" y="457" width="94" height="32" class="terminal" rx="10"/>
         <text class="terminal" x="233" y="477">NOSTRING</text>
         <rect x="225" y="503" width="94" height="32" rx="10"/>
         <rect x="223" y="501" width="94" height="32" class="terminal" rx="10"/>
         <text class="terminal" x="233" y="521">NOTREADY</text>
         <rect x="225" y="547" width="84" height="32" rx="10"/>
         <rect x="223" y="545" width="84" height="32" class="terminal" rx="10"/>
         <text class="terminal" x="233" y="565">NOVALUE</text>
         <rect x="391" y="283" width="102" height="32" rx="10"/>
         <rect x="389" y="281" width="102" height="32" class="terminal" rx="10"/>
         <text class="terminal" x="399" y="301">CONDITION</text>
         <rect x="391" y="327" width="74" height="32" rx="10"/>
         <rect x="389" y="325" width="74" height="32" class="terminal" rx="10"/>
         <text class="terminal" x="399" y="345">SYNTAX</text>
         <rect x="205" y="591" width="78" height="32" rx="10"/>
         <rect x="203" y="589" width="78" height="32" class="terminal" rx="10"/>
         <text class="terminal" x="213" y="609">PROLOG</text>
         <rect x="205" y="635" width="98" height="32" rx="10"/>
         <rect x="203" y="633" width="98" height="32" class="terminal" rx="10"/>
         <text class="terminal" x="213" y="653">NOPROLOG</text>
         <rect x="205" y="679" width="64" height="32" rx="10"/>
         <rect x="203" y="677" width="64" height="32" class="terminal" rx="10"/>
         <text class="terminal" x="213" y="697">TRACE</text><a xmlns:xlink="http://www.w3.org/1999/xlink" xlink:href="#trace" xlink:title="trace">
            <rect x="289" y="679" width="52" height="32"/>
            <rect x="287" y="677" width="52" height="32" class="nonterminal"/>
            <text class="nonterminal" x="297" y="697">trace</text></a><path class="line" d="m17 33 h2 m0 0 h10 m94 0 h10 m60 0 h10 m70 0 h10 m0 0 h10 m54 0 h10 m0 0 h164 m-348 0 h20 m328 0 h20 m-368 0 q10 0 10 10 m348 0 q0 -10 10 -10 m-358 10 v24 m348 0 v-24 m-348 24 q0 10 10 10 m328 0 q10 0 10 -10 m-338 10 h10 m60 0 h10 m20 0 h10 m116 0 h10 m-156 0 h20 m136 0 h20 m-176 0 q10 0 10 10 m156 0 q0 -10 10 -10 m-166 10 v24 m156 0 v-24 m-156 24 q0 10 10 10 m136 0 q10 0 10 -10 m-146 10 h10 m100 0 h10 m0 0 h16 m20 -44 h72 m-338 -10 v20 m348 0 v-20 m-348 20 v68 m348 0 v-68 m-348 68 q0 10 10 10 m328 0 q10 0 10 -10 m-338 10 h10 m54 0 h10 m0 0 h10 m46 0 h10 m0 0 h188 m-338 -10 v20 m348 0 v-20 m-348 20 v24 m348 0 v-24 m-348 24 q0 10 10 10 m328 0 q10 0 10 -10 m-338 10 h10 m84 0 h10 m20 0 h10 m78 0 h10 m0 0 h22 m-140 0 h20 m120 0 h20 m-160 0 q10 0 10 10 m140 0 q0 -10 10 -10 m-150 10 v24 m140 0 v-24 m-140 24 q0 10 10 10 m120 0 q10 0 10 -10 m-130 10 h10 m100 0 h10 m20 -44 h64 m-338 -10 v20 m348 0 v-20 m-348 20 v68 m348 0 v-68 m-348 68 q0 10 10 10 m328 0 q10 0 10 -10 m-318 10 h10 m44 0 h10 m0 0 h62 m-146 0 h20 m126 0 h20 m-166 0 q10 0 10 10 m146 0 q0 -10 10 -10 m-156 10 v24 m146 0 v-24 m-146 24 q0 10 10 10 m126 0 q10 0 10 -10 m-136 10 h10 m66 0 h10 m0 0 h40 m-136 -10 v20 m146 0 v-20 m-146 20 v24 m146 0 v-24 m-146 24 q0 10 10 10 m126 0 q10 0 10 -10 m-136 10 h10 m78 0 h10 m0 0 h28 m-136 -10 v20 m146 0 v-20 m-146 20 v24 m146 0 v-24 m-146 24 q0 10 10 10 m126 0 q10 0 10 -10 m-136 10 h10 m106 0 h10 m-136 -10 v20 m146 0 v-20 m-146 20 v24 m146 0 v-24 m-146 24 q0 10 10 10 m126 0 q10 0 10 -10 m-136 10 h10 m94 0 h10 m0 0 h12 m-136 -10 v20 m146 0 v-20 m-146 20 v24 m146 0 v-24 m-146 24 q0 10 10 10 m126 0 q10 0 10 -10 m-136 10 h10 m94 0 h10 m0 0 h12 m-136 -10 v20 m146 0 v-20 m-146 20 v24 m146 0 v-24 m-146 24 q0 10 10 10 m126 0 q10 0 10 -10 m-136 10 h10 m84 0 h10 m0 0 h22 m40 -264 h10 m102 0 h10 m-142 0 h20 m122 0 h20 m-162 0 q10 0 10 10 m142 0 q0 -10 10 -10 m-152 10 v24 m142 0 v-24 m-142 24 q0 10 10 10 m122 0 q10 0 10 -10 m-132 10 h10 m74 0 h10 m0 0 h28 m-318 -54 v20 m348 0 v-20 m-348 20 v288 m348 0 v-288 m-348 288 q0 10 10 10 m328 0 q10 0 10 -10 m-338 10 h10 m78 0 h10 m0 0 h230 m-338 -10 v20 m348 0 v-20 m-348 20 v24 m348 0 v-24 m-348 24 q0 10 10 10 m328 0 q10 0 10 -10 m-338 10 h10 m98 0 h10 m0 0 h210 m-338 -10 v20 m348 0 v-20 m-348 20 v24 m348 0 v-24 m-348 24 q0 10 10 10 m328 0 q10 0 10 -10 m-338 10 h10 m64 0 h10 m0 0 h10 m52 0 h10 m0 0 h172 m-368 -660 l20 0 m-1 0 q-9 0 -9 -10 l0 -12 q0 -10 10 -10 m368 32 l20 0 m-20 0 q10 0 10 -10 l0 -12 q0 -10 -10 -10 m-368 0 h10 m0 0 h358 m-408 32 h20 m408 0 h20 m-448 0 q10 0 10 10 m428 0 q0 -10 10 -10 m-438 10 v674 m428 0 v-674 m-428 674 q0 10 10 10 m408 0 q10 0 10 -10 m-418 10 h10 m0 0 h398 m23 -694 h-3"/>
         <polygon points="591 33 599 29 599 37"/>
         <polygon points="591 33 583 29 583 37"/>
</svg>