<svg xmlns="http://www.w3.org/2000/svg" width="563" height="113">
         <defs>
            <style type="text/css">
    @namespace "http://www.w3.org/2000/svg";
    .line                 {fill: none; stroke: #1F1F1F;}
    .bold-line            {stroke: #0A0A0A; shape-rendering: crispEdges; stroke-width: 2; }
    .thin-line            {stroke: #0F0F0F; shape-rendering: crispEdges}
    .filled               {fill: #1F1F1F; stroke: none;}
    text.terminal         {font-family: Verdana, Sans-serif;
                            font-size: 12px;
                            fill: #0A0A0A;
                            font-weight: bold;
                          }
    text.nonterminal      {font-family: Verdana, Sans-serif; font-style: italic;
                            font-size: 12px;
                            fill: #0D0D0D;
                            font-weight: normal;
                          }
    text.regexp           {font-family: Verdana, Sans-serif;
                            font-size: 12px;
                            fill: #0F0F0F;
                            font-weight: normal;
                          }
    rect, circle, polygon {fill: #1F1F1F; stroke: #1F1F1F;}
    rect.terminal         {fill: #CCCCCC; stroke: #1F1F1F;}
    rect.nonterminal      {fill: #E3E3E3; stroke: #1F1F1F;}
    rect.text             {fill: none; stroke: none;}    
    polygon.regexp        {fill: #EFEFEF; stroke: #1F1F1F;}
  </style>
         </defs>
         <polygon points="9 17 1 13 1 21"/>
         <polygon points="17 17 9 13 9 21"/>
         <rect x="31" y="3" width="100" height="32" rx="10"/>
         <rect x="29" y="1" width="100" height="32" class="terminal" rx="10"/>
         <text class="terminal" x="39" y="21">::REQUIRES</text>
<!--  <a xmlns:xlink="http://www.w3.org/1999/xlink" xlink:href="#programname" xlink:title="programname"> -->
            <rect x="151" y="3" width="108" height="32"/>
            <rect x="149" y="1" width="108" height="32" class="nonterminal"/>
            <text class="nonterminal" x="159" y="21">programname</text><!-- </a> -->
<rect x="299" y="35" width="80" height="32" rx="10"/>
         <rect x="297" y="33" width="80" height="32" class="terminal" rx="10"/>
         <text class="terminal" x="307" y="53">LIBRARY</text>
         <rect x="299" y="79" width="104" height="32" rx="10"/>
         <rect x="297" y="77" width="104" height="32" class="terminal" rx="10"/>
         <text class="terminal" x="307" y="97">NAMESPACE</text>
<!--  <a xmlns:xlink="http://www.w3.org/1999/xlink" xlink:href="#namespace" xlink:title="namespace"> -->
            <rect x="423" y="79" width="92" height="32"/>
            <rect x="421" y="77" width="92" height="32" class="nonterminal"/>
            <text class="nonterminal" x="431" y="97">namespace</text><!-- </a> -->
<svg:path xmlns:svg="http://www.w3.org/2000/svg" class="line" d="m17 17 h2 m0 0 h10 m100 0 h10 m0 0 h10 m108 0 h10 m20 0 h10 m0 0 h226 m-256 0 h20 m236 0 h20 m-276 0 q10 0 10 10 m256 0 q0 -10 10 -10 m-266 10 v12 m256 0 v-12 m-256 12 q0 10 10 10 m236 0 q10 0 10 -10 m-246 10 h10 m80 0 h10 m0 0 h136 m-246 -10 v20 m256 0 v-20 m-256 20 v24 m256 0 v-24 m-256 24 q0 10 10 10 m236 0 q10 0 10 -10 m-246 10 h10 m104 0 h10 m0 0 h10 m92 0 h10 m23 -76 h-3"/>
         <polygon points="553 17 561 13 561 21"/>
         <polygon points="553 17 545 13 545 21"/></svg>
