      <svg xmlns="http://www.w3.org/2000/svg" width="336" height="118">
         <defs>
            <style type="text/css">
               @namespace "http://www.w3.org/2000/svg";
               .line                 {fill: none; stroke: #1F1F1F;}
               .bold-line            {stroke: #0A0A0A; shape-rendering: crispEdges; stroke-width:
               2; }
               .thin-line            {stroke: #0F0F0F; shape-rendering: crispEdges}
               .filled               {fill: #1F1F1F; stroke: none;}
               text.terminal         {font-family: Verdana, Sans-serif;
               font-size: 12px;
               fill: #0A0A0A;
               font-weight: bold;
               }
               text.nonterminal      {font-family: Verdana, Sans-serif; font-style: italic;
               font-size: 12px;
               fill: #0D0D0D;
               }
               text.regexp           {font-family: Verdana, Sans-serif;
               font-size: 12px;
               fill: #0F0F0F;
               }
               rect, circle, polygon {fill: #1F1F1F; stroke: #1F1F1F;}
               rect.terminal         {fill: #CCCCCC; stroke: #1F1F1F;}
               rect.nonterminal      {fill: #E3E3E3; stroke: #1F1F1F;}
               rect.text             {fill: none; stroke: none;}    
               polygon.regexp        {fill: #EFEFEF; stroke: #1F1F1F;}
               
            </style>
         </defs>
         <polygon points="9 17 1 13 1 21"/>
         <polygon points="17 17 9 13 9 21"/>
         <rect x="51" y="3" width="58" height="32" rx="10"/>
         <rect x="49" y="1" width="58" height="32" class="terminal" rx="10"/>
         <text class="terminal" x="59" y="21">::END</text>
<!--     <a xmlns:xlink="http://www.w3.org/1999/xlink" xlink:href="#ignored_data" xlink:title="ignored_data"> -->
            <rect x="149" y="3" width="104" height="32"/>
            <rect x="147" y="1" width="104" height="32" class="nonterminal"/>
            <text class="nonterminal" x="157" y="21">ignored_data</text>
<!--     </a> -->
<!--     <a xmlns:xlink="http://www.w3.org/1999/xlink" xlink:href="#delimiter" xlink:title="delimiter"> -->
            <rect x="51" y="69" width="74" height="32"/>
            <rect x="49" y="67" width="74" height="32" class="nonterminal"/>
            <text class="nonterminal" x="59" y="87">delimiter</text>
<!--     </a> -->
<!--     <a xmlns:xlink="http://www.w3.org/1999/xlink" xlink:href="#ignored_data" xlink:title="ignored_data"> -->
            <rect x="165" y="69" width="104" height="32"/>
            <rect x="163" y="67" width="104" height="32" class="nonterminal"/>
            <text class="nonterminal" x="173" y="87">ignored_data</text>
<!--     </a> -->
         <svg:path xmlns:svg="http://www.w3.org/2000/svg" class="line" d="m17 17 h2 m20 0 h10 m58 0 h10 m20 0 h10 m104 0 h10 m-144 0 h20 m124 0 h20 m-164 0 q10 0 10 10 m144 0 q0 -10 10 -10 m-154 10 v14 m144 0 v-14 m-144 14 q0 10 10 10 m124 0 q10 0 10 -10 m-134 10 h10 m0 0 h114 m20 -34 h16 m-278 0 h20 m258 0 h20 m-298 0 q10 0 10 10 m278 0 q0 -10 10 -10 m-288 10 v46 m278 0 v-46 m-278 46 q0 10 10 10 m258 0 q10 0 10 -10 m-268 10 h10 m74 0 h10 m20 0 h10 m104 0 h10 m-144 0 h20 m124 0 h20 m-164 0 q10 0 10 10 m144 0 q0 -10 10 -10 m-154 10 v14 m144 0 v-14 m-144 14 q0 10 10 10 m124 0 q10 0 10 -10 m-134 10 h10 m0 0 h114 m43 -100 h-3"/>
         <polygon points="327 17 335 13 335 21"/>
         <polygon points="327 17 319 13 319 21"/>
      </svg>
