<svg xmlns="http://www.w3.org/2000/svg" width="339" height="81">
         <defs>
            <style type="text/css">
               @namespace "http://www.w3.org/2000/svg";
               .line                 {fill: none; stroke: #1F1F1F;}
               .bold-line            {stroke: #0A0A0A; shape-rendering: crispEdges; stroke-width:
               2; }
               .thin-line            {stroke: #0F0F0F; shape-rendering: crispEdges}
               .filled               {fill: #1F1F1F; stroke: none;}
               text.terminal         {font-family: Verdana, Sans-serif;
               font-size: 12px;
               fill: #0A0A0A;
               font-weight: bold;
               }
               text.nonterminal      {font-family: Verdana, Sans-serif; font-style: italic;
               font-size: 12px;
               fill: #0D0D0D;
               }
               text.regexp           {font-family: Verdana, Sans-serif;
               font-size: 12px;
               fill: #0F0F0F;
               }
               rect, circle, polygon {fill: #1F1F1F; stroke: #1F1F1F;}
               rect.terminal         {fill: #CCCCCC; stroke: #1F1F1F;}
               rect.nonterminal      {fill: #E3E3E3; stroke: #1F1F1F;}
               rect.text             {fill: none; stroke: none;}
               polygon.regexp        {fill: #EFEFEF; stroke: #1F1F1F;}

            </style>
         </defs>

         <polygon points="9 17 1 13 1 21"/>
         <polygon points="17 17 9 13 9 21"/>
         <rect x="51" y="3" width="58" height="32" rx="10"/>
         <rect x="49" y="1" width="58" height="32" class="terminal" rx="10"/>
         <text class="terminal" x="59" y="21">::END</text><a xmlns:xlink="http://www.w3.org/1999/xlink" xlink:href="#delimiter" xlink:title="delimiter">
            <rect x="51" y="47" width="76" height="32"/>
            <rect x="49" y="45" width="76" height="32" class="nonterminal"/>
            <text class="nonterminal" x="59" y="65">delimiter</text></a><a xmlns:xlink="http://www.w3.org/1999/xlink" xlink:href="#ignored_data" xlink:title="ignored_data">
            <rect x="187" y="35" width="104" height="32"/>
            <rect x="185" y="33" width="104" height="32" class="nonterminal"/>
            <text class="nonterminal" x="195" y="53">ignored_data</text></a><path class="line" d="m17 17 h2 m20 0 h10 m58 0 h10 m0 0 h18 m-116 0 h20 m96 0 h20 m-136 0 q10 0 10 10 m116 0 q0 -10 10 -10 m-126 10 v24 m116 0 v-24 m-116 24 q0 10 10 10 m96 0 q10 0 10 -10 m-106 10 h10 m76 0 h10 m40 -44 h10 m0 0 h114 m-144 0 h20 m124 0 h20 m-164 0 q10 0 10 10 m144 0 q0 -10 10 -10 m-154 10 v12 m144 0 v-12 m-144 12 q0 10 10 10 m124 0 q10 0 10 -10 m-134 10 h10 m104 0 h10 m23 -32 h-3"/>
         <polygon points="329 17 337 13 337 21"/>
         <polygon points="329 17 321 13 321 21"/>
</svg>