<svg xmlns="http://www.w3.org/2000/svg" width="443" height="69">
         <defs>
            <style type="text/css">
    @namespace "http://www.w3.org/2000/svg";
    .line                 {fill: none; stroke: #1F1F1F;}
    .bold-line            {stroke: #0A0A0A; shape-rendering: crispEdges; stroke-width: 2; }
    .thin-line            {stroke: #0F0F0F; shape-rendering: crispEdges}
    .filled               {fill: #1F1F1F; stroke: none;}
    text.terminal         {font-family: Verdana, Sans-serif;
                            font-size: 12px;
                            fill: #0A0A0A;
                            font-weight: bold;
                          }
    text.nonterminal      {font-family: Verdana, Sans-serif; font-style: italic;
                            font-size: 12px;
                            fill: #0D0D0D;
                            font-weight: normal;
                          }
    text.regexp           {font-family: Verdana, Sans-serif;
                            font-size: 12px;
                            fill: #0F0F0F;
                            font-weight: normal;
                          }
    rect, circle, polygon {fill: #1F1F1F; stroke: #1F1F1F;}
    rect.terminal         {fill: #CCCCCC; stroke: #1F1F1F;}
    rect.nonterminal      {fill: #E3E3E3; stroke: #1F1F1F;}
    rect.text             {fill: none; stroke: none;}    
    polygon.regexp        {fill: #EFEFEF; stroke: #1F1F1F;}
  </style>
         </defs>
         <polygon points="9 17 1 13 1 21"/>
         <polygon points="17 17 9 13 9 21"/>
         <rect x="31" y="3" width="104" height="32" rx="10"/>
         <rect x="29" y="1" width="104" height="32" class="terminal" rx="10"/>
         <text class="terminal" x="39" y="21">::RESOURCE</text>
<!--  <a xmlns:xlink="http://www.w3.org/1999/xlink" xlink:href="#name" xlink:title="name"> -->
            <rect x="155" y="3" width="56" height="32"/>
            <rect x="153" y="1" width="56" height="32" class="nonterminal"/>
            <text class="nonterminal" x="163" y="21">name</text><!-- </a> -->
<rect x="251" y="35" width="48" height="32" rx="10"/>
         <rect x="249" y="33" width="48" height="32" class="terminal" rx="10"/>
         <text class="terminal" x="259" y="53">END</text>
<!--  <a xmlns:xlink="http://www.w3.org/1999/xlink" xlink:href="#delimiter" xlink:title="delimiter"> -->
            <rect x="319" y="35" width="76" height="32"/>
            <rect x="317" y="33" width="76" height="32" class="nonterminal"/>
            <text class="nonterminal" x="327" y="53">delimiter</text><!-- </a> -->
<svg:path xmlns:svg="http://www.w3.org/2000/svg" class="line" d="m17 17 h2 m0 0 h10 m104 0 h10 m0 0 h10 m56 0 h10 m20 0 h10 m0 0 h154 m-184 0 h20 m164 0 h20 m-204 0 q10 0 10 10 m184 0 q0 -10 10 -10 m-194 10 v12 m184 0 v-12 m-184 12 q0 10 10 10 m164 0 q10 0 10 -10 m-174 10 h10 m48 0 h10 m0 0 h10 m76 0 h10 m23 -32 h-3"/>
         <polygon points="433 17 441 13 441 21"/>
         <polygon points="433 17 425 13 425 21"/></svg>
