      <svg xmlns="http://www.w3.org/2000/svg" width="616" height="112">
         <defs>
            <style type="text/css">
               @namespace "http://www.w3.org/2000/svg";
               .line                 {fill: none; stroke: #1F1F1F;}
               .bold-line            {stroke: #0A0A0A; shape-rendering: crispEdges; stroke-width:
               2; }
               .thin-line            {stroke: #0F0F0F; shape-rendering: crispEdges}
               .filled               {fill: #1F1F1F; stroke: none;}
               text.terminal         {font-family: Verdana, Sans-serif;
               font-size: 12px;
               fill: #0A0A0A;
               font-weight: bold;
               }
               text.nonterminal      {font-family: Verdana, Sans-serif; font-style: italic;
               font-size: 12px;
               fill: #0D0D0D;
               }
               text.regexp           {font-family: Verdana, Sans-serif;
               font-size: 12px;
               fill: #0F0F0F;
               }
               rect, circle, polygon {fill: #1F1F1F; stroke: #1F1F1F;}
               rect.terminal         {fill: #CCCCCC; stroke: #1F1F1F;}
               rect.nonterminal      {fill: #E3E3E3; stroke: #1F1F1F;}
               rect.text             {fill: none; stroke: none;}    
               polygon.regexp        {fill: #EFEFEF; stroke: #1F1F1F;}
               
            </style>
         </defs>
         <polygon points="9 17 1 13 1 21"/>
         <polygon points="17 17 9 13 9 21"/>
         <rect x="31" y="3" width="90" height="32" rx="10"/>
         <rect x="29" y="1" width="90" height="32" class="terminal" rx="10"/>
         <text class="terminal" x="39" y="21">::ROUTINE</text>
<!--     <a xmlns:xlink="http://www.w3.org/1999/xlink" xlink:href="#routinename" xlink:title="routinename"> -->
            <rect x="141" y="3" width="94" height="32"/>
            <rect x="139" y="1" width="94" height="32" class="nonterminal"/>
            <text class="nonterminal" x="149" y="21">routinename</text>
<!--     </a> -->
         <rect x="275" y="35" width="78" height="32" rx="10"/>
         <rect x="273" y="33" width="78" height="32" class="terminal" rx="10"/>
         <text class="terminal" x="283" y="53">PRIVATE</text>
         <rect x="275" y="79" width="70" height="32" rx="10"/>
         <rect x="273" y="77" width="70" height="32" class="terminal" rx="10"/>
         <text class="terminal" x="283" y="97">PUBLIC</text>
         <rect x="413" y="35" width="90" height="32" rx="10"/>
         <rect x="411" y="33" width="90" height="32" class="terminal" rx="10"/>
         <text class="terminal" x="421" y="53">EXTERNAL</text>
<!--     <a xmlns:xlink="http://www.w3.org/1999/xlink" xlink:href="#spec" xlink:title="spec"> -->
            <rect x="523" y="35" width="46" height="32"/>
            <rect x="521" y="33" width="46" height="32" class="nonterminal"/>
            <text class="nonterminal" x="531" y="53">spec</text>
<!--     </a> -->
         <svg:path xmlns:svg="http://www.w3.org/2000/svg" class="line" d="m17 17 h2 m0 0 h10 m90 0 h10 m0 0 h10 m94 0 h10 m20 0 h10 m0 0 h88 m-118 0 h20 m98 0 h20 m-138 0 q10 0 10 10 m118 0 q0 -10 10 -10 m-128 10 v12 m118 0 v-12 m-118 12 q0 10 10 10 m98 0 q10 0 10 -10 m-108 10 h10 m78 0 h10 m-108 -10 v20 m118 0 v-20 m-118 20 v24 m118 0 v-24 m-118 24 q0 10 10 10 m98 0 q10 0 10 -10 m-108 10 h10 m70 0 h10 m0 0 h8 m40 -76 h10 m0 0 h166 m-196 0 h20 m176 0 h20 m-216 0 q10 0 10 10 m196 0 q0 -10 10 -10 m-206 10 v12 m196 0 v-12 m-196 12 q0 10 10 10 m176 0 q10 0 10 -10 m-186 10 h10 m90 0 h10 m0 0 h10 m46 0 h10 m23 -32 h-3"/>
         <polygon points="607 17 615 13 615 21"/>
         <polygon points="607 17 599 13 599 21"/>
      </svg>
