      <svg xmlns="http://www.w3.org/2000/svg" width="672" height="382">
         <defs>
            <style type="text/css">
               @namespace "http://www.w3.org/2000/svg";
               .line                 {fill: none; stroke: #1F1F1F;}
               .bold-line            {stroke: #0A0A0A; shape-rendering: crispEdges; stroke-width:
               2; }
               .thin-line            {stroke: #0F0F0F; shape-rendering: crispEdges}
               .filled               {fill: #1F1F1F; stroke: none;}
               text.terminal         {font-family: Verdana, Sans-serif;
               font-size: 12px;
               fill: #0A0A0A;
               font-weight: bold;
               }
               text.nonterminal      {font-family: Verdana, Sans-serif; font-style: italic;
               font-size: 12px;
               fill: #0D0D0D;
               }
               text.regexp           {font-family: Verdana, Sans-serif;
               font-size: 12px;
               fill: #0F0F0F;
               }
               rect, circle, polygon {fill: #1F1F1F; stroke: #1F1F1F;}
               rect.terminal         {fill: #CCCCCC; stroke: #1F1F1F;}
               rect.nonterminal      {fill: #E3E3E3; stroke: #1F1F1F;}
               rect.text             {fill: none; stroke: none;}    
               polygon.regexp        {fill: #EFEFEF; stroke: #1F1F1F;}
               
            </style>
         </defs>
         <polygon points="9 17 1 13 1 21"/>
         <polygon points="17 17 9 13 9 21"/>
         <rect x="31" y="3" width="132" height="32" rx="10"/>
         <rect x="29" y="1" width="132" height="32" class="terminal" rx="10"/>
         <text class="terminal" x="39" y="21">sendMouseClick(</text>
         <rect x="203" y="3" width="62" height="32" rx="10"/>
         <rect x="201" y="1" width="62" height="32" class="terminal" rx="10"/>
         <text class="terminal" x="211" y="21">RIGHT</text>
         <rect x="203" y="47" width="52" height="32" rx="10"/>
         <rect x="201" y="45" width="52" height="32" class="terminal" rx="10"/>
         <text class="terminal" x="211" y="65">LEFT</text>
         <rect x="203" y="91" width="72" height="32" rx="10"/>
         <rect x="201" y="89" width="72" height="32" class="terminal" rx="10"/>
         <text class="terminal" x="211" y="109">MIDDLE</text>
         <rect x="315" y="3" width="24" height="32" rx="10"/>
         <rect x="313" y="1" width="24" height="32" class="terminal" rx="10"/>
         <text class="terminal" x="323" y="21">,</text>
         <rect x="379" y="3" width="38" height="32" rx="10"/>
         <rect x="377" y="1" width="38" height="32" class="terminal" rx="10"/>
         <text class="terminal" x="387" y="21">UP</text>
         <rect x="379" y="47" width="64" height="32" rx="10"/>
         <rect x="377" y="45" width="64" height="32" class="terminal" rx="10"/>
         <text class="terminal" x="387" y="65">DOWN</text>
         <rect x="379" y="91" width="72" height="32" rx="10"/>
         <rect x="377" y="89" width="72" height="32" class="terminal" rx="10"/>
         <text class="terminal" x="387" y="109">DBLCLK</text>
         <rect x="491" y="3" width="24" height="32" rx="10"/>
         <rect x="489" y="1" width="24" height="32" class="terminal" rx="10"/>
         <text class="terminal" x="499" y="21">,</text>
<!--     <a xmlns:xlink="http://www.w3.org/1999/xlink" xlink:href="#x" xlink:title="x"> -->
            <rect x="535" y="3" width="26" height="32"/>
            <rect x="533" y="1" width="26" height="32" class="nonterminal"/>
            <text class="nonterminal" x="543" y="21">x</text>
<!--     </a> -->
         <rect x="581" y="3" width="24" height="32" rx="10"/>
         <rect x="579" y="1" width="24" height="32" class="terminal" rx="10"/>
         <text class="terminal" x="589" y="21">,</text>
<!--     <a xmlns:xlink="http://www.w3.org/1999/xlink" xlink:href="#y" xlink:title="y"> -->
            <rect x="625" y="3" width="26" height="32"/>
            <rect x="623" y="1" width="26" height="32" class="nonterminal"/>
            <text class="nonterminal" x="633" y="21">y</text>
<!--     </a> -->
         <rect x="377" y="173" width="24" height="32" rx="10"/>
         <rect x="375" y="171" width="24" height="32" class="terminal" rx="10"/>
         <text class="terminal" x="385" y="191">,</text>
         <rect x="441" y="173" width="96" height="32" rx="10"/>
         <rect x="439" y="171" width="96" height="32" class="terminal" rx="10"/>
         <text class="terminal" x="449" y="191">LEFTDOWN</text>
         <rect x="441" y="217" width="108" height="32" rx="10"/>
         <rect x="439" y="215" width="108" height="32" class="terminal" rx="10"/>
         <text class="terminal" x="449" y="235">RIGHTDOWN</text>
         <rect x="441" y="261" width="118" height="32" rx="10"/>
         <rect x="439" y="259" width="118" height="32" class="terminal" rx="10"/>
         <text class="terminal" x="449" y="279">MIDDLEDOWN</text>
         <rect x="441" y="305" width="60" height="32" rx="10"/>
         <rect x="439" y="303" width="60" height="32" class="terminal" rx="10"/>
         <text class="terminal" x="449" y="323">SHIFT</text>
         <rect x="441" y="349" width="86" height="32" rx="10"/>
         <rect x="439" y="347" width="86" height="32" class="terminal" rx="10"/>
         <text class="terminal" x="449" y="367">CONTROL</text>
         <rect x="619" y="173" width="26" height="32" rx="10"/>
         <rect x="617" y="171" width="26" height="32" class="terminal" rx="10"/>
         <text class="terminal" x="627" y="191">)</text>
         <svg:path xmlns:svg="http://www.w3.org/2000/svg" class="line" d="m17 17 h2 m0 0 h10 m132 0 h10 m20 0 h10 m62 0 h10 m0 0 h10 m-112 0 h20 m92 0 h20 m-132 0 q10 0 10 10 m112 0 q0 -10 10 -10 m-122 10 v24 m112 0 v-24 m-112 24 q0 10 10 10 m92 0 q10 0 10 -10 m-102 10 h10 m52 0 h10 m0 0 h20 m-102 -10 v20 m112 0 v-20 m-112 20 v24 m112 0 v-24 m-112 24 q0 10 10 10 m92 0 q10 0 10 -10 m-102 10 h10 m72 0 h10 m20 -88 h10 m24 0 h10 m20 0 h10 m38 0 h10 m0 0 h34 m-112 0 h20 m92 0 h20 m-132 0 q10 0 10 10 m112 0 q0 -10 10 -10 m-122 10 v24 m112 0 v-24 m-112 24 q0 10 10 10 m92 0 q10 0 10 -10 m-102 10 h10 m64 0 h10 m0 0 h8 m-102 -10 v20 m112 0 v-20 m-112 20 v24 m112 0 v-24 m-112 24 q0 10 10 10 m92 0 q10 0 10 -10 m-102 10 h10 m72 0 h10 m20 -88 h10 m24 0 h10 m0 0 h10 m26 0 h10 m0 0 h10 m24 0 h10 m0 0 h10 m26 0 h10 m2 0 l2 0 m2 0 l2 0 m2 0 l2 0 m-338 170 l2 0 m2 0 l2 0 m2 0 l2 0 m22 0 h10 m24 0 h10 m20 0 h10 m96 0 h10 m0 0 h22 m-158 0 h20 m138 0 h20 m-178 0 q10 0 10 10 m158 0 q0 -10 10 -10 m-168 10 v24 m158 0 v-24 m-158 24 q0 10 10 10 m138 0 q10 0 10 -10 m-148 10 h10 m108 0 h10 m0 0 h10 m-148 -10 v20 m158 0 v-20 m-158 20 v24 m158 0 v-24 m-158 24 q0 10 10 10 m138 0 q10 0 10 -10 m-148 10 h10 m118 0 h10 m-148 -10 v20 m158 0 v-20 m-158 20 v24 m158 0 v-24 m-158 24 q0 10 10 10 m138 0 q10 0 10 -10 m-148 10 h10 m60 0 h10 m0 0 h58 m-148 -10 v20 m158 0 v-20 m-158 20 v24 m158 0 v-24 m-158 24 q0 10 10 10 m138 0 q10 0 10 -10 m-148 10 h10 m86 0 h10 m0 0 h32 m-222 -176 l20 0 m-1 0 q-9 0 -9 -10 l0 -12 q0 -10 10 -10 m222 32 l20 0 m-20 0 q10 0 10 -10 l0 -12 q0 -10 -10 -10 m-222 0 h10 m0 0 h212 m20 32 h10 m26 0 h10 m3 0 h-3"/>
         <polygon points="663 187 671 183 671 191"/>
         <polygon points="663 187 655 183 655 191"/>
      </svg>
