<svg xmlns="http://www.w3.org/2000/svg" width="835" height="233">
         <defs>
            <style type="text/css">
               @namespace "http://www.w3.org/2000/svg";
               .line                 {fill: none; stroke: #1F1F1F;}
               .bold-line            {stroke: #0A0A0A; shape-rendering: crispEdges; stroke-width:
               2; }
               .thin-line            {stroke: #0F0F0F; shape-rendering: crispEdges}
               .filled               {fill: #1F1F1F; stroke: none;}
               text.terminal         {font-family: Verdana, Sans-serif;
               font-size: 12px;
               fill: #0A0A0A;
               font-weight: bold;
               }
               text.nonterminal      {font-family: Verdana, Sans-serif; font-style: italic;
               font-size: 12px;
               fill: #0D0D0D;
               }
               text.regexp           {font-family: Verdana, Sans-serif;
               font-size: 12px;
               fill: #0F0F0F;
               }
               rect, circle, polygon {fill: #1F1F1F; stroke: #1F1F1F;}
               rect.terminal         {fill: #CCCCCC; stroke: #1F1F1F;}
               rect.nonterminal      {fill: #E3E3E3; stroke: #1F1F1F;}
               rect.text             {fill: none; stroke: none;}
               polygon.regexp        {fill: #EFEFEF; stroke: #1F1F1F;}

            </style>
         </defs>

         <defs>
            <style type="text/css">
    @namespace "http://www.w3.org/2000/svg";
    .line                 {fill: none; stroke: #1F1F1F; stroke-width: 1;}
    .bold-line            {stroke: #0A0A0A; shape-rendering: crispEdges; stroke-width: 2;}
    .thin-line            {stroke: #0F0F0F; shape-rendering: crispEdges}
    .filled               {fill: #1F1F1F; stroke: none;}
    text.terminal         {font-family: Verdana, Sans-serif;
                            font-size: 12px;
                            fill: #0A0A0A;
                            font-weight: bold;
                          }
    text.nonterminal      {font-family: Verdana, Sans-serif;
                            font-size: 12px;
                            fill: #0D0D0D;
                            font-weight: normal;
                          }
    text.regexp           {font-family: Verdana, Sans-serif;
                            font-size: 12px;
                            fill: #0F0F0F;
                            font-weight: normal;
                          }
    rect, circle, polygon {fill: #1F1F1F; stroke: #1F1F1F;}
    rect.terminal         {fill: #cccccc; stroke: #1F1F1F; stroke-width: 1;}
    rect.nonterminal      {fill: #E3E3E3; stroke: #1F1F1F; stroke-width: 1;}
    rect.text             {fill: none; stroke: none;}
    polygon.regexp        {fill: #EFEFEF; stroke: #1F1F1F; stroke-width: 1;}
  </style>
         </defs>
         <polygon points="9 33 1 29 1 37"/>
         <polygon points="17 33 9 29 9 37"/>
         <rect x="31" y="19" width="56" height="32" rx="10"/>
         <rect x="29" y="17" width="56" height="32" class="terminal" rx="10"/>
         <text class="terminal" x="39" y="37">new(</text><a xmlns:xlink="http://www.w3.org/1999/xlink" xlink:href="#target" xlink:title="target">
            <rect x="107" y="19" width="58" height="32"/>
            <rect x="105" y="17" width="58" height="32" class="nonterminal"/>
            <text class="nonterminal" x="115" y="37">target</text></a><rect x="185" y="19" width="24" height="32" rx="10"/>
         <rect x="183" y="17" width="24" height="32" class="terminal" rx="10"/>
         <text class="terminal" x="193" y="37">,</text><a xmlns:xlink="http://www.w3.org/1999/xlink" xlink:href="#messagename" xlink:title="messagename">
            <rect x="229" y="19" width="112" height="32"/>
            <rect x="227" y="17" width="112" height="32" class="nonterminal"/>
            <text class="nonterminal" x="237" y="37">messagename</text></a><rect x="381" y="19" width="24" height="32" rx="10"/>
         <rect x="379" y="17" width="24" height="32" class="terminal" rx="10"/>
         <text class="terminal" x="389" y="37">,</text>
         <rect x="425" y="19" width="102" height="32" rx="10"/>
         <rect x="423" y="17" width="102" height="32" class="terminal" rx="10"/>
         <text class="terminal" x="433" y="37">"Individual"</text>
         <rect x="587" y="19" width="24" height="32" rx="10"/>
         <rect x="585" y="17" width="24" height="32" class="terminal" rx="10"/>
         <text class="terminal" x="595" y="37">,</text><a xmlns:xlink="http://www.w3.org/1999/xlink" xlink:href="#argument" xlink:title="argument">
            <rect x="651" y="51" width="82" height="32"/>
            <rect x="649" y="49" width="82" height="32" class="nonterminal"/>
            <text class="nonterminal" x="659" y="69">argument</text></a><rect x="381" y="117" width="24" height="32" rx="10"/>
         <rect x="379" y="115" width="24" height="32" class="terminal" rx="10"/>
         <text class="terminal" x="389" y="135">,</text>
         <rect x="425" y="117" width="70" height="32" rx="10"/>
         <rect x="423" y="115" width="70" height="32" class="terminal" rx="10"/>
         <text class="terminal" x="433" y="135">"Array"</text>
         <rect x="515" y="117" width="24" height="32" rx="10"/>
         <rect x="513" y="115" width="24" height="32" class="terminal" rx="10"/>
         <text class="terminal" x="523" y="135">,</text><a xmlns:xlink="http://www.w3.org/1999/xlink" xlink:href="#arguments" xlink:title="arguments">
            <rect x="559" y="117" width="88" height="32"/>
            <rect x="557" y="115" width="88" height="32" class="nonterminal"/>
            <text class="nonterminal" x="567" y="135">arguments</text></a><rect x="781" y="199" width="26" height="32" rx="10"/>
         <rect x="779" y="197" width="26" height="32" class="terminal" rx="10"/>
         <text class="terminal" x="789" y="217">)</text>
         <svg:path xmlns:svg="http://www.w3.org/2000/svg" class="line" d="m17 33 h2 m0 0 h10 m56 0 h10 m0 0 h10 m58 0 h10 m0 0 h10 m24 0 h10 m0 0 h10 m112 0 h10 m20 0 h10 m24 0 h10 m0 0 h10 m102 0 h10 m40 0 h10 m24 0 h10 m20 0 h10 m0 0 h92 m-122 0 h20 m102 0 h20 m-142 0 q10 0 10 10 m122 0 q0 -10 10 -10 m-132 10 v12 m122 0 v-12 m-122 12 q0 10 10 10 m102 0 q10 0 10 -10 m-112 10 h10 m82 0 h10 m-186 -32 l20 0 m-1 0 q-9 0 -9 -10 l0 -12 q0 -10 10 -10 m186 32 l20 0 m-20 0 q10 0 10 -10 l0 -12 q0 -10 -10 -10 m-186 0 h10 m0 0 h176 m-226 32 h20 m226 0 h20 m-266 0 q10 0 10 10 m246 0 q0 -10 10 -10 m-256 10 v46 m246 0 v-46 m-246 46 q0 10 10 10 m226 0 q10 0 10 -10 m-236 10 h10 m0 0 h216 m-432 -66 h20 m432 0 h20 m-472 0 q10 0 10 10 m452 0 q0 -10 10 -10 m-462 10 v78 m452 0 v-78 m-452 78 q0 10 10 10 m432 0 q10 0 10 -10 m-442 10 h10 m24 0 h10 m0 0 h10 m70 0 h10 m0 0 h10 m24 0 h10 m0 0 h10 m88 0 h10 m0 0 h146 m-442 -10 v20 m452 0 v-20 m-452 20 v14 m452 0 v-14 m-452 14 q0 10 10 10 m432 0 q10 0 10 -10 m-442 10 h10 m0 0 h422 m22 -132 l2 0 m2 0 l2 0 m2 0 l2 0 m-76 180 l2 0 m2 0 l2 0 m2 0 l2 0 m2 0 h10 m26 0 h10 m3 0 h-3"/>
         <polygon points="825 213 833 209 833 217"/>
         <polygon points="825 213 817 209 817 217"/>
</svg>