      <svg xmlns="http://www.w3.org/2000/svg" width="858" height="298">
         <defs>
            <style type="text/css">
               @namespace "http://www.w3.org/2000/svg";
               .line                 {fill: none; stroke: #1F1F1F;}
               .bold-line            {stroke: #0A0A0A; shape-rendering: crispEdges; stroke-width:
               2; }
               .thin-line            {stroke: #0F0F0F; shape-rendering: crispEdges}
               .filled               {fill: #1F1F1F; stroke: none;}
               text.terminal         {font-family: Verdana, Sans-serif;
               font-size: 12px;
               fill: #0A0A0A;
               font-weight: bold;
               }
               text.nonterminal      {font-family: Verdana, Sans-serif; font-style: italic;
               font-size: 12px;
               fill: #0D0D0D;
               }
               text.regexp           {font-family: Verdana, Sans-serif;
               font-size: 12px;
               fill: #0F0F0F;
               }
               rect, circle, polygon {fill: #1F1F1F; stroke: #1F1F1F;}
               rect.terminal         {fill: #CCCCCC; stroke: #1F1F1F;}
               rect.nonterminal      {fill: #E3E3E3; stroke: #1F1F1F;}
               rect.text             {fill: none; stroke: none;}    
               polygon.regexp        {fill: #EFEFEF; stroke: #1F1F1F;}
               
            </style>
         </defs>
         <polygon points="9 17 1 13 1 21"/>
         <polygon points="17 17 9 13 9 21"/>
         <rect x="31" y="3" width="106" height="32" rx="10"/>
         <rect x="29" y="1" width="106" height="32" class="terminal" rx="10"/>
         <text class="terminal" x="39" y="21">addShortcut(</text>
<!--     <a xmlns:xlink="http://www.w3.org/1999/xlink" xlink:href="#name" xlink:title="name"> -->
            <rect x="157" y="3" width="54" height="32"/>
            <rect x="155" y="1" width="54" height="32" class="nonterminal"/>
            <text class="nonterminal" x="165" y="21">name</text>
<!--     </a> -->
         <rect x="231" y="3" width="24" height="32" rx="10"/>
         <rect x="229" y="1" width="24" height="32" class="terminal" rx="10"/>
         <text class="terminal" x="239" y="21">,</text>
<!--     <a xmlns:xlink="http://www.w3.org/1999/xlink" xlink:href="#program" xlink:title="program"> -->
            <rect x="275" y="3" width="72" height="32"/>
            <rect x="273" y="1" width="72" height="32" class="nonterminal"/>
            <text class="nonterminal" x="283" y="21">program</text>
<!--     </a> -->
         <rect x="367" y="3" width="24" height="32" rx="10"/>
         <rect x="365" y="1" width="24" height="32" class="terminal" rx="10"/>
         <text class="terminal" x="375" y="21">,</text>
<!--     <a xmlns:xlink="http://www.w3.org/1999/xlink" xlink:href="#iconfile" xlink:title="iconfile"> -->
            <rect x="431" y="35" width="62" height="32"/>
            <rect x="429" y="33" width="62" height="32" class="nonterminal"/>
            <text class="nonterminal" x="439" y="53">iconfile</text>
<!--     </a> -->
         <rect x="533" y="3" width="24" height="32" rx="10"/>
         <rect x="531" y="1" width="24" height="32" class="terminal" rx="10"/>
         <text class="terminal" x="541" y="21">,</text>
         <rect x="597" y="35" width="28" height="32" rx="10"/>
         <rect x="595" y="33" width="28" height="32" class="terminal" rx="10"/>
         <text class="terminal" x="605" y="53">0</text>
<!--     <a xmlns:xlink="http://www.w3.org/1999/xlink" xlink:href="#iconr" xlink:title="iconr"> -->
            <rect x="597" y="79" width="50" height="32"/>
            <rect x="595" y="77" width="50" height="32" class="nonterminal"/>
            <text class="nonterminal" x="605" y="97">iconr</text>
<!--     </a> -->
         <rect x="687" y="3" width="24" height="32" rx="10"/>
         <rect x="685" y="1" width="24" height="32" class="terminal" rx="10"/>
         <text class="terminal" x="695" y="21">,</text>
<!--     <a xmlns:xlink="http://www.w3.org/1999/xlink" xlink:href="#workdir" xlink:title="workdir"> -->
            <rect x="751" y="35" width="66" height="32"/>
            <rect x="749" y="33" width="66" height="32" class="nonterminal"/>
            <text class="nonterminal" x="759" y="53">workdir</text>
<!--     </a> -->
         <rect x="89" y="145" width="24" height="32" rx="10"/>
         <rect x="87" y="143" width="24" height="32" class="terminal" rx="10"/>
         <text class="terminal" x="97" y="163">,</text>
         <rect x="153" y="177" width="92" height="32" rx="10"/>
         <rect x="151" y="175" width="92" height="32" class="terminal" rx="10"/>
         <text class="terminal" x="161" y="195">PERSONAL</text>
         <rect x="153" y="221" width="82" height="32" rx="10"/>
         <rect x="151" y="219" width="82" height="32" class="terminal" rx="10"/>
         <text class="terminal" x="161" y="239">COMMON</text>
         <rect x="285" y="145" width="24" height="32" rx="10"/>
         <rect x="283" y="143" width="24" height="32" class="terminal" rx="10"/>
         <text class="terminal" x="293" y="163">,</text>
<!--     <a xmlns:xlink="http://www.w3.org/1999/xlink" xlink:href="#args" xlink:title="args"> -->
            <rect x="349" y="177" width="48" height="32"/>
            <rect x="347" y="175" width="48" height="32" class="nonterminal"/>
            <text class="nonterminal" x="357" y="195">args</text>
<!--     </a> -->
         <rect x="437" y="145" width="24" height="32" rx="10"/>
         <rect x="435" y="143" width="24" height="32" class="terminal" rx="10"/>
         <text class="terminal" x="445" y="163">,</text>
<!--     <a xmlns:xlink="http://www.w3.org/1999/xlink" xlink:href="#hotkey" xlink:title="hotkey"> -->
            <rect x="501" y="177" width="62" height="32"/>
            <rect x="499" y="175" width="62" height="32" class="nonterminal"/>
            <text class="nonterminal" x="509" y="195">hotkey</text>
<!--     </a> -->
         <rect x="603" y="145" width="24" height="32" rx="10"/>
         <rect x="601" y="143" width="24" height="32" class="terminal" rx="10"/>
         <text class="terminal" x="611" y="163">,</text>
         <rect x="667" y="177" width="78" height="32" rx="10"/>
         <rect x="665" y="175" width="78" height="32" class="terminal" rx="10"/>
         <text class="terminal" x="675" y="195">NORMAL</text>
         <rect x="667" y="221" width="98" height="32" rx="10"/>
         <rect x="665" y="219" width="98" height="32" class="terminal" rx="10"/>
         <text class="terminal" x="675" y="239">MAXIMIZED</text>
         <rect x="667" y="265" width="96" height="32" rx="10"/>
         <rect x="665" y="263" width="96" height="32" class="terminal" rx="10"/>
         <text class="terminal" x="675" y="283">MINIMIZED</text>
         <rect x="805" y="145" width="26" height="32" rx="10"/>
         <rect x="803" y="143" width="26" height="32" class="terminal" rx="10"/>
         <text class="terminal" x="813" y="163">)</text>
         <svg:path xmlns:svg="http://www.w3.org/2000/svg" class="line" d="m17 17 h2 m0 0 h10 m106 0 h10 m0 0 h10 m54 0 h10 m0 0 h10 m24 0 h10 m0 0 h10 m72 0 h10 m0 0 h10 m24 0 h10 m20 0 h10 m0 0 h72 m-102 0 h20 m82 0 h20 m-122 0 q10 0 10 10 m102 0 q0 -10 10 -10 m-112 10 v12 m102 0 v-12 m-102 12 q0 10 10 10 m82 0 q10 0 10 -10 m-92 10 h10 m62 0 h10 m20 -32 h10 m24 0 h10 m20 0 h10 m0 0 h60 m-90 0 h20 m70 0 h20 m-110 0 q10 0 10 10 m90 0 q0 -10 10 -10 m-100 10 v12 m90 0 v-12 m-90 12 q0 10 10 10 m70 0 q10 0 10 -10 m-80 10 h10 m28 0 h10 m0 0 h22 m-80 -10 v20 m90 0 v-20 m-90 20 v24 m90 0 v-24 m-90 24 q0 10 10 10 m70 0 q10 0 10 -10 m-80 10 h10 m50 0 h10 m20 -76 h10 m24 0 h10 m20 0 h10 m0 0 h76 m-106 0 h20 m86 0 h20 m-126 0 q10 0 10 10 m106 0 q0 -10 10 -10 m-116 10 v12 m106 0 v-12 m-106 12 q0 10 10 10 m86 0 q10 0 10 -10 m-96 10 h10 m66 0 h10 m22 -32 l2 0 m2 0 l2 0 m2 0 l2 0 m-792 142 l2 0 m2 0 l2 0 m2 0 l2 0 m2 0 h10 m24 0 h10 m20 0 h10 m0 0 h102 m-132 0 h20 m112 0 h20 m-152 0 q10 0 10 10 m132 0 q0 -10 10 -10 m-142 10 v12 m132 0 v-12 m-132 12 q0 10 10 10 m112 0 q10 0 10 -10 m-122 10 h10 m92 0 h10 m-122 -10 v20 m132 0 v-20 m-132 20 v24 m132 0 v-24 m-132 24 q0 10 10 10 m112 0 q10 0 10 -10 m-122 10 h10 m82 0 h10 m0 0 h10 m20 -76 h10 m24 0 h10 m20 0 h10 m0 0 h58 m-88 0 h20 m68 0 h20 m-108 0 q10 0 10 10 m88 0 q0 -10 10 -10 m-98 10 v12 m88 0 v-12 m-88 12 q0 10 10 10 m68 0 q10 0 10 -10 m-78 10 h10 m48 0 h10 m20 -32 h10 m24 0 h10 m20 0 h10 m0 0 h72 m-102 0 h20 m82 0 h20 m-122 0 q10 0 10 10 m102 0 q0 -10 10 -10 m-112 10 v12 m102 0 v-12 m-102 12 q0 10 10 10 m82 0 q10 0 10 -10 m-92 10 h10 m62 0 h10 m20 -32 h10 m24 0 h10 m20 0 h10 m0 0 h108 m-138 0 h20 m118 0 h20 m-158 0 q10 0 10 10 m138 0 q0 -10 10 -10 m-148 10 v12 m138 0 v-12 m-138 12 q0 10 10 10 m118 0 q10 0 10 -10 m-128 10 h10 m78 0 h10 m0 0 h20 m-128 -10 v20 m138 0 v-20 m-138 20 v24 m138 0 v-24 m-138 24 q0 10 10 10 m118 0 q10 0 10 -10 m-128 10 h10 m98 0 h10 m-128 -10 v20 m138 0 v-20 m-138 20 v24 m138 0 v-24 m-138 24 q0 10 10 10 m118 0 q10 0 10 -10 m-128 10 h10 m96 0 h10 m0 0 h2 m20 -120 h10 m26 0 h10 m3 0 h-3"/>
         <polygon points="849 159 857 155 857 163"/>
         <polygon points="849 159 841 155 841 163"/>
      </svg>
