      <svg xmlns="http://www.w3.org/2000/svg" width="838" height="288">
         <defs>
            <style type="text/css">
               @namespace "http://www.w3.org/2000/svg";
               .line                 {fill: none; stroke: #1F1F1F;}
               .bold-line            {stroke: #0A0A0A; shape-rendering: crispEdges; stroke-width:
               2; }
               .thin-line            {stroke: #0F0F0F; shape-rendering: crispEdges}
               .filled               {fill: #1F1F1F; stroke: none;}
               text.terminal         {font-family: Verdana, Sans-serif;
               font-size: 12px;
               fill: #0A0A0A;
               font-weight: bold;
               }
               text.nonterminal      {font-family: Verdana, Sans-serif; font-style: italic;
               font-size: 12px;
               fill: #0D0D0D;
               }
               text.regexp           {font-family: Verdana, Sans-serif;
               font-size: 12px;
               fill: #0F0F0F;
               }
               rect, circle, polygon {fill: #1F1F1F; stroke: #1F1F1F;}
               rect.terminal         {fill: #CCCCCC; stroke: #1F1F1F;}
               rect.nonterminal      {fill: #E3E3E3; stroke: #1F1F1F;}
               rect.text             {fill: none; stroke: none;}    
               polygon.regexp        {fill: #EFEFEF; stroke: #1F1F1F;}
               
            </style>
         </defs>
         <polygon points="9 17 1 13 1 21"/>
         <polygon points="17 17 9 13 9 21"/>
         <rect x="31" y="3" width="84" height="32" rx="10"/>
         <rect x="29" y="1" width="84" height="32" class="terminal" rx="10"/>
         <text class="terminal" x="39" y="21">setValue(</text>
<!--     <a xmlns:xlink="http://www.w3.org/1999/xlink" xlink:href="#key_handle" xlink:title="key_handle"> -->
            <rect x="155" y="35" width="92" height="32"/>
            <rect x="153" y="33" width="92" height="32" class="nonterminal"/>
            <text class="nonterminal" x="163" y="53">key_handle</text>
<!--     </a> -->
         <rect x="287" y="3" width="24" height="32" rx="10"/>
         <rect x="285" y="1" width="24" height="32" class="terminal" rx="10"/>
         <text class="terminal" x="295" y="21">,</text>
<!--     <a xmlns:xlink="http://www.w3.org/1999/xlink" xlink:href="#name" xlink:title="name"> -->
            <rect x="351" y="35" width="54" height="32"/>
            <rect x="349" y="33" width="54" height="32" class="nonterminal"/>
            <text class="nonterminal" x="359" y="53">name</text>
<!--     </a> -->
         <rect x="445" y="3" width="24" height="32" rx="10"/>
         <rect x="443" y="1" width="24" height="32" class="terminal" rx="10"/>
         <text class="terminal" x="453" y="21">,</text>
<!--     <a xmlns:xlink="http://www.w3.org/1999/xlink" xlink:href="#value" xlink:title="value"> -->
            <rect x="489" y="3" width="54" height="32"/>
            <rect x="487" y="1" width="54" height="32" class="nonterminal"/>
            <text class="nonterminal" x="497" y="21">value</text>
<!--     </a> -->
         <rect x="583" y="35" width="24" height="32" rx="10"/>
         <rect x="581" y="33" width="24" height="32" class="terminal" rx="10"/>
         <text class="terminal" x="591" y="53">,</text>
         <rect x="647" y="35" width="78" height="32" rx="10"/>
         <rect x="645" y="33" width="78" height="32" class="terminal" rx="10"/>
         <text class="terminal" x="655" y="53">NORMAL</text>
         <rect x="647" y="79" width="74" height="32" rx="10"/>
         <rect x="645" y="77" width="74" height="32" class="terminal" rx="10"/>
         <text class="terminal" x="655" y="97">EXPAND</text>
         <rect x="647" y="123" width="62" height="32" rx="10"/>
         <rect x="645" y="121" width="62" height="32" class="terminal" rx="10"/>
         <text class="terminal" x="655" y="141">MULTI</text>
         <rect x="647" y="167" width="76" height="32" rx="10"/>
         <rect x="645" y="165" width="76" height="32" class="terminal" rx="10"/>
         <text class="terminal" x="655" y="185">NUMBER</text>
         <rect x="647" y="211" width="72" height="32" rx="10"/>
         <rect x="645" y="209" width="72" height="32" class="terminal" rx="10"/>
         <text class="terminal" x="655" y="229">BINARY</text>
         <rect x="647" y="255" width="58" height="32" rx="10"/>
         <rect x="645" y="253" width="58" height="32" class="terminal" rx="10"/>
         <text class="terminal" x="655" y="273">NONE</text>
         <rect x="785" y="3" width="26" height="32" rx="10"/>
         <rect x="783" y="1" width="26" height="32" class="terminal" rx="10"/>
         <text class="terminal" x="793" y="21">)</text>
         <svg:path xmlns:svg="http://www.w3.org/2000/svg" class="line" d="m17 17 h2 m0 0 h10 m84 0 h10 m20 0 h10 m0 0 h102 m-132 0 h20 m112 0 h20 m-152 0 q10 0 10 10 m132 0 q0 -10 10 -10 m-142 10 v12 m132 0 v-12 m-132 12 q0 10 10 10 m112 0 q10 0 10 -10 m-122 10 h10 m92 0 h10 m20 -32 h10 m24 0 h10 m20 0 h10 m0 0 h64 m-94 0 h20 m74 0 h20 m-114 0 q10 0 10 10 m94 0 q0 -10 10 -10 m-104 10 v12 m94 0 v-12 m-94 12 q0 10 10 10 m74 0 q10 0 10 -10 m-84 10 h10 m54 0 h10 m20 -32 h10 m24 0 h10 m0 0 h10 m54 0 h10 m20 0 h10 m0 0 h172 m-202 0 h20 m182 0 h20 m-222 0 q10 0 10 10 m202 0 q0 -10 10 -10 m-212 10 v12 m202 0 v-12 m-202 12 q0 10 10 10 m182 0 q10 0 10 -10 m-192 10 h10 m24 0 h10 m20 0 h10 m78 0 h10 m-118 0 h20 m98 0 h20 m-138 0 q10 0 10 10 m118 0 q0 -10 10 -10 m-128 10 v24 m118 0 v-24 m-118 24 q0 10 10 10 m98 0 q10 0 10 -10 m-108 10 h10 m74 0 h10 m0 0 h4 m-108 -10 v20 m118 0 v-20 m-118 20 v24 m118 0 v-24 m-118 24 q0 10 10 10 m98 0 q10 0 10 -10 m-108 10 h10 m62 0 h10 m0 0 h16 m-108 -10 v20 m118 0 v-20 m-118 20 v24 m118 0 v-24 m-118 24 q0 10 10 10 m98 0 q10 0 10 -10 m-108 10 h10 m76 0 h10 m0 0 h2 m-108 -10 v20 m118 0 v-20 m-118 20 v24 m118 0 v-24 m-118 24 q0 10 10 10 m98 0 q10 0 10 -10 m-108 10 h10 m72 0 h10 m0 0 h6 m-108 -10 v20 m118 0 v-20 m-118 20 v24 m118 0 v-24 m-118 24 q0 10 10 10 m98 0 q10 0 10 -10 m-108 10 h10 m58 0 h10 m0 0 h20 m40 -252 h10 m26 0 h10 m3 0 h-3"/>
         <polygon points="829 17 837 13 837 21"/>
         <polygon points="829 17 821 13 821 21"/>
      </svg>
