      <svg xmlns="http://www.w3.org/2000/svg" width="632" height="36">
         <defs>
            <style type="text/css">
               @namespace "http://www.w3.org/2000/svg";
               .line                 {fill: none; stroke: #1F1F1F;}
               .bold-line            {stroke: #0A0A0A; shape-rendering: crispEdges; stroke-width:
               2; }
               .thin-line            {stroke: #0F0F0F; shape-rendering: crispEdges}
               .filled               {fill: #1F1F1F; stroke: none;}
               text.terminal         {font-family: Verdana, Sans-serif;
               font-size: 12px;
               fill: #0A0A0A;
               font-weight: bold;
               }
               text.nonterminal      {font-family: Verdana, Sans-serif; font-style: italic;
               font-size: 12px;
               fill: #0D0D0D;
               }
               text.regexp           {font-family: Verdana, Sans-serif;
               font-size: 12px;
               fill: #0F0F0F;
               }
               rect, circle, polygon {fill: #1F1F1F; stroke: #1F1F1F;}
               rect.terminal         {fill: #CCCCCC; stroke: #1F1F1F;}
               rect.nonterminal      {fill: #E3E3E3; stroke: #1F1F1F;}
               rect.text             {fill: none; stroke: none;}    
               polygon.regexp        {fill: #EFEFEF; stroke: #1F1F1F;}
               
            </style>
         </defs>
         <polygon points="9 17 1 13 1 21"/>
         <polygon points="17 17 9 13 9 21"/>
         <rect x="31" y="3" width="66" height="32" rx="10"/>
         <rect x="29" y="1" width="66" height="32" class="terminal" rx="10"/>
         <text class="terminal" x="39" y="21">select(</text>
<!--     <a xmlns:xlink="http://www.w3.org/1999/xlink" xlink:href="#reads" xlink:title="reads"> -->
            <rect x="117" y="3" width="56" height="32"/>
            <rect x="115" y="1" width="56" height="32" class="nonterminal"/>
            <text class="nonterminal" x="125" y="21">reads</text>
<!--     </a> -->
         <rect x="193" y="3" width="24" height="32" rx="10"/>
         <rect x="191" y="1" width="24" height="32" class="terminal" rx="10"/>
         <text class="terminal" x="201" y="21">,</text>
<!--     <a xmlns:xlink="http://www.w3.org/1999/xlink" xlink:href="#writes" xlink:title="writes"> -->
            <rect x="237" y="3" width="58" height="32"/>
            <rect x="235" y="1" width="58" height="32" class="nonterminal"/>
            <text class="nonterminal" x="245" y="21">writes</text>
<!--     </a> -->
         <rect x="315" y="3" width="24" height="32" rx="10"/>
         <rect x="313" y="1" width="24" height="32" class="terminal" rx="10"/>
         <text class="terminal" x="323" y="21">,</text>
<!--     <a xmlns:xlink="http://www.w3.org/1999/xlink" xlink:href="#excepts" xlink:title="excepts"> -->
            <rect x="359" y="3" width="68" height="32"/>
            <rect x="357" y="1" width="68" height="32" class="nonterminal"/>
            <text class="nonterminal" x="367" y="21">excepts</text>
<!--     </a> -->
         <rect x="447" y="3" width="24" height="32" rx="10"/>
         <rect x="445" y="1" width="24" height="32" class="terminal" rx="10"/>
         <text class="terminal" x="455" y="21">,</text>
<!--     <a xmlns:xlink="http://www.w3.org/1999/xlink" xlink:href="#timeout" xlink:title="timeout"> -->
            <rect x="491" y="3" width="68" height="32"/>
            <rect x="489" y="1" width="68" height="32" class="nonterminal"/>
            <text class="nonterminal" x="499" y="21">timeout</text>
<!--     </a> -->
         <rect x="579" y="3" width="26" height="32" rx="10"/>
         <rect x="577" y="1" width="26" height="32" class="terminal" rx="10"/>
         <text class="terminal" x="587" y="21">)</text>
         <svg:path xmlns:svg="http://www.w3.org/2000/svg" class="line" d="m17 17 h2 m0 0 h10 m66 0 h10 m0 0 h10 m56 0 h10 m0 0 h10 m24 0 h10 m0 0 h10 m58 0 h10 m0 0 h10 m24 0 h10 m0 0 h10 m68 0 h10 m0 0 h10 m24 0 h10 m0 0 h10 m68 0 h10 m0 0 h10 m26 0 h10 m3 0 h-3"/>
         <polygon points="623 17 631 13 631 21"/>
         <polygon points="623 17 615 13 615 21"/>
      </svg>
