      <svg xmlns="http://www.w3.org/2000/svg" width="980" height="182">
         <defs>
            <style type="text/css">
               @namespace "http://www.w3.org/2000/svg";
               .line                 {fill: none; stroke: #1F1F1F;}
               .bold-line            {stroke: #0A0A0A; shape-rendering: crispEdges; stroke-width:
               2; }
               .thin-line            {stroke: #0F0F0F; shape-rendering: crispEdges}
               .filled               {fill: #1F1F1F; stroke: none;}
               text.terminal         {font-family: Verdana, Sans-serif;
               font-size: 12px;
               fill: #0A0A0A;
               font-weight: bold;
               }
               text.nonterminal      {font-family: Verdana, Sans-serif;
               font-size: 12px;
               fill: #0D0D0D;
               }
               text.regexp           {font-family: Verdana, Sans-serif;
               font-size: 12px;
               fill: #0F0F0F;
               }
               rect, circle, polygon {fill: #1F1F1F; stroke: #1F1F1F;}
               rect.terminal         {fill: #CCCCCC; stroke: #1F1F1F;}
               rect.nonterminal      {fill: #E3E3E3; stroke: #1F1F1F;}
               rect.text             {fill: none; stroke: none;}    
               polygon.regexp        {fill: #EFEFEF; stroke: #1F1F1F;}
               
            </style>
         </defs>
         <polygon points="9 17 1 13 1 21"/>
         <polygon points="17 17 9 13 9 21"/>
         <a xmlns:xlink="http://www.w3.org/1999/xlink" xlink:href="#evlog" xlink:title="evlog">
            <rect x="31" y="3" width="54" height="32"/>
            <rect x="29" y="1" width="54" height="32" class="nonterminal"/>
            <text class="nonterminal" x="39" y="21">evlog</text>
         </a>
         <rect x="105" y="3" width="30" height="32" rx="10"/>
         <rect x="103" y="1" width="30" height="32" class="terminal" rx="10"/>
         <text class="terminal" x="113" y="21">~</text>
         <rect x="155" y="3" width="60" height="32" rx="10"/>
         <rect x="153" y="1" width="60" height="32" class="terminal" rx="10"/>
         <text class="terminal" x="163" y="21">clear(</text>
         <a xmlns:xlink="http://www.w3.org/1999/xlink" xlink:href="#srvr" xlink:title="srvr">
            <rect x="255" y="3" width="44" height="32"/>
            <rect x="253" y="1" width="44" height="32" class="nonterminal"/>
            <text class="nonterminal" x="263" y="21">srvr</text>
         </a>
         <rect x="339" y="3" width="24" height="32" rx="10"/>
         <rect x="337" y="1" width="24" height="32" class="terminal" rx="10"/>
         <text class="terminal" x="347" y="21">,</text>
         <a xmlns:xlink="http://www.w3.org/1999/xlink" xlink:href="#src" xlink:title="src">
            <rect x="403" y="3" width="38" height="32"/>
            <rect x="401" y="1" width="38" height="32" class="nonterminal"/>
            <text class="nonterminal" x="411" y="21">src</text>
         </a>
         <rect x="501" y="3" width="24" height="32" rx="10"/>
         <rect x="499" y="1" width="24" height="32" class="terminal" rx="10"/>
         <text class="terminal" x="509" y="21">,</text>
         <a xmlns:xlink="http://www.w3.org/1999/xlink" xlink:href="#type" xlink:title="type">
            <rect x="565" y="3" width="48" height="32"/>
            <rect x="563" y="1" width="48" height="32" class="nonterminal"/>
            <text class="nonterminal" x="573" y="21">type</text>
         </a>
         <rect x="673" y="3" width="24" height="32" rx="10"/>
         <rect x="671" y="1" width="24" height="32" class="terminal" rx="10"/>
         <text class="terminal" x="681" y="21">,</text>
         <a xmlns:xlink="http://www.w3.org/1999/xlink" xlink:href="#backupFileName" xlink:title="backupFileName">
            <rect x="737" y="3" width="122" height="32"/>
            <rect x="735" y="1" width="122" height="32" class="nonterminal"/>
            <text class="nonterminal" x="745" y="21">backupFileName</text>
         </a>
         <rect x="927" y="149" width="26" height="32" rx="10"/>
         <rect x="925" y="147" width="26" height="32" class="terminal" rx="10"/>
         <text class="terminal" x="935" y="167">)</text>
         <svg:path xmlns:svg="http://www.w3.org/2000/svg" class="line" d="m17 17 h2 m0 0 h10 m54 0 h10 m0 0 h10 m30 0 h10 m0 0 h10 m60 0 h10 m20 0 h10 m44 0 h10 m20 0 h10 m24 0 h10 m20 0 h10 m38 0 h10 m-78 0 h20 m58 0 h20 m-98 0 q10 0 10 10 m78 0 q0 -10 10 -10 m-88 10 v14 m78 0 v-14 m-78 14 q0 10 10 10 m58 0 q10 0 10 -10 m-68 10 h10 m0 0 h48 m40 -34 h10 m24 0 h10 m20 0 h10 m48 0 h10 m-88 0 h20 m68 0 h20 m-108 0 q10 0 10 10 m88 0 q0 -10 10 -10 m-98 10 v14 m88 0 v-14 m-88 14 q0 10 10 10 m68 0 q10 0 10 -10 m-78 10 h10 m0 0 h58 m40 -34 h10 m24 0 h10 m20 0 h10 m122 0 h10 m-162 0 h20 m142 0 h20 m-182 0 q10 0 10 10 m162 0 q0 -10 10 -10 m-172 10 v14 m162 0 v-14 m-162 14 q0 10 10 10 m142 0 q10 0 10 -10 m-152 10 h10 m0 0 h132 m-226 -34 h20 m226 0 h20 m-266 0 q10 0 10 10 m246 0 q0 -10 10 -10 m-256 10 v30 m246 0 v-30 m-246 30 q0 10 10 10 m226 0 q10 0 10 -10 m-236 10 h10 m0 0 h216 m-418 -50 h20 m418 0 h20 m-458 0 q10 0 10 10 m438 0 q0 -10 10 -10 m-448 10 v46 m438 0 v-46 m-438 46 q0 10 10 10 m418 0 q10 0 10 -10 m-428 10 h10 m0 0 h408 m-600 -66 h20 m600 0 h20 m-640 0 q10 0 10 10 m620 0 q0 -10 10 -10 m-630 10 v62 m620 0 v-62 m-620 62 q0 10 10 10 m600 0 q10 0 10 -10 m-610 10 h10 m0 0 h590 m-704 -82 h20 m704 0 h20 m-744 0 q10 0 10 10 m724 0 q0 -10 10 -10 m-734 10 v78 m724 0 v-78 m-724 78 q0 10 10 10 m704 0 q10 0 10 -10 m-714 10 h10 m0 0 h694 m22 -98 l2 0 m2 0 l2 0 m2 0 l2 0 m-76 146 l2 0 m2 0 l2 0 m2 0 l2 0 m2 0 h10 m26 0 h10 m3 0 h-3"/>
         <polygon points="971 163 979 159 979 167"/>
         <polygon points="971 163 963 159 963 167"/>
      </svg>
