      <svg xmlns="http://www.w3.org/2000/svg" width="1184" height="280">
         <defs>
            <style type="text/css">
               @namespace "http://www.w3.org/2000/svg";
               .line                 {fill: none; stroke: #1F1F1F;}
               .bold-line            {stroke: #0A0A0A; shape-rendering: crispEdges; stroke-width:
               2; }
               .thin-line            {stroke: #0F0F0F; shape-rendering: crispEdges}
               .filled               {fill: #1F1F1F; stroke: none;}
               text.terminal         {font-family: Verdana, Sans-serif;
               font-size: 12px;
               fill: #0A0A0A;
               font-weight: bold;
               }
               text.nonterminal      {font-family: Verdana, Sans-serif;
               font-size: 12px;
               fill: #0D0D0D;
               }
               text.regexp           {font-family: Verdana, Sans-serif;
               font-size: 12px;
               fill: #0F0F0F;
               }
               rect, circle, polygon {fill: #1F1F1F; stroke: #1F1F1F;}
               rect.terminal         {fill: #CCCCCC; stroke: #1F1F1F;}
               rect.nonterminal      {fill: #E3E3E3; stroke: #1F1F1F;}
               rect.text             {fill: none; stroke: none;}    
               polygon.regexp        {fill: #EFEFEF; stroke: #1F1F1F;}
               
            </style>
         </defs>
         <polygon points="9 17 1 13 1 21"/>
         <polygon points="17 17 9 13 9 21"/>
         <a xmlns:xlink="http://www.w3.org/1999/xlink" xlink:href="#evlog" xlink:title="evlog">
            <rect x="31" y="3" width="54" height="32"/>
            <rect x="29" y="1" width="54" height="32" class="nonterminal"/>
            <text class="nonterminal" x="39" y="21">evlog</text>
         </a>
         <rect x="105" y="3" width="30" height="32" rx="10"/>
         <rect x="103" y="1" width="30" height="32" class="terminal" rx="10"/>
         <text class="terminal" x="113" y="21">~</text>
         <rect x="155" y="3" width="62" height="32" rx="10"/>
         <rect x="153" y="1" width="62" height="32" class="terminal" rx="10"/>
         <text class="terminal" x="163" y="21">write(</text>
         <a xmlns:xlink="http://www.w3.org/1999/xlink" xlink:href="#srvr" xlink:title="srvr">
            <rect x="237" y="3" width="44" height="32"/>
            <rect x="235" y="1" width="44" height="32" class="nonterminal"/>
            <text class="nonterminal" x="245" y="21">srvr</text>
         </a>
         <rect x="45" y="85" width="24" height="32" rx="10"/>
         <rect x="43" y="83" width="24" height="32" class="terminal" rx="10"/>
         <text class="terminal" x="53" y="103">,</text>
         <a xmlns:xlink="http://www.w3.org/1999/xlink" xlink:href="#src" xlink:title="src">
            <rect x="109" y="85" width="38" height="32"/>
            <rect x="107" y="83" width="38" height="32" class="nonterminal"/>
            <text class="nonterminal" x="117" y="103">src</text>
         </a>
         <rect x="207" y="85" width="24" height="32" rx="10"/>
         <rect x="205" y="83" width="24" height="32" class="terminal" rx="10"/>
         <text class="terminal" x="215" y="103">,</text>
         <a xmlns:xlink="http://www.w3.org/1999/xlink" xlink:href="#type" xlink:title="type">
            <rect x="271" y="85" width="48" height="32"/>
            <rect x="269" y="83" width="48" height="32" class="nonterminal"/>
            <text class="nonterminal" x="279" y="103">type</text>
         </a>
         <rect x="379" y="85" width="24" height="32" rx="10"/>
         <rect x="377" y="83" width="24" height="32" class="terminal" rx="10"/>
         <text class="terminal" x="387" y="103">,</text>
         <a xmlns:xlink="http://www.w3.org/1999/xlink" xlink:href="#category" xlink:title="category">
            <rect x="443" y="85" width="74" height="32"/>
            <rect x="441" y="83" width="74" height="32" class="nonterminal"/>
            <text class="nonterminal" x="451" y="103">category</text>
         </a>
         <rect x="577" y="85" width="24" height="32" rx="10"/>
         <rect x="575" y="83" width="24" height="32" class="terminal" rx="10"/>
         <text class="terminal" x="585" y="103">,</text>
         <a xmlns:xlink="http://www.w3.org/1999/xlink" xlink:href="#id" xlink:title="id">
            <rect x="641" y="85" width="30" height="32"/>
            <rect x="639" y="83" width="30" height="32" class="nonterminal"/>
            <text class="nonterminal" x="649" y="103">id</text>
         </a>
         <rect x="731" y="85" width="24" height="32" rx="10"/>
         <rect x="729" y="83" width="24" height="32" class="terminal" rx="10"/>
         <text class="terminal" x="739" y="103">,</text>
         <a xmlns:xlink="http://www.w3.org/1999/xlink" xlink:href="#data" xlink:title="data">
            <rect x="795" y="85" width="48" height="32"/>
            <rect x="793" y="83" width="48" height="32" class="nonterminal"/>
            <text class="nonterminal" x="803" y="103">data</text>
         </a>
         <rect x="923" y="85" width="24" height="32" rx="10"/>
         <rect x="921" y="83" width="24" height="32" class="terminal" rx="10"/>
         <text class="terminal" x="931" y="103">,</text>
         <a xmlns:xlink="http://www.w3.org/1999/xlink" xlink:href="#string" xlink:title="string">
            <rect x="967" y="85" width="56" height="32"/>
            <rect x="965" y="83" width="56" height="32" class="nonterminal"/>
            <text class="nonterminal" x="975" y="103">string</text>
         </a>
         <rect x="1131" y="247" width="26" height="32" rx="10"/>
         <rect x="1129" y="245" width="26" height="32" class="terminal" rx="10"/>
         <text class="terminal" x="1139" y="265">)</text>
         <svg:path xmlns:svg="http://www.w3.org/2000/svg" class="line" d="m17 17 h2 m0 0 h10 m54 0 h10 m0 0 h10 m30 0 h10 m0 0 h10 m62 0 h10 m0 0 h10 m44 0 h10 m2 0 l2 0 m2 0 l2 0 m2 0 l2 0 m-300 82 l2 0 m2 0 l2 0 m2 0 l2 0 m22 0 h10 m24 0 h10 m20 0 h10 m38 0 h10 m-78 0 h20 m58 0 h20 m-98 0 q10 0 10 10 m78 0 q0 -10 10 -10 m-88 10 v14 m78 0 v-14 m-78 14 q0 10 10 10 m58 0 q10 0 10 -10 m-68 10 h10 m0 0 h48 m40 -34 h10 m24 0 h10 m20 0 h10 m48 0 h10 m-88 0 h20 m68 0 h20 m-108 0 q10 0 10 10 m88 0 q0 -10 10 -10 m-98 10 v14 m88 0 v-14 m-88 14 q0 10 10 10 m68 0 q10 0 10 -10 m-78 10 h10 m0 0 h58 m40 -34 h10 m24 0 h10 m20 0 h10 m74 0 h10 m-114 0 h20 m94 0 h20 m-134 0 q10 0 10 10 m114 0 q0 -10 10 -10 m-124 10 v14 m114 0 v-14 m-114 14 q0 10 10 10 m94 0 q10 0 10 -10 m-104 10 h10 m0 0 h84 m40 -34 h10 m24 0 h10 m20 0 h10 m30 0 h10 m-70 0 h20 m50 0 h20 m-90 0 q10 0 10 10 m70 0 q0 -10 10 -10 m-80 10 v14 m70 0 v-14 m-70 14 q0 10 10 10 m50 0 q10 0 10 -10 m-60 10 h10 m0 0 h40 m40 -34 h10 m24 0 h10 m20 0 h10 m48 0 h10 m-88 0 h20 m68 0 h20 m-108 0 q10 0 10 10 m88 0 q0 -10 10 -10 m-98 10 v14 m88 0 v-14 m-88 14 q0 10 10 10 m68 0 q10 0 10 -10 m-78 10 h10 m0 0 h58 m60 -34 h10 m24 0 h10 m0 0 h10 m56 0 h10 m-140 0 l20 0 m-1 0 q-9 0 -9 -10 l0 -12 q0 -10 10 -10 m120 32 l20 0 m-20 0 q10 0 10 -10 l0 -12 q0 -10 -10 -10 m-120 0 h10 m0 0 h110 m-160 32 h20 m160 0 h20 m-200 0 q10 0 10 10 m180 0 q0 -10 10 -10 m-190 10 v14 m180 0 v-14 m-180 14 q0 10 10 10 m160 0 q10 0 10 -10 m-170 10 h10 m0 0 h150 m-352 -34 h20 m352 0 h20 m-392 0 q10 0 10 10 m372 0 q0 -10 10 -10 m-382 10 v30 m372 0 v-30 m-372 30 q0 10 10 10 m352 0 q10 0 10 -10 m-362 10 h10 m0 0 h342 m-526 -50 h20 m526 0 h20 m-566 0 q10 0 10 10 m546 0 q0 -10 10 -10 m-556 10 v46 m546 0 v-46 m-546 46 q0 10 10 10 m526 0 q10 0 10 -10 m-536 10 h10 m0 0 h516 m-744 -66 h20 m744 0 h20 m-784 0 q10 0 10 10 m764 0 q0 -10 10 -10 m-774 10 v62 m764 0 v-62 m-764 62 q0 10 10 10 m744 0 q10 0 10 -10 m-754 10 h10 m0 0 h734 m-936 -82 h20 m936 0 h20 m-976 0 q10 0 10 10 m956 0 q0 -10 10 -10 m-966 10 v78 m956 0 v-78 m-956 78 q0 10 10 10 m936 0 q10 0 10 -10 m-946 10 h10 m0 0 h926 m-1118 -98 h20 m1118 0 h20 m-1158 0 q10 0 10 10 m1138 0 q0 -10 10 -10 m-1148 10 v94 m1138 0 v-94 m-1138 94 q0 10 10 10 m1118 0 q10 0 10 -10 m-1128 10 h10 m0 0 h1108 m22 -114 l2 0 m2 0 l2 0 m2 0 l2 0 m-76 162 l2 0 m2 0 l2 0 m2 0 l2 0 m2 0 h10 m26 0 h10 m3 0 h-3"/>
         <polygon points="1175 261 1183 257 1183 265"/>
         <polygon points="1175 261 1167 257 1167 265"/>
      </svg>
