      <svg xmlns="http://www.w3.org/2000/svg" width="962" height="264">
         <defs>
            <style type="text/css">
               @namespace "http://www.w3.org/2000/svg";
               .line                 {fill: none; stroke: #1F1F1F;}
               .bold-line            {stroke: #0A0A0A; shape-rendering: crispEdges; stroke-width:
               2; }
               .thin-line            {stroke: #0F0F0F; shape-rendering: crispEdges}
               .filled               {fill: #1F1F1F; stroke: none;}
               text.terminal         {font-family: Verdana, Sans-serif;
               font-size: 12px;
               fill: #0A0A0A;
               font-weight: bold;
               }
               text.nonterminal      {font-family: Verdana, Sans-serif;
               font-size: 12px;
               fill: #0D0D0D;
               }
               text.regexp           {font-family: Verdana, Sans-serif;
               font-size: 12px;
               fill: #0F0F0F;
               }
               rect, circle, polygon {fill: #1F1F1F; stroke: #1F1F1F;}
               rect.terminal         {fill: #CCCCCC; stroke: #1F1F1F;}
               rect.nonterminal      {fill: #E3E3E3; stroke: #1F1F1F;}
               rect.text             {fill: none; stroke: none;}    
               polygon.regexp        {fill: #EFEFEF; stroke: #1F1F1F;}
               
            </style>
         </defs>
         <polygon points="9 17 1 13 1 21"/>
         <polygon points="17 17 9 13 9 21"/>
         <a xmlns:xlink="http://www.w3.org/1999/xlink" xlink:href="#evlog" xlink:title="evlog">
            <rect x="31" y="3" width="54" height="32"/>
            <rect x="29" y="1" width="54" height="32" class="nonterminal"/>
            <text class="nonterminal" x="39" y="21">evlog</text>
         </a>
         <rect x="105" y="3" width="30" height="32" rx="10"/>
         <rect x="103" y="1" width="30" height="32" class="terminal" rx="10"/>
         <text class="terminal" x="113" y="21">~</text>
         <rect x="155" y="3" width="110" height="32" rx="10"/>
         <rect x="153" y="1" width="110" height="32" class="terminal" rx="10"/>
         <text class="terminal" x="163" y="21">readRecords(</text>
         <a xmlns:xlink="http://www.w3.org/1999/xlink" xlink:href="#direction" xlink:title="direction">
            <rect x="45" y="69" width="74" height="32"/>
            <rect x="43" y="67" width="74" height="32" class="nonterminal"/>
            <text class="nonterminal" x="53" y="87">direction</text>
         </a>
         <rect x="159" y="69" width="24" height="32" rx="10"/>
         <rect x="157" y="67" width="24" height="32" class="terminal" rx="10"/>
         <text class="terminal" x="167" y="87">,</text>
         <a xmlns:xlink="http://www.w3.org/1999/xlink" xlink:href="#server" xlink:title="server">
            <rect x="223" y="69" width="60" height="32"/>
            <rect x="221" y="67" width="60" height="32" class="nonterminal"/>
            <text class="nonterminal" x="231" y="87">server</text>
         </a>
         <rect x="343" y="69" width="24" height="32" rx="10"/>
         <rect x="341" y="67" width="24" height="32" class="terminal" rx="10"/>
         <text class="terminal" x="351" y="87">,</text>
         <a xmlns:xlink="http://www.w3.org/1999/xlink" xlink:href="#source" xlink:title="source">
            <rect x="407" y="69" width="62" height="32"/>
            <rect x="405" y="67" width="62" height="32" class="nonterminal"/>
            <text class="nonterminal" x="415" y="87">source</text>
         </a>
         <rect x="529" y="69" width="24" height="32" rx="10"/>
         <rect x="527" y="67" width="24" height="32" class="terminal" rx="10"/>
         <text class="terminal" x="537" y="87">,</text>
         <a xmlns:xlink="http://www.w3.org/1999/xlink" xlink:href="#start" xlink:title="start">
            <rect x="593" y="69" width="50" height="32"/>
            <rect x="591" y="67" width="50" height="32" class="nonterminal"/>
            <text class="nonterminal" x="601" y="87">start</text>
         </a>
         <rect x="703" y="69" width="24" height="32" rx="10"/>
         <rect x="701" y="67" width="24" height="32" class="terminal" rx="10"/>
         <text class="terminal" x="711" y="87">,</text>
         <a xmlns:xlink="http://www.w3.org/1999/xlink" xlink:href="#count" xlink:title="count">
            <rect x="767" y="69" width="54" height="32"/>
            <rect x="765" y="67" width="54" height="32" class="nonterminal"/>
            <text class="nonterminal" x="775" y="87">count</text>
         </a>
         <rect x="909" y="231" width="26" height="32" rx="10"/>
         <rect x="907" y="229" width="26" height="32" class="terminal" rx="10"/>
         <text class="terminal" x="917" y="249">)</text>
         <svg:path xmlns:svg="http://www.w3.org/2000/svg" class="line" d="m17 17 h2 m0 0 h10 m54 0 h10 m0 0 h10 m30 0 h10 m0 0 h10 m110 0 h10 m2 0 l2 0 m2 0 l2 0 m2 0 l2 0 m-284 66 l2 0 m2 0 l2 0 m2 0 l2 0 m22 0 h10 m74 0 h10 m20 0 h10 m24 0 h10 m20 0 h10 m60 0 h10 m-100 0 h20 m80 0 h20 m-120 0 q10 0 10 10 m100 0 q0 -10 10 -10 m-110 10 v14 m100 0 v-14 m-100 14 q0 10 10 10 m80 0 q10 0 10 -10 m-90 10 h10 m0 0 h70 m40 -34 h10 m24 0 h10 m20 0 h10 m62 0 h10 m-102 0 h20 m82 0 h20 m-122 0 q10 0 10 10 m102 0 q0 -10 10 -10 m-112 10 v14 m102 0 v-14 m-102 14 q0 10 10 10 m82 0 q10 0 10 -10 m-92 10 h10 m0 0 h72 m40 -34 h10 m24 0 h10 m20 0 h10 m50 0 h10 m-90 0 h20 m70 0 h20 m-110 0 q10 0 10 10 m90 0 q0 -10 10 -10 m-100 10 v14 m90 0 v-14 m-90 14 q0 10 10 10 m70 0 q10 0 10 -10 m-80 10 h10 m0 0 h60 m40 -34 h10 m24 0 h10 m20 0 h10 m54 0 h10 m-94 0 h20 m74 0 h20 m-114 0 q10 0 10 10 m94 0 q0 -10 10 -10 m-104 10 v14 m94 0 v-14 m-94 14 q0 10 10 10 m74 0 q10 0 10 -10 m-84 10 h10 m0 0 h64 m-158 -34 h20 m158 0 h20 m-198 0 q10 0 10 10 m178 0 q0 -10 10 -10 m-188 10 v30 m178 0 v-30 m-178 30 q0 10 10 10 m158 0 q10 0 10 -10 m-168 10 h10 m0 0 h148 m-352 -50 h20 m352 0 h20 m-392 0 q10 0 10 10 m372 0 q0 -10 10 -10 m-382 10 v46 m372 0 v-46 m-372 46 q0 10 10 10 m352 0 q10 0 10 -10 m-362 10 h10 m0 0 h342 m-558 -66 h20 m558 0 h20 m-598 0 q10 0 10 10 m578 0 q0 -10 10 -10 m-588 10 v62 m578 0 v-62 m-578 62 q0 10 10 10 m558 0 q10 0 10 -10 m-568 10 h10 m0 0 h548 m-762 -82 h20 m762 0 h20 m-802 0 q10 0 10 10 m782 0 q0 -10 10 -10 m-792 10 v78 m782 0 v-78 m-782 78 q0 10 10 10 m762 0 q10 0 10 -10 m-772 10 h10 m0 0 h752 m-896 -98 h20 m896 0 h20 m-936 0 q10 0 10 10 m916 0 q0 -10 10 -10 m-926 10 v94 m916 0 v-94 m-916 94 q0 10 10 10 m896 0 q10 0 10 -10 m-906 10 h10 m0 0 h886 m22 -114 l2 0 m2 0 l2 0 m2 0 l2 0 m-76 162 l2 0 m2 0 l2 0 m2 0 l2 0 m2 0 h10 m26 0 h10 m3 0 h-3"/>
         <polygon points="953 245 961 241 961 249"/>
         <polygon points="953 245 945 241 945 249"/>
      </svg>
