      <svg xmlns="http://www.w3.org/2000/svg" width="608" height="100">
         <defs>
            <style type="text/css">
               @namespace "http://www.w3.org/2000/svg";
               .line                 {fill: none; stroke: #1F1F1F;}
               .bold-line            {stroke: #0A0A0A; shape-rendering: crispEdges; stroke-width:
               2; }
               .thin-line            {stroke: #0F0F0F; shape-rendering: crispEdges}
               .filled               {fill: #1F1F1F; stroke: none;}
               text.terminal         {font-family: Verdana, Sans-serif;
               font-size: 12px;
               fill: #0A0A0A;
               font-weight: bold;
               }
               text.nonterminal      {font-family: Verdana, Sans-serif; font-style: italic;
               font-size: 12px;
               fill: #0D0D0D;
               }
               text.regexp           {font-family: Verdana, Sans-serif;
               font-size: 12px;
               fill: #0F0F0F;
               }
               rect, circle, polygon {fill: #1F1F1F; stroke: #1F1F1F;}
               rect.terminal         {fill: #CCCCCC; stroke: #1F1F1F;}
               rect.nonterminal      {fill: #E3E3E3; stroke: #1F1F1F;}
               rect.text             {fill: none; stroke: none;}    
               polygon.regexp        {fill: #EFEFEF; stroke: #1F1F1F;}
               
            </style>
         </defs>
         <polygon points="9 17 1 13 1 21"/>
         <polygon points="17 17 9 13 9 21"/>
         <rect x="31" y="3" width="82" height="32" rx="10"/>
         <rect x="29" y="1" width="82" height="32" class="terminal" rx="10"/>
         <text class="terminal" x="39" y="21">sendKey(</text>
<!--     <a xmlns:xlink="http://www.w3.org/1999/xlink" xlink:href="#keyName" xlink:title="keyName"> -->
            <rect x="133" y="3" width="78" height="32"/>
            <rect x="131" y="1" width="78" height="32" class="nonterminal"/>
            <text class="nonterminal" x="141" y="21">keyName</text>
<!--     </a> -->
         <rect x="251" y="35" width="24" height="32" rx="10"/>
         <rect x="249" y="33" width="24" height="32" class="terminal" rx="10"/>
         <text class="terminal" x="259" y="53">,</text>
<!--     <a xmlns:xlink="http://www.w3.org/1999/xlink" xlink:href="#alt" xlink:title="alt"> -->
            <rect x="315" y="67" width="36" height="32"/>
            <rect x="313" y="65" width="36" height="32" class="nonterminal"/>
            <text class="nonterminal" x="323" y="85">alt</text>
<!--     </a> -->
         <rect x="411" y="67" width="24" height="32" rx="10"/>
         <rect x="409" y="65" width="24" height="32" class="terminal" rx="10"/>
         <text class="terminal" x="419" y="85">,</text>
<!--     <a xmlns:xlink="http://www.w3.org/1999/xlink" xlink:href="#ext" xlink:title="ext"> -->
            <rect x="455" y="67" width="40" height="32"/>
            <rect x="453" y="65" width="40" height="32" class="nonterminal"/>
            <text class="nonterminal" x="463" y="85">ext</text>
<!--     </a> -->
         <rect x="555" y="3" width="26" height="32" rx="10"/>
         <rect x="553" y="1" width="26" height="32" class="terminal" rx="10"/>
         <text class="terminal" x="563" y="21">)</text>
         <svg:path xmlns:svg="http://www.w3.org/2000/svg" class="line" d="m17 17 h2 m0 0 h10 m82 0 h10 m0 0 h10 m78 0 h10 m20 0 h10 m0 0 h274 m-304 0 h20 m284 0 h20 m-324 0 q10 0 10 10 m304 0 q0 -10 10 -10 m-314 10 v12 m304 0 v-12 m-304 12 q0 10 10 10 m284 0 q10 0 10 -10 m-294 10 h10 m24 0 h10 m20 0 h10 m0 0 h46 m-76 0 h20 m56 0 h20 m-96 0 q10 0 10 10 m76 0 q0 -10 10 -10 m-86 10 v12 m76 0 v-12 m-76 12 q0 10 10 10 m56 0 q10 0 10 -10 m-66 10 h10 m36 0 h10 m40 -32 h10 m0 0 h94 m-124 0 h20 m104 0 h20 m-144 0 q10 0 10 10 m124 0 q0 -10 10 -10 m-134 10 v12 m124 0 v-12 m-124 12 q0 10 10 10 m104 0 q10 0 10 -10 m-114 10 h10 m24 0 h10 m0 0 h10 m40 0 h10 m40 -64 h10 m26 0 h10 m3 0 h-3"/>
         <polygon points="599 17 607 13 607 21"/>
         <polygon points="599 17 591 13 591 21"/>
      </svg>
