      <svg xmlns="http://www.w3.org/2000/svg" width="832" height="118">
         <defs>
            <style type="text/css">
               @namespace "http://www.w3.org/2000/svg";
               .line                 {fill: none; stroke: #1F1F1F;}
               .bold-line            {stroke: #0A0A0A; shape-rendering: crispEdges; stroke-width:
               2; }
               .thin-line            {stroke: #0F0F0F; shape-rendering: crispEdges}
               .filled               {fill: #1F1F1F; stroke: none;}
               text.terminal         {font-family: Verdana, Sans-serif;
               font-size: 12px;
               fill: #0A0A0A;
               font-weight: bold;
               }
               text.nonterminal      {font-family: Verdana, Sans-serif; font-style: italic;
               font-size: 12px;
               fill: #0D0D0D;
               }
               text.regexp           {font-family: Verdana, Sans-serif;
               font-size: 12px;
               fill: #0F0F0F;
               }
               rect, circle, polygon {fill: #1F1F1F; stroke: #1F1F1F;}
               rect.terminal         {fill: #CCCCCC; stroke: #1F1F1F;}
               rect.nonterminal      {fill: #E3E3E3; stroke: #1F1F1F;}
               rect.text             {fill: none; stroke: none;}    
               polygon.regexp        {fill: #EFEFEF; stroke: #1F1F1F;}
               
            </style>
         </defs>
         <polygon points="9 51 1 47 1 55"/>
         <polygon points="17 51 9 47 9 55"/>
<!--     <a xmlns:xlink="http://www.w3.org/1999/xlink" xlink:href="#receiver" xlink:title="receiver"> -->
            <rect x="31" y="37" width="66" height="32"/>
            <rect x="29" y="35" width="66" height="32" class="nonterminal"/>
            <text class="nonterminal" x="39" y="55">receiver</text>
<!--     </a> -->
         <rect x="137" y="37" width="30" height="32" rx="10"/>
         <rect x="135" y="35" width="30" height="32" class="terminal" rx="10"/>
         <text class="terminal" x="145" y="55">~</text>
         <rect x="137" y="81" width="40" height="32" rx="10"/>
         <rect x="135" y="79" width="40" height="32" class="terminal" rx="10"/>
         <text class="terminal" x="145" y="99">~~</text>
<!--     <a xmlns:xlink="http://www.w3.org/1999/xlink" xlink:href="#messagename" xlink:title="messagename"> -->
            <rect x="217" y="37" width="106" height="32"/>
            <rect x="215" y="35" width="106" height="32" class="nonterminal"/>
            <text class="nonterminal" x="225" y="55">messagename</text>
<!--     </a> -->
         <rect x="363" y="69" width="24" height="32" rx="10"/>
         <rect x="361" y="67" width="24" height="32" class="terminal" rx="10"/>
         <text class="terminal" x="371" y="87">:</text>
<!--     <a xmlns:xlink="http://www.w3.org/1999/xlink" xlink:href="#symbol" xlink:title="symbol"> -->
            <rect x="407" y="69" width="62" height="32"/>
            <rect x="405" y="67" width="62" height="32" class="nonterminal"/>
            <text class="nonterminal" x="415" y="87">symbol</text>
<!--     </a> -->
         <rect x="529" y="37" width="26" height="32" rx="10"/>
         <rect x="527" y="35" width="26" height="32" class="terminal" rx="10"/>
         <text class="terminal" x="537" y="55">(</text>
<!--     <a xmlns:xlink="http://www.w3.org/1999/xlink" xlink:href="#expression" xlink:title="expression"> -->
            <rect x="615" y="69" width="84" height="32"/>
            <rect x="613" y="67" width="84" height="32" class="nonterminal"/>
            <text class="nonterminal" x="623" y="87">expression</text>
<!--     </a> -->
         <rect x="595" y="3" width="24" height="32" rx="10"/>
         <rect x="593" y="1" width="24" height="32" class="terminal" rx="10"/>
         <text class="terminal" x="603" y="21">,</text>
         <rect x="759" y="37" width="26" height="32" rx="10"/>
         <rect x="757" y="35" width="26" height="32" class="terminal" rx="10"/>
         <text class="terminal" x="767" y="55">)</text>
         <svg:path xmlns:svg="http://www.w3.org/2000/svg" class="line" d="m17 51 h2 m0 0 h10 m66 0 h10 m20 0 h10 m30 0 h10 m0 0 h10 m-80 0 h20 m60 0 h20 m-100 0 q10 0 10 10 m80 0 q0 -10 10 -10 m-90 10 v24 m80 0 v-24 m-80 24 q0 10 10 10 m60 0 q10 0 10 -10 m-70 10 h10 m40 0 h10 m20 -44 h10 m106 0 h10 m20 0 h10 m0 0 h116 m-146 0 h20 m126 0 h20 m-166 0 q10 0 10 10 m146 0 q0 -10 10 -10 m-156 10 v12 m146 0 v-12 m-146 12 q0 10 10 10 m126 0 q10 0 10 -10 m-136 10 h10 m24 0 h10 m0 0 h10 m62 0 h10 m40 -32 h10 m26 0 h10 m40 0 h10 m0 0 h94 m-124 0 h20 m104 0 h20 m-144 0 q10 0 10 10 m124 0 q0 -10 10 -10 m-134 10 v12 m124 0 v-12 m-124 12 q0 10 10 10 m104 0 q10 0 10 -10 m-114 10 h10 m84 0 h10 m-144 -32 l20 0 m-1 0 q-9 0 -9 -10 l0 -14 q0 -10 10 -10 m144 34 l20 0 m-20 0 q10 0 10 -10 l0 -14 q0 -10 -10 -10 m-144 0 h10 m24 0 h10 m0 0 h100 m20 34 h10 m26 0 h10 m-296 0 h20 m276 0 h20 m-316 0 q10 0 10 10 m296 0 q0 -10 10 -10 m-306 10 v46 m296 0 v-46 m-296 46 q0 10 10 10 m276 0 q10 0 10 -10 m-286 10 h10 m0 0 h266 m23 -66 h-3"/>
         <polygon points="823 51 831 47 831 55"/>
         <polygon points="823 51 815 47 815 55"/>
      </svg>
