      <svg xmlns="http://www.w3.org/2000/svg" width="832" height="168">
         <defs>
            <style type="text/css">
               @namespace "http://www.w3.org/2000/svg";
               .line                 {fill: none; stroke: #1F1F1F;}
               .bold-line            {stroke: #0A0A0A; shape-rendering: crispEdges; stroke-width:
               2; }
               .thin-line            {stroke: #0F0F0F; shape-rendering: crispEdges}
               .filled               {fill: #1F1F1F; stroke: none;}
               text.terminal         {font-family: Verdana, Sans-serif;
               font-size: 12px;
               fill: #0A0A0A;
               font-weight: bold;
               }
               text.nonterminal      {font-family: Verdana, Sans-serif; font-style: italic;
               font-size: 12px;
               fill: #0D0D0D;
               }
               text.regexp           {font-family: Verdana, Sans-serif;
               font-size: 12px;
               fill: #0F0F0F;
               }
               rect, circle, polygon {fill: #1F1F1F; stroke: #1F1F1F;}
               rect.terminal         {fill: #CCCCCC; stroke: #1F1F1F;}
               rect.nonterminal      {fill: #E3E3E3; stroke: #1F1F1F;}
               rect.text             {fill: none; stroke: none;}    
               polygon.regexp        {fill: #EFEFEF; stroke: #1F1F1F;}
               
            </style>
         </defs>
         <polygon points="9 17 1 13 1 21"/>
         <polygon points="17 17 9 13 9 21"/>
<!--     <a xmlns:xlink="http://www.w3.org/1999/xlink" xlink:href="#whitespace" xlink:title="whitespace"> -->
            <rect x="51" y="3" width="92" height="32"/>
            <rect x="49" y="1" width="92" height="32" class="nonterminal"/>
            <text class="nonterminal" x="59" y="21">whitespace</text>
<!--     </a> -->
<!--     <a xmlns:xlink="http://www.w3.org/1999/xlink" xlink:href="#sign" xlink:title="sign"> -->
            <rect x="203" y="3" width="46" height="32"/>
            <rect x="201" y="1" width="46" height="32" class="nonterminal"/>
            <text class="nonterminal" x="211" y="21">sign</text>
<!--     </a> -->
<!--     <a xmlns:xlink="http://www.w3.org/1999/xlink" xlink:href="#whitespace" xlink:title="whitespace"> -->
            <rect x="289" y="3" width="92" height="32"/>
            <rect x="287" y="1" width="92" height="32" class="nonterminal"/>
            <text class="nonterminal" x="297" y="21">whitespace</text>
<!--     </a> -->
<!--     <a xmlns:xlink="http://www.w3.org/1999/xlink" xlink:href="#digits" xlink:title="digits"> -->
            <rect x="461" y="3" width="54" height="32"/>
            <rect x="459" y="1" width="54" height="32" class="nonterminal"/>
            <text class="nonterminal" x="469" y="21">digits</text>
<!--     </a> -->
<!--     <a xmlns:xlink="http://www.w3.org/1999/xlink" xlink:href="#digits" xlink:title="digits"> -->
            <rect x="461" y="47" width="54" height="32"/>
            <rect x="459" y="45" width="54" height="32" class="nonterminal"/>
            <text class="nonterminal" x="469" y="65">digits</text>
<!--     </a> -->
         <rect x="535" y="47" width="24" height="32" rx="10"/>
         <rect x="533" y="45" width="24" height="32" class="terminal" rx="10"/>
         <text class="terminal" x="543" y="65">.</text>
<!--     <a xmlns:xlink="http://www.w3.org/1999/xlink" xlink:href="#digits" xlink:title="digits"> -->
            <rect x="579" y="47" width="54" height="32"/>
            <rect x="577" y="45" width="54" height="32" class="nonterminal"/>
            <text class="nonterminal" x="587" y="65">digits</text>
<!--     </a> -->
         <rect x="461" y="91" width="24" height="32" rx="10"/>
         <rect x="459" y="89" width="24" height="32" class="terminal" rx="10"/>
         <text class="terminal" x="469" y="109">.</text>
<!--     <a xmlns:xlink="http://www.w3.org/1999/xlink" xlink:href="#digits" xlink:title="digits"> -->
            <rect x="505" y="91" width="54" height="32"/>
            <rect x="503" y="89" width="54" height="32" class="nonterminal"/>
            <text class="nonterminal" x="513" y="109">digits</text>
<!--     </a> -->
<!--     <a xmlns:xlink="http://www.w3.org/1999/xlink" xlink:href="#digits" xlink:title="digits"> -->
            <rect x="461" y="135" width="54" height="32"/>
            <rect x="459" y="133" width="54" height="32" class="nonterminal"/>
            <text class="nonterminal" x="469" y="153">digits</text>
<!--     </a> -->
         <rect x="535" y="135" width="24" height="32" rx="10"/>
         <rect x="533" y="133" width="24" height="32" class="terminal" rx="10"/>
         <text class="terminal" x="543" y="153">.</text>
<!--     <a xmlns:xlink="http://www.w3.org/1999/xlink" xlink:href="#whitespace" xlink:title="whitespace"> -->
            <rect x="693" y="3" width="92" height="32"/>
            <rect x="691" y="1" width="92" height="32" class="nonterminal"/>
            <text class="nonterminal" x="701" y="21">whitespace</text>
<!--     </a> -->
         <svg:path xmlns:svg="http://www.w3.org/2000/svg" class="line" d="m17 17 h2 m20 0 h10 m92 0 h10 m-132 0 h20 m112 0 h20 m-152 0 q10 0 10 10 m132 0 q0 -10 10 -10 m-142 10 v14 m132 0 v-14 m-132 14 q0 10 10 10 m112 0 q10 0 10 -10 m-122 10 h10 m0 0 h102 m40 -34 h10 m46 0 h10 m20 0 h10 m92 0 h10 m-132 0 h20 m112 0 h20 m-152 0 q10 0 10 10 m132 0 q0 -10 10 -10 m-142 10 v14 m132 0 v-14 m-132 14 q0 10 10 10 m112 0 q10 0 10 -10 m-122 10 h10 m0 0 h102 m-218 -34 h20 m218 0 h20 m-258 0 q10 0 10 10 m238 0 q0 -10 10 -10 m-248 10 v30 m238 0 v-30 m-238 30 q0 10 10 10 m218 0 q10 0 10 -10 m-228 10 h10 m0 0 h208 m40 -50 h10 m54 0 h10 m0 0 h118 m-212 0 h20 m192 0 h20 m-232 0 q10 0 10 10 m212 0 q0 -10 10 -10 m-222 10 v24 m212 0 v-24 m-212 24 q0 10 10 10 m192 0 q10 0 10 -10 m-202 10 h10 m54 0 h10 m0 0 h10 m24 0 h10 m0 0 h10 m54 0 h10 m-202 -10 v20 m212 0 v-20 m-212 20 v24 m212 0 v-24 m-212 24 q0 10 10 10 m192 0 q10 0 10 -10 m-202 10 h10 m24 0 h10 m0 0 h10 m54 0 h10 m0 0 h74 m-202 -10 v20 m212 0 v-20 m-212 20 v24 m212 0 v-24 m-212 24 q0 10 10 10 m192 0 q10 0 10 -10 m-202 10 h10 m54 0 h10 m0 0 h10 m24 0 h10 m0 0 h74 m40 -132 h10 m92 0 h10 m-132 0 h20 m112 0 h20 m-152 0 q10 0 10 10 m132 0 q0 -10 10 -10 m-142 10 v14 m132 0 v-14 m-132 14 q0 10 10 10 m112 0 q10 0 10 -10 m-122 10 h10 m0 0 h102 m23 -34 h-3"/>
         <polygon points="823 17 831 13 831 21"/>
         <polygon points="823 17 815 13 815 21"/>
      </svg>
