      <svg xmlns="http://www.w3.org/2000/svg" width="500" height="188">
         <defs>
            <style type="text/css">
               @namespace "http://www.w3.org/2000/svg";
               .line                 {fill: none; stroke: #1F1F1F;}
               .bold-line            {stroke: #0A0A0A; shape-rendering: crispEdges; stroke-width:
               2; }
               .thin-line            {stroke: #0F0F0F; shape-rendering: crispEdges}
               .filled               {fill: #1F1F1F; stroke: none;}
               text.terminal         {font-family: Verdana, Sans-serif;
               font-size: 12px;
               fill: #0A0A0A;
               font-weight: bold;
               }
               text.nonterminal      {font-family: Verdana, Sans-serif; font-style: italic;
               font-size: 12px;
               fill: #0D0D0D;
               }
               text.regexp           {font-family: Verdana, Sans-serif;
               font-size: 12px;
               fill: #0F0F0F;
               }
               rect, circle, polygon {fill: #1F1F1F; stroke: #1F1F1F;}
               rect.terminal         {fill: #CCCCCC; stroke: #1F1F1F;}
               rect.nonterminal      {fill: #E3E3E3; stroke: #1F1F1F;}
               rect.text             {fill: none; stroke: none;}    
               polygon.regexp        {fill: #EFEFEF; stroke: #1F1F1F;}
               
            </style>
         </defs>
         <polygon points="9 17 1 13 1 21"/>
         <polygon points="17 17 9 13 9 21"/>
         <rect x="31" y="3" width="126" height="32" rx="10"/>
         <rect x="29" y="1" width="126" height="32" class="terminal" rx="10"/>
         <text class="terminal" x="39" y="21">NUMERIC FORM</text>
         <rect x="197" y="35" width="98" height="32" rx="10"/>
         <rect x="195" y="33" width="98" height="32" class="terminal" rx="10"/>
         <text class="terminal" x="205" y="53">SCIENTIFIC</text>
         <rect x="197" y="79" width="114" height="32" rx="10"/>
         <rect x="195" y="77" width="114" height="32" class="terminal" rx="10"/>
         <text class="terminal" x="205" y="97">ENGINEERING</text>
         <rect x="217" y="155" width="64" height="32" rx="10"/>
         <rect x="215" y="153" width="64" height="32" class="terminal" rx="10"/>
         <text class="terminal" x="225" y="173">VALUE</text>
<!--     <a xmlns:xlink="http://www.w3.org/1999/xlink" xlink:href="#expression" xlink:title="expression"> -->
            <rect x="321" y="123" width="88" height="32"/>
            <rect x="319" y="121" width="88" height="32" class="nonterminal"/>
            <text class="nonterminal" x="329" y="141">expression</text>
<!--     </a> -->
         <rect x="449" y="3" width="24" height="32" rx="10"/>
         <rect x="447" y="1" width="24" height="32" class="terminal" rx="10"/>
         <text class="terminal" x="457" y="21">;</text>
         <svg:path xmlns:svg="http://www.w3.org/2000/svg" class="line" d="m17 17 h2 m0 0 h10 m126 0 h10 m20 0 h10 m0 0 h222 m-252 0 h20 m232 0 h20 m-272 0 q10 0 10 10 m252 0 q0 -10 10 -10 m-262 10 v12 m252 0 v-12 m-252 12 q0 10 10 10 m232 0 q10 0 10 -10 m-242 10 h10 m98 0 h10 m0 0 h114 m-242 -10 v20 m252 0 v-20 m-252 20 v24 m252 0 v-24 m-252 24 q0 10 10 10 m232 0 q10 0 10 -10 m-242 10 h10 m114 0 h10 m0 0 h98 m-242 -10 v20 m252 0 v-20 m-252 20 v24 m252 0 v-24 m-252 24 q0 10 10 10 m232 0 q10 0 10 -10 m-222 10 h10 m0 0 h74 m-104 0 h20 m84 0 h20 m-124 0 q10 0 10 10 m104 0 q0 -10 10 -10 m-114 10 v12 m104 0 v-12 m-104 12 q0 10 10 10 m84 0 q10 0 10 -10 m-94 10 h10 m64 0 h10 m20 -32 h10 m88 0 h10 m20 -120 h10 m24 0 h10 m3 0 h-3"/>
         <polygon points="491 17 499 13 499 21"/>
         <polygon points="491 17 483 13 483 21"/>
      </svg>
