      <svg xmlns="http://www.w3.org/2000/svg" width="650" height="286">
         <defs>
            <style type="text/css">
               @namespace "http://www.w3.org/2000/svg";
               .line                 {fill: none; stroke: #1F1F1F;}
               .bold-line            {stroke: #0A0A0A; shape-rendering: crispEdges; stroke-width:
               2; }
               .thin-line            {stroke: #0F0F0F; shape-rendering: crispEdges}
               .filled               {fill: #1F1F1F; stroke: none;}
               text.terminal         {font-family: Verdana, Sans-serif;
               font-size: 12px;
               fill: #0A0A0A;
               font-weight: bold;
               }
               text.nonterminal      {font-family: Verdana, Sans-serif; font-style: italic;
               font-size: 12px;
               fill: #0D0D0D;
               }
               text.regexp           {font-family: Verdana, Sans-serif;
               font-size: 12px;
               fill: #0F0F0F;
               }
               rect, circle, polygon {fill: #1F1F1F; stroke: #1F1F1F;}
               rect.terminal         {fill: #CCCCCC; stroke: #1F1F1F;}
               rect.nonterminal      {fill: #E3E3E3; stroke: #1F1F1F;}
               rect.text             {fill: none; stroke: none;}    
               polygon.regexp        {fill: #EFEFEF; stroke: #1F1F1F;}
               
            </style>
         </defs>
         <polygon points="9 17 1 13 1 21"/>
         <polygon points="17 17 9 13 9 21"/>
<!--     <a xmlns:xlink="http://www.w3.org/1999/xlink" xlink:href="#whitespace" xlink:title="whitespace"> -->
            <rect x="51" y="35" width="86" height="32"/>
            <rect x="49" y="33" width="86" height="32" class="nonterminal"/>
            <text class="nonterminal" x="59" y="53">whitespace</text>
<!--     </a> -->
<!--     <a xmlns:xlink="http://www.w3.org/1999/xlink" xlink:href="#sign" xlink:title="sign"> -->
            <rect x="197" y="35" width="42" height="32"/>
            <rect x="195" y="33" width="42" height="32" class="nonterminal"/>
            <text class="nonterminal" x="205" y="53">sign</text>
<!--     </a> -->
<!--     <a xmlns:xlink="http://www.w3.org/1999/xlink" xlink:href="#whitespace" xlink:title="whitespace"> -->
            <rect x="279" y="67" width="86" height="32"/>
            <rect x="277" y="65" width="86" height="32" class="nonterminal"/>
            <text class="nonterminal" x="287" y="85">whitespace</text>
<!--     </a> -->
<!--     <a xmlns:xlink="http://www.w3.org/1999/xlink" xlink:href="#digits" xlink:title="digits"> -->
            <rect x="445" y="3" width="50" height="32"/>
            <rect x="443" y="1" width="50" height="32" class="nonterminal"/>
            <text class="nonterminal" x="453" y="21">digits</text>
<!--     </a> -->
<!--     <a xmlns:xlink="http://www.w3.org/1999/xlink" xlink:href="#digits" xlink:title="digits"> -->
            <rect x="445" y="47" width="50" height="32"/>
            <rect x="443" y="45" width="50" height="32" class="nonterminal"/>
            <text class="nonterminal" x="453" y="65">digits</text>
<!--     </a> -->
         <rect x="515" y="47" width="24" height="32" rx="10"/>
         <rect x="513" y="45" width="24" height="32" class="terminal" rx="10"/>
         <text class="terminal" x="523" y="65">.</text>
<!--     <a xmlns:xlink="http://www.w3.org/1999/xlink" xlink:href="#digits" xlink:title="digits"> -->
            <rect x="559" y="47" width="50" height="32"/>
            <rect x="557" y="45" width="50" height="32" class="nonterminal"/>
            <text class="nonterminal" x="567" y="65">digits</text>
<!--     </a> -->
         <rect x="445" y="91" width="24" height="32" rx="10"/>
         <rect x="443" y="89" width="24" height="32" class="terminal" rx="10"/>
         <text class="terminal" x="453" y="109">.</text>
<!--     <a xmlns:xlink="http://www.w3.org/1999/xlink" xlink:href="#digits" xlink:title="digits"> -->
            <rect x="489" y="91" width="50" height="32"/>
            <rect x="487" y="89" width="50" height="32" class="nonterminal"/>
            <text class="nonterminal" x="497" y="109">digits</text>
<!--     </a> -->
<!--     <a xmlns:xlink="http://www.w3.org/1999/xlink" xlink:href="#digits" xlink:title="digits"> -->
            <rect x="445" y="135" width="50" height="32"/>
            <rect x="443" y="133" width="50" height="32" class="nonterminal"/>
            <text class="nonterminal" x="453" y="153">digits</text>
<!--     </a> -->
         <rect x="515" y="135" width="24" height="32" rx="10"/>
         <rect x="513" y="133" width="24" height="32" class="terminal" rx="10"/>
         <text class="terminal" x="523" y="153">.</text>
         <rect x="257" y="221" width="28" height="32" rx="10"/>
         <rect x="255" y="219" width="28" height="32" class="terminal" rx="10"/>
         <text class="terminal" x="265" y="239">E</text>
<!--     <a xmlns:xlink="http://www.w3.org/1999/xlink" xlink:href="#sign" xlink:title="sign"> -->
            <rect x="325" y="253" width="42" height="32"/>
            <rect x="323" y="251" width="42" height="32" class="nonterminal"/>
            <text class="nonterminal" x="333" y="271">sign</text>
<!--     </a> -->
<!--     <a xmlns:xlink="http://www.w3.org/1999/xlink" xlink:href="#digits" xlink:title="digits"> -->
            <rect x="407" y="221" width="50" height="32"/>
            <rect x="405" y="219" width="50" height="32" class="nonterminal"/>
            <text class="nonterminal" x="415" y="239">digits</text>
<!--     </a> -->
<!--     <a xmlns:xlink="http://www.w3.org/1999/xlink" xlink:href="#whitespace" xlink:title="whitespace"> -->
            <rect x="517" y="221" width="86" height="32"/>
            <rect x="515" y="219" width="86" height="32" class="nonterminal"/>
            <text class="nonterminal" x="525" y="239">whitespace</text>
<!--     </a> -->
         <svg:path xmlns:svg="http://www.w3.org/2000/svg" class="line" d="m17 17 h2 m20 0 h10 m0 0 h96 m-126 0 h20 m106 0 h20 m-146 0 q10 0 10 10 m126 0 q0 -10 10 -10 m-136 10 v12 m126 0 v-12 m-126 12 q0 10 10 10 m106 0 q10 0 10 -10 m-116 10 h10 m86 0 h10 m40 -32 h10 m0 0 h198 m-228 0 h20 m208 0 h20 m-248 0 q10 0 10 10 m228 0 q0 -10 10 -10 m-238 10 v12 m228 0 v-12 m-228 12 q0 10 10 10 m208 0 q10 0 10 -10 m-218 10 h10 m42 0 h10 m20 0 h10 m0 0 h96 m-126 0 h20 m106 0 h20 m-146 0 q10 0 10 10 m126 0 q0 -10 10 -10 m-136 10 v12 m126 0 v-12 m-126 12 q0 10 10 10 m106 0 q10 0 10 -10 m-116 10 h10 m86 0 h10 m60 -64 h10 m50 0 h10 m0 0 h114 m-204 0 h20 m184 0 h20 m-224 0 q10 0 10 10 m204 0 q0 -10 10 -10 m-214 10 v24 m204 0 v-24 m-204 24 q0 10 10 10 m184 0 q10 0 10 -10 m-194 10 h10 m50 0 h10 m0 0 h10 m24 0 h10 m0 0 h10 m50 0 h10 m-194 -10 v20 m204 0 v-20 m-204 20 v24 m204 0 v-24 m-204 24 q0 10 10 10 m184 0 q10 0 10 -10 m-194 10 h10 m24 0 h10 m0 0 h10 m50 0 h10 m0 0 h70 m-194 -10 v20 m204 0 v-20 m-204 20 v24 m204 0 v-24 m-204 24 q0 10 10 10 m184 0 q10 0 10 -10 m-194 10 h10 m50 0 h10 m0 0 h10 m24 0 h10 m0 0 h70 m22 -132 l2 0 m2 0 l2 0 m2 0 l2 0 m-436 186 l2 0 m2 0 l2 0 m2 0 l2 0 m22 0 h10 m0 0 h210 m-240 0 h20 m220 0 h20 m-260 0 q10 0 10 10 m240 0 q0 -10 10 -10 m-250 10 v12 m240 0 v-12 m-240 12 q0 10 10 10 m220 0 q10 0 10 -10 m-230 10 h10 m28 0 h10 m20 0 h10 m0 0 h52 m-82 0 h20 m62 0 h20 m-102 0 q10 0 10 10 m82 0 q0 -10 10 -10 m-92 10 v12 m82 0 v-12 m-82 12 q0 10 10 10 m62 0 q10 0 10 -10 m-72 10 h10 m42 0 h10 m20 -32 h10 m50 0 h10 m40 -32 h10 m0 0 h96 m-126 0 h20 m106 0 h20 m-146 0 q10 0 10 10 m126 0 q0 -10 10 -10 m-136 10 v12 m126 0 v-12 m-126 12 q0 10 10 10 m106 0 q10 0 10 -10 m-116 10 h10 m86 0 h10 m23 -32 h-3"/>
         <polygon points="641 203 649 199 649 207"/>
         <polygon points="641 203 633 199 633 207"/>
      </svg>
