<svg xmlns="http://www.w3.org/2000/svg" width="827" height="169">
         <defs>
            <style type="text/css">
               @namespace "http://www.w3.org/2000/svg";
               .line                 {fill: none; stroke: #1F1F1F;}
               .bold-line            {stroke: #0A0A0A; shape-rendering: crispEdges; stroke-width:
               2; }
               .thin-line            {stroke: #0F0F0F; shape-rendering: crispEdges}
               .filled               {fill: #1F1F1F; stroke: none;}
               text.terminal         {font-family: Verdana, Sans-serif;
               font-size: 12px;
               fill: #0A0A0A;
               font-weight: bold;
               }
               text.nonterminal      {font-family: Verdana, Sans-serif; font-style: italic;
               font-size: 12px;
               fill: #0D0D0D;
               }
               text.regexp           {font-family: Verdana, Sans-serif;
               font-size: 12px;
               fill: #0F0F0F;
               }
               rect, circle, polygon {fill: #1F1F1F; stroke: #1F1F1F;}
               rect.terminal         {fill: #CCCCCC; stroke: #1F1F1F;}
               rect.nonterminal      {fill: #E3E3E3; stroke: #1F1F1F;}
               rect.text             {fill: none; stroke: none;}
               polygon.regexp        {fill: #EFEFEF; stroke: #1F1F1F;}

            </style>
         </defs>

         <defs>
            <style type="text/css">
    @namespace "http://www.w3.org/2000/svg";
    .line                 {fill: none; stroke: #1F1F1F;}
    .bold-line            {stroke: #0A0A0A; shape-rendering: crispEdges; stroke-width: 2; }
    .thin-line            {stroke: #0F0F0F; shape-rendering: crispEdges}
    .filled               {fill: #1F1F1F; stroke: none;}
    text.terminal         {font-family: Verdana, Sans-serif;
                            font-size: 12px;
                            fill: #0A0A0A;
                            font-weight: bold;
                          }
    text.nonterminal      {font-family: Verdana, Sans-serif;
                            font-size: 12px;
                            fill: #0D0D0D;
                            font-weight: normal;
                          }
    text.regexp           {font-family: Verdana, Sans-serif;
                            font-size: 12px;
                            fill: #0F0F0F;
                            font-weight: normal;
                          }
    rect, circle, polygon {fill: #1F1F1F; stroke: #1F1F1F;}
    rect.terminal         {fill: #CCCCCC; stroke: #1F1F1F;}
    rect.nonterminal      {fill: #E3E3E3; stroke: #1F1F1F;}
    rect.text             {fill: none; stroke: none;}    
    polygon.regexp        {fill: #EFEFEF; stroke: #1F1F1F;}
  </style>
         </defs>
         <polygon points="9 17 1 13 1 21"/>
         <polygon points="17 17 9 13 9 21"/><a xmlns:xlink="http://www.w3.org/1999/xlink" xlink:href="#whitespace" xlink:title="whitespace">
            <rect x="51" y="35" width="90" height="32"/>
            <rect x="49" y="33" width="90" height="32" class="nonterminal"/>
            <text class="nonterminal" x="59" y="53">whitespace</text></a><a xmlns:xlink="http://www.w3.org/1999/xlink" xlink:href="#sign" xlink:title="sign">
            <rect x="201" y="35" width="46" height="32"/>
            <rect x="199" y="33" width="46" height="32" class="nonterminal"/>
            <text class="nonterminal" x="209" y="53">sign</text></a><a xmlns:xlink="http://www.w3.org/1999/xlink" xlink:href="#whitespace" xlink:title="whitespace">
            <rect x="287" y="67" width="90" height="32"/>
            <rect x="285" y="65" width="90" height="32" class="nonterminal"/>
            <text class="nonterminal" x="295" y="85">whitespace</text></a><a xmlns:xlink="http://www.w3.org/1999/xlink" xlink:href="#digits" xlink:title="digits">
            <rect x="457" y="3" width="54" height="32"/>
            <rect x="455" y="1" width="54" height="32" class="nonterminal"/>
            <text class="nonterminal" x="465" y="21">digits</text></a><a xmlns:xlink="http://www.w3.org/1999/xlink" xlink:href="#digits" xlink:title="digits">
            <rect x="457" y="47" width="54" height="32"/>
            <rect x="455" y="45" width="54" height="32" class="nonterminal"/>
            <text class="nonterminal" x="465" y="65">digits</text></a><rect x="531" y="47" width="24" height="32" rx="10"/>
         <rect x="529" y="45" width="24" height="32" class="terminal" rx="10"/>
         <text class="terminal" x="539" y="65">.</text><a xmlns:xlink="http://www.w3.org/1999/xlink" xlink:href="#digits" xlink:title="digits">
            <rect x="575" y="47" width="54" height="32"/>
            <rect x="573" y="45" width="54" height="32" class="nonterminal"/>
            <text class="nonterminal" x="583" y="65">digits</text></a><rect x="457" y="91" width="24" height="32" rx="10"/>
         <rect x="455" y="89" width="24" height="32" class="terminal" rx="10"/>
         <text class="terminal" x="465" y="109">.</text><a xmlns:xlink="http://www.w3.org/1999/xlink" xlink:href="#digits" xlink:title="digits">
            <rect x="501" y="91" width="54" height="32"/>
            <rect x="499" y="89" width="54" height="32" class="nonterminal"/>
            <text class="nonterminal" x="509" y="109">digits</text></a><a xmlns:xlink="http://www.w3.org/1999/xlink" xlink:href="#digits" xlink:title="digits">
            <rect x="457" y="135" width="54" height="32"/>
            <rect x="455" y="133" width="54" height="32" class="nonterminal"/>
            <text class="nonterminal" x="465" y="153">digits</text></a><rect x="531" y="135" width="24" height="32" rx="10"/>
         <rect x="529" y="133" width="24" height="32" class="terminal" rx="10"/>
         <text class="terminal" x="539" y="153">.</text><a xmlns:xlink="http://www.w3.org/1999/xlink" xlink:href="#whitespace" xlink:title="whitespace">
            <rect x="689" y="35" width="90" height="32"/>
            <rect x="687" y="33" width="90" height="32" class="nonterminal"/>
            <text class="nonterminal" x="697" y="53">whitespace</text></a><svg:path xmlns:svg="http://www.w3.org/2000/svg" class="line" d="m17 17 h2 m20 0 h10 m0 0 h100 m-130 0 h20 m110 0 h20 m-150 0 q10 0 10 10 m130 0 q0 -10 10 -10 m-140 10 v12 m130 0 v-12 m-130 12 q0 10 10 10 m110 0 q10 0 10 -10 m-120 10 h10 m90 0 h10 m40 -32 h10 m0 0 h206 m-236 0 h20 m216 0 h20 m-256 0 q10 0 10 10 m236 0 q0 -10 10 -10 m-246 10 v12 m236 0 v-12 m-236 12 q0 10 10 10 m216 0 q10 0 10 -10 m-226 10 h10 m46 0 h10 m20 0 h10 m0 0 h100 m-130 0 h20 m110 0 h20 m-150 0 q10 0 10 10 m130 0 q0 -10 10 -10 m-140 10 v12 m130 0 v-12 m-130 12 q0 10 10 10 m110 0 q10 0 10 -10 m-120 10 h10 m90 0 h10 m60 -64 h10 m54 0 h10 m0 0 h118 m-212 0 h20 m192 0 h20 m-232 0 q10 0 10 10 m212 0 q0 -10 10 -10 m-222 10 v24 m212 0 v-24 m-212 24 q0 10 10 10 m192 0 q10 0 10 -10 m-202 10 h10 m54 0 h10 m0 0 h10 m24 0 h10 m0 0 h10 m54 0 h10 m-202 -10 v20 m212 0 v-20 m-212 20 v24 m212 0 v-24 m-212 24 q0 10 10 10 m192 0 q10 0 10 -10 m-202 10 h10 m24 0 h10 m0 0 h10 m54 0 h10 m0 0 h74 m-202 -10 v20 m212 0 v-20 m-212 20 v24 m212 0 v-24 m-212 24 q0 10 10 10 m192 0 q10 0 10 -10 m-202 10 h10 m54 0 h10 m0 0 h10 m24 0 h10 m0 0 h74 m40 -132 h10 m0 0 h100 m-130 0 h20 m110 0 h20 m-150 0 q10 0 10 10 m130 0 q0 -10 10 -10 m-140 10 v12 m130 0 v-12 m-130 12 q0 10 10 10 m110 0 q10 0 10 -10 m-120 10 h10 m90 0 h10 m23 -32 h-3"/>
         <polygon points="817 17 825 13 825 21"/>
         <polygon points="817 17 809 13 809 21"/>
</svg>