      <svg xmlns="http://www.w3.org/2000/svg" width="698" height="272">
         <defs>
            <style type="text/css">
               @namespace "http://www.w3.org/2000/svg";
               .line                 {fill: none; stroke: #1F1F1F;}
               .bold-line            {stroke: #0A0A0A; shape-rendering: crispEdges; stroke-width:
               2; }
               .thin-line            {stroke: #0F0F0F; shape-rendering: crispEdges}
               .filled               {fill: #1F1F1F; stroke: none;}
               text.terminal         {font-family: Verdana, Sans-serif;
               font-size: 12px;
               fill: #0A0A0A;
               font-weight: bold;
               }
               text.nonterminal      {font-family: Verdana, Sans-serif;
               font-size: 12px;
               fill: #0D0D0D;
               }
               text.regexp           {font-family: Verdana, Sans-serif;
               font-size: 12px;
               fill: #0F0F0F;
               }
               rect, circle, polygon {fill: #1F1F1F; stroke: #1F1F1F;}
               rect.terminal         {fill: #CCCCCC; stroke: #1F1F1F;}
               rect.nonterminal      {fill: #E3E3E3; stroke: #1F1F1F;}
               rect.text             {fill: none; stroke: none;}    
               polygon.regexp        {fill: #EFEFEF; stroke: #1F1F1F;}
               
            </style>
         </defs>
         <polygon points="9 17 1 13 1 21"/>
         <polygon points="17 17 9 13 9 21"/>
         <a xmlns:xlink="http://www.w3.org/1999/xlink" xlink:href="#NUM" xlink:title="NUM">
            <rect x="51" y="3" width="48" height="32"/>
            <rect x="49" y="1" width="48" height="32" class="nonterminal"/>
            <text class="nonterminal" x="59" y="21">NUM</text>
         </a>
         <rect x="51" y="47" width="28" height="32" rx="10"/>
         <rect x="49" y="45" width="28" height="32" class="terminal" rx="10"/>
         <text class="terminal" x="59" y="65">*</text>
         <a xmlns:xlink="http://www.w3.org/1999/xlink" xlink:href="#DISKR" xlink:title="DISKR">
            <rect x="159" y="3" width="58" height="32"/>
            <rect x="157" y="1" width="58" height="32" class="nonterminal"/>
            <text class="nonterminal" x="167" y="21">DISKR</text>
         </a>
         <a xmlns:xlink="http://www.w3.org/1999/xlink" xlink:href="#DISKW" xlink:title="DISKW">
            <rect x="159" y="47" width="62" height="32"/>
            <rect x="157" y="45" width="62" height="32" class="nonterminal"/>
            <text class="nonterminal" x="167" y="65">DISKW</text>
         </a>
         <a xmlns:xlink="http://www.w3.org/1999/xlink" xlink:href="#filename" xlink:title="filename">
            <rect x="261" y="3" width="72" height="32"/>
            <rect x="259" y="1" width="72" height="32" class="nonterminal"/>
            <text class="nonterminal" x="269" y="21">filename</text>
         </a>
         <rect x="353" y="3" width="26" height="32" rx="10"/>
         <rect x="351" y="1" width="26" height="32" class="terminal" rx="10"/>
         <text class="terminal" x="361" y="21">(</text>
         <a xmlns:xlink="http://www.w3.org/1999/xlink" xlink:href="#FINIS" xlink:title="FINIS">
            <rect x="419" y="3" width="54" height="32"/>
            <rect x="417" y="1" width="54" height="32" class="nonterminal"/>
            <text class="nonterminal" x="427" y="21">FINIS</text>
         </a>
         <a xmlns:xlink="http://www.w3.org/1999/xlink" xlink:href="#STEM" xlink:title="STEM">
            <rect x="493" y="3" width="52" height="32"/>
            <rect x="491" y="1" width="52" height="32" class="nonterminal"/>
            <text class="nonterminal" x="501" y="21">STEM</text>
         </a>
         <a xmlns:xlink="http://www.w3.org/1999/xlink" xlink:href="#stemname" xlink:title="stemname">
            <rect x="565" y="3" width="86" height="32"/>
            <rect x="563" y="1" width="86" height="32" class="nonterminal"/>
            <text class="nonterminal" x="573" y="21">stemname</text>
         </a>
         <a xmlns:xlink="http://www.w3.org/1999/xlink" xlink:href="#STEM" xlink:title="STEM">
            <rect x="419" y="47" width="52" height="32"/>
            <rect x="417" y="45" width="52" height="32" class="nonterminal"/>
            <text class="nonterminal" x="427" y="65">STEM</text>
         </a>
         <a xmlns:xlink="http://www.w3.org/1999/xlink" xlink:href="#stemname" xlink:title="stemname">
            <rect x="491" y="47" width="86" height="32"/>
            <rect x="489" y="45" width="86" height="32" class="nonterminal"/>
            <text class="nonterminal" x="499" y="65">stemname</text>
         </a>
         <a xmlns:xlink="http://www.w3.org/1999/xlink" xlink:href="#FINIS" xlink:title="FINIS">
            <rect x="597" y="47" width="54" height="32"/>
            <rect x="595" y="45" width="54" height="32" class="nonterminal"/>
            <text class="nonterminal" x="605" y="65">FINIS</text>
         </a>
         <a xmlns:xlink="http://www.w3.org/1999/xlink" xlink:href="#STEM" xlink:title="STEM">
            <rect x="419" y="91" width="52" height="32"/>
            <rect x="417" y="89" width="52" height="32" class="nonterminal"/>
            <text class="nonterminal" x="427" y="109">STEM</text>
         </a>
         <a xmlns:xlink="http://www.w3.org/1999/xlink" xlink:href="#stemname" xlink:title="stemname">
            <rect x="491" y="91" width="86" height="32"/>
            <rect x="489" y="89" width="86" height="32" class="nonterminal"/>
            <text class="nonterminal" x="499" y="109">stemname</text>
         </a>
         <a xmlns:xlink="http://www.w3.org/1999/xlink" xlink:href="#FINIS" xlink:title="FINIS">
            <rect x="419" y="135" width="54" height="32"/>
            <rect x="417" y="133" width="54" height="32" class="nonterminal"/>
            <text class="nonterminal" x="427" y="153">FINIS</text>
         </a>
         <a xmlns:xlink="http://www.w3.org/1999/xlink" xlink:href="#LIFO" xlink:title="LIFO">
            <rect x="513" y="135" width="48" height="32"/>
            <rect x="511" y="133" width="48" height="32" class="nonterminal"/>
            <text class="nonterminal" x="521" y="153">LIFO</text>
         </a>
         <a xmlns:xlink="http://www.w3.org/1999/xlink" xlink:href="#FOFO" xlink:title="FOFO">
            <rect x="513" y="179" width="54" height="32"/>
            <rect x="511" y="177" width="54" height="32" class="nonterminal"/>
            <text class="nonterminal" x="521" y="197">FOFO</text>
         </a>
         <a xmlns:xlink="http://www.w3.org/1999/xlink" xlink:href="#SKIP" xlink:title="SKIP">
            <rect x="513" y="223" width="48" height="32"/>
            <rect x="511" y="221" width="48" height="32" class="nonterminal"/>
            <text class="nonterminal" x="521" y="241">SKIP</text>
         </a>
         <svg:path xmlns:svg="http://www.w3.org/2000/svg" class="line" d="m17 17 h2 m20 0 h10 m48 0 h10 m-88 0 h20 m68 0 h20 m-108 0 q10 0 10 10 m88 0 q0 -10 10 -10 m-98 10 v24 m88 0 v-24 m-88 24 q0 10 10 10 m68 0 q10 0 10 -10 m-78 10 h10 m28 0 h10 m0 0 h20 m40 -44 h10 m58 0 h10 m0 0 h4 m-102 0 h20 m82 0 h20 m-122 0 q10 0 10 10 m102 0 q0 -10 10 -10 m-112 10 v24 m102 0 v-24 m-102 24 q0 10 10 10 m82 0 q10 0 10 -10 m-92 10 h10 m62 0 h10 m20 -44 h10 m72 0 h10 m0 0 h10 m26 0 h10 m20 0 h10 m54 0 h10 m0 0 h10 m52 0 h10 m0 0 h10 m86 0 h10 m-272 0 h20 m252 0 h20 m-292 0 q10 0 10 10 m272 0 q0 -10 10 -10 m-282 10 v24 m272 0 v-24 m-272 24 q0 10 10 10 m252 0 q10 0 10 -10 m-262 10 h10 m52 0 h10 m0 0 h10 m86 0 h10 m0 0 h10 m54 0 h10 m-262 -10 v20 m272 0 v-20 m-272 20 v24 m272 0 v-24 m-272 24 q0 10 10 10 m252 0 q10 0 10 -10 m-262 10 h10 m52 0 h10 m0 0 h10 m86 0 h10 m0 0 h74 m-262 -10 v20 m272 0 v-20 m-272 20 v24 m272 0 v-24 m-272 24 q0 10 10 10 m252 0 q10 0 10 -10 m-262 10 h10 m54 0 h10 m20 0 h10 m48 0 h10 m0 0 h6 m-94 0 h20 m74 0 h20 m-114 0 q10 0 10 10 m94 0 q0 -10 10 -10 m-104 10 v24 m94 0 v-24 m-94 24 q0 10 10 10 m74 0 q10 0 10 -10 m-84 10 h10 m54 0 h10 m-84 -10 v20 m94 0 v-20 m-94 20 v24 m94 0 v-24 m-94 24 q0 10 10 10 m74 0 q10 0 10 -10 m-84 10 h10 m48 0 h10 m0 0 h6 m20 -88 h64 m-262 -10 v20 m272 0 v-20 m-272 20 v102 m272 0 v-102 m-272 102 q0 10 10 10 m252 0 q10 0 10 -10 m-262 10 h10 m0 0 h242 m23 -254 h-3"/>
         <polygon points="689 17 697 13 697 21"/>
         <polygon points="689 17 681 13 681 21"/>
      </svg>
