      <svg xmlns="http://www.w3.org/2000/svg" width="710" height="288">
         <defs>
            <style type="text/css">
               @namespace "http://www.w3.org/2000/svg";
               .line                 {fill: none; stroke: #1F1F1F;}
               .bold-line            {stroke: #0A0A0A; shape-rendering: crispEdges; stroke-width:
               2; }
               .thin-line            {stroke: #0F0F0F; shape-rendering: crispEdges}
               .filled               {fill: #1F1F1F; stroke: none;}
               text.terminal         {font-family: Verdana, Sans-serif;
               font-size: 12px;
               fill: #0A0A0A;
               font-weight: bold;
               }
               text.nonterminal      {font-family: Verdana, Sans-serif; font-style: italic;
               font-size: 12px;
               fill: #0D0D0D;
               }
               text.regexp           {font-family: Verdana, Sans-serif;
               font-size: 12px;
               fill: #0F0F0F;
               }
               rect, circle, polygon {fill: #1F1F1F; stroke: #1F1F1F;}
               rect.terminal         {fill: #CCCCCC; stroke: #1F1F1F;}
               rect.nonterminal      {fill: #E3E3E3; stroke: #1F1F1F;}
               rect.text             {fill: none; stroke: none;}    
               polygon.regexp        {fill: #EFEFEF; stroke: #1F1F1F;}
               
            </style>
         </defs>
         <polygon points="9 17 1 13 1 21"/>
         <polygon points="17 17 9 13 9 21"/>
<!--     <a xmlns:xlink="http://www.w3.org/1999/xlink" xlink:href="#num" xlink:title="num"> -->
            <rect x="51" y="3" width="46" height="32"/>
            <rect x="49" y="1" width="46" height="32" class="nonterminal"/>
            <text class="nonterminal" x="59" y="21">num</text>
<!--     </a> -->
         <rect x="51" y="47" width="28" height="32" rx="10"/>
         <rect x="49" y="45" width="28" height="32" class="terminal" rx="10"/>
         <text class="terminal" x="59" y="65">*</text>
         <rect x="157" y="3" width="62" height="32" rx="10"/>
         <rect x="155" y="1" width="62" height="32" class="terminal" rx="10"/>
         <text class="terminal" x="165" y="21">DISKR</text>
         <rect x="157" y="47" width="68" height="32" rx="10"/>
         <rect x="155" y="45" width="68" height="32" class="terminal" rx="10"/>
         <text class="terminal" x="165" y="65">DISKW</text>
<!--     <a xmlns:xlink="http://www.w3.org/1999/xlink" xlink:href="#filename" xlink:title="filename"> -->
            <rect x="265" y="3" width="72" height="32"/>
            <rect x="263" y="1" width="72" height="32" class="nonterminal"/>
            <text class="nonterminal" x="273" y="21">filename</text>
<!--     </a> -->
         <rect x="357" y="3" width="26" height="32" rx="10"/>
         <rect x="355" y="1" width="26" height="32" class="terminal" rx="10"/>
         <text class="terminal" x="365" y="21">(</text>
         <rect x="423" y="35" width="58" height="32" rx="10"/>
         <rect x="421" y="33" width="58" height="32" class="terminal" rx="10"/>
         <text class="terminal" x="431" y="53">FINIS</text>
         <rect x="501" y="35" width="56" height="32" rx="10"/>
         <rect x="499" y="33" width="56" height="32" class="terminal" rx="10"/>
         <text class="terminal" x="509" y="53">STEM</text>
<!--     <a xmlns:xlink="http://www.w3.org/1999/xlink" xlink:href="#stemname" xlink:title="stemname"> -->
            <rect x="577" y="35" width="86" height="32"/>
            <rect x="575" y="33" width="86" height="32" class="nonterminal"/>
            <text class="nonterminal" x="585" y="53">stemname</text>
<!--     </a> -->
         <rect x="423" y="79" width="56" height="32" rx="10"/>
         <rect x="421" y="77" width="56" height="32" class="terminal" rx="10"/>
         <text class="terminal" x="431" y="97">STEM</text>
<!--     <a xmlns:xlink="http://www.w3.org/1999/xlink" xlink:href="#stemname" xlink:title="stemname"> -->
            <rect x="499" y="79" width="86" height="32"/>
            <rect x="497" y="77" width="86" height="32" class="nonterminal"/>
            <text class="nonterminal" x="507" y="97">stemname</text>
<!--     </a> -->
         <rect x="605" y="79" width="58" height="32" rx="10"/>
         <rect x="603" y="77" width="58" height="32" class="terminal" rx="10"/>
         <text class="terminal" x="613" y="97">FINIS</text>
         <rect x="423" y="123" width="56" height="32" rx="10"/>
         <rect x="421" y="121" width="56" height="32" class="terminal" rx="10"/>
         <text class="terminal" x="431" y="141">STEM</text>
<!--     <a xmlns:xlink="http://www.w3.org/1999/xlink" xlink:href="#stemname" xlink:title="stemname"> -->
            <rect x="499" y="123" width="86" height="32"/>
            <rect x="497" y="121" width="86" height="32" class="nonterminal"/>
            <text class="nonterminal" x="507" y="141">stemname</text>
<!--     </a> -->
         <rect x="423" y="167" width="58" height="32" rx="10"/>
         <rect x="421" y="165" width="58" height="32" class="terminal" rx="10"/>
         <text class="terminal" x="431" y="185">FINIS</text>
         <rect x="521" y="167" width="52" height="32" rx="10"/>
         <rect x="519" y="165" width="52" height="32" class="terminal" rx="10"/>
         <text class="terminal" x="529" y="185">LIFO</text>
         <rect x="521" y="211" width="52" height="32" rx="10"/>
         <rect x="519" y="209" width="52" height="32" class="terminal" rx="10"/>
         <text class="terminal" x="529" y="229">FIFO</text>
         <rect x="521" y="255" width="52" height="32" rx="10"/>
         <rect x="519" y="253" width="52" height="32" class="terminal" rx="10"/>
         <text class="terminal" x="529" y="273">SKIP</text>
         <svg:path xmlns:svg="http://www.w3.org/2000/svg" class="line" d="m17 17 h2 m20 0 h10 m46 0 h10 m-86 0 h20 m66 0 h20 m-106 0 q10 0 10 10 m86 0 q0 -10 10 -10 m-96 10 v24 m86 0 v-24 m-86 24 q0 10 10 10 m66 0 q10 0 10 -10 m-76 10 h10 m28 0 h10 m0 0 h18 m40 -44 h10 m62 0 h10 m0 0 h6 m-108 0 h20 m88 0 h20 m-128 0 q10 0 10 10 m108 0 q0 -10 10 -10 m-118 10 v24 m108 0 v-24 m-108 24 q0 10 10 10 m88 0 q10 0 10 -10 m-98 10 h10 m68 0 h10 m20 -44 h10 m72 0 h10 m0 0 h10 m26 0 h10 m20 0 h10 m0 0 h250 m-280 0 h20 m260 0 h20 m-300 0 q10 0 10 10 m280 0 q0 -10 10 -10 m-290 10 v12 m280 0 v-12 m-280 12 q0 10 10 10 m260 0 q10 0 10 -10 m-270 10 h10 m58 0 h10 m0 0 h10 m56 0 h10 m0 0 h10 m86 0 h10 m-270 -10 v20 m280 0 v-20 m-280 20 v24 m280 0 v-24 m-280 24 q0 10 10 10 m260 0 q10 0 10 -10 m-270 10 h10 m56 0 h10 m0 0 h10 m86 0 h10 m0 0 h10 m58 0 h10 m-270 -10 v20 m280 0 v-20 m-280 20 v24 m280 0 v-24 m-280 24 q0 10 10 10 m260 0 q10 0 10 -10 m-270 10 h10 m56 0 h10 m0 0 h10 m86 0 h10 m0 0 h78 m-270 -10 v20 m280 0 v-20 m-280 20 v24 m280 0 v-24 m-280 24 q0 10 10 10 m260 0 q10 0 10 -10 m-270 10 h10 m58 0 h10 m20 0 h10 m52 0 h10 m-92 0 h20 m72 0 h20 m-112 0 q10 0 10 10 m92 0 q0 -10 10 -10 m-102 10 v24 m92 0 v-24 m-92 24 q0 10 10 10 m72 0 q10 0 10 -10 m-82 10 h10 m52 0 h10 m-82 -10 v20 m92 0 v-20 m-92 20 v24 m92 0 v-24 m-92 24 q0 10 10 10 m72 0 q10 0 10 -10 m-82 10 h10 m52 0 h10 m20 -88 h70 m23 -164 h-3"/>
         <polygon points="701 17 709 13 709 21"/>
         <polygon points="701 17 693 13 693 21"/>
      </svg>
