      <svg xmlns="http://www.w3.org/2000/svg" width="352" height="80">
         <defs>
            <style type="text/css">
               @namespace "http://www.w3.org/2000/svg";
               .line                 {fill: none; stroke: #1F1F1F;}
               .bold-line            {stroke: #0A0A0A; shape-rendering: crispEdges; stroke-width:
               2; }
               .thin-line            {stroke: #0F0F0F; shape-rendering: crispEdges}
               .filled               {fill: #1F1F1F; stroke: none;}
               text.terminal         {font-family: Verdana, Sans-serif;
               font-size: 12px;
               fill: #0A0A0A;
               font-weight: bold;
               }
               text.nonterminal      {font-family: Verdana, Sans-serif;
               font-size: 12px;
               fill: #0D0D0D;
               }
               text.regexp           {font-family: Verdana, Sans-serif;
               font-size: 12px;
               fill: #0F0F0F;
               }
               rect, circle, polygon {fill: #1F1F1F; stroke: #1F1F1F;}
               rect.terminal         {fill: #cccccc; stroke: #1F1F1F;}
               rect.nonterminal      {fill: #E3E3E3; stroke: #1F1F1F;}
               rect.text             {fill: none; stroke: none;}    
               polygon.regexp        {fill: #EFEFEF; stroke: #1F1F1F;}
               
            </style>
         </defs>
         <polygon points="9 17 1 13 1 21"/>
         <polygon points="17 17 9 13 9 21"/>
         <rect x="31" y="3" width="98" height="32" rx="10"/>
         <rect x="29" y="1" width="98" height="32" class="terminal" rx="10"/>
         <text class="terminal" x="39" y="21">STATEMENT</text>
         <rect x="169" y="3" width="136" height="32" rx="10"/>
         <rect x="167" y="1" width="136" height="32" class="terminal" rx="10"/>
         <text class="terminal" x="177" y="21">required_choice1</text>
         <rect x="169" y="47" width="136" height="32" rx="10"/>
         <rect x="167" y="45" width="136" height="32" class="terminal" rx="10"/>
         <text class="terminal" x="177" y="65">required_choice2</text>
         <svg:path xmlns:svg="http://www.w3.org/2000/svg" class="line" d="m17 17 h2 m0 0 h10 m98 0 h10 m20 0 h10 m136 0 h10 m-176 0 h20 m156 0 h20 m-196 0 q10 0 10 10 m176 0 q0 -10 10 -10 m-186 10 v24 m176 0 v-24 m-176 24 q0 10 10 10 m156 0 q10 0 10 -10 m-166 10 h10 m136 0 h10 m23 -44 h-3"/>
         <polygon points="343 17 351 13 351 21"/>
         <polygon points="343 17 335 13 335 21"/>
      </svg>
