      <svg xmlns="http://www.w3.org/2000/svg" width="868" height="364">
         <defs>
            <style type="text/css">
               @namespace "http://www.w3.org/2000/svg";
               .line                 {fill: none; stroke: #1F1F1F;}
               .bold-line            {stroke: #0A0A0A; shape-rendering: crispEdges; stroke-width:
               2; }
               .thin-line            {stroke: #0F0F0F; shape-rendering: crispEdges}
               .filled               {fill: #1F1F1F; stroke: none;}
               text.terminal         {font-family: Verdana, Sans-serif;
               font-size: 12px;
               fill: #0A0A0A;
               font-weight: bold;
               }
               text.nonterminal      {font-family: Verdana, Sans-serif; font-style: italic;
               font-size: 12px;
               fill: #0D0D0D;
               }
               text.regexp           {font-family: Verdana, Sans-serif;
               font-size: 12px;
               fill: #0F0F0F;
               }
               rect, circle, polygon {fill: #1F1F1F; stroke: #1F1F1F;}
               rect.terminal         {fill: #CCCCCC; stroke: #1F1F1F;}
               rect.nonterminal      {fill: #E3E3E3; stroke: #1F1F1F;}
               rect.text             {fill: none; stroke: none;}    
               polygon.regexp        {fill: #EFEFEF; stroke: #1F1F1F;}
               
            </style>
         </defs>
         <polygon points="9 17 1 13 1 21"/>
         <polygon points="17 17 9 13 9 21"/>
         <rect x="31" y="3" width="134" height="32" rx="10"/>
         <rect x="29" y="1" width="134" height="32" class="terminal" rx="10"/>
         <text class="terminal" x="39" y="21">addDesktopIcon(</text>
<!--     <a xmlns:xlink="http://www.w3.org/1999/xlink" xlink:href="#name" xlink:title="name"> -->
            <rect x="185" y="3" width="54" height="32"/>
            <rect x="183" y="1" width="54" height="32" class="nonterminal"/>
            <text class="nonterminal" x="193" y="21">name</text>
<!--     </a> -->
         <rect x="259" y="3" width="24" height="32" rx="10"/>
         <rect x="257" y="1" width="24" height="32" class="terminal" rx="10"/>
         <text class="terminal" x="267" y="21">,</text>
<!--     <a xmlns:xlink="http://www.w3.org/1999/xlink" xlink:href="#program" xlink:title="program"> -->
            <rect x="303" y="3" width="72" height="32"/>
            <rect x="301" y="1" width="72" height="32" class="nonterminal"/>
            <text class="nonterminal" x="311" y="21">program</text>
<!--     </a> -->
         <rect x="395" y="3" width="24" height="32" rx="10"/>
         <rect x="393" y="1" width="24" height="32" class="terminal" rx="10"/>
         <text class="terminal" x="403" y="21">,</text>
<!--     <a xmlns:xlink="http://www.w3.org/1999/xlink" xlink:href="#iconfile" xlink:title="iconfile"> -->
            <rect x="459" y="35" width="62" height="32"/>
            <rect x="457" y="33" width="62" height="32" class="nonterminal"/>
            <text class="nonterminal" x="467" y="53">iconfile</text>
<!--     </a> -->
         <rect x="561" y="3" width="24" height="32" rx="10"/>
         <rect x="559" y="1" width="24" height="32" class="terminal" rx="10"/>
         <text class="terminal" x="569" y="21">,</text>
         <rect x="625" y="35" width="28" height="32" rx="10"/>
         <rect x="623" y="33" width="28" height="32" class="terminal" rx="10"/>
         <text class="terminal" x="633" y="53">0</text>
<!--     <a xmlns:xlink="http://www.w3.org/1999/xlink" xlink:href="#iconr" xlink:title="iconr"> -->
            <rect x="625" y="79" width="50" height="32"/>
            <rect x="623" y="77" width="50" height="32" class="nonterminal"/>
            <text class="nonterminal" x="633" y="97">iconr</text>
<!--     </a> -->
         <rect x="715" y="3" width="24" height="32" rx="10"/>
         <rect x="713" y="1" width="24" height="32" class="terminal" rx="10"/>
         <text class="terminal" x="723" y="21">,</text>
<!--     <a xmlns:xlink="http://www.w3.org/1999/xlink" xlink:href="#workdir" xlink:title="workdir"> -->
            <rect x="45" y="177" width="66" height="32"/>
            <rect x="43" y="175" width="66" height="32" class="nonterminal"/>
            <text class="nonterminal" x="53" y="195">workdir</text>
<!--     </a> -->
         <rect x="151" y="145" width="24" height="32" rx="10"/>
         <rect x="149" y="143" width="24" height="32" class="terminal" rx="10"/>
         <text class="terminal" x="159" y="163">,</text>
         <rect x="215" y="177" width="92" height="32" rx="10"/>
         <rect x="213" y="175" width="92" height="32" class="terminal" rx="10"/>
         <text class="terminal" x="223" y="195">PERSONAL</text>
         <rect x="215" y="221" width="82" height="32" rx="10"/>
         <rect x="213" y="219" width="82" height="32" class="terminal" rx="10"/>
         <text class="terminal" x="223" y="239">COMMON</text>
         <rect x="347" y="145" width="24" height="32" rx="10"/>
         <rect x="345" y="143" width="24" height="32" class="terminal" rx="10"/>
         <text class="terminal" x="355" y="163">,</text>
<!--     <a xmlns:xlink="http://www.w3.org/1999/xlink" xlink:href="#args" xlink:title="args"> -->
            <rect x="411" y="177" width="48" height="32"/>
            <rect x="409" y="175" width="48" height="32" class="nonterminal"/>
            <text class="nonterminal" x="419" y="195">args</text>
<!--     </a> -->
         <rect x="499" y="145" width="24" height="32" rx="10"/>
         <rect x="497" y="143" width="24" height="32" class="terminal" rx="10"/>
         <text class="terminal" x="507" y="163">,</text>
<!--     <a xmlns:xlink="http://www.w3.org/1999/xlink" xlink:href="#hotkey" xlink:title="hotkey"> -->
            <rect x="563" y="177" width="62" height="32"/>
            <rect x="561" y="175" width="62" height="32" class="nonterminal"/>
            <text class="nonterminal" x="571" y="195">hotkey</text>
<!--     </a> -->
         <rect x="665" y="145" width="24" height="32" rx="10"/>
         <rect x="663" y="143" width="24" height="32" class="terminal" rx="10"/>
         <text class="terminal" x="673" y="163">,</text>
         <rect x="729" y="177" width="78" height="32" rx="10"/>
         <rect x="727" y="175" width="78" height="32" class="terminal" rx="10"/>
         <text class="terminal" x="737" y="195">NORMAL</text>
         <rect x="729" y="221" width="98" height="32" rx="10"/>
         <rect x="727" y="219" width="98" height="32" class="terminal" rx="10"/>
         <text class="terminal" x="737" y="239">MAXIMIZED</text>
         <rect x="729" y="265" width="96" height="32" rx="10"/>
         <rect x="727" y="263" width="96" height="32" class="terminal" rx="10"/>
         <text class="terminal" x="737" y="283">MINIMIZED</text>
         <rect x="815" y="331" width="26" height="32" rx="10"/>
         <rect x="813" y="329" width="26" height="32" class="terminal" rx="10"/>
         <text class="terminal" x="823" y="349">)</text>
         <svg:path xmlns:svg="http://www.w3.org/2000/svg" class="line" d="m17 17 h2 m0 0 h10 m134 0 h10 m0 0 h10 m54 0 h10 m0 0 h10 m24 0 h10 m0 0 h10 m72 0 h10 m0 0 h10 m24 0 h10 m20 0 h10 m0 0 h72 m-102 0 h20 m82 0 h20 m-122 0 q10 0 10 10 m102 0 q0 -10 10 -10 m-112 10 v12 m102 0 v-12 m-102 12 q0 10 10 10 m82 0 q10 0 10 -10 m-92 10 h10 m62 0 h10 m20 -32 h10 m24 0 h10 m20 0 h10 m0 0 h60 m-90 0 h20 m70 0 h20 m-110 0 q10 0 10 10 m90 0 q0 -10 10 -10 m-100 10 v12 m90 0 v-12 m-90 12 q0 10 10 10 m70 0 q10 0 10 -10 m-80 10 h10 m28 0 h10 m0 0 h22 m-80 -10 v20 m90 0 v-20 m-90 20 v24 m90 0 v-24 m-90 24 q0 10 10 10 m70 0 q10 0 10 -10 m-80 10 h10 m50 0 h10 m20 -76 h10 m24 0 h10 m2 0 l2 0 m2 0 l2 0 m2 0 l2 0 m-758 142 l2 0 m2 0 l2 0 m2 0 l2 0 m22 0 h10 m0 0 h76 m-106 0 h20 m86 0 h20 m-126 0 q10 0 10 10 m106 0 q0 -10 10 -10 m-116 10 v12 m106 0 v-12 m-106 12 q0 10 10 10 m86 0 q10 0 10 -10 m-96 10 h10 m66 0 h10 m20 -32 h10 m24 0 h10 m20 0 h10 m0 0 h102 m-132 0 h20 m112 0 h20 m-152 0 q10 0 10 10 m132 0 q0 -10 10 -10 m-142 10 v12 m132 0 v-12 m-132 12 q0 10 10 10 m112 0 q10 0 10 -10 m-122 10 h10 m92 0 h10 m-122 -10 v20 m132 0 v-20 m-132 20 v24 m132 0 v-24 m-132 24 q0 10 10 10 m112 0 q10 0 10 -10 m-122 10 h10 m82 0 h10 m0 0 h10 m20 -76 h10 m24 0 h10 m20 0 h10 m0 0 h58 m-88 0 h20 m68 0 h20 m-108 0 q10 0 10 10 m88 0 q0 -10 10 -10 m-98 10 v12 m88 0 v-12 m-88 12 q0 10 10 10 m68 0 q10 0 10 -10 m-78 10 h10 m48 0 h10 m20 -32 h10 m24 0 h10 m20 0 h10 m0 0 h72 m-102 0 h20 m82 0 h20 m-122 0 q10 0 10 10 m102 0 q0 -10 10 -10 m-112 10 v12 m102 0 v-12 m-102 12 q0 10 10 10 m82 0 q10 0 10 -10 m-92 10 h10 m62 0 h10 m20 -32 h10 m24 0 h10 m20 0 h10 m0 0 h108 m-138 0 h20 m118 0 h20 m-158 0 q10 0 10 10 m138 0 q0 -10 10 -10 m-148 10 v12 m138 0 v-12 m-138 12 q0 10 10 10 m118 0 q10 0 10 -10 m-128 10 h10 m78 0 h10 m0 0 h20 m-128 -10 v20 m138 0 v-20 m-138 20 v24 m138 0 v-24 m-138 24 q0 10 10 10 m118 0 q10 0 10 -10 m-128 10 h10 m98 0 h10 m-128 -10 v20 m138 0 v-20 m-138 20 v24 m138 0 v-24 m-138 24 q0 10 10 10 m118 0 q10 0 10 -10 m-128 10 h10 m96 0 h10 m0 0 h2 m22 -120 l2 0 m2 0 l2 0 m2 0 l2 0 m-76 186 l2 0 m2 0 l2 0 m2 0 l2 0 m2 0 h10 m26 0 h10 m3 0 h-3"/>
         <polygon points="859 345 867 341 867 349"/>
         <polygon points="859 345 851 341 851 349"/>
      </svg>
