<svg xmlns="http://www.w3.org/2000/svg" width="851" height="119">
         <defs>
            <style type="text/css">
    @namespace "http://www.w3.org/2000/svg";
    .line                 {fill: none; stroke: #1F1F1F;}
    .bold-line            {stroke: #0A0A0A; shape-rendering: crispEdges; stroke-width: 2; }
    .thin-line            {stroke: #0F0F0F; shape-rendering: crispEdges}
    .filled               {fill: #1F1F1F; stroke: none;}
    text.terminal         {font-family: Verdana, Sans-serif;
                            font-size: 12px;
                            fill: #0A0A0A;
                            font-weight: bold;
                          }
    text.nonterminal      {font-family: Verdana, Sans-serif; font-style: italic;
                            font-size: 12px;
                            fill: #0D0D0D;
                            font-weight: normal;
                          }
    text.regexp           {font-family: Verdana, Sans-serif;
                            font-size: 12px;
                            fill: #0F0F0F;
                            font-weight: normal;
                          }
    rect, circle, polygon {fill: #1F1F1F; stroke: #1F1F1F;}
    rect.terminal         {fill: #CCCCCC; stroke: #1F1F1F;}
    rect.nonterminal      {fill: #E3E3E3; stroke: #1F1F1F;}
    rect.text             {fill: none; stroke: none;}    
    polygon.regexp        {fill: #EFEFEF; stroke: #1F1F1F;}
  </style>
         </defs>
         <polygon points="9 51 1 47 1 55"/>
         <polygon points="17 51 9 47 9 55"/>
<!--  <a xmlns:xlink="http://www.w3.org/1999/xlink" xlink:href="#receiver" xlink:title="receiver"> -->
            <rect x="31" y="37" width="70" height="32"/>
            <rect x="29" y="35" width="70" height="32" class="nonterminal"/>
            <text class="nonterminal" x="39" y="55">receiver</text><!-- </a> -->
<rect x="141" y="37" width="30" height="32" rx="10"/>
         <rect x="139" y="35" width="30" height="32" class="terminal" rx="10"/>
         <text class="terminal" x="149" y="55">~</text>
         <rect x="141" y="81" width="40" height="32" rx="10"/>
         <rect x="139" y="79" width="40" height="32" class="terminal" rx="10"/>
         <text class="terminal" x="149" y="99">~~</text>
<!--  <a xmlns:xlink="http://www.w3.org/1999/xlink" xlink:href="#messagename" xlink:title="messagename"> -->
            <rect x="221" y="37" width="112" height="32"/>
            <rect x="219" y="35" width="112" height="32" class="nonterminal"/>
            <text class="nonterminal" x="229" y="55">messagename</text><!-- </a> -->
<rect x="373" y="69" width="24" height="32" rx="10"/>
         <rect x="371" y="67" width="24" height="32" class="terminal" rx="10"/>
         <text class="terminal" x="381" y="87">:</text>
<!--  <a xmlns:xlink="http://www.w3.org/1999/xlink" xlink:href="#symbol" xlink:title="symbol"> -->
            <rect x="417" y="69" width="64" height="32"/>
            <rect x="415" y="67" width="64" height="32" class="nonterminal"/>
            <text class="nonterminal" x="425" y="87">symbol</text><!-- </a> -->
<rect x="541" y="37" width="26" height="32" rx="10"/>
         <rect x="539" y="35" width="26" height="32" class="terminal" rx="10"/>
         <text class="terminal" x="549" y="55">(</text>
<!--  <a xmlns:xlink="http://www.w3.org/1999/xlink" xlink:href="#expression" xlink:title="expression"> -->
            <rect x="627" y="69" width="90" height="32"/>
            <rect x="625" y="67" width="90" height="32" class="nonterminal"/>
            <text class="nonterminal" x="635" y="87">expression</text><!-- </a> -->
<rect x="607" y="3" width="24" height="32" rx="10"/>
         <rect x="605" y="1" width="24" height="32" class="terminal" rx="10"/>
         <text class="terminal" x="615" y="21">,</text>
         <rect x="777" y="37" width="26" height="32" rx="10"/>
         <rect x="775" y="35" width="26" height="32" class="terminal" rx="10"/>
         <text class="terminal" x="785" y="55">)</text>
         <svg:path xmlns:svg="http://www.w3.org/2000/svg" class="line" d="m17 51 h2 m0 0 h10 m70 0 h10 m20 0 h10 m30 0 h10 m0 0 h10 m-80 0 h20 m60 0 h20 m-100 0 q10 0 10 10 m80 0 q0 -10 10 -10 m-90 10 v24 m80 0 v-24 m-80 24 q0 10 10 10 m60 0 q10 0 10 -10 m-70 10 h10 m40 0 h10 m20 -44 h10 m112 0 h10 m20 0 h10 m0 0 h118 m-148 0 h20 m128 0 h20 m-168 0 q10 0 10 10 m148 0 q0 -10 10 -10 m-158 10 v12 m148 0 v-12 m-148 12 q0 10 10 10 m128 0 q10 0 10 -10 m-138 10 h10 m24 0 h10 m0 0 h10 m64 0 h10 m40 -32 h10 m26 0 h10 m40 0 h10 m0 0 h100 m-130 0 h20 m110 0 h20 m-150 0 q10 0 10 10 m130 0 q0 -10 10 -10 m-140 10 v12 m130 0 v-12 m-130 12 q0 10 10 10 m110 0 q10 0 10 -10 m-120 10 h10 m90 0 h10 m-150 -32 l20 0 m-1 0 q-9 0 -9 -10 l0 -14 q0 -10 10 -10 m150 34 l20 0 m-20 0 q10 0 10 -10 l0 -14 q0 -10 -10 -10 m-150 0 h10 m24 0 h10 m0 0 h106 m20 34 h10 m26 0 h10 m-302 0 h20 m282 0 h20 m-322 0 q10 0 10 10 m302 0 q0 -10 10 -10 m-312 10 v46 m302 0 v-46 m-302 46 q0 10 10 10 m282 0 q10 0 10 -10 m-292 10 h10 m0 0 h272 m23 -66 h-3"/>
         <polygon points="841 51 849 47 849 55"/>
         <polygon points="841 51 833 47 833 55"/></svg>
