      <svg xmlns="http://www.w3.org/2000/svg" width="706" height="52">
         <defs>
            <style type="text/css">
               @namespace "http://www.w3.org/2000/svg";
               .line                 {fill: none; stroke: #1F1F1F;}
               .bold-line            {stroke: #0A0A0A; shape-rendering: crispEdges; stroke-width:
               2; }
               .thin-line            {stroke: #0F0F0F; shape-rendering: crispEdges}
               .filled               {fill: #1F1F1F; stroke: none;}
               text.terminal         {font-family: Verdana, Sans-serif;
               font-size: 12px;
               fill: #0A0A0A;
               font-weight: bold;
               }
               text.nonterminal      {font-family: Verdana, Sans-serif;
               font-size: 12px;
               fill: #0D0D0D;
               }
               text.regexp           {font-family: Verdana, Sans-serif;
               font-size: 12px;
               fill: #0F0F0F;
               }
               rect, circle, polygon {fill: #1F1F1F; stroke: #1F1F1F;}
               rect.terminal         {fill: #CCCCCC; stroke: #1F1F1F;}
               rect.nonterminal      {fill: #E3E3E3; stroke: #1F1F1F;}
               rect.text             {fill: none; stroke: none;}    
               polygon.regexp        {fill: #EFEFEF; stroke: #1F1F1F;}
               
            </style>
         </defs>
         <polygon points="9 17 1 13 1 21"/>
         <polygon points="17 17 9 13 9 21"/>
         <rect x="31" y="3" width="100" height="32" rx="10"/>
         <rect x="29" y="1" width="100" height="32" class="terminal" rx="10"/>
         <text class="terminal" x="39" y="21">SockSelect(</text>
         <a xmlns:xlink="http://www.w3.org/1999/xlink" xlink:href="#reads" xlink:title="reads">
            <rect x="151" y="3" width="56" height="32"/>
            <rect x="149" y="1" width="56" height="32" class="nonterminal"/>
            <text class="nonterminal" x="159" y="21">reads</text>
         </a>
         <rect x="227" y="3" width="24" height="32" rx="10"/>
         <rect x="225" y="1" width="24" height="32" class="terminal" rx="10"/>
         <text class="terminal" x="235" y="21">,</text>
         <a xmlns:xlink="http://www.w3.org/1999/xlink" xlink:href="#writes" xlink:title="writes">
            <rect x="271" y="3" width="58" height="32"/>
            <rect x="269" y="1" width="58" height="32" class="nonterminal"/>
            <text class="nonterminal" x="279" y="21">writes</text>
         </a>
         <rect x="349" y="3" width="24" height="32" rx="10"/>
         <rect x="347" y="1" width="24" height="32" class="terminal" rx="10"/>
         <text class="terminal" x="357" y="21">,</text>
         <a xmlns:xlink="http://www.w3.org/1999/xlink" xlink:href="#excepts" xlink:title="excepts">
            <rect x="393" y="3" width="68" height="32"/>
            <rect x="391" y="1" width="68" height="32" class="nonterminal"/>
            <text class="nonterminal" x="401" y="21">excepts</text>
         </a>
         <rect x="501" y="3" width="24" height="32" rx="10"/>
         <rect x="499" y="1" width="24" height="32" class="terminal" rx="10"/>
         <text class="terminal" x="509" y="21">,</text>
         <a xmlns:xlink="http://www.w3.org/1999/xlink" xlink:href="#timeout" xlink:title="timeout">
            <rect x="545" y="3" width="68" height="32"/>
            <rect x="543" y="1" width="68" height="32" class="nonterminal"/>
            <text class="nonterminal" x="553" y="21">timeout</text>
         </a>
         <rect x="653" y="3" width="26" height="32" rx="10"/>
         <rect x="651" y="1" width="26" height="32" class="terminal" rx="10"/>
         <text class="terminal" x="661" y="21">)</text>
         <svg:path xmlns:svg="http://www.w3.org/2000/svg" class="line" d="m17 17 h2 m0 0 h10 m100 0 h10 m0 0 h10 m56 0 h10 m0 0 h10 m24 0 h10 m0 0 h10 m58 0 h10 m0 0 h10 m24 0 h10 m0 0 h10 m68 0 h10 m20 0 h10 m24 0 h10 m0 0 h10 m68 0 h10 m-152 0 h20 m132 0 h20 m-172 0 q10 0 10 10 m152 0 q0 -10 10 -10 m-162 10 v14 m152 0 v-14 m-152 14 q0 10 10 10 m132 0 q10 0 10 -10 m-142 10 h10 m0 0 h122 m20 -34 h10 m26 0 h10 m3 0 h-3"/>
         <polygon points="697 17 705 13 705 21"/>
         <polygon points="697 17 689 13 689 21"/>
      </svg>
