      <svg xmlns="http://www.w3.org/2000/svg" width="544" height="52">
         <defs>
            <style type="text/css">
               @namespace "http://www.w3.org/2000/svg";
               .line                 {fill: none; stroke: #1F1F1F;}
               .bold-line            {stroke: #0A0A0A; shape-rendering: crispEdges; stroke-width:
               2; }
               .thin-line            {stroke: #0F0F0F; shape-rendering: crispEdges}
               .filled               {fill: #1F1F1F; stroke: none;}
               text.terminal         {font-family: Verdana, Sans-serif;
               font-size: 12px;
               fill: #0A0A0A;
               font-weight: bold;
               }
               text.nonterminal      {font-family: Verdana, Sans-serif; font-style: italic;
               font-size: 12px;
               fill: #0D0D0D;
               }
               text.regexp           {font-family: Verdana, Sans-serif;
               font-size: 12px;
               fill: #0F0F0F;
               }
               rect, circle, polygon {fill: #1F1F1F; stroke: #1F1F1F;}
               rect.terminal         {fill: #CCCCCC; stroke: #1F1F1F;}
               rect.nonterminal      {fill: #E3E3E3; stroke: #1F1F1F;}
               rect.text             {fill: none; stroke: none;}    
               polygon.regexp        {fill: #EFEFEF; stroke: #1F1F1F;}
               
            </style>
         </defs>
         <polygon points="9 17 1 13 1 21"/>
         <polygon points="17 17 9 13 9 21"/>
         <rect x="31" y="3" width="48" height="32" rx="10"/>
         <rect x="29" y="1" width="48" height="32" class="terminal" rx="10"/>
         <text class="terminal" x="39" y="21">init(</text>
<!--     <a xmlns:xlink="http://www.w3.org/1999/xlink" xlink:href="#atime" xlink:title="atime"> -->
            <rect x="99" y="3" width="54" height="32"/>
            <rect x="97" y="1" width="54" height="32" class="nonterminal"/>
            <text class="nonterminal" x="107" y="21">atime</text>
<!--     </a> -->
         <rect x="173" y="3" width="24" height="32" rx="10"/>
         <rect x="171" y="1" width="24" height="32" class="terminal" rx="10"/>
         <text class="terminal" x="181" y="21">,</text>
<!--     <a xmlns:xlink="http://www.w3.org/1999/xlink" xlink:href="#target" xlink:title="target"> -->
            <rect x="217" y="3" width="58" height="32"/>
            <rect x="215" y="1" width="58" height="32" class="nonterminal"/>
            <text class="nonterminal" x="225" y="21">target</text>
<!--     </a> -->
         <rect x="315" y="3" width="24" height="32" rx="10"/>
         <rect x="313" y="1" width="24" height="32" class="terminal" rx="10"/>
         <text class="terminal" x="323" y="21">,</text>
<!--     <a xmlns:xlink="http://www.w3.org/1999/xlink" xlink:href="#attachment" xlink:title="attachment"> -->
            <rect x="359" y="3" width="92" height="32"/>
            <rect x="357" y="1" width="92" height="32" class="nonterminal"/>
            <text class="nonterminal" x="367" y="21">attachment</text>
<!--     </a> -->
         <rect x="491" y="3" width="26" height="32" rx="10"/>
         <rect x="489" y="1" width="26" height="32" class="terminal" rx="10"/>
         <text class="terminal" x="499" y="21">)</text>
         <svg:path xmlns:svg="http://www.w3.org/2000/svg" class="line" d="m17 17 h2 m0 0 h10 m48 0 h10 m0 0 h10 m54 0 h10 m0 0 h10 m24 0 h10 m0 0 h10 m58 0 h10 m20 0 h10 m24 0 h10 m0 0 h10 m92 0 h10 m-176 0 h20 m156 0 h20 m-196 0 q10 0 10 10 m176 0 q0 -10 10 -10 m-186 10 v14 m176 0 v-14 m-176 14 q0 10 10 10 m156 0 q10 0 10 -10 m-166 10 h10 m0 0 h146 m20 -34 h10 m26 0 h10 m3 0 h-3"/>
         <polygon points="535 17 543 13 543 21"/>
         <polygon points="535 17 527 13 527 21"/>
      </svg>
