      <svg xmlns="http://www.w3.org/2000/svg" width="500" height="118">
         <defs>
            <style type="text/css">
               @namespace "http://www.w3.org/2000/svg";
               .line                 {fill: none; stroke: #1F1F1F;}
               .bold-line            {stroke: #0A0A0A; shape-rendering: crispEdges; stroke-width:
               2; }
               .thin-line            {stroke: #0F0F0F; shape-rendering: crispEdges}
               .filled               {fill: #1F1F1F; stroke: none;}
               text.terminal         {font-family: Verdana, Sans-serif;
               font-size: 12px;
               fill: #0A0A0A;
               font-weight: bold;
               }
               text.nonterminal      {font-family: Verdana, Sans-serif;
               font-size: 12px;
               fill: #0D0D0D;
               }
               text.regexp           {font-family: Verdana, Sans-serif;
               font-size: 12px;
               fill: #0F0F0F;
               }
               rect, circle, polygon {fill: #1F1F1F; stroke: #1F1F1F;}
               rect.terminal         {fill: #CCCCCC; stroke: #1F1F1F;}
               rect.nonterminal      {fill: #E3E3E3; stroke: #1F1F1F;}
               rect.text             {fill: none; stroke: none;}    
               polygon.regexp        {fill: #EFEFEF; stroke: #1F1F1F;}
               
            </style>
         </defs>
         <polygon points="9 17 1 13 1 21"/>
         <polygon points="17 17 9 13 9 21"/>
         <rect x="31" y="3" width="102" height="32" rx="10"/>
         <rect x="29" y="1" width="102" height="32" class="terminal" rx="10"/>
         <text class="terminal" x="39" y="21">makeString(</text>
         <rect x="173" y="3" width="48" height="32" rx="10"/>
         <rect x="171" y="1" width="48" height="32" class="terminal" rx="10"/>
         <text class="terminal" x="181" y="21">Line</text>
         <rect x="261" y="3" width="24" height="32" rx="10"/>
         <rect x="259" y="1" width="24" height="32" class="terminal" rx="10"/>
         <text class="terminal" x="269" y="21">,</text>
         <a xmlns:xlink="http://www.w3.org/1999/xlink" xlink:href="#seperator" xlink:title="seperator">
            <rect x="305" y="3" width="82" height="32"/>
            <rect x="303" y="1" width="82" height="32" class="nonterminal"/>
            <text class="nonterminal" x="313" y="21">seperator</text>
         </a>
         <rect x="173" y="69" width="50" height="32" rx="10"/>
         <rect x="171" y="67" width="50" height="32" class="terminal" rx="10"/>
         <text class="terminal" x="181" y="87">Char</text>
         <rect x="447" y="3" width="26" height="32" rx="10"/>
         <rect x="445" y="1" width="26" height="32" class="terminal" rx="10"/>
         <text class="terminal" x="455" y="21">)</text>
         <svg:path xmlns:svg="http://www.w3.org/2000/svg" class="line" d="m17 17 h2 m0 0 h10 m102 0 h10 m20 0 h10 m48 0 h10 m20 0 h10 m24 0 h10 m0 0 h10 m82 0 h10 m-166 0 h20 m146 0 h20 m-186 0 q10 0 10 10 m166 0 q0 -10 10 -10 m-176 10 v14 m166 0 v-14 m-166 14 q0 10 10 10 m146 0 q10 0 10 -10 m-156 10 h10 m0 0 h136 m-254 -34 h20 m254 0 h20 m-294 0 q10 0 10 10 m274 0 q0 -10 10 -10 m-284 10 v46 m274 0 v-46 m-274 46 q0 10 10 10 m254 0 q10 0 10 -10 m-264 10 h10 m50 0 h10 m0 0 h184 m-264 -10 v20 m274 0 v-20 m-274 20 v14 m274 0 v-14 m-274 14 q0 10 10 10 m254 0 q10 0 10 -10 m-264 10 h10 m0 0 h244 m20 -100 h10 m26 0 h10 m3 0 h-3"/>
         <polygon points="491 17 499 13 499 21"/>
         <polygon points="491 17 483 13 483 21"/>
      </svg>
