      <svg xmlns="http://www.w3.org/2000/svg" width="554" height="144">
         <defs>
            <style type="text/css">
               @namespace "http://www.w3.org/2000/svg";
               .line                 {fill: none; stroke: #1F1F1F;}
               .bold-line            {stroke: #0A0A0A; shape-rendering: crispEdges; stroke-width:
               2; }
               .thin-line            {stroke: #0F0F0F; shape-rendering: crispEdges}
               .filled               {fill: #1F1F1F; stroke: none;}
               text.terminal         {font-family: Verdana, Sans-serif;
               font-size: 12px;
               fill: #0A0A0A;
               font-weight: bold;
               }
               text.nonterminal      {font-family: Verdana, Sans-serif; font-style: italic;
               font-size: 12px;
               fill: #0D0D0D;
               }
               text.regexp           {font-family: Verdana, Sans-serif;
               font-size: 12px;
               fill: #0F0F0F;
               }
               rect, circle, polygon {fill: #1F1F1F; stroke: #1F1F1F;}
               rect.terminal         {fill: #CCCCCC; stroke: #1F1F1F;}
               rect.nonterminal      {fill: #E3E3E3; stroke: #1F1F1F;}
               rect.text             {fill: none; stroke: none;}    
               polygon.regexp        {fill: #EFEFEF; stroke: #1F1F1F;}
               
            </style>
         </defs>
         <polygon points="9 17 1 13 1 21"/>
         <polygon points="17 17 9 13 9 21"/>
         <rect x="31" y="3" width="102" height="32" rx="10"/>
         <rect x="29" y="1" width="102" height="32" class="terminal" rx="10"/>
         <text class="terminal" x="39" y="21">makeString(</text>
         <rect x="193" y="67" width="62" height="32" rx="10"/>
         <rect x="191" y="65" width="62" height="32" class="terminal" rx="10"/>
         <text class="terminal" x="201" y="85">"Line"</text>
         <rect x="295" y="35" width="24" height="32" rx="10"/>
         <rect x="293" y="33" width="24" height="32" class="terminal" rx="10"/>
         <text class="terminal" x="303" y="53">,</text>
<!--     <a xmlns:xlink="http://www.w3.org/1999/xlink" xlink:href="#separator" xlink:title="separator"> -->
            <rect x="359" y="67" width="82" height="32"/>
            <rect x="357" y="65" width="82" height="32" class="nonterminal"/>
            <text class="nonterminal" x="367" y="85">separator</text>
<!--     </a> -->
         <rect x="173" y="111" width="64" height="32" rx="10"/>
         <rect x="171" y="109" width="64" height="32" class="terminal" rx="10"/>
         <text class="terminal" x="181" y="129">"Char"</text>
         <rect x="501" y="3" width="26" height="32" rx="10"/>
         <rect x="499" y="1" width="26" height="32" class="terminal" rx="10"/>
         <text class="terminal" x="509" y="21">)</text>
         <svg:path xmlns:svg="http://www.w3.org/2000/svg" class="line" d="m17 17 h2 m0 0 h10 m102 0 h10 m20 0 h10 m0 0 h298 m-328 0 h20 m308 0 h20 m-348 0 q10 0 10 10 m328 0 q0 -10 10 -10 m-338 10 v12 m328 0 v-12 m-328 12 q0 10 10 10 m308 0 q10 0 10 -10 m-298 10 h10 m0 0 h72 m-102 0 h20 m82 0 h20 m-122 0 q10 0 10 10 m102 0 q0 -10 10 -10 m-112 10 v12 m102 0 v-12 m-102 12 q0 10 10 10 m82 0 q10 0 10 -10 m-92 10 h10 m62 0 h10 m20 -32 h10 m24 0 h10 m20 0 h10 m0 0 h92 m-122 0 h20 m102 0 h20 m-142 0 q10 0 10 10 m122 0 q0 -10 10 -10 m-132 10 v12 m122 0 v-12 m-122 12 q0 10 10 10 m102 0 q10 0 10 -10 m-112 10 h10 m82 0 h10 m-298 -42 v20 m328 0 v-20 m-328 20 v56 m328 0 v-56 m-328 56 q0 10 10 10 m308 0 q10 0 10 -10 m-318 10 h10 m64 0 h10 m0 0 h224 m20 -108 h10 m26 0 h10 m3 0 h-3"/>
         <polygon points="545 17 553 13 553 21"/>
         <polygon points="545 17 537 13 537 21"/>
      </svg>
