      <svg xmlns="http://www.w3.org/2000/svg" width="550" height="112">
         <defs>
            <style type="text/css">
               @namespace "http://www.w3.org/2000/svg";
               .line                 {fill: none; stroke: #1F1F1F;}
               .bold-line            {stroke: #0A0A0A; shape-rendering: crispEdges; stroke-width:
               2; }
               .thin-line            {stroke: #0F0F0F; shape-rendering: crispEdges}
               .filled               {fill: #1F1F1F; stroke: none;}
               text.terminal         {font-family: Verdana, Sans-serif;
               font-size: 12px;
               fill: #0A0A0A;
               font-weight: bold;
               }
               text.nonterminal      {font-family: Verdana, Sans-serif; font-style: italic;
               font-size: 12px;
               fill: #0D0D0D;
               }
               text.regexp           {font-family: Verdana, Sans-serif;
               font-size: 12px;
               fill: #0F0F0F;
               }
               rect, circle, polygon {fill: #1F1F1F; stroke: #1F1F1F;}
               rect.terminal         {fill: #CCCCCC; stroke: #1F1F1F;}
               rect.nonterminal      {fill: #E3E3E3; stroke: #1F1F1F;}
               rect.text             {fill: none; stroke: none;}    
               polygon.regexp        {fill: #EFEFEF; stroke: #1F1F1F;}
               
            </style>
         </defs>
         <polygon points="9 17 1 13 1 21"/>
         <polygon points="17 17 9 13 9 21"/>
         <rect x="31" y="3" width="102" height="32" rx="10"/>
         <rect x="29" y="1" width="102" height="32" class="terminal" rx="10"/>
         <text class="terminal" x="39" y="21">makeString(</text>
         <rect x="193" y="35" width="62" height="32" rx="10"/>
         <rect x="191" y="33" width="62" height="32" class="terminal" rx="10"/>
         <text class="terminal" x="201" y="53">"Line"</text>
         <rect x="315" y="35" width="24" height="32" rx="10"/>
         <rect x="313" y="33" width="24" height="32" class="terminal" rx="10"/>
         <text class="terminal" x="323" y="53">,</text>
<!--     <a xmlns:xlink="http://www.w3.org/1999/xlink" xlink:href="#separator" xlink:title="separator"> -->
            <rect x="359" y="35" width="78" height="32"/>
            <rect x="357" y="33" width="78" height="32" class="nonterminal"/>
            <text class="nonterminal" x="367" y="53">separator</text>
<!--     </a> -->
         <rect x="173" y="79" width="64" height="32" rx="10"/>
         <rect x="171" y="77" width="64" height="32" class="terminal" rx="10"/>
         <text class="terminal" x="181" y="97">"Char"</text>
         <rect x="497" y="3" width="26" height="32" rx="10"/>
         <rect x="495" y="1" width="26" height="32" class="terminal" rx="10"/>
         <text class="terminal" x="505" y="21">)</text>
         <svg:path xmlns:svg="http://www.w3.org/2000/svg" class="line" d="m17 17 h2 m0 0 h10 m102 0 h10 m40 0 h10 m0 0 h72 m-102 0 h20 m82 0 h20 m-122 0 q10 0 10 10 m102 0 q0 -10 10 -10 m-112 10 v12 m102 0 v-12 m-102 12 q0 10 10 10 m82 0 q10 0 10 -10 m-92 10 h10 m62 0 h10 m40 -32 h10 m0 0 h132 m-162 0 h20 m142 0 h20 m-182 0 q10 0 10 10 m162 0 q0 -10 10 -10 m-172 10 v12 m162 0 v-12 m-162 12 q0 10 10 10 m142 0 q10 0 10 -10 m-152 10 h10 m24 0 h10 m0 0 h10 m78 0 h10 m-304 -32 h20 m304 0 h20 m-344 0 q10 0 10 10 m324 0 q0 -10 10 -10 m-334 10 v56 m324 0 v-56 m-324 56 q0 10 10 10 m304 0 q10 0 10 -10 m-314 10 h10 m64 0 h10 m0 0 h220 m20 -76 h10 m26 0 h10 m3 0 h-3"/>
         <polygon points="541 17 549 13 549 21"/>
         <polygon points="541 17 533 13 533 21"/>
      </svg>
