      <svg xmlns="http://www.w3.org/2000/svg" width="290" height="102">
         <defs>
            <style type="text/css">
               @namespace "http://www.w3.org/2000/svg";
               .line                 {fill: none; stroke: #1F1F1F;}
               .bold-line            {stroke: #0A0A0A; shape-rendering: crispEdges; stroke-width:
               2; }
               .thin-line            {stroke: #0F0F0F; shape-rendering: crispEdges}
               .filled               {fill: #1F1F1F; stroke: none;}
               text.terminal         {font-family: Verdana, Sans-serif;
               font-size: 12px;
               fill: #0A0A0A;
               font-weight: bold;
               }
               text.nonterminal      {font-family: Verdana, Sans-serif; font-style: italic;
               font-size: 12px;
               fill: #0D0D0D;
               }
               text.regexp           {font-family: Verdana, Sans-serif;
               font-size: 12px;
               fill: #0F0F0F;
               }
               rect, circle, polygon {fill: #1F1F1F; stroke: #1F1F1F;}
               rect.terminal         {fill: #CCCCCC; stroke: #1F1F1F;}
               rect.nonterminal      {fill: #E3E3E3; stroke: #1F1F1F;}
               rect.text             {fill: none; stroke: none;}    
               polygon.regexp        {fill: #EFEFEF; stroke: #1F1F1F;}
               
            </style>
         </defs>
         <polygon points="9 51 1 47 1 55"/>
         <polygon points="17 51 9 47 9 55"/>
         <rect x="31" y="37" width="40" height="32" rx="10"/>
         <rect x="29" y="35" width="40" height="32" class="terminal" rx="10"/>
         <text class="terminal" x="39" y="55">of(</text>
<!--     <a xmlns:xlink="http://www.w3.org/1999/xlink" xlink:href="#item" xlink:title="item"> -->
            <rect x="131" y="69" width="46" height="32"/>
            <rect x="129" y="67" width="46" height="32" class="nonterminal"/>
            <text class="nonterminal" x="139" y="87">item</text>
<!--     </a> -->
         <rect x="111" y="3" width="24" height="32" rx="10"/>
         <rect x="109" y="1" width="24" height="32" class="terminal" rx="10"/>
         <text class="terminal" x="119" y="21">,</text>
         <rect x="237" y="37" width="26" height="32" rx="10"/>
         <rect x="235" y="35" width="26" height="32" class="terminal" rx="10"/>
         <text class="terminal" x="245" y="55">)</text>
         <svg:path xmlns:svg="http://www.w3.org/2000/svg" class="line" d="m17 51 h2 m0 0 h10 m40 0 h10 m40 0 h10 m0 0 h56 m-86 0 h20 m66 0 h20 m-106 0 q10 0 10 10 m86 0 q0 -10 10 -10 m-96 10 v12 m86 0 v-12 m-86 12 q0 10 10 10 m66 0 q10 0 10 -10 m-76 10 h10 m46 0 h10 m-106 -32 l20 0 m-1 0 q-9 0 -9 -10 l0 -14 q0 -10 10 -10 m106 34 l20 0 m-20 0 q10 0 10 -10 l0 -14 q0 -10 -10 -10 m-106 0 h10 m24 0 h10 m0 0 h62 m20 34 h10 m26 0 h10 m3 0 h-3"/>
         <polygon points="281 51 289 47 289 55"/>
         <polygon points="281 51 273 47 273 55"/>
      </svg>
