      <svg xmlns="http://www.w3.org/2000/svg" width="336" height="52">
         <defs>
            <style type="text/css">
               @namespace "http://www.w3.org/2000/svg";
               .line                 {fill: none; stroke: #1F1F1F;}
               .bold-line            {stroke: #0A0A0A; shape-rendering: crispEdges; stroke-width:
               2; }
               .thin-line            {stroke: #0F0F0F; shape-rendering: crispEdges}
               .filled               {fill: #1F1F1F; stroke: none;}
               text.terminal         {font-family: Verdana, Sans-serif;
               font-size: 12px;
               fill: #0A0A0A;
               font-weight: bold;
               }
               text.nonterminal      {font-family: Verdana, Sans-serif;
               font-size: 12px;
               fill: #0D0D0D;
               }
               text.regexp           {font-family: Verdana, Sans-serif;
               font-size: 12px;
               fill: #0F0F0F;
               }
               rect, circle, polygon {fill: #1F1F1F; stroke: #1F1F1F;}
               rect.terminal         {fill: #CCCCCC; stroke: #1F1F1F;}
               rect.nonterminal      {fill: #E3E3E3; stroke: #1F1F1F;}
               rect.text             {fill: none; stroke: none;}    
               polygon.regexp        {fill: #EFEFEF; stroke: #1F1F1F;}
               
            </style>
         </defs>
         <polygon points="9 17 1 13 1 21"/>
         <polygon points="17 17 9 13 9 21"/>
         <rect x="31" y="3" width="72" height="32" rx="10"/>
         <rect x="29" y="1" width="72" height="32" class="terminal" rx="10"/>
         <text class="terminal" x="39" y="21">supplier</text>
         <rect x="143" y="3" width="26" height="32" rx="10"/>
         <rect x="141" y="1" width="26" height="32" class="terminal" rx="10"/>
         <text class="terminal" x="151" y="21">(</text>
         <a xmlns:xlink="http://www.w3.org/1999/xlink" xlink:href="#index" xlink:title="index">
            <rect x="189" y="3" width="54" height="32"/>
            <rect x="187" y="1" width="54" height="32" class="nonterminal"/>
            <text class="nonterminal" x="197" y="21">index</text>
         </a>
         <rect x="263" y="3" width="26" height="32" rx="10"/>
         <rect x="261" y="1" width="26" height="32" class="terminal" rx="10"/>
         <text class="terminal" x="271" y="21">)</text>
         <svg:path xmlns:svg="http://www.w3.org/2000/svg" class="line" d="m17 17 h2 m0 0 h10 m72 0 h10 m20 0 h10 m26 0 h10 m0 0 h10 m54 0 h10 m0 0 h10 m26 0 h10 m-186 0 h20 m166 0 h20 m-206 0 q10 0 10 10 m186 0 q0 -10 10 -10 m-196 10 v14 m186 0 v-14 m-186 14 q0 10 10 10 m166 0 q10 0 10 -10 m-176 10 h10 m0 0 h156 m23 -34 h-3"/>
         <polygon points="327 17 335 13 335 21"/>
         <polygon points="327 17 319 13 319 21"/>
      </svg>
