<svg xmlns="http://www.w3.org/2000/svg" width="453" height="113">
         <defs>
            <style type="text/css">
               @namespace "http://www.w3.org/2000/svg";
               .line                 {fill: none; stroke: #1F1F1F;}
               .bold-line            {stroke: #0A0A0A; shape-rendering: crispEdges; stroke-width:
               2; }
               .thin-line            {stroke: #0F0F0F; shape-rendering: crispEdges}
               .filled               {fill: #1F1F1F; stroke: none;}
               text.terminal         {font-family: Verdana, Sans-serif;
               font-size: 12px;
               fill: #0A0A0A;
               font-weight: bold;
               }
               text.nonterminal      {font-family: Verdana, Sans-serif; font-style: italic;
               font-size: 12px;
               fill: #0D0D0D;
               }
               text.regexp           {font-family: Verdana, Sans-serif;
               font-size: 12px;
               fill: #0F0F0F;
               }
               rect, circle, polygon {fill: #1F1F1F; stroke: #1F1F1F;}
               rect.terminal         {fill: #CCCCCC; stroke: #1F1F1F;}
               rect.nonterminal      {fill: #E3E3E3; stroke: #1F1F1F;}
               rect.text             {fill: none; stroke: none;}
               polygon.regexp        {fill: #EFEFEF; stroke: #1F1F1F;}

            </style>
         </defs>

         <polygon points="9 17 1 13 1 21"/>
         <polygon points="17 17 9 13 9 21"/>
         <rect x="31" y="3" width="68" height="32" rx="10"/>
         <rect x="29" y="1" width="68" height="32" class="terminal" rx="10"/>
         <text class="terminal" x="39" y="21">queue(</text><a xmlns:xlink="http://www.w3.org/1999/xlink" xlink:href="#item" xlink:title="item">
            <rect x="119" y="3" width="48" height="32"/>
            <rect x="117" y="1" width="48" height="32" class="nonterminal"/>
            <text class="nonterminal" x="127" y="21">item</text></a><rect x="207" y="35" width="24" height="32" rx="10"/>
         <rect x="205" y="33" width="24" height="32" class="terminal" rx="10"/>
         <text class="terminal" x="215" y="53">,</text>
         <rect x="271" y="35" width="68" height="32" rx="10"/>
         <rect x="269" y="33" width="68" height="32" class="terminal" rx="10"/>
         <text class="terminal" x="279" y="53">Normal</text>
         <rect x="271" y="79" width="66" height="32" rx="10"/>
         <rect x="269" y="77" width="66" height="32" class="terminal" rx="10"/>
         <text class="terminal" x="279" y="97">Unique</text>
         <rect x="399" y="3" width="26" height="32" rx="10"/>
         <rect x="397" y="1" width="26" height="32" class="terminal" rx="10"/>
         <text class="terminal" x="407" y="21">)</text>
         <path class="line" d="m17 17 h2 m0 0 h10 m68 0 h10 m0 0 h10 m48 0 h10 m20 0 h10 m0 0 h162 m-192 0 h20 m172 0 h20 m-212 0 q10 0 10 10 m192 0 q0 -10 10 -10 m-202 10 v12 m192 0 v-12 m-192 12 q0 10 10 10 m172 0 q10 0 10 -10 m-182 10 h10 m24 0 h10 m20 0 h10 m68 0 h10 m-108 0 h20 m88 0 h20 m-128 0 q10 0 10 10 m108 0 q0 -10 10 -10 m-118 10 v24 m108 0 v-24 m-108 24 q0 10 10 10 m88 0 q10 0 10 -10 m-98 10 h10 m66 0 h10 m0 0 h2 m40 -76 h10 m26 0 h10 m3 0 h-3"/>
         <polygon points="443 17 451 13 451 21"/>
         <polygon points="443 17 435 13 435 21"/>
</svg>