      <svg xmlns="http://www.w3.org/2000/svg" width="638" height="68">
         <defs>
            <style type="text/css">
               @namespace "http://www.w3.org/2000/svg";
               .line                 {fill: none; stroke: #1F1F1F;}
               .bold-line            {stroke: #0A0A0A; shape-rendering: crispEdges; stroke-width:
               2; }
               .thin-line            {stroke: #0F0F0F; shape-rendering: crispEdges}
               .filled               {fill: #1F1F1F; stroke: none;}
               text.terminal         {font-family: Verdana, Sans-serif;
               font-size: 12px;
               fill: #0A0A0A;
               font-weight: bold;
               }
               text.nonterminal      {font-family: Verdana, Sans-serif; font-style: italic;
               font-size: 12px;
               fill: #0D0D0D;
               }
               text.regexp           {font-family: Verdana, Sans-serif;
               font-size: 12px;
               fill: #0F0F0F;
               }
               rect, circle, polygon {fill: #1F1F1F; stroke: #1F1F1F;}
               rect.terminal         {fill: #CCCCCC; stroke: #1F1F1F;}
               rect.nonterminal      {fill: #E3E3E3; stroke: #1F1F1F;}
               rect.text             {fill: none; stroke: none;}    
               polygon.regexp        {fill: #EFEFEF; stroke: #1F1F1F;}
               
            </style>
         </defs>
         <polygon points="9 17 1 13 1 21"/>
         <polygon points="17 17 9 13 9 21"/>
         <rect x="31" y="3" width="96" height="32" rx="10"/>
         <rect x="29" y="1" width="96" height="32" class="terminal" rx="10"/>
         <text class="terminal" x="39" y="21">mixinClass(</text>
<!--     <a xmlns:xlink="http://www.w3.org/1999/xlink" xlink:href="#classid" xlink:title="classid"> -->
            <rect x="147" y="3" width="58" height="32"/>
            <rect x="145" y="1" width="58" height="32" class="nonterminal"/>
            <text class="nonterminal" x="155" y="21">classid</text>
<!--     </a> -->
         <rect x="225" y="3" width="24" height="32" rx="10"/>
         <rect x="223" y="1" width="24" height="32" class="terminal" rx="10"/>
         <text class="terminal" x="233" y="21">,</text>
<!--     <a xmlns:xlink="http://www.w3.org/1999/xlink" xlink:href="#metaclass" xlink:title="metaclass"> -->
            <rect x="289" y="35" width="80" height="32"/>
            <rect x="287" y="33" width="80" height="32" class="nonterminal"/>
            <text class="nonterminal" x="297" y="53">metaclass</text>
<!--     </a> -->
         <rect x="429" y="35" width="24" height="32" rx="10"/>
         <rect x="427" y="33" width="24" height="32" class="terminal" rx="10"/>
         <text class="terminal" x="437" y="53">,</text>
<!--     <a xmlns:xlink="http://www.w3.org/1999/xlink" xlink:href="#methods" xlink:title="methods"> -->
            <rect x="473" y="35" width="72" height="32"/>
            <rect x="471" y="33" width="72" height="32" class="nonterminal"/>
            <text class="nonterminal" x="481" y="53">methods</text>
<!--     </a> -->
         <rect x="585" y="3" width="26" height="32" rx="10"/>
         <rect x="583" y="1" width="26" height="32" class="terminal" rx="10"/>
         <text class="terminal" x="593" y="21">)</text>
         <svg:path xmlns:svg="http://www.w3.org/2000/svg" class="line" d="m17 17 h2 m0 0 h10 m96 0 h10 m0 0 h10 m58 0 h10 m0 0 h10 m24 0 h10 m20 0 h10 m0 0 h90 m-120 0 h20 m100 0 h20 m-140 0 q10 0 10 10 m120 0 q0 -10 10 -10 m-130 10 v12 m120 0 v-12 m-120 12 q0 10 10 10 m100 0 q10 0 10 -10 m-110 10 h10 m80 0 h10 m40 -32 h10 m0 0 h126 m-156 0 h20 m136 0 h20 m-176 0 q10 0 10 10 m156 0 q0 -10 10 -10 m-166 10 v12 m156 0 v-12 m-156 12 q0 10 10 10 m136 0 q10 0 10 -10 m-146 10 h10 m24 0 h10 m0 0 h10 m72 0 h10 m20 -32 h10 m26 0 h10 m3 0 h-3"/>
         <polygon points="629 17 637 13 637 21"/>
         <polygon points="629 17 621 13 621 21"/>
      </svg>
