      <svg xmlns="http://www.w3.org/2000/svg" width="632" height="68">
         <defs>
            <style type="text/css">
               @namespace "http://www.w3.org/2000/svg";
               .line                 {fill: none; stroke: #1F1F1F;}
               .bold-line            {stroke: #0A0A0A; shape-rendering: crispEdges; stroke-width:
               2; }
               .thin-line            {stroke: #0F0F0F; shape-rendering: crispEdges}
               .filled               {fill: #1F1F1F; stroke: none;}
               text.terminal         {font-family: Verdana, Sans-serif;
               font-size: 12px;
               fill: #0A0A0A;
               font-weight: bold;
               }
               text.nonterminal      {font-family: Verdana, Sans-serif;
               font-size: 12px;
               fill: #0D0D0D;
               }
               text.regexp           {font-family: Verdana, Sans-serif;
               font-size: 12px;
               fill: #0F0F0F;
               }
               rect, circle, polygon {fill: #1F1F1F; stroke: #1F1F1F;}
               rect.terminal         {fill: #CCCCCC; stroke: #1F1F1F;}
               rect.nonterminal      {fill: #E3E3E3; stroke: #1F1F1F;}
               rect.text             {fill: none; stroke: none;}    
               polygon.regexp        {fill: #EFEFEF; stroke: #1F1F1F;}
               
            </style>
         </defs>
         <polygon points="9 17 1 13 1 21"/>
         <polygon points="17 17 9 13 9 21"/>
         <rect x="31" y="3" width="82" height="32" rx="10"/>
         <rect x="29" y="1" width="82" height="32" class="terminal" rx="10"/>
         <text class="terminal" x="39" y="21">subclass(</text>
         <a xmlns:xlink="http://www.w3.org/1999/xlink" xlink:href="#classid" xlink:title="classid">
            <rect x="133" y="3" width="62" height="32"/>
            <rect x="131" y="1" width="62" height="32" class="nonterminal"/>
            <text class="nonterminal" x="141" y="21">classid</text>
         </a>
         <rect x="235" y="3" width="24" height="32" rx="10"/>
         <rect x="233" y="1" width="24" height="32" class="terminal" rx="10"/>
         <text class="terminal" x="243" y="21">,</text>
         <a xmlns:xlink="http://www.w3.org/1999/xlink" xlink:href="#metaclass" xlink:title="metaclass">
            <rect x="279" y="3" width="82" height="32"/>
            <rect x="277" y="1" width="82" height="32" class="nonterminal"/>
            <text class="nonterminal" x="287" y="21">metaclass</text>
         </a>
         <rect x="401" y="3" width="24" height="32" rx="10"/>
         <rect x="399" y="1" width="24" height="32" class="terminal" rx="10"/>
         <text class="terminal" x="409" y="21">,</text>
         <a xmlns:xlink="http://www.w3.org/1999/xlink" xlink:href="#methods" xlink:title="methods">
            <rect x="445" y="3" width="74" height="32"/>
            <rect x="443" y="1" width="74" height="32" class="nonterminal"/>
            <text class="nonterminal" x="453" y="21">methods</text>
         </a>
         <rect x="579" y="3" width="26" height="32" rx="10"/>
         <rect x="577" y="1" width="26" height="32" class="terminal" rx="10"/>
         <text class="terminal" x="587" y="21">)</text>
         <svg:path xmlns:svg="http://www.w3.org/2000/svg" class="line" d="m17 17 h2 m0 0 h10 m82 0 h10 m0 0 h10 m62 0 h10 m20 0 h10 m24 0 h10 m0 0 h10 m82 0 h10 m20 0 h10 m24 0 h10 m0 0 h10 m74 0 h10 m-158 0 h20 m138 0 h20 m-178 0 q10 0 10 10 m158 0 q0 -10 10 -10 m-168 10 v14 m158 0 v-14 m-158 14 q0 10 10 10 m138 0 q10 0 10 -10 m-148 10 h10 m0 0 h128 m-324 -34 h20 m324 0 h20 m-364 0 q10 0 10 10 m344 0 q0 -10 10 -10 m-354 10 v30 m344 0 v-30 m-344 30 q0 10 10 10 m324 0 q10 0 10 -10 m-334 10 h10 m0 0 h314 m20 -50 h10 m26 0 h10 m3 0 h-3"/>
         <polygon points="623 17 631 13 631 21"/>
         <polygon points="623 17 615 13 615 21"/>
      </svg>
