      <svg xmlns="http://www.w3.org/2000/svg" width="442" height="68">
         <defs>
            <style type="text/css">
               @namespace "http://www.w3.org/2000/svg";
               .line                 {fill: none; stroke: #1F1F1F;}
               .bold-line            {stroke: #0A0A0A; shape-rendering: crispEdges; stroke-width:
               2; }
               .thin-line            {stroke: #0F0F0F; shape-rendering: crispEdges}
               .filled               {fill: #1F1F1F; stroke: none;}
               text.terminal         {font-family: Verdana, Sans-serif;
               font-size: 12px;
               fill: #0A0A0A;
               font-weight: bold;
               }
               text.nonterminal      {font-family: Verdana, Sans-serif;
               font-size: 12px;
               fill: #0D0D0D;
               }
               text.regexp           {font-family: Verdana, Sans-serif;
               font-size: 12px;
               fill: #0F0F0F;
               }
               rect, circle, polygon {fill: #1F1F1F; stroke: #1F1F1F;}
               rect.terminal         {fill: #CCCCCC; stroke: #1F1F1F;}
               rect.nonterminal      {fill: #E3E3E3; stroke: #1F1F1F;}
               rect.text             {fill: none; stroke: none;}    
               polygon.regexp        {fill: #EFEFEF; stroke: #1F1F1F;}
               
            </style>
         </defs>
         <polygon points="9 33 1 29 1 37"/>
         <polygon points="17 33 9 29 9 37"/>
         <rect x="31" y="19" width="48" height="32" rx="10"/>
         <rect x="29" y="17" width="48" height="32" class="terminal" rx="10"/>
         <text class="terminal" x="39" y="37">new</text>
         <rect x="119" y="19" width="26" height="32" rx="10"/>
         <rect x="117" y="17" width="26" height="32" class="terminal" rx="10"/>
         <text class="terminal" x="127" y="37">(</text>
         <a xmlns:xlink="http://www.w3.org/1999/xlink" xlink:href="#arg" xlink:title="arg">
            <rect x="165" y="19" width="40" height="32"/>
            <rect x="163" y="17" width="40" height="32" class="nonterminal"/>
            <text class="nonterminal" x="173" y="37">arg</text>
         </a>
         <rect x="245" y="19" width="24" height="32" rx="10"/>
         <rect x="243" y="17" width="24" height="32" class="terminal" rx="10"/>
         <text class="terminal" x="253" y="37">,</text>
         <a xmlns:xlink="http://www.w3.org/1999/xlink" xlink:href="#arg" xlink:title="arg">
            <rect x="289" y="19" width="40" height="32"/>
            <rect x="287" y="17" width="40" height="32" class="nonterminal"/>
            <text class="nonterminal" x="297" y="37">arg</text>
         </a>
         <rect x="369" y="19" width="26" height="32" rx="10"/>
         <rect x="367" y="17" width="26" height="32" class="terminal" rx="10"/>
         <text class="terminal" x="377" y="37">)</text>
         <svg:path xmlns:svg="http://www.w3.org/2000/svg" class="line" d="m17 33 h2 m0 0 h10 m48 0 h10 m20 0 h10 m26 0 h10 m0 0 h10 m40 0 h10 m20 0 h10 m24 0 h10 m0 0 h10 m40 0 h10 m-124 0 l20 0 m-1 0 q-9 0 -9 -10 l0 -12 q0 -10 10 -10 m104 32 l20 0 m-20 0 q10 0 10 -10 l0 -12 q0 -10 -10 -10 m-104 0 h10 m0 0 h94 m20 32 h10 m26 0 h10 m-316 0 h20 m296 0 h20 m-336 0 q10 0 10 10 m316 0 q0 -10 10 -10 m-326 10 v14 m316 0 v-14 m-316 14 q0 10 10 10 m296 0 q10 0 10 -10 m-306 10 h10 m0 0 h286 m23 -34 h-3"/>
         <polygon points="433 33 441 29 441 37"/>
         <polygon points="433 33 425 29 425 37"/>
      </svg>
