      <svg xmlns="http://www.w3.org/2000/svg" width="472" height="52">
         <defs>
            <style type="text/css">
               @namespace "http://www.w3.org/2000/svg";
               .line                 {fill: none; stroke: #1F1F1F;}
               .bold-line            {stroke: #0A0A0A; shape-rendering: crispEdges; stroke-width:
               2; }
               .thin-line            {stroke: #0F0F0F; shape-rendering: crispEdges}
               .filled               {fill: #1F1F1F; stroke: none;}
               text.terminal         {font-family: Verdana, Sans-serif;
               font-size: 12px;
               fill: #0A0A0A;
               font-weight: bold;
               }
               text.nonterminal      {font-family: Verdana, Sans-serif;
               font-size: 12px;
               fill: #0D0D0D;
               }
               text.regexp           {font-family: Verdana, Sans-serif;
               font-size: 12px;
               fill: #0F0F0F;
               }
               rect, circle, polygon {fill: #1F1F1F; stroke: #1F1F1F;}
               rect.terminal         {fill: #CCCCCC; stroke: #1F1F1F;}
               rect.nonterminal      {fill: #E3E3E3; stroke: #1F1F1F;}
               rect.text             {fill: none; stroke: none;}    
               polygon.regexp        {fill: #EFEFEF; stroke: #1F1F1F;}
               
            </style>
         </defs>
         <polygon points="9 17 1 13 1 21"/>
         <polygon points="17 17 9 13 9 21"/>
         <rect x="31" y="3" width="90" height="32" rx="10"/>
         <rect x="29" y="1" width="90" height="32" class="terminal" rx="10"/>
         <text class="terminal" x="39" y="21">enhanced(</text>
         <a xmlns:xlink="http://www.w3.org/1999/xlink" xlink:href="#methods" xlink:title="methods">
            <rect x="141" y="3" width="74" height="32"/>
            <rect x="139" y="1" width="74" height="32" class="nonterminal"/>
            <text class="nonterminal" x="149" y="21">methods</text>
         </a>
         <rect x="255" y="3" width="24" height="32" rx="10"/>
         <rect x="253" y="1" width="24" height="32" class="terminal" rx="10"/>
         <text class="terminal" x="263" y="21">,</text>
         <a xmlns:xlink="http://www.w3.org/1999/xlink" xlink:href="#argument" xlink:title="argument">
            <rect x="299" y="3" width="80" height="32"/>
            <rect x="297" y="1" width="80" height="32" class="nonterminal"/>
            <text class="nonterminal" x="307" y="21">argument</text>
         </a>
         <rect x="419" y="3" width="26" height="32" rx="10"/>
         <rect x="417" y="1" width="26" height="32" class="terminal" rx="10"/>
         <text class="terminal" x="427" y="21">)</text>
         <svg:path xmlns:svg="http://www.w3.org/2000/svg" class="line" d="m17 17 h2 m0 0 h10 m90 0 h10 m0 0 h10 m74 0 h10 m20 0 h10 m24 0 h10 m0 0 h10 m80 0 h10 m-164 0 h20 m144 0 h20 m-184 0 q10 0 10 10 m164 0 q0 -10 10 -10 m-174 10 v14 m164 0 v-14 m-164 14 q0 10 10 10 m144 0 q10 0 10 -10 m-154 10 h10 m0 0 h134 m20 -34 h10 m26 0 h10 m3 0 h-3"/>
         <polygon points="463 17 471 13 471 21"/>
         <polygon points="463 17 455 13 455 21"/>
      </svg>
