      <svg xmlns="http://www.w3.org/2000/svg" width="442" height="52">
         <defs>
            <style type="text/css">
               @namespace "http://www.w3.org/2000/svg";
               .line                 {fill: none; stroke: #1F1F1F;}
               .bold-line            {stroke: #0A0A0A; shape-rendering: crispEdges; stroke-width:
               2; }
               .thin-line            {stroke: #0F0F0F; shape-rendering: crispEdges}
               .filled               {fill: #1F1F1F; stroke: none;}
               text.terminal         {font-family: Verdana, Sans-serif;
               font-size: 12px;
               fill: #0A0A0A;
               font-weight: bold;
               }
               text.nonterminal      {font-family: Verdana, Sans-serif;
               font-size: 12px;
               fill: #0D0D0D;
               }
               text.regexp           {font-family: Verdana, Sans-serif;
               font-size: 12px;
               fill: #0F0F0F;
               }
               rect, circle, polygon {fill: #1F1F1F; stroke: #1F1F1F;}
               rect.terminal         {fill: #CCCCCC; stroke: #1F1F1F;}
               rect.nonterminal      {fill: #E3E3E3; stroke: #1F1F1F;}
               rect.text             {fill: none; stroke: none;}    
               polygon.regexp        {fill: #EFEFEF; stroke: #1F1F1F;}
               
            </style>
         </defs>
         <polygon points="9 17 1 13 1 21"/>
         <polygon points="17 17 9 13 9 21"/>
         <rect x="31" y="3" width="70" height="32" rx="10"/>
         <rect x="29" y="1" width="70" height="32" class="terminal" rx="10"/>
         <text class="terminal" x="39" y="21">inherit(</text>
         <a xmlns:xlink="http://www.w3.org/1999/xlink" xlink:href="#classobj" xlink:title="classobj">
            <rect x="121" y="3" width="70" height="32"/>
            <rect x="119" y="1" width="70" height="32" class="nonterminal"/>
            <text class="nonterminal" x="129" y="21">classobj</text>
         </a>
         <rect x="231" y="3" width="24" height="32" rx="10"/>
         <rect x="229" y="1" width="24" height="32" class="terminal" rx="10"/>
         <text class="terminal" x="239" y="21">,</text>
         <a xmlns:xlink="http://www.w3.org/1999/xlink" xlink:href="#classpos" xlink:title="classpos">
            <rect x="275" y="3" width="74" height="32"/>
            <rect x="273" y="1" width="74" height="32" class="nonterminal"/>
            <text class="nonterminal" x="283" y="21">classpos</text>
         </a>
         <rect x="389" y="3" width="26" height="32" rx="10"/>
         <rect x="387" y="1" width="26" height="32" class="terminal" rx="10"/>
         <text class="terminal" x="397" y="21">)</text>
         <svg:path xmlns:svg="http://www.w3.org/2000/svg" class="line" d="m17 17 h2 m0 0 h10 m70 0 h10 m0 0 h10 m70 0 h10 m20 0 h10 m24 0 h10 m0 0 h10 m74 0 h10 m-158 0 h20 m138 0 h20 m-178 0 q10 0 10 10 m158 0 q0 -10 10 -10 m-168 10 v14 m158 0 v-14 m-158 14 q0 10 10 10 m138 0 q10 0 10 -10 m-148 10 h10 m0 0 h128 m20 -34 h10 m26 0 h10 m3 0 h-3"/>
         <polygon points="433 17 441 13 441 21"/>
         <polygon points="433 17 425 13 425 21"/>
      </svg>
