<svg xmlns="http://www.w3.org/2000/svg" width="379" height="53">
         <defs>
            <style type="text/css">
               @namespace "http://www.w3.org/2000/svg";
               .line                 {fill: none; stroke: #1F1F1F;}
               .bold-line            {stroke: #0A0A0A; shape-rendering: crispEdges; stroke-width:
               2; }
               .thin-line            {stroke: #0F0F0F; shape-rendering: crispEdges}
               .filled               {fill: #1F1F1F; stroke: none;}
               text.terminal         {font-family: Verdana, Sans-serif;
               font-size: 12px;
               fill: #0A0A0A;
               font-weight: bold;
               }
               text.nonterminal      {font-family: Verdana, Sans-serif; font-style: italic;
               font-size: 12px;
               fill: #0D0D0D;
               }
               text.regexp           {font-family: Verdana, Sans-serif;
               font-size: 12px;
               fill: #0F0F0F;
               }
               rect, circle, polygon {fill: #1F1F1F; stroke: #1F1F1F;}
               rect.terminal         {fill: #CCCCCC; stroke: #1F1F1F;}
               rect.nonterminal      {fill: #E3E3E3; stroke: #1F1F1F;}
               rect.text             {fill: none; stroke: none;}
               polygon.regexp        {fill: #EFEFEF; stroke: #1F1F1F;}

            </style>
         </defs>

         <polygon points="9 33 1 29 1 37"/>
         <polygon points="17 33 9 29 9 37"/>
         <rect x="31" y="19" width="48" height="32" rx="10"/>
         <rect x="29" y="17" width="48" height="32" class="terminal" rx="10"/>
         <text class="terminal" x="39" y="37">put(</text><a xmlns:xlink="http://www.w3.org/1999/xlink" xlink:href="#item" xlink:title="item">
            <rect x="99" y="19" width="48" height="32"/>
            <rect x="97" y="17" width="48" height="32" class="nonterminal"/>
            <text class="nonterminal" x="107" y="37">item</text></a><rect x="187" y="19" width="24" height="32" rx="10"/>
         <rect x="185" y="17" width="24" height="32" class="terminal" rx="10"/>
         <text class="terminal" x="195" y="37">,</text><a xmlns:xlink="http://www.w3.org/1999/xlink" xlink:href="#index" xlink:title="index">
            <rect x="231" y="19" width="54" height="32"/>
            <rect x="229" y="17" width="54" height="32" class="nonterminal"/>
            <text class="nonterminal" x="239" y="37">index</text></a><rect x="325" y="19" width="26" height="32" rx="10"/>
         <rect x="323" y="17" width="26" height="32" class="terminal" rx="10"/>
         <text class="terminal" x="333" y="37">)</text>
         <path class="line" d="m17 33 h2 m0 0 h10 m48 0 h10 m0 0 h10 m48 0 h10 m20 0 h10 m24 0 h10 m0 0 h10 m54 0 h10 m-138 0 l20 0 m-1 0 q-9 0 -9 -10 l0 -12 q0 -10 10 -10 m118 32 l20 0 m-20 0 q10 0 10 -10 l0 -12 q0 -10 -10 -10 m-118 0 h10 m0 0 h108 m20 32 h10 m26 0 h10 m3 0 h-3"/>
         <polygon points="369 33 377 29 377 37"/>
         <polygon points="369 33 361 29 361 37"/>
</svg>