      <svg xmlns="http://www.w3.org/2000/svg" width="460" height="96">
         <defs>
            <style type="text/css">
               @namespace "http://www.w3.org/2000/svg";
               .line                 {fill: none; stroke: #1F1F1F;}
               .bold-line            {stroke: #0A0A0A; shape-rendering: crispEdges; stroke-width:
               2; }
               .thin-line            {stroke: #0F0F0F; shape-rendering: crispEdges}
               .filled               {fill: #1F1F1F; stroke: none;}
               text.terminal         {font-family: Verdana, Sans-serif;
               font-size: 12px;
               fill: #0A0A0A;
               font-weight: bold;
               }
               text.nonterminal      {font-family: Verdana, Sans-serif;
               font-size: 12px;
               fill: #0D0D0D;
               }
               text.regexp           {font-family: Verdana, Sans-serif;
               font-size: 12px;
               fill: #0F0F0F;
               }
               rect, circle, polygon {fill: #1F1F1F; stroke: #1F1F1F;}
               rect.terminal         {fill: #CCCCCC; stroke: #1F1F1F;}
               rect.nonterminal      {fill: #E3E3E3; stroke: #1F1F1F;}
               rect.text             {fill: none; stroke: none;}    
               polygon.regexp        {fill: #EFEFEF; stroke: #1F1F1F;}
               
            </style>
         </defs>
         <polygon points="9 17 1 13 1 21"/>
         <polygon points="17 17 9 13 9 21"/>
         <rect x="31" y="3" width="64" height="32" rx="10"/>
         <rect x="29" y="1" width="64" height="32" class="terminal" rx="10"/>
         <text class="terminal" x="39" y="21">string(</text>
         <rect x="135" y="3" width="38" height="32" rx="10"/>
         <rect x="133" y="1" width="38" height="32" class="terminal" rx="10"/>
         <text class="terminal" x="143" y="21">","</text>
         <a xmlns:xlink="http://www.w3.org/1999/xlink" xlink:href="#delimiter" xlink:title="delimiter">
            <rect x="135" y="47" width="74" height="32"/>
            <rect x="133" y="45" width="74" height="32" class="nonterminal"/>
            <text class="nonterminal" x="143" y="65">delimiter</text>
         </a>
         <rect x="269" y="3" width="24" height="32" rx="10"/>
         <rect x="267" y="1" width="24" height="32" class="terminal" rx="10"/>
         <text class="terminal" x="277" y="21">,</text>
         <rect x="313" y="3" width="44" height="32" rx="10"/>
         <rect x="311" y="1" width="44" height="32" class="terminal" rx="10"/>
         <text class="terminal" x="321" y="21">Fifo</text>
         <rect x="269" y="47" width="24" height="32" rx="10"/>
         <rect x="267" y="45" width="24" height="32" class="terminal" rx="10"/>
         <text class="terminal" x="277" y="65">,</text>
         <a xmlns:xlink="http://www.w3.org/1999/xlink" xlink:href="#order" xlink:title="order">
            <rect x="313" y="47" width="54" height="32"/>
            <rect x="311" y="45" width="54" height="32" class="nonterminal"/>
            <text class="nonterminal" x="321" y="65">order</text>
         </a>
         <rect x="407" y="3" width="26" height="32" rx="10"/>
         <rect x="405" y="1" width="26" height="32" class="terminal" rx="10"/>
         <text class="terminal" x="415" y="21">)</text>
         <svg:path xmlns:svg="http://www.w3.org/2000/svg" class="line" d="m17 17 h2 m0 0 h10 m64 0 h10 m20 0 h10 m38 0 h10 m0 0 h36 m-114 0 h20 m94 0 h20 m-134 0 q10 0 10 10 m114 0 q0 -10 10 -10 m-124 10 v24 m114 0 v-24 m-114 24 q0 10 10 10 m94 0 q10 0 10 -10 m-104 10 h10 m74 0 h10 m-104 -10 v20 m114 0 v-20 m-114 20 v14 m114 0 v-14 m-114 14 q0 10 10 10 m94 0 q10 0 10 -10 m-104 10 h10 m0 0 h84 m40 -78 h10 m24 0 h10 m0 0 h10 m44 0 h10 m0 0 h10 m-138 0 h20 m118 0 h20 m-158 0 q10 0 10 10 m138 0 q0 -10 10 -10 m-148 10 v24 m138 0 v-24 m-138 24 q0 10 10 10 m118 0 q10 0 10 -10 m-128 10 h10 m24 0 h10 m0 0 h10 m54 0 h10 m-128 -10 v20 m138 0 v-20 m-138 20 v14 m138 0 v-14 m-138 14 q0 10 10 10 m118 0 q10 0 10 -10 m-128 10 h10 m0 0 h108 m20 -78 h10 m26 0 h10 m3 0 h-3"/>
         <polygon points="451 17 459 13 459 21"/>
         <polygon points="451 17 443 13 443 21"/>
      </svg>
