      <svg xmlns="http://www.w3.org/2000/svg" width="448" height="52">
         <defs>
            <style type="text/css">
               @namespace "http://www.w3.org/2000/svg";
               .line                 {fill: none; stroke: #1F1F1F;}
               .bold-line            {stroke: #0A0A0A; shape-rendering: crispEdges; stroke-width:
               2; }
               .thin-line            {stroke: #0F0F0F; shape-rendering: crispEdges}
               .filled               {fill: #1F1F1F; stroke: none;}
               text.terminal         {font-family: Verdana, Sans-serif;
               font-size: 12px;
               fill: #0A0A0A;
               font-weight: bold;
               }
               text.nonterminal      {font-family: Verdana, Sans-serif;
               font-size: 12px;
               fill: #0D0D0D;
               }
               text.regexp           {font-family: Verdana, Sans-serif;
               font-size: 12px;
               fill: #0F0F0F;
               }
               rect, circle, polygon {fill: #1F1F1F; stroke: #1F1F1F;}
               rect.terminal         {fill: #CCCCCC; stroke: #1F1F1F;}
               rect.nonterminal      {fill: #E3E3E3; stroke: #1F1F1F;}
               rect.text             {fill: none; stroke: none;}    
               polygon.regexp        {fill: #EFEFEF; stroke: #1F1F1F;}
               
            </style>
         </defs>
         <polygon points="9 17 1 13 1 21"/>
         <polygon points="17 17 9 13 9 21"/>
         <rect x="31" y="3" width="118" height="32" rx="10"/>
         <rect x="29" y="1" width="118" height="32" class="terminal" rx="10"/>
         <text class="terminal" x="39" y="21">fromCivilTime(</text>
         <a xmlns:xlink="http://www.w3.org/1999/xlink" xlink:href="#time" xlink:title="time">
            <rect x="169" y="3" width="46" height="32"/>
            <rect x="167" y="1" width="46" height="32" class="nonterminal"/>
            <text class="nonterminal" x="177" y="21">time</text>
         </a>
         <rect x="255" y="3" width="24" height="32" rx="10"/>
         <rect x="253" y="1" width="24" height="32" class="terminal" rx="10"/>
         <text class="terminal" x="263" y="21">,</text>
         <a xmlns:xlink="http://www.w3.org/1999/xlink" xlink:href="#offset" xlink:title="offset">
            <rect x="299" y="3" width="56" height="32"/>
            <rect x="297" y="1" width="56" height="32" class="nonterminal"/>
            <text class="nonterminal" x="307" y="21">offset</text>
         </a>
         <rect x="395" y="3" width="26" height="32" rx="10"/>
         <rect x="393" y="1" width="26" height="32" class="terminal" rx="10"/>
         <text class="terminal" x="403" y="21">)</text>
         <svg:path xmlns:svg="http://www.w3.org/2000/svg" class="line" d="m17 17 h2 m0 0 h10 m118 0 h10 m0 0 h10 m46 0 h10 m20 0 h10 m24 0 h10 m0 0 h10 m56 0 h10 m-140 0 h20 m120 0 h20 m-160 0 q10 0 10 10 m140 0 q0 -10 10 -10 m-150 10 v14 m140 0 v-14 m-140 14 q0 10 10 10 m120 0 q10 0 10 -10 m-130 10 h10 m0 0 h110 m20 -34 h10 m26 0 h10 m3 0 h-3"/>
         <polygon points="439 17 447 13 447 21"/>
         <polygon points="439 17 431 13 431 21"/>
      </svg>
