<svg xmlns="http://www.w3.org/2000/svg" width="829" height="167">
         <defs>
            <style type="text/css">
    @namespace "http://www.w3.org/2000/svg";
    .line                 {fill: none; stroke: #1F1F1F;}
    .bold-line            {stroke: #0A0A0A; shape-rendering: crispEdges; stroke-width: 2; }
    .thin-line            {stroke: #0F0F0F; shape-rendering: crispEdges}
    .filled               {fill: #1F1F1F; stroke: none;}
    text.terminal         {font-family: Verdana, Sans-serif;
                            font-size: 12px;
                            fill: #0A0A0A;
                            font-weight: bold;
                          }
    text.nonterminal      {font-family: Verdana, Sans-serif; font-style: italic;
                            font-size: 12px;
                            fill: #0D0D0D;
                            font-weight: normal;
                          }
    text.regexp           {font-family: Verdana, Sans-serif;
                            font-size: 12px;
                            fill: #0F0F0F;
                            font-weight: normal;
                          }
    rect, circle, polygon {fill: #1F1F1F; stroke: #1F1F1F;}
    rect.terminal         {fill: #cccccc; stroke: #1F1F1F;}
    rect.nonterminal      {fill: #E3E3E3; stroke: #1F1F1F;}
    rect.text             {fill: none; stroke: none;}    
    polygon.regexp        {fill: #EFEFEF; stroke: #1F1F1F;}
  </style>
         </defs>
         <polygon points="9 17 1 13 1 21"/>
         <polygon points="17 17 9 13 9 21"/>
         <rect x="31" y="3" width="48" height="32" rx="10"/>
         <rect x="29" y="1" width="48" height="32" class="terminal" rx="10"/>
         <text class="terminal" x="39" y="21">init(</text>
<!--  <a xmlns:xlink="http://www.w3.org/1999/xlink" xlink:href="#year" xlink:title="year"> -->
            <rect x="99" y="3" width="48" height="32"/>
            <rect x="97" y="1" width="48" height="32" class="nonterminal"/>
            <text class="nonterminal" x="107" y="21">year</text><!-- </a> -->
<rect x="167" y="3" width="24" height="32" rx="10"/>
         <rect x="165" y="1" width="24" height="32" class="terminal" rx="10"/>
         <text class="terminal" x="175" y="21">,</text>
<!--  <a xmlns:xlink="http://www.w3.org/1999/xlink" xlink:href="#month" xlink:title="month"> -->
            <rect x="211" y="3" width="60" height="32"/>
            <rect x="209" y="1" width="60" height="32" class="nonterminal"/>
            <text class="nonterminal" x="219" y="21">month</text><!-- </a> -->
<rect x="291" y="3" width="24" height="32" rx="10"/>
         <rect x="289" y="1" width="24" height="32" class="terminal" rx="10"/>
         <text class="terminal" x="299" y="21">,</text>
<!--  <a xmlns:xlink="http://www.w3.org/1999/xlink" xlink:href="#day" xlink:title="day"> -->
            <rect x="335" y="3" width="42" height="32"/>
            <rect x="333" y="1" width="42" height="32" class="nonterminal"/>
            <text class="nonterminal" x="343" y="21">day</text><!-- </a> -->
<rect x="397" y="3" width="24" height="32" rx="10"/>
         <rect x="395" y="1" width="24" height="32" class="terminal" rx="10"/>
         <text class="terminal" x="405" y="21">,</text>
<!--  <a xmlns:xlink="http://www.w3.org/1999/xlink" xlink:href="#hours" xlink:title="hours"> -->
            <rect x="441" y="3" width="56" height="32"/>
            <rect x="439" y="1" width="56" height="32" class="nonterminal"/>
            <text class="nonterminal" x="449" y="21">hours</text><!-- </a> -->
<rect x="517" y="3" width="24" height="32" rx="10"/>
         <rect x="515" y="1" width="24" height="32" class="terminal" rx="10"/>
         <text class="terminal" x="525" y="21">,</text>
<!--  <a xmlns:xlink="http://www.w3.org/1999/xlink" xlink:href="#minutes" xlink:title="minutes"> -->
            <rect x="561" y="3" width="70" height="32"/>
            <rect x="559" y="1" width="70" height="32" class="nonterminal"/>
            <text class="nonterminal" x="569" y="21">minutes</text><!-- </a> -->
<rect x="651" y="3" width="24" height="32" rx="10"/>
         <rect x="649" y="1" width="24" height="32" class="terminal" rx="10"/>
         <text class="terminal" x="659" y="21">,</text>
<!--  <a xmlns:xlink="http://www.w3.org/1999/xlink" xlink:href="#seconds" xlink:title="seconds"> -->
            <rect x="715" y="35" width="72" height="32"/>
            <rect x="713" y="33" width="72" height="32" class="nonterminal"/>
            <text class="nonterminal" x="723" y="53">seconds</text><!-- </a> -->
<rect x="405" y="101" width="24" height="32" rx="10"/>
         <rect x="403" y="99" width="24" height="32" class="terminal" rx="10"/>
         <text class="terminal" x="413" y="119">,</text>
<!--  <a xmlns:xlink="http://www.w3.org/1999/xlink" xlink:href="#microseconds" xlink:title="microseconds"> -->
            <rect x="469" y="133" width="106" height="32"/>
            <rect x="467" y="131" width="106" height="32" class="nonterminal"/>
            <text class="nonterminal" x="477" y="151">microseconds</text><!-- </a> -->
<rect x="635" y="133" width="24" height="32" rx="10"/>
         <rect x="633" y="131" width="24" height="32" class="terminal" rx="10"/>
         <text class="terminal" x="643" y="151">,</text>
<!--  <a xmlns:xlink="http://www.w3.org/1999/xlink" xlink:href="#offset" xlink:title="offset"> -->
            <rect x="679" y="133" width="56" height="32"/>
            <rect x="677" y="131" width="56" height="32" class="nonterminal"/>
            <text class="nonterminal" x="687" y="151">offset</text><!-- </a> -->
<rect x="775" y="101" width="26" height="32" rx="10"/>
         <rect x="773" y="99" width="26" height="32" class="terminal" rx="10"/>
         <text class="terminal" x="783" y="119">)</text>
         <svg:path xmlns:svg="http://www.w3.org/2000/svg" class="line" d="m17 17 h2 m0 0 h10 m48 0 h10 m0 0 h10 m48 0 h10 m0 0 h10 m24 0 h10 m0 0 h10 m60 0 h10 m0 0 h10 m24 0 h10 m0 0 h10 m42 0 h10 m0 0 h10 m24 0 h10 m0 0 h10 m56 0 h10 m0 0 h10 m24 0 h10 m0 0 h10 m70 0 h10 m0 0 h10 m24 0 h10 m20 0 h10 m0 0 h82 m-112 0 h20 m92 0 h20 m-132 0 q10 0 10 10 m112 0 q0 -10 10 -10 m-122 10 v12 m112 0 v-12 m-112 12 q0 10 10 10 m92 0 q10 0 10 -10 m-102 10 h10 m72 0 h10 m22 -32 l2 0 m2 0 l2 0 m2 0 l2 0 m-446 98 l2 0 m2 0 l2 0 m2 0 l2 0 m2 0 h10 m24 0 h10 m20 0 h10 m0 0 h116 m-146 0 h20 m126 0 h20 m-166 0 q10 0 10 10 m146 0 q0 -10 10 -10 m-156 10 v12 m146 0 v-12 m-146 12 q0 10 10 10 m126 0 q10 0 10 -10 m-136 10 h10 m106 0 h10 m40 -32 h10 m0 0 h110 m-140 0 h20 m120 0 h20 m-160 0 q10 0 10 10 m140 0 q0 -10 10 -10 m-150 10 v12 m140 0 v-12 m-140 12 q0 10 10 10 m120 0 q10 0 10 -10 m-130 10 h10 m24 0 h10 m0 0 h10 m56 0 h10 m20 -32 h10 m26 0 h10 m3 0 h-3"/>
         <polygon points="819 115 827 111 827 119"/>
         <polygon points="819 115 811 111 811 119"/></svg>
