      <svg xmlns="http://www.w3.org/2000/svg" width="816" height="134">
         <defs>
            <style type="text/css">
               @namespace "http://www.w3.org/2000/svg";
               .line                 {fill: none; stroke: #1F1F1F;}
               .bold-line            {stroke: #0A0A0A; shape-rendering: crispEdges; stroke-width:
               2; }
               .thin-line            {stroke: #0F0F0F; shape-rendering: crispEdges}
               .filled               {fill: #1F1F1F; stroke: none;}
               text.terminal         {font-family: Verdana, Sans-serif;
               font-size: 12px;
               fill: #0A0A0A;
               font-weight: bold;
               }
               text.nonterminal      {font-family: Verdana, Sans-serif; font-style: italic;
               font-size: 12px;
               fill: #0D0D0D;
               }
               text.regexp           {font-family: Verdana, Sans-serif;
               font-size: 12px;
               fill: #0F0F0F;
               }
               rect, circle, polygon {fill: #1F1F1F; stroke: #1F1F1F;}
               rect.terminal         {fill: #CCCCCC; stroke: #1F1F1F;}
               rect.nonterminal      {fill: #E3E3E3; stroke: #1F1F1F;}
               rect.text             {fill: none; stroke: none;}    
               polygon.regexp        {fill: #EFEFEF; stroke: #1F1F1F;}
               
            </style>
         </defs>
         <polygon points="9 17 1 13 1 21"/>
         <polygon points="17 17 9 13 9 21"/>
         <rect x="31" y="3" width="46" height="32" rx="10"/>
         <rect x="29" y="1" width="46" height="32" class="terminal" rx="10"/>
         <text class="terminal" x="39" y="21">init(</text>
<!--     <a xmlns:xlink="http://www.w3.org/1999/xlink" xlink:href="#year" xlink:title="year"> -->
            <rect x="97" y="3" width="46" height="32"/>
            <rect x="95" y="1" width="46" height="32" class="nonterminal"/>
            <text class="nonterminal" x="105" y="21">year</text>
<!--     </a> -->
         <rect x="163" y="3" width="24" height="32" rx="10"/>
         <rect x="161" y="1" width="24" height="32" class="terminal" rx="10"/>
         <text class="terminal" x="171" y="21">,</text>
<!--     <a xmlns:xlink="http://www.w3.org/1999/xlink" xlink:href="#month" xlink:title="month"> -->
            <rect x="207" y="3" width="58" height="32"/>
            <rect x="205" y="1" width="58" height="32" class="nonterminal"/>
            <text class="nonterminal" x="215" y="21">month</text>
<!--     </a> -->
         <rect x="285" y="3" width="24" height="32" rx="10"/>
         <rect x="283" y="1" width="24" height="32" class="terminal" rx="10"/>
         <text class="terminal" x="293" y="21">,</text>
<!--     <a xmlns:xlink="http://www.w3.org/1999/xlink" xlink:href="#day" xlink:title="day"> -->
            <rect x="329" y="3" width="42" height="32"/>
            <rect x="327" y="1" width="42" height="32" class="nonterminal"/>
            <text class="nonterminal" x="337" y="21">day</text>
<!--     </a> -->
         <rect x="391" y="3" width="24" height="32" rx="10"/>
         <rect x="389" y="1" width="24" height="32" class="terminal" rx="10"/>
         <text class="terminal" x="399" y="21">,</text>
<!--     <a xmlns:xlink="http://www.w3.org/1999/xlink" xlink:href="#hours" xlink:title="hours"> -->
            <rect x="435" y="3" width="54" height="32"/>
            <rect x="433" y="1" width="54" height="32" class="nonterminal"/>
            <text class="nonterminal" x="443" y="21">hours</text>
<!--     </a> -->
         <rect x="509" y="3" width="24" height="32" rx="10"/>
         <rect x="507" y="1" width="24" height="32" class="terminal" rx="10"/>
         <text class="terminal" x="517" y="21">,</text>
<!--     <a xmlns:xlink="http://www.w3.org/1999/xlink" xlink:href="#minutes" xlink:title="minutes"> -->
            <rect x="553" y="3" width="66" height="32"/>
            <rect x="551" y="1" width="66" height="32" class="nonterminal"/>
            <text class="nonterminal" x="561" y="21">minutes</text>
<!--     </a> -->
         <rect x="639" y="3" width="24" height="32" rx="10"/>
         <rect x="637" y="1" width="24" height="32" class="terminal" rx="10"/>
         <text class="terminal" x="647" y="21">,</text>
<!--     <a xmlns:xlink="http://www.w3.org/1999/xlink" xlink:href="#seconds" xlink:title="seconds"> -->
            <rect x="683" y="3" width="68" height="32"/>
            <rect x="681" y="1" width="68" height="32" class="nonterminal"/>
            <text class="nonterminal" x="691" y="21">seconds</text>
<!--     </a> -->
         <rect x="771" y="3" width="24" height="32" rx="10"/>
         <rect x="769" y="1" width="24" height="32" class="terminal" rx="10"/>
         <text class="terminal" x="779" y="21">,</text>
<!--     <a xmlns:xlink="http://www.w3.org/1999/xlink" xlink:href="#microseconds" xlink:title="microseconds"> -->
            <rect x="463" y="101" width="102" height="32"/>
            <rect x="461" y="99" width="102" height="32" class="nonterminal"/>
            <text class="nonterminal" x="471" y="119">microseconds</text>
<!--     </a> -->
         <rect x="625" y="101" width="24" height="32" rx="10"/>
         <rect x="623" y="99" width="24" height="32" class="terminal" rx="10"/>
         <text class="terminal" x="633" y="119">,</text>
<!--     <a xmlns:xlink="http://www.w3.org/1999/xlink" xlink:href="#offset" xlink:title="offset"> -->
            <rect x="669" y="101" width="54" height="32"/>
            <rect x="667" y="99" width="54" height="32" class="nonterminal"/>
            <text class="nonterminal" x="677" y="119">offset</text>
<!--     </a> -->
         <rect x="763" y="69" width="26" height="32" rx="10"/>
         <rect x="761" y="67" width="26" height="32" class="terminal" rx="10"/>
         <text class="terminal" x="771" y="87">)</text>
         <svg:path xmlns:svg="http://www.w3.org/2000/svg" class="line" d="m17 17 h2 m0 0 h10 m46 0 h10 m0 0 h10 m46 0 h10 m0 0 h10 m24 0 h10 m0 0 h10 m58 0 h10 m0 0 h10 m24 0 h10 m0 0 h10 m42 0 h10 m0 0 h10 m24 0 h10 m0 0 h10 m54 0 h10 m0 0 h10 m24 0 h10 m0 0 h10 m66 0 h10 m0 0 h10 m24 0 h10 m0 0 h10 m68 0 h10 m0 0 h10 m24 0 h10 m2 0 l2 0 m2 0 l2 0 m2 0 l2 0 m-396 66 l2 0 m2 0 l2 0 m2 0 l2 0 m22 0 h10 m0 0 h112 m-142 0 h20 m122 0 h20 m-162 0 q10 0 10 10 m142 0 q0 -10 10 -10 m-152 10 v12 m142 0 v-12 m-142 12 q0 10 10 10 m122 0 q10 0 10 -10 m-132 10 h10 m102 0 h10 m40 -32 h10 m0 0 h108 m-138 0 h20 m118 0 h20 m-158 0 q10 0 10 10 m138 0 q0 -10 10 -10 m-148 10 v12 m138 0 v-12 m-138 12 q0 10 10 10 m118 0 q10 0 10 -10 m-128 10 h10 m24 0 h10 m0 0 h10 m54 0 h10 m20 -32 h10 m26 0 h10 m3 0 h-3"/>
         <polygon points="807 83 815 79 815 87"/>
         <polygon points="807 83 799 79 799 87"/>
      </svg>
