      <svg xmlns="http://www.w3.org/2000/svg" width="788" height="166">
         <defs>
            <style type="text/css">
               @namespace "http://www.w3.org/2000/svg";
               .line                 {fill: none; stroke: #1F1F1F;}
               .bold-line            {stroke: #0A0A0A; shape-rendering: crispEdges; stroke-width:
               2; }
               .thin-line            {stroke: #0F0F0F; shape-rendering: crispEdges}
               .filled               {fill: #1F1F1F; stroke: none;}
               text.terminal         {font-family: Verdana, Sans-serif;
               font-size: 12px;
               fill: #0A0A0A;
               font-weight: bold;
               }
               text.nonterminal      {font-family: Verdana, Sans-serif; font-style: italic;
               font-size: 12px;
               fill: #0D0D0D;
               }
               text.regexp           {font-family: Verdana, Sans-serif;
               font-size: 12px;
               fill: #0F0F0F;
               }
               rect, circle, polygon {fill: #1F1F1F; stroke: #1F1F1F;}
               rect.terminal         {fill: #CCCCCC; stroke: #1F1F1F;}
               rect.nonterminal      {fill: #E3E3E3; stroke: #1F1F1F;}
               rect.text             {fill: none; stroke: none;}    
               polygon.regexp        {fill: #EFEFEF; stroke: #1F1F1F;}
               
            </style>
         </defs>
         <polygon points="9 17 1 13 1 21"/>
         <polygon points="17 17 9 13 9 21"/>
         <rect x="31" y="3" width="48" height="32" rx="10"/>
         <rect x="29" y="1" width="48" height="32" class="terminal" rx="10"/>
         <text class="terminal" x="39" y="21">init(</text>
<!--     <a xmlns:xlink="http://www.w3.org/1999/xlink" xlink:href="#year" xlink:title="year"> -->
            <rect x="99" y="3" width="48" height="32"/>
            <rect x="97" y="1" width="48" height="32" class="nonterminal"/>
            <text class="nonterminal" x="107" y="21">year</text>
<!--     </a> -->
         <rect x="167" y="3" width="24" height="32" rx="10"/>
         <rect x="165" y="1" width="24" height="32" class="terminal" rx="10"/>
         <text class="terminal" x="175" y="21">,</text>
<!--     <a xmlns:xlink="http://www.w3.org/1999/xlink" xlink:href="#month" xlink:title="month"> -->
            <rect x="211" y="3" width="60" height="32"/>
            <rect x="209" y="1" width="60" height="32" class="nonterminal"/>
            <text class="nonterminal" x="219" y="21">month</text>
<!--     </a> -->
         <rect x="291" y="3" width="24" height="32" rx="10"/>
         <rect x="289" y="1" width="24" height="32" class="terminal" rx="10"/>
         <text class="terminal" x="299" y="21">,</text>
<!--     <a xmlns:xlink="http://www.w3.org/1999/xlink" xlink:href="#day" xlink:title="day"> -->
            <rect x="335" y="3" width="42" height="32"/>
            <rect x="333" y="1" width="42" height="32" class="nonterminal"/>
            <text class="nonterminal" x="343" y="21">day</text>
<!--     </a> -->
         <rect x="397" y="3" width="24" height="32" rx="10"/>
         <rect x="395" y="1" width="24" height="32" class="terminal" rx="10"/>
         <text class="terminal" x="405" y="21">,</text>
<!--     <a xmlns:xlink="http://www.w3.org/1999/xlink" xlink:href="#hours" xlink:title="hours"> -->
            <rect x="441" y="3" width="56" height="32"/>
            <rect x="439" y="1" width="56" height="32" class="nonterminal"/>
            <text class="nonterminal" x="449" y="21">hours</text>
<!--     </a> -->
         <rect x="517" y="3" width="24" height="32" rx="10"/>
         <rect x="515" y="1" width="24" height="32" class="terminal" rx="10"/>
         <text class="terminal" x="525" y="21">,</text>
<!--     <a xmlns:xlink="http://www.w3.org/1999/xlink" xlink:href="#minutes" xlink:title="minutes"> -->
            <rect x="561" y="3" width="70" height="32"/>
            <rect x="559" y="1" width="70" height="32" class="nonterminal"/>
            <text class="nonterminal" x="569" y="21">minutes</text>
<!--     </a> -->
         <rect x="651" y="3" width="24" height="32" rx="10"/>
         <rect x="649" y="1" width="24" height="32" class="terminal" rx="10"/>
         <text class="terminal" x="659" y="21">,</text>
<!--     <a xmlns:xlink="http://www.w3.org/1999/xlink" xlink:href="#seconds" xlink:title="seconds"> -->
            <rect x="695" y="3" width="72" height="32"/>
            <rect x="693" y="1" width="72" height="32" class="nonterminal"/>
            <text class="nonterminal" x="703" y="21">seconds</text>
<!--     </a> -->
         <rect x="347" y="101" width="24" height="32" rx="10"/>
         <rect x="345" y="99" width="24" height="32" class="terminal" rx="10"/>
         <text class="terminal" x="355" y="119">,</text>
<!--     <a xmlns:xlink="http://www.w3.org/1999/xlink" xlink:href="#microseconds" xlink:title="microseconds"> -->
            <rect x="411" y="133" width="104" height="32"/>
            <rect x="409" y="131" width="104" height="32" class="nonterminal"/>
            <text class="nonterminal" x="419" y="151">microseconds</text>
<!--     </a> -->
         <rect x="575" y="133" width="24" height="32" rx="10"/>
         <rect x="573" y="131" width="24" height="32" class="terminal" rx="10"/>
         <text class="terminal" x="583" y="151">,</text>
<!--     <a xmlns:xlink="http://www.w3.org/1999/xlink" xlink:href="#offset" xlink:title="offset"> -->
            <rect x="619" y="133" width="56" height="32"/>
            <rect x="617" y="131" width="56" height="32" class="nonterminal"/>
            <text class="nonterminal" x="627" y="151">offset</text>
<!--     </a> -->
         <rect x="735" y="69" width="26" height="32" rx="10"/>
         <rect x="733" y="67" width="26" height="32" class="terminal" rx="10"/>
         <text class="terminal" x="743" y="87">)</text>
         <svg:path xmlns:svg="http://www.w3.org/2000/svg" class="line" d="m17 17 h2 m0 0 h10 m48 0 h10 m0 0 h10 m48 0 h10 m0 0 h10 m24 0 h10 m0 0 h10 m60 0 h10 m0 0 h10 m24 0 h10 m0 0 h10 m42 0 h10 m0 0 h10 m24 0 h10 m0 0 h10 m56 0 h10 m0 0 h10 m24 0 h10 m0 0 h10 m70 0 h10 m0 0 h10 m24 0 h10 m0 0 h10 m72 0 h10 m2 0 l2 0 m2 0 l2 0 m2 0 l2 0 m-484 66 l2 0 m2 0 l2 0 m2 0 l2 0 m22 0 h10 m0 0 h358 m-388 0 h20 m368 0 h20 m-408 0 q10 0 10 10 m388 0 q0 -10 10 -10 m-398 10 v12 m388 0 v-12 m-388 12 q0 10 10 10 m368 0 q10 0 10 -10 m-378 10 h10 m24 0 h10 m20 0 h10 m0 0 h114 m-144 0 h20 m124 0 h20 m-164 0 q10 0 10 10 m144 0 q0 -10 10 -10 m-154 10 v12 m144 0 v-12 m-144 12 q0 10 10 10 m124 0 q10 0 10 -10 m-134 10 h10 m104 0 h10 m40 -32 h10 m0 0 h110 m-140 0 h20 m120 0 h20 m-160 0 q10 0 10 10 m140 0 q0 -10 10 -10 m-150 10 v12 m140 0 v-12 m-140 12 q0 10 10 10 m120 0 q10 0 10 -10 m-130 10 h10 m24 0 h10 m0 0 h10 m56 0 h10 m40 -64 h10 m26 0 h10 m3 0 h-3"/>
         <polygon points="779 83 787 79 787 87"/>
         <polygon points="779 83 771 79 771 87"/>
      </svg>
