      <svg xmlns="http://www.w3.org/2000/svg" width="672" height="68">
         <defs>
            <style type="text/css">
               @namespace "http://www.w3.org/2000/svg";
               .line                 {fill: none; stroke: #1F1F1F;}
               .bold-line            {stroke: #0A0A0A; shape-rendering: crispEdges; stroke-width:
               2; }
               .thin-line            {stroke: #0F0F0F; shape-rendering: crispEdges}
               .filled               {fill: #1F1F1F; stroke: none;}
               text.terminal         {font-family: Verdana, Sans-serif;
               font-size: 12px;
               fill: #0A0A0A;
               font-weight: bold;
               }
               text.nonterminal      {font-family: Verdana, Sans-serif; font-style: italic;
               font-size: 12px;
               fill: #0D0D0D;
               }
               text.regexp           {font-family: Verdana, Sans-serif;
               font-size: 12px;
               fill: #0F0F0F;
               }
               rect, circle, polygon {fill: #1F1F1F; stroke: #1F1F1F;}
               rect.terminal         {fill: #CCCCCC; stroke: #1F1F1F;}
               rect.nonterminal      {fill: #E3E3E3; stroke: #1F1F1F;}
               rect.text             {fill: none; stroke: none;}    
               polygon.regexp        {fill: #EFEFEF; stroke: #1F1F1F;}
               
            </style>
         </defs>
         <polygon points="9 17 1 13 1 21"/>
         <polygon points="17 17 9 13 9 21"/>
         <rect x="31" y="3" width="114" height="32" rx="10"/>
         <rect x="29" y="1" width="114" height="32" class="terminal" rx="10"/>
         <text class="terminal" x="39" y="21">fromUsaDate(</text>
<!--     <a xmlns:xlink="http://www.w3.org/1999/xlink" xlink:href="#date" xlink:title="date"> -->
            <rect x="165" y="3" width="48" height="32"/>
            <rect x="163" y="1" width="48" height="32" class="nonterminal"/>
            <text class="nonterminal" x="173" y="21">date</text>
<!--     </a> -->
         <rect x="253" y="3" width="24" height="32" rx="10"/>
         <rect x="251" y="1" width="24" height="32" class="terminal" rx="10"/>
         <text class="terminal" x="261" y="21">,</text>
<!--     <a xmlns:xlink="http://www.w3.org/1999/xlink" xlink:href="#separator" xlink:title="separator"> -->
            <rect x="317" y="3" width="82" height="32"/>
            <rect x="315" y="1" width="82" height="32" class="nonterminal"/>
            <text class="nonterminal" x="325" y="21">separator</text>
<!--     </a> -->
         <rect x="459" y="3" width="24" height="32" rx="10"/>
         <rect x="457" y="1" width="24" height="32" class="terminal" rx="10"/>
         <text class="terminal" x="467" y="21">,</text>
<!--     <a xmlns:xlink="http://www.w3.org/1999/xlink" xlink:href="#offset" xlink:title="offset"> -->
            <rect x="503" y="3" width="56" height="32"/>
            <rect x="501" y="1" width="56" height="32" class="nonterminal"/>
            <text class="nonterminal" x="511" y="21">offset</text>
<!--     </a> -->
         <rect x="619" y="3" width="26" height="32" rx="10"/>
         <rect x="617" y="1" width="26" height="32" class="terminal" rx="10"/>
         <text class="terminal" x="627" y="21">)</text>
         <svg:path xmlns:svg="http://www.w3.org/2000/svg" class="line" d="m17 17 h2 m0 0 h10 m114 0 h10 m0 0 h10 m48 0 h10 m20 0 h10 m24 0 h10 m20 0 h10 m82 0 h10 m-122 0 h20 m102 0 h20 m-142 0 q10 0 10 10 m122 0 q0 -10 10 -10 m-132 10 v14 m122 0 v-14 m-122 14 q0 10 10 10 m102 0 q10 0 10 -10 m-112 10 h10 m0 0 h92 m40 -34 h10 m24 0 h10 m0 0 h10 m56 0 h10 m-140 0 h20 m120 0 h20 m-160 0 q10 0 10 10 m140 0 q0 -10 10 -10 m-150 10 v14 m140 0 v-14 m-140 14 q0 10 10 10 m120 0 q10 0 10 -10 m-130 10 h10 m0 0 h110 m-346 -34 h20 m346 0 h20 m-386 0 q10 0 10 10 m366 0 q0 -10 10 -10 m-376 10 v30 m366 0 v-30 m-366 30 q0 10 10 10 m346 0 q10 0 10 -10 m-356 10 h10 m0 0 h336 m20 -50 h10 m26 0 h10 m3 0 h-3"/>
         <polygon points="663 17 671 13 671 21"/>
         <polygon points="663 17 655 13 655 21"/>
      </svg>
