      <svg xmlns="http://www.w3.org/2000/svg" width="416" height="52">
         <defs>
            <style type="text/css">
               @namespace "http://www.w3.org/2000/svg";
               .line                 {fill: none; stroke: #1F1F1F;}
               .bold-line            {stroke: #0A0A0A; shape-rendering: crispEdges; stroke-width:
               2; }
               .thin-line            {stroke: #0F0F0F; shape-rendering: crispEdges}
               .filled               {fill: #1F1F1F; stroke: none;}
               text.terminal         {font-family: Verdana, Sans-serif;
               font-size: 12px;
               fill: #0A0A0A;
               font-weight: bold;
               }
               text.nonterminal      {font-family: Verdana, Sans-serif; font-style: italic;
               font-size: 12px;
               fill: #0D0D0D;
               }
               text.regexp           {font-family: Verdana, Sans-serif;
               font-size: 12px;
               fill: #0F0F0F;
               }
               rect, circle, polygon {fill: #1F1F1F; stroke: #1F1F1F;}
               rect.terminal         {fill: #CCCCCC; stroke: #1F1F1F;}
               rect.nonterminal      {fill: #E3E3E3; stroke: #1F1F1F;}
               rect.text             {fill: none; stroke: none;}    
               polygon.regexp        {fill: #EFEFEF; stroke: #1F1F1F;}
               
            </style>
         </defs>
         <polygon points="9 17 1 13 1 21"/>
         <polygon points="17 17 9 13 9 21"/>
         <rect x="31" y="3" width="82" height="32" rx="10"/>
         <rect x="29" y="1" width="82" height="32" class="terminal" rx="10"/>
         <text class="terminal" x="39" y="21">setEntry(</text>
<!--     <a xmlns:xlink="http://www.w3.org/1999/xlink" xlink:href="#name" xlink:title="name"> -->
            <rect x="133" y="3" width="54" height="32"/>
            <rect x="131" y="1" width="54" height="32" class="nonterminal"/>
            <text class="nonterminal" x="141" y="21">name</text>
<!--     </a> -->
         <rect x="227" y="3" width="24" height="32" rx="10"/>
         <rect x="225" y="1" width="24" height="32" class="terminal" rx="10"/>
         <text class="terminal" x="235" y="21">,</text>
<!--     <a xmlns:xlink="http://www.w3.org/1999/xlink" xlink:href="#entry" xlink:title="entry"> -->
            <rect x="271" y="3" width="52" height="32"/>
            <rect x="269" y="1" width="52" height="32" class="nonterminal"/>
            <text class="nonterminal" x="279" y="21">entry</text>
<!--     </a> -->
         <rect x="363" y="3" width="26" height="32" rx="10"/>
         <rect x="361" y="1" width="26" height="32" class="terminal" rx="10"/>
         <text class="terminal" x="371" y="21">)</text>
         <svg:path xmlns:svg="http://www.w3.org/2000/svg" class="line" d="m17 17 h2 m0 0 h10 m82 0 h10 m0 0 h10 m54 0 h10 m20 0 h10 m24 0 h10 m0 0 h10 m52 0 h10 m-136 0 h20 m116 0 h20 m-156 0 q10 0 10 10 m136 0 q0 -10 10 -10 m-146 10 v14 m136 0 v-14 m-136 14 q0 10 10 10 m116 0 q10 0 10 -10 m-126 10 h10 m0 0 h106 m20 -34 h10 m26 0 h10 m3 0 h-3"/>
         <polygon points="407 17 415 13 415 21"/>
         <polygon points="407 17 399 13 399 21"/>
      </svg>
