<svg xmlns="http://www.w3.org/2000/svg" width="323" height="81">
         <defs>
            <style type="text/css">
    @namespace "http://www.w3.org/2000/svg";
    .line                 {fill: none; stroke: #1F1F1F;}
    .bold-line            {stroke: #0A0A0A; shape-rendering: crispEdges; stroke-width: 2; }
    .thin-line            {stroke: #0F0F0F; shape-rendering: crispEdges}
    .filled               {fill: #1F1F1F; stroke: none;}
    text.terminal         {font-family: Verdana, Sans-serif;
                            font-size: 12px;
                            fill: #0A0A0A;
                            font-weight: bold;
                          }
    text.nonterminal      {font-family: Verdana, Sans-serif; font-style: italic;
                            font-size: 12px;
                            fill: #0D0D0D;
                            font-weight: normal;
                          }
    text.regexp           {font-family: Verdana, Sans-serif;
                            font-size: 12px;
                            fill: #0F0F0F;
                            font-weight: normal;
                          }
    rect, circle, polygon {fill: #1F1F1F; stroke: #1F1F1F;}
    rect.terminal         {fill: #CCCCCC; stroke: #1F1F1F;}
    rect.nonterminal      {fill: #E3E3E3; stroke: #1F1F1F;}
    rect.text             {fill: none; stroke: none;}    
    polygon.regexp        {fill: #EFEFEF; stroke: #1F1F1F;}
  </style>
         </defs>
         <polygon points="9 17 1 13 1 21"/>
         <polygon points="17 17 9 13 9 21"/>
         <rect x="51" y="3" width="106" height="32" rx="10"/>
         <rect x="49" y="1" width="106" height="32" class="terminal" rx="10"/>
         <text class="terminal" x="59" y="21">lastAccessed</text>
         <rect x="51" y="47" width="106" height="32" rx="10"/>
         <rect x="49" y="45" width="106" height="32" class="terminal" rx="10"/>
         <text class="terminal" x="59" y="65">lastAccessed</text>
         <rect x="177" y="47" width="30" height="32" rx="10"/>
         <rect x="175" y="45" width="30" height="32" class="terminal" rx="10"/>
         <text class="terminal" x="185" y="65">=</text>
<!--  <a xmlns:xlink="http://www.w3.org/1999/xlink" xlink:href="#date" xlink:title="date"> -->
            <rect x="227" y="47" width="48" height="32"/>
            <rect x="225" y="45" width="48" height="32" class="nonterminal"/>
            <text class="nonterminal" x="235" y="65">date</text><!-- </a> -->
<svg:path xmlns:svg="http://www.w3.org/2000/svg" class="line" d="m17 17 h2 m20 0 h10 m106 0 h10 m0 0 h118 m-264 0 h20 m244 0 h20 m-284 0 q10 0 10 10 m264 0 q0 -10 10 -10 m-274 10 v24 m264 0 v-24 m-264 24 q0 10 10 10 m244 0 q10 0 10 -10 m-254 10 h10 m106 0 h10 m0 0 h10 m30 0 h10 m0 0 h10 m48 0 h10 m23 -44 h-3"/>
         <polygon points="313 17 321 13 321 21"/>
         <polygon points="313 17 305 13 305 21"/></svg>
