      <svg xmlns="http://www.w3.org/2000/svg" width="742" height="112">
         <defs>
            <style type="text/css">
               @namespace "http://www.w3.org/2000/svg";
               .line                 {fill: none; stroke: #1F1F1F;}
               .bold-line            {stroke: #0A0A0A; shape-rendering: crispEdges; stroke-width:
               2; }
               .thin-line            {stroke: #0F0F0F; shape-rendering: crispEdges}
               .filled               {fill: #1F1F1F; stroke: none;}
               text.terminal         {font-family: Verdana, Sans-serif;
               font-size: 12px;
               fill: #0A0A0A;
               font-weight: bold;
               }
               text.nonterminal      {font-family: Verdana, Sans-serif;
               font-size: 12px;
               fill: #0D0D0D;
               }
               text.regexp           {font-family: Verdana, Sans-serif;
               font-size: 12px;
               fill: #0F0F0F;
               }
               rect, circle, polygon {fill: #1F1F1F; stroke: #1F1F1F;}
               rect.terminal         {fill: #CCCCCC; stroke: #1F1F1F;}
               rect.nonterminal      {fill: #E3E3E3; stroke: #1F1F1F;}
               rect.text             {fill: none; stroke: none;}    
               polygon.regexp        {fill: #EFEFEF; stroke: #1F1F1F;}
               
            </style>
         </defs>
         <polygon points="9 33 1 29 1 37"/>
         <polygon points="17 33 9 29 9 37"/>
         <rect x="31" y="19" width="54" height="32" rx="10"/>
         <rect x="29" y="17" width="54" height="32" class="terminal" rx="10"/>
         <text class="terminal" x="39" y="37">new(</text>
         <a xmlns:xlink="http://www.w3.org/1999/xlink" xlink:href="#target" xlink:title="target">
            <rect x="105" y="19" width="58" height="32"/>
            <rect x="103" y="17" width="58" height="32" class="nonterminal"/>
            <text class="nonterminal" x="113" y="37">target</text>
         </a>
         <rect x="183" y="19" width="24" height="32" rx="10"/>
         <rect x="181" y="17" width="24" height="32" class="terminal" rx="10"/>
         <text class="terminal" x="191" y="37">,</text>
         <a xmlns:xlink="http://www.w3.org/1999/xlink" xlink:href="#messagename" xlink:title="messagename">
            <rect x="227" y="19" width="112" height="32"/>
            <rect x="225" y="17" width="112" height="32" class="nonterminal"/>
            <text class="nonterminal" x="235" y="37">messagename</text>
         </a>
         <rect x="379" y="19" width="86" height="32" rx="10"/>
         <rect x="377" y="17" width="86" height="32" class="terminal" rx="10"/>
         <text class="terminal" x="387" y="37">Individual</text>
         <rect x="505" y="19" width="24" height="32" rx="10"/>
         <rect x="503" y="17" width="24" height="32" class="terminal" rx="10"/>
         <text class="terminal" x="513" y="37">,</text>
         <a xmlns:xlink="http://www.w3.org/1999/xlink" xlink:href="#argument" xlink:title="argument">
            <rect x="549" y="19" width="80" height="32"/>
            <rect x="547" y="17" width="80" height="32" class="nonterminal"/>
            <text class="nonterminal" x="557" y="37">argument</text>
         </a>
         <rect x="379" y="63" width="56" height="32" rx="10"/>
         <rect x="377" y="61" width="56" height="32" class="terminal" rx="10"/>
         <text class="terminal" x="387" y="81">Array</text>
         <rect x="455" y="63" width="24" height="32" rx="10"/>
         <rect x="453" y="61" width="24" height="32" class="terminal" rx="10"/>
         <text class="terminal" x="463" y="81">,</text>
         <a xmlns:xlink="http://www.w3.org/1999/xlink" xlink:href="#array" xlink:title="array">
            <rect x="499" y="63" width="52" height="32"/>
            <rect x="497" y="61" width="52" height="32" class="nonterminal"/>
            <text class="nonterminal" x="507" y="81">array</text>
         </a>
         <rect x="689" y="19" width="26" height="32" rx="10"/>
         <rect x="687" y="17" width="26" height="32" class="terminal" rx="10"/>
         <text class="terminal" x="697" y="37">)</text>
         <svg:path xmlns:svg="http://www.w3.org/2000/svg" class="line" d="m17 33 h2 m0 0 h10 m54 0 h10 m0 0 h10 m58 0 h10 m0 0 h10 m24 0 h10 m0 0 h10 m112 0 h10 m20 0 h10 m86 0 h10 m20 0 h10 m24 0 h10 m0 0 h10 m80 0 h10 m-164 0 l20 0 m-1 0 q-9 0 -9 -10 l0 -12 q0 -10 10 -10 m144 32 l20 0 m-20 0 q10 0 10 -10 l0 -12 q0 -10 -10 -10 m-144 0 h10 m0 0 h134 m-290 32 h20 m290 0 h20 m-330 0 q10 0 10 10 m310 0 q0 -10 10 -10 m-320 10 v24 m310 0 v-24 m-310 24 q0 10 10 10 m290 0 q10 0 10 -10 m-300 10 h10 m56 0 h10 m0 0 h10 m24 0 h10 m0 0 h10 m52 0 h10 m0 0 h98 m-300 -10 v20 m310 0 v-20 m-310 20 v14 m310 0 v-14 m-310 14 q0 10 10 10 m290 0 q10 0 10 -10 m-300 10 h10 m0 0 h280 m20 -78 h10 m26 0 h10 m3 0 h-3"/>
         <polygon points="733 33 741 29 741 37"/>
         <polygon points="733 33 725 29 725 37"/>
      </svg>
