<svg xmlns="http://www.w3.org/2000/svg" width="591" height="233">
         <defs>
            <style type="text/css">
    @namespace "http://www.w3.org/2000/svg";
    .line                 {fill: none; stroke: #1F1F1F;}
    .bold-line            {stroke: #0A0A0A; shape-rendering: crispEdges; stroke-width: 2; }
    .thin-line            {stroke: #0F0F0F; shape-rendering: crispEdges}
    .filled               {fill: #1F1F1F; stroke: none;}
    text.terminal         {font-family: Verdana, Sans-serif;
                            font-size: 12px;
                            fill: #0A0A0A;
                            font-weight: bold;
                          }
    text.nonterminal      {font-family: Verdana, Sans-serif; font-style: italic;
                            font-size: 12px;
                            fill: #0D0D0D;
                            font-weight: normal;
                          }
    text.regexp           {font-family: Verdana, Sans-serif;
                            font-size: 12px;
                            fill: #0F0F0F;
                            font-weight: normal;
                          }
    rect, circle, polygon {fill: #1F1F1F; stroke: #1F1F1F;}
    rect.terminal         {fill: #cccccc; stroke: #1F1F1F;}
    rect.nonterminal      {fill: #E3E3E3; stroke: #1F1F1F;}
    rect.text             {fill: none; stroke: none;}    
    polygon.regexp        {fill: #EFEFEF; stroke: #1F1F1F;}
  </style>
         </defs>
         <polygon points="11 17 3 13 3 21"/>
         <polygon points="19 17 11 13 11 21"/>
         <rect x="33" y="3" width="56" height="32" rx="10"/>
         <rect x="31" y="1" width="56" height="32" class="terminal" rx="10"/>
         <text class="terminal" x="41" y="21">new(</text>
<!--  <a xmlns:xlink="http://www.w3.org/1999/xlink" xlink:href="#target" xlink:title="target"> -->
            <rect x="109" y="3" width="58" height="32"/>
            <rect x="107" y="1" width="58" height="32" class="nonterminal"/>
            <text class="nonterminal" x="117" y="21">target</text><!-- </a> -->
<rect x="187" y="3" width="24" height="32" rx="10"/>
         <rect x="185" y="1" width="24" height="32" class="terminal" rx="10"/>
         <text class="terminal" x="195" y="21">,</text>
<!--  <a xmlns:xlink="http://www.w3.org/1999/xlink" xlink:href="#messagename" xlink:title="messagename"> -->
            <rect x="231" y="3" width="112" height="32"/>
            <rect x="229" y="1" width="112" height="32" class="nonterminal"/>
            <text class="nonterminal" x="239" y="21">messagename</text><!-- </a> -->
<rect x="45" y="85" width="24" height="32" rx="10"/>
         <rect x="43" y="83" width="24" height="32" class="terminal" rx="10"/>
         <text class="terminal" x="53" y="103">,</text>
         <rect x="109" y="85" width="102" height="32" rx="10"/>
         <rect x="107" y="83" width="102" height="32" class="terminal" rx="10"/>
         <text class="terminal" x="117" y="103">"Individual"</text>
         <rect x="271" y="85" width="24" height="32" rx="10"/>
         <rect x="269" y="83" width="24" height="32" class="terminal" rx="10"/>
         <text class="terminal" x="279" y="103">,</text>
<!--  <a xmlns:xlink="http://www.w3.org/1999/xlink" xlink:href="#argument" xlink:title="argument"> -->
            <rect x="335" y="117" width="82" height="32"/>
            <rect x="333" y="115" width="82" height="32" class="nonterminal"/>
            <text class="nonterminal" x="343" y="135">argument</text><!-- </a> -->
<rect x="109" y="183" width="70" height="32" rx="10"/>
         <rect x="107" y="181" width="70" height="32" class="terminal" rx="10"/>
         <text class="terminal" x="117" y="201">"Array"</text>
         <rect x="199" y="183" width="24" height="32" rx="10"/>
         <rect x="197" y="181" width="24" height="32" class="terminal" rx="10"/>
         <text class="terminal" x="207" y="201">,</text>
<!--  <a xmlns:xlink="http://www.w3.org/1999/xlink" xlink:href="#arguments" xlink:title="arguments"> -->
            <rect x="243" y="183" width="88" height="32"/>
            <rect x="241" y="181" width="88" height="32" class="nonterminal"/>
            <text class="nonterminal" x="251" y="201">arguments</text><!-- </a> -->
<rect x="537" y="85" width="26" height="32" rx="10"/>
         <rect x="535" y="83" width="26" height="32" class="terminal" rx="10"/>
         <text class="terminal" x="545" y="103">)</text>
         <svg:path xmlns:svg="http://www.w3.org/2000/svg" class="line" d="m19 17 h2 m0 0 h10 m56 0 h10 m0 0 h10 m58 0 h10 m0 0 h10 m24 0 h10 m0 0 h10 m112 0 h10 m2 0 l2 0 m2 0 l2 0 m2 0 l2 0 m-362 82 l2 0 m2 0 l2 0 m2 0 l2 0 m22 0 h10 m24 0 h10 m20 0 h10 m102 0 h10 m40 0 h10 m24 0 h10 m20 0 h10 m0 0 h92 m-122 0 h20 m102 0 h20 m-142 0 q10 0 10 10 m122 0 q0 -10 10 -10 m-132 10 v12 m122 0 v-12 m-122 12 q0 10 10 10 m102 0 q10 0 10 -10 m-112 10 h10 m82 0 h10 m-186 -32 l20 0 m-1 0 q-9 0 -9 -10 l0 -12 q0 -10 10 -10 m186 32 l20 0 m-20 0 q10 0 10 -10 l0 -12 q0 -10 -10 -10 m-186 0 h10 m0 0 h176 m-226 32 h20 m226 0 h20 m-266 0 q10 0 10 10 m246 0 q0 -10 10 -10 m-256 10 v46 m246 0 v-46 m-246 46 q0 10 10 10 m226 0 q10 0 10 -10 m-236 10 h10 m0 0 h216 m-388 -66 h20 m388 0 h20 m-428 0 q10 0 10 10 m408 0 q0 -10 10 -10 m-418 10 v78 m408 0 v-78 m-408 78 q0 10 10 10 m388 0 q10 0 10 -10 m-398 10 h10 m70 0 h10 m0 0 h10 m24 0 h10 m0 0 h10 m88 0 h10 m0 0 h146 m-472 -98 h20 m472 0 h20 m-512 0 q10 0 10 10 m492 0 q0 -10 10 -10 m-502 10 v112 m492 0 v-112 m-492 112 q0 10 10 10 m472 0 q10 0 10 -10 m-482 10 h10 m0 0 h462 m20 -132 h10 m26 0 h10 m3 0 h-3"/>
         <polygon points="581 99 589 95 589 103"/>
         <polygon points="581 99 573 95 573 103"/></svg>
