      <svg xmlns="http://www.w3.org/2000/svg" width="504" height="84">
         <defs>
            <style type="text/css">
               @namespace "http://www.w3.org/2000/svg";
               .line                 {fill: none; stroke: #1F1F1F;}
               .bold-line            {stroke: #0A0A0A; shape-rendering: crispEdges; stroke-width:
               2; }
               .thin-line            {stroke: #0F0F0F; shape-rendering: crispEdges}
               .filled               {fill: #1F1F1F; stroke: none;}
               text.terminal         {font-family: Verdana, Sans-serif;
               font-size: 12px;
               fill: #0A0A0A;
               font-weight: bold;
               }
               text.nonterminal      {font-family: Verdana, Sans-serif; font-style: italic;
               font-size: 12px;
               fill: #0D0D0D;
               }
               text.regexp           {font-family: Verdana, Sans-serif;
               font-size: 12px;
               fill: #0F0F0F;
               }
               rect, circle, polygon {fill: #1F1F1F; stroke: #1F1F1F;}
               rect.terminal         {fill: #CCCCCC; stroke: #1F1F1F;}
               rect.nonterminal      {fill: #E3E3E3; stroke: #1F1F1F;}
               rect.text             {fill: none; stroke: none;}    
               polygon.regexp        {fill: #EFEFEF; stroke: #1F1F1F;}
               
            </style>
         </defs>
         <polygon points="9 33 1 29 1 37"/>
         <polygon points="17 33 9 29 9 37"/>
         <rect x="31" y="19" width="58" height="32" rx="10"/>
         <rect x="29" y="17" width="58" height="32" class="terminal" rx="10"/>
         <text class="terminal" x="39" y="37">send(</text>
<!--     <a xmlns:xlink="http://www.w3.org/1999/xlink" xlink:href="#target" xlink:title="target"> -->
            <rect x="129" y="51" width="58" height="32"/>
            <rect x="127" y="49" width="58" height="32" class="nonterminal"/>
            <text class="nonterminal" x="137" y="69">target</text>
<!--     </a> -->
         <rect x="267" y="19" width="24" height="32" rx="10"/>
         <rect x="265" y="17" width="24" height="32" class="terminal" rx="10"/>
         <text class="terminal" x="275" y="37">,</text>
<!--     <a xmlns:xlink="http://www.w3.org/1999/xlink" xlink:href="#argument" xlink:title="argument"> -->
            <rect x="311" y="19" width="80" height="32"/>
            <rect x="309" y="17" width="80" height="32" class="nonterminal"/>
            <text class="nonterminal" x="319" y="37">argument</text>
<!--     </a> -->
         <rect x="451" y="19" width="26" height="32" rx="10"/>
         <rect x="449" y="17" width="26" height="32" class="terminal" rx="10"/>
         <text class="terminal" x="459" y="37">)</text>
         <svg:path xmlns:svg="http://www.w3.org/2000/svg" class="line" d="m17 33 h2 m0 0 h10 m58 0 h10 m20 0 h10 m0 0 h68 m-98 0 h20 m78 0 h20 m-118 0 q10 0 10 10 m98 0 q0 -10 10 -10 m-108 10 v12 m98 0 v-12 m-98 12 q0 10 10 10 m78 0 q10 0 10 -10 m-88 10 h10 m58 0 h10 m60 -32 h10 m24 0 h10 m0 0 h10 m80 0 h10 m-164 0 l20 0 m-1 0 q-9 0 -9 -10 l0 -12 q0 -10 10 -10 m144 32 l20 0 m-20 0 q10 0 10 -10 l0 -12 q0 -10 -10 -10 m-144 0 h10 m0 0 h134 m-184 32 h20 m184 0 h20 m-224 0 q10 0 10 10 m204 0 q0 -10 10 -10 m-214 10 v14 m204 0 v-14 m-204 14 q0 10 10 10 m184 0 q10 0 10 -10 m-194 10 h10 m0 0 h174 m20 -34 h10 m26 0 h10 m3 0 h-3"/>
         <polygon points="495 33 503 29 503 37"/>
         <polygon points="495 33 487 29 487 37"/>
      </svg>
