      <svg xmlns="http://www.w3.org/2000/svg" width="828" height="232">
         <defs>
            <style type="text/css">
               @namespace "http://www.w3.org/2000/svg";
               .line                 {fill: none; stroke: #1F1F1F;}
               .bold-line            {stroke: #0A0A0A; shape-rendering: crispEdges; stroke-width:
               2; }
               .thin-line            {stroke: #0F0F0F; shape-rendering: crispEdges}
               .filled               {fill: #1F1F1F; stroke: none;}
               text.terminal         {font-family: Verdana, Sans-serif;
               font-size: 12px;
               fill: #0A0A0A;
               font-weight: bold;
               }
               text.nonterminal      {font-family: Verdana, Sans-serif; font-style: italic;
               font-size: 12px;
               fill: #0D0D0D;
               }
               text.regexp           {font-family: Verdana, Sans-serif;
               font-size: 12px;
               fill: #0F0F0F;
               }
               rect, circle, polygon {fill: #1F1F1F; stroke: #1F1F1F;}
               rect.terminal         {fill: #CCCCCC; stroke: #1F1F1F;}
               rect.nonterminal      {fill: #E3E3E3; stroke: #1F1F1F;}
               rect.text             {fill: none; stroke: none;}    
               polygon.regexp        {fill: #EFEFEF; stroke: #1F1F1F;}
               
            </style>
         </defs>
         <polygon points="9 33 1 29 1 37"/>
         <polygon points="17 33 9 29 9 37"/>
         <rect x="31" y="19" width="54" height="32" rx="10"/>
         <rect x="29" y="17" width="54" height="32" class="terminal" rx="10"/>
         <text class="terminal" x="39" y="37">new(</text>
<!--     <a xmlns:xlink="http://www.w3.org/1999/xlink" xlink:href="#target" xlink:title="target"> -->
            <rect x="105" y="19" width="58" height="32"/>
            <rect x="103" y="17" width="58" height="32" class="nonterminal"/>
            <text class="nonterminal" x="113" y="37">target</text>
<!--     </a> -->
         <rect x="183" y="19" width="24" height="32" rx="10"/>
         <rect x="181" y="17" width="24" height="32" class="terminal" rx="10"/>
         <text class="terminal" x="191" y="37">,</text>
<!--     <a xmlns:xlink="http://www.w3.org/1999/xlink" xlink:href="#messagename" xlink:title="messagename"> -->
            <rect x="227" y="19" width="112" height="32"/>
            <rect x="225" y="17" width="112" height="32" class="nonterminal"/>
            <text class="nonterminal" x="235" y="37">messagename</text>
<!--     </a> -->
         <rect x="379" y="19" width="24" height="32" rx="10"/>
         <rect x="377" y="17" width="24" height="32" class="terminal" rx="10"/>
         <text class="terminal" x="387" y="37">,</text>
         <rect x="423" y="19" width="100" height="32" rx="10"/>
         <rect x="421" y="17" width="100" height="32" class="terminal" rx="10"/>
         <text class="terminal" x="431" y="37">"Individual"</text>
         <rect x="583" y="19" width="24" height="32" rx="10"/>
         <rect x="581" y="17" width="24" height="32" class="terminal" rx="10"/>
         <text class="terminal" x="591" y="37">,</text>
<!--     <a xmlns:xlink="http://www.w3.org/1999/xlink" xlink:href="#argument" xlink:title="argument"> -->
            <rect x="647" y="51" width="80" height="32"/>
            <rect x="645" y="49" width="80" height="32" class="nonterminal"/>
            <text class="nonterminal" x="655" y="69">argument</text>
<!--     </a> -->
         <rect x="379" y="117" width="24" height="32" rx="10"/>
         <rect x="377" y="115" width="24" height="32" class="terminal" rx="10"/>
         <text class="terminal" x="387" y="135">,</text>
         <rect x="423" y="117" width="70" height="32" rx="10"/>
         <rect x="421" y="115" width="70" height="32" class="terminal" rx="10"/>
         <text class="terminal" x="431" y="135">"Array"</text>
         <rect x="513" y="117" width="24" height="32" rx="10"/>
         <rect x="511" y="115" width="24" height="32" class="terminal" rx="10"/>
         <text class="terminal" x="521" y="135">,</text>
<!--     <a xmlns:xlink="http://www.w3.org/1999/xlink" xlink:href="#arguments" xlink:title="arguments"> -->
            <rect x="557" y="117" width="88" height="32"/>
            <rect x="555" y="115" width="88" height="32" class="nonterminal"/>
            <text class="nonterminal" x="565" y="135">arguments</text>
<!--     </a> -->
         <rect x="775" y="199" width="26" height="32" rx="10"/>
         <rect x="773" y="197" width="26" height="32" class="terminal" rx="10"/>
         <text class="terminal" x="783" y="217">)</text>
         <svg:path xmlns:svg="http://www.w3.org/2000/svg" class="line" d="m17 33 h2 m0 0 h10 m54 0 h10 m0 0 h10 m58 0 h10 m0 0 h10 m24 0 h10 m0 0 h10 m112 0 h10 m20 0 h10 m24 0 h10 m0 0 h10 m100 0 h10 m40 0 h10 m24 0 h10 m20 0 h10 m0 0 h90 m-120 0 h20 m100 0 h20 m-140 0 q10 0 10 10 m120 0 q0 -10 10 -10 m-130 10 v12 m120 0 v-12 m-120 12 q0 10 10 10 m100 0 q10 0 10 -10 m-110 10 h10 m80 0 h10 m-184 -32 l20 0 m-1 0 q-9 0 -9 -10 l0 -12 q0 -10 10 -10 m184 32 l20 0 m-20 0 q10 0 10 -10 l0 -12 q0 -10 -10 -10 m-184 0 h10 m0 0 h174 m-224 32 h20 m224 0 h20 m-264 0 q10 0 10 10 m244 0 q0 -10 10 -10 m-254 10 v46 m244 0 v-46 m-244 46 q0 10 10 10 m224 0 q10 0 10 -10 m-234 10 h10 m0 0 h214 m-428 -66 h20 m428 0 h20 m-468 0 q10 0 10 10 m448 0 q0 -10 10 -10 m-458 10 v78 m448 0 v-78 m-448 78 q0 10 10 10 m428 0 q10 0 10 -10 m-438 10 h10 m24 0 h10 m0 0 h10 m70 0 h10 m0 0 h10 m24 0 h10 m0 0 h10 m88 0 h10 m0 0 h142 m-438 -10 v20 m448 0 v-20 m-448 20 v14 m448 0 v-14 m-448 14 q0 10 10 10 m428 0 q10 0 10 -10 m-438 10 h10 m0 0 h418 m22 -132 l2 0 m2 0 l2 0 m2 0 l2 0 m-76 180 l2 0 m2 0 l2 0 m2 0 l2 0 m2 0 h10 m26 0 h10 m3 0 h-3"/>
         <polygon points="819 213 827 209 827 217"/>
         <polygon points="819 213 811 209 811 217"/>
      </svg>
