      <svg xmlns="http://www.w3.org/2000/svg" width="454" height="68">
         <defs>
            <style type="text/css">
               @namespace "http://www.w3.org/2000/svg";
               .line                 {fill: none; stroke: #1F1F1F;}
               .bold-line            {stroke: #0A0A0A; shape-rendering: crispEdges; stroke-width:
               2; }
               .thin-line            {stroke: #0F0F0F; shape-rendering: crispEdges}
               .filled               {fill: #1F1F1F; stroke: none;}
               text.terminal         {font-family: Verdana, Sans-serif;
               font-size: 12px;
               fill: #0A0A0A;
               font-weight: bold;
               }
               text.nonterminal      {font-family: Verdana, Sans-serif; font-style: italic;
               font-size: 12px;
               fill: #0D0D0D;
               }
               text.regexp           {font-family: Verdana, Sans-serif;
               font-size: 12px;
               fill: #0F0F0F;
               }
               rect, circle, polygon {fill: #1F1F1F; stroke: #1F1F1F;}
               rect.terminal         {fill: #CCCCCC; stroke: #1F1F1F;}
               rect.nonterminal      {fill: #E3E3E3; stroke: #1F1F1F;}
               rect.text             {fill: none; stroke: none;}    
               polygon.regexp        {fill: #EFEFEF; stroke: #1F1F1F;}
               
            </style>
         </defs>
         <polygon points="9 17 1 13 1 21"/>
         <polygon points="17 17 9 13 9 21"/>
         <rect x="31" y="3" width="86" height="32" rx="10"/>
         <rect x="29" y="1" width="86" height="32" class="terminal" rx="10"/>
         <text class="terminal" x="39" y="21">sendWith(</text>
<!--     <a xmlns:xlink="http://www.w3.org/1999/xlink" xlink:href="#target" xlink:title="target"> -->
            <rect x="157" y="35" width="56" height="32"/>
            <rect x="155" y="33" width="56" height="32" class="nonterminal"/>
            <text class="nonterminal" x="165" y="53">target</text>
<!--     </a> -->
         <rect x="253" y="3" width="24" height="32" rx="10"/>
         <rect x="251" y="1" width="24" height="32" class="terminal" rx="10"/>
         <text class="terminal" x="261" y="21">,</text>
<!--     <a xmlns:xlink="http://www.w3.org/1999/xlink" xlink:href="#arguments" xlink:title="arguments"> -->
            <rect x="297" y="3" width="84" height="32"/>
            <rect x="295" y="1" width="84" height="32" class="nonterminal"/>
            <text class="nonterminal" x="305" y="21">arguments</text>
<!--     </a> -->
         <rect x="401" y="3" width="26" height="32" rx="10"/>
         <rect x="399" y="1" width="26" height="32" class="terminal" rx="10"/>
         <text class="terminal" x="409" y="21">)</text>
         <svg:path xmlns:svg="http://www.w3.org/2000/svg" class="line" d="m17 17 h2 m0 0 h10 m86 0 h10 m20 0 h10 m0 0 h66 m-96 0 h20 m76 0 h20 m-116 0 q10 0 10 10 m96 0 q0 -10 10 -10 m-106 10 v12 m96 0 v-12 m-96 12 q0 10 10 10 m76 0 q10 0 10 -10 m-86 10 h10 m56 0 h10 m20 -32 h10 m24 0 h10 m0 0 h10 m84 0 h10 m0 0 h10 m26 0 h10 m3 0 h-3"/>
         <polygon points="445 17 453 13 453 21"/>
         <polygon points="445 17 437 13 437 21"/>
      </svg>
