      <svg xmlns="http://www.w3.org/2000/svg" width="796" height="134">
         <defs>
            <style type="text/css">
               @namespace "http://www.w3.org/2000/svg";
               .line                 {fill: none; stroke: #1F1F1F;}
               .bold-line            {stroke: #0A0A0A; shape-rendering: crispEdges; stroke-width:
               2; }
               .thin-line            {stroke: #0F0F0F; shape-rendering: crispEdges}
               .filled               {fill: #1F1F1F; stroke: none;}
               text.terminal         {font-family: Verdana, Sans-serif;
               font-size: 12px;
               fill: #0A0A0A;
               font-weight: bold;
               }
               text.nonterminal      {font-family: Verdana, Sans-serif; font-style: italic;
               font-size: 12px;
               fill: #0D0D0D;
               }
               text.regexp           {font-family: Verdana, Sans-serif;
               font-size: 12px;
               fill: #0F0F0F;
               }
               rect, circle, polygon {fill: #1F1F1F; stroke: #1F1F1F;}
               rect.terminal         {fill: #CCCCCC; stroke: #1F1F1F;}
               rect.nonterminal      {fill: #E3E3E3; stroke: #1F1F1F;}
               rect.text             {fill: none; stroke: none;}    
               polygon.regexp        {fill: #EFEFEF; stroke: #1F1F1F;}
               
            </style>
         </defs>
         <polygon points="9 33 1 29 1 37"/>
         <polygon points="17 33 9 29 9 37"/>
         <rect x="31" y="19" width="54" height="32" rx="10"/>
         <rect x="29" y="17" width="54" height="32" class="terminal" rx="10"/>
         <text class="terminal" x="39" y="37">new(</text>
<!--     <a xmlns:xlink="http://www.w3.org/1999/xlink" xlink:href="#target" xlink:title="target"> -->
            <rect x="105" y="19" width="58" height="32"/>
            <rect x="103" y="17" width="58" height="32" class="nonterminal"/>
            <text class="nonterminal" x="113" y="37">target</text>
<!--     </a> -->
         <rect x="183" y="19" width="24" height="32" rx="10"/>
         <rect x="181" y="17" width="24" height="32" class="terminal" rx="10"/>
         <text class="terminal" x="191" y="37">,</text>
<!--     <a xmlns:xlink="http://www.w3.org/1999/xlink" xlink:href="#messagename" xlink:title="messagename"> -->
            <rect x="227" y="19" width="112" height="32"/>
            <rect x="225" y="17" width="112" height="32" class="nonterminal"/>
            <text class="nonterminal" x="235" y="37">messagename</text>
<!--     </a> -->
         <rect x="379" y="19" width="100" height="32" rx="10"/>
         <rect x="377" y="17" width="100" height="32" class="terminal" rx="10"/>
         <text class="terminal" x="387" y="37">"Individual"</text>
         <rect x="539" y="19" width="24" height="32" rx="10"/>
         <rect x="537" y="17" width="24" height="32" class="terminal" rx="10"/>
         <text class="terminal" x="547" y="37">,</text>
<!--     <a xmlns:xlink="http://www.w3.org/1999/xlink" xlink:href="#argument" xlink:title="argument"> -->
            <rect x="583" y="19" width="80" height="32"/>
            <rect x="581" y="17" width="80" height="32" class="nonterminal"/>
            <text class="nonterminal" x="591" y="37">argument</text>
<!--     </a> -->
         <rect x="379" y="85" width="70" height="32" rx="10"/>
         <rect x="377" y="83" width="70" height="32" class="terminal" rx="10"/>
         <text class="terminal" x="387" y="103">"Array"</text>
         <rect x="469" y="85" width="24" height="32" rx="10"/>
         <rect x="467" y="83" width="24" height="32" class="terminal" rx="10"/>
         <text class="terminal" x="477" y="103">,</text>
<!--     <a xmlns:xlink="http://www.w3.org/1999/xlink" xlink:href="#argument" xlink:title="argument"> -->
            <rect x="513" y="85" width="80" height="32"/>
            <rect x="511" y="83" width="80" height="32" class="nonterminal"/>
            <text class="nonterminal" x="521" y="103">argument</text>
<!--     </a> -->
         <rect x="743" y="19" width="26" height="32" rx="10"/>
         <rect x="741" y="17" width="26" height="32" class="terminal" rx="10"/>
         <text class="terminal" x="751" y="37">)</text>
         <svg:path xmlns:svg="http://www.w3.org/2000/svg" class="line" d="m17 33 h2 m0 0 h10 m54 0 h10 m0 0 h10 m58 0 h10 m0 0 h10 m24 0 h10 m0 0 h10 m112 0 h10 m20 0 h10 m100 0 h10 m40 0 h10 m24 0 h10 m0 0 h10 m80 0 h10 m-164 0 l20 0 m-1 0 q-9 0 -9 -10 l0 -12 q0 -10 10 -10 m144 32 l20 0 m-20 0 q10 0 10 -10 l0 -12 q0 -10 -10 -10 m-144 0 h10 m0 0 h134 m-184 32 h20 m184 0 h20 m-224 0 q10 0 10 10 m204 0 q0 -10 10 -10 m-214 10 v14 m204 0 v-14 m-204 14 q0 10 10 10 m184 0 q10 0 10 -10 m-194 10 h10 m0 0 h174 m-344 -34 h20 m344 0 h20 m-384 0 q10 0 10 10 m364 0 q0 -10 10 -10 m-374 10 v46 m364 0 v-46 m-364 46 q0 10 10 10 m344 0 q10 0 10 -10 m-354 10 h10 m70 0 h10 m0 0 h10 m24 0 h10 m0 0 h10 m80 0 h10 m0 0 h110 m-354 -10 v20 m364 0 v-20 m-364 20 v14 m364 0 v-14 m-364 14 q0 10 10 10 m344 0 q10 0 10 -10 m-354 10 h10 m0 0 h334 m20 -100 h10 m26 0 h10 m3 0 h-3"/>
         <polygon points="787 33 795 29 795 37"/>
         <polygon points="787 33 779 29 779 37"/>
      </svg>
