      <svg xmlns="http://www.w3.org/2000/svg" width="502" height="68">
         <defs>
            <style type="text/css">
               @namespace "http://www.w3.org/2000/svg";
               .line                 {fill: none; stroke: #1F1F1F;}
               .bold-line            {stroke: #0A0A0A; shape-rendering: crispEdges; stroke-width:
               2; }
               .thin-line            {stroke: #0F0F0F; shape-rendering: crispEdges}
               .filled               {fill: #1F1F1F; stroke: none;}
               text.terminal         {font-family: Verdana, Sans-serif;
               font-size: 12px;
               fill: #0A0A0A;
               font-weight: bold;
               }
               text.nonterminal      {font-family: Verdana, Sans-serif; font-style: italic;
               font-size: 12px;
               fill: #0D0D0D;
               }
               text.regexp           {font-family: Verdana, Sans-serif;
               font-size: 12px;
               fill: #0F0F0F;
               }
               rect, circle, polygon {fill: #1F1F1F; stroke: #1F1F1F;}
               rect.terminal         {fill: #CCCCCC; stroke: #1F1F1F;}
               rect.nonterminal      {fill: #E3E3E3; stroke: #1F1F1F;}
               rect.text             {fill: none; stroke: none;}    
               polygon.regexp        {fill: #EFEFEF; stroke: #1F1F1F;}
               
            </style>
         </defs>
         <polygon points="9 17 1 13 1 21"/>
         <polygon points="17 17 9 13 9 21"/>
         <rect x="31" y="3" width="158" height="32" rx="10"/>
         <rect x="29" y="1" width="158" height="32" class="terminal" rx="10"/>
         <text class="terminal" x="39" y="21">setSecurityManager(</text>
<!--     <a xmlns:xlink="http://www.w3.org/1999/xlink" xlink:href="#security_manager_object" xlink:title="security_manager_object"> -->
            <rect x="229" y="35" width="180" height="32"/>
            <rect x="227" y="33" width="180" height="32" class="nonterminal"/>
            <text class="nonterminal" x="237" y="53">security_manager_object</text>
<!--     </a> -->
         <rect x="449" y="3" width="26" height="32" rx="10"/>
         <rect x="447" y="1" width="26" height="32" class="terminal" rx="10"/>
         <text class="terminal" x="457" y="21">)</text>
         <svg:path xmlns:svg="http://www.w3.org/2000/svg" class="line" d="m17 17 h2 m0 0 h10 m158 0 h10 m20 0 h10 m0 0 h190 m-220 0 h20 m200 0 h20 m-240 0 q10 0 10 10 m220 0 q0 -10 10 -10 m-230 10 v12 m220 0 v-12 m-220 12 q0 10 10 10 m200 0 q10 0 10 -10 m-210 10 h10 m180 0 h10 m20 -32 h10 m26 0 h10 m3 0 h-3"/>
         <polygon points="493 17 501 13 501 21"/>
         <polygon points="493 17 485 13 485 21"/>
      </svg>
