      <svg xmlns="http://www.w3.org/2000/svg" width="340" height="68">
         <defs>
            <style type="text/css">
               @namespace "http://www.w3.org/2000/svg";
               .line                 {fill: none; stroke: #1F1F1F;}
               .bold-line            {stroke: #0A0A0A; shape-rendering: crispEdges; stroke-width:
               2; }
               .thin-line            {stroke: #0F0F0F; shape-rendering: crispEdges}
               .filled               {fill: #1F1F1F; stroke: none;}
               text.terminal         {font-family: Verdana, Sans-serif;
               font-size: 12px;
               fill: #0A0A0A;
               font-weight: bold;
               }
               text.nonterminal      {font-family: Verdana, Sans-serif; font-style: italic;
               font-size: 12px;
               fill: #0D0D0D;
               }
               text.regexp           {font-family: Verdana, Sans-serif;
               font-size: 12px;
               fill: #0F0F0F;
               }
               rect, circle, polygon {fill: #1F1F1F; stroke: #1F1F1F;}
               rect.terminal         {fill: #CCCCCC; stroke: #1F1F1F;}
               rect.nonterminal      {fill: #E3E3E3; stroke: #1F1F1F;}
               rect.text             {fill: none; stroke: none;}    
               polygon.regexp        {fill: #EFEFEF; stroke: #1F1F1F;}
               
            </style>
         </defs>
         <polygon points="9 17 1 13 1 21"/>
         <polygon points="17 17 9 13 9 21"/>
         <rect x="31" y="3" width="40" height="32" rx="10"/>
         <rect x="29" y="1" width="40" height="32" class="terminal" rx="10"/>
         <text class="terminal" x="39" y="21">init</text>
         <rect x="111" y="35" width="26" height="32" rx="10"/>
         <rect x="109" y="33" width="26" height="32" class="terminal" rx="10"/>
         <text class="terminal" x="119" y="53">(</text>
<!--     <a xmlns:xlink="http://www.w3.org/1999/xlink" xlink:href="#destination" xlink:title="destination"> -->
            <rect x="157" y="35" width="90" height="32"/>
            <rect x="155" y="33" width="90" height="32" class="nonterminal"/>
            <text class="nonterminal" x="165" y="53">destination</text>
<!--     </a> -->
         <rect x="267" y="35" width="26" height="32" rx="10"/>
         <rect x="265" y="33" width="26" height="32" class="terminal" rx="10"/>
         <text class="terminal" x="275" y="53">)</text>
         <svg:path xmlns:svg="http://www.w3.org/2000/svg" class="line" d="m17 17 h2 m0 0 h10 m40 0 h10 m20 0 h10 m0 0 h192 m-222 0 h20 m202 0 h20 m-242 0 q10 0 10 10 m222 0 q0 -10 10 -10 m-232 10 v12 m222 0 v-12 m-222 12 q0 10 10 10 m202 0 q10 0 10 -10 m-212 10 h10 m26 0 h10 m0 0 h10 m90 0 h10 m0 0 h10 m26 0 h10 m23 -32 h-3"/>
         <polygon points="331 17 339 13 339 21"/>
         <polygon points="331 17 323 13 323 21"/>
      </svg>
