      <svg xmlns="http://www.w3.org/2000/svg" width="464" height="80">
         <defs>
            <style type="text/css">
               @namespace "http://www.w3.org/2000/svg";
               .line                 {fill: none; stroke: #1F1F1F;}
               .bold-line            {stroke: #0A0A0A; shape-rendering: crispEdges; stroke-width:
               2; }
               .thin-line            {stroke: #0F0F0F; shape-rendering: crispEdges}
               .filled               {fill: #1F1F1F; stroke: none;}
               text.terminal         {font-family: Verdana, Sans-serif;
               font-size: 12px;
               fill: #0A0A0A;
               font-weight: bold;
               }
               text.nonterminal      {font-family: Verdana, Sans-serif; font-style: italic;
               font-size: 12px;
               fill: #0D0D0D;
               }
               text.regexp           {font-family: Verdana, Sans-serif;
               font-size: 12px;
               fill: #0F0F0F;
               }
               rect, circle, polygon {fill: #1F1F1F; stroke: #1F1F1F;}
               rect.terminal         {fill: #CCCCCC; stroke: #1F1F1F;}
               rect.nonterminal      {fill: #E3E3E3; stroke: #1F1F1F;}
               rect.text             {fill: none; stroke: none;}    
               polygon.regexp        {fill: #EFEFEF; stroke: #1F1F1F;}
               
            </style>
         </defs>
         <polygon points="9 17 1 13 1 21"/>
         <polygon points="17 17 9 13 9 21"/>
         <rect x="51" y="3" width="68" height="32" rx="10"/>
         <rect x="49" y="1" width="68" height="32" class="terminal" rx="10"/>
         <text class="terminal" x="59" y="21">delete(</text>
         <rect x="51" y="47" width="66" height="32" rx="10"/>
         <rect x="49" y="45" width="66" height="32" class="terminal" rx="10"/>
         <text class="terminal" x="59" y="65">delStr(</text>
<!--     <a xmlns:xlink="http://www.w3.org/1999/xlink" xlink:href="#n" xlink:title="n"> -->
            <rect x="179" y="35" width="28" height="32"/>
            <rect x="177" y="33" width="28" height="32" class="nonterminal"/>
            <text class="nonterminal" x="187" y="53">n</text>
<!--     </a> -->
         <rect x="267" y="35" width="24" height="32" rx="10"/>
         <rect x="265" y="33" width="24" height="32" class="terminal" rx="10"/>
         <text class="terminal" x="275" y="53">,</text>
<!--     <a xmlns:xlink="http://www.w3.org/1999/xlink" xlink:href="#length" xlink:title="length"> -->
            <rect x="311" y="35" width="60" height="32"/>
            <rect x="309" y="33" width="60" height="32" class="nonterminal"/>
            <text class="nonterminal" x="319" y="53">length</text>
<!--     </a> -->
         <rect x="411" y="3" width="26" height="32" rx="10"/>
         <rect x="409" y="1" width="26" height="32" class="terminal" rx="10"/>
         <text class="terminal" x="419" y="21">)</text>
         <svg:path xmlns:svg="http://www.w3.org/2000/svg" class="line" d="m17 17 h2 m20 0 h10 m68 0 h10 m-108 0 h20 m88 0 h20 m-128 0 q10 0 10 10 m108 0 q0 -10 10 -10 m-118 10 v24 m108 0 v-24 m-108 24 q0 10 10 10 m88 0 q10 0 10 -10 m-98 10 h10 m66 0 h10 m0 0 h2 m40 -44 h10 m0 0 h38 m-68 0 h20 m48 0 h20 m-88 0 q10 0 10 10 m68 0 q0 -10 10 -10 m-78 10 v12 m68 0 v-12 m-68 12 q0 10 10 10 m48 0 q10 0 10 -10 m-58 10 h10 m28 0 h10 m40 -32 h10 m0 0 h114 m-144 0 h20 m124 0 h20 m-164 0 q10 0 10 10 m144 0 q0 -10 10 -10 m-154 10 v12 m144 0 v-12 m-144 12 q0 10 10 10 m124 0 q10 0 10 -10 m-134 10 h10 m24 0 h10 m0 0 h10 m60 0 h10 m20 -32 h10 m26 0 h10 m3 0 h-3"/>
         <polygon points="455 17 463 13 463 21"/>
         <polygon points="455 17 447 13 447 21"/>
      </svg>
