      <svg xmlns="http://www.w3.org/2000/svg" width="656" height="166">
         <defs>
            <style type="text/css">
               @namespace "http://www.w3.org/2000/svg";
               .line                 {fill: none; stroke: #1F1F1F;}
               .bold-line            {stroke: #0A0A0A; shape-rendering: crispEdges; stroke-width:
               2; }
               .thin-line            {stroke: #0F0F0F; shape-rendering: crispEdges}
               .filled               {fill: #1F1F1F; stroke: none;}
               text.terminal         {font-family: Verdana, Sans-serif;
               font-size: 12px;
               fill: #0A0A0A;
               font-weight: bold;
               }
               text.nonterminal      {font-family: Verdana, Sans-serif;
               font-size: 12px;
               fill: #0D0D0D;
               }
               text.regexp           {font-family: Verdana, Sans-serif;
               font-size: 12px;
               fill: #0F0F0F;
               }
               rect, circle, polygon {fill: #1F1F1F; stroke: #1F1F1F;}
               rect.terminal         {fill: #CCCCCC; stroke: #1F1F1F;}
               rect.nonterminal      {fill: #E3E3E3; stroke: #1F1F1F;}
               rect.text             {fill: none; stroke: none;}    
               polygon.regexp        {fill: #EFEFEF; stroke: #1F1F1F;}
               
            </style>
         </defs>
         <polygon points="9 17 1 13 1 21"/>
         <polygon points="17 17 9 13 9 21"/>
         <rect x="31" y="3" width="86" height="32" rx="10"/>
         <rect x="29" y="1" width="86" height="32" class="terminal" rx="10"/>
         <text class="terminal" x="39" y="21">translate(</text>
         <a xmlns:xlink="http://www.w3.org/1999/xlink" xlink:href="#tableo" xlink:title="tableo">
            <rect x="157" y="3" width="60" height="32"/>
            <rect x="155" y="1" width="60" height="32" class="nonterminal"/>
            <text class="nonterminal" x="165" y="21">tableo</text>
         </a>
         <rect x="257" y="3" width="24" height="32" rx="10"/>
         <rect x="255" y="1" width="24" height="32" class="terminal" rx="10"/>
         <text class="terminal" x="265" y="21">,</text>
         <a xmlns:xlink="http://www.w3.org/1999/xlink" xlink:href="#tablei" xlink:title="tablei">
            <rect x="321" y="3" width="54" height="32"/>
            <rect x="319" y="1" width="54" height="32" class="nonterminal"/>
            <text class="nonterminal" x="329" y="21">tablei</text>
         </a>
         <rect x="415" y="3" width="24" height="32" rx="10"/>
         <rect x="413" y="1" width="24" height="32" class="terminal" rx="10"/>
         <text class="terminal" x="423" y="21">,</text>
         <a xmlns:xlink="http://www.w3.org/1999/xlink" xlink:href="#pad" xlink:title="pad">
            <rect x="459" y="3" width="44" height="32"/>
            <rect x="457" y="1" width="44" height="32" class="nonterminal"/>
            <text class="nonterminal" x="467" y="21">pad</text>
         </a>
         <a xmlns:xlink="http://www.w3.org/1999/xlink" xlink:href="#n" xlink:title="n">
            <rect x="157" y="101" width="28" height="32"/>
            <rect x="155" y="99" width="28" height="32" class="nonterminal"/>
            <text class="nonterminal" x="165" y="119">n</text>
         </a>
         <rect x="225" y="101" width="24" height="32" rx="10"/>
         <rect x="223" y="99" width="24" height="32" class="terminal" rx="10"/>
         <text class="terminal" x="233" y="119">,</text>
         <a xmlns:xlink="http://www.w3.org/1999/xlink" xlink:href="#length" xlink:title="length">
            <rect x="269" y="101" width="60" height="32"/>
            <rect x="267" y="99" width="60" height="32" class="nonterminal"/>
            <text class="nonterminal" x="277" y="119">length</text>
         </a>
         <rect x="603" y="3" width="26" height="32" rx="10"/>
         <rect x="601" y="1" width="26" height="32" class="terminal" rx="10"/>
         <text class="terminal" x="611" y="21">)</text>
         <svg:path xmlns:svg="http://www.w3.org/2000/svg" class="line" d="m17 17 h2 m0 0 h10 m86 0 h10 m20 0 h10 m60 0 h10 m20 0 h10 m24 0 h10 m20 0 h10 m54 0 h10 m20 0 h10 m24 0 h10 m0 0 h10 m44 0 h10 m-128 0 h20 m108 0 h20 m-148 0 q10 0 10 10 m128 0 q0 -10 10 -10 m-138 10 v14 m128 0 v-14 m-128 14 q0 10 10 10 m108 0 q10 0 10 -10 m-118 10 h10 m0 0 h98 m-222 -34 h20 m222 0 h20 m-262 0 q10 0 10 10 m242 0 q0 -10 10 -10 m-252 10 v30 m242 0 v-30 m-242 30 q0 10 10 10 m222 0 q10 0 10 -10 m-232 10 h10 m0 0 h212 m-306 -50 h20 m306 0 h20 m-346 0 q10 0 10 10 m326 0 q0 -10 10 -10 m-336 10 v46 m326 0 v-46 m-326 46 q0 10 10 10 m306 0 q10 0 10 -10 m-316 10 h10 m0 0 h296 m-426 -66 h20 m426 0 h20 m-466 0 q10 0 10 10 m446 0 q0 -10 10 -10 m-456 10 v78 m446 0 v-78 m-446 78 q0 10 10 10 m426 0 q10 0 10 -10 m-436 10 h10 m28 0 h10 m20 0 h10 m24 0 h10 m0 0 h10 m60 0 h10 m-144 0 h20 m124 0 h20 m-164 0 q10 0 10 10 m144 0 q0 -10 10 -10 m-154 10 v14 m144 0 v-14 m-144 14 q0 10 10 10 m124 0 q10 0 10 -10 m-134 10 h10 m0 0 h114 m20 -34 h214 m-436 -10 v20 m446 0 v-20 m-446 20 v30 m446 0 v-30 m-446 30 q0 10 10 10 m426 0 q10 0 10 -10 m-436 10 h10 m0 0 h416 m20 -148 h10 m26 0 h10 m3 0 h-3"/>
         <polygon points="647 17 655 13 655 21"/>
         <polygon points="647 17 639 13 639 21"/>
      </svg>
