      <svg xmlns="http://www.w3.org/2000/svg" width="770" height="84">
         <defs>
            <style type="text/css">
               @namespace "http://www.w3.org/2000/svg";
               .line                 {fill: none; stroke: #1F1F1F;}
               .bold-line            {stroke: #0A0A0A; shape-rendering: crispEdges; stroke-width:
               2; }
               .thin-line            {stroke: #0F0F0F; shape-rendering: crispEdges}
               .filled               {fill: #1F1F1F; stroke: none;}
               text.terminal         {font-family: Verdana, Sans-serif;
               font-size: 12px;
               fill: #0A0A0A;
               font-weight: bold;
               }
               text.nonterminal      {font-family: Verdana, Sans-serif;
               font-size: 12px;
               fill: #0D0D0D;
               }
               text.regexp           {font-family: Verdana, Sans-serif;
               font-size: 12px;
               fill: #0F0F0F;
               }
               rect, circle, polygon {fill: #1F1F1F; stroke: #1F1F1F;}
               rect.terminal         {fill: #CCCCCC; stroke: #1F1F1F;}
               rect.nonterminal      {fill: #E3E3E3; stroke: #1F1F1F;}
               rect.text             {fill: none; stroke: none;}    
               polygon.regexp        {fill: #EFEFEF; stroke: #1F1F1F;}
               
            </style>
         </defs>
         <polygon points="9 17 1 13 1 21"/>
         <polygon points="17 17 9 13 9 21"/>
         <rect x="31" y="3" width="76" height="32" rx="10"/>
         <rect x="29" y="1" width="76" height="32" class="terminal" rx="10"/>
         <text class="terminal" x="39" y="21">overlay(</text>
         <a xmlns:xlink="http://www.w3.org/1999/xlink" xlink:href="#new" xlink:title="new">
            <rect x="127" y="3" width="46" height="32"/>
            <rect x="125" y="1" width="46" height="32" class="nonterminal"/>
            <text class="nonterminal" x="135" y="21">new</text>
         </a>
         <rect x="213" y="3" width="24" height="32" rx="10"/>
         <rect x="211" y="1" width="24" height="32" class="terminal" rx="10"/>
         <text class="terminal" x="221" y="21">,</text>
         <a xmlns:xlink="http://www.w3.org/1999/xlink" xlink:href="#n" xlink:title="n">
            <rect x="277" y="3" width="28" height="32"/>
            <rect x="275" y="1" width="28" height="32" class="nonterminal"/>
            <text class="nonterminal" x="285" y="21">n</text>
         </a>
         <rect x="365" y="3" width="24" height="32" rx="10"/>
         <rect x="363" y="1" width="24" height="32" class="terminal" rx="10"/>
         <text class="terminal" x="373" y="21">,</text>
         <a xmlns:xlink="http://www.w3.org/1999/xlink" xlink:href="#length" xlink:title="length">
            <rect x="429" y="3" width="60" height="32"/>
            <rect x="427" y="1" width="60" height="32" class="nonterminal"/>
            <text class="nonterminal" x="437" y="21">length</text>
         </a>
         <rect x="549" y="3" width="24" height="32" rx="10"/>
         <rect x="547" y="1" width="24" height="32" class="terminal" rx="10"/>
         <text class="terminal" x="557" y="21">,</text>
         <a xmlns:xlink="http://www.w3.org/1999/xlink" xlink:href="#pad" xlink:title="pad">
            <rect x="593" y="3" width="44" height="32"/>
            <rect x="591" y="1" width="44" height="32" class="nonterminal"/>
            <text class="nonterminal" x="601" y="21">pad</text>
         </a>
         <rect x="717" y="3" width="26" height="32" rx="10"/>
         <rect x="715" y="1" width="26" height="32" class="terminal" rx="10"/>
         <text class="terminal" x="725" y="21">)</text>
         <svg:path xmlns:svg="http://www.w3.org/2000/svg" class="line" d="m17 17 h2 m0 0 h10 m76 0 h10 m0 0 h10 m46 0 h10 m20 0 h10 m24 0 h10 m20 0 h10 m28 0 h10 m-68 0 h20 m48 0 h20 m-88 0 q10 0 10 10 m68 0 q0 -10 10 -10 m-78 10 v14 m68 0 v-14 m-68 14 q0 10 10 10 m48 0 q10 0 10 -10 m-58 10 h10 m0 0 h38 m40 -34 h10 m24 0 h10 m20 0 h10 m60 0 h10 m-100 0 h20 m80 0 h20 m-120 0 q10 0 10 10 m100 0 q0 -10 10 -10 m-110 10 v14 m100 0 v-14 m-100 14 q0 10 10 10 m80 0 q10 0 10 -10 m-90 10 h10 m0 0 h70 m40 -34 h10 m24 0 h10 m0 0 h10 m44 0 h10 m-128 0 h20 m108 0 h20 m-148 0 q10 0 10 10 m128 0 q0 -10 10 -10 m-138 10 v14 m128 0 v-14 m-128 14 q0 10 10 10 m108 0 q10 0 10 -10 m-118 10 h10 m0 0 h98 m-312 -34 h20 m312 0 h20 m-352 0 q10 0 10 10 m332 0 q0 -10 10 -10 m-342 10 v30 m332 0 v-30 m-332 30 q0 10 10 10 m312 0 q10 0 10 -10 m-322 10 h10 m0 0 h302 m-484 -50 h20 m484 0 h20 m-524 0 q10 0 10 10 m504 0 q0 -10 10 -10 m-514 10 v46 m504 0 v-46 m-504 46 q0 10 10 10 m484 0 q10 0 10 -10 m-494 10 h10 m0 0 h474 m20 -66 h10 m26 0 h10 m3 0 h-3"/>
         <polygon points="761 17 769 13 769 21"/>
         <polygon points="761 17 753 13 753 21"/>
      </svg>
