      <svg xmlns="http://www.w3.org/2000/svg" width="452" height="68">
         <defs>
            <style type="text/css">
               @namespace "http://www.w3.org/2000/svg";
               .line                 {fill: none; stroke: #1F1F1F;}
               .bold-line            {stroke: #0A0A0A; shape-rendering: crispEdges; stroke-width:
               2; }
               .thin-line            {stroke: #0F0F0F; shape-rendering: crispEdges}
               .filled               {fill: #1F1F1F; stroke: none;}
               text.terminal         {font-family: Verdana, Sans-serif;
               font-size: 12px;
               fill: #0A0A0A;
               font-weight: bold;
               }
               text.nonterminal      {font-family: Verdana, Sans-serif; font-style: italic;
               font-size: 12px;
               fill: #0D0D0D;
               }
               text.regexp           {font-family: Verdana, Sans-serif;
               font-size: 12px;
               fill: #0F0F0F;
               }
               rect, circle, polygon {fill: #1F1F1F; stroke: #1F1F1F;}
               rect.terminal         {fill: #CCCCCC; stroke: #1F1F1F;}
               rect.nonterminal      {fill: #E3E3E3; stroke: #1F1F1F;}
               rect.text             {fill: none; stroke: none;}    
               polygon.regexp        {fill: #EFEFEF; stroke: #1F1F1F;}
               
            </style>
         </defs>
         <polygon points="9 17 1 13 1 21"/>
         <polygon points="17 17 9 13 9 21"/>
         <rect x="31" y="3" width="54" height="32" rx="10"/>
         <rect x="29" y="1" width="54" height="32" class="terminal" rx="10"/>
         <text class="terminal" x="39" y="21">new(</text>
<!--     <a xmlns:xlink="http://www.w3.org/1999/xlink" xlink:href="#string" xlink:title="string"> -->
            <rect x="125" y="35" width="52" height="32"/>
            <rect x="123" y="33" width="52" height="32" class="nonterminal"/>
            <text class="nonterminal" x="133" y="53">string</text>
<!--     </a> -->
         <rect x="237" y="35" width="24" height="32" rx="10"/>
         <rect x="235" y="33" width="24" height="32" class="terminal" rx="10"/>
         <text class="terminal" x="245" y="53">,</text>
<!--     <a xmlns:xlink="http://www.w3.org/1999/xlink" xlink:href="#buffersize" xlink:title="buffersize"> -->
            <rect x="281" y="35" width="78" height="32"/>
            <rect x="279" y="33" width="78" height="32" class="nonterminal"/>
            <text class="nonterminal" x="289" y="53">buffersize</text>
<!--     </a> -->
         <rect x="399" y="3" width="26" height="32" rx="10"/>
         <rect x="397" y="1" width="26" height="32" class="terminal" rx="10"/>
         <text class="terminal" x="407" y="21">)</text>
         <svg:path xmlns:svg="http://www.w3.org/2000/svg" class="line" d="m17 17 h2 m0 0 h10 m54 0 h10 m20 0 h10 m0 0 h62 m-92 0 h20 m72 0 h20 m-112 0 q10 0 10 10 m92 0 q0 -10 10 -10 m-102 10 v12 m92 0 v-12 m-92 12 q0 10 10 10 m72 0 q10 0 10 -10 m-82 10 h10 m52 0 h10 m40 -32 h10 m0 0 h132 m-162 0 h20 m142 0 h20 m-182 0 q10 0 10 10 m162 0 q0 -10 10 -10 m-172 10 v12 m162 0 v-12 m-162 12 q0 10 10 10 m142 0 q10 0 10 -10 m-152 10 h10 m24 0 h10 m0 0 h10 m78 0 h10 m20 -32 h10 m26 0 h10 m3 0 h-3"/>
         <polygon points="443 17 451 13 451 21"/>
         <polygon points="443 17 435 13 435 21"/>
      </svg>
