      <svg xmlns="http://www.w3.org/2000/svg" width="652" height="112">
         <defs>
            <style type="text/css">
               @namespace "http://www.w3.org/2000/svg";
               .line                 {fill: none; stroke: #1F1F1F;}
               .bold-line            {stroke: #0A0A0A; shape-rendering: crispEdges; stroke-width:
               2; }
               .thin-line            {stroke: #0F0F0F; shape-rendering: crispEdges}
               .filled               {fill: #1F1F1F; stroke: none;}
               text.terminal         {font-family: Verdana, Sans-serif;
               font-size: 12px;
               fill: #0A0A0A;
               font-weight: bold;
               }
               text.nonterminal      {font-family: Verdana, Sans-serif;
               font-size: 12px;
               fill: #0D0D0D;
               }
               text.regexp           {font-family: Verdana, Sans-serif;
               font-size: 12px;
               fill: #0F0F0F;
               }
               rect, circle, polygon {fill: #1F1F1F; stroke: #1F1F1F;}
               rect.terminal         {fill: #CCCCCC; stroke: #1F1F1F;}
               rect.nonterminal      {fill: #E3E3E3; stroke: #1F1F1F;}
               rect.text             {fill: none; stroke: none;}    
               polygon.regexp        {fill: #EFEFEF; stroke: #1F1F1F;}
               
            </style>
         </defs>
         <polygon points="9 17 1 13 1 21"/>
         <polygon points="17 17 9 13 9 21"/>
         <rect x="31" y="3" width="94" height="32" rx="10"/>
         <rect x="29" y="1" width="94" height="32" class="terminal" rx="10"/>
         <text class="terminal" x="39" y="21">setMethod(</text>
         <a xmlns:xlink="http://www.w3.org/1999/xlink" xlink:href="#methodname" xlink:title="methodname">
            <rect x="145" y="3" width="102" height="32"/>
            <rect x="143" y="1" width="102" height="32" class="nonterminal"/>
            <text class="nonterminal" x="153" y="21">methodname</text>
         </a>
         <rect x="287" y="3" width="24" height="32" rx="10"/>
         <rect x="285" y="1" width="24" height="32" class="terminal" rx="10"/>
         <text class="terminal" x="295" y="21">,</text>
         <a xmlns:xlink="http://www.w3.org/1999/xlink" xlink:href="#method" xlink:title="method">
            <rect x="331" y="3" width="68" height="32"/>
            <rect x="329" y="1" width="68" height="32" class="nonterminal"/>
            <text class="nonterminal" x="339" y="21">method</text>
         </a>
         <rect x="439" y="3" width="24" height="32" rx="10"/>
         <rect x="437" y="1" width="24" height="32" class="terminal" rx="10"/>
         <text class="terminal" x="447" y="21">,</text>
         <rect x="483" y="3" width="52" height="32" rx="10"/>
         <rect x="481" y="1" width="52" height="32" class="terminal" rx="10"/>
         <text class="terminal" x="491" y="21">Float</text>
         <rect x="439" y="47" width="24" height="32" rx="10"/>
         <rect x="437" y="45" width="24" height="32" class="terminal" rx="10"/>
         <text class="terminal" x="447" y="65">,</text>
         <a xmlns:xlink="http://www.w3.org/1999/xlink" xlink:href="#scope" xlink:title="scope">
            <rect x="483" y="47" width="56" height="32"/>
            <rect x="481" y="45" width="56" height="32" class="nonterminal"/>
            <text class="nonterminal" x="491" y="65">scope</text>
         </a>
         <rect x="599" y="3" width="26" height="32" rx="10"/>
         <rect x="597" y="1" width="26" height="32" class="terminal" rx="10"/>
         <text class="terminal" x="607" y="21">)</text>
         <svg:path xmlns:svg="http://www.w3.org/2000/svg" class="line" d="m17 17 h2 m0 0 h10 m94 0 h10 m0 0 h10 m102 0 h10 m20 0 h10 m24 0 h10 m0 0 h10 m68 0 h10 m20 0 h10 m24 0 h10 m0 0 h10 m52 0 h10 m0 0 h4 m-140 0 h20 m120 0 h20 m-160 0 q10 0 10 10 m140 0 q0 -10 10 -10 m-150 10 v24 m140 0 v-24 m-140 24 q0 10 10 10 m120 0 q10 0 10 -10 m-130 10 h10 m24 0 h10 m0 0 h10 m56 0 h10 m-130 -10 v20 m140 0 v-20 m-140 20 v14 m140 0 v-14 m-140 14 q0 10 10 10 m120 0 q10 0 10 -10 m-130 10 h10 m0 0 h110 m-292 -78 h20 m292 0 h20 m-332 0 q10 0 10 10 m312 0 q0 -10 10 -10 m-322 10 v74 m312 0 v-74 m-312 74 q0 10 10 10 m292 0 q10 0 10 -10 m-302 10 h10 m0 0 h282 m20 -94 h10 m26 0 h10 m3 0 h-3"/>
         <polygon points="643 17 651 13 651 21"/>
         <polygon points="643 17 635 13 635 21"/>
      </svg>
