      <svg xmlns="http://www.w3.org/2000/svg" width="550" height="100">
         <defs>
            <style type="text/css">
               @namespace "http://www.w3.org/2000/svg";
               .line                 {fill: none; stroke: #1F1F1F;}
               .bold-line            {stroke: #0A0A0A; shape-rendering: crispEdges; stroke-width:
               2; }
               .thin-line            {stroke: #0F0F0F; shape-rendering: crispEdges}
               .filled               {fill: #1F1F1F; stroke: none;}
               text.terminal         {font-family: Verdana, Sans-serif;
               font-size: 12px;
               fill: #0A0A0A;
               font-weight: bold;
               }
               text.nonterminal      {font-family: Verdana, Sans-serif; font-style: italic;
               font-size: 12px;
               fill: #0D0D0D;
               }
               text.regexp           {font-family: Verdana, Sans-serif;
               font-size: 12px;
               fill: #0F0F0F;
               }
               rect, circle, polygon {fill: #1F1F1F; stroke: #1F1F1F;}
               rect.terminal         {fill: #CCCCCC; stroke: #1F1F1F;}
               rect.nonterminal      {fill: #E3E3E3; stroke: #1F1F1F;}
               rect.text             {fill: none; stroke: none;}    
               polygon.regexp        {fill: #EFEFEF; stroke: #1F1F1F;}
               
            </style>
         </defs>
         <polygon points="9 33 1 29 1 37"/>
         <polygon points="17 33 9 29 9 37"/>
         <rect x="31" y="19" width="58" height="32" rx="10"/>
         <rect x="29" y="17" width="58" height="32" class="terminal" rx="10"/>
         <text class="terminal" x="39" y="37">send(</text>
<!--     <a xmlns:xlink="http://www.w3.org/1999/xlink" xlink:href="#messagename" xlink:title="messagename"> -->
            <rect x="109" y="19" width="106" height="32"/>
            <rect x="107" y="17" width="106" height="32" class="nonterminal"/>
            <text class="nonterminal" x="117" y="37">messagename</text>
<!--     </a> -->
         <rect x="275" y="19" width="24" height="32" rx="10"/>
         <rect x="273" y="17" width="24" height="32" class="terminal" rx="10"/>
         <text class="terminal" x="283" y="37">,</text>
<!--     <a xmlns:xlink="http://www.w3.org/1999/xlink" xlink:href="#argument" xlink:title="argument"> -->
            <rect x="339" y="51" width="78" height="32"/>
            <rect x="337" y="49" width="78" height="32" class="nonterminal"/>
            <text class="nonterminal" x="347" y="69">argument</text>
<!--     </a> -->
         <rect x="497" y="19" width="26" height="32" rx="10"/>
         <rect x="495" y="17" width="26" height="32" class="terminal" rx="10"/>
         <text class="terminal" x="505" y="37">)</text>
         <svg:path xmlns:svg="http://www.w3.org/2000/svg" class="line" d="m17 33 h2 m0 0 h10 m58 0 h10 m0 0 h10 m106 0 h10 m40 0 h10 m24 0 h10 m20 0 h10 m0 0 h88 m-118 0 h20 m98 0 h20 m-138 0 q10 0 10 10 m118 0 q0 -10 10 -10 m-128 10 v12 m118 0 v-12 m-118 12 q0 10 10 10 m98 0 q10 0 10 -10 m-108 10 h10 m78 0 h10 m-182 -32 l20 0 m-1 0 q-9 0 -9 -10 l0 -12 q0 -10 10 -10 m182 32 l20 0 m-20 0 q10 0 10 -10 l0 -12 q0 -10 -10 -10 m-182 0 h10 m0 0 h172 m-222 32 h20 m222 0 h20 m-262 0 q10 0 10 10 m242 0 q0 -10 10 -10 m-252 10 v46 m242 0 v-46 m-242 46 q0 10 10 10 m222 0 q10 0 10 -10 m-232 10 h10 m0 0 h212 m20 -66 h10 m26 0 h10 m3 0 h-3"/>
         <polygon points="541 33 549 29 549 37"/>
         <polygon points="541 33 533 29 533 37"/>
      </svg>
