      <svg xmlns="http://www.w3.org/2000/svg" width="702" height="166">
         <defs>
            <style type="text/css">
               @namespace "http://www.w3.org/2000/svg";
               .line                 {fill: none; stroke: #1F1F1F;}
               .bold-line            {stroke: #0A0A0A; shape-rendering: crispEdges; stroke-width:
               2; }
               .thin-line            {stroke: #0F0F0F; shape-rendering: crispEdges}
               .filled               {fill: #1F1F1F; stroke: none;}
               text.terminal         {font-family: Verdana, Sans-serif;
               font-size: 12px;
               fill: #0A0A0A;
               font-weight: bold;
               }
               text.nonterminal      {font-family: Verdana, Sans-serif; font-style: italic;
               font-size: 12px;
               fill: #0D0D0D;
               }
               text.regexp           {font-family: Verdana, Sans-serif;
               font-size: 12px;
               fill: #0F0F0F;
               }
               rect, circle, polygon {fill: #1F1F1F; stroke: #1F1F1F;}
               rect.terminal         {fill: #CCCCCC; stroke: #1F1F1F;}
               rect.nonterminal      {fill: #E3E3E3; stroke: #1F1F1F;}
               rect.text             {fill: none; stroke: none;}    
               polygon.regexp        {fill: #EFEFEF; stroke: #1F1F1F;}
               
            </style>
         </defs>
         <polygon points="9 33 1 29 1 37"/>
         <polygon points="17 33 9 29 9 37"/>
         <rect x="31" y="19" width="48" height="32" rx="10"/>
         <rect x="29" y="17" width="48" height="32" class="terminal" rx="10"/>
         <text class="terminal" x="39" y="37">run(</text>
<!--     <a xmlns:xlink="http://www.w3.org/1999/xlink" xlink:href="#method" xlink:title="method"> -->
            <rect x="99" y="19" width="66" height="32"/>
            <rect x="97" y="17" width="66" height="32" class="nonterminal"/>
            <text class="nonterminal" x="107" y="37">method</text>
<!--     </a> -->
         <rect x="205" y="19" width="24" height="32" rx="10"/>
         <rect x="203" y="17" width="24" height="32" class="terminal" rx="10"/>
         <text class="terminal" x="213" y="37">,</text>
         <rect x="249" y="19" width="98" height="32" rx="10"/>
         <rect x="247" y="17" width="98" height="32" class="terminal" rx="10"/>
         <text class="terminal" x="257" y="37">"Individual"</text>
         <rect x="407" y="19" width="24" height="32" rx="10"/>
         <rect x="405" y="17" width="24" height="32" class="terminal" rx="10"/>
         <text class="terminal" x="415" y="37">,</text>
<!--     <a xmlns:xlink="http://www.w3.org/1999/xlink" xlink:href="#argument" xlink:title="argument"> -->
            <rect x="471" y="51" width="78" height="32"/>
            <rect x="469" y="49" width="78" height="32" class="nonterminal"/>
            <text class="nonterminal" x="479" y="69">argument</text>
<!--     </a> -->
         <rect x="205" y="117" width="24" height="32" rx="10"/>
         <rect x="203" y="115" width="24" height="32" class="terminal" rx="10"/>
         <text class="terminal" x="213" y="135">,</text>
         <rect x="249" y="117" width="70" height="32" rx="10"/>
         <rect x="247" y="115" width="70" height="32" class="terminal" rx="10"/>
         <text class="terminal" x="257" y="135">"Array"</text>
         <rect x="339" y="117" width="24" height="32" rx="10"/>
         <rect x="337" y="115" width="24" height="32" class="terminal" rx="10"/>
         <text class="terminal" x="347" y="135">,</text>
<!--     <a xmlns:xlink="http://www.w3.org/1999/xlink" xlink:href="#arguments" xlink:title="arguments"> -->
            <rect x="383" y="117" width="84" height="32"/>
            <rect x="381" y="115" width="84" height="32" class="nonterminal"/>
            <text class="nonterminal" x="391" y="135">arguments</text>
<!--     </a> -->
         <rect x="649" y="19" width="26" height="32" rx="10"/>
         <rect x="647" y="17" width="26" height="32" class="terminal" rx="10"/>
         <text class="terminal" x="657" y="37">)</text>
         <svg:path xmlns:svg="http://www.w3.org/2000/svg" class="line" d="m17 33 h2 m0 0 h10 m48 0 h10 m0 0 h10 m66 0 h10 m20 0 h10 m24 0 h10 m0 0 h10 m98 0 h10 m40 0 h10 m24 0 h10 m20 0 h10 m0 0 h88 m-118 0 h20 m98 0 h20 m-138 0 q10 0 10 10 m118 0 q0 -10 10 -10 m-128 10 v12 m118 0 v-12 m-118 12 q0 10 10 10 m98 0 q10 0 10 -10 m-108 10 h10 m78 0 h10 m-182 -32 l20 0 m-1 0 q-9 0 -9 -10 l0 -12 q0 -10 10 -10 m182 32 l20 0 m-20 0 q10 0 10 -10 l0 -12 q0 -10 -10 -10 m-182 0 h10 m0 0 h172 m-222 32 h20 m222 0 h20 m-262 0 q10 0 10 10 m242 0 q0 -10 10 -10 m-252 10 v46 m242 0 v-46 m-242 46 q0 10 10 10 m222 0 q10 0 10 -10 m-232 10 h10 m0 0 h212 m-424 -66 h20 m424 0 h20 m-464 0 q10 0 10 10 m444 0 q0 -10 10 -10 m-454 10 v78 m444 0 v-78 m-444 78 q0 10 10 10 m424 0 q10 0 10 -10 m-434 10 h10 m24 0 h10 m0 0 h10 m70 0 h10 m0 0 h10 m24 0 h10 m0 0 h10 m84 0 h10 m0 0 h142 m-434 -10 v20 m444 0 v-20 m-444 20 v14 m444 0 v-14 m-444 14 q0 10 10 10 m424 0 q10 0 10 -10 m-434 10 h10 m0 0 h414 m20 -132 h10 m26 0 h10 m3 0 h-3"/>
         <polygon points="693 33 701 29 701 37"/>
         <polygon points="693 33 685 29 685 37"/>
      </svg>
