      <svg xmlns="http://www.w3.org/2000/svg" width="558" height="100">
         <defs>
            <style type="text/css">
               @namespace "http://www.w3.org/2000/svg";
               .line                 {fill: none; stroke: #1F1F1F;}
               .bold-line            {stroke: #0A0A0A; shape-rendering: crispEdges; stroke-width:
               2; }
               .thin-line            {stroke: #0F0F0F; shape-rendering: crispEdges}
               .filled               {fill: #1F1F1F; stroke: none;}
               text.terminal         {font-family: Verdana, Sans-serif;
               font-size: 12px;
               fill: #0A0A0A;
               font-weight: bold;
               }
               text.nonterminal      {font-family: Verdana, Sans-serif; font-style: italic;
               font-size: 12px;
               fill: #0D0D0D;
               }
               text.regexp           {font-family: Verdana, Sans-serif;
               font-size: 12px;
               fill: #0F0F0F;
               }
               rect, circle, polygon {fill: #1F1F1F; stroke: #1F1F1F;}
               rect.terminal         {fill: #CCCCCC; stroke: #1F1F1F;}
               rect.nonterminal      {fill: #E3E3E3; stroke: #1F1F1F;}
               rect.text             {fill: none; stroke: none;}    
               polygon.regexp        {fill: #EFEFEF; stroke: #1F1F1F;}
               
            </style>
         </defs>
         <polygon points="9 33 1 29 1 37"/>
         <polygon points="17 33 9 29 9 37"/>
         <rect x="31" y="19" width="58" height="32" rx="10"/>
         <rect x="29" y="17" width="58" height="32" class="terminal" rx="10"/>
         <text class="terminal" x="39" y="37">send(</text>
<!--     <a xmlns:xlink="http://www.w3.org/1999/xlink" xlink:href="#messagename" xlink:title="messagename"> -->
            <rect x="109" y="19" width="112" height="32"/>
            <rect x="107" y="17" width="112" height="32" class="nonterminal"/>
            <text class="nonterminal" x="117" y="37">messagename</text>
<!--     </a> -->
         <rect x="281" y="19" width="24" height="32" rx="10"/>
         <rect x="279" y="17" width="24" height="32" class="terminal" rx="10"/>
         <text class="terminal" x="289" y="37">,</text>
<!--     <a xmlns:xlink="http://www.w3.org/1999/xlink" xlink:href="#argument" xlink:title="argument"> -->
            <rect x="345" y="51" width="80" height="32"/>
            <rect x="343" y="49" width="80" height="32" class="nonterminal"/>
            <text class="nonterminal" x="353" y="69">argument</text>
<!--     </a> -->
         <rect x="505" y="19" width="26" height="32" rx="10"/>
         <rect x="503" y="17" width="26" height="32" class="terminal" rx="10"/>
         <text class="terminal" x="513" y="37">)</text>
         <svg:path xmlns:svg="http://www.w3.org/2000/svg" class="line" d="m17 33 h2 m0 0 h10 m58 0 h10 m0 0 h10 m112 0 h10 m40 0 h10 m24 0 h10 m20 0 h10 m0 0 h90 m-120 0 h20 m100 0 h20 m-140 0 q10 0 10 10 m120 0 q0 -10 10 -10 m-130 10 v12 m120 0 v-12 m-120 12 q0 10 10 10 m100 0 q10 0 10 -10 m-110 10 h10 m80 0 h10 m-184 -32 l20 0 m-1 0 q-9 0 -9 -10 l0 -12 q0 -10 10 -10 m184 32 l20 0 m-20 0 q10 0 10 -10 l0 -12 q0 -10 -10 -10 m-184 0 h10 m0 0 h174 m-224 32 h20 m224 0 h20 m-264 0 q10 0 10 10 m244 0 q0 -10 10 -10 m-254 10 v46 m244 0 v-46 m-244 46 q0 10 10 10 m224 0 q10 0 10 -10 m-234 10 h10 m0 0 h214 m20 -66 h10 m26 0 h10 m3 0 h-3"/>
         <polygon points="549 33 557 29 557 37"/>
         <polygon points="549 33 541 29 541 37"/>
      </svg>
