      <svg xmlns="http://www.w3.org/2000/svg" width="464" height="36">
         <defs>
            <style type="text/css">
               @namespace "http://www.w3.org/2000/svg";
               .line                 {fill: none; stroke: #1F1F1F;}
               .bold-line            {stroke: #0A0A0A; shape-rendering: crispEdges; stroke-width:
               2; }
               .thin-line            {stroke: #0F0F0F; shape-rendering: crispEdges}
               .filled               {fill: #1F1F1F; stroke: none;}
               text.terminal         {font-family: Verdana, Sans-serif;
               font-size: 12px;
               fill: #0A0A0A;
               font-weight: bold;
               }
               text.nonterminal      {font-family: Verdana, Sans-serif; font-style: italic;
               font-size: 12px;
               fill: #0D0D0D;
               }
               text.regexp           {font-family: Verdana, Sans-serif;
               font-size: 12px;
               fill: #0F0F0F;
               }
               rect, circle, polygon {fill: #1F1F1F; stroke: #1F1F1F;}
               rect.terminal         {fill: #CCCCCC; stroke: #1F1F1F;}
               rect.nonterminal      {fill: #E3E3E3; stroke: #1F1F1F;}
               rect.text             {fill: none; stroke: none;}    
               polygon.regexp        {fill: #EFEFEF; stroke: #1F1F1F;}
               
            </style>
         </defs>
         <polygon points="9 17 1 13 1 21"/>
         <polygon points="17 17 9 13 9 21"/>
         <rect x="31" y="3" width="86" height="32" rx="10"/>
         <rect x="29" y="1" width="86" height="32" class="terminal" rx="10"/>
         <text class="terminal" x="39" y="21">sendWith(</text>
<!--     <a xmlns:xlink="http://www.w3.org/1999/xlink" xlink:href="#messagename" xlink:title="messagename"> -->
            <rect x="137" y="3" width="106" height="32"/>
            <rect x="135" y="1" width="106" height="32" class="nonterminal"/>
            <text class="nonterminal" x="145" y="21">messagename</text>
<!--     </a> -->
         <rect x="263" y="3" width="24" height="32" rx="10"/>
         <rect x="261" y="1" width="24" height="32" class="terminal" rx="10"/>
         <text class="terminal" x="271" y="21">,</text>
<!--     <a xmlns:xlink="http://www.w3.org/1999/xlink" xlink:href="#arguments" xlink:title="arguments"> -->
            <rect x="307" y="3" width="84" height="32"/>
            <rect x="305" y="1" width="84" height="32" class="nonterminal"/>
            <text class="nonterminal" x="315" y="21">arguments</text>
<!--     </a> -->
         <rect x="411" y="3" width="26" height="32" rx="10"/>
         <rect x="409" y="1" width="26" height="32" class="terminal" rx="10"/>
         <text class="terminal" x="419" y="21">)</text>
         <svg:path xmlns:svg="http://www.w3.org/2000/svg" class="line" d="m17 17 h2 m0 0 h10 m86 0 h10 m0 0 h10 m106 0 h10 m0 0 h10 m24 0 h10 m0 0 h10 m84 0 h10 m0 0 h10 m26 0 h10 m3 0 h-3"/>
         <polygon points="455 17 463 13 463 21"/>
         <polygon points="455 17 447 13 447 21"/>
      </svg>
