      <svg xmlns="http://www.w3.org/2000/svg" width="682" height="140">
         <defs>
            <style type="text/css">
               @namespace "http://www.w3.org/2000/svg";
               .line                 {fill: none; stroke: #1F1F1F;}
               .bold-line            {stroke: #0A0A0A; shape-rendering: crispEdges; stroke-width:
               2; }
               .thin-line            {stroke: #0F0F0F; shape-rendering: crispEdges}
               .filled               {fill: #1F1F1F; stroke: none;}
               text.terminal         {font-family: Verdana, Sans-serif;
               font-size: 12px;
               fill: #0A0A0A;
               font-weight: bold;
               }
               text.nonterminal      {font-family: Verdana, Sans-serif; font-style: italic;
               font-size: 12px;
               fill: #0D0D0D;
               }
               text.regexp           {font-family: Verdana, Sans-serif;
               font-size: 12px;
               fill: #0F0F0F;
               }
               rect, circle, polygon {fill: #1F1F1F; stroke: #1F1F1F;}
               rect.terminal         {fill: #CCCCCC; stroke: #1F1F1F;}
               rect.nonterminal      {fill: #E3E3E3; stroke: #1F1F1F;}
               rect.text             {fill: none; stroke: none;}    
               polygon.regexp        {fill: #EFEFEF; stroke: #1F1F1F;}
               
            </style>
         </defs>
         <polygon points="9 17 1 13 1 21"/>
         <polygon points="17 17 9 13 9 21"/>
         <rect x="31" y="3" width="94" height="32" rx="10"/>
         <rect x="29" y="1" width="94" height="32" class="terminal" rx="10"/>
         <text class="terminal" x="39" y="21">setMethod(</text>
<!--     <a xmlns:xlink="http://www.w3.org/1999/xlink" xlink:href="#methodname" xlink:title="methodname"> -->
            <rect x="165" y="3" width="102" height="32"/>
            <rect x="163" y="1" width="102" height="32" class="nonterminal"/>
            <text class="nonterminal" x="173" y="21">methodname</text>
<!--     </a> -->
<!--     <a xmlns:xlink="http://www.w3.org/1999/xlink" xlink:href="#methodname" xlink:title="methodname"> -->
            <rect x="165" y="47" width="102" height="32"/>
            <rect x="163" y="45" width="102" height="32" class="nonterminal"/>
            <text class="nonterminal" x="173" y="65">methodname</text>
<!--     </a> -->
         <rect x="287" y="47" width="24" height="32" rx="10"/>
         <rect x="285" y="45" width="24" height="32" class="terminal" rx="10"/>
         <text class="terminal" x="295" y="65">,</text>
<!--     <a xmlns:xlink="http://www.w3.org/1999/xlink" xlink:href="#method" xlink:title="method"> -->
            <rect x="331" y="47" width="68" height="32"/>
            <rect x="329" y="45" width="68" height="32" class="nonterminal"/>
            <text class="nonterminal" x="339" y="65">method</text>
<!--     </a> -->
         <rect x="439" y="47" width="24" height="32" rx="10"/>
         <rect x="437" y="45" width="24" height="32" class="terminal" rx="10"/>
         <text class="terminal" x="447" y="65">,</text>
         <rect x="483" y="47" width="78" height="32" rx="10"/>
         <rect x="481" y="45" width="78" height="32" class="terminal" rx="10"/>
         <text class="terminal" x="491" y="65">"FLOAT"</text>
         <rect x="439" y="91" width="24" height="32" rx="10"/>
         <rect x="437" y="89" width="24" height="32" class="terminal" rx="10"/>
         <text class="terminal" x="447" y="109">,</text>
         <rect x="483" y="91" width="86" height="32" rx="10"/>
         <rect x="481" y="89" width="86" height="32" class="terminal" rx="10"/>
         <text class="terminal" x="491" y="109">"OBJECT"</text>
         <rect x="629" y="3" width="26" height="32" rx="10"/>
         <rect x="627" y="1" width="26" height="32" class="terminal" rx="10"/>
         <text class="terminal" x="637" y="21">)</text>
         <svg:path xmlns:svg="http://www.w3.org/2000/svg" class="line" d="m17 17 h2 m0 0 h10 m94 0 h10 m20 0 h10 m102 0 h10 m0 0 h322 m-464 0 h20 m444 0 h20 m-484 0 q10 0 10 10 m464 0 q0 -10 10 -10 m-474 10 v24 m464 0 v-24 m-464 24 q0 10 10 10 m444 0 q10 0 10 -10 m-454 10 h10 m102 0 h10 m0 0 h10 m24 0 h10 m0 0 h10 m68 0 h10 m20 0 h10 m24 0 h10 m0 0 h10 m78 0 h10 m0 0 h8 m-170 0 h20 m150 0 h20 m-190 0 q10 0 10 10 m170 0 q0 -10 10 -10 m-180 10 v24 m170 0 v-24 m-170 24 q0 10 10 10 m150 0 q10 0 10 -10 m-160 10 h10 m24 0 h10 m0 0 h10 m86 0 h10 m-160 -10 v20 m170 0 v-20 m-170 20 v14 m170 0 v-14 m-170 14 q0 10 10 10 m150 0 q10 0 10 -10 m-160 10 h10 m0 0 h140 m40 -122 h10 m26 0 h10 m3 0 h-3"/>
         <polygon points="673 17 681 13 681 21"/>
         <polygon points="673 17 665 13 665 21"/>
      </svg>
