      <svg xmlns="http://www.w3.org/2000/svg" width="678" height="156">
         <defs>
            <style type="text/css">
               @namespace "http://www.w3.org/2000/svg";
               .line                 {fill: none; stroke: #1F1F1F;}
               .bold-line            {stroke: #0A0A0A; shape-rendering: crispEdges; stroke-width:
               2; }
               .thin-line            {stroke: #0F0F0F; shape-rendering: crispEdges}
               .filled               {fill: #1F1F1F; stroke: none;}
               text.terminal         {font-family: Verdana, Sans-serif;
               font-size: 12px;
               fill: #0A0A0A;
               font-weight: bold;
               }
               text.nonterminal      {font-family: Verdana, Sans-serif; font-style: italic;
               font-size: 12px;
               fill: #0D0D0D;
               }
               text.regexp           {font-family: Verdana, Sans-serif;
               font-size: 12px;
               fill: #0F0F0F;
               }
               rect, circle, polygon {fill: #1F1F1F; stroke: #1F1F1F;}
               rect.terminal         {fill: #CCCCCC; stroke: #1F1F1F;}
               rect.nonterminal      {fill: #E3E3E3; stroke: #1F1F1F;}
               rect.text             {fill: none; stroke: none;}    
               polygon.regexp        {fill: #EFEFEF; stroke: #1F1F1F;}
               
            </style>
         </defs>
         <polygon points="9 17 1 13 1 21"/>
         <polygon points="17 17 9 13 9 21"/>
         <rect x="31" y="3" width="96" height="32" rx="10"/>
         <rect x="29" y="1" width="96" height="32" class="terminal" rx="10"/>
         <text class="terminal" x="39" y="21">setMethod(</text>
<!--     <a xmlns:xlink="http://www.w3.org/1999/xlink" xlink:href="#methodname" xlink:title="methodname"> -->
            <rect x="167" y="3" width="100" height="32"/>
            <rect x="165" y="1" width="100" height="32" class="nonterminal"/>
            <text class="nonterminal" x="175" y="21">methodname</text>
<!--     </a> -->
<!--     <a xmlns:xlink="http://www.w3.org/1999/xlink" xlink:href="#methodname" xlink:title="methodname"> -->
            <rect x="167" y="47" width="100" height="32"/>
            <rect x="165" y="45" width="100" height="32" class="nonterminal"/>
            <text class="nonterminal" x="175" y="65">methodname</text>
<!--     </a> -->
         <rect x="287" y="47" width="24" height="32" rx="10"/>
         <rect x="285" y="45" width="24" height="32" class="terminal" rx="10"/>
         <text class="terminal" x="295" y="65">,</text>
<!--     <a xmlns:xlink="http://www.w3.org/1999/xlink" xlink:href="#method" xlink:title="method"> -->
            <rect x="331" y="47" width="66" height="32"/>
            <rect x="329" y="45" width="66" height="32" class="nonterminal"/>
            <text class="nonterminal" x="339" y="65">method</text>
<!--     </a> -->
         <rect x="437" y="79" width="24" height="32" rx="10"/>
         <rect x="435" y="77" width="24" height="32" class="terminal" rx="10"/>
         <text class="terminal" x="445" y="97">,</text>
         <rect x="481" y="79" width="78" height="32" rx="10"/>
         <rect x="479" y="77" width="78" height="32" class="terminal" rx="10"/>
         <text class="terminal" x="489" y="97">"FLOAT"</text>
         <rect x="437" y="123" width="24" height="32" rx="10"/>
         <rect x="435" y="121" width="24" height="32" class="terminal" rx="10"/>
         <text class="terminal" x="445" y="141">,</text>
         <rect x="481" y="123" width="84" height="32" rx="10"/>
         <rect x="479" y="121" width="84" height="32" class="terminal" rx="10"/>
         <text class="terminal" x="489" y="141">"OBJECT"</text>
         <rect x="625" y="3" width="26" height="32" rx="10"/>
         <rect x="623" y="1" width="26" height="32" class="terminal" rx="10"/>
         <text class="terminal" x="633" y="21">)</text>
         <svg:path xmlns:svg="http://www.w3.org/2000/svg" class="line" d="m17 17 h2 m0 0 h10 m96 0 h10 m20 0 h10 m100 0 h10 m0 0 h318 m-458 0 h20 m438 0 h20 m-478 0 q10 0 10 10 m458 0 q0 -10 10 -10 m-468 10 v24 m458 0 v-24 m-458 24 q0 10 10 10 m438 0 q10 0 10 -10 m-448 10 h10 m100 0 h10 m0 0 h10 m24 0 h10 m0 0 h10 m66 0 h10 m20 0 h10 m0 0 h138 m-168 0 h20 m148 0 h20 m-188 0 q10 0 10 10 m168 0 q0 -10 10 -10 m-178 10 v12 m168 0 v-12 m-168 12 q0 10 10 10 m148 0 q10 0 10 -10 m-158 10 h10 m24 0 h10 m0 0 h10 m78 0 h10 m0 0 h6 m-158 -10 v20 m168 0 v-20 m-168 20 v24 m168 0 v-24 m-168 24 q0 10 10 10 m148 0 q10 0 10 -10 m-158 10 h10 m24 0 h10 m0 0 h10 m84 0 h10 m40 -120 h10 m26 0 h10 m3 0 h-3"/>
         <polygon points="669 17 677 13 677 21"/>
         <polygon points="669 17 661 13 661 21"/>
      </svg>
