<svg xmlns="http://www.w3.org/2000/svg" width="687" height="157">
         <defs>
            <style type="text/css">
    @namespace "http://www.w3.org/2000/svg";
    .line                 {fill: none; stroke: #1F1F1F;}
    .bold-line            {stroke: #0A0A0A; shape-rendering: crispEdges; stroke-width: 2; }
    .thin-line            {stroke: #0F0F0F; shape-rendering: crispEdges}
    .filled               {fill: #1F1F1F; stroke: none;}
    text.terminal         {font-family: Verdana, Sans-serif;
                            font-size: 12px;
                            fill: #0A0A0A;
                            font-weight: bold;
                          }
    text.nonterminal      {font-family: Verdana, Sans-serif; font-style: italic;
                            font-size: 12px;
                            fill: #0D0D0D;
                            font-weight: normal;
                          }
    text.regexp           {font-family: Verdana, Sans-serif;
                            font-size: 12px;
                            fill: #0F0F0F;
                            font-weight: normal;
                          }
    rect, circle, polygon {fill: #1F1F1F; stroke: #1F1F1F;}
    rect.terminal         {fill: #CCCCCC; stroke: #1F1F1F;}
    rect.nonterminal      {fill: #E3E3E3; stroke: #1F1F1F;}
    rect.text             {fill: none; stroke: none;}    
    polygon.regexp        {fill: #EFEFEF; stroke: #1F1F1F;}
  </style>
         </defs>
         <polygon points="9 17 1 13 1 21"/>
         <polygon points="17 17 9 13 9 21"/>
         <rect x="31" y="3" width="96" height="32" rx="10"/>
         <rect x="29" y="1" width="96" height="32" class="terminal" rx="10"/>
         <text class="terminal" x="39" y="21">setMethod(</text>
<!--  <a xmlns:xlink="http://www.w3.org/1999/xlink" xlink:href="#methodname" xlink:title="methodname"> -->
            <rect x="167" y="3" width="104" height="32"/>
            <rect x="165" y="1" width="104" height="32" class="nonterminal"/>
            <text class="nonterminal" x="175" y="21">methodname</text><!-- </a> -->
<!--  <a xmlns:xlink="http://www.w3.org/1999/xlink" xlink:href="#methodname" xlink:title="methodname"> -->
            <rect x="167" y="47" width="104" height="32"/>
            <rect x="165" y="45" width="104" height="32" class="nonterminal"/>
            <text class="nonterminal" x="175" y="65">methodname</text><!-- </a> -->
<rect x="291" y="47" width="24" height="32" rx="10"/>
         <rect x="289" y="45" width="24" height="32" class="terminal" rx="10"/>
         <text class="terminal" x="299" y="65">,</text>
<!--  <a xmlns:xlink="http://www.w3.org/1999/xlink" xlink:href="#method" xlink:title="method"> -->
            <rect x="335" y="47" width="68" height="32"/>
            <rect x="333" y="45" width="68" height="32" class="nonterminal"/>
            <text class="nonterminal" x="343" y="65">method</text><!-- </a> -->
<rect x="443" y="79" width="24" height="32" rx="10"/>
         <rect x="441" y="77" width="24" height="32" class="terminal" rx="10"/>
         <text class="terminal" x="451" y="97">,</text>
         <rect x="487" y="79" width="78" height="32" rx="10"/>
         <rect x="485" y="77" width="78" height="32" class="terminal" rx="10"/>
         <text class="terminal" x="495" y="97">"FLOAT"</text>
         <rect x="443" y="123" width="24" height="32" rx="10"/>
         <rect x="441" y="121" width="24" height="32" class="terminal" rx="10"/>
         <text class="terminal" x="451" y="141">,</text>
         <rect x="487" y="123" width="86" height="32" rx="10"/>
         <rect x="485" y="121" width="86" height="32" class="terminal" rx="10"/>
         <text class="terminal" x="495" y="141">"OBJECT"</text>
         <rect x="633" y="3" width="26" height="32" rx="10"/>
         <rect x="631" y="1" width="26" height="32" class="terminal" rx="10"/>
         <text class="terminal" x="641" y="21">)</text>
         <svg:path xmlns:svg="http://www.w3.org/2000/svg" class="line" d="m17 17 h2 m0 0 h10 m96 0 h10 m20 0 h10 m104 0 h10 m0 0 h322 m-466 0 h20 m446 0 h20 m-486 0 q10 0 10 10 m466 0 q0 -10 10 -10 m-476 10 v24 m466 0 v-24 m-466 24 q0 10 10 10 m446 0 q10 0 10 -10 m-456 10 h10 m104 0 h10 m0 0 h10 m24 0 h10 m0 0 h10 m68 0 h10 m20 0 h10 m0 0 h140 m-170 0 h20 m150 0 h20 m-190 0 q10 0 10 10 m170 0 q0 -10 10 -10 m-180 10 v12 m170 0 v-12 m-170 12 q0 10 10 10 m150 0 q10 0 10 -10 m-160 10 h10 m24 0 h10 m0 0 h10 m78 0 h10 m0 0 h8 m-160 -10 v20 m170 0 v-20 m-170 20 v24 m170 0 v-24 m-170 24 q0 10 10 10 m150 0 q10 0 10 -10 m-160 10 h10 m24 0 h10 m0 0 h10 m86 0 h10 m40 -120 h10 m26 0 h10 m3 0 h-3"/>
         <polygon points="677 17 685 13 685 21"/>
         <polygon points="677 17 669 13 669 21"/></svg>
