<svg xmlns="http://www.w3.org/2000/svg" width="727" height="145">
         <defs>
            <style type="text/css">
    @namespace "http://www.w3.org/2000/svg";
    .line                 {fill: none; stroke: #1F1F1F;}
    .bold-line            {stroke: #0A0A0A; shape-rendering: crispEdges; stroke-width: 2; }
    .thin-line            {stroke: #0F0F0F; shape-rendering: crispEdges}
    .filled               {fill: #1F1F1F; stroke: none;}
    text.terminal         {font-family: Verdana, Sans-serif;
                            font-size: 12px;
                            fill: #0A0A0A;
                            font-weight: bold;
                          }
    text.nonterminal      {font-family: Verdana, Sans-serif; font-style: italic;
                            font-size: 12px;
                            fill: #0D0D0D;
                            font-weight: normal;
                          }
    text.regexp           {font-family: Verdana, Sans-serif;
                            font-size: 12px;
                            fill: #0F0F0F;
                            font-weight: normal;
                          }
    rect, circle, polygon {fill: #1F1F1F; stroke: #1F1F1F;}
    rect.terminal         {fill: #cccccc; stroke: #1F1F1F;}
    rect.nonterminal      {fill: #E3E3E3; stroke: #1F1F1F;}
    rect.text             {fill: none; stroke: none;}    
    polygon.regexp        {fill: #EFEFEF; stroke: #1F1F1F;}
  </style>
         </defs>
         <polygon points="9 17 1 13 1 21"/>
         <polygon points="17 17 9 13 9 21"/>
         <rect x="31" y="3" width="96" height="32" rx="10"/>
         <rect x="29" y="1" width="96" height="32" class="terminal" rx="10"/>
         <text class="terminal" x="39" y="21">setMethod(</text>
<!--  <a xmlns:xlink="http://www.w3.org/1999/xlink" xlink:href="#methodname" xlink:title="methodname"> -->
            <rect x="147" y="3" width="104" height="32"/>
            <rect x="145" y="1" width="104" height="32" class="nonterminal"/>
            <text class="nonterminal" x="155" y="21">methodname</text><!-- </a> -->
<rect x="291" y="35" width="24" height="32" rx="10"/>
         <rect x="289" y="33" width="24" height="32" class="terminal" rx="10"/>
         <text class="terminal" x="299" y="53">,</text>
<!--  <a xmlns:xlink="http://www.w3.org/1999/xlink" xlink:href="#method" xlink:title="method"> -->
            <rect x="335" y="35" width="68" height="32"/>
            <rect x="333" y="33" width="68" height="32" class="nonterminal"/>
            <text class="nonterminal" x="343" y="53">method</text><!-- </a> -->
<rect x="443" y="67" width="24" height="32" rx="10"/>
         <rect x="441" y="65" width="24" height="32" class="terminal" rx="10"/>
         <text class="terminal" x="451" y="85">,</text>
         <rect x="507" y="67" width="78" height="32" rx="10"/>
         <rect x="505" y="65" width="78" height="32" class="terminal" rx="10"/>
         <text class="terminal" x="515" y="85">"FLOAT"</text>
         <rect x="507" y="111" width="86" height="32" rx="10"/>
         <rect x="505" y="109" width="86" height="32" class="terminal" rx="10"/>
         <text class="terminal" x="515" y="129">"OBJECT"</text>
         <rect x="673" y="3" width="26" height="32" rx="10"/>
         <rect x="671" y="1" width="26" height="32" class="terminal" rx="10"/>
         <text class="terminal" x="681" y="21">)</text>
         <svg:path xmlns:svg="http://www.w3.org/2000/svg" class="line" d="m17 17 h2 m0 0 h10 m96 0 h10 m0 0 h10 m104 0 h10 m20 0 h10 m0 0 h352 m-382 0 h20 m362 0 h20 m-402 0 q10 0 10 10 m382 0 q0 -10 10 -10 m-392 10 v12 m382 0 v-12 m-382 12 q0 10 10 10 m362 0 q10 0 10 -10 m-372 10 h10 m24 0 h10 m0 0 h10 m68 0 h10 m20 0 h10 m0 0 h180 m-210 0 h20 m190 0 h20 m-230 0 q10 0 10 10 m210 0 q0 -10 10 -10 m-220 10 v12 m210 0 v-12 m-210 12 q0 10 10 10 m190 0 q10 0 10 -10 m-200 10 h10 m24 0 h10 m20 0 h10 m78 0 h10 m0 0 h8 m-126 0 h20 m106 0 h20 m-146 0 q10 0 10 10 m126 0 q0 -10 10 -10 m-136 10 v24 m126 0 v-24 m-126 24 q0 10 10 10 m106 0 q10 0 10 -10 m-116 10 h10 m86 0 h10 m60 -108 h10 m26 0 h10 m3 0 h-3"/>
         <polygon points="717 17 725 13 725 21"/>
         <polygon points="717 17 709 13 709 21"/></svg>
