      <svg xmlns="http://www.w3.org/2000/svg" width="570" height="112">
         <defs>
            <style type="text/css">
               @namespace "http://www.w3.org/2000/svg";
               .line                 {fill: none; stroke: #1F1F1F;}
               .bold-line            {stroke: #0A0A0A; shape-rendering: crispEdges; stroke-width:
               2; }
               .thin-line            {stroke: #0F0F0F; shape-rendering: crispEdges}
               .filled               {fill: #1F1F1F; stroke: none;}
               text.terminal         {font-family: Verdana, Sans-serif;
               font-size: 12px;
               fill: #0A0A0A;
               font-weight: bold;
               }
               text.nonterminal      {font-family: Verdana, Sans-serif;
               font-size: 12px;
               fill: #0D0D0D;
               }
               text.regexp           {font-family: Verdana, Sans-serif;
               font-size: 12px;
               fill: #0F0F0F;
               }
               rect, circle, polygon {fill: #1F1F1F; stroke: #1F1F1F;}
               rect.terminal         {fill: #CCCCCC; stroke: #1F1F1F;}
               rect.nonterminal      {fill: #E3E3E3; stroke: #1F1F1F;}
               rect.text             {fill: none; stroke: none;}    
               polygon.regexp        {fill: #EFEFEF; stroke: #1F1F1F;}
               
            </style>
         </defs>
         <polygon points="9 33 1 29 1 37"/>
         <polygon points="17 33 9 29 9 37"/>
         <rect x="31" y="19" width="48" height="32" rx="10"/>
         <rect x="29" y="17" width="48" height="32" class="terminal" rx="10"/>
         <text class="terminal" x="39" y="37">run(</text>
         <a xmlns:xlink="http://www.w3.org/1999/xlink" xlink:href="#method" xlink:title="method">
            <rect x="99" y="19" width="68" height="32"/>
            <rect x="97" y="17" width="68" height="32" class="nonterminal"/>
            <text class="nonterminal" x="107" y="37">method</text>
         </a>
         <rect x="207" y="19" width="86" height="32" rx="10"/>
         <rect x="205" y="17" width="86" height="32" class="terminal" rx="10"/>
         <text class="terminal" x="215" y="37">Individual</text>
         <rect x="333" y="19" width="24" height="32" rx="10"/>
         <rect x="331" y="17" width="24" height="32" class="terminal" rx="10"/>
         <text class="terminal" x="341" y="37">,</text>
         <a xmlns:xlink="http://www.w3.org/1999/xlink" xlink:href="#argument" xlink:title="argument">
            <rect x="377" y="19" width="80" height="32"/>
            <rect x="375" y="17" width="80" height="32" class="nonterminal"/>
            <text class="nonterminal" x="385" y="37">argument</text>
         </a>
         <rect x="207" y="63" width="56" height="32" rx="10"/>
         <rect x="205" y="61" width="56" height="32" class="terminal" rx="10"/>
         <text class="terminal" x="215" y="81">Array</text>
         <rect x="283" y="63" width="24" height="32" rx="10"/>
         <rect x="281" y="61" width="24" height="32" class="terminal" rx="10"/>
         <text class="terminal" x="291" y="81">,</text>
         <a xmlns:xlink="http://www.w3.org/1999/xlink" xlink:href="#argument" xlink:title="argument">
            <rect x="327" y="63" width="80" height="32"/>
            <rect x="325" y="61" width="80" height="32" class="nonterminal"/>
            <text class="nonterminal" x="335" y="81">argument</text>
         </a>
         <rect x="517" y="19" width="26" height="32" rx="10"/>
         <rect x="515" y="17" width="26" height="32" class="terminal" rx="10"/>
         <text class="terminal" x="525" y="37">)</text>
         <svg:path xmlns:svg="http://www.w3.org/2000/svg" class="line" d="m17 33 h2 m0 0 h10 m48 0 h10 m0 0 h10 m68 0 h10 m20 0 h10 m86 0 h10 m20 0 h10 m24 0 h10 m0 0 h10 m80 0 h10 m-164 0 l20 0 m-1 0 q-9 0 -9 -10 l0 -12 q0 -10 10 -10 m144 32 l20 0 m-20 0 q10 0 10 -10 l0 -12 q0 -10 -10 -10 m-144 0 h10 m0 0 h134 m-290 32 h20 m290 0 h20 m-330 0 q10 0 10 10 m310 0 q0 -10 10 -10 m-320 10 v24 m310 0 v-24 m-310 24 q0 10 10 10 m290 0 q10 0 10 -10 m-300 10 h10 m56 0 h10 m0 0 h10 m24 0 h10 m0 0 h10 m80 0 h10 m0 0 h70 m-300 -10 v20 m310 0 v-20 m-310 20 v14 m310 0 v-14 m-310 14 q0 10 10 10 m290 0 q10 0 10 -10 m-300 10 h10 m0 0 h280 m20 -78 h10 m26 0 h10 m3 0 h-3"/>
         <polygon points="561 33 569 29 569 37"/>
         <polygon points="561 33 553 29 553 37"/>
      </svg>
