<svg xmlns="http://www.w3.org/2000/svg" width="561" height="101">
         <defs>
            <style type="text/css">
    @namespace "http://www.w3.org/2000/svg";
    .line                 {fill: none; stroke: #1F1F1F;}
    .bold-line            {stroke: #0A0A0A; shape-rendering: crispEdges; stroke-width: 2; }
    .thin-line            {stroke: #0F0F0F; shape-rendering: crispEdges}
    .filled               {fill: #1F1F1F; stroke: none;}
    text.terminal         {font-family: Verdana, Sans-serif;
                            font-size: 12px;
                            fill: #0A0A0A;
                            font-weight: bold;
                          }
    text.nonterminal      {font-family: Verdana, Sans-serif; font-style: italic;
                            font-size: 12px;
                            fill: #0D0D0D;
                            font-weight: normal;
                          }
    text.regexp           {font-family: Verdana, Sans-serif;
                            font-size: 12px;
                            fill: #0F0F0F;
                            font-weight: normal;
                          }
    rect, circle, polygon {fill: #1F1F1F; stroke: #1F1F1F;}
    rect.terminal         {fill: #CCCCCC; stroke: #1F1F1F;}
    rect.nonterminal      {fill: #E3E3E3; stroke: #1F1F1F;}
    rect.text             {fill: none; stroke: none;}    
    polygon.regexp        {fill: #EFEFEF; stroke: #1F1F1F;}
  </style>
         </defs>
         <polygon points="9 33 1 29 1 37"/>
         <polygon points="17 33 9 29 9 37"/>
         <rect x="31" y="19" width="58" height="32" rx="10"/>
         <rect x="29" y="17" width="58" height="32" class="terminal" rx="10"/>
         <text class="terminal" x="39" y="37">start(</text>
<!--  <a xmlns:xlink="http://www.w3.org/1999/xlink" xlink:href="#messagename" xlink:title="messagename"> -->
            <rect x="109" y="19" width="112" height="32"/>
            <rect x="107" y="17" width="112" height="32" class="nonterminal"/>
            <text class="nonterminal" x="117" y="37">messagename</text><!-- </a> -->
<rect x="281" y="19" width="24" height="32" rx="10"/>
         <rect x="279" y="17" width="24" height="32" class="terminal" rx="10"/>
         <text class="terminal" x="289" y="37">,</text>
<!--  <a xmlns:xlink="http://www.w3.org/1999/xlink" xlink:href="#argument" xlink:title="argument"> -->
            <rect x="345" y="51" width="82" height="32"/>
            <rect x="343" y="49" width="82" height="32" class="nonterminal"/>
            <text class="nonterminal" x="353" y="69">argument</text><!-- </a> -->
<rect x="507" y="19" width="26" height="32" rx="10"/>
         <rect x="505" y="17" width="26" height="32" class="terminal" rx="10"/>
         <text class="terminal" x="515" y="37">)</text>
         <svg:path xmlns:svg="http://www.w3.org/2000/svg" class="line" d="m17 33 h2 m0 0 h10 m58 0 h10 m0 0 h10 m112 0 h10 m40 0 h10 m24 0 h10 m20 0 h10 m0 0 h92 m-122 0 h20 m102 0 h20 m-142 0 q10 0 10 10 m122 0 q0 -10 10 -10 m-132 10 v12 m122 0 v-12 m-122 12 q0 10 10 10 m102 0 q10 0 10 -10 m-112 10 h10 m82 0 h10 m-186 -32 l20 0 m-1 0 q-9 0 -9 -10 l0 -12 q0 -10 10 -10 m186 32 l20 0 m-20 0 q10 0 10 -10 l0 -12 q0 -10 -10 -10 m-186 0 h10 m0 0 h176 m-226 32 h20 m226 0 h20 m-266 0 q10 0 10 10 m246 0 q0 -10 10 -10 m-256 10 v46 m246 0 v-46 m-246 46 q0 10 10 10 m226 0 q10 0 10 -10 m-236 10 h10 m0 0 h216 m20 -66 h10 m26 0 h10 m3 0 h-3"/>
         <polygon points="551 33 559 29 559 37"/>
         <polygon points="551 33 543 29 543 37"/></svg>
