      <svg xmlns="http://www.w3.org/2000/svg" width="668" height="134">
         <defs>
            <style type="text/css">
               @namespace "http://www.w3.org/2000/svg";
               .line                 {fill: none; stroke: #1F1F1F;}
               .bold-line            {stroke: #0A0A0A; shape-rendering: crispEdges; stroke-width:
               2; }
               .thin-line            {stroke: #0F0F0F; shape-rendering: crispEdges}
               .filled               {fill: #1F1F1F; stroke: none;}
               text.terminal         {font-family: Verdana, Sans-serif;
               font-size: 12px;
               fill: #0A0A0A;
               font-weight: bold;
               }
               text.nonterminal      {font-family: Verdana, Sans-serif; font-style: italic;
               font-size: 12px;
               fill: #0D0D0D;
               }
               text.regexp           {font-family: Verdana, Sans-serif;
               font-size: 12px;
               fill: #0F0F0F;
               }
               rect, circle, polygon {fill: #1F1F1F; stroke: #1F1F1F;}
               rect.terminal         {fill: #CCCCCC; stroke: #1F1F1F;}
               rect.nonterminal      {fill: #E3E3E3; stroke: #1F1F1F;}
               rect.text             {fill: none; stroke: none;}    
               polygon.regexp        {fill: #EFEFEF; stroke: #1F1F1F;}
               
            </style>
         </defs>
         <polygon points="9 33 1 29 1 37"/>
         <polygon points="17 33 9 29 9 37"/>
         <rect x="31" y="19" width="48" height="32" rx="10"/>
         <rect x="29" y="17" width="48" height="32" class="terminal" rx="10"/>
         <text class="terminal" x="39" y="37">run(</text>
<!--     <a xmlns:xlink="http://www.w3.org/1999/xlink" xlink:href="#method" xlink:title="method"> -->
            <rect x="99" y="19" width="68" height="32"/>
            <rect x="97" y="17" width="68" height="32" class="nonterminal"/>
            <text class="nonterminal" x="107" y="37">method</text>
<!--     </a> -->
         <rect x="207" y="19" width="24" height="32" rx="10"/>
         <rect x="205" y="17" width="24" height="32" class="terminal" rx="10"/>
         <text class="terminal" x="215" y="37">,</text>
         <rect x="251" y="19" width="100" height="32" rx="10"/>
         <rect x="249" y="17" width="100" height="32" class="terminal" rx="10"/>
         <text class="terminal" x="259" y="37">"Individual"</text>
         <rect x="411" y="19" width="24" height="32" rx="10"/>
         <rect x="409" y="17" width="24" height="32" class="terminal" rx="10"/>
         <text class="terminal" x="419" y="37">,</text>
<!--     <a xmlns:xlink="http://www.w3.org/1999/xlink" xlink:href="#argument" xlink:title="argument"> -->
            <rect x="455" y="19" width="80" height="32"/>
            <rect x="453" y="17" width="80" height="32" class="nonterminal"/>
            <text class="nonterminal" x="463" y="37">argument</text>
<!--     </a> -->
         <rect x="207" y="85" width="24" height="32" rx="10"/>
         <rect x="205" y="83" width="24" height="32" class="terminal" rx="10"/>
         <text class="terminal" x="215" y="103">,</text>
         <rect x="251" y="85" width="70" height="32" rx="10"/>
         <rect x="249" y="83" width="70" height="32" class="terminal" rx="10"/>
         <text class="terminal" x="259" y="103">"Array"</text>
         <rect x="341" y="85" width="24" height="32" rx="10"/>
         <rect x="339" y="83" width="24" height="32" class="terminal" rx="10"/>
         <text class="terminal" x="349" y="103">,</text>
<!--     <a xmlns:xlink="http://www.w3.org/1999/xlink" xlink:href="#arguments" xlink:title="arguments"> -->
            <rect x="385" y="85" width="88" height="32"/>
            <rect x="383" y="83" width="88" height="32" class="nonterminal"/>
            <text class="nonterminal" x="393" y="103">arguments</text>
<!--     </a> -->
         <rect x="615" y="19" width="26" height="32" rx="10"/>
         <rect x="613" y="17" width="26" height="32" class="terminal" rx="10"/>
         <text class="terminal" x="623" y="37">)</text>
         <svg:path xmlns:svg="http://www.w3.org/2000/svg" class="line" d="m17 33 h2 m0 0 h10 m48 0 h10 m0 0 h10 m68 0 h10 m20 0 h10 m24 0 h10 m0 0 h10 m100 0 h10 m40 0 h10 m24 0 h10 m0 0 h10 m80 0 h10 m-164 0 l20 0 m-1 0 q-9 0 -9 -10 l0 -12 q0 -10 10 -10 m144 32 l20 0 m-20 0 q10 0 10 -10 l0 -12 q0 -10 -10 -10 m-144 0 h10 m0 0 h134 m-184 32 h20 m184 0 h20 m-224 0 q10 0 10 10 m204 0 q0 -10 10 -10 m-214 10 v14 m204 0 v-14 m-204 14 q0 10 10 10 m184 0 q10 0 10 -10 m-194 10 h10 m0 0 h174 m-388 -34 h20 m388 0 h20 m-428 0 q10 0 10 10 m408 0 q0 -10 10 -10 m-418 10 v46 m408 0 v-46 m-408 46 q0 10 10 10 m388 0 q10 0 10 -10 m-398 10 h10 m24 0 h10 m0 0 h10 m70 0 h10 m0 0 h10 m24 0 h10 m0 0 h10 m88 0 h10 m0 0 h102 m-398 -10 v20 m408 0 v-20 m-408 20 v14 m408 0 v-14 m-408 14 q0 10 10 10 m388 0 q10 0 10 -10 m-398 10 h10 m0 0 h378 m20 -100 h10 m26 0 h10 m3 0 h-3"/>
         <polygon points="659 33 667 29 667 37"/>
         <polygon points="659 33 651 29 651 37"/>
      </svg>
