      <svg xmlns="http://www.w3.org/2000/svg" width="568" height="52">
         <defs>
            <style type="text/css">
               @namespace "http://www.w3.org/2000/svg";
               .line                 {fill: none; stroke: #1F1F1F;}
               .bold-line            {stroke: #0A0A0A; shape-rendering: crispEdges; stroke-width:
               2; }
               .thin-line            {stroke: #0F0F0F; shape-rendering: crispEdges}
               .filled               {fill: #1F1F1F; stroke: none;}
               text.terminal         {font-family: Verdana, Sans-serif;
               font-size: 12px;
               fill: #0A0A0A;
               font-weight: bold;
               }
               text.nonterminal      {font-family: Verdana, Sans-serif; font-style: italic;
               font-size: 12px;
               fill: #0D0D0D;
               }
               text.regexp           {font-family: Verdana, Sans-serif;
               font-size: 12px;
               fill: #0F0F0F;
               }
               rect, circle, polygon {fill: #1F1F1F; stroke: #1F1F1F;}
               rect.terminal         {fill: #CCCCCC; stroke: #1F1F1F;}
               rect.nonterminal      {fill: #E3E3E3; stroke: #1F1F1F;}
               rect.text             {fill: none; stroke: none;}    
               polygon.regexp        {fill: #EFEFEF; stroke: #1F1F1F;}
               
            </style>
         </defs>
         <polygon points="9 17 1 13 1 21"/>
         <polygon points="17 17 9 13 9 21"/>
         <rect x="31" y="3" width="54" height="32" rx="10"/>
         <rect x="29" y="1" width="54" height="32" class="terminal" rx="10"/>
         <text class="terminal" x="39" y="21">new(</text>
<!--     <a xmlns:xlink="http://www.w3.org/1999/xlink" xlink:href="#name" xlink:title="name"> -->
            <rect x="105" y="3" width="54" height="32"/>
            <rect x="103" y="1" width="54" height="32" class="nonterminal"/>
            <text class="nonterminal" x="113" y="21">name</text>
<!--     </a> -->
         <rect x="179" y="3" width="24" height="32" rx="10"/>
         <rect x="177" y="1" width="24" height="32" class="terminal" rx="10"/>
         <text class="terminal" x="187" y="21">,</text>
<!--     <a xmlns:xlink="http://www.w3.org/1999/xlink" xlink:href="#source" xlink:title="source"> -->
            <rect x="243" y="3" width="62" height="32"/>
            <rect x="241" y="1" width="62" height="32" class="nonterminal"/>
            <text class="nonterminal" x="251" y="21">source</text>
<!--     </a> -->
         <rect x="365" y="3" width="24" height="32" rx="10"/>
         <rect x="363" y="1" width="24" height="32" class="terminal" rx="10"/>
         <text class="terminal" x="373" y="21">,</text>
<!--     <a xmlns:xlink="http://www.w3.org/1999/xlink" xlink:href="#context" xlink:title="context"> -->
            <rect x="409" y="3" width="66" height="32"/>
            <rect x="407" y="1" width="66" height="32" class="nonterminal"/>
            <text class="nonterminal" x="417" y="21">context</text>
<!--     </a> -->
         <rect x="515" y="3" width="26" height="32" rx="10"/>
         <rect x="513" y="1" width="26" height="32" class="terminal" rx="10"/>
         <text class="terminal" x="523" y="21">)</text>
         <svg:path xmlns:svg="http://www.w3.org/2000/svg" class="line" d="m17 17 h2 m0 0 h10 m54 0 h10 m0 0 h10 m54 0 h10 m0 0 h10 m24 0 h10 m20 0 h10 m62 0 h10 m-102 0 h20 m82 0 h20 m-122 0 q10 0 10 10 m102 0 q0 -10 10 -10 m-112 10 v14 m102 0 v-14 m-102 14 q0 10 10 10 m82 0 q10 0 10 -10 m-92 10 h10 m0 0 h72 m40 -34 h10 m24 0 h10 m0 0 h10 m66 0 h10 m-150 0 h20 m130 0 h20 m-170 0 q10 0 10 10 m150 0 q0 -10 10 -10 m-160 10 v14 m150 0 v-14 m-150 14 q0 10 10 10 m130 0 q10 0 10 -10 m-140 10 h10 m0 0 h120 m20 -34 h10 m26 0 h10 m3 0 h-3"/>
         <polygon points="559 17 567 13 567 21"/>
         <polygon points="559 17 551 13 551 21"/>
      </svg>
