<svg xmlns="http://www.w3.org/2000/svg" width="457" height="145">
         <defs>
            <style type="text/css">
               @namespace "http://www.w3.org/2000/svg";
               .line                 {fill: none; stroke: #1F1F1F;}
               .bold-line            {stroke: #0A0A0A; shape-rendering: crispEdges; stroke-width:
               2; }
               .thin-line            {stroke: #0F0F0F; shape-rendering: crispEdges}
               .filled               {fill: #1F1F1F; stroke: none;}
               text.terminal         {font-family: Verdana, Sans-serif;
               font-size: 12px;
               fill: #0A0A0A;
               font-weight: bold;
               }
               text.nonterminal      {font-family: Verdana, Sans-serif; font-style: italic;
               font-size: 12px;
               fill: #0D0D0D;
               }
               text.regexp           {font-family: Verdana, Sans-serif;
               font-size: 12px;
               fill: #0F0F0F;
               }
               rect, circle, polygon {fill: #1F1F1F; stroke: #1F1F1F;}
               rect.terminal         {fill: #CCCCCC; stroke: #1F1F1F;}
               rect.nonterminal      {fill: #E3E3E3; stroke: #1F1F1F;}
               rect.text             {fill: none; stroke: none;}
               polygon.regexp        {fill: #EFEFEF; stroke: #1F1F1F;}

            </style>
         </defs>

         <polygon points="9 17 1 13 1 21"/>
         <polygon points="17 17 9 13 9 21"/>
         <rect x="31" y="3" width="76" height="32" rx="10"/>
         <rect x="29" y="1" width="76" height="32" class="terminal" rx="10"/>
         <text class="terminal" x="39" y="21">options(</text>
         <rect x="147" y="35" width="52" height="32" rx="10"/>
         <rect x="145" y="33" width="52" height="32" class="terminal" rx="10"/>
         <text class="terminal" x="155" y="53">"All"</text>
         <rect x="219" y="35" width="94" height="32" rx="10"/>
         <rect x="217" y="33" width="94" height="32" class="terminal" rx="10"/>
         <text class="terminal" x="227" y="53">, newValue</text>
         <rect x="147" y="79" width="62" height="32" rx="10"/>
         <rect x="145" y="77" width="62" height="32" class="terminal" rx="10"/>
         <text class="terminal" x="155" y="97">option</text>
         <rect x="249" y="111" width="94" height="32" rx="10"/>
         <rect x="247" y="109" width="94" height="32" class="terminal" rx="10"/>
         <text class="terminal" x="257" y="129">, newValue</text>
         <rect x="403" y="3" width="26" height="32" rx="10"/>
         <rect x="401" y="1" width="26" height="32" class="terminal" rx="10"/>
         <text class="terminal" x="411" y="21">)</text>
         <path class="line" d="m17 17 h2 m0 0 h10 m76 0 h10 m20 0 h10 m0 0 h226 m-256 0 h20 m236 0 h20 m-276 0 q10 0 10 10 m256 0 q0 -10 10 -10 m-266 10 v12 m256 0 v-12 m-256 12 q0 10 10 10 m236 0 q10 0 10 -10 m-246 10 h10 m52 0 h10 m0 0 h10 m94 0 h10 m0 0 h50 m-246 -10 v20 m256 0 v-20 m-256 20 v24 m256 0 v-24 m-256 24 q0 10 10 10 m236 0 q10 0 10 -10 m-246 10 h10 m62 0 h10 m20 0 h10 m0 0 h104 m-134 0 h20 m114 0 h20 m-154 0 q10 0 10 10 m134 0 q0 -10 10 -10 m-144 10 v12 m134 0 v-12 m-134 12 q0 10 10 10 m114 0 q10 0 10 -10 m-124 10 h10 m94 0 h10 m40 -108 h10 m26 0 h10 m3 0 h-3"/>
         <polygon points="447 17 455 13 455 21"/>
         <polygon points="447 17 439 13 439 21"/>
</svg>