<svg xmlns="http://www.w3.org/2000/svg" width="665" height="145">
         <defs>
            <style type="text/css">
               @namespace "http://www.w3.org/2000/svg";
               .line                 {fill: none; stroke: #1F1F1F;}
               .bold-line            {stroke: #0A0A0A; shape-rendering: crispEdges; stroke-width:
               2; }
               .thin-line            {stroke: #0F0F0F; shape-rendering: crispEdges}
               .filled               {fill: #1F1F1F; stroke: none;}
               text.terminal         {font-family: Verdana, Sans-serif;
               font-size: 12px;
               fill: #0A0A0A;
               font-weight: bold;
               }
               text.nonterminal      {font-family: Verdana, Sans-serif; font-style: italic;
               font-size: 12px;
               fill: #0D0D0D;
               }
               text.regexp           {font-family: Verdana, Sans-serif;
               font-size: 12px;
               fill: #0F0F0F;
               }
               rect, circle, polygon {fill: #1F1F1F; stroke: #1F1F1F;}
               rect.terminal         {fill: #CCCCCC; stroke: #1F1F1F;}
               rect.nonterminal      {fill: #E3E3E3; stroke: #1F1F1F;}
               rect.text             {fill: none; stroke: none;}
               polygon.regexp        {fill: #EFEFEF; stroke: #1F1F1F;}

            </style>
         </defs>

         <polygon points="9 17 1 13 1 21"/>
         <polygon points="17 17 9 13 9 21"/>
         <rect x="31" y="3" width="120" height="32" rx="10"/>
         <rect x="29" y="1" width="120" height="32" class="terminal" rx="10"/>
         <text class="terminal" x="39" y="21">globalOptions(</text>
         <rect x="191" y="3" width="146" height="32" rx="10"/>
         <rect x="189" y="1" width="146" height="32" class="terminal" rx="10"/>
         <text class="terminal" x="199" y="21">"OverrideOptions"</text>
         <rect x="377" y="35" width="24" height="32" rx="10"/>
         <rect x="375" y="33" width="24" height="32" class="terminal" rx="10"/>
         <text class="terminal" x="385" y="53">,</text>
         <rect x="421" y="35" width="130" height="32" rx="10"/>
         <rect x="419" y="33" width="130" height="32" class="terminal" rx="10"/>
         <text class="terminal" x="429" y="53">optionsDirective</text>
         <rect x="191" y="79" width="140" height="32" rx="10"/>
         <rect x="189" y="77" width="140" height="32" class="terminal" rx="10"/>
         <text class="terminal" x="199" y="97">"CountOverrides"</text>
         <rect x="371" y="111" width="24" height="32" rx="10"/>
         <rect x="369" y="109" width="24" height="32" class="terminal" rx="10"/>
         <text class="terminal" x="379" y="129">,</text>
         <rect x="415" y="111" width="58" height="32" rx="10"/>
         <rect x="413" y="109" width="58" height="32" class="terminal" rx="10"/>
         <text class="terminal" x="423" y="129">count</text>
         <rect x="611" y="3" width="26" height="32" rx="10"/>
         <rect x="609" y="1" width="26" height="32" class="terminal" rx="10"/>
         <text class="terminal" x="619" y="21">)</text>
         <path class="line" d="m17 17 h2 m0 0 h10 m120 0 h10 m20 0 h10 m146 0 h10 m20 0 h10 m0 0 h184 m-214 0 h20 m194 0 h20 m-234 0 q10 0 10 10 m214 0 q0 -10 10 -10 m-224 10 v12 m214 0 v-12 m-214 12 q0 10 10 10 m194 0 q10 0 10 -10 m-204 10 h10 m24 0 h10 m0 0 h10 m130 0 h10 m-400 -32 h20 m400 0 h20 m-440 0 q10 0 10 10 m420 0 q0 -10 10 -10 m-430 10 v56 m420 0 v-56 m-420 56 q0 10 10 10 m400 0 q10 0 10 -10 m-410 10 h10 m140 0 h10 m20 0 h10 m0 0 h112 m-142 0 h20 m122 0 h20 m-162 0 q10 0 10 10 m142 0 q0 -10 10 -10 m-152 10 v12 m142 0 v-12 m-142 12 q0 10 10 10 m122 0 q10 0 10 -10 m-132 10 h10 m24 0 h10 m0 0 h10 m58 0 h10 m20 -32 h78 m20 -76 h10 m26 0 h10 m3 0 h-3"/>
         <polygon points="655 17 663 13 663 21"/>
         <polygon points="655 17 647 13 647 21"/>
</svg>