      <svg xmlns="http://www.w3.org/2000/svg" width="542" height="52">
         <defs>
            <style type="text/css">
               @namespace "http://www.w3.org/2000/svg";
               .line                 {fill: none; stroke: #1F1F1F;}
               .bold-line            {stroke: #0A0A0A; shape-rendering: crispEdges; stroke-width:
               2; }
               .thin-line            {stroke: #0F0F0F; shape-rendering: crispEdges}
               .filled               {fill: #1F1F1F; stroke: none;}
               text.terminal         {font-family: Verdana, Sans-serif;
               font-size: 12px;
               fill: #0A0A0A;
               font-weight: bold;
               }
               text.nonterminal      {font-family: Verdana, Sans-serif;
               font-size: 12px;
               fill: #0D0D0D;
               }
               text.regexp           {font-family: Verdana, Sans-serif;
               font-size: 12px;
               fill: #0F0F0F;
               }
               rect, circle, polygon {fill: #1F1F1F; stroke: #1F1F1F;}
               rect.terminal         {fill: #CCCCCC; stroke: #1F1F1F;}
               rect.nonterminal      {fill: #E3E3E3; stroke: #1F1F1F;}
               rect.text             {fill: none; stroke: none;}    
               polygon.regexp        {fill: #EFEFEF; stroke: #1F1F1F;}
               
            </style>
         </defs>
         <polygon points="9 17 1 13 1 21"/>
         <polygon points="17 17 9 13 9 21"/>
         <rect x="31" y="3" width="152" height="32" rx="10"/>
         <rect x="29" y="1" width="152" height="32" class="terminal" rx="10"/>
         <text class="terminal" x="39" y="21">setSecurityManager</text>
         <rect x="223" y="3" width="26" height="32" rx="10"/>
         <rect x="221" y="1" width="26" height="32" class="terminal" rx="10"/>
         <text class="terminal" x="231" y="21">(</text>
         <a xmlns:xlink="http://www.w3.org/1999/xlink" xlink:href="#security_manager_object" xlink:title="security_manager_object">
            <rect x="269" y="3" width="180" height="32"/>
            <rect x="267" y="1" width="180" height="32" class="nonterminal"/>
            <text class="nonterminal" x="277" y="21">security_manager_object</text>
         </a>
         <rect x="469" y="3" width="26" height="32" rx="10"/>
         <rect x="467" y="1" width="26" height="32" class="terminal" rx="10"/>
         <text class="terminal" x="477" y="21">)</text>
         <svg:path xmlns:svg="http://www.w3.org/2000/svg" class="line" d="m17 17 h2 m0 0 h10 m152 0 h10 m20 0 h10 m26 0 h10 m0 0 h10 m180 0 h10 m0 0 h10 m26 0 h10 m-312 0 h20 m292 0 h20 m-332 0 q10 0 10 10 m312 0 q0 -10 10 -10 m-322 10 v14 m312 0 v-14 m-312 14 q0 10 10 10 m292 0 q10 0 10 -10 m-302 10 h10 m0 0 h282 m23 -34 h-3"/>
         <polygon points="533 17 541 13 541 21"/>
         <polygon points="533 17 525 13 525 21"/>
      </svg>
