<svg xmlns="http://www.w3.org/2000/svg" width="501" height="69">
         <defs>
            <style type="text/css">
    @namespace "http://www.w3.org/2000/svg";
    .line                 {fill: none; stroke: #1F1F1F;}
    .bold-line            {stroke: #0A0A0A; shape-rendering: crispEdges; stroke-width: 2; }
    .thin-line            {stroke: #0F0F0F; shape-rendering: crispEdges}
    .filled               {fill: #1F1F1F; stroke: none;}
    text.terminal         {font-family: Verdana, Sans-serif;
                            font-size: 12px;
                            fill: #0A0A0A;
                            font-weight: bold;
                          }
    text.nonterminal      {font-family: Verdana, Sans-serif; font-style: italic;
                            font-size: 12px;
                            fill: #0D0D0D;
                            font-weight: normal;
                          }
    text.regexp           {font-family: Verdana, Sans-serif;
                            font-size: 12px;
                            fill: #0F0F0F;
                            font-weight: normal;
                          }
    rect, circle, polygon {fill: #1F1F1F; stroke: #1F1F1F;}
    rect.terminal         {fill: #CCCCCC; stroke: #1F1F1F;}
    rect.nonterminal      {fill: #E3E3E3; stroke: #1F1F1F;}
    rect.text             {fill: none; stroke: none;}    
    polygon.regexp        {fill: #EFEFEF; stroke: #1F1F1F;}
  </style>
         </defs>
         <polygon points="9 17 1 13 1 21"/>
         <polygon points="17 17 9 13 9 21"/>
         <rect x="31" y="3" width="108" height="32" rx="10"/>
         <rect x="29" y="1" width="108" height="32" class="terminal" rx="10"/>
         <text class="terminal" x="39" y="21">addPackage(</text>
<!--  <a xmlns:xlink="http://www.w3.org/1999/xlink" xlink:href="#package" xlink:title="package"> -->
            <rect x="159" y="3" width="72" height="32"/>
            <rect x="157" y="1" width="72" height="32" class="nonterminal"/>
            <text class="nonterminal" x="167" y="21">package</text><!-- </a> -->
<rect x="271" y="35" width="24" height="32" rx="10"/>
         <rect x="269" y="33" width="24" height="32" class="terminal" rx="10"/>
         <text class="terminal" x="279" y="53">,</text>
<!--  <a xmlns:xlink="http://www.w3.org/1999/xlink" xlink:href="#namespace" xlink:title="namespace"> -->
            <rect x="315" y="35" width="92" height="32"/>
            <rect x="313" y="33" width="92" height="32" class="nonterminal"/>
            <text class="nonterminal" x="323" y="53">namespace</text><!-- </a> -->
<rect x="447" y="3" width="26" height="32" rx="10"/>
         <rect x="445" y="1" width="26" height="32" class="terminal" rx="10"/>
         <text class="terminal" x="455" y="21">)</text>
         <svg:path xmlns:svg="http://www.w3.org/2000/svg" class="line" d="m17 17 h2 m0 0 h10 m108 0 h10 m0 0 h10 m72 0 h10 m20 0 h10 m0 0 h146 m-176 0 h20 m156 0 h20 m-196 0 q10 0 10 10 m176 0 q0 -10 10 -10 m-186 10 v12 m176 0 v-12 m-176 12 q0 10 10 10 m156 0 q10 0 10 -10 m-166 10 h10 m24 0 h10 m0 0 h10 m92 0 h10 m20 -32 h10 m26 0 h10 m3 0 h-3"/>
         <polygon points="491 17 499 13 499 21"/>
         <polygon points="491 17 483 13 483 21"/></svg>
