<svg xmlns="http://www.w3.org/2000/svg" width="441" height="69">
         <defs>
            <style type="text/css">
    @namespace "http://www.w3.org/2000/svg";
    .line                 {fill: none; stroke: #1F1F1F;}
    .bold-line            {stroke: #0A0A0A; shape-rendering: crispEdges; stroke-width: 2; }
    .thin-line            {stroke: #0F0F0F; shape-rendering: crispEdges}
    .filled               {fill: #1F1F1F; stroke: none;}
    text.terminal         {font-family: Verdana, Sans-serif;
                            font-size: 12px;
                            fill: #0A0A0A;
                            font-weight: bold;
                          }
    text.nonterminal      {font-family: Verdana, Sans-serif; font-style: italic;
                            font-size: 12px;
                            fill: #0D0D0D;
                            font-weight: normal;
                          }
    text.regexp           {font-family: Verdana, Sans-serif;
                            font-size: 12px;
                            fill: #0F0F0F;
                            font-weight: normal;
                          }
    rect, circle, polygon {fill: #1F1F1F; stroke: #1F1F1F;}
    rect.terminal         {fill: #cccccc; stroke: #1F1F1F;}
    rect.nonterminal      {fill: #E3E3E3; stroke: #1F1F1F;}
    rect.text             {fill: none; stroke: none;}    
    polygon.regexp        {fill: #EFEFEF; stroke: #1F1F1F;}
  </style>
         </defs>
         <polygon points="9 17 1 13 1 21"/>
         <polygon points="17 17 9 13 9 21"/>
         <rect x="31" y="3" width="92" height="32" rx="10"/>
         <rect x="29" y="1" width="92" height="32" class="terminal" rx="10"/>
         <text class="terminal" x="39" y="21">getWhole(</text>
<!--  <a xmlns:xlink="http://www.w3.org/1999/xlink" xlink:href="#name" xlink:title="name"> -->
            <rect x="143" y="3" width="56" height="32"/>
            <rect x="141" y="1" width="56" height="32" class="nonterminal"/>
            <text class="nonterminal" x="151" y="21">name</text><!-- </a> -->
<rect x="239" y="35" width="24" height="32" rx="10"/>
         <rect x="237" y="33" width="24" height="32" class="terminal" rx="10"/>
         <text class="terminal" x="247" y="53">,</text>
<!--  <a xmlns:xlink="http://www.w3.org/1999/xlink" xlink:href="#default" xlink:title="default"> -->
            <rect x="283" y="35" width="64" height="32"/>
            <rect x="281" y="33" width="64" height="32" class="nonterminal"/>
            <text class="nonterminal" x="291" y="53">default</text><!-- </a> -->
<rect x="387" y="3" width="26" height="32" rx="10"/>
         <rect x="385" y="1" width="26" height="32" class="terminal" rx="10"/>
         <text class="terminal" x="395" y="21">)</text>
         <svg:path xmlns:svg="http://www.w3.org/2000/svg" class="line" d="m17 17 h2 m0 0 h10 m92 0 h10 m0 0 h10 m56 0 h10 m20 0 h10 m0 0 h118 m-148 0 h20 m128 0 h20 m-168 0 q10 0 10 10 m148 0 q0 -10 10 -10 m-158 10 v12 m148 0 v-12 m-148 12 q0 10 10 10 m128 0 q10 0 10 -10 m-138 10 h10 m24 0 h10 m0 0 h10 m64 0 h10 m20 -32 h10 m26 0 h10 m3 0 h-3"/>
         <polygon points="431 17 439 13 439 21"/>
         <polygon points="431 17 423 13 423 21"/></svg>
