      <svg xmlns="http://www.w3.org/2000/svg" width="484" height="112">
         <defs>
            <style type="text/css">
               @namespace "http://www.w3.org/2000/svg";
               .line                 {fill: none; stroke: #1F1F1F;}
               .bold-line            {stroke: #0A0A0A; shape-rendering: crispEdges; stroke-width:
               2; }
               .thin-line            {stroke: #0F0F0F; shape-rendering: crispEdges}
               .filled               {fill: #1F1F1F; stroke: none;}
               text.terminal         {font-family: Verdana, Sans-serif;
               font-size: 12px;
               fill: #0A0A0A;
               font-weight: bold;
               }
               text.nonterminal      {font-family: Verdana, Sans-serif; font-style: italic;
               font-size: 12px;
               fill: #0D0D0D;
               }
               text.regexp           {font-family: Verdana, Sans-serif;
               font-size: 12px;
               fill: #0F0F0F;
               }
               rect, circle, polygon {fill: #1F1F1F; stroke: #1F1F1F;}
               rect.terminal         {fill: #CCCCCC; stroke: #1F1F1F;}
               rect.nonterminal      {fill: #E3E3E3; stroke: #1F1F1F;}
               rect.text             {fill: none; stroke: none;}    
               polygon.regexp        {fill: #EFEFEF; stroke: #1F1F1F;}
               
            </style>
         </defs>
         <polygon points="9 17 1 13 1 21"/>
         <polygon points="17 17 9 13 9 21"/>
         <rect x="31" y="3" width="54" height="32" rx="10"/>
         <rect x="29" y="1" width="54" height="32" class="terminal" rx="10"/>
         <text class="terminal" x="39" y="21">new(</text>
<!--     <a xmlns:xlink="http://www.w3.org/1999/xlink" xlink:href="#pattern" xlink:title="pattern"> -->
            <rect x="125" y="35" width="66" height="32"/>
            <rect x="123" y="33" width="66" height="32" class="nonterminal"/>
            <text class="nonterminal" x="133" y="53">pattern</text>
<!--     </a> -->
         <rect x="231" y="3" width="24" height="32" rx="10"/>
         <rect x="229" y="1" width="24" height="32" class="terminal" rx="10"/>
         <text class="terminal" x="239" y="21">,</text>
         <rect x="295" y="35" width="96" height="32" rx="10"/>
         <rect x="293" y="33" width="96" height="32" class="terminal" rx="10"/>
         <text class="terminal" x="303" y="53">"MAXIMAL"</text>
         <rect x="295" y="79" width="94" height="32" rx="10"/>
         <rect x="293" y="77" width="94" height="32" class="terminal" rx="10"/>
         <text class="terminal" x="303" y="97">"MINIMAL"</text>
         <rect x="431" y="3" width="26" height="32" rx="10"/>
         <rect x="429" y="1" width="26" height="32" class="terminal" rx="10"/>
         <text class="terminal" x="439" y="21">)</text>
         <svg:path xmlns:svg="http://www.w3.org/2000/svg" class="line" d="m17 17 h2 m0 0 h10 m54 0 h10 m20 0 h10 m0 0 h76 m-106 0 h20 m86 0 h20 m-126 0 q10 0 10 10 m106 0 q0 -10 10 -10 m-116 10 v12 m106 0 v-12 m-106 12 q0 10 10 10 m86 0 q10 0 10 -10 m-96 10 h10 m66 0 h10 m20 -32 h10 m24 0 h10 m20 0 h10 m0 0 h106 m-136 0 h20 m116 0 h20 m-156 0 q10 0 10 10 m136 0 q0 -10 10 -10 m-146 10 v12 m136 0 v-12 m-136 12 q0 10 10 10 m116 0 q10 0 10 -10 m-126 10 h10 m96 0 h10 m-126 -10 v20 m136 0 v-20 m-136 20 v24 m136 0 v-24 m-136 24 q0 10 10 10 m116 0 q10 0 10 -10 m-126 10 h10 m94 0 h10 m0 0 h2 m20 -76 h10 m26 0 h10 m3 0 h-3"/>
         <polygon points="475 17 483 13 483 21"/>
         <polygon points="475 17 467 13 467 21"/>
      </svg>
