      <svg xmlns="http://www.w3.org/2000/svg" width="450" height="156">
         <defs>
            <style type="text/css">
               @namespace "http://www.w3.org/2000/svg";
               .line                 {fill: none; stroke: #1F1F1F;}
               .bold-line            {stroke: #0A0A0A; shape-rendering: crispEdges; stroke-width:
               2; }
               .thin-line            {stroke: #0F0F0F; shape-rendering: crispEdges}
               .filled               {fill: #1F1F1F; stroke: none;}
               text.terminal         {font-family: Verdana, Sans-serif;
               font-size: 12px;
               fill: #0A0A0A;
               font-weight: bold;
               }
               text.nonterminal      {font-family: Verdana, Sans-serif; font-style: italic;
               font-size: 12px;
               fill: #0D0D0D;
               }
               text.regexp           {font-family: Verdana, Sans-serif;
               font-size: 12px;
               fill: #0F0F0F;
               }
               rect, circle, polygon {fill: #1F1F1F; stroke: #1F1F1F;}
               rect.terminal         {fill: #CCCCCC; stroke: #1F1F1F;}
               rect.nonterminal      {fill: #E3E3E3; stroke: #1F1F1F;}
               rect.text             {fill: none; stroke: none;}    
               polygon.regexp        {fill: #EFEFEF; stroke: #1F1F1F;}
               
            </style>
         </defs>
         <polygon points="9 17 1 13 1 21"/>
         <polygon points="17 17 9 13 9 21"/>
         <rect x="31" y="3" width="62" height="32" rx="10"/>
         <rect x="29" y="1" width="62" height="32" class="terminal" rx="10"/>
         <text class="terminal" x="39" y="21">parse(</text>
<!--     <a xmlns:xlink="http://www.w3.org/1999/xlink" xlink:href="#pattern" xlink:title="pattern"> -->
            <rect x="113" y="3" width="62" height="32"/>
            <rect x="111" y="1" width="62" height="32" class="nonterminal"/>
            <text class="nonterminal" x="121" y="21">pattern</text>
<!--     </a> -->
         <rect x="195" y="3" width="24" height="32" rx="10"/>
         <rect x="193" y="1" width="24" height="32" class="terminal" rx="10"/>
         <text class="terminal" x="203" y="21">,</text>
         <rect x="259" y="35" width="98" height="32" rx="10"/>
         <rect x="257" y="33" width="98" height="32" class="terminal" rx="10"/>
         <text class="terminal" x="267" y="53">"CURRENT"</text>
         <rect x="259" y="79" width="98" height="32" rx="10"/>
         <rect x="257" y="77" width="98" height="32" class="terminal" rx="10"/>
         <text class="terminal" x="267" y="97">"MAXIMAL"</text>
         <rect x="259" y="123" width="96" height="32" rx="10"/>
         <rect x="257" y="121" width="96" height="32" class="terminal" rx="10"/>
         <text class="terminal" x="267" y="141">"MINIMAL"</text>
         <rect x="397" y="3" width="26" height="32" rx="10"/>
         <rect x="395" y="1" width="26" height="32" class="terminal" rx="10"/>
         <text class="terminal" x="405" y="21">)</text>
         <svg:path xmlns:svg="http://www.w3.org/2000/svg" class="line" d="m17 17 h2 m0 0 h10 m62 0 h10 m0 0 h10 m62 0 h10 m0 0 h10 m24 0 h10 m20 0 h10 m0 0 h108 m-138 0 h20 m118 0 h20 m-158 0 q10 0 10 10 m138 0 q0 -10 10 -10 m-148 10 v12 m138 0 v-12 m-138 12 q0 10 10 10 m118 0 q10 0 10 -10 m-128 10 h10 m98 0 h10 m-128 -10 v20 m138 0 v-20 m-138 20 v24 m138 0 v-24 m-138 24 q0 10 10 10 m118 0 q10 0 10 -10 m-128 10 h10 m98 0 h10 m-128 -10 v20 m138 0 v-20 m-138 20 v24 m138 0 v-24 m-138 24 q0 10 10 10 m118 0 q10 0 10 -10 m-128 10 h10 m96 0 h10 m0 0 h2 m20 -120 h10 m26 0 h10 m3 0 h-3"/>
         <polygon points="441 17 449 13 449 21"/>
         <polygon points="441 17 433 13 433 21"/>
      </svg>
