      <svg xmlns="http://www.w3.org/2000/svg" width="486" height="140">
         <defs>
            <style type="text/css">
               @namespace "http://www.w3.org/2000/svg";
               .line                 {fill: none; stroke: #1F1F1F;}
               .bold-line            {stroke: #0A0A0A; shape-rendering: crispEdges; stroke-width:
               2; }
               .thin-line            {stroke: #0F0F0F; shape-rendering: crispEdges}
               .filled               {fill: #1F1F1F; stroke: none;}
               text.terminal         {font-family: Verdana, Sans-serif;
               font-size: 12px;
               fill: #0A0A0A;
               font-weight: bold;
               }
               text.nonterminal      {font-family: Verdana, Sans-serif; font-style: italic;
               font-size: 12px;
               fill: #0D0D0D;
               }
               text.regexp           {font-family: Verdana, Sans-serif;
               font-size: 12px;
               fill: #0F0F0F;
               }
               rect, circle, polygon {fill: #1F1F1F; stroke: #1F1F1F;}
               rect.terminal         {fill: #CCCCCC; stroke: #1F1F1F;}
               rect.nonterminal      {fill: #E3E3E3; stroke: #1F1F1F;}
               rect.text             {fill: none; stroke: none;}    
               polygon.regexp        {fill: #EFEFEF; stroke: #1F1F1F;}
               
            </style>
         </defs>
         <polygon points="9 17 1 13 1 21"/>
         <polygon points="17 17 9 13 9 21"/>
         <rect x="31" y="3" width="64" height="32" rx="10"/>
         <rect x="29" y="1" width="64" height="32" class="terminal" rx="10"/>
         <text class="terminal" x="39" y="21">parse(</text>
<!--     <a xmlns:xlink="http://www.w3.org/1999/xlink" xlink:href="#pattern" xlink:title="pattern"> -->
            <rect x="115" y="3" width="66" height="32"/>
            <rect x="113" y="1" width="66" height="32" class="nonterminal"/>
            <text class="nonterminal" x="123" y="21">pattern</text>
<!--     </a> -->
         <rect x="221" y="3" width="24" height="32" rx="10"/>
         <rect x="219" y="1" width="24" height="32" class="terminal" rx="10"/>
         <text class="terminal" x="229" y="21">,</text>
         <rect x="285" y="3" width="84" height="32" rx="10"/>
         <rect x="283" y="1" width="84" height="32" class="terminal" rx="10"/>
         <text class="terminal" x="293" y="21">"Current"</text>
         <rect x="285" y="47" width="88" height="32" rx="10"/>
         <rect x="283" y="45" width="88" height="32" class="terminal" rx="10"/>
         <text class="terminal" x="293" y="65">"Maximal"</text>
         <rect x="285" y="91" width="84" height="32" rx="10"/>
         <rect x="283" y="89" width="84" height="32" class="terminal" rx="10"/>
         <text class="terminal" x="293" y="109">"Minimal"</text>
         <rect x="433" y="3" width="26" height="32" rx="10"/>
         <rect x="431" y="1" width="26" height="32" class="terminal" rx="10"/>
         <text class="terminal" x="441" y="21">)</text>
         <svg:path xmlns:svg="http://www.w3.org/2000/svg" class="line" d="m17 17 h2 m0 0 h10 m64 0 h10 m0 0 h10 m66 0 h10 m20 0 h10 m24 0 h10 m20 0 h10 m84 0 h10 m0 0 h4 m-128 0 h20 m108 0 h20 m-148 0 q10 0 10 10 m128 0 q0 -10 10 -10 m-138 10 v24 m128 0 v-24 m-128 24 q0 10 10 10 m108 0 q10 0 10 -10 m-118 10 h10 m88 0 h10 m-118 -10 v20 m128 0 v-20 m-128 20 v24 m128 0 v-24 m-128 24 q0 10 10 10 m108 0 q10 0 10 -10 m-118 10 h10 m84 0 h10 m0 0 h4 m-192 -88 h20 m192 0 h20 m-232 0 q10 0 10 10 m212 0 q0 -10 10 -10 m-222 10 v102 m212 0 v-102 m-212 102 q0 10 10 10 m192 0 q10 0 10 -10 m-202 10 h10 m0 0 h182 m20 -122 h10 m26 0 h10 m3 0 h-3"/>
         <polygon points="477 17 485 13 485 21"/>
         <polygon points="477 17 469 13 469 21"/>
      </svg>
