      <svg xmlns="http://www.w3.org/2000/svg" width="412" height="112">
         <defs>
            <style type="text/css">
               @namespace "http://www.w3.org/2000/svg";
               .line                 {fill: none; stroke: #1F1F1F;}
               .bold-line            {stroke: #0A0A0A; shape-rendering: crispEdges; stroke-width:
               2; }
               .thin-line            {stroke: #0F0F0F; shape-rendering: crispEdges}
               .filled               {fill: #1F1F1F; stroke: none;}
               text.terminal         {font-family: Verdana, Sans-serif;
               font-size: 12px;
               fill: #0A0A0A;
               font-weight: bold;
               }
               text.nonterminal      {font-family: Verdana, Sans-serif;
               font-size: 12px;
               fill: #0D0D0D;
               }
               text.regexp           {font-family: Verdana, Sans-serif;
               font-size: 12px;
               fill: #0F0F0F;
               }
               rect, circle, polygon {fill: #1F1F1F; stroke: #1F1F1F;}
               rect.terminal         {fill: #CCCCCC; stroke: #1F1F1F;}
               rect.nonterminal      {fill: #E3E3E3; stroke: #1F1F1F;}
               rect.text             {fill: none; stroke: none;}    
               polygon.regexp        {fill: #EFEFEF; stroke: #1F1F1F;}
               
            </style>
         </defs>
         <polygon points="9 61 1 57 1 65"/>
         <polygon points="17 61 9 57 9 65"/>
         <rect x="31" y="47" width="42" height="32" rx="10"/>
         <rect x="29" y="45" width="42" height="32" class="terminal" rx="10"/>
         <text class="terminal" x="39" y="65">call</text>
         <rect x="113" y="47" width="26" height="32" rx="10"/>
         <rect x="111" y="45" width="26" height="32" class="terminal" rx="10"/>
         <text class="terminal" x="121" y="65">(</text>
         <a xmlns:xlink="http://www.w3.org/1999/xlink" xlink:href="#argument" xlink:title="argument">
            <rect x="199" y="47" width="80" height="32"/>
            <rect x="197" y="45" width="80" height="32" class="nonterminal"/>
            <text class="nonterminal" x="207" y="65">argument</text>
         </a>
         <rect x="199" y="3" width="24" height="32" rx="10"/>
         <rect x="197" y="1" width="24" height="32" class="terminal" rx="10"/>
         <text class="terminal" x="207" y="21">,</text>
         <rect x="339" y="47" width="26" height="32" rx="10"/>
         <rect x="337" y="45" width="26" height="32" class="terminal" rx="10"/>
         <text class="terminal" x="347" y="65">)</text>
         <svg:path xmlns:svg="http://www.w3.org/2000/svg" class="line" d="m17 61 h2 m0 0 h10 m42 0 h10 m20 0 h10 m26 0 h10 m40 0 h10 m80 0 h10 m-120 0 l20 0 m-1 0 q-9 0 -9 -10 l0 -24 q0 -10 10 -10 m100 44 l20 0 m-20 0 q10 0 10 -10 l0 -24 q0 -10 -10 -10 m-100 0 h10 m24 0 h10 m0 0 h56 m-140 44 h20 m140 0 h20 m-180 0 q10 0 10 10 m160 0 q0 -10 10 -10 m-170 10 v14 m160 0 v-14 m-160 14 q0 10 10 10 m140 0 q10 0 10 -10 m-150 10 h10 m0 0 h130 m20 -34 h10 m26 0 h10 m-292 0 h20 m272 0 h20 m-312 0 q10 0 10 10 m292 0 q0 -10 10 -10 m-302 10 v30 m292 0 v-30 m-292 30 q0 10 10 10 m272 0 q10 0 10 -10 m-282 10 h10 m0 0 h262 m23 -50 h-3"/>
         <polygon points="403 61 411 57 411 65"/>
         <polygon points="403 61 395 57 395 65"/>
      </svg>
