      <svg xmlns="http://www.w3.org/2000/svg" width="400" height="102">
         <defs>
            <style type="text/css">
               @namespace "http://www.w3.org/2000/svg";
               .line                 {fill: none; stroke: #1F1F1F;}
               .bold-line            {stroke: #0A0A0A; shape-rendering: crispEdges; stroke-width:
               2; }
               .thin-line            {stroke: #0F0F0F; shape-rendering: crispEdges}
               .filled               {fill: #1F1F1F; stroke: none;}
               text.terminal         {font-family: Verdana, Sans-serif;
               font-size: 12px;
               fill: #0A0A0A;
               font-weight: bold;
               }
               text.nonterminal      {font-family: Verdana, Sans-serif; font-style: italic;
               font-size: 12px;
               fill: #0D0D0D;
               }
               text.regexp           {font-family: Verdana, Sans-serif;
               font-size: 12px;
               fill: #0F0F0F;
               }
               rect, circle, polygon {fill: #1F1F1F; stroke: #1F1F1F;}
               rect.terminal         {fill: #CCCCCC; stroke: #1F1F1F;}
               rect.nonterminal      {fill: #E3E3E3; stroke: #1F1F1F;}
               rect.text             {fill: none; stroke: none;}    
               polygon.regexp        {fill: #EFEFEF; stroke: #1F1F1F;}
               
            </style>
         </defs>
         <polygon points="9 51 1 47 1 55"/>
         <polygon points="17 51 9 47 9 55"/>
         <rect x="31" y="37" width="26" height="32" rx="10"/>
         <rect x="29" y="35" width="26" height="32" class="terminal" rx="10"/>
         <text class="terminal" x="39" y="55">[</text>
<!--     <a xmlns:xlink="http://www.w3.org/1999/xlink" xlink:href="#index" xlink:title="index"> -->
            <rect x="117" y="69" width="50" height="32"/>
            <rect x="115" y="67" width="50" height="32" class="nonterminal"/>
            <text class="nonterminal" x="125" y="87">index</text>
<!--     </a> -->
         <rect x="97" y="3" width="24" height="32" rx="10"/>
         <rect x="95" y="1" width="24" height="32" class="terminal" rx="10"/>
         <text class="terminal" x="105" y="21">,</text>
         <rect x="227" y="37" width="26" height="32" rx="10"/>
         <rect x="225" y="35" width="26" height="32" class="terminal" rx="10"/>
         <text class="terminal" x="235" y="55">]</text>
         <rect x="273" y="37" width="30" height="32" rx="10"/>
         <rect x="271" y="35" width="30" height="32" class="terminal" rx="10"/>
         <text class="terminal" x="281" y="55">=</text>
<!--     <a xmlns:xlink="http://www.w3.org/1999/xlink" xlink:href="#value" xlink:title="value"> -->
            <rect x="323" y="37" width="50" height="32"/>
            <rect x="321" y="35" width="50" height="32" class="nonterminal"/>
            <text class="nonterminal" x="331" y="55">value</text>
<!--     </a> -->
         <svg:path xmlns:svg="http://www.w3.org/2000/svg" class="line" d="m17 51 h2 m0 0 h10 m26 0 h10 m40 0 h10 m0 0 h60 m-90 0 h20 m70 0 h20 m-110 0 q10 0 10 10 m90 0 q0 -10 10 -10 m-100 10 v12 m90 0 v-12 m-90 12 q0 10 10 10 m70 0 q10 0 10 -10 m-80 10 h10 m50 0 h10 m-110 -32 l20 0 m-1 0 q-9 0 -9 -10 l0 -14 q0 -10 10 -10 m110 34 l20 0 m-20 0 q10 0 10 -10 l0 -14 q0 -10 -10 -10 m-110 0 h10 m24 0 h10 m0 0 h66 m20 34 h10 m26 0 h10 m0 0 h10 m30 0 h10 m0 0 h10 m50 0 h10 m3 0 h-3"/>
         <polygon points="391 51 399 47 399 55"/>
         <polygon points="391 51 383 47 383 55"/>
      </svg>
