      <svg xmlns="http://www.w3.org/2000/svg" width="490" height="36">
         <defs>
            <style type="text/css">
               @namespace "http://www.w3.org/2000/svg";
               .line                 {fill: none; stroke: #1F1F1F;}
               .bold-line            {stroke: #0A0A0A; shape-rendering: crispEdges; stroke-width:
               2; }
               .thin-line            {stroke: #0F0F0F; shape-rendering: crispEdges}
               .filled               {fill: #1F1F1F; stroke: none;}
               text.terminal         {font-family: Verdana, Sans-serif;
               font-size: 12px;
               fill: #0A0A0A;
               font-weight: bold;
               }
               text.nonterminal      {font-family: Verdana, Sans-serif; font-style: italic;
               font-size: 12px;
               fill: #0D0D0D;
               }
               text.regexp           {font-family: Verdana, Sans-serif;
               font-size: 12px;
               fill: #0F0F0F;
               }
               rect, circle, polygon {fill: #1F1F1F; stroke: #1F1F1F;}
               rect.terminal         {fill: #CCCCCC; stroke: #1F1F1F;}
               rect.nonterminal      {fill: #E3E3E3; stroke: #1F1F1F;}
               rect.text             {fill: none; stroke: none;}    
               polygon.regexp        {fill: #EFEFEF; stroke: #1F1F1F;}
               
            </style>
         </defs>
         <polygon points="9 17 1 13 1 21"/>
         <polygon points="17 17 9 13 9 21"/>
         <rect x="31" y="3" width="86" height="32" rx="10"/>
         <rect x="29" y="1" width="86" height="32" class="terminal" rx="10"/>
         <text class="terminal" x="39" y="21">unknown(</text>
<!--     <a xmlns:xlink="http://www.w3.org/1999/xlink" xlink:href="#messagename" xlink:title="messagename"> -->
            <rect x="137" y="3" width="112" height="32"/>
            <rect x="135" y="1" width="112" height="32" class="nonterminal"/>
            <text class="nonterminal" x="145" y="21">messagename</text>
<!--     </a> -->
         <rect x="269" y="3" width="24" height="32" rx="10"/>
         <rect x="267" y="1" width="24" height="32" class="terminal" rx="10"/>
         <text class="terminal" x="277" y="21">,</text>
<!--     <a xmlns:xlink="http://www.w3.org/1999/xlink" xlink:href="#messageargs" xlink:title="messageargs"> -->
            <rect x="313" y="3" width="104" height="32"/>
            <rect x="311" y="1" width="104" height="32" class="nonterminal"/>
            <text class="nonterminal" x="321" y="21">messageargs</text>
<!--     </a> -->
         <rect x="437" y="3" width="26" height="32" rx="10"/>
         <rect x="435" y="1" width="26" height="32" class="terminal" rx="10"/>
         <text class="terminal" x="445" y="21">)</text>
         <svg:path xmlns:svg="http://www.w3.org/2000/svg" class="line" d="m17 17 h2 m0 0 h10 m86 0 h10 m0 0 h10 m112 0 h10 m0 0 h10 m24 0 h10 m0 0 h10 m104 0 h10 m0 0 h10 m26 0 h10 m3 0 h-3"/>
         <polygon points="481 17 489 13 489 21"/>
         <polygon points="481 17 473 13 473 21"/>
      </svg>
