      <svg xmlns="http://www.w3.org/2000/svg" width="566" height="520">
         <defs>
            <style type="text/css">
               @namespace "http://www.w3.org/2000/svg";
               .line                 {fill: none; stroke: #1F1F1F;}
               .bold-line            {stroke: #0A0A0A; shape-rendering: crispEdges; stroke-width:
               2; }
               .thin-line            {stroke: #0F0F0F; shape-rendering: crispEdges}
               .filled               {fill: #1F1F1F; stroke: none;}
               text.terminal         {font-family: Verdana, Sans-serif;
               font-size: 12px;
               fill: #0A0A0A;
               font-weight: bold;
               }
               text.nonterminal      {font-family: Verdana, Sans-serif; font-style: italic;
               font-size: 12px;
               fill: #0D0D0D;
               }
               text.regexp           {font-family: Verdana, Sans-serif;
               font-size: 12px;
               fill: #0F0F0F;
               }
               rect, circle, polygon {fill: #1F1F1F; stroke: #1F1F1F;}
               rect.terminal         {fill: #CCCCCC; stroke: #1F1F1F;}
               rect.nonterminal      {fill: #E3E3E3; stroke: #1F1F1F;}
               rect.text             {fill: none; stroke: none;}    
               polygon.regexp        {fill: #EFEFEF; stroke: #1F1F1F;}
               
            </style>
         </defs>
         <polygon points="9 17 1 13 1 21"/>
         <polygon points="17 17 9 13 9 21"/>
         <rect x="31" y="3" width="64" height="32" rx="10"/>
         <rect x="29" y="1" width="64" height="32" class="terminal" rx="10"/>
         <text class="terminal" x="39" y="21">query(</text>
         <rect x="135" y="3" width="80" height="32" rx="10"/>
         <rect x="133" y="1" width="80" height="32" class="terminal" rx="10"/>
         <text class="terminal" x="143" y="21">Datetime</text>
         <rect x="135" y="47" width="58" height="32" rx="10"/>
         <rect x="133" y="45" width="58" height="32" class="terminal" rx="10"/>
         <text class="terminal" x="143" y="65">Exists</text>
         <rect x="135" y="91" width="66" height="32" rx="10"/>
         <rect x="133" y="89" width="66" height="32" class="terminal" rx="10"/>
         <text class="terminal" x="143" y="109">Handle</text>
         <rect x="155" y="135" width="52" height="32" rx="10"/>
         <rect x="153" y="133" width="52" height="32" class="terminal" rx="10"/>
         <text class="terminal" x="163" y="153">Seek</text>
         <rect x="155" y="179" width="72" height="32" rx="10"/>
         <rect x="153" y="177" width="72" height="32" class="terminal" rx="10"/>
         <text class="terminal" x="163" y="197">Position</text>
         <rect x="287" y="135" width="52" height="32" rx="10"/>
         <rect x="285" y="133" width="52" height="32" class="terminal" rx="10"/>
         <text class="terminal" x="295" y="153">Read</text>
         <rect x="379" y="135" width="50" height="32" rx="10"/>
         <rect x="377" y="133" width="50" height="32" class="terminal" rx="10"/>
         <text class="terminal" x="387" y="153">Char</text>
         <rect x="379" y="179" width="48" height="32" rx="10"/>
         <rect x="377" y="177" width="48" height="32" class="terminal" rx="10"/>
         <text class="terminal" x="387" y="197">Line</text>
         <rect x="287" y="245" width="56" height="32" rx="10"/>
         <rect x="285" y="243" width="56" height="32" class="terminal" rx="10"/>
         <text class="terminal" x="295" y="263">Write</text>
         <rect x="383" y="245" width="50" height="32" rx="10"/>
         <rect x="381" y="243" width="50" height="32" class="terminal" rx="10"/>
         <text class="terminal" x="391" y="263">Char</text>
         <rect x="383" y="289" width="48" height="32" rx="10"/>
         <rect x="381" y="287" width="48" height="32" class="terminal" rx="10"/>
         <text class="terminal" x="391" y="307">Line</text>
         <rect x="287" y="355" width="44" height="32" rx="10"/>
         <rect x="285" y="353" width="44" height="32" class="terminal" rx="10"/>
         <text class="terminal" x="295" y="373">Sys</text>
         <rect x="135" y="399" width="48" height="32" rx="10"/>
         <rect x="133" y="397" width="48" height="32" class="terminal" rx="10"/>
         <text class="terminal" x="143" y="417">Size</text>
         <rect x="135" y="443" width="96" height="32" rx="10"/>
         <rect x="133" y="441" width="96" height="32" class="terminal" rx="10"/>
         <text class="terminal" x="143" y="461">Streamtype</text>
         <rect x="135" y="487" width="92" height="32" rx="10"/>
         <rect x="133" y="485" width="92" height="32" class="terminal" rx="10"/>
         <text class="terminal" x="143" y="505">Timestamp</text>
         <rect x="513" y="3" width="26" height="32" rx="10"/>
         <rect x="511" y="1" width="26" height="32" class="terminal" rx="10"/>
         <text class="terminal" x="521" y="21">)</text>
         <svg:path xmlns:svg="http://www.w3.org/2000/svg" class="line" d="m17 17 h2 m0 0 h10 m64 0 h10 m20 0 h10 m80 0 h10 m0 0 h258 m-378 0 h20 m358 0 h20 m-398 0 q10 0 10 10 m378 0 q0 -10 10 -10 m-388 10 v24 m378 0 v-24 m-378 24 q0 10 10 10 m358 0 q10 0 10 -10 m-368 10 h10 m58 0 h10 m0 0 h280 m-368 -10 v20 m378 0 v-20 m-378 20 v24 m378 0 v-24 m-378 24 q0 10 10 10 m358 0 q10 0 10 -10 m-368 10 h10 m66 0 h10 m0 0 h272 m-368 -10 v20 m378 0 v-20 m-378 20 v24 m378 0 v-24 m-378 24 q0 10 10 10 m358 0 q10 0 10 -10 m-348 10 h10 m52 0 h10 m0 0 h20 m-112 0 h20 m92 0 h20 m-132 0 q10 0 10 10 m112 0 q0 -10 10 -10 m-122 10 v24 m112 0 v-24 m-112 24 q0 10 10 10 m92 0 q10 0 10 -10 m-102 10 h10 m72 0 h10 m40 -44 h10 m52 0 h10 m20 0 h10 m50 0 h10 m-90 0 h20 m70 0 h20 m-110 0 q10 0 10 10 m90 0 q0 -10 10 -10 m-100 10 v24 m90 0 v-24 m-90 24 q0 10 10 10 m70 0 q10 0 10 -10 m-80 10 h10 m48 0 h10 m0 0 h2 m-80 -10 v20 m90 0 v-20 m-90 20 v14 m90 0 v-14 m-90 14 q0 10 10 10 m70 0 q10 0 10 -10 m-80 10 h10 m0 0 h60 m20 -78 h4 m-206 0 h20 m186 0 h20 m-226 0 q10 0 10 10 m206 0 q0 -10 10 -10 m-216 10 v90 m206 0 v-90 m-206 90 q0 10 10 10 m186 0 q10 0 10 -10 m-196 10 h10 m56 0 h10 m20 0 h10 m50 0 h10 m-90 0 h20 m70 0 h20 m-110 0 q10 0 10 10 m90 0 q0 -10 10 -10 m-100 10 v24 m90 0 v-24 m-90 24 q0 10 10 10 m70 0 q10 0 10 -10 m-80 10 h10 m48 0 h10 m0 0 h2 m-80 -10 v20 m90 0 v-20 m-90 20 v14 m90 0 v-14 m-90 14 q0 10 10 10 m70 0 q10 0 10 -10 m-80 10 h10 m0 0 h60 m-176 -88 v20 m206 0 v-20 m-206 20 v90 m206 0 v-90 m-206 90 q0 10 10 10 m186 0 q10 0 10 -10 m-196 10 h10 m44 0 h10 m0 0 h122 m-348 -230 v20 m378 0 v-20 m-378 20 v244 m378 0 v-244 m-378 244 q0 10 10 10 m358 0 q10 0 10 -10 m-368 10 h10 m48 0 h10 m0 0 h290 m-368 -10 v20 m378 0 v-20 m-378 20 v24 m378 0 v-24 m-378 24 q0 10 10 10 m358 0 q10 0 10 -10 m-368 10 h10 m96 0 h10 m0 0 h242 m-368 -10 v20 m378 0 v-20 m-378 20 v24 m378 0 v-24 m-378 24 q0 10 10 10 m358 0 q10 0 10 -10 m-368 10 h10 m92 0 h10 m0 0 h246 m20 -484 h10 m26 0 h10 m3 0 h-3"/>
         <polygon points="557 17 565 13 565 21"/>
         <polygon points="557 17 549 13 549 21"/>
      </svg>
