      <svg xmlns="http://www.w3.org/2000/svg" width="626" height="156">
         <defs>
            <style type="text/css">
               @namespace "http://www.w3.org/2000/svg";
               .line                 {fill: none; stroke: #1F1F1F;}
               .bold-line            {stroke: #0A0A0A; shape-rendering: crispEdges; stroke-width:
               2; }
               .thin-line            {stroke: #0F0F0F; shape-rendering: crispEdges}
               .filled               {fill: #1F1F1F; stroke: none;}
               text.terminal         {font-family: Verdana, Sans-serif;
               font-size: 12px;
               fill: #0A0A0A;
               font-weight: bold;
               }
               text.nonterminal      {font-family: Verdana, Sans-serif; font-style: italic;
               font-size: 12px;
               fill: #0D0D0D;
               }
               text.regexp           {font-family: Verdana, Sans-serif;
               font-size: 12px;
               fill: #0F0F0F;
               }
               rect, circle, polygon {fill: #1F1F1F; stroke: #1F1F1F;}
               rect.terminal         {fill: #CCCCCC; stroke: #1F1F1F;}
               rect.nonterminal      {fill: #E3E3E3; stroke: #1F1F1F;}
               rect.text             {fill: none; stroke: none;}    
               polygon.regexp        {fill: #EFEFEF; stroke: #1F1F1F;}
               
            </style>
         </defs>
         <polygon points="9 17 1 13 1 21"/>
         <polygon points="17 17 9 13 9 21"/>
         <rect x="31" y="3" width="58" height="32" rx="10"/>
         <rect x="29" y="1" width="58" height="32" class="terminal" rx="10"/>
         <text class="terminal" x="39" y="21">open(</text>
         <rect x="149" y="35" width="52" height="32" rx="10"/>
         <rect x="147" y="33" width="52" height="32" class="terminal" rx="10"/>
         <text class="terminal" x="157" y="53">BOth</text>
         <rect x="149" y="79" width="56" height="32" rx="10"/>
         <rect x="147" y="77" width="56" height="32" class="terminal" rx="10"/>
         <text class="terminal" x="157" y="97">Write</text>
         <rect x="265" y="35" width="70" height="32" rx="10"/>
         <rect x="263" y="33" width="70" height="32" class="terminal" rx="10"/>
         <text class="terminal" x="273" y="53">APpend</text>
         <rect x="265" y="79" width="72" height="32" rx="10"/>
         <rect x="263" y="77" width="72" height="32" class="terminal" rx="10"/>
         <text class="terminal" x="273" y="97">REPlace</text>
         <rect x="129" y="123" width="54" height="32" rx="10"/>
         <rect x="127" y="121" width="54" height="32" class="terminal" rx="10"/>
         <text class="terminal" x="137" y="141">REAd</text>
         <polygon points="397 19 404 3 546 3 553 19 546 35 404 35"/>
         <polygon points="395 17 402 1 544 1 551 17 544 33 402 33" class="regexp"/>
<!--     <a xmlns:xlink="http://www.w3.org/1999/xlink" xlink:href="#OPTIONS" xlink:title="OPTIONS"> -->
            <rect class="text" x="410" y="10" width="56" height="14"/>
            <text class="regexp" x="410" y="21">OPTIONS</text>
<!--     </a> -->
         <text class="regexp" x="471" y="21">- </text>
<!--     <a xmlns:xlink="http://www.w3.org/1999/xlink" xlink:href="#fragment" xlink:title="fragment"> -->
            <rect class="text" x="480" y="10" width="56" height="14"/>
            <text class="regexp" x="480" y="21">fragment</text>
<!--     </a> -->
         <rect x="573" y="3" width="26" height="32" rx="10"/>
         <rect x="571" y="1" width="26" height="32" class="terminal" rx="10"/>
         <text class="terminal" x="581" y="21">)</text>
         <svg:path xmlns:svg="http://www.w3.org/2000/svg" class="line" d="m17 17 h2 m0 0 h10 m58 0 h10 m40 0 h10 m0 0 h66 m-96 0 h20 m76 0 h20 m-116 0 q10 0 10 10 m96 0 q0 -10 10 -10 m-106 10 v12 m96 0 v-12 m-96 12 q0 10 10 10 m76 0 q10 0 10 -10 m-86 10 h10 m52 0 h10 m0 0 h4 m-86 -10 v20 m96 0 v-20 m-96 20 v24 m96 0 v-24 m-96 24 q0 10 10 10 m76 0 q10 0 10 -10 m-86 10 h10 m56 0 h10 m40 -76 h10 m0 0 h82 m-112 0 h20 m92 0 h20 m-132 0 q10 0 10 10 m112 0 q0 -10 10 -10 m-122 10 v12 m112 0 v-12 m-112 12 q0 10 10 10 m92 0 q10 0 10 -10 m-102 10 h10 m70 0 h10 m0 0 h2 m-102 -10 v20 m112 0 v-20 m-112 20 v24 m112 0 v-24 m-112 24 q0 10 10 10 m92 0 q10 0 10 -10 m-102 10 h10 m72 0 h10 m-248 -76 h20 m248 0 h20 m-288 0 q10 0 10 10 m268 0 q0 -10 10 -10 m-278 10 v100 m268 0 v-100 m-268 100 q0 10 10 10 m248 0 q10 0 10 -10 m-258 10 h10 m54 0 h10 m0 0 h174 m20 -120 h10 m156 0 h10 m0 0 h10 m26 0 h10 m3 0 h-3"/>
         <polygon points="617 17 625 13 625 21"/>
         <polygon points="617 17 609 13 609 21"/>
      </svg>
