      <svg xmlns="http://www.w3.org/2000/svg" width="604" height="420">
         <defs>
            <style type="text/css">
               @namespace "http://www.w3.org/2000/svg";
               .line                 {fill: none; stroke: #1F1F1F;}
               .bold-line            {stroke: #0A0A0A; shape-rendering: crispEdges; stroke-width:
               2; }
               .thin-line            {stroke: #0F0F0F; shape-rendering: crispEdges}
               .filled               {fill: #1F1F1F; stroke: none;}
               text.terminal         {font-family: Verdana, Sans-serif;
               font-size: 12px;
               fill: #0A0A0A;
               font-weight: bold;
               }
               text.nonterminal      {font-family: Verdana, Sans-serif; font-style: italic;
               font-size: 12px;
               fill: #0D0D0D;
               }
               text.regexp           {font-family: Verdana, Sans-serif;
               font-size: 12px;
               fill: #0F0F0F;
               }
               rect, circle, polygon {fill: #1F1F1F; stroke: #1F1F1F;}
               rect.terminal         {fill: #CCCCCC; stroke: #1F1F1F;}
               rect.nonterminal      {fill: #E3E3E3; stroke: #1F1F1F;}
               rect.text             {fill: none; stroke: none;}    
               polygon.regexp        {fill: #EFEFEF; stroke: #1F1F1F;}
               
            </style>
         </defs>
         <polygon points="9 17 1 13 1 21"/>
         <polygon points="17 17 9 13 9 21"/>
         <rect x="31" y="3" width="64" height="32" rx="10"/>
         <rect x="29" y="1" width="64" height="32" class="terminal" rx="10"/>
         <text class="terminal" x="39" y="21">query(</text>
         <rect x="135" y="3" width="80" height="32" rx="10"/>
         <rect x="133" y="1" width="80" height="32" class="terminal" rx="10"/>
         <text class="terminal" x="143" y="21">Datetime</text>
         <rect x="135" y="47" width="58" height="32" rx="10"/>
         <rect x="133" y="45" width="58" height="32" class="terminal" rx="10"/>
         <text class="terminal" x="143" y="65">Exists</text>
         <rect x="135" y="91" width="64" height="32" rx="10"/>
         <rect x="133" y="89" width="64" height="32" class="terminal" rx="10"/>
         <text class="terminal" x="143" y="109">Handle</text>
         <rect x="155" y="135" width="52" height="32" rx="10"/>
         <rect x="153" y="133" width="52" height="32" class="terminal" rx="10"/>
         <text class="terminal" x="163" y="153">Seek</text>
         <rect x="155" y="179" width="72" height="32" rx="10"/>
         <rect x="153" y="177" width="72" height="32" class="terminal" rx="10"/>
         <text class="terminal" x="163" y="197">Position</text>
         <rect x="307" y="167" width="54" height="32" rx="10"/>
         <rect x="305" y="165" width="54" height="32" class="terminal" rx="10"/>
         <text class="terminal" x="315" y="185">Read</text>
         <rect x="307" y="211" width="54" height="32" rx="10"/>
         <rect x="305" y="209" width="54" height="32" class="terminal" rx="10"/>
         <text class="terminal" x="315" y="229">Write</text>
         <rect x="421" y="167" width="50" height="32" rx="10"/>
         <rect x="419" y="165" width="50" height="32" class="terminal" rx="10"/>
         <text class="terminal" x="429" y="185">Char</text>
         <rect x="421" y="211" width="46" height="32" rx="10"/>
         <rect x="419" y="209" width="46" height="32" class="terminal" rx="10"/>
         <text class="terminal" x="429" y="229">Line</text>
         <rect x="287" y="255" width="44" height="32" rx="10"/>
         <rect x="285" y="253" width="44" height="32" class="terminal" rx="10"/>
         <text class="terminal" x="295" y="273">Sys</text>
         <rect x="135" y="299" width="50" height="32" rx="10"/>
         <rect x="133" y="297" width="50" height="32" class="terminal" rx="10"/>
         <text class="terminal" x="143" y="317">SIze</text>
         <rect x="135" y="343" width="100" height="32" rx="10"/>
         <rect x="133" y="341" width="100" height="32" class="terminal" rx="10"/>
         <text class="terminal" x="143" y="361">STreamtype</text>
         <rect x="135" y="387" width="94" height="32" rx="10"/>
         <rect x="133" y="385" width="94" height="32" class="terminal" rx="10"/>
         <text class="terminal" x="143" y="405">Timestamp</text>
         <rect x="551" y="3" width="26" height="32" rx="10"/>
         <rect x="549" y="1" width="26" height="32" class="terminal" rx="10"/>
         <text class="terminal" x="559" y="21">)</text>
         <svg:path xmlns:svg="http://www.w3.org/2000/svg" class="line" d="m17 17 h2 m0 0 h10 m64 0 h10 m20 0 h10 m80 0 h10 m0 0 h296 m-416 0 h20 m396 0 h20 m-436 0 q10 0 10 10 m416 0 q0 -10 10 -10 m-426 10 v24 m416 0 v-24 m-416 24 q0 10 10 10 m396 0 q10 0 10 -10 m-406 10 h10 m58 0 h10 m0 0 h318 m-406 -10 v20 m416 0 v-20 m-416 20 v24 m416 0 v-24 m-416 24 q0 10 10 10 m396 0 q10 0 10 -10 m-406 10 h10 m64 0 h10 m0 0 h312 m-406 -10 v20 m416 0 v-20 m-416 20 v24 m416 0 v-24 m-416 24 q0 10 10 10 m396 0 q10 0 10 -10 m-386 10 h10 m52 0 h10 m0 0 h20 m-112 0 h20 m92 0 h20 m-132 0 q10 0 10 10 m112 0 q0 -10 10 -10 m-122 10 v24 m112 0 v-24 m-112 24 q0 10 10 10 m92 0 q10 0 10 -10 m-102 10 h10 m72 0 h10 m60 -44 h10 m0 0 h64 m-94 0 h20 m74 0 h20 m-114 0 q10 0 10 10 m94 0 q0 -10 10 -10 m-104 10 v12 m94 0 v-12 m-94 12 q0 10 10 10 m74 0 q10 0 10 -10 m-84 10 h10 m54 0 h10 m-84 -10 v20 m94 0 v-20 m-94 20 v24 m94 0 v-24 m-94 24 q0 10 10 10 m74 0 q10 0 10 -10 m-84 10 h10 m54 0 h10 m40 -76 h10 m0 0 h60 m-90 0 h20 m70 0 h20 m-110 0 q10 0 10 10 m90 0 q0 -10 10 -10 m-100 10 v12 m90 0 v-12 m-90 12 q0 10 10 10 m70 0 q10 0 10 -10 m-80 10 h10 m50 0 h10 m-80 -10 v20 m90 0 v-20 m-90 20 v24 m90 0 v-24 m-90 24 q0 10 10 10 m70 0 q10 0 10 -10 m-80 10 h10 m46 0 h10 m0 0 h4 m-224 -76 h20 m224 0 h20 m-264 0 q10 0 10 10 m244 0 q0 -10 10 -10 m-254 10 v100 m244 0 v-100 m-244 100 q0 10 10 10 m224 0 q10 0 10 -10 m-234 10 h10 m44 0 h10 m0 0 h160 m-386 -130 v20 m416 0 v-20 m-416 20 v144 m416 0 v-144 m-416 144 q0 10 10 10 m396 0 q10 0 10 -10 m-406 10 h10 m50 0 h10 m0 0 h326 m-406 -10 v20 m416 0 v-20 m-416 20 v24 m416 0 v-24 m-416 24 q0 10 10 10 m396 0 q10 0 10 -10 m-406 10 h10 m100 0 h10 m0 0 h276 m-406 -10 v20 m416 0 v-20 m-416 20 v24 m416 0 v-24 m-416 24 q0 10 10 10 m396 0 q10 0 10 -10 m-406 10 h10 m94 0 h10 m0 0 h282 m20 -384 h10 m26 0 h10 m3 0 h-3"/>
         <polygon points="595 17 603 13 603 21"/>
         <polygon points="595 17 587 13 587 21"/>
      </svg>
