<svg xmlns="http://www.w3.org/2000/svg" width="633" height="157">
         <defs>
            <style type="text/css">
    @namespace "http://www.w3.org/2000/svg";
    .line                 {fill: none; stroke: #1F1F1F;}
    .bold-line            {stroke: #0A0A0A; shape-rendering: crispEdges; stroke-width: 2; }
    .thin-line            {stroke: #0F0F0F; shape-rendering: crispEdges}
    .filled               {fill: #1F1F1F; stroke: none;}
    text.terminal         {font-family: Verdana, Sans-serif;
                            font-size: 12px;
                            fill: #0A0A0A;
                            font-weight: bold;
                          }
    text.nonterminal      {font-family: Verdana, Sans-serif; font-style: italic;
                            font-size: 12px;
                            fill: #0D0D0D;
                            font-weight: normal;
                          }
    text.regexp           {font-family: Verdana, Sans-serif;
                            font-size: 12px;
                            fill: #0F0F0F;
                            font-weight: normal;
                          }
    rect, circle, polygon {fill: #1F1F1F; stroke: #1F1F1F;}
    rect.terminal         {fill: #CCCCCC; stroke: #1F1F1F;}
    rect.nonterminal      {fill: #E3E3E3; stroke: #1F1F1F;}
    rect.text             {fill: none; stroke: none;}    
    polygon.regexp        {fill: #EFEFEF; stroke: #1F1F1F;}
  </style>
         </defs>
         <polygon points="9 17 1 13 1 21"/>
         <polygon points="17 17 9 13 9 21"/>
         <rect x="31" y="3" width="60" height="32" rx="10"/>
         <rect x="29" y="1" width="60" height="32" class="terminal" rx="10"/>
         <text class="terminal" x="39" y="21">open(</text>
         <rect x="151" y="35" width="54" height="32" rx="10"/>
         <rect x="149" y="33" width="54" height="32" class="terminal" rx="10"/>
         <text class="terminal" x="159" y="53">BOth</text>
         <rect x="151" y="79" width="58" height="32" rx="10"/>
         <rect x="149" y="77" width="58" height="32" class="terminal" rx="10"/>
         <text class="terminal" x="159" y="97">Write</text>
         <rect x="269" y="35" width="72" height="32" rx="10"/>
         <rect x="267" y="33" width="72" height="32" class="terminal" rx="10"/>
         <text class="terminal" x="277" y="53">APpend</text>
         <rect x="269" y="79" width="74" height="32" rx="10"/>
         <rect x="267" y="77" width="74" height="32" class="terminal" rx="10"/>
         <text class="terminal" x="277" y="97">REPlace</text>
         <rect x="131" y="123" width="54" height="32" rx="10"/>
         <rect x="129" y="121" width="54" height="32" class="terminal" rx="10"/>
         <text class="terminal" x="139" y="141">REAd</text>
         <polygon points="403 19 410 3 552 3 559 19 552 35 410 35"/>
         <polygon points="401 17 408 1 550 1 557 17 550 33 408 33" class="regexp"/>
<!--  <a xmlns:xlink="http://www.w3.org/1999/xlink" xlink:href="#OPTIONS" xlink:title="OPTIONS"> -->
            <rect class="text" x="416" y="10" width="55" height="14"/>
            <text class="regexp" x="416" y="21">OPTIONS</text><!-- </a> -->
<text class="regexp" x="476" y="21">- </text>
<!--  <a xmlns:xlink="http://www.w3.org/1999/xlink" xlink:href="#fragment" xlink:title="fragment"> -->
            <rect class="text" x="485" y="10" width="57" height="14"/>
            <text class="regexp" x="485" y="21">fragment</text><!-- </a> -->
<rect x="579" y="3" width="26" height="32" rx="10"/>
         <rect x="577" y="1" width="26" height="32" class="terminal" rx="10"/>
         <text class="terminal" x="587" y="21">)</text>
         <svg:path xmlns:svg="http://www.w3.org/2000/svg" class="line" d="m17 17 h2 m0 0 h10 m60 0 h10 m40 0 h10 m0 0 h68 m-98 0 h20 m78 0 h20 m-118 0 q10 0 10 10 m98 0 q0 -10 10 -10 m-108 10 v12 m98 0 v-12 m-98 12 q0 10 10 10 m78 0 q10 0 10 -10 m-88 10 h10 m54 0 h10 m0 0 h4 m-88 -10 v20 m98 0 v-20 m-98 20 v24 m98 0 v-24 m-98 24 q0 10 10 10 m78 0 q10 0 10 -10 m-88 10 h10 m58 0 h10 m40 -76 h10 m0 0 h84 m-114 0 h20 m94 0 h20 m-134 0 q10 0 10 10 m114 0 q0 -10 10 -10 m-124 10 v12 m114 0 v-12 m-114 12 q0 10 10 10 m94 0 q10 0 10 -10 m-104 10 h10 m72 0 h10 m0 0 h2 m-104 -10 v20 m114 0 v-20 m-114 20 v24 m114 0 v-24 m-114 24 q0 10 10 10 m94 0 q10 0 10 -10 m-104 10 h10 m74 0 h10 m-252 -76 h20 m252 0 h20 m-292 0 q10 0 10 10 m272 0 q0 -10 10 -10 m-282 10 v100 m272 0 v-100 m-272 100 q0 10 10 10 m252 0 q10 0 10 -10 m-262 10 h10 m54 0 h10 m0 0 h178 m20 -120 h10 m156 0 h10 m0 0 h10 m26 0 h10 m3 0 h-3"/>
         <polygon points="623 17 631 13 631 21"/>
         <polygon points="623 17 615 13 615 21"/></svg>
