      <svg xmlns="http://www.w3.org/2000/svg" width="954" height="238">
         <defs>
            <style type="text/css">
               @namespace "http://www.w3.org/2000/svg";
               .line                 {fill: none; stroke: #1F1F1F;}
               .bold-line            {stroke: #0A0A0A; shape-rendering: crispEdges; stroke-width:
               2; }
               .thin-line            {stroke: #0F0F0F; shape-rendering: crispEdges}
               .filled               {fill: #1F1F1F; stroke: none;}
               text.terminal         {font-family: Verdana, Sans-serif;
               font-size: 12px;
               fill: #0A0A0A;
               font-weight: bold;
               }
               text.nonterminal      {font-family: Verdana, Sans-serif; font-style: italic;
               font-size: 12px;
               fill: #0D0D0D;
               }
               text.regexp           {font-family: Verdana, Sans-serif;
               font-size: 12px;
               fill: #0F0F0F;
               }
               rect, circle, polygon {fill: #1F1F1F; stroke: #1F1F1F;}
               rect.terminal         {fill: #CCCCCC; stroke: #1F1F1F;}
               rect.nonterminal      {fill: #E3E3E3; stroke: #1F1F1F;}
               rect.text             {fill: none; stroke: none;}    
               polygon.regexp        {fill: #EFEFEF; stroke: #1F1F1F;}
               
            </style>
         </defs>
         <polygon points="11 17 3 13 3 21"/>
         <polygon points="19 17 11 13 11 21"/>
         <rect x="33" y="3" width="52" height="32" rx="10"/>
         <rect x="31" y="1" width="52" height="32" class="terminal" rx="10"/>
         <text class="terminal" x="41" y="21">open</text>
         <rect x="45" y="85" width="26" height="32" rx="10"/>
         <rect x="43" y="83" width="26" height="32" class="terminal" rx="10"/>
         <text class="terminal" x="53" y="103">(</text>
         <rect x="111" y="85" width="50" height="32" rx="10"/>
         <rect x="109" y="83" width="50" height="32" class="terminal" rx="10"/>
         <text class="terminal" x="119" y="103">Both</text>
<!--     <a xmlns:xlink="http://www.w3.org/1999/xlink" xlink:href="#write_options" xlink:title="write_options"> -->
            <rect x="181" y="85" width="106" height="32"/>
            <rect x="179" y="83" width="106" height="32" class="nonterminal"/>
            <text class="nonterminal" x="189" y="103">write_options</text>
<!--     </a> -->
         <rect x="111" y="129" width="52" height="32" rx="10"/>
         <rect x="109" y="127" width="52" height="32" class="terminal" rx="10"/>
         <text class="terminal" x="119" y="147">Read</text>
         <rect x="111" y="173" width="56" height="32" rx="10"/>
         <rect x="109" y="171" width="56" height="32" class="terminal" rx="10"/>
         <text class="terminal" x="119" y="191">Wtite</text>
<!--     <a xmlns:xlink="http://www.w3.org/1999/xlink" xlink:href="#write_options" xlink:title="write_options"> -->
            <rect x="187" y="173" width="106" height="32"/>
            <rect x="185" y="171" width="106" height="32" class="nonterminal"/>
            <text class="nonterminal" x="195" y="191">write_options</text>
<!--     </a> -->
         <rect x="353" y="85" width="66" height="32" rx="10"/>
         <rect x="351" y="83" width="66" height="32" class="terminal" rx="10"/>
         <text class="terminal" x="361" y="103">Shared</text>
         <rect x="353" y="129" width="96" height="32" rx="10"/>
         <rect x="351" y="127" width="96" height="32" class="terminal" rx="10"/>
         <text class="terminal" x="361" y="147">Sharedread</text>
         <rect x="353" y="173" width="102" height="32" rx="10"/>
         <rect x="351" y="171" width="102" height="32" class="terminal" rx="10"/>
         <text class="terminal" x="361" y="191">Sharedwrite</text>
         <rect x="535" y="85" width="78" height="32" rx="10"/>
         <rect x="533" y="83" width="78" height="32" class="terminal" rx="10"/>
         <text class="terminal" x="543" y="103">Nobuffer</text>
         <rect x="535" y="129" width="62" height="32" rx="10"/>
         <rect x="533" y="127" width="62" height="32" class="terminal" rx="10"/>
         <text class="terminal" x="543" y="147">Binary</text>
         <rect x="637" y="129" width="84" height="32" rx="10"/>
         <rect x="635" y="127" width="84" height="32" class="terminal" rx="10"/>
         <text class="terminal" x="645" y="147">Reclength</text>
<!--     <a xmlns:xlink="http://www.w3.org/1999/xlink" xlink:href="#length" xlink:title="length"> -->
            <rect x="741" y="129" width="60" height="32"/>
            <rect x="739" y="127" width="60" height="32" class="nonterminal"/>
            <text class="nonterminal" x="749" y="147">length</text>
<!--     </a> -->
         <rect x="881" y="85" width="26" height="32" rx="10"/>
         <rect x="879" y="83" width="26" height="32" class="terminal" rx="10"/>
         <text class="terminal" x="889" y="103">)</text>
         <svg:path xmlns:svg="http://www.w3.org/2000/svg" class="line" d="m19 17 h2 m0 0 h10 m52 0 h10 m2 0 l2 0 m2 0 l2 0 m2 0 l2 0 m-104 82 l2 0 m2 0 l2 0 m2 0 l2 0 m22 0 h10 m26 0 h10 m20 0 h10 m50 0 h10 m0 0 h10 m106 0 h10 m0 0 h6 m-222 0 h20 m202 0 h20 m-242 0 q10 0 10 10 m222 0 q0 -10 10 -10 m-232 10 v24 m222 0 v-24 m-222 24 q0 10 10 10 m202 0 q10 0 10 -10 m-212 10 h10 m52 0 h10 m0 0 h130 m-212 -10 v20 m222 0 v-20 m-222 20 v24 m222 0 v-24 m-222 24 q0 10 10 10 m202 0 q10 0 10 -10 m-212 10 h10 m56 0 h10 m0 0 h10 m106 0 h10 m-212 -10 v20 m222 0 v-20 m-222 20 v14 m222 0 v-14 m-222 14 q0 10 10 10 m202 0 q10 0 10 -10 m-212 10 h10 m0 0 h192 m40 -122 h10 m66 0 h10 m0 0 h36 m-142 0 h20 m122 0 h20 m-162 0 q10 0 10 10 m142 0 q0 -10 10 -10 m-152 10 v24 m142 0 v-24 m-142 24 q0 10 10 10 m122 0 q10 0 10 -10 m-132 10 h10 m96 0 h10 m0 0 h6 m-132 -10 v20 m142 0 v-20 m-142 20 v24 m142 0 v-24 m-142 24 q0 10 10 10 m122 0 q10 0 10 -10 m-132 10 h10 m102 0 h10 m-132 -10 v20 m142 0 v-20 m-142 20 v14 m142 0 v-14 m-142 14 q0 10 10 10 m122 0 q10 0 10 -10 m-132 10 h10 m0 0 h112 m60 -122 h10 m78 0 h10 m0 0 h208 m-326 0 h20 m306 0 h20 m-346 0 q10 0 10 10 m326 0 q0 -10 10 -10 m-336 10 v24 m326 0 v-24 m-326 24 q0 10 10 10 m306 0 q10 0 10 -10 m-316 10 h10 m62 0 h10 m20 0 h10 m84 0 h10 m0 0 h10 m60 0 h10 m-204 0 h20 m184 0 h20 m-224 0 q10 0 10 10 m204 0 q0 -10 10 -10 m-214 10 v14 m204 0 v-14 m-204 14 q0 10 10 10 m184 0 q10 0 10 -10 m-194 10 h10 m0 0 h174 m-296 -44 v20 m326 0 v-20 m-326 20 v30 m326 0 v-30 m-326 30 q0 10 10 10 m306 0 q10 0 10 -10 m-316 10 h10 m0 0 h296 m-346 -94 l20 0 m-1 0 q-9 0 -9 -10 l0 -12 q0 -10 10 -10 m346 32 l20 0 m-20 0 q10 0 10 -10 l0 -12 q0 -10 -10 -10 m-346 0 h10 m0 0 h336 m20 32 h10 m26 0 h10 m-902 0 h20 m882 0 h20 m-922 0 q10 0 10 10 m902 0 q0 -10 10 -10 m-912 10 v118 m902 0 v-118 m-902 118 q0 10 10 10 m882 0 q10 0 10 -10 m-892 10 h10 m0 0 h872 m23 -138 h-3"/>
         <polygon points="945 99 953 95 953 103"/>
         <polygon points="945 99 937 95 937 103"/>
      </svg>
