      <svg xmlns="http://www.w3.org/2000/svg" width="532" height="84">
         <defs>
            <style type="text/css">
               @namespace "http://www.w3.org/2000/svg";
               .line                 {fill: none; stroke: #1F1F1F;}
               .bold-line            {stroke: #0A0A0A; shape-rendering: crispEdges; stroke-width:
               2; }
               .thin-line            {stroke: #0F0F0F; shape-rendering: crispEdges}
               .filled               {fill: #1F1F1F; stroke: none;}
               text.terminal         {font-family: Verdana, Sans-serif;
               font-size: 12px;
               fill: #0A0A0A;
               font-weight: bold;
               }
               text.nonterminal      {font-family: Verdana, Sans-serif; font-style: italic;
               font-size: 12px;
               fill: #0D0D0D;
               }
               text.regexp           {font-family: Verdana, Sans-serif;
               font-size: 12px;
               fill: #0F0F0F;
               }
               rect, circle, polygon {fill: #1F1F1F; stroke: #1F1F1F;}
               rect.terminal         {fill: #CCCCCC; stroke: #1F1F1F;}
               rect.nonterminal      {fill: #E3E3E3; stroke: #1F1F1F;}
               rect.text             {fill: none; stroke: none;}    
               polygon.regexp        {fill: #EFEFEF; stroke: #1F1F1F;}
               
            </style>
         </defs>
         <polygon points="9 17 1 13 1 21"/>
         <polygon points="17 17 9 13 9 21"/>
         <rect x="31" y="3" width="72" height="32" rx="10"/>
         <rect x="29" y="1" width="72" height="32" class="terminal" rx="10"/>
         <text class="terminal" x="39" y="21">charOut</text>
         <rect x="143" y="3" width="26" height="32" rx="10"/>
         <rect x="141" y="1" width="26" height="32" class="terminal" rx="10"/>
         <text class="terminal" x="151" y="21">(</text>
<!--     <a xmlns:xlink="http://www.w3.org/1999/xlink" xlink:href="#string" xlink:title="string"> -->
            <rect x="209" y="3" width="56" height="32"/>
            <rect x="207" y="1" width="56" height="32" class="nonterminal"/>
            <text class="nonterminal" x="217" y="21">string</text>
<!--     </a> -->
         <rect x="305" y="3" width="24" height="32" rx="10"/>
         <rect x="303" y="1" width="24" height="32" class="terminal" rx="10"/>
         <text class="terminal" x="313" y="21">,</text>
<!--     <a xmlns:xlink="http://www.w3.org/1999/xlink" xlink:href="#start" xlink:title="start"> -->
            <rect x="349" y="3" width="50" height="32"/>
            <rect x="347" y="1" width="50" height="32" class="nonterminal"/>
            <text class="nonterminal" x="357" y="21">start</text>
<!--     </a> -->
         <rect x="459" y="3" width="26" height="32" rx="10"/>
         <rect x="457" y="1" width="26" height="32" class="terminal" rx="10"/>
         <text class="terminal" x="467" y="21">)</text>
         <svg:path xmlns:svg="http://www.w3.org/2000/svg" class="line" d="m17 17 h2 m0 0 h10 m72 0 h10 m20 0 h10 m26 0 h10 m20 0 h10 m56 0 h10 m20 0 h10 m24 0 h10 m0 0 h10 m50 0 h10 m-134 0 h20 m114 0 h20 m-154 0 q10 0 10 10 m134 0 q0 -10 10 -10 m-144 10 v14 m134 0 v-14 m-134 14 q0 10 10 10 m114 0 q10 0 10 -10 m-124 10 h10 m0 0 h104 m-230 -34 h20 m230 0 h20 m-270 0 q10 0 10 10 m250 0 q0 -10 10 -10 m-260 10 v30 m250 0 v-30 m-250 30 q0 10 10 10 m230 0 q10 0 10 -10 m-240 10 h10 m0 0 h220 m20 -50 h10 m26 0 h10 m-382 0 h20 m362 0 h20 m-402 0 q10 0 10 10 m382 0 q0 -10 10 -10 m-392 10 v46 m382 0 v-46 m-382 46 q0 10 10 10 m362 0 q10 0 10 -10 m-372 10 h10 m0 0 h352 m23 -66 h-3"/>
         <polygon points="523 17 531 13 531 21"/>
         <polygon points="523 17 515 13 515 21"/>
      </svg>
