      <svg xmlns="http://www.w3.org/2000/svg" width="378" height="96">
         <defs>
            <style type="text/css">
               @namespace "http://www.w3.org/2000/svg";
               .line                 {fill: none; stroke: #1F1F1F;}
               .bold-line            {stroke: #0A0A0A; shape-rendering: crispEdges; stroke-width:
               2; }
               .thin-line            {stroke: #0F0F0F; shape-rendering: crispEdges}
               .filled               {fill: #1F1F1F; stroke: none;}
               text.terminal         {font-family: Verdana, Sans-serif;
               font-size: 12px;
               fill: #0A0A0A;
               font-weight: bold;
               }
               text.nonterminal      {font-family: Verdana, Sans-serif; font-style: italic;
               font-size: 12px;
               fill: #0D0D0D;
               }
               text.regexp           {font-family: Verdana, Sans-serif;
               font-size: 12px;
               fill: #0F0F0F;
               }
               rect, circle, polygon {fill: #1F1F1F; stroke: #1F1F1F;}
               rect.terminal         {fill: #CCCCCC; stroke: #1F1F1F;}
               rect.nonterminal      {fill: #E3E3E3; stroke: #1F1F1F;}
               rect.text             {fill: none; stroke: none;}    
               polygon.regexp        {fill: #EFEFEF; stroke: #1F1F1F;}
               
            </style>
         </defs>
         <polygon points="9 17 1 13 1 21"/>
         <polygon points="17 17 9 13 9 21"/>
         <rect x="31" y="3" width="70" height="32" rx="10"/>
         <rect x="29" y="1" width="70" height="32" class="terminal" rx="10"/>
         <text class="terminal" x="39" y="21">arrayIn</text>
         <rect x="141" y="3" width="26" height="32" rx="10"/>
         <rect x="139" y="1" width="26" height="32" class="terminal" rx="10"/>
         <text class="terminal" x="149" y="21">(</text>
         <rect x="207" y="3" width="54" height="32" rx="10"/>
         <rect x="205" y="1" width="54" height="32" class="terminal" rx="10"/>
         <text class="terminal" x="215" y="21">Lines</text>
         <rect x="207" y="47" width="58" height="32" rx="10"/>
         <rect x="205" y="45" width="58" height="32" class="terminal" rx="10"/>
         <text class="terminal" x="215" y="65">Chars</text>
         <rect x="305" y="3" width="26" height="32" rx="10"/>
         <rect x="303" y="1" width="26" height="32" class="terminal" rx="10"/>
         <text class="terminal" x="313" y="21">)</text>
         <svg:path xmlns:svg="http://www.w3.org/2000/svg" class="line" d="m17 17 h2 m0 0 h10 m70 0 h10 m20 0 h10 m26 0 h10 m20 0 h10 m54 0 h10 m0 0 h4 m-98 0 h20 m78 0 h20 m-118 0 q10 0 10 10 m98 0 q0 -10 10 -10 m-108 10 v24 m98 0 v-24 m-98 24 q0 10 10 10 m78 0 q10 0 10 -10 m-88 10 h10 m58 0 h10 m20 -44 h10 m26 0 h10 m-230 0 h20 m210 0 h20 m-250 0 q10 0 10 10 m230 0 q0 -10 10 -10 m-240 10 v58 m230 0 v-58 m-230 58 q0 10 10 10 m210 0 q10 0 10 -10 m-220 10 h10 m0 0 h200 m23 -78 h-3"/>
         <polygon points="369 17 377 13 377 21"/>
         <polygon points="369 17 361 13 361 21"/>
      </svg>
