      <svg xmlns="http://www.w3.org/2000/svg" width="508" height="84">
         <defs>
            <style type="text/css">
               @namespace "http://www.w3.org/2000/svg";
               .line                 {fill: none; stroke: #1F1F1F;}
               .bold-line            {stroke: #0A0A0A; shape-rendering: crispEdges; stroke-width:
               2; }
               .thin-line            {stroke: #0F0F0F; shape-rendering: crispEdges}
               .filled               {fill: #1F1F1F; stroke: none;}
               text.terminal         {font-family: Verdana, Sans-serif;
               font-size: 12px;
               fill: #0A0A0A;
               font-weight: bold;
               }
               text.nonterminal      {font-family: Verdana, Sans-serif;
               font-size: 12px;
               fill: #0D0D0D;
               }
               text.regexp           {font-family: Verdana, Sans-serif;
               font-size: 12px;
               fill: #0F0F0F;
               }
               rect, circle, polygon {fill: #1F1F1F; stroke: #1F1F1F;}
               rect.terminal         {fill: #CCCCCC; stroke: #1F1F1F;}
               rect.nonterminal      {fill: #E3E3E3; stroke: #1F1F1F;}
               rect.text             {fill: none; stroke: none;}    
               polygon.regexp        {fill: #EFEFEF; stroke: #1F1F1F;}
               
            </style>
         </defs>
         <polygon points="9 17 1 13 1 21"/>
         <polygon points="17 17 9 13 9 21"/>
         <rect x="31" y="3" width="58" height="32" rx="10"/>
         <rect x="29" y="1" width="58" height="32" class="terminal" rx="10"/>
         <text class="terminal" x="39" y="21">lineIn</text>
         <rect x="129" y="3" width="26" height="32" rx="10"/>
         <rect x="127" y="1" width="26" height="32" class="terminal" rx="10"/>
         <text class="terminal" x="137" y="21">(</text>
         <a xmlns:xlink="http://www.w3.org/1999/xlink" xlink:href="#line" xlink:title="line">
            <rect x="195" y="3" width="42" height="32"/>
            <rect x="193" y="1" width="42" height="32" class="nonterminal"/>
            <text class="nonterminal" x="203" y="21">line</text>
         </a>
         <rect x="277" y="3" width="24" height="32" rx="10"/>
         <rect x="275" y="1" width="24" height="32" class="terminal" rx="10"/>
         <text class="terminal" x="285" y="21">,</text>
         <a xmlns:xlink="http://www.w3.org/1999/xlink" xlink:href="#count" xlink:title="count">
            <rect x="321" y="3" width="54" height="32"/>
            <rect x="319" y="1" width="54" height="32" class="nonterminal"/>
            <text class="nonterminal" x="329" y="21">count</text>
         </a>
         <rect x="435" y="3" width="26" height="32" rx="10"/>
         <rect x="433" y="1" width="26" height="32" class="terminal" rx="10"/>
         <text class="terminal" x="443" y="21">)</text>
         <svg:path xmlns:svg="http://www.w3.org/2000/svg" class="line" d="m17 17 h2 m0 0 h10 m58 0 h10 m20 0 h10 m26 0 h10 m20 0 h10 m42 0 h10 m20 0 h10 m24 0 h10 m0 0 h10 m54 0 h10 m-138 0 h20 m118 0 h20 m-158 0 q10 0 10 10 m138 0 q0 -10 10 -10 m-148 10 v14 m138 0 v-14 m-138 14 q0 10 10 10 m118 0 q10 0 10 -10 m-128 10 h10 m0 0 h108 m-220 -34 h20 m220 0 h20 m-260 0 q10 0 10 10 m240 0 q0 -10 10 -10 m-250 10 v30 m240 0 v-30 m-240 30 q0 10 10 10 m220 0 q10 0 10 -10 m-230 10 h10 m0 0 h210 m20 -50 h10 m26 0 h10 m-372 0 h20 m352 0 h20 m-392 0 q10 0 10 10 m372 0 q0 -10 10 -10 m-382 10 v46 m372 0 v-46 m-372 46 q0 10 10 10 m352 0 q10 0 10 -10 m-362 10 h10 m0 0 h342 m23 -66 h-3"/>
         <polygon points="499 17 507 13 507 21"/>
         <polygon points="499 17 491 13 491 21"/>
      </svg>
