      <svg xmlns="http://www.w3.org/2000/svg" width="400" height="112">
         <defs>
            <style type="text/css">
               @namespace "http://www.w3.org/2000/svg";
               .line                 {fill: none; stroke: #1F1F1F;}
               .bold-line            {stroke: #0A0A0A; shape-rendering: crispEdges; stroke-width:
               2; }
               .thin-line            {stroke: #0F0F0F; shape-rendering: crispEdges}
               .filled               {fill: #1F1F1F; stroke: none;}
               text.terminal         {font-family: Verdana, Sans-serif;
               font-size: 12px;
               fill: #0A0A0A;
               font-weight: bold;
               }
               text.nonterminal      {font-family: Verdana, Sans-serif; font-style: italic;
               font-size: 12px;
               fill: #0D0D0D;
               }
               text.regexp           {font-family: Verdana, Sans-serif;
               font-size: 12px;
               fill: #0F0F0F;
               }
               rect, circle, polygon {fill: #1F1F1F; stroke: #1F1F1F;}
               rect.terminal         {fill: #CCCCCC; stroke: #1F1F1F;}
               rect.nonterminal      {fill: #E3E3E3; stroke: #1F1F1F;}
               rect.text             {fill: none; stroke: none;}    
               polygon.regexp        {fill: #EFEFEF; stroke: #1F1F1F;}
               
            </style>
         </defs>
         <polygon points="9 17 1 13 1 21"/>
         <polygon points="17 17 9 13 9 21"/>
         <rect x="31" y="3" width="92" height="32" rx="10"/>
         <rect x="29" y="1" width="92" height="32" class="terminal" rx="10"/>
         <text class="terminal" x="39" y="21">makeArray</text>
         <rect x="163" y="3" width="26" height="32" rx="10"/>
         <rect x="161" y="1" width="26" height="32" class="terminal" rx="10"/>
         <text class="terminal" x="171" y="21">(</text>
         <rect x="229" y="3" width="54" height="32" rx="10"/>
         <rect x="227" y="1" width="54" height="32" class="terminal" rx="10"/>
         <text class="terminal" x="237" y="21">Lines</text>
         <rect x="229" y="47" width="58" height="32" rx="10"/>
         <rect x="227" y="45" width="58" height="32" class="terminal" rx="10"/>
         <text class="terminal" x="237" y="65">Charc</text>
         <rect x="327" y="3" width="26" height="32" rx="10"/>
         <rect x="325" y="1" width="26" height="32" class="terminal" rx="10"/>
         <text class="terminal" x="335" y="21">)</text>
         <svg:path xmlns:svg="http://www.w3.org/2000/svg" class="line" d="m17 17 h2 m0 0 h10 m92 0 h10 m20 0 h10 m26 0 h10 m20 0 h10 m54 0 h10 m0 0 h4 m-98 0 h20 m78 0 h20 m-118 0 q10 0 10 10 m98 0 q0 -10 10 -10 m-108 10 v24 m98 0 v-24 m-98 24 q0 10 10 10 m78 0 q10 0 10 -10 m-88 10 h10 m58 0 h10 m-88 -10 v20 m98 0 v-20 m-98 20 v14 m98 0 v-14 m-98 14 q0 10 10 10 m78 0 q10 0 10 -10 m-88 10 h10 m0 0 h68 m20 -78 h10 m26 0 h10 m-230 0 h20 m210 0 h20 m-250 0 q10 0 10 10 m230 0 q0 -10 10 -10 m-240 10 v74 m230 0 v-74 m-230 74 q0 10 10 10 m210 0 q10 0 10 -10 m-220 10 h10 m0 0 h200 m23 -94 h-3"/>
         <polygon points="391 17 399 13 399 21"/>
         <polygon points="391 17 383 13 383 21"/>
      </svg>
