<svg xmlns="http://www.w3.org/2000/svg" width="481" height="113">
         <defs>
            <style type="text/css">
    @namespace "http://www.w3.org/2000/svg";
    .line                 {fill: none; stroke: #1F1F1F;}
    .bold-line            {stroke: #0A0A0A; shape-rendering: crispEdges; stroke-width: 2; }
    .thin-line            {stroke: #0F0F0F; shape-rendering: crispEdges}
    .filled               {fill: #1F1F1F; stroke: none;}
    text.terminal         {font-family: Verdana, Sans-serif;
                            font-size: 12px;
                            fill: #0A0A0A;
                            font-weight: bold;
                          }
    text.nonterminal      {font-family: Verdana, Sans-serif; font-style: italic;
                            font-size: 12px;
                            fill: #0D0D0D;
                            font-weight: normal;
                          }
    text.regexp           {font-family: Verdana, Sans-serif;
                            font-size: 12px;
                            fill: #0F0F0F;
                            font-weight: normal;
                          }
    rect, circle, polygon {fill: #1F1F1F; stroke: #1F1F1F;}
    rect.terminal         {fill: #CCCCCC; stroke: #1F1F1F;}
    rect.nonterminal      {fill: #E3E3E3; stroke: #1F1F1F;}
    rect.text             {fill: none; stroke: none;}    
    polygon.regexp        {fill: #EFEFEF; stroke: #1F1F1F;}
  </style>
         </defs>
         <polygon points="9 17 1 13 1 21"/>
         <polygon points="17 17 9 13 9 21"/>
         <rect x="31" y="3" width="88" height="32" rx="10"/>
         <rect x="29" y="1" width="88" height="32" class="terminal" rx="10"/>
         <text class="terminal" x="39" y="21">arrayOut(</text>
<!--  <a xmlns:xlink="http://www.w3.org/1999/xlink" xlink:href="#array" xlink:title="array"> -->
            <rect x="139" y="3" width="52" height="32"/>
            <rect x="137" y="1" width="52" height="32" class="nonterminal"/>
            <text class="nonterminal" x="147" y="21">array</text><!-- </a> -->
<rect x="231" y="35" width="24" height="32" rx="10"/>
         <rect x="229" y="33" width="24" height="32" class="terminal" rx="10"/>
         <text class="terminal" x="239" y="53">,</text>
         <rect x="295" y="35" width="70" height="32" rx="10"/>
         <rect x="293" y="33" width="70" height="32" class="terminal" rx="10"/>
         <text class="terminal" x="303" y="53">"Lines"</text>
         <rect x="295" y="79" width="72" height="32" rx="10"/>
         <rect x="293" y="77" width="72" height="32" class="terminal" rx="10"/>
         <text class="terminal" x="303" y="97">"Chars"</text>
         <rect x="427" y="3" width="26" height="32" rx="10"/>
         <rect x="425" y="1" width="26" height="32" class="terminal" rx="10"/>
         <text class="terminal" x="435" y="21">)</text>
         <svg:path xmlns:svg="http://www.w3.org/2000/svg" class="line" d="m17 17 h2 m0 0 h10 m88 0 h10 m0 0 h10 m52 0 h10 m20 0 h10 m0 0 h166 m-196 0 h20 m176 0 h20 m-216 0 q10 0 10 10 m196 0 q0 -10 10 -10 m-206 10 v12 m196 0 v-12 m-196 12 q0 10 10 10 m176 0 q10 0 10 -10 m-186 10 h10 m24 0 h10 m20 0 h10 m70 0 h10 m0 0 h2 m-112 0 h20 m92 0 h20 m-132 0 q10 0 10 10 m112 0 q0 -10 10 -10 m-122 10 v24 m112 0 v-24 m-112 24 q0 10 10 10 m92 0 q10 0 10 -10 m-102 10 h10 m72 0 h10 m40 -76 h10 m26 0 h10 m3 0 h-3"/>
         <polygon points="471 17 479 13 479 21"/>
         <polygon points="471 17 463 13 463 21"/></svg>
