      <svg xmlns="http://www.w3.org/2000/svg" width="526" height="84">
         <defs>
            <style type="text/css">
               @namespace "http://www.w3.org/2000/svg";
               .line                 {fill: none; stroke: #1F1F1F;}
               .bold-line            {stroke: #0A0A0A; shape-rendering: crispEdges; stroke-width:
               2; }
               .thin-line            {stroke: #0F0F0F; shape-rendering: crispEdges}
               .filled               {fill: #1F1F1F; stroke: none;}
               text.terminal         {font-family: Verdana, Sans-serif;
               font-size: 12px;
               fill: #0A0A0A;
               font-weight: bold;
               }
               text.nonterminal      {font-family: Verdana, Sans-serif; font-style: italic;
               font-size: 12px;
               fill: #0D0D0D;
               }
               text.regexp           {font-family: Verdana, Sans-serif;
               font-size: 12px;
               fill: #0F0F0F;
               }
               rect, circle, polygon {fill: #1F1F1F; stroke: #1F1F1F;}
               rect.terminal         {fill: #CCCCCC; stroke: #1F1F1F;}
               rect.nonterminal      {fill: #E3E3E3; stroke: #1F1F1F;}
               rect.text             {fill: none; stroke: none;}    
               polygon.regexp        {fill: #EFEFEF; stroke: #1F1F1F;}
               
            </style>
         </defs>
         <polygon points="9 17 1 13 1 21"/>
         <polygon points="17 17 9 13 9 21"/>
         <rect x="31" y="3" width="62" height="32" rx="10"/>
         <rect x="29" y="1" width="62" height="32" class="terminal" rx="10"/>
         <text class="terminal" x="39" y="21">charIn</text>
         <rect x="133" y="3" width="26" height="32" rx="10"/>
         <rect x="131" y="1" width="26" height="32" class="terminal" rx="10"/>
         <text class="terminal" x="141" y="21">(</text>
<!--     <a xmlns:xlink="http://www.w3.org/1999/xlink" xlink:href="#start" xlink:title="start"> -->
            <rect x="199" y="3" width="50" height="32"/>
            <rect x="197" y="1" width="50" height="32" class="nonterminal"/>
            <text class="nonterminal" x="207" y="21">start</text>
<!--     </a> -->
         <rect x="289" y="3" width="24" height="32" rx="10"/>
         <rect x="287" y="1" width="24" height="32" class="terminal" rx="10"/>
         <text class="terminal" x="297" y="21">,</text>
<!--     <a xmlns:xlink="http://www.w3.org/1999/xlink" xlink:href="#length" xlink:title="length"> -->
            <rect x="333" y="3" width="60" height="32"/>
            <rect x="331" y="1" width="60" height="32" class="nonterminal"/>
            <text class="nonterminal" x="341" y="21">length</text>
<!--     </a> -->
         <rect x="453" y="3" width="26" height="32" rx="10"/>
         <rect x="451" y="1" width="26" height="32" class="terminal" rx="10"/>
         <text class="terminal" x="461" y="21">)</text>
         <svg:path xmlns:svg="http://www.w3.org/2000/svg" class="line" d="m17 17 h2 m0 0 h10 m62 0 h10 m20 0 h10 m26 0 h10 m20 0 h10 m50 0 h10 m20 0 h10 m24 0 h10 m0 0 h10 m60 0 h10 m-144 0 h20 m124 0 h20 m-164 0 q10 0 10 10 m144 0 q0 -10 10 -10 m-154 10 v14 m144 0 v-14 m-144 14 q0 10 10 10 m124 0 q10 0 10 -10 m-134 10 h10 m0 0 h114 m-234 -34 h20 m234 0 h20 m-274 0 q10 0 10 10 m254 0 q0 -10 10 -10 m-264 10 v30 m254 0 v-30 m-254 30 q0 10 10 10 m234 0 q10 0 10 -10 m-244 10 h10 m0 0 h224 m20 -50 h10 m26 0 h10 m-386 0 h20 m366 0 h20 m-406 0 q10 0 10 10 m386 0 q0 -10 10 -10 m-396 10 v46 m386 0 v-46 m-386 46 q0 10 10 10 m366 0 q10 0 10 -10 m-376 10 h10 m0 0 h356 m23 -66 h-3"/>
         <polygon points="517 17 525 13 525 21"/>
         <polygon points="517 17 509 13 509 21"/>
      </svg>
