      <svg xmlns="http://www.w3.org/2000/svg" width="392" height="112">
         <defs>
            <style type="text/css">
               @namespace "http://www.w3.org/2000/svg";
               .line                 {fill: none; stroke: #1F1F1F;}
               .bold-line            {stroke: #0A0A0A; shape-rendering: crispEdges; stroke-width:
               2; }
               .thin-line            {stroke: #0F0F0F; shape-rendering: crispEdges}
               .filled               {fill: #1F1F1F; stroke: none;}
               text.terminal         {font-family: Verdana, Sans-serif;
               font-size: 12px;
               fill: #0A0A0A;
               font-weight: bold;
               }
               text.nonterminal      {font-family: Verdana, Sans-serif; font-style: italic;
               font-size: 12px;
               fill: #0D0D0D;
               }
               text.regexp           {font-family: Verdana, Sans-serif;
               font-size: 12px;
               fill: #0F0F0F;
               }
               rect, circle, polygon {fill: #1F1F1F; stroke: #1F1F1F;}
               rect.terminal         {fill: #CCCCCC; stroke: #1F1F1F;}
               rect.nonterminal      {fill: #E3E3E3; stroke: #1F1F1F;}
               rect.text             {fill: none; stroke: none;}    
               polygon.regexp        {fill: #EFEFEF; stroke: #1F1F1F;}
               
            </style>
         </defs>
         <polygon points="9 17 1 13 1 21"/>
         <polygon points="17 17 9 13 9 21"/>
         <rect x="31" y="3" width="92" height="32" rx="10"/>
         <rect x="29" y="1" width="92" height="32" class="terminal" rx="10"/>
         <text class="terminal" x="39" y="21">makeArray</text>
         <rect x="163" y="3" width="26" height="32" rx="10"/>
         <rect x="161" y="1" width="26" height="32" class="terminal" rx="10"/>
         <text class="terminal" x="171" y="21">(</text>
         <rect x="229" y="3" width="48" height="32" rx="10"/>
         <rect x="227" y="1" width="48" height="32" class="terminal" rx="10"/>
         <text class="terminal" x="237" y="21">Line</text>
         <rect x="229" y="47" width="50" height="32" rx="10"/>
         <rect x="227" y="45" width="50" height="32" class="terminal" rx="10"/>
         <text class="terminal" x="237" y="65">Char</text>
         <rect x="319" y="3" width="26" height="32" rx="10"/>
         <rect x="317" y="1" width="26" height="32" class="terminal" rx="10"/>
         <text class="terminal" x="327" y="21">)</text>
         <svg:path xmlns:svg="http://www.w3.org/2000/svg" class="line" d="m17 17 h2 m0 0 h10 m92 0 h10 m20 0 h10 m26 0 h10 m20 0 h10 m48 0 h10 m0 0 h2 m-90 0 h20 m70 0 h20 m-110 0 q10 0 10 10 m90 0 q0 -10 10 -10 m-100 10 v24 m90 0 v-24 m-90 24 q0 10 10 10 m70 0 q10 0 10 -10 m-80 10 h10 m50 0 h10 m-80 -10 v20 m90 0 v-20 m-90 20 v14 m90 0 v-14 m-90 14 q0 10 10 10 m70 0 q10 0 10 -10 m-80 10 h10 m0 0 h60 m20 -78 h10 m26 0 h10 m-222 0 h20 m202 0 h20 m-242 0 q10 0 10 10 m222 0 q0 -10 10 -10 m-232 10 v74 m222 0 v-74 m-222 74 q0 10 10 10 m202 0 q10 0 10 -10 m-212 10 h10 m0 0 h192 m23 -94 h-3"/>
         <polygon points="383 17 391 13 391 21"/>
         <polygon points="383 17 375 13 375 21"/>
      </svg>
