      <svg xmlns="http://www.w3.org/2000/svg" width="368" height="112">
         <defs>
            <style type="text/css">
               @namespace "http://www.w3.org/2000/svg";
               .line                 {fill: none; stroke: #1F1F1F;}
               .bold-line            {stroke: #0A0A0A; shape-rendering: crispEdges; stroke-width:
               2; }
               .thin-line            {stroke: #0F0F0F; shape-rendering: crispEdges}
               .filled               {fill: #1F1F1F; stroke: none;}
               text.terminal         {font-family: Verdana, Sans-serif;
               font-size: 12px;
               fill: #0A0A0A;
               font-weight: bold;
               }
               text.nonterminal      {font-family: Verdana, Sans-serif;
               font-size: 12px;
               fill: #0D0D0D;
               }
               text.regexp           {font-family: Verdana, Sans-serif;
               font-size: 12px;
               fill: #0F0F0F;
               }
               rect, circle, polygon {fill: #1F1F1F; stroke: #1F1F1F;}
               rect.terminal         {fill: #CCCCCC; stroke: #1F1F1F;}
               rect.nonterminal      {fill: #E3E3E3; stroke: #1F1F1F;}
               rect.text             {fill: none; stroke: none;}    
               polygon.regexp        {fill: #EFEFEF; stroke: #1F1F1F;}
               
            </style>
         </defs>
         <polygon points="9 17 1 13 1 21"/>
         <polygon points="17 17 9 13 9 21"/>
         <rect x="31" y="3" width="50" height="32" rx="10"/>
         <rect x="29" y="1" width="50" height="32" class="terminal" rx="10"/>
         <text class="terminal" x="39" y="21">lines</text>
         <rect x="121" y="3" width="26" height="32" rx="10"/>
         <rect x="119" y="1" width="26" height="32" class="terminal" rx="10"/>
         <text class="terminal" x="129" y="21">(</text>
         <rect x="187" y="3" width="58" height="32" rx="10"/>
         <rect x="185" y="1" width="58" height="32" class="terminal" rx="10"/>
         <text class="terminal" x="195" y="21">Count</text>
         <rect x="187" y="47" width="68" height="32" rx="10"/>
         <rect x="185" y="45" width="68" height="32" class="terminal" rx="10"/>
         <text class="terminal" x="195" y="65">Normal</text>
         <rect x="295" y="3" width="26" height="32" rx="10"/>
         <rect x="293" y="1" width="26" height="32" class="terminal" rx="10"/>
         <text class="terminal" x="303" y="21">)</text>
         <svg:path xmlns:svg="http://www.w3.org/2000/svg" class="line" d="m17 17 h2 m0 0 h10 m50 0 h10 m20 0 h10 m26 0 h10 m20 0 h10 m58 0 h10 m0 0 h10 m-108 0 h20 m88 0 h20 m-128 0 q10 0 10 10 m108 0 q0 -10 10 -10 m-118 10 v24 m108 0 v-24 m-108 24 q0 10 10 10 m88 0 q10 0 10 -10 m-98 10 h10 m68 0 h10 m-98 -10 v20 m108 0 v-20 m-108 20 v14 m108 0 v-14 m-108 14 q0 10 10 10 m88 0 q10 0 10 -10 m-98 10 h10 m0 0 h78 m20 -78 h10 m26 0 h10 m-240 0 h20 m220 0 h20 m-260 0 q10 0 10 10 m240 0 q0 -10 10 -10 m-250 10 v74 m240 0 v-74 m-240 74 q0 10 10 10 m220 0 q10 0 10 -10 m-230 10 h10 m0 0 h210 m23 -94 h-3"/>
         <polygon points="359 17 367 13 367 21"/>
         <polygon points="359 17 351 13 351 21"/>
      </svg>
