      <svg xmlns="http://www.w3.org/2000/svg" width="348" height="68">
         <defs>
            <style type="text/css">
               @namespace "http://www.w3.org/2000/svg";
               .line                 {fill: none; stroke: #1F1F1F;}
               .bold-line            {stroke: #0A0A0A; shape-rendering: crispEdges; stroke-width:
               2; }
               .thin-line            {stroke: #0F0F0F; shape-rendering: crispEdges}
               .filled               {fill: #1F1F1F; stroke: none;}
               text.terminal         {font-family: Verdana, Sans-serif;
               font-size: 12px;
               fill: #0A0A0A;
               font-weight: bold;
               }
               text.nonterminal      {font-family: Verdana, Sans-serif; font-style: italic;
               font-size: 12px;
               fill: #0D0D0D;
               }
               text.regexp           {font-family: Verdana, Sans-serif;
               font-size: 12px;
               fill: #0F0F0F;
               }
               rect, circle, polygon {fill: #1F1F1F; stroke: #1F1F1F;}
               rect.terminal         {fill: #CCCCCC; stroke: #1F1F1F;}
               rect.nonterminal      {fill: #E3E3E3; stroke: #1F1F1F;}
               rect.text             {fill: none; stroke: none;}    
               polygon.regexp        {fill: #EFEFEF; stroke: #1F1F1F;}
               
            </style>
         </defs>
         <polygon points="9 17 1 13 1 21"/>
         <polygon points="17 17 9 13 9 21"/>
         <rect x="31" y="3" width="42" height="32" rx="10"/>
         <rect x="29" y="1" width="42" height="32" class="terminal" rx="10"/>
         <text class="terminal" x="39" y="21">say</text>
         <rect x="113" y="3" width="26" height="32" rx="10"/>
         <rect x="111" y="1" width="26" height="32" class="terminal" rx="10"/>
         <text class="terminal" x="121" y="21">(</text>
<!--     <a xmlns:xlink="http://www.w3.org/1999/xlink" xlink:href="#string" xlink:title="string"> -->
            <rect x="179" y="3" width="56" height="32"/>
            <rect x="177" y="1" width="56" height="32" class="nonterminal"/>
            <text class="nonterminal" x="187" y="21">string</text>
<!--     </a> -->
         <rect x="275" y="3" width="26" height="32" rx="10"/>
         <rect x="273" y="1" width="26" height="32" class="terminal" rx="10"/>
         <text class="terminal" x="283" y="21">)</text>
         <svg:path xmlns:svg="http://www.w3.org/2000/svg" class="line" d="m17 17 h2 m0 0 h10 m42 0 h10 m20 0 h10 m26 0 h10 m20 0 h10 m56 0 h10 m-96 0 h20 m76 0 h20 m-116 0 q10 0 10 10 m96 0 q0 -10 10 -10 m-106 10 v14 m96 0 v-14 m-96 14 q0 10 10 10 m76 0 q10 0 10 -10 m-86 10 h10 m0 0 h66 m20 -34 h10 m26 0 h10 m-228 0 h20 m208 0 h20 m-248 0 q10 0 10 10 m228 0 q0 -10 10 -10 m-238 10 v30 m228 0 v-30 m-228 30 q0 10 10 10 m208 0 q10 0 10 -10 m-218 10 h10 m0 0 h198 m23 -50 h-3"/>
         <polygon points="339 17 347 13 347 21"/>
         <polygon points="339 17 331 13 331 21"/>
      </svg>
