      <svg xmlns="http://www.w3.org/2000/svg" width="558" height="200">
         <defs>
            <style type="text/css">
               @namespace "http://www.w3.org/2000/svg";
               .line                 {fill: none; stroke: #1F1F1F;}
               .bold-line            {stroke: #0A0A0A; shape-rendering: crispEdges; stroke-width:
               2; }
               .thin-line            {stroke: #0F0F0F; shape-rendering: crispEdges}
               .filled               {fill: #1F1F1F; stroke: none;}
               text.terminal         {font-family: Verdana, Sans-serif;
               font-size: 12px;
               fill: #0A0A0A;
               font-weight: bold;
               }
               text.nonterminal      {font-family: Verdana, Sans-serif; font-style: italic;
               font-size: 12px;
               fill: #0D0D0D;
               }
               text.regexp           {font-family: Verdana, Sans-serif;
               font-size: 12px;
               fill: #0F0F0F;
               }
               rect, circle, polygon {fill: #1F1F1F; stroke: #1F1F1F;}
               rect.terminal         {fill: #CCCCCC; stroke: #1F1F1F;}
               rect.nonterminal      {fill: #E3E3E3; stroke: #1F1F1F;}
               rect.text             {fill: none; stroke: none;}    
               polygon.regexp        {fill: #EFEFEF; stroke: #1F1F1F;}
               
            </style>
         </defs>
         <polygon points="9 17 1 13 1 21"/>
         <polygon points="17 17 9 13 9 21"/>
         <rect x="31" y="3" width="58" height="32" rx="10"/>
         <rect x="29" y="1" width="58" height="32" class="terminal" rx="10"/>
         <text class="terminal" x="39" y="21">seek(</text>
         <rect x="129" y="35" width="30" height="32" rx="10"/>
         <rect x="127" y="33" width="30" height="32" class="terminal" rx="10"/>
         <text class="terminal" x="137" y="53">=</text>
         <rect x="129" y="79" width="30" height="32" rx="10"/>
         <rect x="127" y="77" width="30" height="32" class="terminal" rx="10"/>
         <text class="terminal" x="137" y="97">&lt;</text>
         <rect x="129" y="123" width="30" height="32" rx="10"/>
         <rect x="127" y="121" width="30" height="32" class="terminal" rx="10"/>
         <text class="terminal" x="137" y="141">+</text>
         <rect x="129" y="167" width="26" height="32" rx="10"/>
         <rect x="127" y="165" width="26" height="32" class="terminal" rx="10"/>
         <text class="terminal" x="137" y="185">-</text>
         <rect x="199" y="3" width="60" height="32" rx="10"/>
         <rect x="197" y="1" width="60" height="32" class="terminal" rx="10"/>
         <text class="terminal" x="207" y="21">Offset</text>
         <rect x="299" y="3" width="52" height="32" rx="10"/>
         <rect x="297" y="1" width="52" height="32" class="terminal" rx="10"/>
         <text class="terminal" x="307" y="21">Read</text>
         <rect x="299" y="47" width="56" height="32" rx="10"/>
         <rect x="297" y="45" width="56" height="32" class="terminal" rx="10"/>
         <text class="terminal" x="307" y="65">Write</text>
         <rect x="415" y="35" width="50" height="32" rx="10"/>
         <rect x="413" y="33" width="50" height="32" class="terminal" rx="10"/>
         <text class="terminal" x="423" y="53">Char</text>
         <rect x="415" y="79" width="48" height="32" rx="10"/>
         <rect x="413" y="77" width="48" height="32" class="terminal" rx="10"/>
         <text class="terminal" x="423" y="97">Line</text>
         <rect x="505" y="3" width="26" height="32" rx="10"/>
         <rect x="503" y="1" width="26" height="32" class="terminal" rx="10"/>
         <text class="terminal" x="513" y="21">)</text>
         <svg:path xmlns:svg="http://www.w3.org/2000/svg" class="line" d="m17 17 h2 m0 0 h10 m58 0 h10 m20 0 h10 m0 0 h40 m-70 0 h20 m50 0 h20 m-90 0 q10 0 10 10 m70 0 q0 -10 10 -10 m-80 10 v12 m70 0 v-12 m-70 12 q0 10 10 10 m50 0 q10 0 10 -10 m-60 10 h10 m30 0 h10 m-60 -10 v20 m70 0 v-20 m-70 20 v24 m70 0 v-24 m-70 24 q0 10 10 10 m50 0 q10 0 10 -10 m-60 10 h10 m30 0 h10 m-60 -10 v20 m70 0 v-20 m-70 20 v24 m70 0 v-24 m-70 24 q0 10 10 10 m50 0 q10 0 10 -10 m-60 10 h10 m30 0 h10 m-60 -10 v20 m70 0 v-20 m-70 20 v24 m70 0 v-24 m-70 24 q0 10 10 10 m50 0 q10 0 10 -10 m-60 10 h10 m26 0 h10 m0 0 h4 m20 -164 h10 m60 0 h10 m20 0 h10 m52 0 h10 m0 0 h4 m-96 0 h20 m76 0 h20 m-116 0 q10 0 10 10 m96 0 q0 -10 10 -10 m-106 10 v24 m96 0 v-24 m-96 24 q0 10 10 10 m76 0 q10 0 10 -10 m-86 10 h10 m56 0 h10 m40 -44 h10 m0 0 h60 m-90 0 h20 m70 0 h20 m-110 0 q10 0 10 10 m90 0 q0 -10 10 -10 m-100 10 v12 m90 0 v-12 m-90 12 q0 10 10 10 m70 0 q10 0 10 -10 m-80 10 h10 m50 0 h10 m-80 -10 v20 m90 0 v-20 m-90 20 v24 m90 0 v-24 m-90 24 q0 10 10 10 m70 0 q10 0 10 -10 m-80 10 h10 m48 0 h10 m0 0 h2 m20 -76 h10 m26 0 h10 m3 0 h-3"/>
         <polygon points="549 17 557 13 557 21"/>
         <polygon points="549 17 541 13 541 21"/>
      </svg>
