<svg xmlns="http://www.w3.org/2000/svg" width="581" height="201">
         <defs>
            <style type="text/css">
               @namespace "http://www.w3.org/2000/svg";
               .line                 {fill: none; stroke: #1F1F1F;}
               .bold-line            {stroke: #0A0A0A; shape-rendering: crispEdges; stroke-width:
               2; }
               .thin-line            {stroke: #0F0F0F; shape-rendering: crispEdges}
               .filled               {fill: #1F1F1F; stroke: none;}
               text.terminal         {font-family: Verdana, Sans-serif;
               font-size: 12px;
               fill: #0A0A0A;
               font-weight: bold;
               }
               text.nonterminal      {font-family: Verdana, Sans-serif; font-style: italic;
               font-size: 12px;
               fill: #0D0D0D;
               }
               text.regexp           {font-family: Verdana, Sans-serif;
               font-size: 12px;
               fill: #0F0F0F;
               }
               rect, circle, polygon {fill: #1F1F1F; stroke: #1F1F1F;}
               rect.terminal         {fill: #CCCCCC; stroke: #1F1F1F;}
               rect.nonterminal      {fill: #E3E3E3; stroke: #1F1F1F;}
               rect.text             {fill: none; stroke: none;}
               polygon.regexp        {fill: #EFEFEF; stroke: #1F1F1F;}

            </style>
         </defs>

         <defs>
            <style type="text/css">
    @namespace "http://www.w3.org/2000/svg";
    .line                 {fill: none; stroke: #1F1F1F;}
    .bold-line            {stroke: #0A0A0A; shape-rendering: crispEdges; stroke-width: 2; }
    .thin-line            {stroke: #0F0F0F; shape-rendering: crispEdges}
    .filled               {fill: #1F1F1F; stroke: none;}
    text.terminal         {font-family: Verdana, Sans-serif;
                            font-size: 12px;
                            fill: #0A0A0A;
                            font-weight: bold;
                          }
    text.nonterminal      {font-family: Verdana, Sans-serif;
                            font-size: 12px;
                            fill: #0D0D0D;
                            font-weight: normal;
                          }
    text.regexp           {font-family: Verdana, Sans-serif;
                            font-size: 12px;
                            fill: #0F0F0F;
                            font-weight: normal;
                          }
    rect, circle, polygon {fill: #1F1F1F; stroke: #1F1F1F;}
    rect.terminal         {fill: #cccccc; stroke: #1F1F1F;}
    rect.nonterminal      {fill: #E3E3E3; stroke: #1F1F1F;}
    rect.text             {fill: none; stroke: none;}    
    polygon.regexp        {fill: #EFEFEF; stroke: #1F1F1F;}
  </style>
         </defs>
         <polygon points="9 17 1 13 1 21"/>
         <polygon points="17 17 9 13 9 21"/>
         <rect x="31" y="3" width="80" height="32" rx="10"/>
         <rect x="29" y="1" width="80" height="32" class="terminal" rx="10"/>
         <text class="terminal" x="39" y="21">position(</text>
         <rect x="151" y="35" width="30" height="32" rx="10"/>
         <rect x="149" y="33" width="30" height="32" class="terminal" rx="10"/>
         <text class="terminal" x="159" y="53">=</text>
         <rect x="151" y="79" width="30" height="32" rx="10"/>
         <rect x="149" y="77" width="30" height="32" class="terminal" rx="10"/>
         <text class="terminal" x="159" y="97">&lt;</text>
         <rect x="151" y="123" width="30" height="32" rx="10"/>
         <rect x="149" y="121" width="30" height="32" class="terminal" rx="10"/>
         <text class="terminal" x="159" y="141">+</text>
         <rect x="151" y="167" width="26" height="32" rx="10"/>
         <rect x="149" y="165" width="26" height="32" class="terminal" rx="10"/>
         <text class="terminal" x="159" y="185">-</text><a xmlns:xlink="http://www.w3.org/1999/xlink" xlink:href="#offset" xlink:title="offset">
            <rect x="221" y="3" width="56" height="32"/>
            <rect x="219" y="1" width="56" height="32" class="nonterminal"/>
            <text class="nonterminal" x="229" y="21">offset</text></a><rect x="317" y="35" width="54" height="32" rx="10"/>
         <rect x="315" y="33" width="54" height="32" class="terminal" rx="10"/>
         <text class="terminal" x="325" y="53">Read</text>
         <rect x="317" y="79" width="58" height="32" rx="10"/>
         <rect x="315" y="77" width="58" height="32" class="terminal" rx="10"/>
         <text class="terminal" x="325" y="97">Write</text>
         <rect x="435" y="35" width="52" height="32" rx="10"/>
         <rect x="433" y="33" width="52" height="32" class="terminal" rx="10"/>
         <text class="terminal" x="443" y="53">Char</text>
         <rect x="435" y="79" width="48" height="32" rx="10"/>
         <rect x="433" y="77" width="48" height="32" class="terminal" rx="10"/>
         <text class="terminal" x="443" y="97">Line</text>
         <rect x="527" y="3" width="26" height="32" rx="10"/>
         <rect x="525" y="1" width="26" height="32" class="terminal" rx="10"/>
         <text class="terminal" x="535" y="21">)</text>
         <svg:path xmlns:svg="http://www.w3.org/2000/svg" class="line" d="m17 17 h2 m0 0 h10 m80 0 h10 m20 0 h10 m0 0 h40 m-70 0 h20 m50 0 h20 m-90 0 q10 0 10 10 m70 0 q0 -10 10 -10 m-80 10 v12 m70 0 v-12 m-70 12 q0 10 10 10 m50 0 q10 0 10 -10 m-60 10 h10 m30 0 h10 m-60 -10 v20 m70 0 v-20 m-70 20 v24 m70 0 v-24 m-70 24 q0 10 10 10 m50 0 q10 0 10 -10 m-60 10 h10 m30 0 h10 m-60 -10 v20 m70 0 v-20 m-70 20 v24 m70 0 v-24 m-70 24 q0 10 10 10 m50 0 q10 0 10 -10 m-60 10 h10 m30 0 h10 m-60 -10 v20 m70 0 v-20 m-70 20 v24 m70 0 v-24 m-70 24 q0 10 10 10 m50 0 q10 0 10 -10 m-60 10 h10 m26 0 h10 m0 0 h4 m20 -164 h10 m56 0 h10 m20 0 h10 m0 0 h68 m-98 0 h20 m78 0 h20 m-118 0 q10 0 10 10 m98 0 q0 -10 10 -10 m-108 10 v12 m98 0 v-12 m-98 12 q0 10 10 10 m78 0 q10 0 10 -10 m-88 10 h10 m54 0 h10 m0 0 h4 m-88 -10 v20 m98 0 v-20 m-98 20 v24 m98 0 v-24 m-98 24 q0 10 10 10 m78 0 q10 0 10 -10 m-88 10 h10 m58 0 h10 m40 -76 h10 m0 0 h62 m-92 0 h20 m72 0 h20 m-112 0 q10 0 10 10 m92 0 q0 -10 10 -10 m-102 10 v12 m92 0 v-12 m-92 12 q0 10 10 10 m72 0 q10 0 10 -10 m-82 10 h10 m52 0 h10 m-82 -10 v20 m92 0 v-20 m-92 20 v24 m92 0 v-24 m-92 24 q0 10 10 10 m72 0 q10 0 10 -10 m-82 10 h10 m48 0 h10 m0 0 h4 m20 -76 h10 m26 0 h10 m3 0 h-3"/>
         <polygon points="571 17 579 13 579 21"/>
         <polygon points="571 17 563 13 563 21"/>
</svg>