<svg xmlns="http://www.w3.org/2000/svg" width="615" height="421">
         <defs>
            <style type="text/css">
               @namespace "http://www.w3.org/2000/svg";
               .line                 {fill: none; stroke: #1F1F1F;}
               .bold-line            {stroke: #0A0A0A; shape-rendering: crispEdges; stroke-width:
               2; }
               .thin-line            {stroke: #0F0F0F; shape-rendering: crispEdges}
               .filled               {fill: #1F1F1F; stroke: none;}
               text.terminal         {font-family: Verdana, Sans-serif;
               font-size: 12px;
               fill: #0A0A0A;
               font-weight: bold;
               }
               text.nonterminal      {font-family: Verdana, Sans-serif; font-style: italic;
               font-size: 12px;
               fill: #0D0D0D;
               }
               text.regexp           {font-family: Verdana, Sans-serif;
               font-size: 12px;
               fill: #0F0F0F;
               }
               rect, circle, polygon {fill: #1F1F1F; stroke: #1F1F1F;}
               rect.terminal         {fill: #CCCCCC; stroke: #1F1F1F;}
               rect.nonterminal      {fill: #E3E3E3; stroke: #1F1F1F;}
               rect.text             {fill: none; stroke: none;}
               polygon.regexp        {fill: #EFEFEF; stroke: #1F1F1F;}

            </style>
         </defs>

         <defs>
            <style type="text/css">
    @namespace "http://www.w3.org/2000/svg";
    .line                 {fill: none; stroke: #1F1F1F;}
    .bold-line            {stroke: #0A0A0A; shape-rendering: crispEdges; stroke-width: 2; }
    .thin-line            {stroke: #0F0F0F; shape-rendering: crispEdges}
    .filled               {fill: #1F1F1F; stroke: none;}
    text.terminal         {font-family: Verdana, Sans-serif;
                            font-size: 12px;
                            fill: #0A0A0A;
                            font-weight: bold;
                          }
    text.nonterminal      {font-family: Verdana, Sans-serif;
                            font-size: 12px;
                            fill: #0D0D0D;
                            font-weight: normal;
                          }
    text.regexp           {font-family: Verdana, Sans-serif;
                            font-size: 12px;
                            fill: #0F0F0F;
                            font-weight: normal;
                          }
    rect, circle, polygon {fill: #1F1F1F; stroke: #1F1F1F;}
    rect.terminal         {fill: #cccccc; stroke: #1F1F1F;}
    rect.nonterminal      {fill: #E3E3E3; stroke: #1F1F1F;}
    rect.text             {fill: none; stroke: none;}    
    polygon.regexp        {fill: #EFEFEF; stroke: #1F1F1F;}
  </style>
         </defs>
         <polygon points="9 17 1 13 1 21"/>
         <polygon points="17 17 9 13 9 21"/>
         <rect x="31" y="3" width="66" height="32" rx="10"/>
         <rect x="29" y="1" width="66" height="32" class="terminal" rx="10"/>
         <text class="terminal" x="39" y="21">query(</text>
         <rect x="137" y="3" width="82" height="32" rx="10"/>
         <rect x="135" y="1" width="82" height="32" class="terminal" rx="10"/>
         <text class="terminal" x="145" y="21">Datetime</text>
         <rect x="137" y="47" width="60" height="32" rx="10"/>
         <rect x="135" y="45" width="60" height="32" class="terminal" rx="10"/>
         <text class="terminal" x="145" y="65">Exists</text>
         <rect x="137" y="91" width="66" height="32" rx="10"/>
         <rect x="135" y="89" width="66" height="32" class="terminal" rx="10"/>
         <text class="terminal" x="145" y="109">Handle</text>
         <rect x="157" y="135" width="52" height="32" rx="10"/>
         <rect x="155" y="133" width="52" height="32" class="terminal" rx="10"/>
         <text class="terminal" x="165" y="153">Seek</text>
         <rect x="157" y="179" width="74" height="32" rx="10"/>
         <rect x="155" y="177" width="74" height="32" class="terminal" rx="10"/>
         <text class="terminal" x="165" y="197">Position</text>
         <rect x="311" y="167" width="54" height="32" rx="10"/>
         <rect x="309" y="165" width="54" height="32" class="terminal" rx="10"/>
         <text class="terminal" x="319" y="185">Read</text>
         <rect x="311" y="211" width="58" height="32" rx="10"/>
         <rect x="309" y="209" width="58" height="32" class="terminal" rx="10"/>
         <text class="terminal" x="319" y="229">Write</text>
         <rect x="429" y="167" width="52" height="32" rx="10"/>
         <rect x="427" y="165" width="52" height="32" class="terminal" rx="10"/>
         <text class="terminal" x="437" y="185">Char</text>
         <rect x="429" y="211" width="48" height="32" rx="10"/>
         <rect x="427" y="209" width="48" height="32" class="terminal" rx="10"/>
         <text class="terminal" x="437" y="229">Line</text>
         <rect x="291" y="255" width="44" height="32" rx="10"/>
         <rect x="289" y="253" width="44" height="32" class="terminal" rx="10"/>
         <text class="terminal" x="299" y="273">Sys</text>
         <rect x="137" y="299" width="50" height="32" rx="10"/>
         <rect x="135" y="297" width="50" height="32" class="terminal" rx="10"/>
         <text class="terminal" x="145" y="317">SIze</text>
         <rect x="137" y="343" width="102" height="32" rx="10"/>
         <rect x="135" y="341" width="102" height="32" class="terminal" rx="10"/>
         <text class="terminal" x="145" y="361">STreamtype</text>
         <rect x="137" y="387" width="94" height="32" rx="10"/>
         <rect x="135" y="385" width="94" height="32" class="terminal" rx="10"/>
         <text class="terminal" x="145" y="405">Timestamp</text>
         <rect x="561" y="3" width="26" height="32" rx="10"/>
         <rect x="559" y="1" width="26" height="32" class="terminal" rx="10"/>
         <text class="terminal" x="569" y="21">)</text>
         <svg:path xmlns:svg="http://www.w3.org/2000/svg" class="line" d="m17 17 h2 m0 0 h10 m66 0 h10 m20 0 h10 m82 0 h10 m0 0 h302 m-424 0 h20 m404 0 h20 m-444 0 q10 0 10 10 m424 0 q0 -10 10 -10 m-434 10 v24 m424 0 v-24 m-424 24 q0 10 10 10 m404 0 q10 0 10 -10 m-414 10 h10 m60 0 h10 m0 0 h324 m-414 -10 v20 m424 0 v-20 m-424 20 v24 m424 0 v-24 m-424 24 q0 10 10 10 m404 0 q10 0 10 -10 m-414 10 h10 m66 0 h10 m0 0 h318 m-414 -10 v20 m424 0 v-20 m-424 20 v24 m424 0 v-24 m-424 24 q0 10 10 10 m404 0 q10 0 10 -10 m-394 10 h10 m52 0 h10 m0 0 h22 m-114 0 h20 m94 0 h20 m-134 0 q10 0 10 10 m114 0 q0 -10 10 -10 m-124 10 v24 m114 0 v-24 m-114 24 q0 10 10 10 m94 0 q10 0 10 -10 m-104 10 h10 m74 0 h10 m60 -44 h10 m0 0 h68 m-98 0 h20 m78 0 h20 m-118 0 q10 0 10 10 m98 0 q0 -10 10 -10 m-108 10 v12 m98 0 v-12 m-98 12 q0 10 10 10 m78 0 q10 0 10 -10 m-88 10 h10 m54 0 h10 m0 0 h4 m-88 -10 v20 m98 0 v-20 m-98 20 v24 m98 0 v-24 m-98 24 q0 10 10 10 m78 0 q10 0 10 -10 m-88 10 h10 m58 0 h10 m40 -76 h10 m0 0 h62 m-92 0 h20 m72 0 h20 m-112 0 q10 0 10 10 m92 0 q0 -10 10 -10 m-102 10 v12 m92 0 v-12 m-92 12 q0 10 10 10 m72 0 q10 0 10 -10 m-82 10 h10 m52 0 h10 m-82 -10 v20 m92 0 v-20 m-92 20 v24 m92 0 v-24 m-92 24 q0 10 10 10 m72 0 q10 0 10 -10 m-82 10 h10 m48 0 h10 m0 0 h4 m-230 -76 h20 m230 0 h20 m-270 0 q10 0 10 10 m250 0 q0 -10 10 -10 m-260 10 v100 m250 0 v-100 m-250 100 q0 10 10 10 m230 0 q10 0 10 -10 m-240 10 h10 m44 0 h10 m0 0 h166 m-394 -130 v20 m424 0 v-20 m-424 20 v144 m424 0 v-144 m-424 144 q0 10 10 10 m404 0 q10 0 10 -10 m-414 10 h10 m50 0 h10 m0 0 h334 m-414 -10 v20 m424 0 v-20 m-424 20 v24 m424 0 v-24 m-424 24 q0 10 10 10 m404 0 q10 0 10 -10 m-414 10 h10 m102 0 h10 m0 0 h282 m-414 -10 v20 m424 0 v-20 m-424 20 v24 m424 0 v-24 m-424 24 q0 10 10 10 m404 0 q10 0 10 -10 m-414 10 h10 m94 0 h10 m0 0 h290 m20 -384 h10 m26 0 h10 m3 0 h-3"/>
         <polygon points="605 17 613 13 613 21"/>
         <polygon points="605 17 597 13 597 21"/>
</svg>