      <svg xmlns="http://www.w3.org/2000/svg" width="716" height="140">
         <defs>
            <style type="text/css">
               @namespace "http://www.w3.org/2000/svg";
               .line                 {fill: none; stroke: #1F1F1F;}
               .bold-line            {stroke: #0A0A0A; shape-rendering: crispEdges; stroke-width:
               2; }
               .thin-line            {stroke: #0F0F0F; shape-rendering: crispEdges}
               .filled               {fill: #1F1F1F; stroke: none;}
               text.terminal         {font-family: Verdana, Sans-serif;
               font-size: 12px;
               fill: #0A0A0A;
               font-weight: bold;
               }
               text.nonterminal      {font-family: Verdana, Sans-serif; font-style: italic;
               font-size: 12px;
               fill: #0D0D0D;
               }
               text.regexp           {font-family: Verdana, Sans-serif;
               font-size: 12px;
               fill: #0F0F0F;
               }
               rect, circle, polygon {fill: #1F1F1F; stroke: #1F1F1F;}
               rect.terminal         {fill: #CCCCCC; stroke: #1F1F1F;}
               rect.nonterminal      {fill: #E3E3E3; stroke: #1F1F1F;}
               rect.text             {fill: none; stroke: none;}    
               polygon.regexp        {fill: #EFEFEF; stroke: #1F1F1F;}
               
            </style>
         </defs>
         <polygon points="9 17 1 13 1 21"/>
         <polygon points="17 17 9 13 9 21"/>
         <rect x="31" y="3" width="58" height="32" rx="10"/>
         <rect x="29" y="1" width="58" height="32" class="terminal" rx="10"/>
         <text class="terminal" x="39" y="21">open(</text>
         <rect x="129" y="3" width="52" height="32" rx="10"/>
         <rect x="127" y="1" width="52" height="32" class="terminal" rx="10"/>
         <text class="terminal" x="137" y="21">BOth</text>
         <polygon points="201 19 208 3 396 3 403 19 396 35 208 35"/>
         <polygon points="199 17 206 1 394 1 401 17 394 33 206 33" class="regexp"/>
<!--     <a xmlns:xlink="http://www.w3.org/1999/xlink" xlink:href="#WRITE-OPTIONS" xlink:title="WRITE-OPTIONS"> -->
            <rect class="text" x="214" y="10" width="102" height="14"/>
            <text class="regexp" x="214" y="21">WRITE-OPTIONS</text>
<!--     </a> -->
         <text class="regexp" x="321" y="21">- </text>
<!--     <a xmlns:xlink="http://www.w3.org/1999/xlink" xlink:href="#fragment" xlink:title="fragment"> -->
            <rect class="text" x="330" y="10" width="56" height="14"/>
            <text class="regexp" x="330" y="21">fragment</text>
<!--     </a> -->
         <rect x="129" y="47" width="54" height="32" rx="10"/>
         <rect x="127" y="45" width="54" height="32" class="terminal" rx="10"/>
         <text class="terminal" x="137" y="65">REAd</text>
         <rect x="129" y="91" width="56" height="32" rx="10"/>
         <rect x="127" y="89" width="56" height="32" class="terminal" rx="10"/>
         <text class="terminal" x="137" y="109">Write</text>
         <polygon points="205 107 212 91 400 91 407 107 400 123 212 123"/>
         <polygon points="203 105 210 89 398 89 405 105 398 121 210 121" class="regexp"/>
<!--     <a xmlns:xlink="http://www.w3.org/1999/xlink" xlink:href="#WRITE-OPTIONS" xlink:title="WRITE-OPTIONS"> -->
            <rect class="text" x="218" y="98" width="102" height="14"/>
            <text class="regexp" x="218" y="109">WRITE-OPTIONS</text>
<!--     </a> -->
         <text class="regexp" x="325" y="109">- </text>
<!--     <a xmlns:xlink="http://www.w3.org/1999/xlink" xlink:href="#fragment" xlink:title="fragment"> -->
            <rect class="text" x="334" y="98" width="56" height="14"/>
            <text class="regexp" x="334" y="109">fragment</text>
<!--     </a> -->
         <polygon points="447 19 454 3 636 3 643 19 636 35 454 35"/>
         <polygon points="445 17 452 1 634 1 641 17 634 33 452 33" class="regexp"/>
<!--     <a xmlns:xlink="http://www.w3.org/1999/xlink" xlink:href="#OPEN-OPTIONS" xlink:title="OPEN-OPTIONS"> -->
            <rect class="text" x="460" y="10" width="96" height="14"/>
            <text class="regexp" x="460" y="21">OPEN-OPTIONS</text>
<!--     </a> -->
         <text class="regexp" x="561" y="21">- </text>
<!--     <a xmlns:xlink="http://www.w3.org/1999/xlink" xlink:href="#fragment" xlink:title="fragment"> -->
            <rect class="text" x="570" y="10" width="56" height="14"/>
            <text class="regexp" x="570" y="21">fragment</text>
<!--     </a> -->
         <rect x="663" y="3" width="26" height="32" rx="10"/>
         <rect x="661" y="1" width="26" height="32" class="terminal" rx="10"/>
         <text class="terminal" x="671" y="21">)</text>
         <svg:path xmlns:svg="http://www.w3.org/2000/svg" class="line" d="m17 17 h2 m0 0 h10 m58 0 h10 m20 0 h10 m52 0 h10 m0 0 h10 m202 0 h10 m0 0 h4 m-318 0 h20 m298 0 h20 m-338 0 q10 0 10 10 m318 0 q0 -10 10 -10 m-328 10 v24 m318 0 v-24 m-318 24 q0 10 10 10 m298 0 q10 0 10 -10 m-308 10 h10 m54 0 h10 m0 0 h224 m-308 -10 v20 m318 0 v-20 m-318 20 v24 m318 0 v-24 m-318 24 q0 10 10 10 m298 0 q10 0 10 -10 m-308 10 h10 m56 0 h10 m0 0 h10 m202 0 h10 m-308 -10 v20 m318 0 v-20 m-318 20 v14 m318 0 v-14 m-318 14 q0 10 10 10 m298 0 q10 0 10 -10 m-308 10 h10 m0 0 h288 m20 -122 h10 m196 0 h10 m0 0 h10 m26 0 h10 m3 0 h-3"/>
         <polygon points="707 17 715 13 715 21"/>
         <polygon points="707 17 699 13 699 21"/>
      </svg>
