      <svg xmlns="http://www.w3.org/2000/svg" width="520" height="84">
         <defs>
            <style type="text/css">
               @namespace "http://www.w3.org/2000/svg";
               .line                 {fill: none; stroke: #1F1F1F;}
               .bold-line            {stroke: #0A0A0A; shape-rendering: crispEdges; stroke-width:
               2; }
               .thin-line            {stroke: #0F0F0F; shape-rendering: crispEdges}
               .filled               {fill: #1F1F1F; stroke: none;}
               text.terminal         {font-family: Verdana, Sans-serif;
               font-size: 12px;
               fill: #0A0A0A;
               font-weight: bold;
               }
               text.nonterminal      {font-family: Verdana, Sans-serif;
               font-size: 12px;
               fill: #0D0D0D;
               }
               text.regexp           {font-family: Verdana, Sans-serif;
               font-size: 12px;
               fill: #0F0F0F;
               }
               rect, circle, polygon {fill: #1F1F1F; stroke: #1F1F1F;}
               rect.terminal         {fill: #CCCCCC; stroke: #1F1F1F;}
               rect.nonterminal      {fill: #E3E3E3; stroke: #1F1F1F;}
               rect.text             {fill: none; stroke: none;}    
               polygon.regexp        {fill: #EFEFEF; stroke: #1F1F1F;}
               
            </style>
         </defs>
         <polygon points="9 17 1 13 1 21"/>
         <polygon points="17 17 9 13 9 21"/>
         <rect x="31" y="3" width="68" height="32" rx="10"/>
         <rect x="29" y="1" width="68" height="32" class="terminal" rx="10"/>
         <text class="terminal" x="39" y="21">lineOut</text>
         <rect x="139" y="3" width="26" height="32" rx="10"/>
         <rect x="137" y="1" width="26" height="32" class="terminal" rx="10"/>
         <text class="terminal" x="147" y="21">(</text>
         <a xmlns:xlink="http://www.w3.org/1999/xlink" xlink:href="#string" xlink:title="string">
            <rect x="205" y="3" width="56" height="32"/>
            <rect x="203" y="1" width="56" height="32" class="nonterminal"/>
            <text class="nonterminal" x="213" y="21">string</text>
         </a>
         <rect x="301" y="3" width="24" height="32" rx="10"/>
         <rect x="299" y="1" width="24" height="32" class="terminal" rx="10"/>
         <text class="terminal" x="309" y="21">,</text>
         <a xmlns:xlink="http://www.w3.org/1999/xlink" xlink:href="#line" xlink:title="line">
            <rect x="345" y="3" width="42" height="32"/>
            <rect x="343" y="1" width="42" height="32" class="nonterminal"/>
            <text class="nonterminal" x="353" y="21">line</text>
         </a>
         <rect x="447" y="3" width="26" height="32" rx="10"/>
         <rect x="445" y="1" width="26" height="32" class="terminal" rx="10"/>
         <text class="terminal" x="455" y="21">)</text>
         <svg:path xmlns:svg="http://www.w3.org/2000/svg" class="line" d="m17 17 h2 m0 0 h10 m68 0 h10 m20 0 h10 m26 0 h10 m20 0 h10 m56 0 h10 m20 0 h10 m24 0 h10 m0 0 h10 m42 0 h10 m-126 0 h20 m106 0 h20 m-146 0 q10 0 10 10 m126 0 q0 -10 10 -10 m-136 10 v14 m126 0 v-14 m-126 14 q0 10 10 10 m106 0 q10 0 10 -10 m-116 10 h10 m0 0 h96 m-222 -34 h20 m222 0 h20 m-262 0 q10 0 10 10 m242 0 q0 -10 10 -10 m-252 10 v30 m242 0 v-30 m-242 30 q0 10 10 10 m222 0 q10 0 10 -10 m-232 10 h10 m0 0 h212 m20 -50 h10 m26 0 h10 m-374 0 h20 m354 0 h20 m-394 0 q10 0 10 10 m374 0 q0 -10 10 -10 m-384 10 v46 m374 0 v-46 m-374 46 q0 10 10 10 m354 0 q10 0 10 -10 m-364 10 h10 m0 0 h344 m23 -66 h-3"/>
         <polygon points="511 17 519 13 519 21"/>
         <polygon points="511 17 503 13 503 21"/>
      </svg>
