      <svg xmlns="http://www.w3.org/2000/svg" width="570" height="200">
         <defs>
            <style type="text/css">
               @namespace "http://www.w3.org/2000/svg";
               .line                 {fill: none; stroke: #1F1F1F;}
               .bold-line            {stroke: #0A0A0A; shape-rendering: crispEdges; stroke-width:
               2; }
               .thin-line            {stroke: #0F0F0F; shape-rendering: crispEdges}
               .filled               {fill: #1F1F1F; stroke: none;}
               text.terminal         {font-family: Verdana, Sans-serif;
               font-size: 12px;
               fill: #0A0A0A;
               font-weight: bold;
               }
               text.nonterminal      {font-family: Verdana, Sans-serif; font-style: italic;
               font-size: 12px;
               fill: #0D0D0D;
               }
               text.regexp           {font-family: Verdana, Sans-serif;
               font-size: 12px;
               fill: #0F0F0F;
               }
               rect, circle, polygon {fill: #1F1F1F; stroke: #1F1F1F;}
               rect.terminal         {fill: #CCCCCC; stroke: #1F1F1F;}
               rect.nonterminal      {fill: #E3E3E3; stroke: #1F1F1F;}
               rect.text             {fill: none; stroke: none;}    
               polygon.regexp        {fill: #EFEFEF; stroke: #1F1F1F;}
               
            </style>
         </defs>
         <polygon points="9 17 1 13 1 21"/>
         <polygon points="17 17 9 13 9 21"/>
         <rect x="31" y="3" width="78" height="32" rx="10"/>
         <rect x="29" y="1" width="78" height="32" class="terminal" rx="10"/>
         <text class="terminal" x="39" y="21">position(</text>
         <rect x="149" y="35" width="30" height="32" rx="10"/>
         <rect x="147" y="33" width="30" height="32" class="terminal" rx="10"/>
         <text class="terminal" x="157" y="53">=</text>
         <rect x="149" y="79" width="30" height="32" rx="10"/>
         <rect x="147" y="77" width="30" height="32" class="terminal" rx="10"/>
         <text class="terminal" x="157" y="97">&lt;</text>
         <rect x="149" y="123" width="30" height="32" rx="10"/>
         <rect x="147" y="121" width="30" height="32" class="terminal" rx="10"/>
         <text class="terminal" x="157" y="141">+</text>
         <rect x="149" y="167" width="26" height="32" rx="10"/>
         <rect x="147" y="165" width="26" height="32" class="terminal" rx="10"/>
         <text class="terminal" x="157" y="185">-</text>
<!--     <a xmlns:xlink="http://www.w3.org/1999/xlink" xlink:href="#offset" xlink:title="offset"> -->
            <rect x="219" y="3" width="54" height="32"/>
            <rect x="217" y="1" width="54" height="32" class="nonterminal"/>
            <text class="nonterminal" x="227" y="21">offset</text>
<!--     </a> -->
         <rect x="313" y="35" width="54" height="32" rx="10"/>
         <rect x="311" y="33" width="54" height="32" class="terminal" rx="10"/>
         <text class="terminal" x="321" y="53">Read</text>
         <rect x="313" y="79" width="54" height="32" rx="10"/>
         <rect x="311" y="77" width="54" height="32" class="terminal" rx="10"/>
         <text class="terminal" x="321" y="97">Write</text>
         <rect x="427" y="35" width="50" height="32" rx="10"/>
         <rect x="425" y="33" width="50" height="32" class="terminal" rx="10"/>
         <text class="terminal" x="435" y="53">Char</text>
         <rect x="427" y="79" width="46" height="32" rx="10"/>
         <rect x="425" y="77" width="46" height="32" class="terminal" rx="10"/>
         <text class="terminal" x="435" y="97">Line</text>
         <rect x="517" y="3" width="26" height="32" rx="10"/>
         <rect x="515" y="1" width="26" height="32" class="terminal" rx="10"/>
         <text class="terminal" x="525" y="21">)</text>
         <svg:path xmlns:svg="http://www.w3.org/2000/svg" class="line" d="m17 17 h2 m0 0 h10 m78 0 h10 m20 0 h10 m0 0 h40 m-70 0 h20 m50 0 h20 m-90 0 q10 0 10 10 m70 0 q0 -10 10 -10 m-80 10 v12 m70 0 v-12 m-70 12 q0 10 10 10 m50 0 q10 0 10 -10 m-60 10 h10 m30 0 h10 m-60 -10 v20 m70 0 v-20 m-70 20 v24 m70 0 v-24 m-70 24 q0 10 10 10 m50 0 q10 0 10 -10 m-60 10 h10 m30 0 h10 m-60 -10 v20 m70 0 v-20 m-70 20 v24 m70 0 v-24 m-70 24 q0 10 10 10 m50 0 q10 0 10 -10 m-60 10 h10 m30 0 h10 m-60 -10 v20 m70 0 v-20 m-70 20 v24 m70 0 v-24 m-70 24 q0 10 10 10 m50 0 q10 0 10 -10 m-60 10 h10 m26 0 h10 m0 0 h4 m20 -164 h10 m54 0 h10 m20 0 h10 m0 0 h64 m-94 0 h20 m74 0 h20 m-114 0 q10 0 10 10 m94 0 q0 -10 10 -10 m-104 10 v12 m94 0 v-12 m-94 12 q0 10 10 10 m74 0 q10 0 10 -10 m-84 10 h10 m54 0 h10 m-84 -10 v20 m94 0 v-20 m-94 20 v24 m94 0 v-24 m-94 24 q0 10 10 10 m74 0 q10 0 10 -10 m-84 10 h10 m54 0 h10 m40 -76 h10 m0 0 h60 m-90 0 h20 m70 0 h20 m-110 0 q10 0 10 10 m90 0 q0 -10 10 -10 m-100 10 v12 m90 0 v-12 m-90 12 q0 10 10 10 m70 0 q10 0 10 -10 m-80 10 h10 m50 0 h10 m-80 -10 v20 m90 0 v-20 m-90 20 v24 m90 0 v-24 m-90 24 q0 10 10 10 m70 0 q10 0 10 -10 m-80 10 h10 m46 0 h10 m0 0 h4 m20 -76 h10 m26 0 h10 m3 0 h-3"/>
         <polygon points="561 17 569 13 569 21"/>
         <polygon points="561 17 553 13 553 21"/>
      </svg>
