<svg xmlns="http://www.w3.org/2000/svg" width="487" height="69">
         <defs>
            <style type="text/css">
    @namespace "http://www.w3.org/2000/svg";
    .line                 {fill: none; stroke: #1F1F1F; stroke-width: 1;}
    .bold-line            {stroke: #0A0A0A; shape-rendering: crispEdges; stroke-width: 2;}
    .thin-line            {stroke: #0F0F0F; shape-rendering: crispEdges}
    .filled               {fill: #1F1F1F; stroke: none;}
    text.terminal         {font-family: Verdana, Sans-serif;
                            font-size: 12px;
                            fill: #0A0A0A;
                            font-weight: bold;
                          }
    text.nonterminal      {font-family: Verdana, Sans-serif; font-style: italic;
                            font-size: 12px;
                            fill: #0D0D0D;
                            font-weight: normal;
                          }
    text.regexp           {font-family: Verdana, Sans-serif;
                            font-size: 12px;
                            fill: #0F0F0F;
                            font-weight: normal;
                          }
    rect, circle, polygon {fill: #1F1F1F; stroke: #1F1F1F;}
    rect.terminal         {fill: #cccccc; stroke: #1F1F1F; stroke-width: 1;}
    rect.nonterminal      {fill: #E3E3E3; stroke: #1F1F1F; stroke-width: 1;}
    rect.text             {fill: none; stroke: none;}
    polygon.regexp        {fill: #EFEFEF; stroke: #1F1F1F; stroke-width: 1;}
  </style>
         </defs>
         <polygon points="9 17 1 13 1 21"/>
         <polygon points="17 17 9 13 9 21"/>
         <rect x="31" y="3" width="144" height="32" rx="10"/>
         <rect x="29" y="1" width="144" height="32" class="terminal" rx="10"/>
         <text class="terminal" x="39" y="21">caselessWordPos(</text>
<!--  <a xmlns:xlink="http://www.w3.org/1999/xlink" xlink:href="#phrase" xlink:title="phrase"> -->
            <rect x="195" y="3" width="64" height="32"/>
            <rect x="193" y="1" width="64" height="32" class="nonterminal"/>
            <text class="nonterminal" x="203" y="21">phrase</text><!-- </a> -->
<rect x="299" y="35" width="24" height="32" rx="10"/>
         <rect x="297" y="33" width="24" height="32" class="terminal" rx="10"/>
         <text class="terminal" x="307" y="53">,</text>
<!--  <a xmlns:xlink="http://www.w3.org/1999/xlink" xlink:href="#start" xlink:title="start"> -->
            <rect x="343" y="35" width="50" height="32"/>
            <rect x="341" y="33" width="50" height="32" class="nonterminal"/>
            <text class="nonterminal" x="351" y="53">start</text><!-- </a> -->
<rect x="433" y="3" width="26" height="32" rx="10"/>
         <rect x="431" y="1" width="26" height="32" class="terminal" rx="10"/>
         <text class="terminal" x="441" y="21">)</text>
         <svg:path xmlns:svg="http://www.w3.org/2000/svg" class="line" d="m17 17 h2 m0 0 h10 m144 0 h10 m0 0 h10 m64 0 h10 m20 0 h10 m0 0 h104 m-134 0 h20 m114 0 h20 m-154 0 q10 0 10 10 m134 0 q0 -10 10 -10 m-144 10 v12 m134 0 v-12 m-134 12 q0 10 10 10 m114 0 q10 0 10 -10 m-124 10 h10 m24 0 h10 m0 0 h10 m50 0 h10 m20 -32 h10 m26 0 h10 m3 0 h-3"/>
         <polygon points="477 17 485 13 485 21"/>
         <polygon points="477 17 469 13 469 21"/></svg>
