      <svg xmlns="http://www.w3.org/2000/svg" width="478" height="68">
         <defs>
            <style type="text/css">
               @namespace "http://www.w3.org/2000/svg";
               .line                 {fill: none; stroke: #1F1F1F;}
               .bold-line            {stroke: #0A0A0A; shape-rendering: crispEdges; stroke-width:
               2; }
               .thin-line            {stroke: #0F0F0F; shape-rendering: crispEdges}
               .filled               {fill: #1F1F1F; stroke: none;}
               text.terminal         {font-family: Verdana, Sans-serif;
               font-size: 12px;
               fill: #0A0A0A;
               font-weight: bold;
               }
               text.nonterminal      {font-family: Verdana, Sans-serif;
               font-size: 12px;
               fill: #0D0D0D;
               }
               text.regexp           {font-family: Verdana, Sans-serif;
               font-size: 12px;
               fill: #0F0F0F;
               }
               rect, circle, polygon {fill: #1F1F1F; stroke: #1F1F1F;}
               rect.terminal         {fill: #CCCCCC; stroke: #1F1F1F;}
               rect.nonterminal      {fill: #E3E3E3; stroke: #1F1F1F;}
               rect.text             {fill: none; stroke: none;}    
               polygon.regexp        {fill: #EFEFEF; stroke: #1F1F1F;}
               
            </style>
         </defs>
         <polygon points="9 17 1 13 1 21"/>
         <polygon points="17 17 9 13 9 21"/>
         <rect x="31" y="3" width="50" height="32" rx="10"/>
         <rect x="29" y="1" width="50" height="32" class="terminal" rx="10"/>
         <text class="terminal" x="39" y="21">strip</text>
         <rect x="121" y="3" width="26" height="32" rx="10"/>
         <rect x="119" y="1" width="26" height="32" class="terminal" rx="10"/>
         <text class="terminal" x="129" y="21">(</text>
         <a xmlns:xlink="http://www.w3.org/1999/xlink" xlink:href="#option" xlink:title="option">
            <rect x="167" y="3" width="60" height="32"/>
            <rect x="165" y="1" width="60" height="32" class="nonterminal"/>
            <text class="nonterminal" x="175" y="21">option</text>
         </a>
         <rect x="267" y="3" width="24" height="32" rx="10"/>
         <rect x="265" y="1" width="24" height="32" class="terminal" rx="10"/>
         <text class="terminal" x="275" y="21">,</text>
         <a xmlns:xlink="http://www.w3.org/1999/xlink" xlink:href="#chars" xlink:title="chars">
            <rect x="311" y="3" width="54" height="32"/>
            <rect x="309" y="1" width="54" height="32" class="nonterminal"/>
            <text class="nonterminal" x="319" y="21">chars</text>
         </a>
         <rect x="405" y="3" width="26" height="32" rx="10"/>
         <rect x="403" y="1" width="26" height="32" class="terminal" rx="10"/>
         <text class="terminal" x="413" y="21">)</text>
         <svg:path xmlns:svg="http://www.w3.org/2000/svg" class="line" d="m17 17 h2 m0 0 h10 m50 0 h10 m20 0 h10 m26 0 h10 m0 0 h10 m60 0 h10 m20 0 h10 m24 0 h10 m0 0 h10 m54 0 h10 m-138 0 h20 m118 0 h20 m-158 0 q10 0 10 10 m138 0 q0 -10 10 -10 m-148 10 v14 m138 0 v-14 m-138 14 q0 10 10 10 m118 0 q10 0 10 -10 m-128 10 h10 m0 0 h108 m20 -34 h10 m26 0 h10 m-350 0 h20 m330 0 h20 m-370 0 q10 0 10 10 m350 0 q0 -10 10 -10 m-360 10 v30 m350 0 v-30 m-350 30 q0 10 10 10 m330 0 q10 0 10 -10 m-340 10 h10 m0 0 h320 m23 -50 h-3"/>
         <polygon points="469 17 477 13 477 21"/>
         <polygon points="469 17 461 13 461 21"/>
      </svg>
