      <svg xmlns="http://www.w3.org/2000/svg" width="710" height="68">
         <defs>
            <style type="text/css">
               @namespace "http://www.w3.org/2000/svg";
               .line                 {fill: none; stroke: #1F1F1F;}
               .bold-line            {stroke: #0A0A0A; shape-rendering: crispEdges; stroke-width:
               2; }
               .thin-line            {stroke: #0F0F0F; shape-rendering: crispEdges}
               .filled               {fill: #1F1F1F; stroke: none;}
               text.terminal         {font-family: Verdana, Sans-serif;
               font-size: 12px;
               fill: #0A0A0A;
               font-weight: bold;
               }
               text.nonterminal      {font-family: Verdana, Sans-serif; font-style: italic;
               font-size: 12px;
               fill: #0D0D0D;
               }
               text.regexp           {font-family: Verdana, Sans-serif;
               font-size: 12px;
               fill: #0F0F0F;
               }
               rect, circle, polygon {fill: #1F1F1F; stroke: #1F1F1F;}
               rect.terminal         {fill: #CCCCCC; stroke: #1F1F1F;}
               rect.nonterminal      {fill: #E3E3E3; stroke: #1F1F1F;}
               rect.text             {fill: none; stroke: none;}    
               polygon.regexp        {fill: #EFEFEF; stroke: #1F1F1F;}
               
            </style>
         </defs>
         <polygon points="9 17 1 13 1 21"/>
         <polygon points="17 17 9 13 9 21"/>
         <rect x="31" y="3" width="122" height="32" rx="10"/>
         <rect x="29" y="1" width="122" height="32" class="terminal" rx="10"/>
         <text class="terminal" x="39" y="21">caselessMatch(</text>
<!--     <a xmlns:xlink="http://www.w3.org/1999/xlink" xlink:href="#start" xlink:title="start"> -->
            <rect x="173" y="3" width="50" height="32"/>
            <rect x="171" y="1" width="50" height="32" class="nonterminal"/>
            <text class="nonterminal" x="181" y="21">start</text>
<!--     </a> -->
         <rect x="243" y="3" width="24" height="32" rx="10"/>
         <rect x="241" y="1" width="24" height="32" class="terminal" rx="10"/>
         <text class="terminal" x="251" y="21">,</text>
<!--     <a xmlns:xlink="http://www.w3.org/1999/xlink" xlink:href="#other" xlink:title="other"> -->
            <rect x="287" y="3" width="54" height="32"/>
            <rect x="285" y="1" width="54" height="32" class="nonterminal"/>
            <text class="nonterminal" x="295" y="21">other</text>
<!--     </a> -->
         <rect x="361" y="3" width="24" height="32" rx="10"/>
         <rect x="359" y="1" width="24" height="32" class="terminal" rx="10"/>
         <text class="terminal" x="369" y="21">,</text>
<!--     <a xmlns:xlink="http://www.w3.org/1999/xlink" xlink:href="#n" xlink:title="n"> -->
            <rect x="425" y="35" width="28" height="32"/>
            <rect x="423" y="33" width="28" height="32" class="nonterminal"/>
            <text class="nonterminal" x="433" y="53">n</text>
<!--     </a> -->
         <rect x="513" y="35" width="24" height="32" rx="10"/>
         <rect x="511" y="33" width="24" height="32" class="terminal" rx="10"/>
         <text class="terminal" x="521" y="53">,</text>
<!--     <a xmlns:xlink="http://www.w3.org/1999/xlink" xlink:href="#length" xlink:title="length"> -->
            <rect x="557" y="35" width="60" height="32"/>
            <rect x="555" y="33" width="60" height="32" class="nonterminal"/>
            <text class="nonterminal" x="565" y="53">length</text>
<!--     </a> -->
         <rect x="657" y="3" width="26" height="32" rx="10"/>
         <rect x="655" y="1" width="26" height="32" class="terminal" rx="10"/>
         <text class="terminal" x="665" y="21">)</text>
         <svg:path xmlns:svg="http://www.w3.org/2000/svg" class="line" d="m17 17 h2 m0 0 h10 m122 0 h10 m0 0 h10 m50 0 h10 m0 0 h10 m24 0 h10 m0 0 h10 m54 0 h10 m0 0 h10 m24 0 h10 m20 0 h10 m0 0 h38 m-68 0 h20 m48 0 h20 m-88 0 q10 0 10 10 m68 0 q0 -10 10 -10 m-78 10 v12 m68 0 v-12 m-68 12 q0 10 10 10 m48 0 q10 0 10 -10 m-58 10 h10 m28 0 h10 m40 -32 h10 m0 0 h114 m-144 0 h20 m124 0 h20 m-164 0 q10 0 10 10 m144 0 q0 -10 10 -10 m-154 10 v12 m144 0 v-12 m-144 12 q0 10 10 10 m124 0 q10 0 10 -10 m-134 10 h10 m24 0 h10 m0 0 h10 m60 0 h10 m20 -32 h10 m26 0 h10 m3 0 h-3"/>
         <polygon points="701 17 709 13 709 21"/>
         <polygon points="701 17 693 13 693 21"/>
      </svg>
