      <svg xmlns="http://www.w3.org/2000/svg" width="366" height="96">
         <defs>
            <style type="text/css">
               @namespace "http://www.w3.org/2000/svg";
               .line                 {fill: none; stroke: #1F1F1F;}
               .bold-line            {stroke: #0A0A0A; shape-rendering: crispEdges; stroke-width:
               2; }
               .thin-line            {stroke: #0F0F0F; shape-rendering: crispEdges}
               .filled               {fill: #1F1F1F; stroke: none;}
               text.terminal         {font-family: Verdana, Sans-serif;
               font-size: 12px;
               fill: #0A0A0A;
               font-weight: bold;
               }
               text.nonterminal      {font-family: Verdana, Sans-serif; font-style: italic;
               font-size: 12px;
               fill: #0D0D0D;
               }
               text.regexp           {font-family: Verdana, Sans-serif;
               font-size: 12px;
               fill: #0F0F0F;
               }
               rect, circle, polygon {fill: #1F1F1F; stroke: #1F1F1F;}
               rect.terminal         {fill: #CCCCCC; stroke: #1F1F1F;}
               rect.nonterminal      {fill: #E3E3E3; stroke: #1F1F1F;}
               rect.text             {fill: none; stroke: none;}    
               polygon.regexp        {fill: #EFEFEF; stroke: #1F1F1F;}
               
            </style>
         </defs>
         <polygon points="9 61 1 57 1 65"/>
         <polygon points="17 61 9 57 9 65"/>
         <rect x="31" y="47" width="48" height="32" rx="10"/>
         <rect x="29" y="45" width="48" height="32" class="terminal" rx="10"/>
         <text class="terminal" x="39" y="65">max</text>
         <rect x="119" y="47" width="26" height="32" rx="10"/>
         <rect x="117" y="45" width="26" height="32" class="terminal" rx="10"/>
         <text class="terminal" x="127" y="65">(</text>
<!--     <a xmlns:xlink="http://www.w3.org/1999/xlink" xlink:href="#number" xlink:title="number"> -->
            <rect x="185" y="47" width="68" height="32"/>
            <rect x="183" y="45" width="68" height="32" class="nonterminal"/>
            <text class="nonterminal" x="193" y="65">number</text>
<!--     </a> -->
         <rect x="185" y="3" width="24" height="32" rx="10"/>
         <rect x="183" y="1" width="24" height="32" class="terminal" rx="10"/>
         <text class="terminal" x="193" y="21">,</text>
         <rect x="293" y="47" width="26" height="32" rx="10"/>
         <rect x="291" y="45" width="26" height="32" class="terminal" rx="10"/>
         <text class="terminal" x="301" y="65">)</text>
         <svg:path xmlns:svg="http://www.w3.org/2000/svg" class="line" d="m17 61 h2 m0 0 h10 m48 0 h10 m20 0 h10 m26 0 h10 m20 0 h10 m68 0 h10 m-108 0 l20 0 m-1 0 q-9 0 -9 -10 l0 -24 q0 -10 10 -10 m88 44 l20 0 m-20 0 q10 0 10 -10 l0 -24 q0 -10 -10 -10 m-88 0 h10 m24 0 h10 m0 0 h44 m20 44 h10 m26 0 h10 m-240 0 h20 m220 0 h20 m-260 0 q10 0 10 10 m240 0 q0 -10 10 -10 m-250 10 v14 m240 0 v-14 m-240 14 q0 10 10 10 m220 0 q10 0 10 -10 m-230 10 h10 m0 0 h210 m23 -34 h-3"/>
         <polygon points="357 61 365 57 365 65"/>
         <polygon points="357 61 349 57 349 65"/>
      </svg>
