      <svg xmlns="http://www.w3.org/2000/svg" width="618" height="100">
         <defs>
            <style type="text/css">
               @namespace "http://www.w3.org/2000/svg";
               .line                 {fill: none; stroke: #1F1F1F;}
               .bold-line            {stroke: #0A0A0A; shape-rendering: crispEdges; stroke-width:
               2; }
               .thin-line            {stroke: #0F0F0F; shape-rendering: crispEdges}
               .filled               {fill: #1F1F1F; stroke: none;}
               text.terminal         {font-family: Verdana, Sans-serif;
               font-size: 12px;
               fill: #0A0A0A;
               font-weight: bold;
               }
               text.nonterminal      {font-family: Verdana, Sans-serif; font-style: italic;
               font-size: 12px;
               fill: #0D0D0D;
               }
               text.regexp           {font-family: Verdana, Sans-serif;
               font-size: 12px;
               fill: #0F0F0F;
               }
               rect, circle, polygon {fill: #1F1F1F; stroke: #1F1F1F;}
               rect.terminal         {fill: #CCCCCC; stroke: #1F1F1F;}
               rect.nonterminal      {fill: #E3E3E3; stroke: #1F1F1F;}
               rect.text             {fill: none; stroke: none;}    
               polygon.regexp        {fill: #EFEFEF; stroke: #1F1F1F;}
               
            </style>
         </defs>
         <polygon points="9 17 1 13 1 21"/>
         <polygon points="17 17 9 13 9 21"/>
         <rect x="31" y="3" width="82" height="32" rx="10"/>
         <rect x="29" y="1" width="82" height="32" class="terminal" rx="10"/>
         <text class="terminal" x="39" y="21">contains(</text>
<!--     <a xmlns:xlink="http://www.w3.org/1999/xlink" xlink:href="#other" xlink:title="other"> -->
            <rect x="133" y="3" width="54" height="32"/>
            <rect x="131" y="1" width="54" height="32" class="nonterminal"/>
            <text class="nonterminal" x="141" y="21">other</text>
<!--     </a> -->
         <rect x="227" y="35" width="24" height="32" rx="10"/>
         <rect x="225" y="33" width="24" height="32" class="terminal" rx="10"/>
         <text class="terminal" x="235" y="53">,</text>
<!--     <a xmlns:xlink="http://www.w3.org/1999/xlink" xlink:href="#start" xlink:title="start"> -->
            <rect x="291" y="67" width="50" height="32"/>
            <rect x="289" y="65" width="50" height="32" class="nonterminal"/>
            <text class="nonterminal" x="299" y="85">start</text>
<!--     </a> -->
         <rect x="401" y="67" width="24" height="32" rx="10"/>
         <rect x="399" y="65" width="24" height="32" class="terminal" rx="10"/>
         <text class="terminal" x="409" y="85">,</text>
<!--     <a xmlns:xlink="http://www.w3.org/1999/xlink" xlink:href="#length" xlink:title="length"> -->
            <rect x="445" y="67" width="60" height="32"/>
            <rect x="443" y="65" width="60" height="32" class="nonterminal"/>
            <text class="nonterminal" x="453" y="85">length</text>
<!--     </a> -->
         <rect x="565" y="3" width="26" height="32" rx="10"/>
         <rect x="563" y="1" width="26" height="32" class="terminal" rx="10"/>
         <text class="terminal" x="573" y="21">)</text>
         <svg:path xmlns:svg="http://www.w3.org/2000/svg" class="line" d="m17 17 h2 m0 0 h10 m82 0 h10 m0 0 h10 m54 0 h10 m20 0 h10 m0 0 h308 m-338 0 h20 m318 0 h20 m-358 0 q10 0 10 10 m338 0 q0 -10 10 -10 m-348 10 v12 m338 0 v-12 m-338 12 q0 10 10 10 m318 0 q10 0 10 -10 m-328 10 h10 m24 0 h10 m20 0 h10 m0 0 h60 m-90 0 h20 m70 0 h20 m-110 0 q10 0 10 10 m90 0 q0 -10 10 -10 m-100 10 v12 m90 0 v-12 m-90 12 q0 10 10 10 m70 0 q10 0 10 -10 m-80 10 h10 m50 0 h10 m40 -32 h10 m0 0 h114 m-144 0 h20 m124 0 h20 m-164 0 q10 0 10 10 m144 0 q0 -10 10 -10 m-154 10 v12 m144 0 v-12 m-144 12 q0 10 10 10 m124 0 q10 0 10 -10 m-134 10 h10 m24 0 h10 m0 0 h10 m60 0 h10 m40 -64 h10 m26 0 h10 m3 0 h-3"/>
         <polygon points="609 17 617 13 617 21"/>
         <polygon points="609 17 601 13 601 21"/>
      </svg>
