      <svg xmlns="http://www.w3.org/2000/svg" width="364" height="36">
         <defs>
            <style type="text/css">
               @namespace "http://www.w3.org/2000/svg";
               .line                 {fill: none; stroke: #1F1F1F;}
               .bold-line            {stroke: #0A0A0A; shape-rendering: crispEdges; stroke-width:
               2; }
               .thin-line            {stroke: #0F0F0F; shape-rendering: crispEdges}
               .filled               {fill: #1F1F1F; stroke: none;}
               text.terminal         {font-family: Verdana, Sans-serif;
               font-size: 12px;
               fill: #0A0A0A;
               font-weight: bold;
               }
               text.nonterminal      {font-family: Verdana, Sans-serif; font-style: italic;
               font-size: 12px;
               fill: #0D0D0D;
               }
               text.regexp           {font-family: Verdana, Sans-serif;
               font-size: 12px;
               fill: #0F0F0F;
               }
               rect, circle, polygon {fill: #1F1F1F; stroke: #1F1F1F;}
               rect.terminal         {fill: #CCCCCC; stroke: #1F1F1F;}
               rect.nonterminal      {fill: #E3E3E3; stroke: #1F1F1F;}
               rect.text             {fill: none; stroke: none;}    
               polygon.regexp        {fill: #EFEFEF; stroke: #1F1F1F;}
               
            </style>
         </defs>
         <polygon points="9 17 1 13 1 21"/>
         <polygon points="17 17 9 13 9 21"/>
         <rect x="31" y="3" width="98" height="32" rx="10"/>
         <rect x="29" y="1" width="98" height="32" class="terminal" rx="10"/>
         <text class="terminal" x="39" y="21">matchChar(</text>
<!--     <a xmlns:xlink="http://www.w3.org/1999/xlink" xlink:href="#n" xlink:title="n"> -->
            <rect x="149" y="3" width="26" height="32"/>
            <rect x="147" y="1" width="26" height="32" class="nonterminal"/>
            <text class="nonterminal" x="157" y="21">n</text>
<!--     </a> -->
         <rect x="195" y="3" width="24" height="32" rx="10"/>
         <rect x="193" y="1" width="24" height="32" class="terminal" rx="10"/>
         <text class="terminal" x="203" y="21">,</text>
<!--     <a xmlns:xlink="http://www.w3.org/1999/xlink" xlink:href="#chars" xlink:title="chars"> -->
            <rect x="239" y="3" width="52" height="32"/>
            <rect x="237" y="1" width="52" height="32" class="nonterminal"/>
            <text class="nonterminal" x="247" y="21">chars</text>
<!--     </a> -->
         <rect x="311" y="3" width="26" height="32" rx="10"/>
         <rect x="309" y="1" width="26" height="32" class="terminal" rx="10"/>
         <text class="terminal" x="319" y="21">)</text>
         <svg:path xmlns:svg="http://www.w3.org/2000/svg" class="line" d="m17 17 h2 m0 0 h10 m98 0 h10 m0 0 h10 m26 0 h10 m0 0 h10 m24 0 h10 m0 0 h10 m52 0 h10 m0 0 h10 m26 0 h10 m3 0 h-3"/>
         <polygon points="355 17 363 13 363 21"/>
         <polygon points="355 17 347 13 347 21"/>
      </svg>
