      <svg xmlns="http://www.w3.org/2000/svg" width="462" height="68">
         <defs>
            <style type="text/css">
               @namespace "http://www.w3.org/2000/svg";
               .line                 {fill: none; stroke: #1F1F1F;}
               .bold-line            {stroke: #0A0A0A; shape-rendering: crispEdges; stroke-width:
               2; }
               .thin-line            {stroke: #0F0F0F; shape-rendering: crispEdges}
               .filled               {fill: #1F1F1F; stroke: none;}
               text.terminal         {font-family: Verdana, Sans-serif;
               font-size: 12px;
               fill: #0A0A0A;
               font-weight: bold;
               }
               text.nonterminal      {font-family: Verdana, Sans-serif; font-style: italic;
               font-size: 12px;
               fill: #0D0D0D;
               }
               text.regexp           {font-family: Verdana, Sans-serif;
               font-size: 12px;
               fill: #0F0F0F;
               }
               rect, circle, polygon {fill: #1F1F1F; stroke: #1F1F1F;}
               rect.terminal         {fill: #CCCCCC; stroke: #1F1F1F;}
               rect.nonterminal      {fill: #E3E3E3; stroke: #1F1F1F;}
               rect.text             {fill: none; stroke: none;}    
               polygon.regexp        {fill: #EFEFEF; stroke: #1F1F1F;}
               
            </style>
         </defs>
         <polygon points="9 17 1 13 1 21"/>
         <polygon points="17 17 9 13 9 21"/>
         <rect x="31" y="3" width="140" height="32" rx="10"/>
         <rect x="29" y="1" width="140" height="32" class="terminal" rx="10"/>
         <text class="terminal" x="39" y="21">caselessCompare(</text>
<!--     <a xmlns:xlink="http://www.w3.org/1999/xlink" xlink:href="#string" xlink:title="string"> -->
            <rect x="191" y="3" width="52" height="32"/>
            <rect x="189" y="1" width="52" height="32" class="nonterminal"/>
            <text class="nonterminal" x="199" y="21">string</text>
<!--     </a> -->
         <rect x="283" y="35" width="24" height="32" rx="10"/>
         <rect x="281" y="33" width="24" height="32" class="terminal" rx="10"/>
         <text class="terminal" x="291" y="53">,</text>
<!--     <a xmlns:xlink="http://www.w3.org/1999/xlink" xlink:href="#pad" xlink:title="pad"> -->
            <rect x="327" y="35" width="42" height="32"/>
            <rect x="325" y="33" width="42" height="32" class="nonterminal"/>
            <text class="nonterminal" x="335" y="53">pad</text>
<!--     </a> -->
         <rect x="409" y="3" width="26" height="32" rx="10"/>
         <rect x="407" y="1" width="26" height="32" class="terminal" rx="10"/>
         <text class="terminal" x="417" y="21">)</text>
         <svg:path xmlns:svg="http://www.w3.org/2000/svg" class="line" d="m17 17 h2 m0 0 h10 m140 0 h10 m0 0 h10 m52 0 h10 m20 0 h10 m0 0 h96 m-126 0 h20 m106 0 h20 m-146 0 q10 0 10 10 m126 0 q0 -10 10 -10 m-136 10 v12 m126 0 v-12 m-126 12 q0 10 10 10 m106 0 q10 0 10 -10 m-116 10 h10 m24 0 h10 m0 0 h10 m42 0 h10 m20 -32 h10 m26 0 h10 m3 0 h-3"/>
         <polygon points="453 17 461 13 461 21"/>
         <polygon points="453 17 445 13 445 21"/>
      </svg>
