      <svg xmlns="http://www.w3.org/2000/svg" width="876" height="100">
         <defs>
            <style type="text/css">
               @namespace "http://www.w3.org/2000/svg";
               .line                 {fill: none; stroke: #1F1F1F;}
               .bold-line            {stroke: #0A0A0A; shape-rendering: crispEdges; stroke-width:
               2; }
               .thin-line            {stroke: #0F0F0F; shape-rendering: crispEdges}
               .filled               {fill: #1F1F1F; stroke: none;}
               text.terminal         {font-family: Verdana, Sans-serif;
               font-size: 12px;
               fill: #0A0A0A;
               font-weight: bold;
               }
               text.nonterminal      {font-family: Verdana, Sans-serif;
               font-size: 12px;
               fill: #0D0D0D;
               }
               text.regexp           {font-family: Verdana, Sans-serif;
               font-size: 12px;
               fill: #0F0F0F;
               }
               rect, circle, polygon {fill: #1F1F1F; stroke: #1F1F1F;}
               rect.terminal         {fill: #CCCCCC; stroke: #1F1F1F;}
               rect.nonterminal      {fill: #E3E3E3; stroke: #1F1F1F;}
               rect.text             {fill: none; stroke: none;}    
               polygon.regexp        {fill: #EFEFEF; stroke: #1F1F1F;}
               
            </style>
         </defs>
         <polygon points="9 17 1 13 1 21"/>
         <polygon points="17 17 9 13 9 21"/>
         <rect x="31" y="3" width="72" height="32" rx="10"/>
         <rect x="29" y="1" width="72" height="32" class="terminal" rx="10"/>
         <text class="terminal" x="39" y="21">format{</text>
         <a xmlns:xlink="http://www.w3.org/1999/xlink" xlink:href="#before" xlink:title="before">
            <rect x="163" y="3" width="60" height="32"/>
            <rect x="161" y="1" width="60" height="32" class="nonterminal"/>
            <text class="nonterminal" x="171" y="21">before</text>
         </a>
         <rect x="283" y="3" width="24" height="32" rx="10"/>
         <rect x="281" y="1" width="24" height="32" class="terminal" rx="10"/>
         <text class="terminal" x="291" y="21">,</text>
         <a xmlns:xlink="http://www.w3.org/1999/xlink" xlink:href="#after" xlink:title="after">
            <rect x="347" y="3" width="50" height="32"/>
            <rect x="345" y="1" width="50" height="32" class="nonterminal"/>
            <text class="nonterminal" x="355" y="21">after</text>
         </a>
         <rect x="457" y="3" width="24" height="32" rx="10"/>
         <rect x="455" y="1" width="24" height="32" class="terminal" rx="10"/>
         <text class="terminal" x="465" y="21">,</text>
         <a xmlns:xlink="http://www.w3.org/1999/xlink" xlink:href="#expp" xlink:title="expp">
            <rect x="521" y="3" width="50" height="32"/>
            <rect x="519" y="1" width="50" height="32" class="nonterminal"/>
            <text class="nonterminal" x="529" y="21">expp</text>
         </a>
         <rect x="631" y="3" width="24" height="32" rx="10"/>
         <rect x="629" y="1" width="24" height="32" class="terminal" rx="10"/>
         <text class="terminal" x="639" y="21">,</text>
         <a xmlns:xlink="http://www.w3.org/1999/xlink" xlink:href="#expt" xlink:title="expt">
            <rect x="675" y="3" width="48" height="32"/>
            <rect x="673" y="1" width="48" height="32" class="nonterminal"/>
            <text class="nonterminal" x="683" y="21">expt</text>
         </a>
         <rect x="823" y="3" width="26" height="32" rx="10"/>
         <rect x="821" y="1" width="26" height="32" class="terminal" rx="10"/>
         <text class="terminal" x="831" y="21">)</text>
         <svg:path xmlns:svg="http://www.w3.org/2000/svg" class="line" d="m17 17 h2 m0 0 h10 m72 0 h10 m40 0 h10 m60 0 h10 m-100 0 h20 m80 0 h20 m-120 0 q10 0 10 10 m100 0 q0 -10 10 -10 m-110 10 v14 m100 0 v-14 m-100 14 q0 10 10 10 m80 0 q10 0 10 -10 m-90 10 h10 m0 0 h70 m40 -34 h10 m24 0 h10 m20 0 h10 m50 0 h10 m-90 0 h20 m70 0 h20 m-110 0 q10 0 10 10 m90 0 q0 -10 10 -10 m-100 10 v14 m90 0 v-14 m-90 14 q0 10 10 10 m70 0 q10 0 10 -10 m-80 10 h10 m0 0 h60 m40 -34 h10 m24 0 h10 m20 0 h10 m50 0 h10 m-90 0 h20 m70 0 h20 m-110 0 q10 0 10 10 m90 0 q0 -10 10 -10 m-100 10 v14 m90 0 v-14 m-90 14 q0 10 10 10 m70 0 q10 0 10 -10 m-80 10 h10 m0 0 h60 m40 -34 h10 m24 0 h10 m0 0 h10 m48 0 h10 m-132 0 h20 m112 0 h20 m-152 0 q10 0 10 10 m132 0 q0 -10 10 -10 m-142 10 v14 m132 0 v-14 m-132 14 q0 10 10 10 m112 0 q10 0 10 -10 m-122 10 h10 m0 0 h102 m-306 -34 h20 m306 0 h20 m-346 0 q10 0 10 10 m326 0 q0 -10 10 -10 m-336 10 v30 m326 0 v-30 m-326 30 q0 10 10 10 m306 0 q10 0 10 -10 m-316 10 h10 m0 0 h296 m-500 -50 h20 m500 0 h20 m-540 0 q10 0 10 10 m520 0 q0 -10 10 -10 m-530 10 v46 m520 0 v-46 m-520 46 q0 10 10 10 m500 0 q10 0 10 -10 m-510 10 h10 m0 0 h490 m-660 -66 h20 m660 0 h20 m-700 0 q10 0 10 10 m680 0 q0 -10 10 -10 m-690 10 v62 m680 0 v-62 m-680 62 q0 10 10 10 m660 0 q10 0 10 -10 m-670 10 h10 m0 0 h650 m20 -82 h10 m26 0 h10 m3 0 h-3"/>
         <polygon points="867 17 875 13 875 21"/>
         <polygon points="867 17 859 13 859 21"/>
      </svg>
