      <svg xmlns="http://www.w3.org/2000/svg" width="498" height="68">
         <defs>
            <style type="text/css">
               @namespace "http://www.w3.org/2000/svg";
               .line                 {fill: none; stroke: #1F1F1F;}
               .bold-line            {stroke: #0A0A0A; shape-rendering: crispEdges; stroke-width:
               2; }
               .thin-line            {stroke: #0F0F0F; shape-rendering: crispEdges}
               .filled               {fill: #1F1F1F; stroke: none;}
               text.terminal         {font-family: Verdana, Sans-serif;
               font-size: 12px;
               fill: #0A0A0A;
               font-weight: bold;
               }
               text.nonterminal      {font-family: Verdana, Sans-serif;
               font-size: 12px;
               fill: #0D0D0D;
               }
               text.regexp           {font-family: Verdana, Sans-serif;
               font-size: 12px;
               fill: #0F0F0F;
               }
               rect, circle, polygon {fill: #1F1F1F; stroke: #1F1F1F;}
               rect.terminal         {fill: #CCCCCC; stroke: #1F1F1F;}
               rect.nonterminal      {fill: #E3E3E3; stroke: #1F1F1F;}
               rect.text             {fill: none; stroke: none;}    
               polygon.regexp        {fill: #EFEFEF; stroke: #1F1F1F;}
               
            </style>
         </defs>
         <polygon points="9 33 1 29 1 37"/>
         <polygon points="17 33 9 29 9 37"/>
         <rect x="31" y="19" width="48" height="32" rx="10"/>
         <rect x="29" y="17" width="48" height="32" class="terminal" rx="10"/>
         <text class="terminal" x="39" y="37">max</text>
         <rect x="119" y="19" width="26" height="32" rx="10"/>
         <rect x="117" y="17" width="26" height="32" class="terminal" rx="10"/>
         <text class="terminal" x="127" y="37">(</text>
         <a xmlns:xlink="http://www.w3.org/1999/xlink" xlink:href="#number" xlink:title="number">
            <rect x="165" y="19" width="68" height="32"/>
            <rect x="163" y="17" width="68" height="32" class="nonterminal"/>
            <text class="nonterminal" x="173" y="37">number</text>
         </a>
         <rect x="273" y="19" width="24" height="32" rx="10"/>
         <rect x="271" y="17" width="24" height="32" class="terminal" rx="10"/>
         <text class="terminal" x="281" y="37">,</text>
         <a xmlns:xlink="http://www.w3.org/1999/xlink" xlink:href="#number" xlink:title="number">
            <rect x="317" y="19" width="68" height="32"/>
            <rect x="315" y="17" width="68" height="32" class="nonterminal"/>
            <text class="nonterminal" x="325" y="37">number</text>
         </a>
         <rect x="425" y="19" width="26" height="32" rx="10"/>
         <rect x="423" y="17" width="26" height="32" class="terminal" rx="10"/>
         <text class="terminal" x="433" y="37">)</text>
         <svg:path xmlns:svg="http://www.w3.org/2000/svg" class="line" d="m17 33 h2 m0 0 h10 m48 0 h10 m20 0 h10 m26 0 h10 m0 0 h10 m68 0 h10 m20 0 h10 m24 0 h10 m0 0 h10 m68 0 h10 m-152 0 l20 0 m-1 0 q-9 0 -9 -10 l0 -12 q0 -10 10 -10 m132 32 l20 0 m-20 0 q10 0 10 -10 l0 -12 q0 -10 -10 -10 m-132 0 h10 m0 0 h122 m20 32 h10 m26 0 h10 m-372 0 h20 m352 0 h20 m-392 0 q10 0 10 10 m372 0 q0 -10 10 -10 m-382 10 v14 m372 0 v-14 m-372 14 q0 10 10 10 m352 0 q10 0 10 -10 m-362 10 h10 m0 0 h342 m23 -34 h-3"/>
         <polygon points="489 33 497 29 497 37"/>
         <polygon points="489 33 481 29 481 37"/>
      </svg>
