      <svg xmlns="http://www.w3.org/2000/svg" width="518" height="68">
         <defs>
            <style type="text/css">
               @namespace "http://www.w3.org/2000/svg";
               .line                 {fill: none; stroke: #1F1F1F;}
               .bold-line            {stroke: #0A0A0A; shape-rendering: crispEdges; stroke-width:
               2; }
               .thin-line            {stroke: #0F0F0F; shape-rendering: crispEdges}
               .filled               {fill: #1F1F1F; stroke: none;}
               text.terminal         {font-family: Verdana, Sans-serif;
               font-size: 12px;
               fill: #0A0A0A;
               font-weight: bold;
               }
               text.nonterminal      {font-family: Verdana, Sans-serif; font-style: italic;
               font-size: 12px;
               fill: #0D0D0D;
               }
               text.regexp           {font-family: Verdana, Sans-serif;
               font-size: 12px;
               fill: #0F0F0F;
               }
               rect, circle, polygon {fill: #1F1F1F; stroke: #1F1F1F;}
               rect.terminal         {fill: #CCCCCC; stroke: #1F1F1F;}
               rect.nonterminal      {fill: #E3E3E3; stroke: #1F1F1F;}
               rect.text             {fill: none; stroke: none;}    
               polygon.regexp        {fill: #EFEFEF; stroke: #1F1F1F;}
               
            </style>
         </defs>
         <polygon points="9 17 1 13 1 21"/>
         <polygon points="17 17 9 13 9 21"/>
         <rect x="31" y="3" width="50" height="32" rx="10"/>
         <rect x="29" y="1" width="50" height="32" class="terminal" rx="10"/>
         <text class="terminal" x="39" y="21">strip</text>
         <rect x="121" y="3" width="26" height="32" rx="10"/>
         <rect x="119" y="1" width="26" height="32" class="terminal" rx="10"/>
         <text class="terminal" x="129" y="21">(</text>
<!--     <a xmlns:xlink="http://www.w3.org/1999/xlink" xlink:href="#option" xlink:title="option"> -->
            <rect x="187" y="3" width="60" height="32"/>
            <rect x="185" y="1" width="60" height="32" class="nonterminal"/>
            <text class="nonterminal" x="195" y="21">option</text>
<!--     </a> -->
         <rect x="287" y="3" width="24" height="32" rx="10"/>
         <rect x="285" y="1" width="24" height="32" class="terminal" rx="10"/>
         <text class="terminal" x="295" y="21">,</text>
<!--     <a xmlns:xlink="http://www.w3.org/1999/xlink" xlink:href="#chars" xlink:title="chars"> -->
            <rect x="351" y="3" width="54" height="32"/>
            <rect x="349" y="1" width="54" height="32" class="nonterminal"/>
            <text class="nonterminal" x="359" y="21">chars</text>
<!--     </a> -->
         <rect x="445" y="3" width="26" height="32" rx="10"/>
         <rect x="443" y="1" width="26" height="32" class="terminal" rx="10"/>
         <text class="terminal" x="453" y="21">)</text>
         <svg:path xmlns:svg="http://www.w3.org/2000/svg" class="line" d="m17 17 h2 m0 0 h10 m50 0 h10 m20 0 h10 m26 0 h10 m20 0 h10 m60 0 h10 m-100 0 h20 m80 0 h20 m-120 0 q10 0 10 10 m100 0 q0 -10 10 -10 m-110 10 v14 m100 0 v-14 m-100 14 q0 10 10 10 m80 0 q10 0 10 -10 m-90 10 h10 m0 0 h70 m20 -34 h10 m24 0 h10 m20 0 h10 m54 0 h10 m-94 0 h20 m74 0 h20 m-114 0 q10 0 10 10 m94 0 q0 -10 10 -10 m-104 10 v14 m94 0 v-14 m-94 14 q0 10 10 10 m74 0 q10 0 10 -10 m-84 10 h10 m0 0 h64 m20 -34 h10 m26 0 h10 m-390 0 h20 m370 0 h20 m-410 0 q10 0 10 10 m390 0 q0 -10 10 -10 m-400 10 v30 m390 0 v-30 m-390 30 q0 10 10 10 m370 0 q10 0 10 -10 m-380 10 h10 m0 0 h360 m23 -50 h-3"/>
         <polygon points="509 17 517 13 517 21"/>
         <polygon points="509 17 501 13 501 21"/>
      </svg>
