      <svg xmlns="http://www.w3.org/2000/svg" width="492" height="52">
         <defs>
            <style type="text/css">
               @namespace "http://www.w3.org/2000/svg";
               .line                 {fill: none; stroke: #1F1F1F;}
               .bold-line            {stroke: #0A0A0A; shape-rendering: crispEdges; stroke-width:
               2; }
               .thin-line            {stroke: #0F0F0F; shape-rendering: crispEdges}
               .filled               {fill: #1F1F1F; stroke: none;}
               text.terminal         {font-family: Verdana, Sans-serif;
               font-size: 12px;
               fill: #0A0A0A;
               font-weight: bold;
               }
               text.nonterminal      {font-family: Verdana, Sans-serif; font-style: italic;
               font-size: 12px;
               fill: #0D0D0D;
               }
               text.regexp           {font-family: Verdana, Sans-serif;
               font-size: 12px;
               fill: #0F0F0F;
               }
               rect, circle, polygon {fill: #1F1F1F; stroke: #1F1F1F;}
               rect.terminal         {fill: #CCCCCC; stroke: #1F1F1F;}
               rect.nonterminal      {fill: #E3E3E3; stroke: #1F1F1F;}
               rect.text             {fill: none; stroke: none;}    
               polygon.regexp        {fill: #EFEFEF; stroke: #1F1F1F;}
               
            </style>
         </defs>
         <polygon points="9 17 1 13 1 21"/>
         <polygon points="17 17 9 13 9 21"/>
         <rect x="31" y="3" width="68" height="32" rx="10"/>
         <rect x="29" y="1" width="68" height="32" class="terminal" rx="10"/>
         <text class="terminal" x="39" y="21">substr(</text>
         <rect x="119" y="3" width="28" height="32" rx="10"/>
         <rect x="117" y="1" width="28" height="32" class="terminal" rx="10"/>
         <text class="terminal" x="127" y="21">1</text>
         <rect x="167" y="3" width="24" height="32" rx="10"/>
         <rect x="165" y="1" width="24" height="32" class="terminal" rx="10"/>
         <text class="terminal" x="175" y="21">,</text>
<!--     <a xmlns:xlink="http://www.w3.org/1999/xlink" xlink:href="#length" xlink:title="length"> -->
            <rect x="211" y="3" width="60" height="32"/>
            <rect x="209" y="1" width="60" height="32" class="nonterminal"/>
            <text class="nonterminal" x="219" y="21">length</text>
<!--     </a> -->
         <rect x="311" y="3" width="24" height="32" rx="10"/>
         <rect x="309" y="1" width="24" height="32" class="terminal" rx="10"/>
         <text class="terminal" x="319" y="21">,</text>
<!--     <a xmlns:xlink="http://www.w3.org/1999/xlink" xlink:href="#pad" xlink:title="pad"> -->
            <rect x="355" y="3" width="44" height="32"/>
            <rect x="353" y="1" width="44" height="32" class="nonterminal"/>
            <text class="nonterminal" x="363" y="21">pad</text>
<!--     </a> -->
         <rect x="439" y="3" width="26" height="32" rx="10"/>
         <rect x="437" y="1" width="26" height="32" class="terminal" rx="10"/>
         <text class="terminal" x="447" y="21">)</text>
         <svg:path xmlns:svg="http://www.w3.org/2000/svg" class="line" d="m17 17 h2 m0 0 h10 m68 0 h10 m0 0 h10 m28 0 h10 m0 0 h10 m24 0 h10 m0 0 h10 m60 0 h10 m20 0 h10 m24 0 h10 m0 0 h10 m44 0 h10 m-128 0 h20 m108 0 h20 m-148 0 q10 0 10 10 m128 0 q0 -10 10 -10 m-138 10 v14 m128 0 v-14 m-128 14 q0 10 10 10 m108 0 q10 0 10 -10 m-118 10 h10 m0 0 h98 m20 -34 h10 m26 0 h10 m3 0 h-3"/>
         <polygon points="483 17 491 13 491 21"/>
         <polygon points="483 17 475 13 475 21"/>
      </svg>
