      <svg xmlns="http://www.w3.org/2000/svg" width="718" height="100">
         <defs>
            <style type="text/css">
               @namespace "http://www.w3.org/2000/svg";
               .line                 {fill: none; stroke: #1F1F1F;}
               .bold-line            {stroke: #0A0A0A; shape-rendering: crispEdges; stroke-width:
               2; }
               .thin-line            {stroke: #0F0F0F; shape-rendering: crispEdges}
               .filled               {fill: #1F1F1F; stroke: none;}
               text.terminal         {font-family: Verdana, Sans-serif;
               font-size: 12px;
               fill: #0A0A0A;
               font-weight: bold;
               }
               text.nonterminal      {font-family: Verdana, Sans-serif;
               font-size: 12px;
               fill: #0D0D0D;
               }
               text.regexp           {font-family: Verdana, Sans-serif;
               font-size: 12px;
               fill: #0F0F0F;
               }
               rect, circle, polygon {fill: #1F1F1F; stroke: #1F1F1F;}
               rect.terminal         {fill: #CCCCCC; stroke: #1F1F1F;}
               rect.nonterminal      {fill: #E3E3E3; stroke: #1F1F1F;}
               rect.text             {fill: none; stroke: none;}    
               polygon.regexp        {fill: #EFEFEF; stroke: #1F1F1F;}
               
            </style>
         </defs>
         <polygon points="9 17 1 13 1 21"/>
         <polygon points="17 17 9 13 9 21"/>
         <rect x="31" y="3" width="64" height="32" rx="10"/>
         <rect x="29" y="1" width="64" height="32" class="terminal" rx="10"/>
         <text class="terminal" x="39" y="21">insert(</text>
         <a xmlns:xlink="http://www.w3.org/1999/xlink" xlink:href="#new" xlink:title="new">
            <rect x="115" y="3" width="46" height="32"/>
            <rect x="113" y="1" width="46" height="32" class="nonterminal"/>
            <text class="nonterminal" x="123" y="21">new</text>
         </a>
         <rect x="201" y="3" width="24" height="32" rx="10"/>
         <rect x="199" y="1" width="24" height="32" class="terminal" rx="10"/>
         <text class="terminal" x="209" y="21">,</text>
         <a xmlns:xlink="http://www.w3.org/1999/xlink" xlink:href="#n" xlink:title="n">
            <rect x="245" y="3" width="28" height="32"/>
            <rect x="243" y="1" width="28" height="32" class="nonterminal"/>
            <text class="nonterminal" x="253" y="21">n</text>
         </a>
         <rect x="313" y="3" width="24" height="32" rx="10"/>
         <rect x="311" y="1" width="24" height="32" class="terminal" rx="10"/>
         <text class="terminal" x="321" y="21">,</text>
         <a xmlns:xlink="http://www.w3.org/1999/xlink" xlink:href="#length" xlink:title="length">
            <rect x="377" y="3" width="60" height="32"/>
            <rect x="375" y="1" width="60" height="32" class="nonterminal"/>
            <text class="nonterminal" x="385" y="21">length</text>
         </a>
         <rect x="477" y="3" width="24" height="32" rx="10"/>
         <rect x="475" y="1" width="24" height="32" class="terminal" rx="10"/>
         <text class="terminal" x="485" y="21">,</text>
         <a xmlns:xlink="http://www.w3.org/1999/xlink" xlink:href="#pad" xlink:title="pad">
            <rect x="521" y="3" width="44" height="32"/>
            <rect x="519" y="1" width="44" height="32" class="nonterminal"/>
            <text class="nonterminal" x="529" y="21">pad</text>
         </a>
         <rect x="665" y="3" width="26" height="32" rx="10"/>
         <rect x="663" y="1" width="26" height="32" class="terminal" rx="10"/>
         <text class="terminal" x="673" y="21">)</text>
         <svg:path xmlns:svg="http://www.w3.org/2000/svg" class="line" d="m17 17 h2 m0 0 h10 m64 0 h10 m0 0 h10 m46 0 h10 m20 0 h10 m24 0 h10 m0 0 h10 m28 0 h10 m20 0 h10 m24 0 h10 m20 0 h10 m60 0 h10 m20 0 h10 m24 0 h10 m0 0 h10 m44 0 h10 m-128 0 h20 m108 0 h20 m-148 0 q10 0 10 10 m128 0 q0 -10 10 -10 m-138 10 v14 m128 0 v-14 m-128 14 q0 10 10 10 m108 0 q10 0 10 -10 m-118 10 h10 m0 0 h98 m-228 -34 h20 m228 0 h20 m-268 0 q10 0 10 10 m248 0 q0 -10 10 -10 m-258 10 v30 m248 0 v-30 m-248 30 q0 10 10 10 m228 0 q10 0 10 -10 m-238 10 h10 m0 0 h218 m-312 -50 h20 m312 0 h20 m-352 0 q10 0 10 10 m332 0 q0 -10 10 -10 m-342 10 v46 m332 0 v-46 m-332 46 q0 10 10 10 m312 0 q10 0 10 -10 m-322 10 h10 m0 0 h302 m-444 -66 h20 m444 0 h20 m-484 0 q10 0 10 10 m464 0 q0 -10 10 -10 m-474 10 v62 m464 0 v-62 m-464 62 q0 10 10 10 m444 0 q10 0 10 -10 m-454 10 h10 m0 0 h434 m20 -82 h10 m26 0 h10 m3 0 h-3"/>
         <polygon points="709 17 717 13 717 21"/>
         <polygon points="709 17 701 13 701 21"/>
      </svg>
