      <svg xmlns="http://www.w3.org/2000/svg" width="746" height="68">
         <defs>
            <style type="text/css">
               @namespace "http://www.w3.org/2000/svg";
               .line                 {fill: none; stroke: #1F1F1F;}
               .bold-line            {stroke: #0A0A0A; shape-rendering: crispEdges; stroke-width:
               2; }
               .thin-line            {stroke: #0F0F0F; shape-rendering: crispEdges}
               .filled               {fill: #1F1F1F; stroke: none;}
               text.terminal         {font-family: Verdana, Sans-serif;
               font-size: 12px;
               fill: #0A0A0A;
               font-weight: bold;
               }
               text.nonterminal      {font-family: Verdana, Sans-serif; font-style: italic;
               font-size: 12px;
               fill: #0D0D0D;
               }
               text.regexp           {font-family: Verdana, Sans-serif;
               font-size: 12px;
               fill: #0F0F0F;
               }
               rect, circle, polygon {fill: #1F1F1F; stroke: #1F1F1F;}
               rect.terminal         {fill: #CCCCCC; stroke: #1F1F1F;}
               rect.nonterminal      {fill: #E3E3E3; stroke: #1F1F1F;}
               rect.text             {fill: none; stroke: none;}    
               polygon.regexp        {fill: #EFEFEF; stroke: #1F1F1F;}
               
            </style>
         </defs>
         <polygon points="9 17 1 13 1 21"/>
         <polygon points="17 17 9 13 9 21"/>
         <rect x="31" y="3" width="70" height="32" rx="10"/>
         <rect x="29" y="1" width="70" height="32" class="terminal" rx="10"/>
         <text class="terminal" x="39" y="21">format(</text>
<!--     <a xmlns:xlink="http://www.w3.org/1999/xlink" xlink:href="#before" xlink:title="before"> -->
            <rect x="141" y="35" width="58" height="32"/>
            <rect x="139" y="33" width="58" height="32" class="nonterminal"/>
            <text class="nonterminal" x="149" y="53">before</text>
<!--     </a> -->
         <rect x="239" y="3" width="24" height="32" rx="10"/>
         <rect x="237" y="1" width="24" height="32" class="terminal" rx="10"/>
         <text class="terminal" x="247" y="21">,</text>
<!--     <a xmlns:xlink="http://www.w3.org/1999/xlink" xlink:href="#after" xlink:title="after"> -->
            <rect x="303" y="35" width="48" height="32"/>
            <rect x="301" y="33" width="48" height="32" class="nonterminal"/>
            <text class="nonterminal" x="311" y="53">after</text>
<!--     </a> -->
         <rect x="391" y="3" width="24" height="32" rx="10"/>
         <rect x="389" y="1" width="24" height="32" class="terminal" rx="10"/>
         <text class="terminal" x="399" y="21">,</text>
<!--     <a xmlns:xlink="http://www.w3.org/1999/xlink" xlink:href="#expp" xlink:title="expp"> -->
            <rect x="455" y="35" width="48" height="32"/>
            <rect x="453" y="33" width="48" height="32" class="nonterminal"/>
            <text class="nonterminal" x="463" y="53">expp</text>
<!--     </a> -->
         <rect x="563" y="35" width="24" height="32" rx="10"/>
         <rect x="561" y="33" width="24" height="32" class="terminal" rx="10"/>
         <text class="terminal" x="571" y="53">,</text>
<!--     <a xmlns:xlink="http://www.w3.org/1999/xlink" xlink:href="#expt" xlink:title="expt"> -->
            <rect x="607" y="35" width="46" height="32"/>
            <rect x="605" y="33" width="46" height="32" class="nonterminal"/>
            <text class="nonterminal" x="615" y="53">expt</text>
<!--     </a> -->
         <rect x="693" y="3" width="26" height="32" rx="10"/>
         <rect x="691" y="1" width="26" height="32" class="terminal" rx="10"/>
         <text class="terminal" x="701" y="21">)</text>
         <svg:path xmlns:svg="http://www.w3.org/2000/svg" class="line" d="m17 17 h2 m0 0 h10 m70 0 h10 m20 0 h10 m0 0 h68 m-98 0 h20 m78 0 h20 m-118 0 q10 0 10 10 m98 0 q0 -10 10 -10 m-108 10 v12 m98 0 v-12 m-98 12 q0 10 10 10 m78 0 q10 0 10 -10 m-88 10 h10 m58 0 h10 m20 -32 h10 m24 0 h10 m20 0 h10 m0 0 h58 m-88 0 h20 m68 0 h20 m-108 0 q10 0 10 10 m88 0 q0 -10 10 -10 m-98 10 v12 m88 0 v-12 m-88 12 q0 10 10 10 m68 0 q10 0 10 -10 m-78 10 h10 m48 0 h10 m20 -32 h10 m24 0 h10 m20 0 h10 m0 0 h58 m-88 0 h20 m68 0 h20 m-108 0 q10 0 10 10 m88 0 q0 -10 10 -10 m-98 10 v12 m88 0 v-12 m-88 12 q0 10 10 10 m68 0 q10 0 10 -10 m-78 10 h10 m48 0 h10 m40 -32 h10 m0 0 h100 m-130 0 h20 m110 0 h20 m-150 0 q10 0 10 10 m130 0 q0 -10 10 -10 m-140 10 v12 m130 0 v-12 m-130 12 q0 10 10 10 m110 0 q10 0 10 -10 m-120 10 h10 m24 0 h10 m0 0 h10 m46 0 h10 m20 -32 h10 m26 0 h10 m3 0 h-3"/>
         <polygon points="737 17 745 13 745 21"/>
         <polygon points="737 17 729 13 729 21"/>
      </svg>
