      <svg xmlns="http://www.w3.org/2000/svg" width="844" height="134">
         <defs>
            <style type="text/css">
               @namespace "http://www.w3.org/2000/svg";
               .line                 {fill: none; stroke: #1F1F1F;}
               .bold-line            {stroke: #0A0A0A; shape-rendering: crispEdges; stroke-width:
               2; }
               .thin-line            {stroke: #0F0F0F; shape-rendering: crispEdges}
               .filled               {fill: #1F1F1F; stroke: none;}
               text.terminal         {font-family: Verdana, Sans-serif;
               font-size: 12px;
               fill: #0A0A0A;
               font-weight: bold;
               }
               text.nonterminal      {font-family: Verdana, Sans-serif; font-style: italic;
               font-size: 12px;
               fill: #0D0D0D;
               }
               text.regexp           {font-family: Verdana, Sans-serif;
               font-size: 12px;
               fill: #0F0F0F;
               }
               rect, circle, polygon {fill: #1F1F1F; stroke: #1F1F1F;}
               rect.terminal         {fill: #CCCCCC; stroke: #1F1F1F;}
               rect.nonterminal      {fill: #E3E3E3; stroke: #1F1F1F;}
               rect.text             {fill: none; stroke: none;}    
               polygon.regexp        {fill: #EFEFEF; stroke: #1F1F1F;}
               
            </style>
         </defs>
         <polygon points="9 17 1 13 1 21"/>
         <polygon points="17 17 9 13 9 21"/>
         <rect x="31" y="3" width="86" height="32" rx="10"/>
         <rect x="29" y="1" width="86" height="32" class="terminal" rx="10"/>
         <text class="terminal" x="39" y="21">translate(</text>
<!--     <a xmlns:xlink="http://www.w3.org/1999/xlink" xlink:href="#tableo" xlink:title="tableo"> -->
            <rect x="157" y="35" width="56" height="32"/>
            <rect x="155" y="33" width="56" height="32" class="nonterminal"/>
            <text class="nonterminal" x="165" y="53">tableo</text>
<!--     </a> -->
         <rect x="253" y="3" width="24" height="32" rx="10"/>
         <rect x="251" y="1" width="24" height="32" class="terminal" rx="10"/>
         <text class="terminal" x="261" y="21">,</text>
<!--     <a xmlns:xlink="http://www.w3.org/1999/xlink" xlink:href="#tablei" xlink:title="tablei"> -->
            <rect x="317" y="35" width="50" height="32"/>
            <rect x="315" y="33" width="50" height="32" class="nonterminal"/>
            <text class="nonterminal" x="325" y="53">tablei</text>
<!--     </a> -->
         <rect x="407" y="3" width="24" height="32" rx="10"/>
         <rect x="405" y="1" width="24" height="32" class="terminal" rx="10"/>
         <text class="terminal" x="415" y="21">,</text>
<!--     <a xmlns:xlink="http://www.w3.org/1999/xlink" xlink:href="#pad" xlink:title="pad"> -->
            <rect x="471" y="35" width="42" height="32"/>
            <rect x="469" y="33" width="42" height="32" class="nonterminal"/>
            <text class="nonterminal" x="479" y="53">pad</text>
<!--     </a> -->
         <rect x="553" y="3" width="24" height="32" rx="10"/>
         <rect x="551" y="1" width="24" height="32" class="terminal" rx="10"/>
         <text class="terminal" x="561" y="21">,</text>
<!--     <a xmlns:xlink="http://www.w3.org/1999/xlink" xlink:href="#n" xlink:title="n"> -->
            <rect x="617" y="35" width="26" height="32"/>
            <rect x="615" y="33" width="26" height="32" class="nonterminal"/>
            <text class="nonterminal" x="625" y="53">n</text>
<!--     </a> -->
         <rect x="703" y="35" width="24" height="32" rx="10"/>
         <rect x="701" y="33" width="24" height="32" class="terminal" rx="10"/>
         <text class="terminal" x="711" y="53">,</text>
<!--     <a xmlns:xlink="http://www.w3.org/1999/xlink" xlink:href="#length" xlink:title="length"> -->
            <rect x="747" y="35" width="56" height="32"/>
            <rect x="745" y="33" width="56" height="32" class="nonterminal"/>
            <text class="nonterminal" x="755" y="53">length</text>
<!--     </a> -->
         <rect x="791" y="101" width="26" height="32" rx="10"/>
         <rect x="789" y="99" width="26" height="32" class="terminal" rx="10"/>
         <text class="terminal" x="799" y="119">)</text>
         <svg:path xmlns:svg="http://www.w3.org/2000/svg" class="line" d="m17 17 h2 m0 0 h10 m86 0 h10 m20 0 h10 m0 0 h66 m-96 0 h20 m76 0 h20 m-116 0 q10 0 10 10 m96 0 q0 -10 10 -10 m-106 10 v12 m96 0 v-12 m-96 12 q0 10 10 10 m76 0 q10 0 10 -10 m-86 10 h10 m56 0 h10 m20 -32 h10 m24 0 h10 m20 0 h10 m0 0 h60 m-90 0 h20 m70 0 h20 m-110 0 q10 0 10 10 m90 0 q0 -10 10 -10 m-100 10 v12 m90 0 v-12 m-90 12 q0 10 10 10 m70 0 q10 0 10 -10 m-80 10 h10 m50 0 h10 m20 -32 h10 m24 0 h10 m20 0 h10 m0 0 h52 m-82 0 h20 m62 0 h20 m-102 0 q10 0 10 10 m82 0 q0 -10 10 -10 m-92 10 v12 m82 0 v-12 m-82 12 q0 10 10 10 m62 0 q10 0 10 -10 m-72 10 h10 m42 0 h10 m20 -32 h10 m24 0 h10 m20 0 h10 m0 0 h36 m-66 0 h20 m46 0 h20 m-86 0 q10 0 10 10 m66 0 q0 -10 10 -10 m-76 10 v12 m66 0 v-12 m-66 12 q0 10 10 10 m46 0 q10 0 10 -10 m-56 10 h10 m26 0 h10 m40 -32 h10 m0 0 h110 m-140 0 h20 m120 0 h20 m-160 0 q10 0 10 10 m140 0 q0 -10 10 -10 m-150 10 v12 m140 0 v-12 m-140 12 q0 10 10 10 m120 0 q10 0 10 -10 m-130 10 h10 m24 0 h10 m0 0 h10 m56 0 h10 m22 -32 l2 0 m2 0 l2 0 m2 0 l2 0 m-76 98 l2 0 m2 0 l2 0 m2 0 l2 0 m2 0 h10 m26 0 h10 m3 0 h-3"/>
         <polygon points="835 115 843 111 843 119"/>
         <polygon points="835 115 827 111 827 119"/>
      </svg>
