      <svg xmlns="http://www.w3.org/2000/svg" width="668" height="68">
         <defs>
            <style type="text/css">
               @namespace "http://www.w3.org/2000/svg";
               .line                 {fill: none; stroke: #1F1F1F;}
               .bold-line            {stroke: #0A0A0A; shape-rendering: crispEdges; stroke-width:
               2; }
               .thin-line            {stroke: #0F0F0F; shape-rendering: crispEdges}
               .filled               {fill: #1F1F1F; stroke: none;}
               text.terminal         {font-family: Verdana, Sans-serif;
               font-size: 12px;
               fill: #0A0A0A;
               font-weight: bold;
               }
               text.nonterminal      {font-family: Verdana, Sans-serif; font-style: italic;
               font-size: 12px;
               fill: #0D0D0D;
               }
               text.regexp           {font-family: Verdana, Sans-serif;
               font-size: 12px;
               fill: #0F0F0F;
               }
               rect, circle, polygon {fill: #1F1F1F; stroke: #1F1F1F;}
               rect.terminal         {fill: #CCCCCC; stroke: #1F1F1F;}
               rect.nonterminal      {fill: #E3E3E3; stroke: #1F1F1F;}
               rect.text             {fill: none; stroke: none;}    
               polygon.regexp        {fill: #EFEFEF; stroke: #1F1F1F;}
               
            </style>
         </defs>
         <polygon points="9 17 1 13 1 21"/>
         <polygon points="17 17 9 13 9 21"/>
         <rect x="31" y="3" width="64" height="32" rx="10"/>
         <rect x="29" y="1" width="64" height="32" class="terminal" rx="10"/>
         <text class="terminal" x="39" y="21">insert(</text>
<!--     <a xmlns:xlink="http://www.w3.org/1999/xlink" xlink:href="#new" xlink:title="new"> -->
            <rect x="115" y="3" width="44" height="32"/>
            <rect x="113" y="1" width="44" height="32" class="nonterminal"/>
            <text class="nonterminal" x="123" y="21">new</text>
<!--     </a> -->
         <rect x="179" y="3" width="24" height="32" rx="10"/>
         <rect x="177" y="1" width="24" height="32" class="terminal" rx="10"/>
         <text class="terminal" x="187" y="21">,</text>
<!--     <a xmlns:xlink="http://www.w3.org/1999/xlink" xlink:href="#n" xlink:title="n"> -->
            <rect x="243" y="35" width="26" height="32"/>
            <rect x="241" y="33" width="26" height="32" class="nonterminal"/>
            <text class="nonterminal" x="251" y="53">n</text>
<!--     </a> -->
         <rect x="309" y="3" width="24" height="32" rx="10"/>
         <rect x="307" y="1" width="24" height="32" class="terminal" rx="10"/>
         <text class="terminal" x="317" y="21">,</text>
<!--     <a xmlns:xlink="http://www.w3.org/1999/xlink" xlink:href="#length" xlink:title="length"> -->
            <rect x="373" y="35" width="56" height="32"/>
            <rect x="371" y="33" width="56" height="32" class="nonterminal"/>
            <text class="nonterminal" x="381" y="53">length</text>
<!--     </a> -->
         <rect x="489" y="35" width="24" height="32" rx="10"/>
         <rect x="487" y="33" width="24" height="32" class="terminal" rx="10"/>
         <text class="terminal" x="497" y="53">,</text>
<!--     <a xmlns:xlink="http://www.w3.org/1999/xlink" xlink:href="#pad" xlink:title="pad"> -->
            <rect x="533" y="35" width="42" height="32"/>
            <rect x="531" y="33" width="42" height="32" class="nonterminal"/>
            <text class="nonterminal" x="541" y="53">pad</text>
<!--     </a> -->
         <rect x="615" y="3" width="26" height="32" rx="10"/>
         <rect x="613" y="1" width="26" height="32" class="terminal" rx="10"/>
         <text class="terminal" x="623" y="21">)</text>
         <svg:path xmlns:svg="http://www.w3.org/2000/svg" class="line" d="m17 17 h2 m0 0 h10 m64 0 h10 m0 0 h10 m44 0 h10 m0 0 h10 m24 0 h10 m20 0 h10 m0 0 h36 m-66 0 h20 m46 0 h20 m-86 0 q10 0 10 10 m66 0 q0 -10 10 -10 m-76 10 v12 m66 0 v-12 m-66 12 q0 10 10 10 m46 0 q10 0 10 -10 m-56 10 h10 m26 0 h10 m20 -32 h10 m24 0 h10 m20 0 h10 m0 0 h66 m-96 0 h20 m76 0 h20 m-116 0 q10 0 10 10 m96 0 q0 -10 10 -10 m-106 10 v12 m96 0 v-12 m-96 12 q0 10 10 10 m76 0 q10 0 10 -10 m-86 10 h10 m56 0 h10 m40 -32 h10 m0 0 h96 m-126 0 h20 m106 0 h20 m-146 0 q10 0 10 10 m126 0 q0 -10 10 -10 m-136 10 v12 m126 0 v-12 m-126 12 q0 10 10 10 m106 0 q10 0 10 -10 m-116 10 h10 m24 0 h10 m0 0 h10 m42 0 h10 m20 -32 h10 m26 0 h10 m3 0 h-3"/>
         <polygon points="659 17 667 13 667 21"/>
         <polygon points="659 17 651 13 651 21"/>
      </svg>
