<svg xmlns="http://www.w3.org/2000/svg" width="753" height="113">
         <defs>
            <style type="text/css">
    @namespace "http://www.w3.org/2000/svg";
    .line                 {fill: none; stroke: #1F1F1F;}
    .bold-line            {stroke: #0A0A0A; shape-rendering: crispEdges; stroke-width: 2; }
    .thin-line            {stroke: #0F0F0F; shape-rendering: crispEdges}
    .filled               {fill: #1F1F1F; stroke: none;}
    text.terminal         {font-family: Verdana, Sans-serif;
                            font-size: 12px;
                            fill: #0A0A0A;
                            font-weight: bold;
                          }
    text.nonterminal      {font-family: Verdana, Sans-serif; font-style: italic;
                            font-size: 12px;
                            fill: #0D0D0D;
                            font-weight: normal;
                          }
    text.regexp           {font-family: Verdana, Sans-serif;
                            font-size: 12px;
                            fill: #0F0F0F;
                            font-weight: normal;
                          }
    rect, circle, polygon {fill: #1F1F1F; stroke: #1F1F1F;}
    rect.terminal         {fill: #CCCCCC; stroke: #1F1F1F;}
    rect.nonterminal      {fill: #E3E3E3; stroke: #1F1F1F;}
    rect.text             {fill: none; stroke: none;}    
    polygon.regexp        {fill: #EFEFEF; stroke: #1F1F1F;}
  </style>
         </defs>
         <polygon points="9 17 1 13 1 21"/>
         <polygon points="17 17 9 13 9 21"/>
         <rect x="31" y="3" width="66" height="32" rx="10"/>
         <rect x="29" y="1" width="66" height="32" class="terminal" rx="10"/>
         <text class="terminal" x="39" y="21">verify(</text>
<!--  <a xmlns:xlink="http://www.w3.org/1999/xlink" xlink:href="#reference" xlink:title="reference"> -->
            <rect x="117" y="3" width="80" height="32"/>
            <rect x="115" y="1" width="80" height="32" class="nonterminal"/>
            <text class="nonterminal" x="125" y="21">reference</text><!-- </a> -->
<rect x="217" y="3" width="24" height="32" rx="10"/>
         <rect x="215" y="1" width="24" height="32" class="terminal" rx="10"/>
         <text class="terminal" x="225" y="21">,</text>
         <rect x="281" y="35" width="44" height="32" rx="10"/>
         <rect x="279" y="33" width="44" height="32" class="terminal" rx="10"/>
         <text class="terminal" x="289" y="53">"N"</text>
<!--  <a xmlns:xlink="http://www.w3.org/1999/xlink" xlink:href="#option" xlink:title="option"> -->
            <rect x="281" y="79" width="60" height="32"/>
            <rect x="279" y="77" width="60" height="32" class="nonterminal"/>
            <text class="nonterminal" x="289" y="97">option</text><!-- </a> -->
<rect x="381" y="3" width="24" height="32" rx="10"/>
         <rect x="379" y="1" width="24" height="32" class="terminal" rx="10"/>
         <text class="terminal" x="389" y="21">,</text>
<!--  <a xmlns:xlink="http://www.w3.org/1999/xlink" xlink:href="#start" xlink:title="start"> -->
            <rect x="445" y="35" width="50" height="32"/>
            <rect x="443" y="33" width="50" height="32" class="nonterminal"/>
            <text class="nonterminal" x="453" y="53">start</text><!-- </a> -->
<rect x="555" y="35" width="24" height="32" rx="10"/>
         <rect x="553" y="33" width="24" height="32" class="terminal" rx="10"/>
         <text class="terminal" x="563" y="53">,</text>
<!--  <a xmlns:xlink="http://www.w3.org/1999/xlink" xlink:href="#length" xlink:title="length"> -->
            <rect x="599" y="35" width="60" height="32"/>
            <rect x="597" y="33" width="60" height="32" class="nonterminal"/>
            <text class="nonterminal" x="607" y="53">length</text><!-- </a> -->
<rect x="699" y="3" width="26" height="32" rx="10"/>
         <rect x="697" y="1" width="26" height="32" class="terminal" rx="10"/>
         <text class="terminal" x="707" y="21">)</text>
         <svg:path xmlns:svg="http://www.w3.org/2000/svg" class="line" d="m17 17 h2 m0 0 h10 m66 0 h10 m0 0 h10 m80 0 h10 m0 0 h10 m24 0 h10 m20 0 h10 m0 0 h70 m-100 0 h20 m80 0 h20 m-120 0 q10 0 10 10 m100 0 q0 -10 10 -10 m-110 10 v12 m100 0 v-12 m-100 12 q0 10 10 10 m80 0 q10 0 10 -10 m-90 10 h10 m44 0 h10 m0 0 h16 m-90 -10 v20 m100 0 v-20 m-100 20 v24 m100 0 v-24 m-100 24 q0 10 10 10 m80 0 q10 0 10 -10 m-90 10 h10 m60 0 h10 m20 -76 h10 m24 0 h10 m20 0 h10 m0 0 h60 m-90 0 h20 m70 0 h20 m-110 0 q10 0 10 10 m90 0 q0 -10 10 -10 m-100 10 v12 m90 0 v-12 m-90 12 q0 10 10 10 m70 0 q10 0 10 -10 m-80 10 h10 m50 0 h10 m40 -32 h10 m0 0 h114 m-144 0 h20 m124 0 h20 m-164 0 q10 0 10 10 m144 0 q0 -10 10 -10 m-154 10 v12 m144 0 v-12 m-144 12 q0 10 10 10 m124 0 q10 0 10 -10 m-134 10 h10 m24 0 h10 m0 0 h10 m60 0 h10 m20 -32 h10 m26 0 h10 m3 0 h-3"/>
         <polygon points="743 17 751 13 751 21"/>
         <polygon points="743 17 735 13 735 21"/></svg>
