<svg xmlns="http://www.w3.org/2000/svg" width="757" height="69">
         <defs>
            <style type="text/css">
    @namespace "http://www.w3.org/2000/svg";
    .line                 {fill: none; stroke: #1F1F1F;}
    .bold-line            {stroke: #0A0A0A; shape-rendering: crispEdges; stroke-width: 2; }
    .thin-line            {stroke: #0F0F0F; shape-rendering: crispEdges}
    .filled               {fill: #1F1F1F; stroke: none;}
    text.terminal         {font-family: Verdana, Sans-serif;
                            font-size: 12px;
                            fill: #0A0A0A;
                            font-weight: bold;
                          }
    text.nonterminal      {font-family: Verdana, Sans-serif; font-style: italic;
                            font-size: 12px;
                            fill: #0D0D0D;
                            font-weight: normal;
                          }
    text.regexp           {font-family: Verdana, Sans-serif;
                            font-size: 12px;
                            fill: #0F0F0F;
                            font-weight: normal;
                          }
    rect, circle, polygon {fill: #1F1F1F; stroke: #1F1F1F;}
    rect.terminal         {fill: #CCCCCC; stroke: #1F1F1F;}
    rect.nonterminal      {fill: #E3E3E3; stroke: #1F1F1F;}
    rect.text             {fill: none; stroke: none;}    
    polygon.regexp        {fill: #EFEFEF; stroke: #1F1F1F;}
  </style>
         </defs>
         <polygon points="9 17 1 13 1 21"/>
         <polygon points="17 17 9 13 9 21"/>
         <rect x="31" y="3" width="72" height="32" rx="10"/>
         <rect x="29" y="1" width="72" height="32" class="terminal" rx="10"/>
         <text class="terminal" x="39" y="21">format(</text>
<!--  <a xmlns:xlink="http://www.w3.org/1999/xlink" xlink:href="#before" xlink:title="before"> -->
            <rect x="143" y="35" width="60" height="32"/>
            <rect x="141" y="33" width="60" height="32" class="nonterminal"/>
            <text class="nonterminal" x="151" y="53">before</text><!-- </a> -->
<rect x="243" y="3" width="24" height="32" rx="10"/>
         <rect x="241" y="1" width="24" height="32" class="terminal" rx="10"/>
         <text class="terminal" x="251" y="21">,</text>
<!--  <a xmlns:xlink="http://www.w3.org/1999/xlink" xlink:href="#after" xlink:title="after"> -->
            <rect x="307" y="35" width="50" height="32"/>
            <rect x="305" y="33" width="50" height="32" class="nonterminal"/>
            <text class="nonterminal" x="315" y="53">after</text><!-- </a> -->
<rect x="397" y="3" width="24" height="32" rx="10"/>
         <rect x="395" y="1" width="24" height="32" class="terminal" rx="10"/>
         <text class="terminal" x="405" y="21">,</text>
<!--  <a xmlns:xlink="http://www.w3.org/1999/xlink" xlink:href="#expp" xlink:title="expp"> -->
            <rect x="461" y="35" width="50" height="32"/>
            <rect x="459" y="33" width="50" height="32" class="nonterminal"/>
            <text class="nonterminal" x="469" y="53">expp</text><!-- </a> -->
<rect x="571" y="35" width="24" height="32" rx="10"/>
         <rect x="569" y="33" width="24" height="32" class="terminal" rx="10"/>
         <text class="terminal" x="579" y="53">,</text>
<!--  <a xmlns:xlink="http://www.w3.org/1999/xlink" xlink:href="#expt" xlink:title="expt"> -->
            <rect x="615" y="35" width="48" height="32"/>
            <rect x="613" y="33" width="48" height="32" class="nonterminal"/>
            <text class="nonterminal" x="623" y="53">expt</text><!-- </a> -->
<rect x="703" y="3" width="26" height="32" rx="10"/>
         <rect x="701" y="1" width="26" height="32" class="terminal" rx="10"/>
         <text class="terminal" x="711" y="21">)</text>
         <svg:path xmlns:svg="http://www.w3.org/2000/svg" class="line" d="m17 17 h2 m0 0 h10 m72 0 h10 m20 0 h10 m0 0 h70 m-100 0 h20 m80 0 h20 m-120 0 q10 0 10 10 m100 0 q0 -10 10 -10 m-110 10 v12 m100 0 v-12 m-100 12 q0 10 10 10 m80 0 q10 0 10 -10 m-90 10 h10 m60 0 h10 m20 -32 h10 m24 0 h10 m20 0 h10 m0 0 h60 m-90 0 h20 m70 0 h20 m-110 0 q10 0 10 10 m90 0 q0 -10 10 -10 m-100 10 v12 m90 0 v-12 m-90 12 q0 10 10 10 m70 0 q10 0 10 -10 m-80 10 h10 m50 0 h10 m20 -32 h10 m24 0 h10 m20 0 h10 m0 0 h60 m-90 0 h20 m70 0 h20 m-110 0 q10 0 10 10 m90 0 q0 -10 10 -10 m-100 10 v12 m90 0 v-12 m-90 12 q0 10 10 10 m70 0 q10 0 10 -10 m-80 10 h10 m50 0 h10 m40 -32 h10 m0 0 h102 m-132 0 h20 m112 0 h20 m-152 0 q10 0 10 10 m132 0 q0 -10 10 -10 m-142 10 v12 m132 0 v-12 m-132 12 q0 10 10 10 m112 0 q10 0 10 -10 m-122 10 h10 m24 0 h10 m0 0 h10 m48 0 h10 m20 -32 h10 m26 0 h10 m3 0 h-3"/>
         <polygon points="747 17 755 13 755 21"/>
         <polygon points="747 17 739 13 739 21"/></svg>
