      <svg xmlns="http://www.w3.org/2000/svg" width="804" height="124">
         <defs>
            <style type="text/css">
               @namespace "http://www.w3.org/2000/svg";
               .line                 {fill: none; stroke: #1F1F1F;}
               .bold-line            {stroke: #0A0A0A; shape-rendering: crispEdges; stroke-width:
               2; }
               .thin-line            {stroke: #0F0F0F; shape-rendering: crispEdges}
               .filled               {fill: #1F1F1F; stroke: none;}
               text.terminal         {font-family: Verdana, Sans-serif;
               font-size: 12px;
               fill: #0A0A0A;
               font-weight: bold;
               }
               text.nonterminal      {font-family: Verdana, Sans-serif; font-style: italic;
               font-size: 12px;
               fill: #0D0D0D;
               }
               text.regexp           {font-family: Verdana, Sans-serif;
               font-size: 12px;
               fill: #0F0F0F;
               }
               rect, circle, polygon {fill: #1F1F1F; stroke: #1F1F1F;}
               rect.terminal         {fill: #CCCCCC; stroke: #1F1F1F;}
               rect.nonterminal      {fill: #E3E3E3; stroke: #1F1F1F;}
               rect.text             {fill: none; stroke: none;}    
               polygon.regexp        {fill: #EFEFEF; stroke: #1F1F1F;}
               
            </style>
         </defs>
         <polygon points="9 17 1 13 1 21"/>
         <polygon points="17 17 9 13 9 21"/>
         <rect x="51" y="3" width="46" height="32" rx="10"/>
         <rect x="49" y="1" width="46" height="32" class="terminal" rx="10"/>
         <text class="terminal" x="59" y="21">init(</text>
<!--     <a xmlns:xlink="http://www.w3.org/1999/xlink" xlink:href="#fullDate" xlink:title="fullDate"> -->
            <rect x="117" y="3" width="64" height="32"/>
            <rect x="115" y="1" width="64" height="32" class="nonterminal"/>
            <text class="nonterminal" x="125" y="21">fullDate</text>
<!--     </a> -->
         <rect x="201" y="3" width="26" height="32" rx="10"/>
         <rect x="199" y="1" width="26" height="32" class="terminal" rx="10"/>
         <text class="terminal" x="209" y="21">)</text>
         <rect x="51" y="47" width="46" height="32" rx="10"/>
         <rect x="49" y="45" width="46" height="32" class="terminal" rx="10"/>
         <text class="terminal" x="59" y="65">init(</text>
<!--     <a xmlns:xlink="http://www.w3.org/1999/xlink" xlink:href="#hours" xlink:title="hours"> -->
            <rect x="117" y="47" width="54" height="32"/>
            <rect x="115" y="45" width="54" height="32" class="nonterminal"/>
            <text class="nonterminal" x="125" y="65">hours</text>
<!--     </a> -->
         <rect x="191" y="47" width="24" height="32" rx="10"/>
         <rect x="189" y="45" width="24" height="32" class="terminal" rx="10"/>
         <text class="terminal" x="199" y="65">,</text>
<!--     <a xmlns:xlink="http://www.w3.org/1999/xlink" xlink:href="#minutes" xlink:title="minutes"> -->
            <rect x="235" y="47" width="66" height="32"/>
            <rect x="233" y="45" width="66" height="32" class="nonterminal"/>
            <text class="nonterminal" x="243" y="65">minutes</text>
<!--     </a> -->
         <rect x="321" y="47" width="24" height="32" rx="10"/>
         <rect x="319" y="45" width="24" height="32" class="terminal" rx="10"/>
         <text class="terminal" x="329" y="65">,</text>
<!--     <a xmlns:xlink="http://www.w3.org/1999/xlink" xlink:href="#seconds" xlink:title="seconds"> -->
            <rect x="365" y="47" width="68" height="32"/>
            <rect x="363" y="45" width="68" height="32" class="nonterminal"/>
            <text class="nonterminal" x="373" y="65">seconds</text>
<!--     </a> -->
         <rect x="453" y="47" width="26" height="32" rx="10"/>
         <rect x="451" y="45" width="26" height="32" class="terminal" rx="10"/>
         <text class="terminal" x="461" y="65">)</text>
         <rect x="51" y="91" width="46" height="32" rx="10"/>
         <rect x="49" y="89" width="46" height="32" class="terminal" rx="10"/>
         <text class="terminal" x="59" y="109">init(</text>
<!--     <a xmlns:xlink="http://www.w3.org/1999/xlink" xlink:href="#days" xlink:title="days"> -->
            <rect x="117" y="91" width="48" height="32"/>
            <rect x="115" y="89" width="48" height="32" class="nonterminal"/>
            <text class="nonterminal" x="125" y="109">days</text>
<!--     </a> -->
         <rect x="185" y="91" width="24" height="32" rx="10"/>
         <rect x="183" y="89" width="24" height="32" class="terminal" rx="10"/>
         <text class="terminal" x="193" y="109">,</text>
<!--     <a xmlns:xlink="http://www.w3.org/1999/xlink" xlink:href="#hours" xlink:title="hours"> -->
            <rect x="229" y="91" width="54" height="32"/>
            <rect x="227" y="89" width="54" height="32" class="nonterminal"/>
            <text class="nonterminal" x="237" y="109">hours</text>
<!--     </a> -->
         <rect x="303" y="91" width="24" height="32" rx="10"/>
         <rect x="301" y="89" width="24" height="32" class="terminal" rx="10"/>
         <text class="terminal" x="311" y="109">,</text>
<!--     <a xmlns:xlink="http://www.w3.org/1999/xlink" xlink:href="#minutes" xlink:title="minutes"> -->
            <rect x="347" y="91" width="66" height="32"/>
            <rect x="345" y="89" width="66" height="32" class="nonterminal"/>
            <text class="nonterminal" x="355" y="109">minutes</text>
<!--     </a> -->
         <rect x="433" y="91" width="24" height="32" rx="10"/>
         <rect x="431" y="89" width="24" height="32" class="terminal" rx="10"/>
         <text class="terminal" x="441" y="109">,</text>
<!--     <a xmlns:xlink="http://www.w3.org/1999/xlink" xlink:href="#seconds" xlink:title="seconds"> -->
            <rect x="477" y="91" width="68" height="32"/>
            <rect x="475" y="89" width="68" height="32" class="nonterminal"/>
            <text class="nonterminal" x="485" y="109">seconds</text>
<!--     </a> -->
         <rect x="565" y="91" width="24" height="32" rx="10"/>
         <rect x="563" y="89" width="24" height="32" class="terminal" rx="10"/>
         <text class="terminal" x="573" y="109">,</text>
<!--     <a xmlns:xlink="http://www.w3.org/1999/xlink" xlink:href="#microseconds" xlink:title="microseconds"> -->
            <rect x="609" y="91" width="102" height="32"/>
            <rect x="607" y="89" width="102" height="32" class="nonterminal"/>
            <text class="nonterminal" x="617" y="109">microseconds</text>
<!--     </a> -->
         <rect x="731" y="91" width="26" height="32" rx="10"/>
         <rect x="729" y="89" width="26" height="32" class="terminal" rx="10"/>
         <text class="terminal" x="739" y="109">)</text>
         <svg:path xmlns:svg="http://www.w3.org/2000/svg" class="line" d="m17 17 h2 m20 0 h10 m46 0 h10 m0 0 h10 m64 0 h10 m0 0 h10 m26 0 h10 m0 0 h530 m-746 0 h20 m726 0 h20 m-766 0 q10 0 10 10 m746 0 q0 -10 10 -10 m-756 10 v24 m746 0 v-24 m-746 24 q0 10 10 10 m726 0 q10 0 10 -10 m-736 10 h10 m46 0 h10 m0 0 h10 m54 0 h10 m0 0 h10 m24 0 h10 m0 0 h10 m66 0 h10 m0 0 h10 m24 0 h10 m0 0 h10 m68 0 h10 m0 0 h10 m26 0 h10 m0 0 h278 m-736 -10 v20 m746 0 v-20 m-746 20 v24 m746 0 v-24 m-746 24 q0 10 10 10 m726 0 q10 0 10 -10 m-736 10 h10 m46 0 h10 m0 0 h10 m48 0 h10 m0 0 h10 m24 0 h10 m0 0 h10 m54 0 h10 m0 0 h10 m24 0 h10 m0 0 h10 m66 0 h10 m0 0 h10 m24 0 h10 m0 0 h10 m68 0 h10 m0 0 h10 m24 0 h10 m0 0 h10 m102 0 h10 m0 0 h10 m26 0 h10 m23 -88 h-3"/>
         <polygon points="795 17 803 13 803 21"/>
         <polygon points="795 17 787 13 787 21"/>
      </svg>
