<svg xmlns="http://www.w3.org/2000/svg" width="823" height="125">
         <defs>
            <style type="text/css">
    @namespace "http://www.w3.org/2000/svg";
    .line                 {fill: none; stroke: #1F1F1F;}
    .bold-line            {stroke: #0A0A0A; shape-rendering: crispEdges; stroke-width: 2; }
    .thin-line            {stroke: #0F0F0F; shape-rendering: crispEdges}
    .filled               {fill: #1F1F1F; stroke: none;}
    text.terminal         {font-family: Verdana, Sans-serif;
                            font-size: 12px;
                            fill: #0A0A0A;
                            font-weight: bold;
                          }
    text.nonterminal      {font-family: Verdana, Sans-serif; font-style: italic;
                            font-size: 12px;
                            fill: #0D0D0D;
                            font-weight: normal;
                          }
    text.regexp           {font-family: Verdana, Sans-serif;
                            font-size: 12px;
                            fill: #0F0F0F;
                            font-weight: normal;
                          }
    rect, circle, polygon {fill: #1F1F1F; stroke: #1F1F1F;}
    rect.terminal         {fill: #cccccc; stroke: #1F1F1F;}
    rect.nonterminal      {fill: #E3E3E3; stroke: #1F1F1F;}
    rect.text             {fill: none; stroke: none;}    
    polygon.regexp        {fill: #EFEFEF; stroke: #1F1F1F;}
  </style>
         </defs>
         <polygon points="9 17 1 13 1 21"/>
         <polygon points="17 17 9 13 9 21"/>
         <rect x="51" y="3" width="48" height="32" rx="10"/>
         <rect x="49" y="1" width="48" height="32" class="terminal" rx="10"/>
         <text class="terminal" x="59" y="21">init(</text>
<!--  <a xmlns:xlink="http://www.w3.org/1999/xlink" xlink:href="#fullDate" xlink:title="fullDate"> -->
            <rect x="119" y="3" width="68" height="32"/>
            <rect x="117" y="1" width="68" height="32" class="nonterminal"/>
            <text class="nonterminal" x="127" y="21">fullDate</text><!-- </a> -->
<rect x="207" y="3" width="26" height="32" rx="10"/>
         <rect x="205" y="1" width="26" height="32" class="terminal" rx="10"/>
         <text class="terminal" x="215" y="21">)</text>
         <rect x="51" y="47" width="48" height="32" rx="10"/>
         <rect x="49" y="45" width="48" height="32" class="terminal" rx="10"/>
         <text class="terminal" x="59" y="65">init(</text>
<!--  <a xmlns:xlink="http://www.w3.org/1999/xlink" xlink:href="#hours" xlink:title="hours"> -->
            <rect x="119" y="47" width="56" height="32"/>
            <rect x="117" y="45" width="56" height="32" class="nonterminal"/>
            <text class="nonterminal" x="127" y="65">hours</text><!-- </a> -->
<rect x="195" y="47" width="24" height="32" rx="10"/>
         <rect x="193" y="45" width="24" height="32" class="terminal" rx="10"/>
         <text class="terminal" x="203" y="65">,</text>
<!--  <a xmlns:xlink="http://www.w3.org/1999/xlink" xlink:href="#minutes" xlink:title="minutes"> -->
            <rect x="239" y="47" width="70" height="32"/>
            <rect x="237" y="45" width="70" height="32" class="nonterminal"/>
            <text class="nonterminal" x="247" y="65">minutes</text><!-- </a> -->
<rect x="329" y="47" width="24" height="32" rx="10"/>
         <rect x="327" y="45" width="24" height="32" class="terminal" rx="10"/>
         <text class="terminal" x="337" y="65">,</text>
<!--  <a xmlns:xlink="http://www.w3.org/1999/xlink" xlink:href="#seconds" xlink:title="seconds"> -->
            <rect x="373" y="47" width="72" height="32"/>
            <rect x="371" y="45" width="72" height="32" class="nonterminal"/>
            <text class="nonterminal" x="381" y="65">seconds</text><!-- </a> -->
<rect x="465" y="47" width="26" height="32" rx="10"/>
         <rect x="463" y="45" width="26" height="32" class="terminal" rx="10"/>
         <text class="terminal" x="473" y="65">)</text>
         <rect x="51" y="91" width="48" height="32" rx="10"/>
         <rect x="49" y="89" width="48" height="32" class="terminal" rx="10"/>
         <text class="terminal" x="59" y="109">init(</text>
<!--  <a xmlns:xlink="http://www.w3.org/1999/xlink" xlink:href="#days" xlink:title="days"> -->
            <rect x="119" y="91" width="50" height="32"/>
            <rect x="117" y="89" width="50" height="32" class="nonterminal"/>
            <text class="nonterminal" x="127" y="109">days</text><!-- </a> -->
<rect x="189" y="91" width="24" height="32" rx="10"/>
         <rect x="187" y="89" width="24" height="32" class="terminal" rx="10"/>
         <text class="terminal" x="197" y="109">,</text>
<!--  <a xmlns:xlink="http://www.w3.org/1999/xlink" xlink:href="#hours" xlink:title="hours"> -->
            <rect x="233" y="91" width="56" height="32"/>
            <rect x="231" y="89" width="56" height="32" class="nonterminal"/>
            <text class="nonterminal" x="241" y="109">hours</text><!-- </a> -->
<rect x="309" y="91" width="24" height="32" rx="10"/>
         <rect x="307" y="89" width="24" height="32" class="terminal" rx="10"/>
         <text class="terminal" x="317" y="109">,</text>
<!--  <a xmlns:xlink="http://www.w3.org/1999/xlink" xlink:href="#minutes" xlink:title="minutes"> -->
            <rect x="353" y="91" width="70" height="32"/>
            <rect x="351" y="89" width="70" height="32" class="nonterminal"/>
            <text class="nonterminal" x="361" y="109">minutes</text><!-- </a> -->
<rect x="443" y="91" width="24" height="32" rx="10"/>
         <rect x="441" y="89" width="24" height="32" class="terminal" rx="10"/>
         <text class="terminal" x="451" y="109">,</text>
<!--  <a xmlns:xlink="http://www.w3.org/1999/xlink" xlink:href="#seconds" xlink:title="seconds"> -->
            <rect x="487" y="91" width="72" height="32"/>
            <rect x="485" y="89" width="72" height="32" class="nonterminal"/>
            <text class="nonterminal" x="495" y="109">seconds</text><!-- </a> -->
<rect x="579" y="91" width="24" height="32" rx="10"/>
         <rect x="577" y="89" width="24" height="32" class="terminal" rx="10"/>
         <text class="terminal" x="587" y="109">,</text>
<!--  <a xmlns:xlink="http://www.w3.org/1999/xlink" xlink:href="#microseconds" xlink:title="microseconds"> -->
            <rect x="623" y="91" width="106" height="32"/>
            <rect x="621" y="89" width="106" height="32" class="nonterminal"/>
            <text class="nonterminal" x="631" y="109">microseconds</text><!-- </a> -->
<rect x="749" y="91" width="26" height="32" rx="10"/>
         <rect x="747" y="89" width="26" height="32" class="terminal" rx="10"/>
         <text class="terminal" x="757" y="109">)</text>
         <svg:path xmlns:svg="http://www.w3.org/2000/svg" class="line" d="m17 17 h2 m20 0 h10 m48 0 h10 m0 0 h10 m68 0 h10 m0 0 h10 m26 0 h10 m0 0 h542 m-764 0 h20 m744 0 h20 m-784 0 q10 0 10 10 m764 0 q0 -10 10 -10 m-774 10 v24 m764 0 v-24 m-764 24 q0 10 10 10 m744 0 q10 0 10 -10 m-754 10 h10 m48 0 h10 m0 0 h10 m56 0 h10 m0 0 h10 m24 0 h10 m0 0 h10 m70 0 h10 m0 0 h10 m24 0 h10 m0 0 h10 m72 0 h10 m0 0 h10 m26 0 h10 m0 0 h284 m-754 -10 v20 m764 0 v-20 m-764 20 v24 m764 0 v-24 m-764 24 q0 10 10 10 m744 0 q10 0 10 -10 m-754 10 h10 m48 0 h10 m0 0 h10 m50 0 h10 m0 0 h10 m24 0 h10 m0 0 h10 m56 0 h10 m0 0 h10 m24 0 h10 m0 0 h10 m70 0 h10 m0 0 h10 m24 0 h10 m0 0 h10 m72 0 h10 m0 0 h10 m24 0 h10 m0 0 h10 m106 0 h10 m0 0 h10 m26 0 h10 m23 -88 h-3"/>
         <polygon points="813 17 821 13 821 21"/>
         <polygon points="813 17 805 13 805 21"/></svg>
