<svg xmlns="http://www.w3.org/2000/svg" width="863" height="189">
         <defs>
            <style type="text/css">
    @namespace "http://www.w3.org/2000/svg";
    .line                 {fill: none; stroke: #1F1F1F;}
    .bold-line            {stroke: #0A0A0A; shape-rendering: crispEdges; stroke-width: 2; }
    .thin-line            {stroke: #0F0F0F; shape-rendering: crispEdges}
    .filled               {fill: #1F1F1F; stroke: none;}
    text.terminal         {font-family: Verdana, Sans-serif;
                            font-size: 12px;
                            fill: #0A0A0A;
                            font-weight: bold;
                          }
    text.nonterminal      {font-family: Verdana, Sans-serif; font-style: italic;
                            font-size: 12px;
                            fill: #0D0D0D;
                            font-weight: normal;
                          }
    text.regexp           {font-family: Verdana, Sans-serif;
                            font-size: 12px;
                            fill: #0F0F0F;
                            font-weight: normal;
                          }
    rect, circle, polygon {fill: #1F1F1F; stroke: #1F1F1F;}
    rect.terminal         {fill: #cccccc; stroke: #1F1F1F;}
    rect.nonterminal      {fill: #E3E3E3; stroke: #1F1F1F;}
    rect.text             {fill: none; stroke: none;}    
    polygon.regexp        {fill: #EFEFEF; stroke: #1F1F1F;}
  </style>
         </defs>
         <polygon points="9 17 1 13 1 21"/>
         <polygon points="17 17 9 13 9 21"/>
         <rect x="51" y="3" width="48" height="32" rx="10"/>
         <rect x="49" y="1" width="48" height="32" class="terminal" rx="10"/>
         <text class="terminal" x="59" y="21">init(</text>
<!--  <a xmlns:xlink="http://www.w3.org/1999/xlink" xlink:href="#fullDate" xlink:title="fullDate"> -->
            <rect x="119" y="3" width="68" height="32"/>
            <rect x="117" y="1" width="68" height="32" class="nonterminal"/>
            <text class="nonterminal" x="127" y="21">fullDate</text><!-- </a> -->
<rect x="207" y="3" width="26" height="32" rx="10"/>
         <rect x="205" y="1" width="26" height="32" class="terminal" rx="10"/>
         <text class="terminal" x="215" y="21">)</text>
         <rect x="51" y="47" width="48" height="32" rx="10"/>
         <rect x="49" y="45" width="48" height="32" class="terminal" rx="10"/>
         <text class="terminal" x="59" y="65">init(</text>
<!--  <a xmlns:xlink="http://www.w3.org/1999/xlink" xlink:href="#hours" xlink:title="hours"> -->
            <rect x="119" y="47" width="56" height="32"/>
            <rect x="117" y="45" width="56" height="32" class="nonterminal"/>
            <text class="nonterminal" x="127" y="65">hours</text><!-- </a> -->
<rect x="195" y="47" width="24" height="32" rx="10"/>
         <rect x="193" y="45" width="24" height="32" class="terminal" rx="10"/>
         <text class="terminal" x="203" y="65">,</text>
<!--  <a xmlns:xlink="http://www.w3.org/1999/xlink" xlink:href="#minutes" xlink:title="minutes"> -->
            <rect x="239" y="47" width="70" height="32"/>
            <rect x="237" y="45" width="70" height="32" class="nonterminal"/>
            <text class="nonterminal" x="247" y="65">minutes</text><!-- </a> -->
<rect x="349" y="79" width="24" height="32" rx="10"/>
         <rect x="347" y="77" width="24" height="32" class="terminal" rx="10"/>
         <text class="terminal" x="357" y="97">,</text>
<!--  <a xmlns:xlink="http://www.w3.org/1999/xlink" xlink:href="#seconds" xlink:title="seconds"> -->
            <rect x="393" y="79" width="72" height="32"/>
            <rect x="391" y="77" width="72" height="32" class="nonterminal"/>
            <text class="nonterminal" x="401" y="97">seconds</text><!-- </a> -->
<rect x="505" y="47" width="26" height="32" rx="10"/>
         <rect x="503" y="45" width="26" height="32" class="terminal" rx="10"/>
         <text class="terminal" x="513" y="65">)</text>
         <rect x="51" y="123" width="48" height="32" rx="10"/>
         <rect x="49" y="121" width="48" height="32" class="terminal" rx="10"/>
         <text class="terminal" x="59" y="141">init(</text>
<!--  <a xmlns:xlink="http://www.w3.org/1999/xlink" xlink:href="#days" xlink:title="days"> -->
            <rect x="119" y="123" width="50" height="32"/>
            <rect x="117" y="121" width="50" height="32" class="nonterminal"/>
            <text class="nonterminal" x="127" y="141">days</text><!-- </a> -->
<rect x="189" y="123" width="24" height="32" rx="10"/>
         <rect x="187" y="121" width="24" height="32" class="terminal" rx="10"/>
         <text class="terminal" x="197" y="141">,</text>
<!--  <a xmlns:xlink="http://www.w3.org/1999/xlink" xlink:href="#hours" xlink:title="hours"> -->
            <rect x="233" y="123" width="56" height="32"/>
            <rect x="231" y="121" width="56" height="32" class="nonterminal"/>
            <text class="nonterminal" x="241" y="141">hours</text><!-- </a> -->
<rect x="309" y="123" width="24" height="32" rx="10"/>
         <rect x="307" y="121" width="24" height="32" class="terminal" rx="10"/>
         <text class="terminal" x="317" y="141">,</text>
<!--  <a xmlns:xlink="http://www.w3.org/1999/xlink" xlink:href="#minutes" xlink:title="minutes"> -->
            <rect x="353" y="123" width="70" height="32"/>
            <rect x="351" y="121" width="70" height="32" class="nonterminal"/>
            <text class="nonterminal" x="361" y="141">minutes</text><!-- </a> -->
<rect x="443" y="123" width="24" height="32" rx="10"/>
         <rect x="441" y="121" width="24" height="32" class="terminal" rx="10"/>
         <text class="terminal" x="451" y="141">,</text>
<!--  <a xmlns:xlink="http://www.w3.org/1999/xlink" xlink:href="#seconds" xlink:title="seconds"> -->
            <rect x="487" y="123" width="72" height="32"/>
            <rect x="485" y="121" width="72" height="32" class="nonterminal"/>
            <text class="nonterminal" x="495" y="141">seconds</text><!-- </a> -->
<rect x="599" y="155" width="24" height="32" rx="10"/>
         <rect x="597" y="153" width="24" height="32" class="terminal" rx="10"/>
         <text class="terminal" x="607" y="173">,</text>
<!--  <a xmlns:xlink="http://www.w3.org/1999/xlink" xlink:href="#microseconds" xlink:title="microseconds"> -->
            <rect x="643" y="155" width="106" height="32"/>
            <rect x="641" y="153" width="106" height="32" class="nonterminal"/>
            <text class="nonterminal" x="651" y="173">microseconds</text><!-- </a> -->
<rect x="789" y="123" width="26" height="32" rx="10"/>
         <rect x="787" y="121" width="26" height="32" class="terminal" rx="10"/>
         <text class="terminal" x="797" y="141">)</text>
         <svg:path xmlns:svg="http://www.w3.org/2000/svg" class="line" d="m17 17 h2 m20 0 h10 m48 0 h10 m0 0 h10 m68 0 h10 m0 0 h10 m26 0 h10 m0 0 h582 m-804 0 h20 m784 0 h20 m-824 0 q10 0 10 10 m804 0 q0 -10 10 -10 m-814 10 v24 m804 0 v-24 m-804 24 q0 10 10 10 m784 0 q10 0 10 -10 m-794 10 h10 m48 0 h10 m0 0 h10 m56 0 h10 m0 0 h10 m24 0 h10 m0 0 h10 m70 0 h10 m20 0 h10 m0 0 h126 m-156 0 h20 m136 0 h20 m-176 0 q10 0 10 10 m156 0 q0 -10 10 -10 m-166 10 v12 m156 0 v-12 m-156 12 q0 10 10 10 m136 0 q10 0 10 -10 m-146 10 h10 m24 0 h10 m0 0 h10 m72 0 h10 m20 -32 h10 m26 0 h10 m0 0 h284 m-794 -10 v20 m804 0 v-20 m-804 20 v56 m804 0 v-56 m-804 56 q0 10 10 10 m784 0 q10 0 10 -10 m-794 10 h10 m48 0 h10 m0 0 h10 m50 0 h10 m0 0 h10 m24 0 h10 m0 0 h10 m56 0 h10 m0 0 h10 m24 0 h10 m0 0 h10 m70 0 h10 m0 0 h10 m24 0 h10 m0 0 h10 m72 0 h10 m20 0 h10 m0 0 h160 m-190 0 h20 m170 0 h20 m-210 0 q10 0 10 10 m190 0 q0 -10 10 -10 m-200 10 v12 m190 0 v-12 m-190 12 q0 10 10 10 m170 0 q10 0 10 -10 m-180 10 h10 m24 0 h10 m0 0 h10 m106 0 h10 m20 -32 h10 m26 0 h10 m23 -120 h-3"/>
         <polygon points="853 17 861 13 861 21"/>
         <polygon points="853 17 845 13 845 21"/></svg>
