<svg xmlns="http://www.w3.org/2000/svg" width="337" height="213">
         <defs>
            <style type="text/css">
               @namespace "http://www.w3.org/2000/svg";
               .line                 {fill: none; stroke: #1F1F1F;}
               .bold-line            {stroke: #0A0A0A; shape-rendering: crispEdges; stroke-width:
               2; }
               .thin-line            {stroke: #0F0F0F; shape-rendering: crispEdges}
               .filled               {fill: #1F1F1F; stroke: none;}
               text.terminal         {font-family: Verdana, Sans-serif;
               font-size: 12px;
               fill: #0A0A0A;
               font-weight: bold;
               }
               text.nonterminal      {font-family: Verdana, Sans-serif; font-style: italic;
               font-size: 12px;
               fill: #0D0D0D;
               }
               text.regexp           {font-family: Verdana, Sans-serif;
               font-size: 12px;
               fill: #0F0F0F;
               }
               rect, circle, polygon {fill: #1F1F1F; stroke: #1F1F1F;}
               rect.terminal         {fill: #CCCCCC; stroke: #1F1F1F;}
               rect.nonterminal      {fill: #E3E3E3; stroke: #1F1F1F;}
               rect.text             {fill: none; stroke: none;}
               polygon.regexp        {fill: #EFEFEF; stroke: #1F1F1F;}

            </style>
         </defs>

         <polygon points="9 17 1 13 1 21"/>
         <polygon points="17 17 9 13 9 21"/>
         <rect x="31" y="3" width="72" height="32" rx="10"/>
         <rect x="29" y="1" width="72" height="32" class="terminal" rx="10"/>
         <text class="terminal" x="39" y="21">option=</text>
         <rect x="143" y="3" width="82" height="32" rx="10"/>
         <rect x="141" y="1" width="82" height="32" class="terminal" rx="10"/>
         <text class="terminal" x="151" y="21">"Normal"</text>
         <rect x="143" y="47" width="80" height="32" rx="10"/>
         <rect x="141" y="45" width="80" height="32" class="terminal" rx="10"/>
         <text class="terminal" x="151" y="65">"Thread"</text>
         <rect x="143" y="91" width="96" height="32" rx="10"/>
         <rect x="141" y="89" width="96" height="32" class="terminal" rx="10"/>
         <text class="terminal" x="151" y="109">"Standard"</text>
         <rect x="143" y="135" width="58" height="32" rx="10"/>
         <rect x="141" y="133" width="58" height="32" class="terminal" rx="10"/>
         <text class="terminal" x="151" y="153">"Full"</text>
         <rect x="143" y="179" width="146" height="32" rx="10"/>
         <rect x="141" y="177" width="146" height="32" class="terminal" rx="10"/>
         <text class="terminal" x="151" y="197">"Profile" | "Probe"</text>
         <path class="line" d="m17 17 h2 m0 0 h10 m72 0 h10 m20 0 h10 m82 0 h10 m0 0 h64 m-186 0 h20 m166 0 h20 m-206 0 q10 0 10 10 m186 0 q0 -10 10 -10 m-196 10 v24 m186 0 v-24 m-186 24 q0 10 10 10 m166 0 q10 0 10 -10 m-176 10 h10 m80 0 h10 m0 0 h66 m-176 -10 v20 m186 0 v-20 m-186 20 v24 m186 0 v-24 m-186 24 q0 10 10 10 m166 0 q10 0 10 -10 m-176 10 h10 m96 0 h10 m0 0 h50 m-176 -10 v20 m186 0 v-20 m-186 20 v24 m186 0 v-24 m-186 24 q0 10 10 10 m166 0 q10 0 10 -10 m-176 10 h10 m58 0 h10 m0 0 h88 m-176 -10 v20 m186 0 v-20 m-186 20 v24 m186 0 v-24 m-186 24 q0 10 10 10 m166 0 q10 0 10 -10 m-176 10 h10 m146 0 h10 m23 -176 h-3"/>
         <polygon points="327 17 335 13 335 21"/>
         <polygon points="327 17 319 13 319 21"/>
</svg>