<svg xmlns="http://www.w3.org/2000/svg" width="627" height="37">
         <defs>
            <style type="text/css">
               @namespace "http://www.w3.org/2000/svg";
               .line                 {fill: none; stroke: #1F1F1F;}
               .bold-line            {stroke: #0A0A0A; shape-rendering: crispEdges; stroke-width:
               2; }
               .thin-line            {stroke: #0F0F0F; shape-rendering: crispEdges}
               .filled               {fill: #1F1F1F; stroke: none;}
               text.terminal         {font-family: Verdana, Sans-serif;
               font-size: 12px;
               fill: #0A0A0A;
               font-weight: bold;
               }
               text.nonterminal      {font-family: Verdana, Sans-serif; font-style: italic;
               font-size: 12px;
               fill: #0D0D0D;
               }
               text.regexp           {font-family: Verdana, Sans-serif;
               font-size: 12px;
               fill: #0F0F0F;
               }
               rect, circle, polygon {fill: #1F1F1F; stroke: #1F1F1F;}
               rect.terminal         {fill: #CCCCCC; stroke: #1F1F1F;}
               rect.nonterminal      {fill: #E3E3E3; stroke: #1F1F1F;}
               rect.text             {fill: none; stroke: none;}
               polygon.regexp        {fill: #EFEFEF; stroke: #1F1F1F;}

            </style>
         </defs>

         <defs>
            <style type="text/css">
    @namespace "http://www.w3.org/2000/svg";
    .line                 {fill: none; stroke: #1F1F1F;}
    .bold-line            {stroke: #0A0A0A; shape-rendering: crispEdges; stroke-width: 2; }
    .thin-line            {stroke: #0F0F0F; shape-rendering: crispEdges}
    .filled               {fill: #1F1F1F; stroke: none;}
    text.terminal         {font-family: Verdana, Sans-serif;
                            font-size: 12px;
                            fill: #0A0A0A;
                            font-weight: bold;
                          }
    text.nonterminal      {font-family: Verdana, Sans-serif;
                            font-size: 12px;
                            fill: #0D0D0D;
                            font-weight: normal;
                          }
    text.regexp           {font-family: Verdana, Sans-serif;
                            font-size: 12px;
                            fill: #0F0F0F;
                            font-weight: normal;
                          }
    rect, circle, polygon {fill: #1F1F1F; stroke: #1F1F1F;}
    rect.terminal         {fill: #cccccc; stroke: #1F1F1F;}
    rect.nonterminal      {fill: #E3E3E3; stroke: #1F1F1F;}
    rect.text             {fill: none; stroke: none;}    
    polygon.regexp        {fill: #EFEFEF; stroke: #1F1F1F;}
  </style>
         </defs>
         <polygon points="9 17 1 13 1 21"/>
         <polygon points="17 17 9 13 9 21"/>
         <rect x="31" y="3" width="82" height="32" rx="10"/>
         <rect x="29" y="1" width="82" height="32" class="terminal" rx="10"/>
         <text class="terminal" x="39" y="21">STREAM(</text><a xmlns:xlink="http://www.w3.org/1999/xlink" xlink:href="#name" xlink:title="name">
            <rect x="133" y="3" width="56" height="32"/>
            <rect x="131" y="1" width="56" height="32" class="nonterminal"/>
            <text class="nonterminal" x="141" y="21">name</text></a><rect x="209" y="3" width="24" height="32" rx="10"/>
         <rect x="207" y="1" width="24" height="32" class="terminal" rx="10"/>
         <text class="terminal" x="217" y="21">,</text>
         <rect x="253" y="3" width="102" height="32" rx="10"/>
         <rect x="251" y="1" width="102" height="32" class="terminal" rx="10"/>
         <text class="terminal" x="261" y="21">"Command"</text>
         <rect x="375" y="3" width="24" height="32" rx="10"/>
         <rect x="373" y="1" width="24" height="32" class="terminal" rx="10"/>
         <text class="terminal" x="383" y="21">,</text><a xmlns:xlink="http://www.w3.org/1999/xlink" xlink:href="#stream_command" xlink:title="stream_command">
            <rect x="419" y="3" width="134" height="32"/>
            <rect x="417" y="1" width="134" height="32" class="nonterminal"/>
            <text class="nonterminal" x="427" y="21">stream_command</text></a><rect x="573" y="3" width="26" height="32" rx="10"/>
         <rect x="571" y="1" width="26" height="32" class="terminal" rx="10"/>
         <text class="terminal" x="581" y="21">)</text>
         <svg:path xmlns:svg="http://www.w3.org/2000/svg" class="line" d="m17 17 h2 m0 0 h10 m82 0 h10 m0 0 h10 m56 0 h10 m0 0 h10 m24 0 h10 m0 0 h10 m102 0 h10 m0 0 h10 m24 0 h10 m0 0 h10 m134 0 h10 m0 0 h10 m26 0 h10 m3 0 h-3"/>
         <polygon points="617 17 625 13 625 21"/>
         <polygon points="617 17 609 13 609 21"/>
</svg>