      <svg xmlns="http://www.w3.org/2000/svg" width="828" height="200">
         <defs>
            <style type="text/css">
               @namespace "http://www.w3.org/2000/svg";
               .line                 {fill: none; stroke: #1F1F1F;}
               .bold-line            {stroke: #0A0A0A; shape-rendering: crispEdges; stroke-width:
               2; }
               .thin-line            {stroke: #0F0F0F; shape-rendering: crispEdges}
               .filled               {fill: #1F1F1F; stroke: none;}
               text.terminal         {font-family: Verdana, Sans-serif;
               font-size: 12px;
               fill: #0A0A0A;
               font-weight: bold;
               }
               text.nonterminal      {font-family: Verdana, Sans-serif; font-style: italic;
               font-size: 12px;
               fill: #0D0D0D;
               }
               text.regexp           {font-family: Verdana, Sans-serif;
               font-size: 12px;
               fill: #0F0F0F;
               }
               rect, circle, polygon {fill: #1F1F1F; stroke: #1F1F1F;}
               rect.terminal         {fill: #CCCCCC; stroke: #1F1F1F;}
               rect.nonterminal      {fill: #E3E3E3; stroke: #1F1F1F;}
               rect.text             {fill: none; stroke: none;}    
               polygon.regexp        {fill: #EFEFEF; stroke: #1F1F1F;}
               
            </style>
         </defs>
         <polygon points="9 17 1 13 1 21"/>
         <polygon points="17 17 9 13 9 21"/>
         <rect x="31" y="3" width="62" height="32" rx="10"/>
         <rect x="29" y="1" width="62" height="32" class="terminal" rx="10"/>
         <text class="terminal" x="39" y="21">write(</text>
<!--     <a xmlns:xlink="http://www.w3.org/1999/xlink" xlink:href="#srvr" xlink:title="srvr"> -->
            <rect x="113" y="3" width="44" height="32"/>
            <rect x="111" y="1" width="44" height="32" class="nonterminal"/>
            <text class="nonterminal" x="121" y="21">srvr</text>
<!--     </a> -->
         <rect x="177" y="3" width="24" height="32" rx="10"/>
         <rect x="175" y="1" width="24" height="32" class="terminal" rx="10"/>
         <text class="terminal" x="185" y="21">,</text>
<!--     <a xmlns:xlink="http://www.w3.org/1999/xlink" xlink:href="#src" xlink:title="src"> -->
            <rect x="241" y="35" width="38" height="32"/>
            <rect x="239" y="33" width="38" height="32" class="nonterminal"/>
            <text class="nonterminal" x="249" y="53">src</text>
<!--     </a> -->
         <rect x="319" y="3" width="24" height="32" rx="10"/>
         <rect x="317" y="1" width="24" height="32" class="terminal" rx="10"/>
         <text class="terminal" x="327" y="21">,</text>
<!--     <a xmlns:xlink="http://www.w3.org/1999/xlink" xlink:href="#type" xlink:title="type"> -->
            <rect x="383" y="35" width="48" height="32"/>
            <rect x="381" y="33" width="48" height="32" class="nonterminal"/>
            <text class="nonterminal" x="391" y="53">type</text>
<!--     </a> -->
         <rect x="471" y="3" width="24" height="32" rx="10"/>
         <rect x="469" y="1" width="24" height="32" class="terminal" rx="10"/>
         <text class="terminal" x="479" y="21">,</text>
<!--     <a xmlns:xlink="http://www.w3.org/1999/xlink" xlink:href="#category" xlink:title="category"> -->
            <rect x="535" y="35" width="74" height="32"/>
            <rect x="533" y="33" width="74" height="32" class="nonterminal"/>
            <text class="nonterminal" x="543" y="53">category</text>
<!--     </a> -->
         <rect x="649" y="3" width="24" height="32" rx="10"/>
         <rect x="647" y="1" width="24" height="32" class="terminal" rx="10"/>
         <text class="terminal" x="657" y="21">,</text>
<!--     <a xmlns:xlink="http://www.w3.org/1999/xlink" xlink:href="#id" xlink:title="id"> -->
            <rect x="713" y="35" width="30" height="32"/>
            <rect x="711" y="33" width="30" height="32" class="nonterminal"/>
            <text class="nonterminal" x="721" y="53">id</text>
<!--     </a> -->
         <rect x="783" y="3" width="24" height="32" rx="10"/>
         <rect x="781" y="1" width="24" height="32" class="terminal" rx="10"/>
         <text class="terminal" x="791" y="21">,</text>
<!--     <a xmlns:xlink="http://www.w3.org/1999/xlink" xlink:href="#data" xlink:title="data"> -->
            <rect x="527" y="167" width="48" height="32"/>
            <rect x="525" y="165" width="48" height="32" class="nonterminal"/>
            <text class="nonterminal" x="535" y="185">data</text>
<!--     </a> -->
         <rect x="615" y="135" width="24" height="32" rx="10"/>
         <rect x="613" y="133" width="24" height="32" class="terminal" rx="10"/>
         <text class="terminal" x="623" y="153">,</text>
<!--     <a xmlns:xlink="http://www.w3.org/1999/xlink" xlink:href="#string" xlink:title="string"> -->
            <rect x="679" y="101" width="56" height="32"/>
            <rect x="677" y="99" width="56" height="32" class="nonterminal"/>
            <text class="nonterminal" x="687" y="119">string</text>
<!--     </a> -->
         <rect x="775" y="135" width="26" height="32" rx="10"/>
         <rect x="773" y="133" width="26" height="32" class="terminal" rx="10"/>
         <text class="terminal" x="783" y="153">)</text>
         <svg:path xmlns:svg="http://www.w3.org/2000/svg" class="line" d="m17 17 h2 m0 0 h10 m62 0 h10 m0 0 h10 m44 0 h10 m0 0 h10 m24 0 h10 m20 0 h10 m0 0 h48 m-78 0 h20 m58 0 h20 m-98 0 q10 0 10 10 m78 0 q0 -10 10 -10 m-88 10 v12 m78 0 v-12 m-78 12 q0 10 10 10 m58 0 q10 0 10 -10 m-68 10 h10 m38 0 h10 m20 -32 h10 m24 0 h10 m20 0 h10 m0 0 h58 m-88 0 h20 m68 0 h20 m-108 0 q10 0 10 10 m88 0 q0 -10 10 -10 m-98 10 v12 m88 0 v-12 m-88 12 q0 10 10 10 m68 0 q10 0 10 -10 m-78 10 h10 m48 0 h10 m20 -32 h10 m24 0 h10 m20 0 h10 m0 0 h84 m-114 0 h20 m94 0 h20 m-134 0 q10 0 10 10 m114 0 q0 -10 10 -10 m-124 10 v12 m114 0 v-12 m-114 12 q0 10 10 10 m94 0 q10 0 10 -10 m-104 10 h10 m74 0 h10 m20 -32 h10 m24 0 h10 m20 0 h10 m0 0 h40 m-70 0 h20 m50 0 h20 m-90 0 q10 0 10 10 m70 0 q0 -10 10 -10 m-80 10 v12 m70 0 v-12 m-70 12 q0 10 10 10 m50 0 q10 0 10 -10 m-60 10 h10 m30 0 h10 m20 -32 h10 m24 0 h10 m2 0 l2 0 m2 0 l2 0 m2 0 l2 0 m-344 132 l2 0 m2 0 l2 0 m2 0 l2 0 m22 0 h10 m0 0 h58 m-88 0 h20 m68 0 h20 m-108 0 q10 0 10 10 m88 0 q0 -10 10 -10 m-98 10 v12 m88 0 v-12 m-88 12 q0 10 10 10 m68 0 q10 0 10 -10 m-78 10 h10 m48 0 h10 m20 -32 h10 m24 0 h10 m20 0 h10 m0 0 h66 m-96 0 l20 0 m-1 0 q-9 0 -9 -10 l0 -14 q0 -10 10 -10 m76 34 l20 0 m-20 0 q10 0 10 -10 l0 -14 q0 -10 -10 -10 m-76 0 h10 m56 0 h10 m20 34 h10 m26 0 h10 m3 0 h-3"/>
         <polygon points="819 149 827 145 827 153"/>
         <polygon points="819 149 811 145 811 153"/>
      </svg>
