      <svg xmlns="http://www.w3.org/2000/svg" width="320" height="36">
         <defs>
            <style type="text/css">
               @namespace "http://www.w3.org/2000/svg";
               .line                 {fill: none; stroke: #1F1F1F;}
               .bold-line            {stroke: #0A0A0A; shape-rendering: crispEdges; stroke-width:
               2; }
               .thin-line            {stroke: #0F0F0F; shape-rendering: crispEdges}
               .filled               {fill: #1F1F1F; stroke: none;}
               text.terminal         {font-family: Liberation Sans, Sans-serif;
               font-size: 13px;
               fill: #0A0A0A;
               font-weight: bold;
               }
               text.nonterminal      {font-family: Liberation Sans, Sans-serif; font-style: italic;
               font-size: 13px;
               fill: #0D0D0D;
               }
               text.regexp           {font-family: Liberation Sans, Sans-serif;
               font-size: 13px;
               fill: #0F0F0F;
               }
               rect, circle, polygon {fill: #1F1F1F; stroke: #1F1F1F;}
               rect.terminal         {fill: #CCCCCC; stroke: #1F1F1F;}
               rect.nonterminal      {fill: #E3E3E3; stroke: #1F1F1F;}
               rect.text             {fill: none; stroke: none;}    
               polygon.regexp        {fill: #EFEFEF; stroke: #1F1F1F;}
               
            </style>
         </defs>
         <polygon points="9 17 1 13 1 21"/>
         <polygon points="17 17 9 13 9 21"/>
         <rect x="31" y="3" width="98" height="32" rx="10"/>
         <rect x="29" y="1" width="98" height="32" class="terminal" rx="10"/>
         <text class="terminal" x="39" y="21">STATEMENT</text>
         <polygon points="149 19 156 3 286 3 293 19 286 35 156 35"/>
         <polygon points="147 17 154 1 284 1 291 17 284 33 154 33" class="regexp"/>
<!--     <a xmlns:xlink="http://www.w3.org/1999/xlink" xlink:href="#DETAIL" xlink:title="DETAIL"> -->
            <rect class="text" x="162" y="10" width="43" height="14"/>
            <text class="regexp" x="162" y="21">DETAIL</text>
<!--     </a> -->
         <text class="regexp" x="210" y="21">- </text>
<!--     <a xmlns:xlink="http://www.w3.org/1999/xlink" xlink:href="#fragment" xlink:title="fragment"> -->
            <rect class="text" x="219" y="10" width="56" height="14"/>
            <text class="regexp" x="219" y="21">fragment</text>
<!--     </a> -->
         <svg:path xmlns:svg="http://www.w3.org/2000/svg" class="line" d="m17 17 h2 m0 0 h10 m98 0 h10 m0 0 h10 m144 0 h10 m3 0 h-3"/>
         <polygon points="311 17 319 13 319 21"/>
         <polygon points="311 17 303 13 303 21"/>
      </svg>
