      <svg xmlns="http://www.w3.org/2000/svg" width="844" height="102">
         <defs>
            <style type="text/css">
               @namespace "http://www.w3.org/2000/svg";
               .line                 {fill: none; stroke: #1F1F1F;}
               .bold-line            {stroke: #0A0A0A; shape-rendering: crispEdges; stroke-width:
               2; }
               .thin-line            {stroke: #0F0F0F; shape-rendering: crispEdges}
               .filled               {fill: #1F1F1F; stroke: none;}
               text.terminal         {font-family: Liberation Sans, Sans-serif;
               font-size: 13px;
               fill: #0A0A0A;
               font-weight: bold;
               }
               text.nonterminal      {font-family: Liberation Sans, Sans-serif; font-style: italic;
               font-size: 13px;
               fill: #0D0D0D;
               }
               text.regexp           {font-family: Liberation Sans, Sans-serif;
               font-size: 13px;
               fill: #0F0F0F;
               }
               rect, circle, polygon {fill: #1F1F1F; stroke: #1F1F1F;}
               rect.terminal         {fill: #CCCCCC; stroke: #1F1F1F;}
               rect.nonterminal      {fill: #E3E3E3; stroke: #1F1F1F;}
               rect.text             {fill: none; stroke: none;}    
               polygon.regexp        {fill: #EFEFEF; stroke: #1F1F1F;}
               
            </style>
         </defs>
         <polygon points="9 17 1 13 1 21"/>
         <polygon points="17 17 9 13 9 21"/>
         <rect x="31" y="3" width="412" height="32" rx="10"/>
         <rect x="29" y="1" width="412" height="32" class="terminal" rx="10"/>
         <text class="terminal" x="39" y="21">use this dummy diagram to cut out the diagrams needed for</text>
         <rect x="463" y="3" width="170" height="32" rx="10"/>
         <rect x="461" y="1" width="170" height="32" class="terminal" rx="10"/>
         <text class="terminal" x="471" y="21">beginning of statement</text>
         <rect x="653" y="3" width="170" height="32" rx="10"/>
         <rect x="651" y="1" width="170" height="32" class="terminal" rx="10"/>
         <text class="terminal" x="661" y="21">statement continuation</text>
         <rect x="659" y="69" width="158" height="32" rx="10"/>
         <rect x="657" y="67" width="158" height="32" class="terminal" rx="10"/>
         <text class="terminal" x="667" y="87">and end of statement</text>
         <svg:path xmlns:svg="http://www.w3.org/2000/svg" class="line" d="m17 17 h2 m0 0 h10 m412 0 h10 m0 0 h10 m170 0 h10 m0 0 h10 m170 0 h10 m2 0 l2 0 m2 0 l2 0 m2 0 l2 0 m-208 66 l2 0 m2 0 l2 0 m2 0 l2 0 m2 0 h10 m158 0 h10 m3 0 h-3"/>
         <polygon points="835 83 843 79 843 87"/>
         <polygon points="835 83 827 79 827 87"/>
      </svg>
