      <svg xmlns="http://www.w3.org/2000/svg" width="906" height="36">
         <defs>
            <style type="text/css">
               @namespace "http://www.w3.org/2000/svg";
               .line                 {fill: none; stroke: #1F1F1F;}
               .bold-line            {stroke: #0A0A0A; shape-rendering: crispEdges; stroke-width:
               2; }
               .thin-line            {stroke: #0F0F0F; shape-rendering: crispEdges}
               .filled               {fill: #1F1F1F; stroke: none;}
               text.terminal         {font-family: Verdana, Sans-serif;
               font-size: 12px;
               fill: #0A0A0A;
               font-weight: bold;
               }
               text.nonterminal      {font-family: Verdana, Sans-serif;
               font-size: 12px;
               fill: #0D0D0D;
               }
               text.regexp           {font-family: Verdana, Sans-serif;
               font-size: 12px;
               fill: #0F0F0F;
               }
               rect, circle, polygon {fill: #1F1F1F; stroke: #1F1F1F;}
               rect.terminal         {fill: #CCCCCC; stroke: #1F1F1F;}
               rect.nonterminal      {fill: #E3E3E3; stroke: #1F1F1F;}
               rect.text             {fill: none; stroke: none;}    
               polygon.regexp        {fill: #EFEFEF; stroke: #1F1F1F;}
               
            </style>
         </defs>
         <polygon points="9 17 1 13 1 21"/>
         <polygon points="17 17 9 13 9 21"/>
         <a xmlns:xlink="http://www.w3.org/1999/xlink" xlink:href="#win" xlink:title="win">
            <rect x="31" y="3" width="42" height="32"/>
            <rect x="29" y="1" width="42" height="32" class="nonterminal"/>
            <text class="nonterminal" x="39" y="21">win</text>
         </a>
         <rect x="93" y="3" width="30" height="32" rx="10"/>
         <rect x="91" y="1" width="30" height="32" class="terminal" rx="10"/>
         <text class="terminal" x="101" y="21">~</text>
         <rect x="143" y="3" width="70" height="32" rx="10"/>
         <rect x="141" y="1" width="70" height="32" class="terminal" rx="10"/>
         <text class="terminal" x="151" y="21">border(</text>
         <a xmlns:xlink="http://www.w3.org/1999/xlink" xlink:href="#ls" xlink:title="ls">
            <rect x="233" y="3" width="30" height="32"/>
            <rect x="231" y="1" width="30" height="32" class="nonterminal"/>
            <text class="nonterminal" x="241" y="21">ls</text>
         </a>
         <rect x="283" y="3" width="24" height="32" rx="10"/>
         <rect x="281" y="1" width="24" height="32" class="terminal" rx="10"/>
         <text class="terminal" x="291" y="21">,</text>
         <a xmlns:xlink="http://www.w3.org/1999/xlink" xlink:href="#rs" xlink:title="rs">
            <rect x="327" y="3" width="32" height="32"/>
            <rect x="325" y="1" width="32" height="32" class="nonterminal"/>
            <text class="nonterminal" x="335" y="21">rs</text>
         </a>
         <rect x="379" y="3" width="24" height="32" rx="10"/>
         <rect x="377" y="1" width="24" height="32" class="terminal" rx="10"/>
         <text class="terminal" x="387" y="21">,</text>
         <a xmlns:xlink="http://www.w3.org/1999/xlink" xlink:href="#bs" xlink:title="bs">
            <rect x="423" y="3" width="34" height="32"/>
            <rect x="421" y="1" width="34" height="32" class="nonterminal"/>
            <text class="nonterminal" x="431" y="21">bs</text>
         </a>
         <rect x="477" y="3" width="24" height="32" rx="10"/>
         <rect x="475" y="1" width="24" height="32" class="terminal" rx="10"/>
         <text class="terminal" x="485" y="21">,</text>
         <a xmlns:xlink="http://www.w3.org/1999/xlink" xlink:href="#tl" xlink:title="tl">
            <rect x="521" y="3" width="28" height="32"/>
            <rect x="519" y="1" width="28" height="32" class="nonterminal"/>
            <text class="nonterminal" x="529" y="21">tl</text>
         </a>
         <rect x="569" y="3" width="24" height="32" rx="10"/>
         <rect x="567" y="1" width="24" height="32" class="terminal" rx="10"/>
         <text class="terminal" x="577" y="21">,</text>
         <a xmlns:xlink="http://www.w3.org/1999/xlink" xlink:href="#tr" xlink:title="tr">
            <rect x="613" y="3" width="30" height="32"/>
            <rect x="611" y="1" width="30" height="32" class="nonterminal"/>
            <text class="nonterminal" x="621" y="21">tr</text>
         </a>
         <rect x="663" y="3" width="24" height="32" rx="10"/>
         <rect x="661" y="1" width="24" height="32" class="terminal" rx="10"/>
         <text class="terminal" x="671" y="21">,</text>
         <a xmlns:xlink="http://www.w3.org/1999/xlink" xlink:href="#bl" xlink:title="bl">
            <rect x="707" y="3" width="30" height="32"/>
            <rect x="705" y="1" width="30" height="32" class="nonterminal"/>
            <text class="nonterminal" x="715" y="21">bl</text>
         </a>
         <rect x="757" y="3" width="24" height="32" rx="10"/>
         <rect x="755" y="1" width="24" height="32" class="terminal" rx="10"/>
         <text class="terminal" x="765" y="21">,</text>
         <a xmlns:xlink="http://www.w3.org/1999/xlink" xlink:href="#br" xlink:title="br">
            <rect x="801" y="3" width="32" height="32"/>
            <rect x="799" y="1" width="32" height="32" class="nonterminal"/>
            <text class="nonterminal" x="809" y="21">br</text>
         </a>
         <rect x="853" y="3" width="26" height="32" rx="10"/>
         <rect x="851" y="1" width="26" height="32" class="terminal" rx="10"/>
         <text class="terminal" x="861" y="21">)</text>
         <svg:path xmlns:svg="http://www.w3.org/2000/svg" class="line" d="m17 17 h2 m0 0 h10 m42 0 h10 m0 0 h10 m30 0 h10 m0 0 h10 m70 0 h10 m0 0 h10 m30 0 h10 m0 0 h10 m24 0 h10 m0 0 h10 m32 0 h10 m0 0 h10 m24 0 h10 m0 0 h10 m34 0 h10 m0 0 h10 m24 0 h10 m0 0 h10 m28 0 h10 m0 0 h10 m24 0 h10 m0 0 h10 m30 0 h10 m0 0 h10 m24 0 h10 m0 0 h10 m30 0 h10 m0 0 h10 m24 0 h10 m0 0 h10 m32 0 h10 m0 0 h10 m26 0 h10 m3 0 h-3"/>
         <polygon points="897 17 905 13 905 21"/>
         <polygon points="897 17 889 13 889 21"/>
      </svg>
