      <svg xmlns="http://www.w3.org/2000/svg" width="496" height="36">
         <defs>
            <style type="text/css">
               @namespace "http://www.w3.org/2000/svg";
               .line                 {fill: none; stroke: #1F1F1F;}
               .bold-line            {stroke: #0A0A0A; shape-rendering: crispEdges; stroke-width:
               2; }
               .thin-line            {stroke: #0F0F0F; shape-rendering: crispEdges}
               .filled               {fill: #1F1F1F; stroke: none;}
               text.terminal         {font-family: Verdana, Sans-serif;
               font-size: 12px;
               fill: #0A0A0A;
               font-weight: bold;
               }
               text.nonterminal      {font-family: Verdana, Sans-serif;
               font-size: 12px;
               fill: #0D0D0D;
               }
               text.regexp           {font-family: Verdana, Sans-serif;
               font-size: 12px;
               fill: #0F0F0F;
               }
               rect, circle, polygon {fill: #1F1F1F; stroke: #1F1F1F;}
               rect.terminal         {fill: #CCCCCC; stroke: #1F1F1F;}
               rect.nonterminal      {fill: #E3E3E3; stroke: #1F1F1F;}
               rect.text             {fill: none; stroke: none;}    
               polygon.regexp        {fill: #EFEFEF; stroke: #1F1F1F;}
               
            </style>
         </defs>
         <polygon points="9 17 1 13 1 21"/>
         <polygon points="17 17 9 13 9 21"/>
         <rect x="31" y="3" width="102" height="32" rx="10"/>
         <rect x="29" y="1" width="102" height="32" class="terminal" rx="10"/>
         <text class="terminal" x="39" y="21">SysLchown(</text>
         <a xmlns:xlink="http://www.w3.org/1999/xlink" xlink:href="#srcpath" xlink:title="srcpath">
            <rect x="153" y="3" width="66" height="32"/>
            <rect x="151" y="1" width="66" height="32" class="nonterminal"/>
            <text class="nonterminal" x="161" y="21">srcpath</text>
         </a>
         <rect x="239" y="3" width="24" height="32" rx="10"/>
         <rect x="237" y="1" width="24" height="32" class="terminal" rx="10"/>
         <text class="terminal" x="247" y="21">,</text>
         <a xmlns:xlink="http://www.w3.org/1999/xlink" xlink:href="#uid" xlink:title="uid">
            <rect x="283" y="3" width="38" height="32"/>
            <rect x="281" y="1" width="38" height="32" class="nonterminal"/>
            <text class="nonterminal" x="291" y="21">uid</text>
         </a>
         <rect x="341" y="3" width="24" height="32" rx="10"/>
         <rect x="339" y="1" width="24" height="32" class="terminal" rx="10"/>
         <text class="terminal" x="349" y="21">,</text>
         <a xmlns:xlink="http://www.w3.org/1999/xlink" xlink:href="#gid" xlink:title="gid">
            <rect x="385" y="3" width="38" height="32"/>
            <rect x="383" y="1" width="38" height="32" class="nonterminal"/>
            <text class="nonterminal" x="393" y="21">gid</text>
         </a>
         <rect x="443" y="3" width="26" height="32" rx="10"/>
         <rect x="441" y="1" width="26" height="32" class="terminal" rx="10"/>
         <text class="terminal" x="451" y="21">)</text>
         <svg:path xmlns:svg="http://www.w3.org/2000/svg" class="line" d="m17 17 h2 m0 0 h10 m102 0 h10 m0 0 h10 m66 0 h10 m0 0 h10 m24 0 h10 m0 0 h10 m38 0 h10 m0 0 h10 m24 0 h10 m0 0 h10 m38 0 h10 m0 0 h10 m26 0 h10 m3 0 h-3"/>
         <polygon points="487 17 495 13 495 21"/>
         <polygon points="487 17 479 13 479 21"/>
      </svg>
