      <svg xmlns="http://www.w3.org/2000/svg" width="514" height="36">
         <defs>
            <style type="text/css">
               @namespace "http://www.w3.org/2000/svg";
               .line                 {fill: none; stroke: #1F1F1F;}
               .bold-line            {stroke: #0A0A0A; shape-rendering: crispEdges; stroke-width:
               2; }
               .thin-line            {stroke: #0F0F0F; shape-rendering: crispEdges}
               .filled               {fill: #1F1F1F; stroke: none;}
               text.terminal         {font-family: Verdana, Sans-serif;
               font-size: 12px;
               fill: #0A0A0A;
               font-weight: bold;
               }
               text.nonterminal      {font-family: Verdana, Sans-serif;
               font-size: 12px;
               fill: #0D0D0D;
               }
               text.regexp           {font-family: Verdana, Sans-serif;
               font-size: 12px;
               fill: #0F0F0F;
               }
               rect, circle, polygon {fill: #1F1F1F; stroke: #1F1F1F;}
               rect.terminal         {fill: #CCCCCC; stroke: #1F1F1F;}
               rect.nonterminal      {fill: #E3E3E3; stroke: #1F1F1F;}
               rect.text             {fill: none; stroke: none;}    
               polygon.regexp        {fill: #EFEFEF; stroke: #1F1F1F;}
               
            </style>
         </defs>
         <polygon points="9 17 1 13 1 21"/>
         <polygon points="17 17 9 13 9 21"/>
         <rect x="31" y="3" width="104" height="32" rx="10"/>
         <rect x="29" y="1" width="104" height="32" class="terminal" rx="10"/>
         <text class="terminal" x="39" y="21">SysSetxattr(</text>
         <a xmlns:xlink="http://www.w3.org/1999/xlink" xlink:href="#fname" xlink:title="fname">
            <rect x="155" y="3" width="58" height="32"/>
            <rect x="153" y="1" width="58" height="32" class="nonterminal"/>
            <text class="nonterminal" x="163" y="21">fname</text>
         </a>
         <rect x="233" y="3" width="24" height="32" rx="10"/>
         <rect x="231" y="1" width="24" height="32" class="terminal" rx="10"/>
         <text class="terminal" x="241" y="21">,</text>
         <a xmlns:xlink="http://www.w3.org/1999/xlink" xlink:href="#xname" xlink:title="xname">
            <rect x="277" y="3" width="62" height="32"/>
            <rect x="275" y="1" width="62" height="32" class="nonterminal"/>
            <text class="nonterminal" x="285" y="21">xname</text>
         </a>
         <rect x="359" y="3" width="24" height="32" rx="10"/>
         <rect x="357" y="1" width="24" height="32" class="terminal" rx="10"/>
         <text class="terminal" x="367" y="21">,</text>
         <a xmlns:xlink="http://www.w3.org/1999/xlink" xlink:href="#val" xlink:title="val">
            <rect x="403" y="3" width="38" height="32"/>
            <rect x="401" y="1" width="38" height="32" class="nonterminal"/>
            <text class="nonterminal" x="411" y="21">val</text>
         </a>
         <rect x="461" y="3" width="26" height="32" rx="10"/>
         <rect x="459" y="1" width="26" height="32" class="terminal" rx="10"/>
         <text class="terminal" x="469" y="21">)</text>
         <svg:path xmlns:svg="http://www.w3.org/2000/svg" class="line" d="m17 17 h2 m0 0 h10 m104 0 h10 m0 0 h10 m58 0 h10 m0 0 h10 m24 0 h10 m0 0 h10 m62 0 h10 m0 0 h10 m24 0 h10 m0 0 h10 m38 0 h10 m0 0 h10 m26 0 h10 m3 0 h-3"/>
         <polygon points="505 17 513 13 513 21"/>
         <polygon points="505 17 497 13 497 21"/>
      </svg>
