<svg xmlns="http://www.w3.org/2000/svg" width="545" height="477">
         <defs>
            <style type="text/css">
    @namespace "http://www.w3.org/2000/svg";
    .line                 {fill: none; stroke: #1F1F1F; stroke-width: 1;}
    .bold-line            {stroke: #0A0A0A; shape-rendering: crispEdges; stroke-width: 2;}
    .thin-line            {stroke: #0F0F0F; shape-rendering: crispEdges}
    .filled               {fill: #1F1F1F; stroke: none;}
    text.terminal         {font-family: Verdana, Sans-serif;
                            font-size: 12px;
                            fill: #0A0A0A;
                            font-weight: bold;
                          }
    text.nonterminal      {font-family: Verdana, Sans-serif; font-style: italic;
                            font-size: 12px;
                            fill: #0D0D0D;
                            font-weight: normal;
                          }
    text.regexp           {font-family: Verdana, Sans-serif;
                            font-size: 12px;
                            fill: #0F0F0F;
                            font-weight: normal;
                          }
    rect, circle, polygon {fill: #1F1F1F; stroke: #1F1F1F;}
    rect.terminal         {fill: #cccccc; stroke: #1F1F1F; stroke-width: 1;}
    rect.nonterminal      {fill: #E3E3E3; stroke: #1F1F1F; stroke-width: 1;}
    rect.text             {fill: none; stroke: none;}
    polygon.regexp        {fill: #EFEFEF; stroke: #1F1F1F; stroke-width: 1;}
  </style>
         </defs>
         <polygon points="9 17 1 13 1 21"/>
         <polygon points="17 17 9 13 9 21"/>
         <rect x="31" y="3" width="62" height="32" rx="10"/>
         <rect x="29" y="1" width="62" height="32" class="terminal" rx="10"/>
         <text class="terminal" x="39" y="21">RAISE</text>
         <rect x="133" y="3" width="66" height="32" rx="10"/>
         <rect x="131" y="1" width="66" height="32" class="terminal" rx="10"/>
         <text class="terminal" x="141" y="21">ERROR</text>
<!--  <a xmlns:xlink="http://www.w3.org/1999/xlink" xlink:href="#errorcode" xlink:title="errorcode"> -->
            <rect x="219" y="3" width="82" height="32"/>
            <rect x="217" y="1" width="82" height="32" class="nonterminal"/>
            <text class="nonterminal" x="227" y="21">errorcode</text><!-- </a> -->
<rect x="133" y="47" width="78" height="32" rx="10"/>
         <rect x="131" y="45" width="78" height="32" class="terminal" rx="10"/>
         <text class="terminal" x="141" y="65">FAILURE</text>
<!--  <a xmlns:xlink="http://www.w3.org/1999/xlink" xlink:href="#failurecode" xlink:title="failurecode"> -->
            <rect x="231" y="47" width="90" height="32"/>
            <rect x="229" y="45" width="90" height="32" class="nonterminal"/>
            <text class="nonterminal" x="239" y="65">failurecode</text><!-- </a> -->
<rect x="133" y="91" width="56" height="32" rx="10"/>
         <rect x="131" y="89" width="56" height="32" class="terminal" rx="10"/>
         <text class="terminal" x="141" y="109">HALT</text>
         <rect x="133" y="135" width="106" height="32" rx="10"/>
         <rect x="131" y="133" width="106" height="32" class="terminal" rx="10"/>
         <text class="terminal" x="141" y="153">LOSTDIGITS</text>
         <rect x="133" y="179" width="100" height="32" rx="10"/>
         <rect x="131" y="177" width="100" height="32" class="terminal" rx="10"/>
         <text class="terminal" x="141" y="197">NOMETHOD</text>
         <rect x="133" y="223" width="94" height="32" rx="10"/>
         <rect x="131" y="221" width="94" height="32" class="terminal" rx="10"/>
         <text class="terminal" x="141" y="241">NOSTRING</text>
         <rect x="133" y="267" width="94" height="32" rx="10"/>
         <rect x="131" y="265" width="94" height="32" class="terminal" rx="10"/>
         <text class="terminal" x="141" y="285">NOTREADY</text>
         <rect x="133" y="311" width="84" height="32" rx="10"/>
         <rect x="131" y="309" width="84" height="32" class="terminal" rx="10"/>
         <text class="terminal" x="141" y="329">NOVALUE</text>
         <rect x="133" y="355" width="74" height="32" rx="10"/>
         <rect x="131" y="353" width="74" height="32" class="terminal" rx="10"/>
         <text class="terminal" x="141" y="373">SYNTAX</text>
<!--  <a xmlns:xlink="http://www.w3.org/1999/xlink" xlink:href="#number" xlink:title="number"> -->
            <rect x="227" y="355" width="68" height="32"/>
            <rect x="225" y="353" width="68" height="32" class="nonterminal"/>
            <text class="nonterminal" x="235" y="373">number</text><!-- </a> -->
<rect x="133" y="399" width="56" height="32" rx="10"/>
         <rect x="131" y="397" width="56" height="32" class="terminal" rx="10"/>
         <text class="terminal" x="141" y="417">USER</text>
<!--  <a xmlns:xlink="http://www.w3.org/1999/xlink" xlink:href="#usercondition" xlink:title="usercondition"> -->
            <rect x="209" y="399" width="106" height="32"/>
            <rect x="207" y="397" width="106" height="32" class="nonterminal"/>
            <text class="nonterminal" x="217" y="417">usercondition</text><!-- </a> -->
<rect x="133" y="443" width="102" height="32" rx="10"/>
         <rect x="131" y="441" width="102" height="32" class="terminal" rx="10"/>
         <text class="terminal" x="141" y="461">PROPAGATE</text>
         <polygon points="361 19 368 3 510 3 517 19 510 35 368 35"/>
         <polygon points="359 17 366 1 508 1 515 17 508 33 366 33" class="regexp"/>
         <text class="regexp" x="374" y="21">OPTIONS - fragment</text>
         <svg:path xmlns:svg="http://www.w3.org/2000/svg" class="line" d="m17 17 h2 m0 0 h10 m62 0 h10 m20 0 h10 m66 0 h10 m0 0 h10 m82 0 h10 m0 0 h20 m-228 0 h20 m208 0 h20 m-248 0 q10 0 10 10 m228 0 q0 -10 10 -10 m-238 10 v24 m228 0 v-24 m-228 24 q0 10 10 10 m208 0 q10 0 10 -10 m-218 10 h10 m78 0 h10 m0 0 h10 m90 0 h10 m-218 -10 v20 m228 0 v-20 m-228 20 v24 m228 0 v-24 m-228 24 q0 10 10 10 m208 0 q10 0 10 -10 m-218 10 h10 m56 0 h10 m0 0 h132 m-218 -10 v20 m228 0 v-20 m-228 20 v24 m228 0 v-24 m-228 24 q0 10 10 10 m208 0 q10 0 10 -10 m-218 10 h10 m106 0 h10 m0 0 h82 m-218 -10 v20 m228 0 v-20 m-228 20 v24 m228 0 v-24 m-228 24 q0 10 10 10 m208 0 q10 0 10 -10 m-218 10 h10 m100 0 h10 m0 0 h88 m-218 -10 v20 m228 0 v-20 m-228 20 v24 m228 0 v-24 m-228 24 q0 10 10 10 m208 0 q10 0 10 -10 m-218 10 h10 m94 0 h10 m0 0 h94 m-218 -10 v20 m228 0 v-20 m-228 20 v24 m228 0 v-24 m-228 24 q0 10 10 10 m208 0 q10 0 10 -10 m-218 10 h10 m94 0 h10 m0 0 h94 m-218 -10 v20 m228 0 v-20 m-228 20 v24 m228 0 v-24 m-228 24 q0 10 10 10 m208 0 q10 0 10 -10 m-218 10 h10 m84 0 h10 m0 0 h104 m-218 -10 v20 m228 0 v-20 m-228 20 v24 m228 0 v-24 m-228 24 q0 10 10 10 m208 0 q10 0 10 -10 m-218 10 h10 m74 0 h10 m0 0 h10 m68 0 h10 m0 0 h26 m-218 -10 v20 m228 0 v-20 m-228 20 v24 m228 0 v-24 m-228 24 q0 10 10 10 m208 0 q10 0 10 -10 m-218 10 h10 m56 0 h10 m0 0 h10 m106 0 h10 m0 0 h6 m-218 -10 v20 m228 0 v-20 m-228 20 v24 m228 0 v-24 m-228 24 q0 10 10 10 m208 0 q10 0 10 -10 m-218 10 h10 m102 0 h10 m0 0 h86 m20 -440 h10 m156 0 h10 m3 0 h-3"/>
         <polygon points="535 17 543 13 543 21"/>
         <polygon points="535 17 527 13 527 21"/></svg>
