      <svg xmlns="http://www.w3.org/2000/svg" width="362" height="52">
         <defs>
            <style type="text/css">
               @namespace "http://www.w3.org/2000/svg";
               .line                 {fill: none; stroke: #1F1F1F;}
               .bold-line            {stroke: #0A0A0A; shape-rendering: crispEdges; stroke-width:
               2; }
               .thin-line            {stroke: #0F0F0F; shape-rendering: crispEdges}
               .filled               {fill: #1F1F1F; stroke: none;}
               text.terminal         {font-family: Verdana, Sans-serif;
               font-size: 12px;
               fill: #0A0A0A;
               font-weight: bold;
               }
               text.nonterminal      {font-family: Verdana, Sans-serif;
               font-size: 12px;
               fill: #0D0D0D;
               }
               text.regexp           {font-family: Verdana, Sans-serif;
               font-size: 12px;
               fill: #0F0F0F;
               }
               rect, circle, polygon {fill: #1F1F1F; stroke: #1F1F1F;}
               rect.terminal         {fill: #cccccc; stroke: #1F1F1F;}
               rect.nonterminal      {fill: #E3E3E3; stroke: #1F1F1F;}
               rect.text             {fill: none; stroke: none;}    
               polygon.regexp        {fill: #EFEFEF; stroke: #1F1F1F;}
               
            </style>
         </defs>
         <polygon points="9 17 1 13 1 21"/>
         <polygon points="17 17 9 13 9 21"/>
         <a xmlns:xlink="http://www.w3.org/1999/xlink" xlink:href="#messageterm" xlink:title="messageterm">
            <rect x="31" y="3" width="106" height="32"/>
            <rect x="29" y="1" width="106" height="32" class="nonterminal"/>
            <text class="nonterminal" x="39" y="21">messageterm</text>
         </a>
         <rect x="177" y="3" width="30" height="32" rx="10"/>
         <rect x="175" y="1" width="30" height="32" class="terminal" rx="10"/>
         <text class="terminal" x="185" y="21">=</text>
         <a xmlns:xlink="http://www.w3.org/1999/xlink" xlink:href="#expression" xlink:title="expression">
            <rect x="227" y="3" width="88" height="32"/>
            <rect x="225" y="1" width="88" height="32" class="nonterminal"/>
            <text class="nonterminal" x="235" y="21">expression</text>
         </a>
         <svg:path xmlns:svg="http://www.w3.org/2000/svg" class="line" d="m17 17 h2 m0 0 h10 m106 0 h10 m20 0 h10 m30 0 h10 m0 0 h10 m88 0 h10 m-178 0 h20 m158 0 h20 m-198 0 q10 0 10 10 m178 0 q0 -10 10 -10 m-188 10 v14 m178 0 v-14 m-178 14 q0 10 10 10 m158 0 q10 0 10 -10 m-168 10 h10 m0 0 h148 m23 -34 h-3"/>
         <polygon points="353 17 361 13 361 21"/>
         <polygon points="353 17 345 13 345 21"/>
      </svg>
