      <svg xmlns="http://www.w3.org/2000/svg" width="538" height="36">
         <defs>
            <style type="text/css">
               @namespace "http://www.w3.org/2000/svg";
               .line                 {fill: none; stroke: #1F1F1F;}
               .bold-line            {stroke: #0A0A0A; shape-rendering: crispEdges; stroke-width:
               2; }
               .thin-line            {stroke: #0F0F0F; shape-rendering: crispEdges}
               .filled               {fill: #1F1F1F; stroke: none;}
               text.terminal         {font-family: Verdana, Sans-serif;
               font-size: 12px;
               fill: #0A0A0A;
               font-weight: bold;
               }
               text.nonterminal      {font-family: Verdana, Sans-serif;
               font-size: 12px;
               fill: #0D0D0D;
               }
               text.regexp           {font-family: Verdana, Sans-serif;
               font-size: 12px;
               fill: #0F0F0F;
               }
               rect, circle, polygon {fill: #1F1F1F; stroke: #1F1F1F;}
               rect.terminal         {fill: #CCCCCC; stroke: #1F1F1F;}
               rect.nonterminal      {fill: #E3E3E3; stroke: #1F1F1F;}
               rect.text             {fill: none; stroke: none;}    
               polygon.regexp        {fill: #EFEFEF; stroke: #1F1F1F;}
               
            </style>
         </defs>
         <polygon points="9 17 1 13 1 21"/>
         <polygon points="17 17 9 13 9 21"/>
         <a xmlns:xlink="http://www.w3.org/1999/xlink" xlink:href="#win" xlink:title="win">
            <rect x="31" y="3" width="42" height="32"/>
            <rect x="29" y="1" width="42" height="32" class="nonterminal"/>
            <text class="nonterminal" x="39" y="21">win</text>
         </a>
         <rect x="93" y="3" width="30" height="32" rx="10"/>
         <rect x="91" y="1" width="30" height="32" class="terminal" rx="10"/>
         <text class="terminal" x="101" y="21">~</text>
         <rect x="143" y="3" width="94" height="32" rx="10"/>
         <rect x="141" y="1" width="94" height="32" class="terminal" rx="10"/>
         <text class="terminal" x="151" y="21">mvgetnstr(</text>
         <a xmlns:xlink="http://www.w3.org/1999/xlink" xlink:href="#y" xlink:title="y">
            <rect x="257" y="3" width="26" height="32"/>
            <rect x="255" y="1" width="26" height="32" class="nonterminal"/>
            <text class="nonterminal" x="265" y="21">y</text>
         </a>
         <rect x="303" y="3" width="24" height="32" rx="10"/>
         <rect x="301" y="1" width="24" height="32" class="terminal" rx="10"/>
         <text class="terminal" x="311" y="21">,</text>
         <a xmlns:xlink="http://www.w3.org/1999/xlink" xlink:href="#x" xlink:title="x">
            <rect x="347" y="3" width="26" height="32"/>
            <rect x="345" y="1" width="26" height="32" class="nonterminal"/>
            <text class="nonterminal" x="355" y="21">x</text>
         </a>
         <rect x="393" y="3" width="24" height="32" rx="10"/>
         <rect x="391" y="1" width="24" height="32" class="terminal" rx="10"/>
         <text class="terminal" x="401" y="21">,</text>
         <a xmlns:xlink="http://www.w3.org/1999/xlink" xlink:href="#n" xlink:title="n">
            <rect x="437" y="3" width="28" height="32"/>
            <rect x="435" y="1" width="28" height="32" class="nonterminal"/>
            <text class="nonterminal" x="445" y="21">n</text>
         </a>
         <rect x="485" y="3" width="26" height="32" rx="10"/>
         <rect x="483" y="1" width="26" height="32" class="terminal" rx="10"/>
         <text class="terminal" x="493" y="21">)</text>
         <svg:path xmlns:svg="http://www.w3.org/2000/svg" class="line" d="m17 17 h2 m0 0 h10 m42 0 h10 m0 0 h10 m30 0 h10 m0 0 h10 m94 0 h10 m0 0 h10 m26 0 h10 m0 0 h10 m24 0 h10 m0 0 h10 m26 0 h10 m0 0 h10 m24 0 h10 m0 0 h10 m28 0 h10 m0 0 h10 m26 0 h10 m3 0 h-3"/>
         <polygon points="529 17 537 13 537 21"/>
         <polygon points="529 17 521 13 521 21"/>
      </svg>
