      <svg xmlns="http://www.w3.org/2000/svg" width="468" height="68">
         <defs>
            <style type="text/css">
               @namespace "http://www.w3.org/2000/svg";
               .line                 {fill: none; stroke: #1F1F1F;}
               .bold-line            {stroke: #0A0A0A; shape-rendering: crispEdges; stroke-width:
               2; }
               .thin-line            {stroke: #0F0F0F; shape-rendering: crispEdges}
               .filled               {fill: #1F1F1F; stroke: none;}
               text.terminal         {font-family: Verdana, Sans-serif;
               font-size: 12px;
               fill: #0A0A0A;
               font-weight: bold;
               }
               text.nonterminal      {font-family: Verdana, Sans-serif; font-style: italic;
               font-size: 12px;
               fill: #0D0D0D;
               }
               text.regexp           {font-family: Verdana, Sans-serif;
               font-size: 12px;
               fill: #0F0F0F;
               }
               rect, circle, polygon {fill: #1F1F1F; stroke: #1F1F1F;}
               rect.terminal         {fill: #CCCCCC; stroke: #1F1F1F;}
               rect.nonterminal      {fill: #E3E3E3; stroke: #1F1F1F;}
               rect.text             {fill: none; stroke: none;}    
               polygon.regexp        {fill: #EFEFEF; stroke: #1F1F1F;}
               
            </style>
         </defs>
         <polygon points="9 17 1 13 1 21"/>
         <polygon points="17 17 9 13 9 21"/>
         <rect x="31" y="3" width="188" height="32" rx="10"/>
         <rect x="29" y="1" width="188" height="32" class="terminal" rx="10"/>
         <text class="terminal" x="39" y="21">broadcastSettingChanged</text>
         <rect x="259" y="35" width="26" height="32" rx="10"/>
         <rect x="257" y="33" width="26" height="32" class="terminal" rx="10"/>
         <text class="terminal" x="267" y="53">(</text>
<!--     <a xmlns:xlink="http://www.w3.org/1999/xlink" xlink:href="#timeOut" xlink:title="timeOut"> -->
            <rect x="305" y="35" width="70" height="32"/>
            <rect x="303" y="33" width="70" height="32" class="nonterminal"/>
            <text class="nonterminal" x="313" y="53">timeOut</text>
<!--     </a> -->
         <rect x="395" y="35" width="26" height="32" rx="10"/>
         <rect x="393" y="33" width="26" height="32" class="terminal" rx="10"/>
         <text class="terminal" x="403" y="53">)</text>
         <svg:path xmlns:svg="http://www.w3.org/2000/svg" class="line" d="m17 17 h2 m0 0 h10 m188 0 h10 m20 0 h10 m0 0 h172 m-202 0 h20 m182 0 h20 m-222 0 q10 0 10 10 m202 0 q0 -10 10 -10 m-212 10 v12 m202 0 v-12 m-202 12 q0 10 10 10 m182 0 q10 0 10 -10 m-192 10 h10 m26 0 h10 m0 0 h10 m70 0 h10 m0 0 h10 m26 0 h10 m23 -32 h-3"/>
         <polygon points="459 17 467 13 467 21"/>
         <polygon points="459 17 451 13 451 21"/>
      </svg>
