      <svg xmlns="http://www.w3.org/2000/svg" width="642" height="156">
         <defs>
            <style type="text/css">
               @namespace "http://www.w3.org/2000/svg";
               .line                 {fill: none; stroke: #1F1F1F;}
               .bold-line            {stroke: #0A0A0A; shape-rendering: crispEdges; stroke-width:
               2; }
               .thin-line            {stroke: #0F0F0F; shape-rendering: crispEdges}
               .filled               {fill: #1F1F1F; stroke: none;}
               text.terminal         {font-family: Verdana, Sans-serif;
               font-size: 12px;
               fill: #0A0A0A;
               font-weight: bold;
               }
               text.nonterminal      {font-family: Verdana, Sans-serif;
               font-size: 12px;
               fill: #0D0D0D;
               }
               text.regexp           {font-family: Verdana, Sans-serif;
               font-size: 12px;
               fill: #0F0F0F;
               }
               rect, circle, polygon {fill: #1F1F1F; stroke: #1F1F1F;}
               rect.terminal         {fill: #CCCCCC; stroke: #1F1F1F;}
               rect.nonterminal      {fill: #E3E3E3; stroke: #1F1F1F;}
               rect.text             {fill: none; stroke: none;}    
               polygon.regexp        {fill: #EFEFEF; stroke: #1F1F1F;}
               
            </style>
         </defs>
         <polygon points="9 17 1 13 1 21"/>
         <polygon points="17 17 9 13 9 21"/>
         <rect x="31" y="3" width="118" height="32" rx="10"/>
         <rect x="29" y="1" width="118" height="32" class="terminal" rx="10"/>
         <text class="terminal" x="39" y="21">RxCalcArcTan(</text>
         <a xmlns:xlink="http://www.w3.org/1999/xlink" xlink:href="#number" xlink:title="number">
            <rect x="169" y="3" width="68" height="32"/>
            <rect x="167" y="1" width="68" height="32" class="nonterminal"/>
            <text class="nonterminal" x="177" y="21">number</text>
         </a>
         <rect x="277" y="3" width="24" height="32" rx="10"/>
         <rect x="275" y="1" width="24" height="32" class="terminal" rx="10"/>
         <text class="terminal" x="285" y="21">,</text>
         <a xmlns:xlink="http://www.w3.org/1999/xlink" xlink:href="#precision" xlink:title="precision">
            <rect x="341" y="3" width="76" height="32"/>
            <rect x="339" y="1" width="76" height="32" class="nonterminal"/>
            <text class="nonterminal" x="349" y="21">precision</text>
         </a>
         <rect x="477" y="3" width="52" height="32" rx="10"/>
         <rect x="475" y="1" width="52" height="32" class="terminal" rx="10"/>
         <text class="terminal" x="485" y="21">, "D"</text>
         <rect x="477" y="47" width="50" height="32" rx="10"/>
         <rect x="475" y="45" width="50" height="32" class="terminal" rx="10"/>
         <text class="terminal" x="485" y="65">, "R"</text>
         <rect x="477" y="91" width="52" height="32" rx="10"/>
         <rect x="475" y="89" width="52" height="32" class="terminal" rx="10"/>
         <text class="terminal" x="485" y="109">, "G"</text>
         <rect x="589" y="3" width="26" height="32" rx="10"/>
         <rect x="587" y="1" width="26" height="32" class="terminal" rx="10"/>
         <text class="terminal" x="597" y="21">)</text>
         <svg:path xmlns:svg="http://www.w3.org/2000/svg" class="line" d="m17 17 h2 m0 0 h10 m118 0 h10 m0 0 h10 m68 0 h10 m20 0 h10 m24 0 h10 m20 0 h10 m76 0 h10 m-116 0 h20 m96 0 h20 m-136 0 q10 0 10 10 m116 0 q0 -10 10 -10 m-126 10 v14 m116 0 v-14 m-116 14 q0 10 10 10 m96 0 q10 0 10 -10 m-106 10 h10 m0 0 h86 m40 -34 h10 m52 0 h10 m-92 0 h20 m72 0 h20 m-112 0 q10 0 10 10 m92 0 q0 -10 10 -10 m-102 10 v24 m92 0 v-24 m-92 24 q0 10 10 10 m72 0 q10 0 10 -10 m-82 10 h10 m50 0 h10 m0 0 h2 m-82 -10 v20 m92 0 v-20 m-92 20 v24 m92 0 v-24 m-92 24 q0 10 10 10 m72 0 q10 0 10 -10 m-82 10 h10 m52 0 h10 m-82 -10 v20 m92 0 v-20 m-92 20 v14 m92 0 v-14 m-92 14 q0 10 10 10 m72 0 q10 0 10 -10 m-82 10 h10 m0 0 h62 m-292 -122 h20 m292 0 h20 m-332 0 q10 0 10 10 m312 0 q0 -10 10 -10 m-322 10 v118 m312 0 v-118 m-312 118 q0 10 10 10 m292 0 q10 0 10 -10 m-302 10 h10 m0 0 h282 m20 -138 h10 m26 0 h10 m3 0 h-3"/>
         <polygon points="633 17 641 13 641 21"/>
         <polygon points="633 17 625 13 625 21"/>
      </svg>
