      <svg xmlns="http://www.w3.org/2000/svg" width="474" height="68">
         <defs>
            <style type="text/css">
               @namespace "http://www.w3.org/2000/svg";
               .line                 {fill: none; stroke: #1F1F1F;}
               .bold-line            {stroke: #0A0A0A; shape-rendering: crispEdges; stroke-width:
               2; }
               .thin-line            {stroke: #0F0F0F; shape-rendering: crispEdges}
               .filled               {fill: #1F1F1F; stroke: none;}
               text.terminal         {font-family: Verdana, Sans-serif;
               font-size: 12px;
               fill: #0A0A0A;
               font-weight: bold;
               }
               text.nonterminal      {font-family: Verdana, Sans-serif; font-style: italic;
               font-size: 12px;
               fill: #0D0D0D;
               }
               text.regexp           {font-family: Verdana, Sans-serif;
               font-size: 12px;
               fill: #0F0F0F;
               }
               rect, circle, polygon {fill: #1F1F1F; stroke: #1F1F1F;}
               rect.terminal         {fill: #CCCCCC; stroke: #1F1F1F;}
               rect.nonterminal      {fill: #E3E3E3; stroke: #1F1F1F;}
               rect.text             {fill: none; stroke: none;}    
               polygon.regexp        {fill: #EFEFEF; stroke: #1F1F1F;}
               
            </style>
         </defs>
         <polygon points="9 17 1 13 1 21"/>
         <polygon points="17 17 9 13 9 21"/>
         <rect x="31" y="3" width="102" height="32" rx="10"/>
         <rect x="29" y="1" width="102" height="32" class="terminal" rx="10"/>
         <text class="terminal" x="39" y="21">RxCalcSinH(</text>
<!--     <a xmlns:xlink="http://www.w3.org/1999/xlink" xlink:href="#number" xlink:title="number"> -->
            <rect x="153" y="3" width="68" height="32"/>
            <rect x="151" y="1" width="68" height="32" class="nonterminal"/>
            <text class="nonterminal" x="161" y="21">number</text>
<!--     </a> -->
         <rect x="261" y="35" width="24" height="32" rx="10"/>
         <rect x="259" y="33" width="24" height="32" class="terminal" rx="10"/>
         <text class="terminal" x="269" y="53">,</text>
<!--     <a xmlns:xlink="http://www.w3.org/1999/xlink" xlink:href="#precision" xlink:title="precision"> -->
            <rect x="305" y="35" width="76" height="32"/>
            <rect x="303" y="33" width="76" height="32" class="nonterminal"/>
            <text class="nonterminal" x="313" y="53">precision</text>
<!--     </a> -->
         <rect x="421" y="3" width="26" height="32" rx="10"/>
         <rect x="419" y="1" width="26" height="32" class="terminal" rx="10"/>
         <text class="terminal" x="429" y="21">)</text>
         <svg:path xmlns:svg="http://www.w3.org/2000/svg" class="line" d="m17 17 h2 m0 0 h10 m102 0 h10 m0 0 h10 m68 0 h10 m20 0 h10 m0 0 h130 m-160 0 h20 m140 0 h20 m-180 0 q10 0 10 10 m160 0 q0 -10 10 -10 m-170 10 v12 m160 0 v-12 m-160 12 q0 10 10 10 m140 0 q10 0 10 -10 m-150 10 h10 m24 0 h10 m0 0 h10 m76 0 h10 m20 -32 h10 m26 0 h10 m3 0 h-3"/>
         <polygon points="465 17 473 13 473 21"/>
         <polygon points="465 17 457 13 457 21"/>
      </svg>
