      <svg xmlns="http://www.w3.org/2000/svg" width="568" height="156">
         <defs>
            <style type="text/css">
               @namespace "http://www.w3.org/2000/svg";
               .line                 {fill: none; stroke: #1F1F1F;}
               .bold-line            {stroke: #0A0A0A; shape-rendering: crispEdges; stroke-width:
               2; }
               .thin-line            {stroke: #0F0F0F; shape-rendering: crispEdges}
               .filled               {fill: #1F1F1F; stroke: none;}
               text.terminal         {font-family: Verdana, Sans-serif;
               font-size: 12px;
               fill: #0A0A0A;
               font-weight: bold;
               }
               text.nonterminal      {font-family: Verdana, Sans-serif;
               font-size: 12px;
               fill: #0D0D0D;
               }
               text.regexp           {font-family: Verdana, Sans-serif;
               font-size: 12px;
               fill: #0F0F0F;
               }
               rect, circle, polygon {fill: #1F1F1F; stroke: #1F1F1F;}
               rect.terminal         {fill: #CCCCCC; stroke: #1F1F1F;}
               rect.nonterminal      {fill: #E3E3E3; stroke: #1F1F1F;}
               rect.text             {fill: none; stroke: none;}    
               polygon.regexp        {fill: #EFEFEF; stroke: #1F1F1F;}
               
            </style>
         </defs>
         <polygon points="9 17 1 13 1 21"/>
         <polygon points="17 17 9 13 9 21"/>
         <rect x="31" y="3" width="92" height="32" rx="10"/>
         <rect x="29" y="1" width="92" height="32" class="terminal" rx="10"/>
         <text class="terminal" x="39" y="21">RxCalcSin(</text>
         <a xmlns:xlink="http://www.w3.org/1999/xlink" xlink:href="#number" xlink:title="number">
            <rect x="143" y="3" width="68" height="32"/>
            <rect x="141" y="1" width="68" height="32" class="nonterminal"/>
            <text class="nonterminal" x="151" y="21">number</text>
         </a>
         <rect x="251" y="3" width="24" height="32" rx="10"/>
         <rect x="249" y="1" width="24" height="32" class="terminal" rx="10"/>
         <text class="terminal" x="259" y="21">,</text>
         <a xmlns:xlink="http://www.w3.org/1999/xlink" xlink:href="#precision" xlink:title="precision">
            <rect x="295" y="3" width="76" height="32"/>
            <rect x="293" y="1" width="76" height="32" class="nonterminal"/>
            <text class="nonterminal" x="303" y="21">precision</text>
         </a>
         <rect x="411" y="3" width="44" height="32" rx="10"/>
         <rect x="409" y="1" width="44" height="32" class="terminal" rx="10"/>
         <text class="terminal" x="419" y="21">"D"</text>
         <rect x="411" y="47" width="42" height="32" rx="10"/>
         <rect x="409" y="45" width="42" height="32" class="terminal" rx="10"/>
         <text class="terminal" x="419" y="65">"R"</text>
         <rect x="411" y="91" width="44" height="32" rx="10"/>
         <rect x="409" y="89" width="44" height="32" class="terminal" rx="10"/>
         <text class="terminal" x="419" y="109">"G"</text>
         <rect x="515" y="3" width="26" height="32" rx="10"/>
         <rect x="513" y="1" width="26" height="32" class="terminal" rx="10"/>
         <text class="terminal" x="523" y="21">)</text>
         <svg:path xmlns:svg="http://www.w3.org/2000/svg" class="line" d="m17 17 h2 m0 0 h10 m92 0 h10 m0 0 h10 m68 0 h10 m20 0 h10 m24 0 h10 m0 0 h10 m76 0 h10 m20 0 h10 m44 0 h10 m-84 0 h20 m64 0 h20 m-104 0 q10 0 10 10 m84 0 q0 -10 10 -10 m-94 10 v24 m84 0 v-24 m-84 24 q0 10 10 10 m64 0 q10 0 10 -10 m-74 10 h10 m42 0 h10 m0 0 h2 m-74 -10 v20 m84 0 v-20 m-84 20 v24 m84 0 v-24 m-84 24 q0 10 10 10 m64 0 q10 0 10 -10 m-74 10 h10 m44 0 h10 m-74 -10 v20 m84 0 v-20 m-84 20 v14 m84 0 v-14 m-84 14 q0 10 10 10 m64 0 q10 0 10 -10 m-74 10 h10 m0 0 h54 m-244 -122 h20 m244 0 h20 m-284 0 q10 0 10 10 m264 0 q0 -10 10 -10 m-274 10 v118 m264 0 v-118 m-264 118 q0 10 10 10 m244 0 q10 0 10 -10 m-254 10 h10 m0 0 h234 m20 -138 h10 m26 0 h10 m3 0 h-3"/>
         <polygon points="559 17 567 13 567 21"/>
         <polygon points="559 17 551 13 551 21"/>
      </svg>
