<svg xmlns="http://www.w3.org/2000/svg" width="463" height="69">
         <defs>
            <style type="text/css">
    @namespace "http://www.w3.org/2000/svg";
    .line                 {fill: none; stroke: #1F1F1F;}
    .bold-line            {stroke: #0A0A0A; shape-rendering: crispEdges; stroke-width: 2; }
    .thin-line            {stroke: #0F0F0F; shape-rendering: crispEdges}
    .filled               {fill: #1F1F1F; stroke: none;}
    text.terminal         {font-family: Verdana, Sans-serif;
                            font-size: 12px;
                            fill: #0A0A0A;
                            font-weight: bold;
                          }
    text.nonterminal      {font-family: Verdana, Sans-serif; font-style: italic;
                            font-size: 12px;
                            fill: #0D0D0D;
                            font-weight: normal;
                          }
    text.regexp           {font-family: Verdana, Sans-serif;
                            font-size: 12px;
                            fill: #0F0F0F;
                            font-weight: normal;
                          }
    rect, circle, polygon {fill: #1F1F1F; stroke: #1F1F1F;}
    rect.terminal         {fill: #CCCCCC; stroke: #1F1F1F;}
    rect.nonterminal      {fill: #E3E3E3; stroke: #1F1F1F;}
    rect.text             {fill: none; stroke: none;}    
    polygon.regexp        {fill: #EFEFEF; stroke: #1F1F1F;}
  </style>
         </defs>
         <polygon points="9 17 1 13 1 21"/>
         <polygon points="17 17 9 13 9 21"/>
         <rect x="31" y="3" width="98" height="32" rx="10"/>
         <rect x="29" y="1" width="98" height="32" class="terminal" rx="10"/>
         <text class="terminal" x="39" y="21">RXSUBCOM</text>
         <rect x="149" y="3" width="58" height="32" rx="10"/>
         <rect x="147" y="1" width="58" height="32" class="terminal" rx="10"/>
         <text class="terminal" x="157" y="21">DROP</text>
<!--  <a xmlns:xlink="http://www.w3.org/1999/xlink" xlink:href="#envname" xlink:title="envname"> -->
            <rect x="227" y="3" width="78" height="32"/>
            <rect x="225" y="1" width="78" height="32" class="nonterminal"/>
            <text class="nonterminal" x="235" y="21">envname</text><!-- </a> -->
<!--  <a xmlns:xlink="http://www.w3.org/1999/xlink" xlink:href="#dllname" xlink:title="dllname"> -->
            <rect x="345" y="35" width="70" height="32"/>
            <rect x="343" y="33" width="70" height="32" class="nonterminal"/>
            <text class="nonterminal" x="353" y="53">dllname</text><!-- </a> -->
<svg:path xmlns:svg="http://www.w3.org/2000/svg" class="line" d="m17 17 h2 m0 0 h10 m98 0 h10 m0 0 h10 m58 0 h10 m0 0 h10 m78 0 h10 m20 0 h10 m0 0 h80 m-110 0 h20 m90 0 h20 m-130 0 q10 0 10 10 m110 0 q0 -10 10 -10 m-120 10 v12 m110 0 v-12 m-110 12 q0 10 10 10 m90 0 q10 0 10 -10 m-100 10 h10 m70 0 h10 m23 -32 h-3"/>
         <polygon points="453 17 461 13 461 21"/>
         <polygon points="453 17 445 13 445 21"/></svg>
