      <svg xmlns="http://www.w3.org/2000/svg" width="458" height="68">
         <defs>
            <style type="text/css">
               @namespace "http://www.w3.org/2000/svg";
               .line                 {fill: none; stroke: #1F1F1F;}
               .bold-line            {stroke: #0A0A0A; shape-rendering: crispEdges; stroke-width:
               2; }
               .thin-line            {stroke: #0F0F0F; shape-rendering: crispEdges}
               .filled               {fill: #1F1F1F; stroke: none;}
               text.terminal         {font-family: Verdana, Sans-serif;
               font-size: 12px;
               fill: #0A0A0A;
               font-weight: bold;
               }
               text.nonterminal      {font-family: Verdana, Sans-serif; font-style: italic;
               font-size: 12px;
               fill: #0D0D0D;
               }
               text.regexp           {font-family: Verdana, Sans-serif;
               font-size: 12px;
               fill: #0F0F0F;
               }
               rect, circle, polygon {fill: #1F1F1F; stroke: #1F1F1F;}
               rect.terminal         {fill: #CCCCCC; stroke: #1F1F1F;}
               rect.nonterminal      {fill: #E3E3E3; stroke: #1F1F1F;}
               rect.text             {fill: none; stroke: none;}    
               polygon.regexp        {fill: #EFEFEF; stroke: #1F1F1F;}
               
            </style>
         </defs>
         <polygon points="9 17 1 13 1 21"/>
         <polygon points="17 17 9 13 9 21"/>
         <rect x="31" y="3" width="96" height="32" rx="10"/>
         <rect x="29" y="1" width="96" height="32" class="terminal" rx="10"/>
         <text class="terminal" x="39" y="21">RXSUBCOM</text>
         <rect x="147" y="3" width="58" height="32" rx="10"/>
         <rect x="145" y="1" width="58" height="32" class="terminal" rx="10"/>
         <text class="terminal" x="155" y="21">LOAD</text>
<!--     <a xmlns:xlink="http://www.w3.org/1999/xlink" xlink:href="#envname" xlink:title="envname"> -->
            <rect x="225" y="3" width="78" height="32"/>
            <rect x="223" y="1" width="78" height="32" class="nonterminal"/>
            <text class="nonterminal" x="233" y="21">envname</text>
<!--     </a> -->
<!--     <a xmlns:xlink="http://www.w3.org/1999/xlink" xlink:href="#dllname" xlink:title="dllname"> -->
            <rect x="343" y="35" width="68" height="32"/>
            <rect x="341" y="33" width="68" height="32" class="nonterminal"/>
            <text class="nonterminal" x="351" y="53">dllname</text>
<!--     </a> -->
         <svg:path xmlns:svg="http://www.w3.org/2000/svg" class="line" d="m17 17 h2 m0 0 h10 m96 0 h10 m0 0 h10 m58 0 h10 m0 0 h10 m78 0 h10 m20 0 h10 m0 0 h78 m-108 0 h20 m88 0 h20 m-128 0 q10 0 10 10 m108 0 q0 -10 10 -10 m-118 10 v12 m108 0 v-12 m-108 12 q0 10 10 10 m88 0 q10 0 10 -10 m-98 10 h10 m68 0 h10 m23 -32 h-3"/>
         <polygon points="449 17 457 13 457 21"/>
         <polygon points="449 17 441 13 441 21"/>
      </svg>
