      <svg xmlns="http://www.w3.org/2000/svg" width="426" height="156">
         <defs>
            <style type="text/css">
               @namespace "http://www.w3.org/2000/svg";
               .line                 {fill: none; stroke: #1F1F1F;}
               .bold-line            {stroke: #0A0A0A; shape-rendering: crispEdges; stroke-width:
               2; }
               .thin-line            {stroke: #0F0F0F; shape-rendering: crispEdges}
               .filled               {fill: #1F1F1F; stroke: none;}
               text.terminal         {font-family: Verdana, Sans-serif;
               font-size: 12px;
               fill: #0A0A0A;
               font-weight: bold;
               }
               text.nonterminal      {font-family: Verdana, Sans-serif; font-style: italic;
               font-size: 12px;
               fill: #0D0D0D;
               }
               text.regexp           {font-family: Verdana, Sans-serif;
               font-size: 12px;
               fill: #0F0F0F;
               }
               rect, circle, polygon {fill: #1F1F1F; stroke: #1F1F1F;}
               rect.terminal         {fill: #CCCCCC; stroke: #1F1F1F;}
               rect.nonterminal      {fill: #E3E3E3; stroke: #1F1F1F;}
               rect.text             {fill: none; stroke: none;}    
               polygon.regexp        {fill: #EFEFEF; stroke: #1F1F1F;}
               
            </style>
         </defs>
         <polygon points="9 17 1 13 1 21"/>
         <polygon points="17 17 9 13 9 21"/>
         <rect x="31" y="3" width="84" height="32" rx="10"/>
         <rect x="29" y="1" width="84" height="32" class="terminal" rx="10"/>
         <text class="terminal" x="39" y="21">RXQUEUE</text>
         <rect x="155" y="35" width="82" height="32" rx="10"/>
         <rect x="153" y="33" width="82" height="32" class="terminal" rx="10"/>
         <text class="terminal" x="163" y="53">SESSION</text>
<!--     <a xmlns:xlink="http://www.w3.org/1999/xlink" xlink:href="#queuename" xlink:title="queuename"> -->
            <rect x="155" y="79" width="94" height="32"/>
            <rect x="153" y="77" width="94" height="32" class="nonterminal"/>
            <text class="nonterminal" x="163" y="97">queuename</text>
<!--     </a> -->
         <rect x="309" y="35" width="60" height="32" rx="10"/>
         <rect x="307" y="33" width="60" height="32" class="terminal" rx="10"/>
         <text class="terminal" x="317" y="53">/FIFO</text>
         <rect x="309" y="79" width="60" height="32" rx="10"/>
         <rect x="307" y="77" width="60" height="32" class="terminal" rx="10"/>
         <text class="terminal" x="317" y="97">/LIFO</text>
         <rect x="309" y="123" width="70" height="32" rx="10"/>
         <rect x="307" y="121" width="70" height="32" class="terminal" rx="10"/>
         <text class="terminal" x="317" y="141">/CLEAR</text>
         <svg:path xmlns:svg="http://www.w3.org/2000/svg" class="line" d="m17 17 h2 m0 0 h10 m84 0 h10 m20 0 h10 m0 0 h104 m-134 0 h20 m114 0 h20 m-154 0 q10 0 10 10 m134 0 q0 -10 10 -10 m-144 10 v12 m134 0 v-12 m-134 12 q0 10 10 10 m114 0 q10 0 10 -10 m-124 10 h10 m82 0 h10 m0 0 h12 m-124 -10 v20 m134 0 v-20 m-134 20 v24 m134 0 v-24 m-134 24 q0 10 10 10 m114 0 q10 0 10 -10 m-124 10 h10 m94 0 h10 m40 -76 h10 m0 0 h80 m-110 0 h20 m90 0 h20 m-130 0 q10 0 10 10 m110 0 q0 -10 10 -10 m-120 10 v12 m110 0 v-12 m-110 12 q0 10 10 10 m90 0 q10 0 10 -10 m-100 10 h10 m60 0 h10 m0 0 h10 m-100 -10 v20 m110 0 v-20 m-110 20 v24 m110 0 v-24 m-110 24 q0 10 10 10 m90 0 q10 0 10 -10 m-100 10 h10 m60 0 h10 m0 0 h10 m-100 -10 v20 m110 0 v-20 m-110 20 v24 m110 0 v-24 m-110 24 q0 10 10 10 m90 0 q10 0 10 -10 m-100 10 h10 m70 0 h10 m23 -120 h-3"/>
         <polygon points="417 17 425 13 425 21"/>
         <polygon points="417 17 409 13 409 21"/>
      </svg>
