      <svg xmlns="http://www.w3.org/2000/svg" width="416" height="140">
         <defs>
            <style type="text/css">
               @namespace "http://www.w3.org/2000/svg";
               .line                 {fill: none; stroke: #1F1F1F;}
               .bold-line            {stroke: #0A0A0A; shape-rendering: crispEdges; stroke-width:
               2; }
               .thin-line            {stroke: #0F0F0F; shape-rendering: crispEdges}
               .filled               {fill: #1F1F1F; stroke: none;}
               text.terminal         {font-family: Verdana, Sans-serif;
               font-size: 12px;
               fill: #0A0A0A;
               font-weight: bold;
               }
               text.nonterminal      {font-family: Verdana, Sans-serif;
               font-size: 12px;
               fill: #0D0D0D;
               }
               text.regexp           {font-family: Verdana, Sans-serif;
               font-size: 12px;
               fill: #0F0F0F;
               }
               rect, circle, polygon {fill: #1F1F1F; stroke: #1F1F1F;}
               rect.terminal         {fill: #CCCCCC; stroke: #1F1F1F;}
               rect.nonterminal      {fill: #E3E3E3; stroke: #1F1F1F;}
               rect.text             {fill: none; stroke: none;}    
               polygon.regexp        {fill: #EFEFEF; stroke: #1F1F1F;}
               
            </style>
         </defs>
         <polygon points="9 17 1 13 1 21"/>
         <polygon points="17 17 9 13 9 21"/>
         <rect x="31" y="3" width="88" height="32" rx="10"/>
         <rect x="29" y="1" width="88" height="32" class="terminal" rx="10"/>
         <text class="terminal" x="39" y="21">"rxqueue"</text>
         <a xmlns:xlink="http://www.w3.org/1999/xlink" xlink:href="#queryname" xlink:title="queryname">
            <rect x="159" y="3" width="90" height="32"/>
            <rect x="157" y="1" width="90" height="32" class="nonterminal"/>
            <text class="nonterminal" x="167" y="21">queryname</text>
         </a>
         <rect x="309" y="3" width="50" height="32" rx="10"/>
         <rect x="307" y="1" width="50" height="32" class="terminal" rx="10"/>
         <text class="terminal" x="317" y="21">/fifo</text>
         <rect x="309" y="47" width="48" height="32" rx="10"/>
         <rect x="307" y="45" width="48" height="32" class="terminal" rx="10"/>
         <text class="terminal" x="317" y="65">/lifo</text>
         <rect x="309" y="91" width="60" height="32" rx="10"/>
         <rect x="307" y="89" width="60" height="32" class="terminal" rx="10"/>
         <text class="terminal" x="317" y="109">/clear</text>
         <svg:path xmlns:svg="http://www.w3.org/2000/svg" class="line" d="m17 17 h2 m0 0 h10 m88 0 h10 m20 0 h10 m90 0 h10 m-130 0 h20 m110 0 h20 m-150 0 q10 0 10 10 m130 0 q0 -10 10 -10 m-140 10 v14 m130 0 v-14 m-130 14 q0 10 10 10 m110 0 q10 0 10 -10 m-120 10 h10 m0 0 h100 m40 -34 h10 m50 0 h10 m0 0 h10 m-100 0 h20 m80 0 h20 m-120 0 q10 0 10 10 m100 0 q0 -10 10 -10 m-110 10 v24 m100 0 v-24 m-100 24 q0 10 10 10 m80 0 q10 0 10 -10 m-90 10 h10 m48 0 h10 m0 0 h12 m-90 -10 v20 m100 0 v-20 m-100 20 v24 m100 0 v-24 m-100 24 q0 10 10 10 m80 0 q10 0 10 -10 m-90 10 h10 m60 0 h10 m-90 -10 v20 m100 0 v-20 m-100 20 v14 m100 0 v-14 m-100 14 q0 10 10 10 m80 0 q10 0 10 -10 m-90 10 h10 m0 0 h70 m23 -122 h-3"/>
         <polygon points="407 17 415 13 415 21"/>
         <polygon points="407 17 399 13 399 21"/>
      </svg>
