<svg xmlns="http://www.w3.org/2000/svg" width="771" height="167">
         <defs>
            <style type="text/css">
    @namespace "http://www.w3.org/2000/svg";
    .line                 {fill: none; stroke: #1F1F1F; stroke-width: 1;}
    .bold-line            {stroke: #0A0A0A; shape-rendering: crispEdges; stroke-width: 2;}
    .thin-line            {stroke: #0F0F0F; shape-rendering: crispEdges}
    .filled               {fill: #1F1F1F; stroke: none;}
    text.terminal         {font-family: Verdana, Sans-serif;
                            font-size: 12px;
                            fill: #0A0A0A;
                            font-weight: bold;
                          }
    text.nonterminal      {font-family: Verdana, Sans-serif; font-style: italic;
                            font-size: 12px;
                            fill: #0D0D0D;
                            font-weight: normal;
                          }
    text.regexp           {font-family: Verdana, Sans-serif;
                            font-size: 12px;
                            fill: #0F0F0F;
                            font-weight: normal;
                          }
    rect, circle, polygon {fill: #1F1F1F; stroke: #1F1F1F;}
    rect.terminal         {fill: #cccccc; stroke: #1F1F1F; stroke-width: 1;}
    rect.nonterminal      {fill: #E3E3E3; stroke: #1F1F1F; stroke-width: 1;}
    rect.text             {fill: none; stroke: none;}
    polygon.regexp        {fill: #EFEFEF; stroke: #1F1F1F; stroke-width: 1;}
  </style>
         </defs>
         <polygon points="9 17 1 13 1 21"/>
         <polygon points="17 17 9 13 9 21"/>
         <rect x="31" y="3" width="106" height="32" rx="10"/>
         <rect x="29" y="1" width="106" height="32" class="terminal" rx="10"/>
         <text class="terminal" x="39" y="21">SysFileTree(</text>
<!--  <a xmlns:xlink="http://www.w3.org/1999/xlink" xlink:href="#filespec" xlink:title="filespec"> -->
            <rect x="157" y="3" width="68" height="32"/>
            <rect x="155" y="1" width="68" height="32" class="nonterminal"/>
            <text class="nonterminal" x="165" y="21">filespec</text><!-- </a> -->
<rect x="245" y="3" width="24" height="32" rx="10"/>
         <rect x="243" y="1" width="24" height="32" class="terminal" rx="10"/>
         <text class="terminal" x="253" y="21">,</text>
<!--  <a xmlns:xlink="http://www.w3.org/1999/xlink" xlink:href="#stemarray" xlink:title="stemarray"> -->
            <rect x="289" y="3" width="84" height="32"/>
            <rect x="287" y="1" width="84" height="32" class="nonterminal"/>
            <text class="nonterminal" x="297" y="21">stemarray</text><!-- </a> -->
<rect x="393" y="3" width="24" height="32" rx="10"/>
         <rect x="391" y="1" width="24" height="32" class="terminal" rx="10"/>
         <text class="terminal" x="401" y="21">,</text>
<!--  <a xmlns:xlink="http://www.w3.org/1999/xlink" xlink:href="#options" xlink:title="options"> -->
            <rect x="457" y="35" width="66" height="32"/>
            <rect x="455" y="33" width="66" height="32" class="nonterminal"/>
            <text class="nonterminal" x="465" y="53">options</text><!-- </a> -->
<rect x="563" y="3" width="24" height="32" rx="10"/>
         <rect x="561" y="1" width="24" height="32" class="terminal" rx="10"/>
         <text class="terminal" x="571" y="21">,</text>
<!--  <a xmlns:xlink="http://www.w3.org/1999/xlink" xlink:href="#tattrib" xlink:title="tattrib"> -->
            <rect x="627" y="35" width="58" height="32"/>
            <rect x="625" y="33" width="58" height="32" class="nonterminal"/>
            <text class="nonterminal" x="635" y="53">tattrib</text><!-- </a> -->
<rect x="725" y="3" width="24" height="32" rx="10"/>
         <rect x="723" y="1" width="24" height="32" class="terminal" rx="10"/>
         <text class="terminal" x="733" y="21">,</text>
<!--  <a xmlns:xlink="http://www.w3.org/1999/xlink" xlink:href="#nattrib" xlink:title="nattrib"> -->
            <rect x="615" y="133" width="62" height="32"/>
            <rect x="613" y="131" width="62" height="32" class="nonterminal"/>
            <text class="nonterminal" x="623" y="151">nattrib</text><!-- </a> -->
<rect x="717" y="101" width="26" height="32" rx="10"/>
         <rect x="715" y="99" width="26" height="32" class="terminal" rx="10"/>
         <text class="terminal" x="725" y="119">)</text>
         <svg:path xmlns:svg="http://www.w3.org/2000/svg" class="line" d="m17 17 h2 m0 0 h10 m106 0 h10 m0 0 h10 m68 0 h10 m0 0 h10 m24 0 h10 m0 0 h10 m84 0 h10 m0 0 h10 m24 0 h10 m20 0 h10 m0 0 h76 m-106 0 h20 m86 0 h20 m-126 0 q10 0 10 10 m106 0 q0 -10 10 -10 m-116 10 v12 m106 0 v-12 m-106 12 q0 10 10 10 m86 0 q10 0 10 -10 m-96 10 h10 m66 0 h10 m20 -32 h10 m24 0 h10 m20 0 h10 m0 0 h68 m-98 0 h20 m78 0 h20 m-118 0 q10 0 10 10 m98 0 q0 -10 10 -10 m-108 10 v12 m98 0 v-12 m-98 12 q0 10 10 10 m78 0 q10 0 10 -10 m-88 10 h10 m58 0 h10 m20 -32 h10 m24 0 h10 m2 0 l2 0 m2 0 l2 0 m2 0 l2 0 m-198 98 l2 0 m2 0 l2 0 m2 0 l2 0 m22 0 h10 m0 0 h72 m-102 0 h20 m82 0 h20 m-122 0 q10 0 10 10 m102 0 q0 -10 10 -10 m-112 10 v12 m102 0 v-12 m-102 12 q0 10 10 10 m82 0 q10 0 10 -10 m-92 10 h10 m62 0 h10 m20 -32 h10 m26 0 h10 m3 0 h-3"/>
         <polygon points="761 115 769 111 769 119"/>
         <polygon points="761 115 753 111 753 119"/></svg>
