      <svg xmlns="http://www.w3.org/2000/svg" width="448" height="112">
         <defs>
            <style type="text/css">
               @namespace "http://www.w3.org/2000/svg";
               .line                 {fill: none; stroke: #1F1F1F;}
               .bold-line            {stroke: #0A0A0A; shape-rendering: crispEdges; stroke-width:
               2; }
               .thin-line            {stroke: #0F0F0F; shape-rendering: crispEdges}
               .filled               {fill: #1F1F1F; stroke: none;}
               text.terminal         {font-family: Verdana, Sans-serif;
               font-size: 12px;
               fill: #0A0A0A;
               font-weight: bold;
               }
               text.nonterminal      {font-family: Verdana, Sans-serif;
               font-size: 12px;
               fill: #0D0D0D;
               }
               text.regexp           {font-family: Verdana, Sans-serif;
               font-size: 12px;
               fill: #0F0F0F;
               }
               rect, circle, polygon {fill: #1F1F1F; stroke: #1F1F1F;}
               rect.terminal         {fill: #cccccc; stroke: #1F1F1F;}
               rect.nonterminal      {fill: #E3E3E3; stroke: #1F1F1F;}
               rect.text             {fill: none; stroke: none;}    
               polygon.regexp        {fill: #EFEFEF; stroke: #1F1F1F;}
               
            </style>
         </defs>
         <polygon points="9 61 1 57 1 65"/>
         <polygon points="17 61 9 57 9 65"/>
         <a xmlns:xlink="http://www.w3.org/1999/xlink" xlink:href="#receiver" xlink:title="receiver">
            <rect x="31" y="47" width="70" height="32"/>
            <rect x="29" y="45" width="70" height="32" class="nonterminal"/>
            <text class="nonterminal" x="39" y="65">receiver</text>
         </a>
         <rect x="141" y="47" width="26" height="32" rx="10"/>
         <rect x="139" y="45" width="26" height="32" class="terminal" rx="10"/>
         <text class="terminal" x="149" y="65">[</text>
         <a xmlns:xlink="http://www.w3.org/1999/xlink" xlink:href="#expression" xlink:title="expression">
            <rect x="227" y="47" width="88" height="32"/>
            <rect x="225" y="45" width="88" height="32" class="nonterminal"/>
            <text class="nonterminal" x="235" y="65">expression</text>
         </a>
         <rect x="227" y="3" width="24" height="32" rx="10"/>
         <rect x="225" y="1" width="24" height="32" class="terminal" rx="10"/>
         <text class="terminal" x="235" y="21">,</text>
         <rect x="375" y="47" width="26" height="32" rx="10"/>
         <rect x="373" y="45" width="26" height="32" class="terminal" rx="10"/>
         <text class="terminal" x="383" y="65">]</text>
         <svg:path xmlns:svg="http://www.w3.org/2000/svg" class="line" d="m17 61 h2 m0 0 h10 m70 0 h10 m20 0 h10 m26 0 h10 m40 0 h10 m88 0 h10 m-128 0 l20 0 m-1 0 q-9 0 -9 -10 l0 -24 q0 -10 10 -10 m108 44 l20 0 m-20 0 q10 0 10 -10 l0 -24 q0 -10 -10 -10 m-108 0 h10 m24 0 h10 m0 0 h64 m-148 44 h20 m148 0 h20 m-188 0 q10 0 10 10 m168 0 q0 -10 10 -10 m-178 10 v14 m168 0 v-14 m-168 14 q0 10 10 10 m148 0 q10 0 10 -10 m-158 10 h10 m0 0 h138 m20 -34 h10 m26 0 h10 m-300 0 h20 m280 0 h20 m-320 0 q10 0 10 10 m300 0 q0 -10 10 -10 m-310 10 v30 m300 0 v-30 m-300 30 q0 10 10 10 m280 0 q10 0 10 -10 m-290 10 h10 m0 0 h270 m23 -50 h-3"/>
         <polygon points="439 61 447 57 447 65"/>
         <polygon points="439 61 431 57 431 65"/>
      </svg>
