      <svg xmlns="http://www.w3.org/2000/svg" width="384" height="68">
         <defs>
            <style type="text/css">
               @namespace "http://www.w3.org/2000/svg";
               .line                 {fill: none; stroke: #1F1F1F;}
               .bold-line            {stroke: #0A0A0A; shape-rendering: crispEdges; stroke-width:
               2; }
               .thin-line            {stroke: #0F0F0F; shape-rendering: crispEdges}
               .filled               {fill: #1F1F1F; stroke: none;}
               text.terminal         {font-family: Verdana, Sans-serif;
               font-size: 12px;
               fill: #0A0A0A;
               font-weight: bold;
               }
               text.nonterminal      {font-family: Verdana, Sans-serif; font-style: italic;
               font-size: 12px;
               fill: #0D0D0D;
               }
               text.regexp           {font-family: Verdana, Sans-serif;
               font-size: 12px;
               fill: #0F0F0F;
               }
               rect, circle, polygon {fill: #1F1F1F; stroke: #1F1F1F;}
               rect.terminal         {fill: #CCCCCC; stroke: #1F1F1F;}
               rect.nonterminal      {fill: #E3E3E3; stroke: #1F1F1F;}
               rect.text             {fill: none; stroke: none;}    
               polygon.regexp        {fill: #EFEFEF; stroke: #1F1F1F;}
               
            </style>
         </defs>
         <polygon points="9 17 1 13 1 21"/>
         <polygon points="17 17 9 13 9 21"/>
         <rect x="31" y="3" width="106" height="32" rx="10"/>
         <rect x="29" y="1" width="106" height="32" class="terminal" rx="10"/>
         <text class="terminal" x="39" y="21">getConstant(</text>
<!--     <a xmlns:xlink="http://www.w3.org/1999/xlink" xlink:href="#ConstantName" xlink:title="ConstantName"> -->
            <rect x="177" y="35" width="114" height="32"/>
            <rect x="175" y="33" width="114" height="32" class="nonterminal"/>
            <text class="nonterminal" x="185" y="53">ConstantName</text>
<!--     </a> -->
         <rect x="331" y="3" width="26" height="32" rx="10"/>
         <rect x="329" y="1" width="26" height="32" class="terminal" rx="10"/>
         <text class="terminal" x="339" y="21">)</text>
         <svg:path xmlns:svg="http://www.w3.org/2000/svg" class="line" d="m17 17 h2 m0 0 h10 m106 0 h10 m20 0 h10 m0 0 h124 m-154 0 h20 m134 0 h20 m-174 0 q10 0 10 10 m154 0 q0 -10 10 -10 m-164 10 v12 m154 0 v-12 m-154 12 q0 10 10 10 m134 0 q10 0 10 -10 m-144 10 h10 m114 0 h10 m20 -32 h10 m26 0 h10 m3 0 h-3"/>
         <polygon points="375 17 383 13 383 21"/>
         <polygon points="375 17 367 13 367 21"/>
      </svg>
