<svg xmlns="http://www.w3.org/2000/svg" width="757" height="101">
         <defs>
            <style type="text/css">
    @namespace "http://www.w3.org/2000/svg";
    .line                 {fill: none; stroke: #1F1F1F; stroke-width: 1;}
    .bold-line            {stroke: #0A0A0A; shape-rendering: crispEdges; stroke-width: 2;}
    .thin-line            {stroke: #0F0F0F; shape-rendering: crispEdges}
    .filled               {fill: #1F1F1F; stroke: none;}
    text.terminal         {font-family: Verdana, Sans-serif;
                            font-size: 12px;
                            fill: #0A0A0A;
                            font-weight: bold;
                          }
    text.nonterminal      {font-family: Verdana, Sans-serif; font-style: italic;
                            font-size: 12px;
                            fill: #0D0D0D;
                            font-weight: normal;
                          }
    text.regexp           {font-family: Verdana, Sans-serif;
                            font-size: 12px;
                            fill: #0F0F0F;
                            font-weight: normal;
                          }
    rect, circle, polygon {fill: #1F1F1F; stroke: #1F1F1F;}
    rect.terminal         {fill: #cccccc; stroke: #1F1F1F; stroke-width: 1;}
    rect.nonterminal      {fill: #E3E3E3; stroke: #1F1F1F; stroke-width: 1;}
    rect.text             {fill: none; stroke: none;}
    polygon.regexp        {fill: #EFEFEF; stroke: #1F1F1F; stroke-width: 1;}
  </style>
         </defs>
         <polygon points="9 17 1 13 1 21"/>
         <polygon points="17 17 9 13 9 21"/>
         <rect x="31" y="3" width="162" height="32" rx="10"/>
         <rect x="29" y="1" width="162" height="32" class="terminal" rx="10"/>
         <text class="terminal" x="39" y="21">SysSetFileDateTime(</text>
<!--  <a xmlns:xlink="http://www.w3.org/1999/xlink" xlink:href="#filename" xlink:title="filename"> -->
            <rect x="213" y="3" width="74" height="32"/>
            <rect x="211" y="1" width="74" height="32" class="nonterminal"/>
            <text class="nonterminal" x="221" y="21">filename</text><!-- </a> -->
<rect x="327" y="35" width="24" height="32" rx="10"/>
         <rect x="325" y="33" width="24" height="32" class="terminal" rx="10"/>
         <text class="terminal" x="335" y="53">,</text>
<!--  <a xmlns:xlink="http://www.w3.org/1999/xlink" xlink:href="#newdate" xlink:title="newdate"> -->
            <rect x="391" y="67" width="74" height="32"/>
            <rect x="389" y="65" width="74" height="32" class="nonterminal"/>
            <text class="nonterminal" x="399" y="85">newdate</text><!-- </a> -->
<rect x="525" y="67" width="24" height="32" rx="10"/>
         <rect x="523" y="65" width="24" height="32" class="terminal" rx="10"/>
         <text class="terminal" x="533" y="85">,</text>
<!--  <a xmlns:xlink="http://www.w3.org/1999/xlink" xlink:href="#newtime" xlink:title="newtime"> -->
            <rect x="569" y="67" width="74" height="32"/>
            <rect x="567" y="65" width="74" height="32" class="nonterminal"/>
            <text class="nonterminal" x="577" y="85">newtime</text><!-- </a> -->
<rect x="703" y="3" width="26" height="32" rx="10"/>
         <rect x="701" y="1" width="26" height="32" class="terminal" rx="10"/>
         <text class="terminal" x="711" y="21">)</text>
         <svg:path xmlns:svg="http://www.w3.org/2000/svg" class="line" d="m17 17 h2 m0 0 h10 m162 0 h10 m0 0 h10 m74 0 h10 m20 0 h10 m0 0 h346 m-376 0 h20 m356 0 h20 m-396 0 q10 0 10 10 m376 0 q0 -10 10 -10 m-386 10 v12 m376 0 v-12 m-376 12 q0 10 10 10 m356 0 q10 0 10 -10 m-366 10 h10 m24 0 h10 m20 0 h10 m0 0 h84 m-114 0 h20 m94 0 h20 m-134 0 q10 0 10 10 m114 0 q0 -10 10 -10 m-124 10 v12 m114 0 v-12 m-114 12 q0 10 10 10 m94 0 q10 0 10 -10 m-104 10 h10 m74 0 h10 m40 -32 h10 m0 0 h128 m-158 0 h20 m138 0 h20 m-178 0 q10 0 10 10 m158 0 q0 -10 10 -10 m-168 10 v12 m158 0 v-12 m-158 12 q0 10 10 10 m138 0 q10 0 10 -10 m-148 10 h10 m24 0 h10 m0 0 h10 m74 0 h10 m40 -64 h10 m26 0 h10 m3 0 h-3"/>
         <polygon points="747 17 755 13 755 21"/>
         <polygon points="747 17 739 13 739 21"/></svg>
