      <svg xmlns="http://www.w3.org/2000/svg" width="438" height="36">
         <defs>
            <style type="text/css">
               @namespace "http://www.w3.org/2000/svg";
               .line                 {fill: none; stroke: #1F1F1F;}
               .bold-line            {stroke: #0A0A0A; shape-rendering: crispEdges; stroke-width:
               2; }
               .thin-line            {stroke: #0F0F0F; shape-rendering: crispEdges}
               .filled               {fill: #1F1F1F; stroke: none;}
               text.terminal         {font-family: Verdana, Sans-serif;
               font-size: 12px;
               fill: #0A0A0A;
               font-weight: bold;
               }
               text.nonterminal      {font-family: Verdana, Sans-serif;
               font-size: 12px;
               fill: #0D0D0D;
               }
               text.regexp           {font-family: Verdana, Sans-serif;
               font-size: 12px;
               fill: #0F0F0F;
               }
               rect, circle, polygon {fill: #1F1F1F; stroke: #1F1F1F;}
               rect.terminal         {fill: #CCCCCC; stroke: #1F1F1F;}
               rect.nonterminal      {fill: #E3E3E3; stroke: #1F1F1F;}
               rect.text             {fill: none; stroke: none;}    
               polygon.regexp        {fill: #EFEFEF; stroke: #1F1F1F;}
               
            </style>
         </defs>
         <polygon points="9 17 1 13 1 21"/>
         <polygon points="17 17 9 13 9 21"/>
         <rect x="31" y="3" width="24" height="32" rx="10"/>
         <rect x="29" y="1" width="24" height="32" class="terminal" rx="10"/>
         <text class="terminal" x="39" y="21">.</text>
         <a xmlns:xlink="http://www.w3.org/1999/xlink" xlink:href="#Window" xlink:title="Window">
            <rect x="75" y="3" width="70" height="32"/>
            <rect x="73" y="1" width="70" height="32" class="nonterminal"/>
            <text class="nonterminal" x="83" y="21">Window</text>
         </a>
         <rect x="165" y="3" width="30" height="32" rx="10"/>
         <rect x="163" y="1" width="30" height="32" class="terminal" rx="10"/>
         <text class="terminal" x="173" y="21">~</text>
         <a xmlns:xlink="http://www.w3.org/1999/xlink" xlink:href="#orxncurses_version" xlink:title="orxncurses_version">
            <rect x="215" y="3" width="142" height="32"/>
            <rect x="213" y="1" width="142" height="32" class="nonterminal"/>
            <text class="nonterminal" x="223" y="21">orxncurses_version</text>
         </a>
         <rect x="377" y="3" width="34" height="32" rx="10"/>
         <rect x="375" y="1" width="34" height="32" class="terminal" rx="10"/>
         <text class="terminal" x="385" y="21">()</text>
         <svg:path xmlns:svg="http://www.w3.org/2000/svg" class="line" d="m17 17 h2 m0 0 h10 m24 0 h10 m0 0 h10 m70 0 h10 m0 0 h10 m30 0 h10 m0 0 h10 m142 0 h10 m0 0 h10 m34 0 h10 m3 0 h-3"/>
         <polygon points="429 17 437 13 437 21"/>
         <polygon points="429 17 421 13 421 21"/>
      </svg>
