      <svg xmlns="http://www.w3.org/2000/svg" width="422" height="68">
         <defs>
            <style type="text/css">
               @namespace "http://www.w3.org/2000/svg";
               .line                 {fill: none; stroke: #1F1F1F;}
               .bold-line            {stroke: #0A0A0A; shape-rendering: crispEdges; stroke-width:
               2; }
               .thin-line            {stroke: #0F0F0F; shape-rendering: crispEdges}
               .filled               {fill: #1F1F1F; stroke: none;}
               text.terminal         {font-family: Verdana, Sans-serif;
               font-size: 12px;
               fill: #0A0A0A;
               font-weight: bold;
               }
               text.nonterminal      {font-family: Verdana, Sans-serif; font-style: italic;
               font-size: 12px;
               fill: #0D0D0D;
               }
               text.regexp           {font-family: Verdana, Sans-serif;
               font-size: 12px;
               fill: #0F0F0F;
               }
               rect, circle, polygon {fill: #1F1F1F; stroke: #1F1F1F;}
               rect.terminal         {fill: #CCCCCC; stroke: #1F1F1F;}
               rect.nonterminal      {fill: #E3E3E3; stroke: #1F1F1F;}
               rect.text             {fill: none; stroke: none;}    
               polygon.regexp        {fill: #EFEFEF; stroke: #1F1F1F;}
               
            </style>
         </defs>
         <polygon points="9 17 1 13 1 21"/>
         <polygon points="17 17 9 13 9 21"/>
         <rect x="31" y="3" width="68" height="32" rx="10"/>
         <rect x="29" y="1" width="68" height="32" class="terminal" rx="10"/>
         <text class="terminal" x="39" y="21">create(</text>
<!--     <a xmlns:xlink="http://www.w3.org/1999/xlink" xlink:href="#parent" xlink:title="parent"> -->
            <rect x="139" y="35" width="62" height="32"/>
            <rect x="137" y="33" width="62" height="32" class="nonterminal"/>
            <text class="nonterminal" x="147" y="53">parent</text>
<!--     </a> -->
         <rect x="241" y="3" width="24" height="32" rx="10"/>
         <rect x="239" y="1" width="24" height="32" class="terminal" rx="10"/>
         <text class="terminal" x="249" y="21">,</text>
<!--     <a xmlns:xlink="http://www.w3.org/1999/xlink" xlink:href="#subkey" xlink:title="subkey"> -->
            <rect x="285" y="3" width="64" height="32"/>
            <rect x="283" y="1" width="64" height="32" class="nonterminal"/>
            <text class="nonterminal" x="293" y="21">subkey</text>
<!--     </a> -->
         <rect x="369" y="3" width="26" height="32" rx="10"/>
         <rect x="367" y="1" width="26" height="32" class="terminal" rx="10"/>
         <text class="terminal" x="377" y="21">)</text>
         <svg:path xmlns:svg="http://www.w3.org/2000/svg" class="line" d="m17 17 h2 m0 0 h10 m68 0 h10 m20 0 h10 m0 0 h72 m-102 0 h20 m82 0 h20 m-122 0 q10 0 10 10 m102 0 q0 -10 10 -10 m-112 10 v12 m102 0 v-12 m-102 12 q0 10 10 10 m82 0 q10 0 10 -10 m-92 10 h10 m62 0 h10 m20 -32 h10 m24 0 h10 m0 0 h10 m64 0 h10 m0 0 h10 m26 0 h10 m3 0 h-3"/>
         <polygon points="413 17 421 13 421 21"/>
         <polygon points="413 17 405 13 405 21"/>
      </svg>
