      <svg xmlns="http://www.w3.org/2000/svg" width="350" height="80">
         <defs>
            <style type="text/css">
               @namespace "http://www.w3.org/2000/svg";
               .line                 {fill: none; stroke: #1F1F1F;}
               .bold-line            {stroke: #0A0A0A; shape-rendering: crispEdges; stroke-width:
               2; }
               .thin-line            {stroke: #0F0F0F; shape-rendering: crispEdges}
               .filled               {fill: #1F1F1F; stroke: none;}
               text.terminal         {font-family: Verdana, Sans-serif;
               font-size: 12px;
               fill: #0A0A0A;
               font-weight: bold;
               }
               text.nonterminal      {font-family: Verdana, Sans-serif; font-style: italic;
               font-size: 12px;
               fill: #0D0D0D;
               }
               text.regexp           {font-family: Verdana, Sans-serif;
               font-size: 12px;
               fill: #0F0F0F;
               }
               rect, circle, polygon {fill: #1F1F1F; stroke: #1F1F1F;}
               rect.terminal         {fill: #CCCCCC; stroke: #1F1F1F;}
               rect.nonterminal      {fill: #E3E3E3; stroke: #1F1F1F;}
               rect.text             {fill: none; stroke: none;}    
               polygon.regexp        {fill: #EFEFEF; stroke: #1F1F1F;}
               
            </style>
         </defs>
         <polygon points="9 17 1 13 1 21"/>
         <polygon points="17 17 9 13 9 21"/>
         <rect x="51" y="3" width="78" height="32" rx="10"/>
         <rect x="49" y="1" width="78" height="32" class="terminal" rx="10"/>
         <text class="terminal" x="59" y="21">encoding</text>
         <rect x="51" y="47" width="78" height="32" rx="10"/>
         <rect x="49" y="45" width="78" height="32" class="terminal" rx="10"/>
         <text class="terminal" x="59" y="65">encoding</text>
         <rect x="149" y="47" width="30" height="32" rx="10"/>
         <rect x="147" y="45" width="30" height="32" class="terminal" rx="10"/>
         <text class="terminal" x="157" y="65">=</text>
<!--     <a xmlns:xlink="http://www.w3.org/1999/xlink" xlink:href="#newencoding" xlink:title="newencoding"> -->
            <rect x="199" y="47" width="104" height="32"/>
            <rect x="197" y="45" width="104" height="32" class="nonterminal"/>
            <text class="nonterminal" x="207" y="65">newencoding</text>
<!--     </a> -->
         <svg:path xmlns:svg="http://www.w3.org/2000/svg" class="line" d="m17 17 h2 m20 0 h10 m78 0 h10 m0 0 h174 m-292 0 h20 m272 0 h20 m-312 0 q10 0 10 10 m292 0 q0 -10 10 -10 m-302 10 v24 m292 0 v-24 m-292 24 q0 10 10 10 m272 0 q10 0 10 -10 m-282 10 h10 m78 0 h10 m0 0 h10 m30 0 h10 m0 0 h10 m104 0 h10 m23 -44 h-3"/>
         <polygon points="341 17 349 13 349 21"/>
         <polygon points="341 17 333 13 333 21"/>
      </svg>
