<svg xmlns="http://www.w3.org/2000/svg" width="587" height="231">
         <defs>
            <style type="text/css">
    @namespace "http://www.w3.org/2000/svg";
    .line                 {fill: none; stroke: #1F1F1F; stroke-width: 1;}
    .bold-line            {stroke: #0A0A0A; shape-rendering: crispEdges; stroke-width: 2;}
    .thin-line            {stroke: #0F0F0F; shape-rendering: crispEdges}
    .filled               {fill: #1F1F1F; stroke: none;}
    text.terminal         {font-family: Verdana, Sans-serif;
                            font-size: 12px;
                            fill: #0A0A0A;
                            font-weight: bold;
                          }
    text.nonterminal      {font-family: Verdana, Sans-serif; font-style: italic;
                            font-size: 12px;
                            fill: #0D0D0D;
                            font-weight: normal;
                          }
    text.regexp           {font-family: Verdana, Sans-serif;
                            font-size: 12px;
                            fill: #0F0F0F;
                            font-weight: normal;
                          }
    rect, circle, polygon {fill: #1F1F1F; stroke: #1F1F1F;}
    rect.terminal         {fill: #cccccc; stroke: #1F1F1F; stroke-width: 1;}
    rect.nonterminal      {fill: #E3E3E3; stroke: #1F1F1F; stroke-width: 1;}
    rect.text             {fill: none; stroke: none;}
    polygon.regexp        {fill: #EFEFEF; stroke: #1F1F1F; stroke-width: 1;}
  </style>
         </defs>
         <polygon points="9 61 1 57 1 65"/>
         <polygon points="17 61 9 57 9 65"/>
         <rect x="31" y="47" width="34" height="32" rx="10"/>
         <rect x="29" y="45" width="34" height="32" class="terminal" rx="10"/>
         <text class="terminal" x="39" y="65">IF</text>
<!--  <a xmlns:xlink="http://www.w3.org/1999/xlink" xlink:href="#expression" xlink:title="expression"> -->
            <rect x="105" y="47" width="90" height="32"/>
            <rect x="103" y="45" width="90" height="32" class="nonterminal"/>
            <text class="nonterminal" x="113" y="65">expression</text><!-- </a> -->
<rect x="105" y="3" width="24" height="32" rx="10"/>
         <rect x="103" y="1" width="24" height="32" class="terminal" rx="10"/>
         <text class="terminal" x="113" y="21">,</text>
         <rect x="255" y="79" width="24" height="32" rx="10"/>
         <rect x="253" y="77" width="24" height="32" class="terminal" rx="10"/>
         <text class="terminal" x="263" y="97">;</text>
         <rect x="319" y="47" width="56" height="32" rx="10"/>
         <rect x="317" y="45" width="56" height="32" class="terminal" rx="10"/>
         <text class="terminal" x="327" y="65">THEN</text>
         <rect x="415" y="79" width="24" height="32" rx="10"/>
         <rect x="413" y="77" width="24" height="32" class="terminal" rx="10"/>
         <text class="terminal" x="423" y="97">;</text>
<!--  <a xmlns:xlink="http://www.w3.org/1999/xlink" xlink:href="#instruction" xlink:title="instruction"> -->
            <rect x="479" y="47" width="86" height="32"/>
            <rect x="477" y="45" width="86" height="32" class="nonterminal"/>
            <text class="nonterminal" x="487" y="65">instruction</text><!-- </a> -->
<rect x="297" y="165" width="52" height="32" rx="10"/>
         <rect x="295" y="163" width="52" height="32" class="terminal" rx="10"/>
         <text class="terminal" x="305" y="183">ELSE</text>
         <rect x="389" y="197" width="24" height="32" rx="10"/>
         <rect x="387" y="195" width="24" height="32" class="terminal" rx="10"/>
         <text class="terminal" x="397" y="215">;</text>
<!--  <a xmlns:xlink="http://www.w3.org/1999/xlink" xlink:href="#instruction" xlink:title="instruction"> -->
            <rect x="453" y="165" width="86" height="32"/>
            <rect x="451" y="163" width="86" height="32" class="nonterminal"/>
            <text class="nonterminal" x="461" y="183">instruction</text><!-- </a> -->
<svg:path xmlns:svg="http://www.w3.org/2000/svg" class="line" d="m17 61 h2 m0 0 h10 m34 0 h10 m20 0 h10 m90 0 h10 m-130 0 l20 0 m-1 0 q-9 0 -9 -10 l0 -24 q0 -10 10 -10 m110 44 l20 0 m-20 0 q10 0 10 -10 l0 -24 q0 -10 -10 -10 m-110 0 h10 m24 0 h10 m0 0 h66 m40 44 h10 m0 0 h34 m-64 0 h20 m44 0 h20 m-84 0 q10 0 10 10 m64 0 q0 -10 10 -10 m-74 10 v12 m64 0 v-12 m-64 12 q0 10 10 10 m44 0 q10 0 10 -10 m-54 10 h10 m24 0 h10 m20 -32 h10 m56 0 h10 m20 0 h10 m0 0 h34 m-64 0 h20 m44 0 h20 m-84 0 q10 0 10 10 m64 0 q0 -10 10 -10 m-74 10 v12 m64 0 v-12 m-64 12 q0 10 10 10 m44 0 q10 0 10 -10 m-54 10 h10 m24 0 h10 m20 -32 h10 m86 0 h10 m2 0 l2 0 m2 0 l2 0 m2 0 l2 0 m-332 86 l2 0 m2 0 l2 0 m2 0 l2 0 m22 0 h10 m0 0 h252 m-282 0 h20 m262 0 h20 m-302 0 q10 0 10 10 m282 0 q0 -10 10 -10 m-292 10 v12 m282 0 v-12 m-282 12 q0 10 10 10 m262 0 q10 0 10 -10 m-272 10 h10 m52 0 h10 m20 0 h10 m0 0 h34 m-64 0 h20 m44 0 h20 m-84 0 q10 0 10 10 m64 0 q0 -10 10 -10 m-74 10 v12 m64 0 v-12 m-64 12 q0 10 10 10 m44 0 q10 0 10 -10 m-54 10 h10 m24 0 h10 m20 -32 h10 m86 0 h10 m23 -32 h-3"/>
         <polygon points="577 147 585 143 585 151"/>
         <polygon points="577 147 569 143 569 151"/></svg>
