<svg xmlns="http://www.w3.org/2000/svg" width="749" height="419">
         <defs>
            <style type="text/css">
    @namespace "http://www.w3.org/2000/svg";
    .line                 {fill: none; stroke: #1F1F1F; stroke-width: 1;}
    .bold-line            {stroke: #0A0A0A; shape-rendering: crispEdges; stroke-width: 2;}
    .thin-line            {stroke: #0F0F0F; shape-rendering: crispEdges}
    .filled               {fill: #1F1F1F; stroke: none;}
    text.terminal         {font-family: Verdana, Sans-serif;
                            font-size: 12px;
                            fill: #0A0A0A;
                            font-weight: bold;
                          }
    text.nonterminal      {font-family: Verdana, Sans-serif; font-style: italic;
                            font-size: 12px;
                            fill: #0D0D0D;
                            font-weight: normal;
                          }
    text.regexp           {font-family: Verdana, Sans-serif;
                            font-size: 12px;
                            fill: #0F0F0F;
                            font-weight: normal;
                          }
    rect, circle, polygon {fill: #1F1F1F; stroke: #1F1F1F;}
    rect.terminal         {fill: #cccccc; stroke: #1F1F1F; stroke-width: 1;}
    rect.nonterminal      {fill: #E3E3E3; stroke: #1F1F1F; stroke-width: 1;}
    rect.text             {fill: none; stroke: none;}
    polygon.regexp        {fill: #EFEFEF; stroke: #1F1F1F; stroke-width: 1;}
  </style>
         </defs>
         <polygon points="9 17 1 13 1 21"/>
         <polygon points="17 17 9 13 9 21"/>
         <rect x="31" y="3" width="64" height="32" rx="10"/>
         <rect x="29" y="1" width="64" height="32" class="terminal" rx="10"/>
         <text class="terminal" x="39" y="21">PARSE</text>
         <rect x="135" y="35" width="64" height="32" rx="10"/>
         <rect x="133" y="33" width="64" height="32" class="terminal" rx="10"/>
         <text class="terminal" x="143" y="53">UPPER</text>
         <rect x="135" y="79" width="70" height="32" rx="10"/>
         <rect x="133" y="77" width="70" height="32" class="terminal" rx="10"/>
         <text class="terminal" x="143" y="97">LOWER</text>
         <rect x="265" y="35" width="90" height="32" rx="10"/>
         <rect x="263" y="33" width="90" height="32" class="terminal" rx="10"/>
         <text class="terminal" x="273" y="53">CASELESS</text>
         <rect x="415" y="3" width="48" height="32" rx="10"/>
         <rect x="413" y="1" width="48" height="32" class="terminal" rx="10"/>
         <text class="terminal" x="423" y="21">ARG</text>
         <rect x="415" y="47" width="68" height="32" rx="10"/>
         <rect x="413" y="45" width="68" height="32" class="terminal" rx="10"/>
         <text class="terminal" x="423" y="65">LINEIN</text>
         <rect x="415" y="91" width="54" height="32" rx="10"/>
         <rect x="413" y="89" width="54" height="32" class="terminal" rx="10"/>
         <text class="terminal" x="423" y="109">PULL</text>
         <rect x="415" y="135" width="76" height="32" rx="10"/>
         <rect x="413" y="133" width="76" height="32" class="terminal" rx="10"/>
         <text class="terminal" x="423" y="153">SOURCE</text>
         <rect x="415" y="179" width="64" height="32" rx="10"/>
         <rect x="413" y="177" width="64" height="32" class="terminal" rx="10"/>
         <text class="terminal" x="423" y="197">VALUE</text>
<!--  <a xmlns:xlink="http://www.w3.org/1999/xlink" xlink:href="#expression" xlink:title="expression"> -->
            <rect x="519" y="211" width="90" height="32"/>
            <rect x="517" y="209" width="90" height="32" class="nonterminal"/>
            <text class="nonterminal" x="527" y="229">expression</text><!-- </a> -->
<rect x="649" y="179" width="58" height="32" rx="10"/>
         <rect x="647" y="177" width="58" height="32" class="terminal" rx="10"/>
         <text class="terminal" x="657" y="197">WITH</text>
         <rect x="415" y="255" width="48" height="32" rx="10"/>
         <rect x="413" y="253" width="48" height="32" class="terminal" rx="10"/>
         <text class="terminal" x="423" y="273">VAR</text>
<!--  <a xmlns:xlink="http://www.w3.org/1999/xlink" xlink:href="#name" xlink:title="name"> -->
            <rect x="483" y="255" width="56" height="32"/>
            <rect x="481" y="253" width="56" height="32" class="nonterminal"/>
            <text class="nonterminal" x="491" y="273">name</text><!-- </a> -->
<rect x="415" y="299" width="82" height="32" rx="10"/>
         <rect x="413" y="297" width="82" height="32" class="terminal" rx="10"/>
         <text class="terminal" x="423" y="317">VERSION</text>
<!--  <a xmlns:xlink="http://www.w3.org/1999/xlink" xlink:href="#template_list" xlink:title="template_list"> -->
            <rect x="597" y="385" width="104" height="32"/>
            <rect x="595" y="383" width="104" height="32" class="nonterminal"/>
            <text class="nonterminal" x="605" y="403">template_list</text><!-- </a> -->
<svg:path xmlns:svg="http://www.w3.org/2000/svg" class="line" d="m17 17 h2 m0 0 h10 m64 0 h10 m20 0 h10 m0 0 h80 m-110 0 h20 m90 0 h20 m-130 0 q10 0 10 10 m110 0 q0 -10 10 -10 m-120 10 v12 m110 0 v-12 m-110 12 q0 10 10 10 m90 0 q10 0 10 -10 m-100 10 h10 m64 0 h10 m0 0 h6 m-100 -10 v20 m110 0 v-20 m-110 20 v24 m110 0 v-24 m-110 24 q0 10 10 10 m90 0 q10 0 10 -10 m-100 10 h10 m70 0 h10 m40 -76 h10 m0 0 h100 m-130 0 h20 m110 0 h20 m-150 0 q10 0 10 10 m130 0 q0 -10 10 -10 m-140 10 v12 m130 0 v-12 m-130 12 q0 10 10 10 m110 0 q10 0 10 -10 m-120 10 h10 m90 0 h10 m40 -32 h10 m48 0 h10 m0 0 h244 m-332 0 h20 m312 0 h20 m-352 0 q10 0 10 10 m332 0 q0 -10 10 -10 m-342 10 v24 m332 0 v-24 m-332 24 q0 10 10 10 m312 0 q10 0 10 -10 m-322 10 h10 m68 0 h10 m0 0 h224 m-322 -10 v20 m332 0 v-20 m-332 20 v24 m332 0 v-24 m-332 24 q0 10 10 10 m312 0 q10 0 10 -10 m-322 10 h10 m54 0 h10 m0 0 h238 m-322 -10 v20 m332 0 v-20 m-332 20 v24 m332 0 v-24 m-332 24 q0 10 10 10 m312 0 q10 0 10 -10 m-322 10 h10 m76 0 h10 m0 0 h216 m-322 -10 v20 m332 0 v-20 m-332 20 v24 m332 0 v-24 m-332 24 q0 10 10 10 m312 0 q10 0 10 -10 m-322 10 h10 m64 0 h10 m20 0 h10 m0 0 h100 m-130 0 h20 m110 0 h20 m-150 0 q10 0 10 10 m130 0 q0 -10 10 -10 m-140 10 v12 m130 0 v-12 m-130 12 q0 10 10 10 m110 0 q10 0 10 -10 m-120 10 h10 m90 0 h10 m20 -32 h10 m58 0 h10 m-322 -10 v20 m332 0 v-20 m-332 20 v56 m332 0 v-56 m-332 56 q0 10 10 10 m312 0 q10 0 10 -10 m-322 10 h10 m48 0 h10 m0 0 h10 m56 0 h10 m0 0 h168 m-322 -10 v20 m332 0 v-20 m-332 20 v24 m332 0 v-24 m-332 24 q0 10 10 10 m312 0 q10 0 10 -10 m-322 10 h10 m82 0 h10 m0 0 h210 m22 -296 l2 0 m2 0 l2 0 m2 0 l2 0 m-194 350 l2 0 m2 0 l2 0 m2 0 l2 0 m22 0 h10 m0 0 h114 m-144 0 h20 m124 0 h20 m-164 0 q10 0 10 10 m144 0 q0 -10 10 -10 m-154 10 v12 m144 0 v-12 m-144 12 q0 10 10 10 m124 0 q10 0 10 -10 m-134 10 h10 m104 0 h10 m23 -32 h-3"/>
         <polygon points="739 367 747 363 747 371"/>
         <polygon points="739 367 731 363 731 371"/></svg>
