      <svg xmlns="http://www.w3.org/2000/svg" width="812" height="382">
         <defs>
            <style type="text/css">
               @namespace "http://www.w3.org/2000/svg";
               .line                 {fill: none; stroke: #1F1F1F;}
               .bold-line            {stroke: #0A0A0A; shape-rendering: crispEdges; stroke-width:
               2; }
               .thin-line            {stroke: #0F0F0F; shape-rendering: crispEdges}
               .filled               {fill: #1F1F1F; stroke: none;}
               text.terminal         {font-family: Verdana, Sans-serif;
               font-size: 12px;
               fill: #0A0A0A;
               font-weight: bold;
               }
               text.nonterminal      {font-family: Verdana, Sans-serif;
               font-size: 12px;
               fill: #0D0D0D;
               }
               text.regexp           {font-family: Verdana, Sans-serif;
               font-size: 12px;
               fill: #0F0F0F;
               }
               rect, circle, polygon {fill: #1F1F1F; stroke: #1F1F1F;}
               rect.terminal         {fill: #CCCCCC; stroke: #1F1F1F;}
               rect.nonterminal      {fill: #E3E3E3; stroke: #1F1F1F;}
               rect.text             {fill: none; stroke: none;}    
               polygon.regexp        {fill: #EFEFEF; stroke: #1F1F1F;}
               
            </style>
         </defs>
         <polygon points="9 17 1 13 1 21"/>
         <polygon points="17 17 9 13 9 21"/>
         <a xmlns:xlink="http://www.w3.org/1999/xlink" xlink:href="#win" xlink:title="win">
            <rect x="31" y="3" width="42" height="32"/>
            <rect x="29" y="1" width="42" height="32" class="nonterminal"/>
            <text class="nonterminal" x="39" y="21">win</text>
         </a>
         <rect x="93" y="3" width="30" height="32" rx="10"/>
         <rect x="91" y="1" width="30" height="32" class="terminal" rx="10"/>
         <text class="terminal" x="101" y="21">~</text>
         <rect x="143" y="3" width="132" height="32" rx="10"/>
         <rect x="141" y="1" width="132" height="32" class="terminal" rx="10"/>
         <text class="terminal" x="151" y="21">sendMouseClick(</text>
         <rect x="315" y="3" width="76" height="32" rx="10"/>
         <rect x="313" y="1" width="76" height="32" class="terminal" rx="10"/>
         <text class="terminal" x="323" y="21">"RIGHT"</text>
         <rect x="315" y="47" width="66" height="32" rx="10"/>
         <rect x="313" y="45" width="66" height="32" class="terminal" rx="10"/>
         <text class="terminal" x="323" y="65">"LEFT"</text>
         <rect x="315" y="91" width="86" height="32" rx="10"/>
         <rect x="313" y="89" width="86" height="32" class="terminal" rx="10"/>
         <text class="terminal" x="323" y="109">"MIDDLE"</text>
         <rect x="441" y="3" width="24" height="32" rx="10"/>
         <rect x="439" y="1" width="24" height="32" class="terminal" rx="10"/>
         <text class="terminal" x="449" y="21">,</text>
         <rect x="505" y="3" width="52" height="32" rx="10"/>
         <rect x="503" y="1" width="52" height="32" class="terminal" rx="10"/>
         <text class="terminal" x="513" y="21">"UP"</text>
         <rect x="505" y="47" width="78" height="32" rx="10"/>
         <rect x="503" y="45" width="78" height="32" class="terminal" rx="10"/>
         <text class="terminal" x="513" y="65">"DOWN"</text>
         <rect x="505" y="91" width="86" height="32" rx="10"/>
         <rect x="503" y="89" width="86" height="32" class="terminal" rx="10"/>
         <text class="terminal" x="513" y="109">"DBLCLK"</text>
         <rect x="631" y="3" width="24" height="32" rx="10"/>
         <rect x="629" y="1" width="24" height="32" class="terminal" rx="10"/>
         <text class="terminal" x="639" y="21">,</text>
         <a xmlns:xlink="http://www.w3.org/1999/xlink" xlink:href="#x" xlink:title="x">
            <rect x="675" y="3" width="26" height="32"/>
            <rect x="673" y="1" width="26" height="32" class="nonterminal"/>
            <text class="nonterminal" x="683" y="21">x</text>
         </a>
         <rect x="721" y="3" width="24" height="32" rx="10"/>
         <rect x="719" y="1" width="24" height="32" class="terminal" rx="10"/>
         <text class="terminal" x="729" y="21">,</text>
         <a xmlns:xlink="http://www.w3.org/1999/xlink" xlink:href="#y" xlink:title="y">
            <rect x="765" y="3" width="26" height="32"/>
            <rect x="763" y="1" width="26" height="32" class="nonterminal"/>
            <text class="nonterminal" x="773" y="21">y</text>
         </a>
         <rect x="503" y="173" width="24" height="32" rx="10"/>
         <rect x="501" y="171" width="24" height="32" class="terminal" rx="10"/>
         <text class="terminal" x="511" y="191">,</text>
         <rect x="567" y="173" width="110" height="32" rx="10"/>
         <rect x="565" y="171" width="110" height="32" class="terminal" rx="10"/>
         <text class="terminal" x="575" y="191">"LEFTDOWN"</text>
         <rect x="567" y="217" width="122" height="32" rx="10"/>
         <rect x="565" y="215" width="122" height="32" class="terminal" rx="10"/>
         <text class="terminal" x="575" y="235">"RIGHTDOWN"</text>
         <rect x="567" y="261" width="132" height="32" rx="10"/>
         <rect x="565" y="259" width="132" height="32" class="terminal" rx="10"/>
         <text class="terminal" x="575" y="279">"MIDDLEDOWN"</text>
         <rect x="567" y="305" width="74" height="32" rx="10"/>
         <rect x="565" y="303" width="74" height="32" class="terminal" rx="10"/>
         <text class="terminal" x="575" y="323">"SHIFT"</text>
         <rect x="567" y="349" width="100" height="32" rx="10"/>
         <rect x="565" y="347" width="100" height="32" class="terminal" rx="10"/>
         <text class="terminal" x="575" y="367">"CONTROL"</text>
         <rect x="759" y="173" width="26" height="32" rx="10"/>
         <rect x="757" y="171" width="26" height="32" class="terminal" rx="10"/>
         <text class="terminal" x="767" y="191">)</text>
         <svg:path xmlns:svg="http://www.w3.org/2000/svg" class="line" d="m17 17 h2 m0 0 h10 m42 0 h10 m0 0 h10 m30 0 h10 m0 0 h10 m132 0 h10 m20 0 h10 m76 0 h10 m0 0 h10 m-126 0 h20 m106 0 h20 m-146 0 q10 0 10 10 m126 0 q0 -10 10 -10 m-136 10 v24 m126 0 v-24 m-126 24 q0 10 10 10 m106 0 q10 0 10 -10 m-116 10 h10 m66 0 h10 m0 0 h20 m-116 -10 v20 m126 0 v-20 m-126 20 v24 m126 0 v-24 m-126 24 q0 10 10 10 m106 0 q10 0 10 -10 m-116 10 h10 m86 0 h10 m20 -88 h10 m24 0 h10 m20 0 h10 m52 0 h10 m0 0 h34 m-126 0 h20 m106 0 h20 m-146 0 q10 0 10 10 m126 0 q0 -10 10 -10 m-136 10 v24 m126 0 v-24 m-126 24 q0 10 10 10 m106 0 q10 0 10 -10 m-116 10 h10 m78 0 h10 m0 0 h8 m-116 -10 v20 m126 0 v-20 m-126 20 v24 m126 0 v-24 m-126 24 q0 10 10 10 m106 0 q10 0 10 -10 m-116 10 h10 m86 0 h10 m20 -88 h10 m24 0 h10 m0 0 h10 m26 0 h10 m0 0 h10 m24 0 h10 m0 0 h10 m26 0 h10 m2 0 l2 0 m2 0 l2 0 m2 0 l2 0 m-352 170 l2 0 m2 0 l2 0 m2 0 l2 0 m22 0 h10 m24 0 h10 m20 0 h10 m110 0 h10 m0 0 h22 m-172 0 h20 m152 0 h20 m-192 0 q10 0 10 10 m172 0 q0 -10 10 -10 m-182 10 v24 m172 0 v-24 m-172 24 q0 10 10 10 m152 0 q10 0 10 -10 m-162 10 h10 m122 0 h10 m0 0 h10 m-162 -10 v20 m172 0 v-20 m-172 20 v24 m172 0 v-24 m-172 24 q0 10 10 10 m152 0 q10 0 10 -10 m-162 10 h10 m132 0 h10 m-162 -10 v20 m172 0 v-20 m-172 20 v24 m172 0 v-24 m-172 24 q0 10 10 10 m152 0 q10 0 10 -10 m-162 10 h10 m74 0 h10 m0 0 h58 m-162 -10 v20 m172 0 v-20 m-172 20 v24 m172 0 v-24 m-172 24 q0 10 10 10 m152 0 q10 0 10 -10 m-162 10 h10 m100 0 h10 m0 0 h32 m-236 -176 l20 0 m-1 0 q-9 0 -9 -10 l0 -12 q0 -10 10 -10 m236 32 l20 0 m-20 0 q10 0 10 -10 l0 -12 q0 -10 -10 -10 m-236 0 h10 m0 0 h226 m20 32 h10 m26 0 h10 m3 0 h-3"/>
         <polygon points="803 187 811 183 811 191"/>
         <polygon points="803 187 795 183 795 191"/>
      </svg>
