      <svg xmlns="http://www.w3.org/2000/svg" width="558" height="52">
         <defs>
            <style type="text/css">
               @namespace "http://www.w3.org/2000/svg";
               .line                 {fill: none; stroke: #1F1F1F;}
               .bold-line            {stroke: #0A0A0A; shape-rendering: crispEdges; stroke-width:
               2; }
               .thin-line            {stroke: #0F0F0F; shape-rendering: crispEdges}
               .filled               {fill: #1F1F1F; stroke: none;}
               text.terminal         {font-family: Verdana, Sans-serif;
               font-size: 12px;
               fill: #0A0A0A;
               font-weight: bold;
               }
               text.nonterminal      {font-family: Verdana, Sans-serif;
               font-size: 12px;
               fill: #0D0D0D;
               }
               text.regexp           {font-family: Verdana, Sans-serif;
               font-size: 12px;
               fill: #0F0F0F;
               }
               rect, circle, polygon {fill: #1F1F1F; stroke: #1F1F1F;}
               rect.terminal         {fill: #CCCCCC; stroke: #1F1F1F;}
               rect.nonterminal      {fill: #E3E3E3; stroke: #1F1F1F;}
               rect.text             {fill: none; stroke: none;}    
               polygon.regexp        {fill: #EFEFEF; stroke: #1F1F1F;}
               
            </style>
         </defs>
         <polygon points="9 17 1 13 1 21"/>
         <polygon points="17 17 9 13 9 21"/>
         <a xmlns:xlink="http://www.w3.org/1999/xlink" xlink:href="#win" xlink:title="win">
            <rect x="31" y="3" width="42" height="32"/>
            <rect x="29" y="1" width="42" height="32" class="nonterminal"/>
            <text class="nonterminal" x="39" y="21">win</text>
         </a>
         <rect x="93" y="3" width="30" height="32" rx="10"/>
         <rect x="91" y="1" width="30" height="32" class="terminal" rx="10"/>
         <text class="terminal" x="101" y="21">~</text>
         <rect x="143" y="3" width="100" height="32" rx="10"/>
         <rect x="141" y="1" width="100" height="32" class="terminal" rx="10"/>
         <text class="terminal" x="151" y="21">sendKeyUp(</text>
         <a xmlns:xlink="http://www.w3.org/1999/xlink" xlink:href="#keyName" xlink:title="keyName">
            <rect x="263" y="3" width="78" height="32"/>
            <rect x="261" y="1" width="78" height="32" class="nonterminal"/>
            <text class="nonterminal" x="271" y="21">keyName</text>
         </a>
         <rect x="381" y="3" width="24" height="32" rx="10"/>
         <rect x="379" y="1" width="24" height="32" class="terminal" rx="10"/>
         <text class="terminal" x="389" y="21">,</text>
         <a xmlns:xlink="http://www.w3.org/1999/xlink" xlink:href="#ext" xlink:title="ext">
            <rect x="425" y="3" width="40" height="32"/>
            <rect x="423" y="1" width="40" height="32" class="nonterminal"/>
            <text class="nonterminal" x="433" y="21">ext</text>
         </a>
         <rect x="505" y="3" width="26" height="32" rx="10"/>
         <rect x="503" y="1" width="26" height="32" class="terminal" rx="10"/>
         <text class="terminal" x="513" y="21">)</text>
         <svg:path xmlns:svg="http://www.w3.org/2000/svg" class="line" d="m17 17 h2 m0 0 h10 m42 0 h10 m0 0 h10 m30 0 h10 m0 0 h10 m100 0 h10 m0 0 h10 m78 0 h10 m20 0 h10 m24 0 h10 m0 0 h10 m40 0 h10 m-124 0 h20 m104 0 h20 m-144 0 q10 0 10 10 m124 0 q0 -10 10 -10 m-134 10 v14 m124 0 v-14 m-124 14 q0 10 10 10 m104 0 q10 0 10 -10 m-114 10 h10 m0 0 h94 m20 -34 h10 m26 0 h10 m3 0 h-3"/>
         <polygon points="549 17 557 13 557 21"/>
         <polygon points="549 17 541 13 541 21"/>
      </svg>
