      <svg xmlns="http://www.w3.org/2000/svg" width="686" height="36">
         <defs>
            <style type="text/css">
               @namespace "http://www.w3.org/2000/svg";
               .line                 {fill: none; stroke: #1F1F1F;}
               .bold-line            {stroke: #0A0A0A; shape-rendering: crispEdges; stroke-width:
               2; }
               .thin-line            {stroke: #0F0F0F; shape-rendering: crispEdges}
               .filled               {fill: #1F1F1F; stroke: none;}
               text.terminal         {font-family: Verdana, Sans-serif;
               font-size: 12px;
               fill: #0A0A0A;
               font-weight: bold;
               }
               text.nonterminal      {font-family: Verdana, Sans-serif;
               font-size: 12px;
               fill: #0D0D0D;
               }
               text.regexp           {font-family: Verdana, Sans-serif;
               font-size: 12px;
               fill: #0F0F0F;
               }
               rect, circle, polygon {fill: #1F1F1F; stroke: #1F1F1F;}
               rect.terminal         {fill: #CCCCCC; stroke: #1F1F1F;}
               rect.nonterminal      {fill: #E3E3E3; stroke: #1F1F1F;}
               rect.text             {fill: none; stroke: none;}    
               polygon.regexp        {fill: #EFEFEF; stroke: #1F1F1F;}
               
            </style>
         </defs>
         <polygon points="9 17 1 13 1 21"/>
         <polygon points="17 17 9 13 9 21"/>
         <a xmlns:xlink="http://www.w3.org/1999/xlink" xlink:href="#win" xlink:title="win">
            <rect x="31" y="3" width="42" height="32"/>
            <rect x="29" y="1" width="42" height="32" class="nonterminal"/>
            <text class="nonterminal" x="39" y="21">win</text>
         </a>
         <rect x="93" y="3" width="30" height="32" rx="10"/>
         <rect x="91" y="1" width="30" height="32" class="terminal" rx="10"/>
         <text class="terminal" x="101" y="21">~</text>
         <rect x="143" y="3" width="114" height="32" rx="10"/>
         <rect x="141" y="1" width="114" height="32" class="terminal" rx="10"/>
         <text class="terminal" x="151" y="21">sendMessage(</text>
         <a xmlns:xlink="http://www.w3.org/1999/xlink" xlink:href="#message" xlink:title="message">
            <rect x="277" y="3" width="76" height="32"/>
            <rect x="275" y="1" width="76" height="32" class="nonterminal"/>
            <text class="nonterminal" x="285" y="21">message</text>
         </a>
         <rect x="373" y="3" width="24" height="32" rx="10"/>
         <rect x="371" y="1" width="24" height="32" class="terminal" rx="10"/>
         <text class="terminal" x="381" y="21">,</text>
         <a xmlns:xlink="http://www.w3.org/1999/xlink" xlink:href="#wParam" xlink:title="wParam">
            <rect x="417" y="3" width="70" height="32"/>
            <rect x="415" y="1" width="70" height="32" class="nonterminal"/>
            <text class="nonterminal" x="425" y="21">wParam</text>
         </a>
         <rect x="507" y="3" width="24" height="32" rx="10"/>
         <rect x="505" y="1" width="24" height="32" class="terminal" rx="10"/>
         <text class="terminal" x="515" y="21">,</text>
         <a xmlns:xlink="http://www.w3.org/1999/xlink" xlink:href="#lParam" xlink:title="lParam">
            <rect x="551" y="3" width="62" height="32"/>
            <rect x="549" y="1" width="62" height="32" class="nonterminal"/>
            <text class="nonterminal" x="559" y="21">lParam</text>
         </a>
         <rect x="633" y="3" width="26" height="32" rx="10"/>
         <rect x="631" y="1" width="26" height="32" class="terminal" rx="10"/>
         <text class="terminal" x="641" y="21">)</text>
         <svg:path xmlns:svg="http://www.w3.org/2000/svg" class="line" d="m17 17 h2 m0 0 h10 m42 0 h10 m0 0 h10 m30 0 h10 m0 0 h10 m114 0 h10 m0 0 h10 m76 0 h10 m0 0 h10 m24 0 h10 m0 0 h10 m70 0 h10 m0 0 h10 m24 0 h10 m0 0 h10 m62 0 h10 m0 0 h10 m26 0 h10 m3 0 h-3"/>
         <polygon points="677 17 685 13 685 21"/>
         <polygon points="677 17 669 13 669 21"/>
      </svg>
