      <svg xmlns="http://www.w3.org/2000/svg" width="430" height="608">
         <defs>
            <style type="text/css">
               @namespace "http://www.w3.org/2000/svg";
               .line                 {fill: none; stroke: #1F1F1F;}
               .bold-line            {stroke: #0A0A0A; shape-rendering: crispEdges; stroke-width:
               2; }
               .thin-line            {stroke: #0F0F0F; shape-rendering: crispEdges}
               .filled               {fill: #1F1F1F; stroke: none;}
               text.terminal         {font-family: Verdana, Sans-serif;
               font-size: 12px;
               fill: #0A0A0A;
               font-weight: bold;
               }
               text.nonterminal      {font-family: Verdana, Sans-serif; font-style: italic;
               font-size: 12px;
               fill: #0D0D0D;
               }
               text.regexp           {font-family: Verdana, Sans-serif;
               font-size: 12px;
               fill: #0F0F0F;
               }
               rect, circle, polygon {fill: #1F1F1F; stroke: #1F1F1F;}
               rect.terminal         {fill: #CCCCCC; stroke: #1F1F1F;}
               rect.nonterminal      {fill: #E3E3E3; stroke: #1F1F1F;}
               rect.text             {fill: none; stroke: none;}    
               polygon.regexp        {fill: #EFEFEF; stroke: #1F1F1F;}
               
            </style>
         </defs>
         <polygon points="9 17 1 13 1 21"/>
         <polygon points="17 17 9 13 9 21"/>
         <rect x="31" y="3" width="146" height="32" rx="10"/>
         <rect x="29" y="1" width="146" height="32" class="terminal" rx="10"/>
         <text class="terminal" x="39" y="21">sendSysCommand(</text>
         <rect x="217" y="3" width="50" height="32" rx="10"/>
         <rect x="215" y="1" width="50" height="32" class="terminal" rx="10"/>
         <text class="terminal" x="225" y="21">SIZE</text>
         <rect x="217" y="47" width="58" height="32" rx="10"/>
         <rect x="215" y="45" width="58" height="32" class="terminal" rx="10"/>
         <text class="terminal" x="225" y="65">MOVE</text>
         <rect x="217" y="91" width="86" height="32" rx="10"/>
         <rect x="215" y="89" width="86" height="32" class="terminal" rx="10"/>
         <text class="terminal" x="225" y="109">MINIMIZE</text>
         <rect x="217" y="135" width="88" height="32" rx="10"/>
         <rect x="215" y="133" width="88" height="32" class="terminal" rx="10"/>
         <text class="terminal" x="225" y="153">MAXIMIZE</text>
         <rect x="217" y="179" width="120" height="32" rx="10"/>
         <rect x="215" y="177" width="120" height="32" class="terminal" rx="10"/>
         <text class="terminal" x="225" y="197">NEXTWINDOW</text>
         <rect x="217" y="223" width="120" height="32" rx="10"/>
         <rect x="215" y="221" width="120" height="32" class="terminal" rx="10"/>
         <text class="terminal" x="225" y="241">PREVWINDOW</text>
         <rect x="217" y="267" width="64" height="32" rx="10"/>
         <rect x="215" y="265" width="64" height="32" class="terminal" rx="10"/>
         <text class="terminal" x="225" y="285">CLOSE</text>
         <rect x="217" y="311" width="82" height="32" rx="10"/>
         <rect x="215" y="309" width="82" height="32" class="terminal" rx="10"/>
         <text class="terminal" x="225" y="329">VSCROLL</text>
         <rect x="217" y="355" width="84" height="32" rx="10"/>
         <rect x="215" y="353" width="84" height="32" class="terminal" rx="10"/>
         <text class="terminal" x="225" y="373">HSCROLL</text>
         <rect x="217" y="399" width="84" height="32" rx="10"/>
         <rect x="215" y="397" width="84" height="32" class="terminal" rx="10"/>
         <text class="terminal" x="225" y="417">ARRANGE</text>
         <rect x="217" y="443" width="82" height="32" rx="10"/>
         <rect x="215" y="441" width="82" height="32" class="terminal" rx="10"/>
         <text class="terminal" x="225" y="461">RESTORE</text>
         <rect x="217" y="487" width="86" height="32" rx="10"/>
         <rect x="215" y="485" width="86" height="32" class="terminal" rx="10"/>
         <text class="terminal" x="225" y="505">TASKLIST</text>
         <rect x="217" y="531" width="108" height="32" rx="10"/>
         <rect x="215" y="529" width="108" height="32" class="terminal" rx="10"/>
         <text class="terminal" x="225" y="549">SCREENSAVE</text>
         <rect x="217" y="575" width="118" height="32" rx="10"/>
         <rect x="215" y="573" width="118" height="32" class="terminal" rx="10"/>
         <text class="terminal" x="225" y="593">CONTEXTHELP</text>
         <rect x="377" y="3" width="26" height="32" rx="10"/>
         <rect x="375" y="1" width="26" height="32" class="terminal" rx="10"/>
         <text class="terminal" x="385" y="21">)</text>
         <svg:path xmlns:svg="http://www.w3.org/2000/svg" class="line" d="m17 17 h2 m0 0 h10 m146 0 h10 m20 0 h10 m50 0 h10 m0 0 h70 m-160 0 h20 m140 0 h20 m-180 0 q10 0 10 10 m160 0 q0 -10 10 -10 m-170 10 v24 m160 0 v-24 m-160 24 q0 10 10 10 m140 0 q10 0 10 -10 m-150 10 h10 m58 0 h10 m0 0 h62 m-150 -10 v20 m160 0 v-20 m-160 20 v24 m160 0 v-24 m-160 24 q0 10 10 10 m140 0 q10 0 10 -10 m-150 10 h10 m86 0 h10 m0 0 h34 m-150 -10 v20 m160 0 v-20 m-160 20 v24 m160 0 v-24 m-160 24 q0 10 10 10 m140 0 q10 0 10 -10 m-150 10 h10 m88 0 h10 m0 0 h32 m-150 -10 v20 m160 0 v-20 m-160 20 v24 m160 0 v-24 m-160 24 q0 10 10 10 m140 0 q10 0 10 -10 m-150 10 h10 m120 0 h10 m-150 -10 v20 m160 0 v-20 m-160 20 v24 m160 0 v-24 m-160 24 q0 10 10 10 m140 0 q10 0 10 -10 m-150 10 h10 m120 0 h10 m-150 -10 v20 m160 0 v-20 m-160 20 v24 m160 0 v-24 m-160 24 q0 10 10 10 m140 0 q10 0 10 -10 m-150 10 h10 m64 0 h10 m0 0 h56 m-150 -10 v20 m160 0 v-20 m-160 20 v24 m160 0 v-24 m-160 24 q0 10 10 10 m140 0 q10 0 10 -10 m-150 10 h10 m82 0 h10 m0 0 h38 m-150 -10 v20 m160 0 v-20 m-160 20 v24 m160 0 v-24 m-160 24 q0 10 10 10 m140 0 q10 0 10 -10 m-150 10 h10 m84 0 h10 m0 0 h36 m-150 -10 v20 m160 0 v-20 m-160 20 v24 m160 0 v-24 m-160 24 q0 10 10 10 m140 0 q10 0 10 -10 m-150 10 h10 m84 0 h10 m0 0 h36 m-150 -10 v20 m160 0 v-20 m-160 20 v24 m160 0 v-24 m-160 24 q0 10 10 10 m140 0 q10 0 10 -10 m-150 10 h10 m82 0 h10 m0 0 h38 m-150 -10 v20 m160 0 v-20 m-160 20 v24 m160 0 v-24 m-160 24 q0 10 10 10 m140 0 q10 0 10 -10 m-150 10 h10 m86 0 h10 m0 0 h34 m-150 -10 v20 m160 0 v-20 m-160 20 v24 m160 0 v-24 m-160 24 q0 10 10 10 m140 0 q10 0 10 -10 m-150 10 h10 m108 0 h10 m0 0 h12 m-150 -10 v20 m160 0 v-20 m-160 20 v24 m160 0 v-24 m-160 24 q0 10 10 10 m140 0 q10 0 10 -10 m-150 10 h10 m118 0 h10 m0 0 h2 m20 -572 h10 m26 0 h10 m3 0 h-3"/>
         <polygon points="421 17 429 13 429 21"/>
         <polygon points="421 17 413 13 413 21"/>
      </svg>
