      <svg xmlns="http://www.w3.org/2000/svg" width="542" height="52">
         <defs>
            <style type="text/css">
               @namespace "http://www.w3.org/2000/svg";
               .line                 {fill: none; stroke: #1F1F1F;}
               .bold-line            {stroke: #0A0A0A; shape-rendering: crispEdges; stroke-width:
               2; }
               .thin-line            {stroke: #0F0F0F; shape-rendering: crispEdges}
               .filled               {fill: #1F1F1F; stroke: none;}
               text.terminal         {font-family: Verdana, Sans-serif;
               font-size: 12px;
               fill: #0A0A0A;
               font-weight: bold;
               }
               text.nonterminal      {font-family: Verdana, Sans-serif;
               font-size: 12px;
               fill: #0D0D0D;
               }
               text.regexp           {font-family: Verdana, Sans-serif;
               font-size: 12px;
               fill: #0F0F0F;
               }
               rect, circle, polygon {fill: #1F1F1F; stroke: #1F1F1F;}
               rect.terminal         {fill: #CCCCCC; stroke: #1F1F1F;}
               rect.nonterminal      {fill: #E3E3E3; stroke: #1F1F1F;}
               rect.text             {fill: none; stroke: none;}    
               polygon.regexp        {fill: #EFEFEF; stroke: #1F1F1F;}
               
            </style>
         </defs>
         <polygon points="9 17 1 13 1 21"/>
         <polygon points="17 17 9 13 9 21"/>
         <a xmlns:xlink="http://www.w3.org/1999/xlink" xlink:href="#win" xlink:title="win">
            <rect x="31" y="3" width="42" height="32"/>
            <rect x="29" y="1" width="42" height="32" class="nonterminal"/>
            <text class="nonterminal" x="39" y="21">win</text>
         </a>
         <rect x="93" y="3" width="30" height="32" rx="10"/>
         <rect x="91" y="1" width="30" height="32" class="terminal" rx="10"/>
         <text class="terminal" x="101" y="21">~</text>
         <rect x="143" y="3" width="88" height="32" rx="10"/>
         <rect x="141" y="1" width="88" height="32" class="terminal" rx="10"/>
         <text class="terminal" x="151" y="21">sendChar(</text>
         <a xmlns:xlink="http://www.w3.org/1999/xlink" xlink:href="#character" xlink:title="character">
            <rect x="251" y="3" width="78" height="32"/>
            <rect x="249" y="1" width="78" height="32" class="nonterminal"/>
            <text class="nonterminal" x="259" y="21">character</text>
         </a>
         <rect x="369" y="3" width="24" height="32" rx="10"/>
         <rect x="367" y="1" width="24" height="32" class="terminal" rx="10"/>
         <text class="terminal" x="377" y="21">,</text>
         <a xmlns:xlink="http://www.w3.org/1999/xlink" xlink:href="#alt" xlink:title="alt">
            <rect x="413" y="3" width="36" height="32"/>
            <rect x="411" y="1" width="36" height="32" class="nonterminal"/>
            <text class="nonterminal" x="421" y="21">alt</text>
         </a>
         <rect x="489" y="3" width="26" height="32" rx="10"/>
         <rect x="487" y="1" width="26" height="32" class="terminal" rx="10"/>
         <text class="terminal" x="497" y="21">)</text>
         <svg:path xmlns:svg="http://www.w3.org/2000/svg" class="line" d="m17 17 h2 m0 0 h10 m42 0 h10 m0 0 h10 m30 0 h10 m0 0 h10 m88 0 h10 m0 0 h10 m78 0 h10 m20 0 h10 m24 0 h10 m0 0 h10 m36 0 h10 m-120 0 h20 m100 0 h20 m-140 0 q10 0 10 10 m120 0 q0 -10 10 -10 m-130 10 v14 m120 0 v-14 m-120 14 q0 10 10 10 m100 0 q10 0 10 -10 m-110 10 h10 m0 0 h90 m20 -34 h10 m26 0 h10 m3 0 h-3"/>
         <polygon points="533 17 541 13 541 21"/>
         <polygon points="533 17 525 13 525 21"/>
      </svg>
