      <svg xmlns="http://www.w3.org/2000/svg" width="556" height="608">
         <defs>
            <style type="text/css">
               @namespace "http://www.w3.org/2000/svg";
               .line                 {fill: none; stroke: #1F1F1F;}
               .bold-line            {stroke: #0A0A0A; shape-rendering: crispEdges; stroke-width:
               2; }
               .thin-line            {stroke: #0F0F0F; shape-rendering: crispEdges}
               .filled               {fill: #1F1F1F; stroke: none;}
               text.terminal         {font-family: Verdana, Sans-serif;
               font-size: 12px;
               fill: #0A0A0A;
               font-weight: bold;
               }
               text.nonterminal      {font-family: Verdana, Sans-serif;
               font-size: 12px;
               fill: #0D0D0D;
               }
               text.regexp           {font-family: Verdana, Sans-serif;
               font-size: 12px;
               fill: #0F0F0F;
               }
               rect, circle, polygon {fill: #1F1F1F; stroke: #1F1F1F;}
               rect.terminal         {fill: #CCCCCC; stroke: #1F1F1F;}
               rect.nonterminal      {fill: #E3E3E3; stroke: #1F1F1F;}
               rect.text             {fill: none; stroke: none;}    
               polygon.regexp        {fill: #EFEFEF; stroke: #1F1F1F;}
               
            </style>
         </defs>
         <polygon points="9 17 1 13 1 21"/>
         <polygon points="17 17 9 13 9 21"/>
         <a xmlns:xlink="http://www.w3.org/1999/xlink" xlink:href="#win" xlink:title="win">
            <rect x="31" y="3" width="42" height="32"/>
            <rect x="29" y="1" width="42" height="32" class="nonterminal"/>
            <text class="nonterminal" x="39" y="21">win</text>
         </a>
         <rect x="93" y="3" width="30" height="32" rx="10"/>
         <rect x="91" y="1" width="30" height="32" class="terminal" rx="10"/>
         <text class="terminal" x="101" y="21">~</text>
         <rect x="143" y="3" width="146" height="32" rx="10"/>
         <rect x="141" y="1" width="146" height="32" class="terminal" rx="10"/>
         <text class="terminal" x="151" y="21">sendSysCommand(</text>
         <rect x="329" y="3" width="64" height="32" rx="10"/>
         <rect x="327" y="1" width="64" height="32" class="terminal" rx="10"/>
         <text class="terminal" x="337" y="21">"SIZE"</text>
         <rect x="329" y="47" width="72" height="32" rx="10"/>
         <rect x="327" y="45" width="72" height="32" class="terminal" rx="10"/>
         <text class="terminal" x="337" y="65">"MOVE"</text>
         <rect x="329" y="91" width="100" height="32" rx="10"/>
         <rect x="327" y="89" width="100" height="32" class="terminal" rx="10"/>
         <text class="terminal" x="337" y="109">"MINIMIZE"</text>
         <rect x="329" y="135" width="102" height="32" rx="10"/>
         <rect x="327" y="133" width="102" height="32" class="terminal" rx="10"/>
         <text class="terminal" x="337" y="153">"MAXIMIZE"</text>
         <rect x="329" y="179" width="134" height="32" rx="10"/>
         <rect x="327" y="177" width="134" height="32" class="terminal" rx="10"/>
         <text class="terminal" x="337" y="197">"NEXTWINDOW"</text>
         <rect x="329" y="223" width="134" height="32" rx="10"/>
         <rect x="327" y="221" width="134" height="32" class="terminal" rx="10"/>
         <text class="terminal" x="337" y="241">"PREVWINDOW"</text>
         <rect x="329" y="267" width="78" height="32" rx="10"/>
         <rect x="327" y="265" width="78" height="32" class="terminal" rx="10"/>
         <text class="terminal" x="337" y="285">"CLOSE"</text>
         <rect x="329" y="311" width="96" height="32" rx="10"/>
         <rect x="327" y="309" width="96" height="32" class="terminal" rx="10"/>
         <text class="terminal" x="337" y="329">"VSCROLL"</text>
         <rect x="329" y="355" width="98" height="32" rx="10"/>
         <rect x="327" y="353" width="98" height="32" class="terminal" rx="10"/>
         <text class="terminal" x="337" y="373">"HSCROLL"</text>
         <rect x="329" y="399" width="98" height="32" rx="10"/>
         <rect x="327" y="397" width="98" height="32" class="terminal" rx="10"/>
         <text class="terminal" x="337" y="417">"ARRANGE"</text>
         <rect x="329" y="443" width="96" height="32" rx="10"/>
         <rect x="327" y="441" width="96" height="32" class="terminal" rx="10"/>
         <text class="terminal" x="337" y="461">"RESTORE"</text>
         <rect x="329" y="487" width="100" height="32" rx="10"/>
         <rect x="327" y="485" width="100" height="32" class="terminal" rx="10"/>
         <text class="terminal" x="337" y="505">"TASKLIST"</text>
         <rect x="329" y="531" width="122" height="32" rx="10"/>
         <rect x="327" y="529" width="122" height="32" class="terminal" rx="10"/>
         <text class="terminal" x="337" y="549">"SCREENSAVE"</text>
         <rect x="329" y="575" width="132" height="32" rx="10"/>
         <rect x="327" y="573" width="132" height="32" class="terminal" rx="10"/>
         <text class="terminal" x="337" y="593">"CONTEXTHELP"</text>
         <rect x="503" y="3" width="26" height="32" rx="10"/>
         <rect x="501" y="1" width="26" height="32" class="terminal" rx="10"/>
         <text class="terminal" x="511" y="21">)</text>
         <svg:path xmlns:svg="http://www.w3.org/2000/svg" class="line" d="m17 17 h2 m0 0 h10 m42 0 h10 m0 0 h10 m30 0 h10 m0 0 h10 m146 0 h10 m20 0 h10 m64 0 h10 m0 0 h70 m-174 0 h20 m154 0 h20 m-194 0 q10 0 10 10 m174 0 q0 -10 10 -10 m-184 10 v24 m174 0 v-24 m-174 24 q0 10 10 10 m154 0 q10 0 10 -10 m-164 10 h10 m72 0 h10 m0 0 h62 m-164 -10 v20 m174 0 v-20 m-174 20 v24 m174 0 v-24 m-174 24 q0 10 10 10 m154 0 q10 0 10 -10 m-164 10 h10 m100 0 h10 m0 0 h34 m-164 -10 v20 m174 0 v-20 m-174 20 v24 m174 0 v-24 m-174 24 q0 10 10 10 m154 0 q10 0 10 -10 m-164 10 h10 m102 0 h10 m0 0 h32 m-164 -10 v20 m174 0 v-20 m-174 20 v24 m174 0 v-24 m-174 24 q0 10 10 10 m154 0 q10 0 10 -10 m-164 10 h10 m134 0 h10 m-164 -10 v20 m174 0 v-20 m-174 20 v24 m174 0 v-24 m-174 24 q0 10 10 10 m154 0 q10 0 10 -10 m-164 10 h10 m134 0 h10 m-164 -10 v20 m174 0 v-20 m-174 20 v24 m174 0 v-24 m-174 24 q0 10 10 10 m154 0 q10 0 10 -10 m-164 10 h10 m78 0 h10 m0 0 h56 m-164 -10 v20 m174 0 v-20 m-174 20 v24 m174 0 v-24 m-174 24 q0 10 10 10 m154 0 q10 0 10 -10 m-164 10 h10 m96 0 h10 m0 0 h38 m-164 -10 v20 m174 0 v-20 m-174 20 v24 m174 0 v-24 m-174 24 q0 10 10 10 m154 0 q10 0 10 -10 m-164 10 h10 m98 0 h10 m0 0 h36 m-164 -10 v20 m174 0 v-20 m-174 20 v24 m174 0 v-24 m-174 24 q0 10 10 10 m154 0 q10 0 10 -10 m-164 10 h10 m98 0 h10 m0 0 h36 m-164 -10 v20 m174 0 v-20 m-174 20 v24 m174 0 v-24 m-174 24 q0 10 10 10 m154 0 q10 0 10 -10 m-164 10 h10 m96 0 h10 m0 0 h38 m-164 -10 v20 m174 0 v-20 m-174 20 v24 m174 0 v-24 m-174 24 q0 10 10 10 m154 0 q10 0 10 -10 m-164 10 h10 m100 0 h10 m0 0 h34 m-164 -10 v20 m174 0 v-20 m-174 20 v24 m174 0 v-24 m-174 24 q0 10 10 10 m154 0 q10 0 10 -10 m-164 10 h10 m122 0 h10 m0 0 h12 m-164 -10 v20 m174 0 v-20 m-174 20 v24 m174 0 v-24 m-174 24 q0 10 10 10 m154 0 q10 0 10 -10 m-164 10 h10 m132 0 h10 m0 0 h2 m20 -572 h10 m26 0 h10 m3 0 h-3"/>
         <polygon points="547 17 555 13 555 21"/>
         <polygon points="547 17 539 13 539 21"/>
      </svg>
