      <svg xmlns="http://www.w3.org/2000/svg" width="836" height="68">
         <defs>
            <style type="text/css">
               @namespace "http://www.w3.org/2000/svg";
               .line                 {fill: none; stroke: #1F1F1F;}
               .bold-line            {stroke: #0A0A0A; shape-rendering: crispEdges; stroke-width:
               2; }
               .thin-line            {stroke: #0F0F0F; shape-rendering: crispEdges}
               .filled               {fill: #1F1F1F; stroke: none;}
               text.terminal         {font-family: Verdana, Sans-serif;
               font-size: 12px;
               fill: #0A0A0A;
               font-weight: bold;
               }
               text.nonterminal      {font-family: Verdana, Sans-serif;
               font-size: 12px;
               fill: #0D0D0D;
               }
               text.regexp           {font-family: Verdana, Sans-serif;
               font-size: 12px;
               fill: #0F0F0F;
               }
               rect, circle, polygon {fill: #1F1F1F; stroke: #1F1F1F;}
               rect.terminal         {fill: #CCCCCC; stroke: #1F1F1F;}
               rect.nonterminal      {fill: #E3E3E3; stroke: #1F1F1F;}
               rect.text             {fill: none; stroke: none;}    
               polygon.regexp        {fill: #EFEFEF; stroke: #1F1F1F;}
               
            </style>
         </defs>
         <polygon points="9 33 1 29 1 37"/>
         <polygon points="17 33 9 29 9 37"/>
         <a xmlns:xlink="http://www.w3.org/1999/xlink" xlink:href="#win" xlink:title="win">
            <rect x="31" y="19" width="42" height="32"/>
            <rect x="29" y="17" width="42" height="32" class="nonterminal"/>
            <text class="nonterminal" x="39" y="37">win</text>
         </a>
         <rect x="93" y="19" width="30" height="32" rx="10"/>
         <rect x="91" y="17" width="30" height="32" class="terminal" rx="10"/>
         <text class="terminal" x="101" y="37">~</text>
         <rect x="143" y="19" width="178" height="32" rx="10"/>
         <rect x="141" y="17" width="178" height="32" class="terminal" rx="10"/>
         <text class="terminal" x="151" y="37">processMenuCommand(</text>
         <a xmlns:xlink="http://www.w3.org/1999/xlink" xlink:href="#menu" xlink:title="menu">
            <rect x="361" y="19" width="54" height="32"/>
            <rect x="359" y="17" width="54" height="32" class="nonterminal"/>
            <text class="nonterminal" x="369" y="37">menu</text>
         </a>
         <rect x="475" y="19" width="24" height="32" rx="10"/>
         <rect x="473" y="17" width="24" height="32" class="terminal" rx="10"/>
         <text class="terminal" x="483" y="37">,</text>
         <a xmlns:xlink="http://www.w3.org/1999/xlink" xlink:href="#submenu" xlink:title="submenu">
            <rect x="519" y="19" width="78" height="32"/>
            <rect x="517" y="17" width="78" height="32" class="nonterminal"/>
            <text class="nonterminal" x="527" y="37">submenu</text>
         </a>
         <rect x="637" y="19" width="24" height="32" rx="10"/>
         <rect x="635" y="17" width="24" height="32" class="terminal" rx="10"/>
         <text class="terminal" x="645" y="37">,</text>
         <a xmlns:xlink="http://www.w3.org/1999/xlink" xlink:href="#menuitem" xlink:title="menuitem">
            <rect x="681" y="19" width="82" height="32"/>
            <rect x="679" y="17" width="82" height="32" class="nonterminal"/>
            <text class="nonterminal" x="689" y="37">menuitem</text>
         </a>
         <rect x="783" y="19" width="26" height="32" rx="10"/>
         <rect x="781" y="17" width="26" height="32" class="terminal" rx="10"/>
         <text class="terminal" x="791" y="37">)</text>
         <svg:path xmlns:svg="http://www.w3.org/2000/svg" class="line" d="m17 33 h2 m0 0 h10 m42 0 h10 m0 0 h10 m30 0 h10 m0 0 h10 m178 0 h10 m20 0 h10 m54 0 h10 m-94 0 h20 m74 0 h20 m-114 0 q10 0 10 10 m94 0 q0 -10 10 -10 m-104 10 v14 m94 0 v-14 m-94 14 q0 10 10 10 m74 0 q10 0 10 -10 m-84 10 h10 m0 0 h64 m40 -34 h10 m24 0 h10 m0 0 h10 m78 0 h10 m-162 0 l20 0 m-1 0 q-9 0 -9 -10 l0 -12 q0 -10 10 -10 m142 32 l20 0 m-20 0 q10 0 10 -10 l0 -12 q0 -10 -10 -10 m-142 0 h10 m0 0 h132 m20 32 h10 m24 0 h10 m0 0 h10 m82 0 h10 m0 0 h10 m26 0 h10 m3 0 h-3"/>
         <polygon points="827 33 835 29 835 37"/>
         <polygon points="827 33 819 29 819 37"/>
      </svg>
