<svg xmlns="http://www.w3.org/2000/svg" width="535" height="289">
         <defs>
            <style type="text/css">
    @namespace "http://www.w3.org/2000/svg";
    .line                 {fill: none; stroke: #1F1F1F;}
    .bold-line            {stroke: #0A0A0A; shape-rendering: crispEdges; stroke-width: 2; }
    .thin-line            {stroke: #0F0F0F; shape-rendering: crispEdges}
    .filled               {fill: #1F1F1F; stroke: none;}
    text.terminal         {font-family: Verdana, Sans-serif;
                            font-size: 12px;
                            fill: #0A0A0A;
                            font-weight: bold;
                          }
    text.nonterminal      {font-family: Verdana, Sans-serif; font-style: italic;
                            font-size: 12px;
                            fill: #0D0D0D;
                            font-weight: normal;
                          }
    text.regexp           {font-family: Verdana, Sans-serif;
                            font-size: 12px;
                            fill: #0F0F0F;
                            font-weight: normal;
                          }
    rect, circle, polygon {fill: #1F1F1F; stroke: #1F1F1F;}
    rect.terminal         {fill: #cccccc; stroke: #1F1F1F;}
    rect.nonterminal      {fill: #E3E3E3; stroke: #1F1F1F;}
    rect.text             {fill: none; stroke: none;}    
    polygon.regexp        {fill: #EFEFEF; stroke: #1F1F1F;}
  </style>
         </defs>
         <polygon points="9 17 1 13 1 21"/>
         <polygon points="17 17 9 13 9 21"/>
         <rect x="31" y="3" width="92" height="32" rx="10"/>
         <rect x="29" y="1" width="92" height="32" class="terminal" rx="10"/>
         <text class="terminal" x="39" y="21">RXQUEUE(</text>
         <rect x="163" y="3" width="78" height="32" rx="10"/>
         <rect x="161" y="1" width="78" height="32" class="terminal" rx="10"/>
         <text class="terminal" x="171" y="21">"Create"</text>
         <rect x="281" y="35" width="24" height="32" rx="10"/>
         <rect x="279" y="33" width="24" height="32" class="terminal" rx="10"/>
         <text class="terminal" x="289" y="53">,</text>
<!--  <a xmlns:xlink="http://www.w3.org/1999/xlink" xlink:href="#queuename" xlink:title="queuename"> -->
            <rect x="325" y="35" width="96" height="32"/>
            <rect x="323" y="33" width="96" height="32" class="nonterminal"/>
            <text class="nonterminal" x="333" y="53">queuename</text><!-- </a> -->
<rect x="163" y="79" width="76" height="32" rx="10"/>
         <rect x="161" y="77" width="76" height="32" class="terminal" rx="10"/>
         <text class="terminal" x="171" y="97">"Delete"</text>
         <rect x="259" y="79" width="24" height="32" rx="10"/>
         <rect x="257" y="77" width="24" height="32" class="terminal" rx="10"/>
         <text class="terminal" x="267" y="97">,</text>
<!--  <a xmlns:xlink="http://www.w3.org/1999/xlink" xlink:href="#queuename" xlink:title="queuename"> -->
            <rect x="303" y="79" width="96" height="32"/>
            <rect x="301" y="77" width="96" height="32" class="nonterminal"/>
            <text class="nonterminal" x="311" y="97">queuename</text><!-- </a> -->
<rect x="163" y="123" width="66" height="32" rx="10"/>
         <rect x="161" y="121" width="66" height="32" class="terminal" rx="10"/>
         <text class="terminal" x="171" y="141">"Exist"</text>
         <rect x="249" y="123" width="24" height="32" rx="10"/>
         <rect x="247" y="121" width="24" height="32" class="terminal" rx="10"/>
         <text class="terminal" x="257" y="141">,</text>
<!--  <a xmlns:xlink="http://www.w3.org/1999/xlink" xlink:href="#queuename" xlink:title="queuename"> -->
            <rect x="293" y="123" width="96" height="32"/>
            <rect x="291" y="121" width="96" height="32" class="nonterminal"/>
            <text class="nonterminal" x="301" y="141">queuename</text><!-- </a> -->
<rect x="163" y="167" width="56" height="32" rx="10"/>
         <rect x="161" y="165" width="56" height="32" class="terminal" rx="10"/>
         <text class="terminal" x="171" y="185">"Get"</text>
         <rect x="163" y="211" width="70" height="32" rx="10"/>
         <rect x="161" y="209" width="70" height="32" class="terminal" rx="10"/>
         <text class="terminal" x="171" y="229">"Open"</text>
         <rect x="253" y="211" width="24" height="32" rx="10"/>
         <rect x="251" y="209" width="24" height="32" class="terminal" rx="10"/>
         <text class="terminal" x="261" y="229">,</text>
<!--  <a xmlns:xlink="http://www.w3.org/1999/xlink" xlink:href="#queuename" xlink:title="queuename"> -->
            <rect x="297" y="211" width="96" height="32"/>
            <rect x="295" y="209" width="96" height="32" class="nonterminal"/>
            <text class="nonterminal" x="305" y="229">queuename</text><!-- </a> -->
<rect x="163" y="255" width="56" height="32" rx="10"/>
         <rect x="161" y="253" width="56" height="32" class="terminal" rx="10"/>
         <text class="terminal" x="171" y="273">"Set"</text>
         <rect x="239" y="255" width="24" height="32" rx="10"/>
         <rect x="237" y="253" width="24" height="32" class="terminal" rx="10"/>
         <text class="terminal" x="247" y="273">,</text>
<!--  <a xmlns:xlink="http://www.w3.org/1999/xlink" xlink:href="#newqueuename" xlink:title="newqueuename"> -->
            <rect x="283" y="255" width="120" height="32"/>
            <rect x="281" y="253" width="120" height="32" class="nonterminal"/>
            <text class="nonterminal" x="291" y="273">newqueuename</text><!-- </a> -->
<rect x="481" y="3" width="26" height="32" rx="10"/>
         <rect x="479" y="1" width="26" height="32" class="terminal" rx="10"/>
         <text class="terminal" x="489" y="21">)</text>
         <svg:path xmlns:svg="http://www.w3.org/2000/svg" class="line" d="m17 17 h2 m0 0 h10 m92 0 h10 m20 0 h10 m78 0 h10 m20 0 h10 m0 0 h150 m-180 0 h20 m160 0 h20 m-200 0 q10 0 10 10 m180 0 q0 -10 10 -10 m-190 10 v12 m180 0 v-12 m-180 12 q0 10 10 10 m160 0 q10 0 10 -10 m-170 10 h10 m24 0 h10 m0 0 h10 m96 0 h10 m-298 -32 h20 m298 0 h20 m-338 0 q10 0 10 10 m318 0 q0 -10 10 -10 m-328 10 v56 m318 0 v-56 m-318 56 q0 10 10 10 m298 0 q10 0 10 -10 m-308 10 h10 m76 0 h10 m0 0 h10 m24 0 h10 m0 0 h10 m96 0 h10 m0 0 h42 m-308 -10 v20 m318 0 v-20 m-318 20 v24 m318 0 v-24 m-318 24 q0 10 10 10 m298 0 q10 0 10 -10 m-308 10 h10 m66 0 h10 m0 0 h10 m24 0 h10 m0 0 h10 m96 0 h10 m0 0 h52 m-308 -10 v20 m318 0 v-20 m-318 20 v24 m318 0 v-24 m-318 24 q0 10 10 10 m298 0 q10 0 10 -10 m-308 10 h10 m56 0 h10 m0 0 h222 m-308 -10 v20 m318 0 v-20 m-318 20 v24 m318 0 v-24 m-318 24 q0 10 10 10 m298 0 q10 0 10 -10 m-308 10 h10 m70 0 h10 m0 0 h10 m24 0 h10 m0 0 h10 m96 0 h10 m0 0 h48 m-308 -10 v20 m318 0 v-20 m-318 20 v24 m318 0 v-24 m-318 24 q0 10 10 10 m298 0 q10 0 10 -10 m-308 10 h10 m56 0 h10 m0 0 h10 m24 0 h10 m0 0 h10 m120 0 h10 m0 0 h38 m20 -252 h10 m26 0 h10 m3 0 h-3"/>
         <polygon points="525 17 533 13 533 21"/>
         <polygon points="525 17 517 13 517 21"/></svg>
