<svg xmlns="http://www.w3.org/2000/svg" width="387" height="37">
         <defs>
            <style type="text/css">
    @namespace "http://www.w3.org/2000/svg";
    .line                 {fill: none; stroke: #1F1F1F;}
    .bold-line            {stroke: #0A0A0A; shape-rendering: crispEdges; stroke-width: 2; }
    .thin-line            {stroke: #0F0F0F; shape-rendering: crispEdges}
    .filled               {fill: #1F1F1F; stroke: none;}
    text.terminal         {font-family: Verdana, Sans-serif;
                            font-size: 12px;
                            fill: #0A0A0A;
                            font-weight: bold;
                          }
    text.nonterminal      {font-family: Verdana, Sans-serif; font-style: italic;
                            font-size: 12px;
                            fill: #0D0D0D;
                            font-weight: normal;
                          }
    text.regexp           {font-family: Verdana, Sans-serif;
                            font-size: 12px;
                            fill: #0F0F0F;
                            font-weight: normal;
                          }
    rect, circle, polygon {fill: #1F1F1F; stroke: #1F1F1F;}
    rect.terminal         {fill: #cccccc; stroke: #1F1F1F;}
    rect.nonterminal      {fill: #E3E3E3; stroke: #1F1F1F;}
    rect.text             {fill: none; stroke: none;}    
    polygon.regexp        {fill: #EFEFEF; stroke: #1F1F1F;}
  </style>
         </defs>
         <polygon points="9 17 1 13 1 21"/>
         <polygon points="17 17 9 13 9 21"/>
         <rect x="31" y="3" width="114" height="32" rx="10"/>
         <rect x="29" y="1" width="114" height="32" class="terminal" rx="10"/>
         <text class="terminal" x="39" y="21">WORDINDEX(</text>
<!--  <a xmlns:xlink="http://www.w3.org/1999/xlink" xlink:href="#string" xlink:title="string"> -->
            <rect x="165" y="3" width="56" height="32"/>
            <rect x="163" y="1" width="56" height="32" class="nonterminal"/>
            <text class="nonterminal" x="173" y="21">string</text><!-- </a> -->
<rect x="241" y="3" width="24" height="32" rx="10"/>
         <rect x="239" y="1" width="24" height="32" class="terminal" rx="10"/>
         <text class="terminal" x="249" y="21">,</text>
<!--  <a xmlns:xlink="http://www.w3.org/1999/xlink" xlink:href="#n" xlink:title="n"> -->
            <rect x="285" y="3" width="28" height="32"/>
            <rect x="283" y="1" width="28" height="32" class="nonterminal"/>
            <text class="nonterminal" x="293" y="21">n</text><!-- </a> -->
<rect x="333" y="3" width="26" height="32" rx="10"/>
         <rect x="331" y="1" width="26" height="32" class="terminal" rx="10"/>
         <text class="terminal" x="341" y="21">)</text>
         <svg:path xmlns:svg="http://www.w3.org/2000/svg" class="line" d="m17 17 h2 m0 0 h10 m114 0 h10 m0 0 h10 m56 0 h10 m0 0 h10 m24 0 h10 m0 0 h10 m28 0 h10 m0 0 h10 m26 0 h10 m3 0 h-3"/>
         <polygon points="377 17 385 13 385 21"/>
         <polygon points="377 17 369 13 369 21"/></svg>
