      <svg xmlns="http://www.w3.org/2000/svg" width="394" height="36">
         <defs>
            <style type="text/css">
               @namespace "http://www.w3.org/2000/svg";
               .line                 {fill: none; stroke: #1F1F1F;}
               .bold-line            {stroke: #0A0A0A; shape-rendering: crispEdges; stroke-width:
               2; }
               .thin-line            {stroke: #0F0F0F; shape-rendering: crispEdges}
               .filled               {fill: #1F1F1F; stroke: none;}
               text.terminal         {font-family: Verdana, Sans-serif;
               font-size: 12px;
               fill: #0A0A0A;
               font-weight: bold;
               }
               text.nonterminal      {font-family: Verdana, Sans-serif;
               font-size: 12px;
               fill: #0D0D0D;
               }
               text.regexp           {font-family: Verdana, Sans-serif;
               font-size: 12px;
               fill: #0F0F0F;
               }
               rect, circle, polygon {fill: #1F1F1F; stroke: #1F1F1F;}
               rect.terminal         {fill: #CCCCCC; stroke: #1F1F1F;}
               rect.nonterminal      {fill: #E3E3E3; stroke: #1F1F1F;}
               rect.text             {fill: none; stroke: none;}    
               polygon.regexp        {fill: #EFEFEF; stroke: #1F1F1F;}
               
            </style>
         </defs>
         <polygon points="9 17 1 13 1 21"/>
         <polygon points="17 17 9 13 9 21"/>
         <a xmlns:xlink="http://www.w3.org/1999/xlink" xlink:href="#mo" xlink:title="mo">
            <rect x="31" y="3" width="38" height="32"/>
            <rect x="29" y="1" width="38" height="32" class="nonterminal"/>
            <text class="nonterminal" x="39" y="21">mo</text>
         </a>
         <rect x="89" y="3" width="30" height="32" rx="10"/>
         <rect x="87" y="1" width="30" height="32" class="terminal" rx="10"/>
         <text class="terminal" x="97" y="21">~</text>
         <rect x="139" y="3" width="112" height="32" rx="10"/>
         <rect x="137" y="1" width="112" height="32" class="terminal" rx="10"/>
         <text class="terminal" x="147" y="21">findSubmenu(</text>
         <a xmlns:xlink="http://www.w3.org/1999/xlink" xlink:href="#label" xlink:title="label">
            <rect x="271" y="3" width="50" height="32"/>
            <rect x="269" y="1" width="50" height="32" class="nonterminal"/>
            <text class="nonterminal" x="279" y="21">label</text>
         </a>
         <rect x="341" y="3" width="26" height="32" rx="10"/>
         <rect x="339" y="1" width="26" height="32" class="terminal" rx="10"/>
         <text class="terminal" x="349" y="21">)</text>
         <svg:path xmlns:svg="http://www.w3.org/2000/svg" class="line" d="m17 17 h2 m0 0 h10 m38 0 h10 m0 0 h10 m30 0 h10 m0 0 h10 m112 0 h10 m0 0 h10 m50 0 h10 m0 0 h10 m26 0 h10 m3 0 h-3"/>
         <polygon points="385 17 393 13 393 21"/>
         <polygon points="385 17 377 13 377 21"/>
      </svg>
