      <svg xmlns="http://www.w3.org/2000/svg" width="638" height="52">
         <defs>
            <style type="text/css">
               @namespace "http://www.w3.org/2000/svg";
               .line                 {fill: none; stroke: #1F1F1F;}
               .bold-line            {stroke: #0A0A0A; shape-rendering: crispEdges; stroke-width:
               2; }
               .thin-line            {stroke: #0F0F0F; shape-rendering: crispEdges}
               .filled               {fill: #1F1F1F; stroke: none;}
               text.terminal         {font-family: Verdana, Sans-serif;
               font-size: 12px;
               fill: #0A0A0A;
               font-weight: bold;
               }
               text.nonterminal      {font-family: Verdana, Sans-serif;
               font-size: 12px;
               fill: #0D0D0D;
               }
               text.regexp           {font-family: Verdana, Sans-serif;
               font-size: 12px;
               fill: #0F0F0F;
               }
               rect, circle, polygon {fill: #1F1F1F; stroke: #1F1F1F;}
               rect.terminal         {fill: #CCCCCC; stroke: #1F1F1F;}
               rect.nonterminal      {fill: #E3E3E3; stroke: #1F1F1F;}
               rect.text             {fill: none; stroke: none;}    
               polygon.regexp        {fill: #EFEFEF; stroke: #1F1F1F;}
               
            </style>
         </defs>
         <polygon points="9 17 1 13 1 21"/>
         <polygon points="17 17 9 13 9 21"/>
         <a xmlns:xlink="http://www.w3.org/1999/xlink" xlink:href="#ole" xlink:title="ole">
            <rect x="31" y="3" width="38" height="32"/>
            <rect x="29" y="1" width="38" height="32" class="nonterminal"/>
            <text class="nonterminal" x="39" y="21">ole</text>
         </a>
         <rect x="89" y="3" width="30" height="32" rx="10"/>
         <rect x="87" y="1" width="30" height="32" class="terminal" rx="10"/>
         <text class="terminal" x="97" y="21">~</text>
         <rect x="139" y="3" width="86" height="32" rx="10"/>
         <rect x="137" y="1" width="86" height="32" class="terminal" rx="10"/>
         <text class="terminal" x="147" y="21">unknown(</text>
         <a xmlns:xlink="http://www.w3.org/1999/xlink" xlink:href="#messageName" xlink:title="messageName">
            <rect x="245" y="3" width="112" height="32"/>
            <rect x="243" y="1" width="112" height="32" class="nonterminal"/>
            <text class="nonterminal" x="253" y="21">messageName</text>
         </a>
         <rect x="397" y="3" width="24" height="32" rx="10"/>
         <rect x="395" y="1" width="24" height="32" class="terminal" rx="10"/>
         <text class="terminal" x="405" y="21">,</text>
         <a xmlns:xlink="http://www.w3.org/1999/xlink" xlink:href="#messageArgs" xlink:title="messageArgs">
            <rect x="441" y="3" width="104" height="32"/>
            <rect x="439" y="1" width="104" height="32" class="nonterminal"/>
            <text class="nonterminal" x="449" y="21">messageArgs</text>
         </a>
         <rect x="585" y="3" width="26" height="32" rx="10"/>
         <rect x="583" y="1" width="26" height="32" class="terminal" rx="10"/>
         <text class="terminal" x="593" y="21">)</text>
         <svg:path xmlns:svg="http://www.w3.org/2000/svg" class="line" d="m17 17 h2 m0 0 h10 m38 0 h10 m0 0 h10 m30 0 h10 m0 0 h10 m86 0 h10 m0 0 h10 m112 0 h10 m20 0 h10 m24 0 h10 m0 0 h10 m104 0 h10 m-188 0 h20 m168 0 h20 m-208 0 q10 0 10 10 m188 0 q0 -10 10 -10 m-198 10 v14 m188 0 v-14 m-188 14 q0 10 10 10 m168 0 q10 0 10 -10 m-178 10 h10 m0 0 h158 m20 -34 h10 m26 0 h10 m3 0 h-3"/>
         <polygon points="629 17 637 13 637 21"/>
         <polygon points="629 17 621 13 621 21"/>
      </svg>
