      <svg xmlns="http://www.w3.org/2000/svg" width="774" height="52">
         <defs>
            <style type="text/css">
               @namespace "http://www.w3.org/2000/svg";
               .line                 {fill: none; stroke: #1F1F1F;}
               .bold-line            {stroke: #0A0A0A; shape-rendering: crispEdges; stroke-width:
               2; }
               .thin-line            {stroke: #0F0F0F; shape-rendering: crispEdges}
               .filled               {fill: #1F1F1F; stroke: none;}
               text.terminal         {font-family: Verdana, Sans-serif;
               font-size: 12px;
               fill: #0A0A0A;
               font-weight: bold;
               }
               text.nonterminal      {font-family: Verdana, Sans-serif;
               font-size: 12px;
               fill: #0D0D0D;
               }
               text.regexp           {font-family: Verdana, Sans-serif;
               font-size: 12px;
               fill: #0F0F0F;
               }
               rect, circle, polygon {fill: #1F1F1F; stroke: #1F1F1F;}
               rect.terminal         {fill: #CCCCCC; stroke: #1F1F1F;}
               rect.nonterminal      {fill: #E3E3E3; stroke: #1F1F1F;}
               rect.text             {fill: none; stroke: none;}    
               polygon.regexp        {fill: #EFEFEF; stroke: #1F1F1F;}
               
            </style>
         </defs>
         <polygon points="9 17 1 13 1 21"/>
         <polygon points="17 17 9 13 9 21"/>
         <a xmlns:xlink="http://www.w3.org/1999/xlink" xlink:href="#myftpobj" xlink:title="myftpobj">
            <rect x="31" y="3" width="74" height="32"/>
            <rect x="29" y="1" width="74" height="32" class="nonterminal"/>
            <text class="nonterminal" x="39" y="21">myftpobj</text>
         </a>
         <rect x="125" y="3" width="30" height="32" rx="10"/>
         <rect x="123" y="1" width="30" height="32" class="terminal" rx="10"/>
         <text class="terminal" x="133" y="21">~</text>
         <rect x="175" y="3" width="66" height="32" rx="10"/>
         <rect x="173" y="1" width="66" height="32" class="terminal" rx="10"/>
         <text class="terminal" x="183" y="21">ftpPut(</text>
         <a xmlns:xlink="http://www.w3.org/1999/xlink" xlink:href="#localfilename" xlink:title="localfilename">
            <rect x="261" y="3" width="100" height="32"/>
            <rect x="259" y="1" width="100" height="32" class="nonterminal"/>
            <text class="nonterminal" x="269" y="21">localfilename</text>
         </a>
         <rect x="381" y="3" width="24" height="32" rx="10"/>
         <rect x="379" y="1" width="24" height="32" class="terminal" rx="10"/>
         <text class="terminal" x="389" y="21">,</text>
         <a xmlns:xlink="http://www.w3.org/1999/xlink" xlink:href="#remotefilename" xlink:title="remotefilename">
            <rect x="425" y="3" width="118" height="32"/>
            <rect x="423" y="1" width="118" height="32" class="nonterminal"/>
            <text class="nonterminal" x="433" y="21">remotefilename</text>
         </a>
         <rect x="583" y="3" width="24" height="32" rx="10"/>
         <rect x="581" y="1" width="24" height="32" class="terminal" rx="10"/>
         <text class="terminal" x="591" y="21">,</text>
         <a xmlns:xlink="http://www.w3.org/1999/xlink" xlink:href="#mode" xlink:title="mode">
            <rect x="627" y="3" width="54" height="32"/>
            <rect x="625" y="1" width="54" height="32" class="nonterminal"/>
            <text class="nonterminal" x="635" y="21">mode</text>
         </a>
         <rect x="721" y="3" width="26" height="32" rx="10"/>
         <rect x="719" y="1" width="26" height="32" class="terminal" rx="10"/>
         <text class="terminal" x="729" y="21">)</text>
         <svg:path xmlns:svg="http://www.w3.org/2000/svg" class="line" d="m17 17 h2 m0 0 h10 m74 0 h10 m0 0 h10 m30 0 h10 m0 0 h10 m66 0 h10 m0 0 h10 m100 0 h10 m0 0 h10 m24 0 h10 m0 0 h10 m118 0 h10 m20 0 h10 m24 0 h10 m0 0 h10 m54 0 h10 m-138 0 h20 m118 0 h20 m-158 0 q10 0 10 10 m138 0 q0 -10 10 -10 m-148 10 v14 m138 0 v-14 m-138 14 q0 10 10 10 m118 0 q10 0 10 -10 m-128 10 h10 m0 0 h108 m20 -34 h10 m26 0 h10 m3 0 h-3"/>
         <polygon points="765 17 773 13 773 21"/>
         <polygon points="765 17 757 13 757 21"/>
      </svg>
