      <svg xmlns="http://www.w3.org/2000/svg" width="396" height="36">
         <defs>
            <style type="text/css">
               @namespace "http://www.w3.org/2000/svg";
               .line                 {fill: none; stroke: #1F1F1F;}
               .bold-line            {stroke: #0A0A0A; shape-rendering: crispEdges; stroke-width:
               2; }
               .thin-line            {stroke: #0F0F0F; shape-rendering: crispEdges}
               .filled               {fill: #1F1F1F; stroke: none;}
               text.terminal         {font-family: Verdana, Sans-serif;
               font-size: 12px;
               fill: #0A0A0A;
               font-weight: bold;
               }
               text.nonterminal      {font-family: Verdana, Sans-serif;
               font-size: 12px;
               fill: #0D0D0D;
               }
               text.regexp           {font-family: Verdana, Sans-serif;
               font-size: 12px;
               fill: #0F0F0F;
               }
               rect, circle, polygon {fill: #1F1F1F; stroke: #1F1F1F;}
               rect.terminal         {fill: #CCCCCC; stroke: #1F1F1F;}
               rect.nonterminal      {fill: #E3E3E3; stroke: #1F1F1F;}
               rect.text             {fill: none; stroke: none;}    
               polygon.regexp        {fill: #EFEFEF; stroke: #1F1F1F;}
               
            </style>
         </defs>
         <polygon points="9 17 1 13 1 21"/>
         <polygon points="17 17 9 13 9 21"/>
         <a xmlns:xlink="http://www.w3.org/1999/xlink" xlink:href="#myftpobj" xlink:title="myftpobj">
            <rect x="31" y="3" width="74" height="32"/>
            <rect x="29" y="1" width="74" height="32" class="nonterminal"/>
            <text class="nonterminal" x="39" y="21">myftpobj</text>
         </a>
         <rect x="125" y="3" width="30" height="32" rx="10"/>
         <rect x="123" y="1" width="30" height="32" class="terminal" rx="10"/>
         <text class="terminal" x="133" y="21">~</text>
         <rect x="175" y="3" width="84" height="32" rx="10"/>
         <rect x="173" y="1" width="84" height="32" class="terminal" rx="10"/>
         <text class="terminal" x="183" y="21">ftpQuote(</text>
         <a xmlns:xlink="http://www.w3.org/1999/xlink" xlink:href="#cmd" xlink:title="cmd">
            <rect x="279" y="3" width="44" height="32"/>
            <rect x="277" y="1" width="44" height="32" class="nonterminal"/>
            <text class="nonterminal" x="287" y="21">cmd</text>
         </a>
         <rect x="343" y="3" width="26" height="32" rx="10"/>
         <rect x="341" y="1" width="26" height="32" class="terminal" rx="10"/>
         <text class="terminal" x="351" y="21">)</text>
         <svg:path xmlns:svg="http://www.w3.org/2000/svg" class="line" d="m17 17 h2 m0 0 h10 m74 0 h10 m0 0 h10 m30 0 h10 m0 0 h10 m84 0 h10 m0 0 h10 m44 0 h10 m0 0 h10 m26 0 h10 m3 0 h-3"/>
         <polygon points="387 17 395 13 395 21"/>
         <polygon points="387 17 379 13 379 21"/>
      </svg>
