      <svg xmlns="http://www.w3.org/2000/svg" width="900" height="68">
         <defs>
            <style type="text/css">
               @namespace "http://www.w3.org/2000/svg";
               .line                 {fill: none; stroke: #1F1F1F;}
               .bold-line            {stroke: #0A0A0A; shape-rendering: crispEdges; stroke-width:
               2; }
               .thin-line            {stroke: #0F0F0F; shape-rendering: crispEdges}
               .filled               {fill: #1F1F1F; stroke: none;}
               text.terminal         {font-family: Verdana, Sans-serif;
               font-size: 12px;
               fill: #0A0A0A;
               font-weight: bold;
               }
               text.nonterminal      {font-family: Verdana, Sans-serif;
               font-size: 12px;
               fill: #0D0D0D;
               }
               text.regexp           {font-family: Verdana, Sans-serif;
               font-size: 12px;
               fill: #0F0F0F;
               }
               rect, circle, polygon {fill: #1F1F1F; stroke: #1F1F1F;}
               rect.terminal         {fill: #CCCCCC; stroke: #1F1F1F;}
               rect.nonterminal      {fill: #E3E3E3; stroke: #1F1F1F;}
               rect.text             {fill: none; stroke: none;}    
               polygon.regexp        {fill: #EFEFEF; stroke: #1F1F1F;}
               
            </style>
         </defs>
         <polygon points="9 17 1 13 1 21"/>
         <polygon points="17 17 9 13 9 21"/>
         <a xmlns:xlink="http://www.w3.org/1999/xlink" xlink:href="#myftpobj" xlink:title="myftpobj">
            <rect x="31" y="3" width="74" height="32"/>
            <rect x="29" y="1" width="74" height="32" class="nonterminal"/>
            <text class="nonterminal" x="39" y="21">myftpobj</text>
         </a>
         <rect x="125" y="3" width="30" height="32" rx="10"/>
         <rect x="123" y="1" width="30" height="32" class="terminal" rx="10"/>
         <text class="terminal" x="133" y="21">~</text>
         <rect x="175" y="3" width="98" height="32" rx="10"/>
         <rect x="173" y="1" width="98" height="32" class="terminal" rx="10"/>
         <text class="terminal" x="183" y="21">ftpSetUser(</text>
         <a xmlns:xlink="http://www.w3.org/1999/xlink" xlink:href="#host" xlink:title="host">
            <rect x="293" y="3" width="48" height="32"/>
            <rect x="291" y="1" width="48" height="32" class="nonterminal"/>
            <text class="nonterminal" x="301" y="21">host</text>
         </a>
         <rect x="361" y="3" width="24" height="32" rx="10"/>
         <rect x="359" y="1" width="24" height="32" class="terminal" rx="10"/>
         <text class="terminal" x="369" y="21">,</text>
         <a xmlns:xlink="http://www.w3.org/1999/xlink" xlink:href="#user" xlink:title="user">
            <rect x="405" y="3" width="48" height="32"/>
            <rect x="403" y="1" width="48" height="32" class="nonterminal"/>
            <text class="nonterminal" x="413" y="21">user</text>
         </a>
         <rect x="493" y="3" width="24" height="32" rx="10"/>
         <rect x="491" y="1" width="24" height="32" class="terminal" rx="10"/>
         <text class="terminal" x="501" y="21">,</text>
         <a xmlns:xlink="http://www.w3.org/1999/xlink" xlink:href="#password" xlink:title="password">
            <rect x="557" y="3" width="82" height="32"/>
            <rect x="555" y="1" width="82" height="32" class="nonterminal"/>
            <text class="nonterminal" x="565" y="21">password</text>
         </a>
         <rect x="699" y="3" width="24" height="32" rx="10"/>
         <rect x="697" y="1" width="24" height="32" class="terminal" rx="10"/>
         <text class="terminal" x="707" y="21">,</text>
         <a xmlns:xlink="http://www.w3.org/1999/xlink" xlink:href="#acct" xlink:title="acct">
            <rect x="743" y="3" width="44" height="32"/>
            <rect x="741" y="1" width="44" height="32" class="nonterminal"/>
            <text class="nonterminal" x="751" y="21">acct</text>
         </a>
         <rect x="847" y="3" width="26" height="32" rx="10"/>
         <rect x="845" y="1" width="26" height="32" class="terminal" rx="10"/>
         <text class="terminal" x="855" y="21">)</text>
         <svg:path xmlns:svg="http://www.w3.org/2000/svg" class="line" d="m17 17 h2 m0 0 h10 m74 0 h10 m0 0 h10 m30 0 h10 m0 0 h10 m98 0 h10 m0 0 h10 m48 0 h10 m0 0 h10 m24 0 h10 m0 0 h10 m48 0 h10 m20 0 h10 m24 0 h10 m20 0 h10 m82 0 h10 m-122 0 h20 m102 0 h20 m-142 0 q10 0 10 10 m122 0 q0 -10 10 -10 m-132 10 v14 m122 0 v-14 m-122 14 q0 10 10 10 m102 0 q10 0 10 -10 m-112 10 h10 m0 0 h92 m40 -34 h10 m24 0 h10 m0 0 h10 m44 0 h10 m-128 0 h20 m108 0 h20 m-148 0 q10 0 10 10 m128 0 q0 -10 10 -10 m-138 10 v14 m128 0 v-14 m-128 14 q0 10 10 10 m108 0 q10 0 10 -10 m-118 10 h10 m0 0 h98 m-334 -34 h20 m334 0 h20 m-374 0 q10 0 10 10 m354 0 q0 -10 10 -10 m-364 10 v30 m354 0 v-30 m-354 30 q0 10 10 10 m334 0 q10 0 10 -10 m-344 10 h10 m0 0 h324 m20 -50 h10 m26 0 h10 m3 0 h-3"/>
         <polygon points="891 17 899 13 899 21"/>
         <polygon points="891 17 883 13 883 21"/>
      </svg>
