      <svg xmlns="http://www.w3.org/2000/svg" width="632" height="68">
         <defs>
            <style type="text/css">
               @namespace "http://www.w3.org/2000/svg";
               .line                 {fill: none; stroke: #1F1F1F;}
               .bold-line            {stroke: #0A0A0A; shape-rendering: crispEdges; stroke-width:
               2; }
               .thin-line            {stroke: #0F0F0F; shape-rendering: crispEdges}
               .filled               {fill: #1F1F1F; stroke: none;}
               text.terminal         {font-family: Verdana, Sans-serif;
               font-size: 12px;
               fill: #0A0A0A;
               font-weight: bold;
               }
               text.nonterminal      {font-family: Verdana, Sans-serif; font-style: italic;
               font-size: 12px;
               fill: #0D0D0D;
               }
               text.regexp           {font-family: Verdana, Sans-serif;
               font-size: 12px;
               fill: #0F0F0F;
               }
               rect, circle, polygon {fill: #1F1F1F; stroke: #1F1F1F;}
               rect.terminal         {fill: #CCCCCC; stroke: #1F1F1F;}
               rect.nonterminal      {fill: #E3E3E3; stroke: #1F1F1F;}
               rect.text             {fill: none; stroke: none;}    
               polygon.regexp        {fill: #EFEFEF; stroke: #1F1F1F;}
               
            </style>
         </defs>
         <polygon points="9 17 1 13 1 21"/>
         <polygon points="17 17 9 13 9 21"/>
         <rect x="31" y="3" width="68" height="32" rx="10"/>
         <rect x="29" y="1" width="68" height="32" class="terminal" rx="10"/>
         <text class="terminal" x="39" y="21">ftpGet(</text>
<!--     <a xmlns:xlink="http://www.w3.org/1999/xlink" xlink:href="#localfilename" xlink:title="localfilename"> -->
            <rect x="119" y="3" width="100" height="32"/>
            <rect x="117" y="1" width="100" height="32" class="nonterminal"/>
            <text class="nonterminal" x="127" y="21">localfilename</text>
<!--     </a> -->
         <rect x="239" y="3" width="24" height="32" rx="10"/>
         <rect x="237" y="1" width="24" height="32" class="terminal" rx="10"/>
         <text class="terminal" x="247" y="21">,</text>
<!--     <a xmlns:xlink="http://www.w3.org/1999/xlink" xlink:href="#remotefilename" xlink:title="remotefilename"> -->
            <rect x="283" y="3" width="118" height="32"/>
            <rect x="281" y="1" width="118" height="32" class="nonterminal"/>
            <text class="nonterminal" x="291" y="21">remotefilename</text>
<!--     </a> -->
         <rect x="441" y="35" width="24" height="32" rx="10"/>
         <rect x="439" y="33" width="24" height="32" class="terminal" rx="10"/>
         <text class="terminal" x="449" y="53">,</text>
<!--     <a xmlns:xlink="http://www.w3.org/1999/xlink" xlink:href="#mode" xlink:title="mode"> -->
            <rect x="485" y="35" width="54" height="32"/>
            <rect x="483" y="33" width="54" height="32" class="nonterminal"/>
            <text class="nonterminal" x="493" y="53">mode</text>
<!--     </a> -->
         <rect x="579" y="3" width="26" height="32" rx="10"/>
         <rect x="577" y="1" width="26" height="32" class="terminal" rx="10"/>
         <text class="terminal" x="587" y="21">)</text>
         <svg:path xmlns:svg="http://www.w3.org/2000/svg" class="line" d="m17 17 h2 m0 0 h10 m68 0 h10 m0 0 h10 m100 0 h10 m0 0 h10 m24 0 h10 m0 0 h10 m118 0 h10 m20 0 h10 m0 0 h108 m-138 0 h20 m118 0 h20 m-158 0 q10 0 10 10 m138 0 q0 -10 10 -10 m-148 10 v12 m138 0 v-12 m-138 12 q0 10 10 10 m118 0 q10 0 10 -10 m-128 10 h10 m24 0 h10 m0 0 h10 m54 0 h10 m20 -32 h10 m26 0 h10 m3 0 h-3"/>
         <polygon points="623 17 631 13 631 21"/>
         <polygon points="623 17 615 13 615 21"/>
      </svg>
