      <svg xmlns="http://www.w3.org/2000/svg" width="492" height="80">
         <defs>
            <style type="text/css">
               @namespace "http://www.w3.org/2000/svg";
               .line                 {fill: none; stroke: #1F1F1F;}
               .bold-line            {stroke: #0A0A0A; shape-rendering: crispEdges; stroke-width:
               2; }
               .thin-line            {stroke: #0F0F0F; shape-rendering: crispEdges}
               .filled               {fill: #1F1F1F; stroke: none;}
               text.terminal         {font-family: Verdana, Sans-serif;
               font-size: 12px;
               fill: #0A0A0A;
               font-weight: bold;
               }
               text.nonterminal      {font-family: Verdana, Sans-serif;
               font-size: 12px;
               fill: #0D0D0D;
               }
               text.regexp           {font-family: Verdana, Sans-serif;
               font-size: 12px;
               fill: #0F0F0F;
               }
               rect, circle, polygon {fill: #1F1F1F; stroke: #1F1F1F;}
               rect.terminal         {fill: #CCCCCC; stroke: #1F1F1F;}
               rect.nonterminal      {fill: #E3E3E3; stroke: #1F1F1F;}
               rect.text             {fill: none; stroke: none;}    
               polygon.regexp        {fill: #EFEFEF; stroke: #1F1F1F;}
               
            </style>
         </defs>
         <polygon points="9 17 1 13 1 21"/>
         <polygon points="17 17 9 13 9 21"/>
         <a xmlns:xlink="http://www.w3.org/1999/xlink" xlink:href="#myftpobj" xlink:title="myftpobj">
            <rect x="31" y="3" width="74" height="32"/>
            <rect x="29" y="1" width="74" height="32" class="nonterminal"/>
            <text class="nonterminal" x="39" y="21">myftpobj</text>
         </a>
         <rect x="125" y="3" width="30" height="32" rx="10"/>
         <rect x="123" y="1" width="30" height="32" class="terminal" rx="10"/>
         <text class="terminal" x="133" y="21">~</text>
         <rect x="175" y="3" width="98" height="32" rx="10"/>
         <rect x="173" y="1" width="98" height="32" class="terminal" rx="10"/>
         <text class="terminal" x="183" y="21">ftpSetType(</text>
         <rect x="313" y="3" width="72" height="32" rx="10"/>
         <rect x="311" y="1" width="72" height="32" class="terminal" rx="10"/>
         <text class="terminal" x="321" y="21">"ASCII"</text>
         <rect x="313" y="47" width="86" height="32" rx="10"/>
         <rect x="311" y="45" width="86" height="32" class="terminal" rx="10"/>
         <text class="terminal" x="321" y="65">"BINARY"</text>
         <rect x="439" y="3" width="26" height="32" rx="10"/>
         <rect x="437" y="1" width="26" height="32" class="terminal" rx="10"/>
         <text class="terminal" x="447" y="21">)</text>
         <svg:path xmlns:svg="http://www.w3.org/2000/svg" class="line" d="m17 17 h2 m0 0 h10 m74 0 h10 m0 0 h10 m30 0 h10 m0 0 h10 m98 0 h10 m20 0 h10 m72 0 h10 m0 0 h14 m-126 0 h20 m106 0 h20 m-146 0 q10 0 10 10 m126 0 q0 -10 10 -10 m-136 10 v24 m126 0 v-24 m-126 24 q0 10 10 10 m106 0 q10 0 10 -10 m-116 10 h10 m86 0 h10 m20 -44 h10 m26 0 h10 m3 0 h-3"/>
         <polygon points="483 17 491 13 491 21"/>
         <polygon points="483 17 475 13 475 21"/>
      </svg>
