<svg xmlns="http://www.w3.org/2000/svg" width="639" height="69">
         <defs>
            <style type="text/css">
    @namespace "http://www.w3.org/2000/svg";
    .line                 {fill: none; stroke: #1F1F1F; stroke-width: 1;}
    .bold-line            {stroke: #0A0A0A; shape-rendering: crispEdges; stroke-width: 2;}
    .thin-line            {stroke: #0F0F0F; shape-rendering: crispEdges}
    .filled               {fill: #1F1F1F; stroke: none;}
    text.terminal         {font-family: Verdana, Sans-serif;
                            font-size: 12px;
                            fill: #0A0A0A;
                            font-weight: bold;
                          }
    text.nonterminal      {font-family: Verdana, Sans-serif; font-style: italic;
                            font-size: 12px;
                            fill: #0D0D0D;
                            font-weight: normal;
                          }
    text.regexp           {font-family: Verdana, Sans-serif;
                            font-size: 12px;
                            fill: #0F0F0F;
                            font-weight: normal;
                          }
    rect, circle, polygon {fill: #1F1F1F; stroke: #1F1F1F;}
    rect.terminal         {fill: #cccccc; stroke: #1F1F1F; stroke-width: 1;}
    rect.nonterminal      {fill: #E3E3E3; stroke: #1F1F1F; stroke-width: 1;}
    rect.text             {fill: none; stroke: none;}
    polygon.regexp        {fill: #EFEFEF; stroke: #1F1F1F; stroke-width: 1;}
  </style>
         </defs>
         <polygon points="9 17 1 13 1 21"/>
         <polygon points="17 17 9 13 9 21"/>
         <rect x="31" y="3" width="84" height="32" rx="10"/>
         <rect x="29" y="1" width="84" height="32" class="terminal" rx="10"/>
         <text class="terminal" x="39" y="21">subclass(</text>
<!--  <a xmlns:xlink="http://www.w3.org/1999/xlink" xlink:href="#classid" xlink:title="classid"> -->
            <rect x="135" y="3" width="62" height="32"/>
            <rect x="133" y="1" width="62" height="32" class="nonterminal"/>
            <text class="nonterminal" x="143" y="21">classid</text><!-- </a> -->
<rect x="217" y="3" width="24" height="32" rx="10"/>
         <rect x="215" y="1" width="24" height="32" class="terminal" rx="10"/>
         <text class="terminal" x="225" y="21">,</text>
<!--  <a xmlns:xlink="http://www.w3.org/1999/xlink" xlink:href="#metaclass" xlink:title="metaclass"> -->
            <rect x="281" y="35" width="84" height="32"/>
            <rect x="279" y="33" width="84" height="32" class="nonterminal"/>
            <text class="nonterminal" x="289" y="53">metaclass</text><!-- </a> -->
<rect x="425" y="35" width="24" height="32" rx="10"/>
         <rect x="423" y="33" width="24" height="32" class="terminal" rx="10"/>
         <text class="terminal" x="433" y="53">,</text>
<!--  <a xmlns:xlink="http://www.w3.org/1999/xlink" xlink:href="#methods" xlink:title="methods"> -->
            <rect x="469" y="35" width="76" height="32"/>
            <rect x="467" y="33" width="76" height="32" class="nonterminal"/>
            <text class="nonterminal" x="477" y="53">methods</text><!-- </a> -->
<rect x="585" y="3" width="26" height="32" rx="10"/>
         <rect x="583" y="1" width="26" height="32" class="terminal" rx="10"/>
         <text class="terminal" x="593" y="21">)</text>
         <svg:path xmlns:svg="http://www.w3.org/2000/svg" class="line" d="m17 17 h2 m0 0 h10 m84 0 h10 m0 0 h10 m62 0 h10 m0 0 h10 m24 0 h10 m20 0 h10 m0 0 h94 m-124 0 h20 m104 0 h20 m-144 0 q10 0 10 10 m124 0 q0 -10 10 -10 m-134 10 v12 m124 0 v-12 m-124 12 q0 10 10 10 m104 0 q10 0 10 -10 m-114 10 h10 m84 0 h10 m40 -32 h10 m0 0 h130 m-160 0 h20 m140 0 h20 m-180 0 q10 0 10 10 m160 0 q0 -10 10 -10 m-170 10 v12 m160 0 v-12 m-160 12 q0 10 10 10 m140 0 q10 0 10 -10 m-150 10 h10 m24 0 h10 m0 0 h10 m76 0 h10 m20 -32 h10 m26 0 h10 m3 0 h-3"/>
         <polygon points="629 17 637 13 637 21"/>
         <polygon points="629 17 621 13 621 21"/></svg>
