<svg xmlns="http://www.w3.org/2000/svg" width="473" height="69">
         <defs>
            <style type="text/css">
    @namespace "http://www.w3.org/2000/svg";
    .line                 {fill: none; stroke: #1F1F1F; stroke-width: 1;}
    .bold-line            {stroke: #0A0A0A; shape-rendering: crispEdges; stroke-width: 2;}
    .thin-line            {stroke: #0F0F0F; shape-rendering: crispEdges}
    .filled               {fill: #1F1F1F; stroke: none;}
    text.terminal         {font-family: Verdana, Sans-serif;
                            font-size: 12px;
                            fill: #0A0A0A;
                            font-weight: bold;
                          }
    text.nonterminal      {font-family: Verdana, Sans-serif; font-style: italic;
                            font-size: 12px;
                            fill: #0D0D0D;
                            font-weight: normal;
                          }
    text.regexp           {font-family: Verdana, Sans-serif;
                            font-size: 12px;
                            fill: #0F0F0F;
                            font-weight: normal;
                          }
    rect, circle, polygon {fill: #1F1F1F; stroke: #1F1F1F;}
    rect.terminal         {fill: #cccccc; stroke: #1F1F1F; stroke-width: 1;}
    rect.nonterminal      {fill: #E3E3E3; stroke: #1F1F1F; stroke-width: 1;}
    rect.text             {fill: none; stroke: none;}
    polygon.regexp        {fill: #EFEFEF; stroke: #1F1F1F; stroke-width: 1;}
  </style>
         </defs>
         <polygon points="9 17 1 13 1 21"/>
         <polygon points="17 17 9 13 9 21"/>
         <rect x="31" y="3" width="140" height="32" rx="10"/>
         <rect x="29" y="1" width="140" height="32" class="terminal" rx="10"/>
         <text class="terminal" x="39" y="21">fromOrdinalDate(</text>
<!--  <a xmlns:xlink="http://www.w3.org/1999/xlink" xlink:href="#date" xlink:title="date"> -->
            <rect x="191" y="3" width="48" height="32"/>
            <rect x="189" y="1" width="48" height="32" class="nonterminal"/>
            <text class="nonterminal" x="199" y="21">date</text><!-- </a> -->
<rect x="279" y="35" width="24" height="32" rx="10"/>
         <rect x="277" y="33" width="24" height="32" class="terminal" rx="10"/>
         <text class="terminal" x="287" y="53">,</text>
<!--  <a xmlns:xlink="http://www.w3.org/1999/xlink" xlink:href="#offset" xlink:title="offset"> -->
            <rect x="323" y="35" width="56" height="32"/>
            <rect x="321" y="33" width="56" height="32" class="nonterminal"/>
            <text class="nonterminal" x="331" y="53">offset</text><!-- </a> -->
<rect x="419" y="3" width="26" height="32" rx="10"/>
         <rect x="417" y="1" width="26" height="32" class="terminal" rx="10"/>
         <text class="terminal" x="427" y="21">)</text>
         <svg:path xmlns:svg="http://www.w3.org/2000/svg" class="line" d="m17 17 h2 m0 0 h10 m140 0 h10 m0 0 h10 m48 0 h10 m20 0 h10 m0 0 h110 m-140 0 h20 m120 0 h20 m-160 0 q10 0 10 10 m140 0 q0 -10 10 -10 m-150 10 v12 m140 0 v-12 m-140 12 q0 10 10 10 m120 0 q10 0 10 -10 m-130 10 h10 m24 0 h10 m0 0 h10 m56 0 h10 m20 -32 h10 m26 0 h10 m3 0 h-3"/>
         <polygon points="463 17 471 13 471 21"/>
         <polygon points="463 17 455 13 455 21"/></svg>
