<svg xmlns="http://www.w3.org/2000/svg" width="307" height="69">
         <defs>
            <style type="text/css">
    @namespace "http://www.w3.org/2000/svg";
    .line                 {fill: none; stroke: #1F1F1F; stroke-width: 1;}
    .bold-line            {stroke: #0A0A0A; shape-rendering: crispEdges; stroke-width: 2;}
    .thin-line            {stroke: #0F0F0F; shape-rendering: crispEdges}
    .filled               {fill: #1F1F1F; stroke: none;}
    text.terminal         {font-family: Verdana, Sans-serif;
                            font-size: 12px;
                            fill: #0A0A0A;
                            font-weight: bold;
                          }
    text.nonterminal      {font-family: Verdana, Sans-serif; font-style: italic;
                            font-size: 12px;
                            fill: #0D0D0D;
                            font-weight: normal;
                          }
    text.regexp           {font-family: Verdana, Sans-serif;
                            font-size: 12px;
                            fill: #0F0F0F;
                            font-weight: normal;
                          }
    rect, circle, polygon {fill: #1F1F1F; stroke: #1F1F1F;}
    rect.terminal         {fill: #cccccc; stroke: #1F1F1F; stroke-width: 1;}
    rect.nonterminal      {fill: #E3E3E3; stroke: #1F1F1F; stroke-width: 1;}
    rect.text             {fill: none; stroke: none;}
    polygon.regexp        {fill: #EFEFEF; stroke: #1F1F1F; stroke-width: 1;}
  </style>
         </defs>
         <polygon points="9 17 1 13 1 21"/>
         <polygon points="17 17 9 13 9 21"/>
         <rect x="31" y="3" width="52" height="32" rx="10"/>
         <rect x="29" y="1" width="52" height="32" class="terminal" rx="10"/>
         <text class="terminal" x="39" y="21">halt(</text>
<!--  <a xmlns:xlink="http://www.w3.org/1999/xlink" xlink:href="#description" xlink:title="description"> -->
            <rect x="123" y="35" width="90" height="32"/>
            <rect x="121" y="33" width="90" height="32" class="nonterminal"/>
            <text class="nonterminal" x="131" y="53">description</text><!-- </a> -->
<rect x="253" y="3" width="26" height="32" rx="10"/>
         <rect x="251" y="1" width="26" height="32" class="terminal" rx="10"/>
         <text class="terminal" x="261" y="21">)</text>
         <svg:path xmlns:svg="http://www.w3.org/2000/svg" class="line" d="m17 17 h2 m0 0 h10 m52 0 h10 m20 0 h10 m0 0 h100 m-130 0 h20 m110 0 h20 m-150 0 q10 0 10 10 m130 0 q0 -10 10 -10 m-140 10 v12 m130 0 v-12 m-130 12 q0 10 10 10 m110 0 q10 0 10 -10 m-120 10 h10 m90 0 h10 m20 -32 h10 m26 0 h10 m3 0 h-3"/>
         <polygon points="297 17 305 13 305 21"/>
         <polygon points="297 17 289 13 289 21"/></svg>
