<svg xmlns="http://www.w3.org/2000/svg" width="551" height="101">
         <defs>
            <style type="text/css">
    @namespace "http://www.w3.org/2000/svg";
    .line                 {fill: none; stroke: #1F1F1F; stroke-width: 1;}
    .bold-line            {stroke: #0A0A0A; shape-rendering: crispEdges; stroke-width: 2;}
    .thin-line            {stroke: #0F0F0F; shape-rendering: crispEdges}
    .filled               {fill: #1F1F1F; stroke: none;}
    text.terminal         {font-family: Verdana, Sans-serif;
                            font-size: 12px;
                            fill: #0A0A0A;
                            font-weight: bold;
                          }
    text.nonterminal      {font-family: Verdana, Sans-serif; font-style: italic;
                            font-size: 12px;
                            fill: #0D0D0D;
                            font-weight: normal;
                          }
    text.regexp           {font-family: Verdana, Sans-serif;
                            font-size: 12px;
                            fill: #0F0F0F;
                            font-weight: normal;
                          }
    rect, circle, polygon {fill: #1F1F1F; stroke: #1F1F1F;}
    rect.terminal         {fill: #cccccc; stroke: #1F1F1F; stroke-width: 1;}
    rect.nonterminal      {fill: #E3E3E3; stroke: #1F1F1F; stroke-width: 1;}
    rect.text             {fill: none; stroke: none;}
    polygon.regexp        {fill: #EFEFEF; stroke: #1F1F1F; stroke-width: 1;}
  </style>
         </defs>
         <polygon points="9 33 1 29 1 37"/>
         <polygon points="17 33 9 29 9 37"/>
         <rect x="31" y="19" width="62" height="32" rx="10"/>
         <rect x="29" y="17" width="62" height="32" class="terminal" rx="10"/>
         <text class="terminal" x="39" y="37">reply(</text>
<!--  <a xmlns:xlink="http://www.w3.org/1999/xlink" xlink:href="#target" xlink:title="target"> -->
            <rect x="133" y="51" width="58" height="32"/>
            <rect x="131" y="49" width="58" height="32" class="nonterminal"/>
            <text class="nonterminal" x="141" y="69">target</text><!-- </a> -->
<rect x="271" y="19" width="24" height="32" rx="10"/>
         <rect x="269" y="17" width="24" height="32" class="terminal" rx="10"/>
         <text class="terminal" x="279" y="37">,</text>
<!--  <a xmlns:xlink="http://www.w3.org/1999/xlink" xlink:href="#argument" xlink:title="argument"> -->
            <rect x="335" y="51" width="82" height="32"/>
            <rect x="333" y="49" width="82" height="32" class="nonterminal"/>
            <text class="nonterminal" x="343" y="69">argument</text><!-- </a> -->
<rect x="497" y="19" width="26" height="32" rx="10"/>
         <rect x="495" y="17" width="26" height="32" class="terminal" rx="10"/>
         <text class="terminal" x="505" y="37">)</text>
         <svg:path xmlns:svg="http://www.w3.org/2000/svg" class="line" d="m17 33 h2 m0 0 h10 m62 0 h10 m20 0 h10 m0 0 h68 m-98 0 h20 m78 0 h20 m-118 0 q10 0 10 10 m98 0 q0 -10 10 -10 m-108 10 v12 m98 0 v-12 m-98 12 q0 10 10 10 m78 0 q10 0 10 -10 m-88 10 h10 m58 0 h10 m60 -32 h10 m24 0 h10 m20 0 h10 m0 0 h92 m-122 0 h20 m102 0 h20 m-142 0 q10 0 10 10 m122 0 q0 -10 10 -10 m-132 10 v12 m122 0 v-12 m-122 12 q0 10 10 10 m102 0 q10 0 10 -10 m-112 10 h10 m82 0 h10 m-186 -32 l20 0 m-1 0 q-9 0 -9 -10 l0 -12 q0 -10 10 -10 m186 32 l20 0 m-20 0 q10 0 10 -10 l0 -12 q0 -10 -10 -10 m-186 0 h10 m0 0 h176 m-226 32 h20 m226 0 h20 m-266 0 q10 0 10 10 m246 0 q0 -10 10 -10 m-256 10 v46 m246 0 v-46 m-246 46 q0 10 10 10 m226 0 q10 0 10 -10 m-236 10 h10 m0 0 h216 m20 -66 h10 m26 0 h10 m3 0 h-3"/>
         <polygon points="541 33 549 29 549 37"/>
         <polygon points="541 33 533 29 533 37"/></svg>
