      <svg xmlns="http://www.w3.org/2000/svg" width="906" height="102">
         <defs>
            <style type="text/css">
               @namespace "http://www.w3.org/2000/svg";
               .line                 {fill: none; stroke: #1F1F1F;}
               .bold-line            {stroke: #0A0A0A; shape-rendering: crispEdges; stroke-width:
               2; }
               .thin-line            {stroke: #0F0F0F; shape-rendering: crispEdges}
               .filled               {fill: #1F1F1F; stroke: none;}
               text.terminal         {font-family: Verdana, Sans-serif;
               font-size: 12px;
               fill: #0A0A0A;
               font-weight: bold;
               }
               text.nonterminal      {font-family: Verdana, Sans-serif;
               font-size: 12px;
               fill: #0D0D0D;
               }
               text.regexp           {font-family: Verdana, Sans-serif;
               font-size: 12px;
               fill: #0F0F0F;
               }
               rect, circle, polygon {fill: #1F1F1F; stroke: #1F1F1F;}
               rect.terminal         {fill: #CCCCCC; stroke: #1F1F1F;}
               rect.nonterminal      {fill: #E3E3E3; stroke: #1F1F1F;}
               rect.text             {fill: none; stroke: none;}    
               polygon.regexp        {fill: #EFEFEF; stroke: #1F1F1F;}
               
            </style>
         </defs>
         <polygon points="9 17 1 13 1 21"/>
         <polygon points="17 17 9 13 9 21"/>
         <a xmlns:xlink="http://www.w3.org/1999/xlink" xlink:href="#pad" xlink:title="pad">
            <rect x="31" y="3" width="44" height="32"/>
            <rect x="29" y="1" width="44" height="32" class="nonterminal"/>
            <text class="nonterminal" x="39" y="21">pad</text>
         </a>
         <rect x="95" y="3" width="30" height="32" rx="10"/>
         <rect x="93" y="1" width="30" height="32" class="terminal" rx="10"/>
         <text class="terminal" x="103" y="21">~</text>
         <rect x="145" y="3" width="82" height="32" rx="10"/>
         <rect x="143" y="1" width="82" height="32" class="terminal" rx="10"/>
         <text class="terminal" x="153" y="21">prefresh(</text>
         <a xmlns:xlink="http://www.w3.org/1999/xlink" xlink:href="#minrow" xlink:title="minrow">
            <rect x="247" y="3" width="66" height="32"/>
            <rect x="245" y="1" width="66" height="32" class="nonterminal"/>
            <text class="nonterminal" x="255" y="21">minrow</text>
         </a>
         <rect x="333" y="3" width="24" height="32" rx="10"/>
         <rect x="331" y="1" width="24" height="32" class="terminal" rx="10"/>
         <text class="terminal" x="341" y="21">,</text>
         <a xmlns:xlink="http://www.w3.org/1999/xlink" xlink:href="#mincol" xlink:title="mincol">
            <rect x="377" y="3" width="58" height="32"/>
            <rect x="375" y="1" width="58" height="32" class="nonterminal"/>
            <text class="nonterminal" x="385" y="21">mincol</text>
         </a>
         <rect x="455" y="3" width="24" height="32" rx="10"/>
         <rect x="453" y="1" width="24" height="32" class="terminal" rx="10"/>
         <text class="terminal" x="463" y="21">,</text>
         <a xmlns:xlink="http://www.w3.org/1999/xlink" xlink:href="#sminwor" xlink:title="sminwor">
            <rect x="499" y="3" width="72" height="32"/>
            <rect x="497" y="1" width="72" height="32" class="nonterminal"/>
            <text class="nonterminal" x="507" y="21">sminwor</text>
         </a>
         <rect x="591" y="3" width="24" height="32" rx="10"/>
         <rect x="589" y="1" width="24" height="32" class="terminal" rx="10"/>
         <text class="terminal" x="599" y="21">,</text>
         <a xmlns:xlink="http://www.w3.org/1999/xlink" xlink:href="#smincol" xlink:title="smincol">
            <rect x="635" y="3" width="66" height="32"/>
            <rect x="633" y="1" width="66" height="32" class="nonterminal"/>
            <text class="nonterminal" x="643" y="21">smincol</text>
         </a>
         <rect x="721" y="3" width="24" height="32" rx="10"/>
         <rect x="719" y="1" width="24" height="32" class="terminal" rx="10"/>
         <text class="terminal" x="729" y="21">,</text>
         <a xmlns:xlink="http://www.w3.org/1999/xlink" xlink:href="#smaxrow" xlink:title="smaxrow">
            <rect x="765" y="3" width="76" height="32"/>
            <rect x="763" y="1" width="76" height="32" class="nonterminal"/>
            <text class="nonterminal" x="773" y="21">smaxrow</text>
         </a>
         <rect x="861" y="3" width="24" height="32" rx="10"/>
         <rect x="859" y="1" width="24" height="32" class="terminal" rx="10"/>
         <text class="terminal" x="869" y="21">,</text>
         <a xmlns:xlink="http://www.w3.org/1999/xlink" xlink:href="#smaxcol" xlink:title="smaxcol">
            <rect x="763" y="69" width="70" height="32"/>
            <rect x="761" y="67" width="70" height="32" class="nonterminal"/>
            <text class="nonterminal" x="771" y="87">smaxcol</text>
         </a>
         <rect x="853" y="69" width="26" height="32" rx="10"/>
         <rect x="851" y="67" width="26" height="32" class="terminal" rx="10"/>
         <text class="terminal" x="861" y="87">)</text>
         <svg:path xmlns:svg="http://www.w3.org/2000/svg" class="line" d="m17 17 h2 m0 0 h10 m44 0 h10 m0 0 h10 m30 0 h10 m0 0 h10 m82 0 h10 m0 0 h10 m66 0 h10 m0 0 h10 m24 0 h10 m0 0 h10 m58 0 h10 m0 0 h10 m24 0 h10 m0 0 h10 m72 0 h10 m0 0 h10 m24 0 h10 m0 0 h10 m66 0 h10 m0 0 h10 m24 0 h10 m0 0 h10 m76 0 h10 m0 0 h10 m24 0 h10 m2 0 l2 0 m2 0 l2 0 m2 0 l2 0 m-166 66 l2 0 m2 0 l2 0 m2 0 l2 0 m2 0 h10 m70 0 h10 m0 0 h10 m26 0 h10 m3 0 h-3"/>
         <polygon points="897 83 905 79 905 87"/>
         <polygon points="897 83 889 79 889 87"/>
      </svg>
