      <svg xmlns="http://www.w3.org/2000/svg" width="626" height="36">
         <defs>
            <style type="text/css">
               @namespace "http://www.w3.org/2000/svg";
               .line                 {fill: none; stroke: #1F1F1F;}
               .bold-line            {stroke: #0A0A0A; shape-rendering: crispEdges; stroke-width:
               2; }
               .thin-line            {stroke: #0F0F0F; shape-rendering: crispEdges}
               .filled               {fill: #1F1F1F; stroke: none;}
               text.terminal         {font-family: Verdana, Sans-serif;
               font-size: 12px;
               fill: #0A0A0A;
               font-weight: bold;
               }
               text.nonterminal      {font-family: Verdana, Sans-serif;
               font-size: 12px;
               fill: #0D0D0D;
               }
               text.regexp           {font-family: Verdana, Sans-serif;
               font-size: 12px;
               fill: #0F0F0F;
               }
               rect, circle, polygon {fill: #1F1F1F; stroke: #1F1F1F;}
               rect.terminal         {fill: #CCCCCC; stroke: #1F1F1F;}
               rect.nonterminal      {fill: #E3E3E3; stroke: #1F1F1F;}
               rect.text             {fill: none; stroke: none;}    
               polygon.regexp        {fill: #EFEFEF; stroke: #1F1F1F;}
               
            </style>
         </defs>
         <polygon points="9 17 1 13 1 21"/>
         <polygon points="17 17 9 13 9 21"/>
         <a xmlns:xlink="http://www.w3.org/1999/xlink" xlink:href="#win" xlink:title="win">
            <rect x="31" y="3" width="42" height="32"/>
            <rect x="29" y="1" width="42" height="32" class="nonterminal"/>
            <text class="nonterminal" x="39" y="21">win</text>
         </a>
         <rect x="93" y="3" width="30" height="32" rx="10"/>
         <rect x="91" y="1" width="30" height="32" class="terminal" rx="10"/>
         <text class="terminal" x="101" y="21">~</text>
         <rect x="143" y="3" width="92" height="32" rx="10"/>
         <rect x="141" y="1" width="92" height="32" class="terminal" rx="10"/>
         <text class="terminal" x="151" y="21">init_color(</text>
         <a xmlns:xlink="http://www.w3.org/1999/xlink" xlink:href="#c" xlink:title="c">
            <rect x="255" y="3" width="26" height="32"/>
            <rect x="253" y="1" width="26" height="32" class="nonterminal"/>
            <text class="nonterminal" x="263" y="21">c</text>
         </a>
         <rect x="301" y="3" width="24" height="32" rx="10"/>
         <rect x="299" y="1" width="24" height="32" class="terminal" rx="10"/>
         <text class="terminal" x="309" y="21">,</text>
         <a xmlns:xlink="http://www.w3.org/1999/xlink" xlink:href="#r" xlink:title="r">
            <rect x="345" y="3" width="24" height="32"/>
            <rect x="343" y="1" width="24" height="32" class="nonterminal"/>
            <text class="nonterminal" x="353" y="21">r</text>
         </a>
         <rect x="389" y="3" width="24" height="32" rx="10"/>
         <rect x="387" y="1" width="24" height="32" class="terminal" rx="10"/>
         <text class="terminal" x="397" y="21">,</text>
         <a xmlns:xlink="http://www.w3.org/1999/xlink" xlink:href="#g" xlink:title="g">
            <rect x="433" y="3" width="28" height="32"/>
            <rect x="431" y="1" width="28" height="32" class="nonterminal"/>
            <text class="nonterminal" x="441" y="21">g</text>
         </a>
         <rect x="481" y="3" width="24" height="32" rx="10"/>
         <rect x="479" y="1" width="24" height="32" class="terminal" rx="10"/>
         <text class="terminal" x="489" y="21">,</text>
         <a xmlns:xlink="http://www.w3.org/1999/xlink" xlink:href="#b" xlink:title="b">
            <rect x="525" y="3" width="28" height="32"/>
            <rect x="523" y="1" width="28" height="32" class="nonterminal"/>
            <text class="nonterminal" x="533" y="21">b</text>
         </a>
         <rect x="573" y="3" width="26" height="32" rx="10"/>
         <rect x="571" y="1" width="26" height="32" class="terminal" rx="10"/>
         <text class="terminal" x="581" y="21">)</text>
         <svg:path xmlns:svg="http://www.w3.org/2000/svg" class="line" d="m17 17 h2 m0 0 h10 m42 0 h10 m0 0 h10 m30 0 h10 m0 0 h10 m92 0 h10 m0 0 h10 m26 0 h10 m0 0 h10 m24 0 h10 m0 0 h10 m24 0 h10 m0 0 h10 m24 0 h10 m0 0 h10 m28 0 h10 m0 0 h10 m24 0 h10 m0 0 h10 m28 0 h10 m0 0 h10 m26 0 h10 m3 0 h-3"/>
         <polygon points="617 17 625 13 625 21"/>
         <polygon points="617 17 609 13 609 21"/>
      </svg>
