      <svg xmlns="http://www.w3.org/2000/svg" width="992" height="134">
         <defs>
            <style type="text/css">
               @namespace "http://www.w3.org/2000/svg";
               .line                 {fill: none; stroke: #1F1F1F;}
               .bold-line            {stroke: #0A0A0A; shape-rendering: crispEdges; stroke-width:
               2; }
               .thin-line            {stroke: #0F0F0F; shape-rendering: crispEdges}
               .filled               {fill: #1F1F1F; stroke: none;}
               text.terminal         {font-family: Verdana, Sans-serif;
               font-size: 12px;
               fill: #0A0A0A;
               font-weight: bold;
               }
               text.nonterminal      {font-family: Verdana, Sans-serif;
               font-size: 12px;
               fill: #0D0D0D;
               }
               text.regexp           {font-family: Verdana, Sans-serif;
               font-size: 12px;
               fill: #0F0F0F;
               }
               rect, circle, polygon {fill: #1F1F1F; stroke: #1F1F1F;}
               rect.terminal         {fill: #CCCCCC; stroke: #1F1F1F;}
               rect.nonterminal      {fill: #E3E3E3; stroke: #1F1F1F;}
               rect.text             {fill: none; stroke: none;}    
               polygon.regexp        {fill: #EFEFEF; stroke: #1F1F1F;}
               
            </style>
         </defs>
         <polygon points="9 33 1 29 1 37"/>
         <polygon points="17 33 9 29 9 37"/>
         <a xmlns:xlink="http://www.w3.org/1999/xlink" xlink:href="#wmgr" xlink:title="wmgr">
            <rect x="31" y="19" width="54" height="32"/>
            <rect x="29" y="17" width="54" height="32" class="nonterminal"/>
            <text class="nonterminal" x="39" y="37">wmgr</text>
         </a>
         <rect x="105" y="19" width="30" height="32" rx="10"/>
         <rect x="103" y="17" width="30" height="32" class="terminal" rx="10"/>
         <text class="terminal" x="113" y="37">~</text>
         <rect x="155" y="19" width="178" height="32" rx="10"/>
         <rect x="153" y="17" width="178" height="32" class="terminal" rx="10"/>
         <text class="terminal" x="163" y="37">processMenuCommand(</text>
         <a xmlns:xlink="http://www.w3.org/1999/xlink" xlink:href="#title" xlink:title="title">
            <rect x="373" y="19" width="44" height="32"/>
            <rect x="371" y="17" width="44" height="32" class="nonterminal"/>
            <text class="nonterminal" x="381" y="37">title</text>
         </a>
         <rect x="457" y="19" width="24" height="32" rx="10"/>
         <rect x="455" y="17" width="24" height="32" class="terminal" rx="10"/>
         <text class="terminal" x="465" y="37">,</text>
         <a xmlns:xlink="http://www.w3.org/1999/xlink" xlink:href="#popup" xlink:title="popup">
            <rect x="521" y="19" width="60" height="32"/>
            <rect x="519" y="17" width="60" height="32" class="nonterminal"/>
            <text class="nonterminal" x="529" y="37">popup</text>
         </a>
         <rect x="641" y="19" width="24" height="32" rx="10"/>
         <rect x="639" y="17" width="24" height="32" class="terminal" rx="10"/>
         <text class="terminal" x="649" y="37">,</text>
         <a xmlns:xlink="http://www.w3.org/1999/xlink" xlink:href="#submenu" xlink:title="submenu">
            <rect x="705" y="19" width="78" height="32"/>
            <rect x="703" y="17" width="78" height="32" class="nonterminal"/>
            <text class="nonterminal" x="713" y="37">submenu</text>
         </a>
         <rect x="843" y="19" width="24" height="32" rx="10"/>
         <rect x="841" y="17" width="24" height="32" class="terminal" rx="10"/>
         <text class="terminal" x="851" y="37">,</text>
         <a xmlns:xlink="http://www.w3.org/1999/xlink" xlink:href="#menuItem" xlink:title="menuItem">
            <rect x="887" y="19" width="84" height="32"/>
            <rect x="885" y="17" width="84" height="32" class="nonterminal"/>
            <text class="nonterminal" x="895" y="37">menuItem</text>
         </a>
         <rect x="939" y="101" width="26" height="32" rx="10"/>
         <rect x="937" y="99" width="26" height="32" class="terminal" rx="10"/>
         <text class="terminal" x="947" y="119">)</text>
         <svg:path xmlns:svg="http://www.w3.org/2000/svg" class="line" d="m17 33 h2 m0 0 h10 m54 0 h10 m0 0 h10 m30 0 h10 m0 0 h10 m178 0 h10 m20 0 h10 m44 0 h10 m-84 0 h20 m64 0 h20 m-104 0 q10 0 10 10 m84 0 q0 -10 10 -10 m-94 10 v14 m84 0 v-14 m-84 14 q0 10 10 10 m64 0 q10 0 10 -10 m-74 10 h10 m0 0 h54 m20 -34 h10 m24 0 h10 m20 0 h10 m60 0 h10 m-100 0 h20 m80 0 h20 m-120 0 q10 0 10 10 m100 0 q0 -10 10 -10 m-110 10 v14 m100 0 v-14 m-100 14 q0 10 10 10 m80 0 q10 0 10 -10 m-90 10 h10 m0 0 h70 m40 -34 h10 m24 0 h10 m20 0 h10 m78 0 h10 m-118 0 h20 m98 0 h20 m-138 0 q10 0 10 10 m118 0 q0 -10 10 -10 m-128 10 v14 m118 0 v-14 m-118 14 q0 10 10 10 m98 0 q10 0 10 -10 m-108 10 h10 m0 0 h88 m-182 -34 l20 0 m-1 0 q-9 0 -9 -10 l0 -12 q0 -10 10 -10 m182 32 l20 0 m-20 0 q10 0 10 -10 l0 -12 q0 -10 -10 -10 m-182 0 h10 m0 0 h172 m20 32 h10 m24 0 h10 m0 0 h10 m84 0 h10 m2 0 l2 0 m2 0 l2 0 m2 0 l2 0 m-76 82 l2 0 m2 0 l2 0 m2 0 l2 0 m2 0 h10 m26 0 h10 m3 0 h-3"/>
         <polygon points="983 115 991 111 991 119"/>
         <polygon points="983 115 975 111 975 119"/>
      </svg>
