      <svg xmlns="http://www.w3.org/2000/svg" width="510" height="36">
         <defs>
            <style type="text/css">
               @namespace "http://www.w3.org/2000/svg";
               .line                 {fill: none; stroke: #1F1F1F;}
               .bold-line            {stroke: #0A0A0A; shape-rendering: crispEdges; stroke-width:
               2; }
               .thin-line            {stroke: #0F0F0F; shape-rendering: crispEdges}
               .filled               {fill: #1F1F1F; stroke: none;}
               text.terminal         {font-family: Verdana, Sans-serif;
               font-size: 12px;
               fill: #0A0A0A;
               font-weight: bold;
               }
               text.nonterminal      {font-family: Verdana, Sans-serif;
               font-size: 12px;
               fill: #0D0D0D;
               }
               text.regexp           {font-family: Verdana, Sans-serif;
               font-size: 12px;
               fill: #0F0F0F;
               }
               rect, circle, polygon {fill: #1F1F1F; stroke: #1F1F1F;}
               rect.terminal         {fill: #CCCCCC; stroke: #1F1F1F;}
               rect.nonterminal      {fill: #E3E3E3; stroke: #1F1F1F;}
               rect.text             {fill: none; stroke: none;}    
               polygon.regexp        {fill: #EFEFEF; stroke: #1F1F1F;}
               
            </style>
         </defs>
         <polygon points="9 17 1 13 1 21"/>
         <polygon points="17 17 9 13 9 21"/>
         <a xmlns:xlink="http://www.w3.org/1999/xlink" xlink:href="#wmgr" xlink:title="wmgr">
            <rect x="31" y="3" width="54" height="32"/>
            <rect x="29" y="1" width="54" height="32" class="nonterminal"/>
            <text class="nonterminal" x="39" y="21">wmgr</text>
         </a>
         <rect x="105" y="3" width="30" height="32" rx="10"/>
         <rect x="103" y="1" width="30" height="32" class="terminal" rx="10"/>
         <text class="terminal" x="113" y="21">~</text>
         <rect x="155" y="3" width="146" height="32" rx="10"/>
         <rect x="153" y="1" width="146" height="32" class="terminal" rx="10"/>
         <text class="terminal" x="163" y="21">windowAtPosition(</text>
         <a xmlns:xlink="http://www.w3.org/1999/xlink" xlink:href="#x" xlink:title="x">
            <rect x="321" y="3" width="26" height="32"/>
            <rect x="319" y="1" width="26" height="32" class="nonterminal"/>
            <text class="nonterminal" x="329" y="21">x</text>
         </a>
         <rect x="367" y="3" width="24" height="32" rx="10"/>
         <rect x="365" y="1" width="24" height="32" class="terminal" rx="10"/>
         <text class="terminal" x="375" y="21">,</text>
         <a xmlns:xlink="http://www.w3.org/1999/xlink" xlink:href="#y" xlink:title="y">
            <rect x="411" y="3" width="26" height="32"/>
            <rect x="409" y="1" width="26" height="32" class="nonterminal"/>
            <text class="nonterminal" x="419" y="21">y</text>
         </a>
         <rect x="457" y="3" width="26" height="32" rx="10"/>
         <rect x="455" y="1" width="26" height="32" class="terminal" rx="10"/>
         <text class="terminal" x="465" y="21">)</text>
         <svg:path xmlns:svg="http://www.w3.org/2000/svg" class="line" d="m17 17 h2 m0 0 h10 m54 0 h10 m0 0 h10 m30 0 h10 m0 0 h10 m146 0 h10 m0 0 h10 m26 0 h10 m0 0 h10 m24 0 h10 m0 0 h10 m26 0 h10 m0 0 h10 m26 0 h10 m3 0 h-3"/>
         <polygon points="501 17 509 13 509 21"/>
         <polygon points="501 17 493 13 493 21"/>
      </svg>
