      <svg xmlns="http://www.w3.org/2000/svg" width="566" height="36">
         <defs>
            <style type="text/css">
               @namespace "http://www.w3.org/2000/svg";
               .line                 {fill: none; stroke: #1F1F1F;}
               .bold-line            {stroke: #0A0A0A; shape-rendering: crispEdges; stroke-width:
               2; }
               .thin-line            {stroke: #0F0F0F; shape-rendering: crispEdges}
               .filled               {fill: #1F1F1F; stroke: none;}
               text.terminal         {font-family: Verdana, Sans-serif;
               font-size: 12px;
               fill: #0A0A0A;
               font-weight: bold;
               }
               text.nonterminal      {font-family: Verdana, Sans-serif;
               font-size: 12px;
               fill: #0D0D0D;
               }
               text.regexp           {font-family: Verdana, Sans-serif;
               font-size: 12px;
               fill: #0F0F0F;
               }
               rect, circle, polygon {fill: #1F1F1F; stroke: #1F1F1F;}
               rect.terminal         {fill: #CCCCCC; stroke: #1F1F1F;}
               rect.nonterminal      {fill: #E3E3E3; stroke: #1F1F1F;}
               rect.text             {fill: none; stroke: none;}    
               polygon.regexp        {fill: #EFEFEF; stroke: #1F1F1F;}
               
            </style>
         </defs>
         <polygon points="9 17 1 13 1 21"/>
         <polygon points="17 17 9 13 9 21"/>
         <a xmlns:xlink="http://www.w3.org/1999/xlink" xlink:href="#wmgr" xlink:title="wmgr">
            <rect x="31" y="3" width="54" height="32"/>
            <rect x="29" y="1" width="54" height="32" class="nonterminal"/>
            <text class="nonterminal" x="39" y="21">wmgr</text>
         </a>
         <rect x="105" y="3" width="30" height="32" rx="10"/>
         <rect x="103" y="1" width="30" height="32" class="terminal" rx="10"/>
         <text class="terminal" x="113" y="21">~</text>
         <rect x="155" y="3" width="166" height="32" rx="10"/>
         <rect x="153" y="1" width="166" height="32" class="terminal" rx="10"/>
         <text class="terminal" x="163" y="21">pushButtonInwindow(</text>
         <a xmlns:xlink="http://www.w3.org/1999/xlink" xlink:href="#title" xlink:title="title">
            <rect x="341" y="3" width="44" height="32"/>
            <rect x="339" y="1" width="44" height="32" class="nonterminal"/>
            <text class="nonterminal" x="349" y="21">title</text>
         </a>
         <rect x="405" y="3" width="24" height="32" rx="10"/>
         <rect x="403" y="1" width="24" height="32" class="terminal" rx="10"/>
         <text class="terminal" x="413" y="21">,</text>
         <a xmlns:xlink="http://www.w3.org/1999/xlink" xlink:href="#text" xlink:title="text">
            <rect x="449" y="3" width="44" height="32"/>
            <rect x="447" y="1" width="44" height="32" class="nonterminal"/>
            <text class="nonterminal" x="457" y="21">text</text>
         </a>
         <rect x="513" y="3" width="26" height="32" rx="10"/>
         <rect x="511" y="1" width="26" height="32" class="terminal" rx="10"/>
         <text class="terminal" x="521" y="21">)</text>
         <svg:path xmlns:svg="http://www.w3.org/2000/svg" class="line" d="m17 17 h2 m0 0 h10 m54 0 h10 m0 0 h10 m30 0 h10 m0 0 h10 m166 0 h10 m0 0 h10 m44 0 h10 m0 0 h10 m24 0 h10 m0 0 h10 m44 0 h10 m0 0 h10 m26 0 h10 m3 0 h-3"/>
         <polygon points="557 17 565 13 565 21"/>
         <polygon points="557 17 549 13 549 21"/>
      </svg>
