      <svg xmlns="http://www.w3.org/2000/svg" width="282" height="80">
         <defs>
            <style type="text/css">
               @namespace "http://www.w3.org/2000/svg";
               .line                 {fill: none; stroke: #1F1F1F;}
               .bold-line            {stroke: #0A0A0A; shape-rendering: crispEdges; stroke-width:
               2; }
               .thin-line            {stroke: #0F0F0F; shape-rendering: crispEdges}
               .filled               {fill: #1F1F1F; stroke: none;}
               text.terminal         {font-family: Verdana, Sans-serif;
               font-size: 12px;
               fill: #0A0A0A;
               font-weight: bold;
               }
               text.nonterminal      {font-family: Verdana, Sans-serif; font-style: italic;
               font-size: 12px;
               fill: #0D0D0D;
               }
               text.regexp           {font-family: Verdana, Sans-serif;
               font-size: 12px;
               fill: #0F0F0F;
               }
               rect, circle, polygon {fill: #1F1F1F; stroke: #1F1F1F;}
               rect.terminal         {fill: #CCCCCC; stroke: #1F1F1F;}
               rect.nonterminal      {fill: #E3E3E3; stroke: #1F1F1F;}
               rect.text             {fill: none; stroke: none;}    
               polygon.regexp        {fill: #EFEFEF; stroke: #1F1F1F;}
               
            </style>
         </defs>
         <polygon points="9 17 1 13 1 21"/>
         <polygon points="17 17 9 13 9 21"/>
         <rect x="51" y="3" width="68" height="32" rx="10"/>
         <rect x="49" y="1" width="68" height="32" class="terminal" rx="10"/>
         <text class="terminal" x="59" y="21">content</text>
         <rect x="51" y="47" width="68" height="32" rx="10"/>
         <rect x="49" y="45" width="68" height="32" class="terminal" rx="10"/>
         <text class="terminal" x="59" y="65">content</text>
         <rect x="139" y="47" width="30" height="32" rx="10"/>
         <rect x="137" y="45" width="30" height="32" class="terminal" rx="10"/>
         <text class="terminal" x="147" y="65">=</text>
<!--     <a xmlns:xlink="http://www.w3.org/1999/xlink" xlink:href="#part" xlink:title="part"> -->
            <rect x="189" y="47" width="46" height="32"/>
            <rect x="187" y="45" width="46" height="32" class="nonterminal"/>
            <text class="nonterminal" x="197" y="65">part</text>
<!--     </a> -->
         <svg:path xmlns:svg="http://www.w3.org/2000/svg" class="line" d="m17 17 h2 m20 0 h10 m68 0 h10 m0 0 h116 m-224 0 h20 m204 0 h20 m-244 0 q10 0 10 10 m224 0 q0 -10 10 -10 m-234 10 v24 m224 0 v-24 m-224 24 q0 10 10 10 m204 0 q10 0 10 -10 m-214 10 h10 m68 0 h10 m0 0 h10 m30 0 h10 m0 0 h10 m46 0 h10 m23 -44 h-3"/>
         <polygon points="273 17 281 13 281 21"/>
         <polygon points="273 17 265 13 265 21"/>
      </svg>
