      <svg xmlns="http://www.w3.org/2000/svg" width="710" height="68">
         <defs>
            <style type="text/css">
               @namespace "http://www.w3.org/2000/svg";
               .line                 {fill: none; stroke: #1F1F1F;}
               .bold-line            {stroke: #0A0A0A; shape-rendering: crispEdges; stroke-width:
               2; }
               .thin-line            {stroke: #0F0F0F; shape-rendering: crispEdges}
               .filled               {fill: #1F1F1F; stroke: none;}
               text.terminal         {font-family: Verdana, Sans-serif;
               font-size: 12px;
               fill: #0A0A0A;
               font-weight: bold;
               }
               text.nonterminal      {font-family: Verdana, Sans-serif;
               font-size: 12px;
               fill: #0D0D0D;
               }
               text.regexp           {font-family: Verdana, Sans-serif;
               font-size: 12px;
               fill: #0F0F0F;
               }
               rect, circle, polygon {fill: #1F1F1F; stroke: #1F1F1F;}
               rect.terminal         {fill: #CCCCCC; stroke: #1F1F1F;}
               rect.nonterminal      {fill: #E3E3E3; stroke: #1F1F1F;}
               rect.text             {fill: none; stroke: none;}    
               polygon.regexp        {fill: #EFEFEF; stroke: #1F1F1F;}
               
            </style>
         </defs>
         <polygon points="9 17 1 13 1 21"/>
         <polygon points="17 17 9 13 9 21"/>
         <rect x="31" y="3" width="74" height="32" rx="10"/>
         <rect x="29" y="1" width="74" height="32" class="terminal" rx="10"/>
         <text class="terminal" x="39" y="21">restore(</text>
         <a xmlns:xlink="http://www.w3.org/1999/xlink" xlink:href="#key_handle" xlink:title="key_handle">
            <rect x="145" y="3" width="92" height="32"/>
            <rect x="143" y="1" width="92" height="32" class="nonterminal"/>
            <text class="nonterminal" x="153" y="21">key_handle</text>
         </a>
         <rect x="277" y="3" width="24" height="32" rx="10"/>
         <rect x="275" y="1" width="24" height="32" class="terminal" rx="10"/>
         <text class="terminal" x="285" y="21">,</text>
         <a xmlns:xlink="http://www.w3.org/1999/xlink" xlink:href="#filename" xlink:title="filename">
            <rect x="321" y="3" width="72" height="32"/>
            <rect x="319" y="1" width="72" height="32" class="nonterminal"/>
            <text class="nonterminal" x="329" y="21">filename</text>
         </a>
         <rect x="433" y="3" width="24" height="32" rx="10"/>
         <rect x="431" y="1" width="24" height="32" class="terminal" rx="10"/>
         <text class="terminal" x="441" y="21">,</text>
         <rect x="497" y="3" width="100" height="32" rx="10"/>
         <rect x="495" y="1" width="100" height="32" class="terminal" rx="10"/>
         <text class="terminal" x="505" y="21">"VOLATILE"</text>
         <rect x="657" y="3" width="26" height="32" rx="10"/>
         <rect x="655" y="1" width="26" height="32" class="terminal" rx="10"/>
         <text class="terminal" x="665" y="21">)</text>
         <svg:path xmlns:svg="http://www.w3.org/2000/svg" class="line" d="m17 17 h2 m0 0 h10 m74 0 h10 m20 0 h10 m92 0 h10 m-132 0 h20 m112 0 h20 m-152 0 q10 0 10 10 m132 0 q0 -10 10 -10 m-142 10 v14 m132 0 v-14 m-132 14 q0 10 10 10 m112 0 q10 0 10 -10 m-122 10 h10 m0 0 h102 m20 -34 h10 m24 0 h10 m0 0 h10 m72 0 h10 m20 0 h10 m24 0 h10 m20 0 h10 m100 0 h10 m-140 0 h20 m120 0 h20 m-160 0 q10 0 10 10 m140 0 q0 -10 10 -10 m-150 10 v14 m140 0 v-14 m-140 14 q0 10 10 10 m120 0 q10 0 10 -10 m-130 10 h10 m0 0 h110 m-204 -34 h20 m204 0 h20 m-244 0 q10 0 10 10 m224 0 q0 -10 10 -10 m-234 10 v30 m224 0 v-30 m-224 30 q0 10 10 10 m204 0 q10 0 10 -10 m-214 10 h10 m0 0 h194 m20 -50 h10 m26 0 h10 m3 0 h-3"/>
         <polygon points="701 17 709 13 709 21"/>
         <polygon points="701 17 693 13 693 21"/>
      </svg>
