      <svg xmlns="http://www.w3.org/2000/svg" width="702" height="84">
         <defs>
            <style type="text/css">
               @namespace "http://www.w3.org/2000/svg";
               .line                 {fill: none; stroke: #1F1F1F;}
               .bold-line            {stroke: #0A0A0A; shape-rendering: crispEdges; stroke-width:
               2; }
               .thin-line            {stroke: #0F0F0F; shape-rendering: crispEdges}
               .filled               {fill: #1F1F1F; stroke: none;}
               text.terminal         {font-family: Verdana, Sans-serif;
               font-size: 12px;
               fill: #0A0A0A;
               font-weight: bold;
               }
               text.nonterminal      {font-family: Verdana, Sans-serif;
               font-size: 12px;
               fill: #0D0D0D;
               }
               text.regexp           {font-family: Verdana, Sans-serif;
               font-size: 12px;
               fill: #0F0F0F;
               }
               rect, circle, polygon {fill: #1F1F1F; stroke: #1F1F1F;}
               rect.terminal         {fill: #CCCCCC; stroke: #1F1F1F;}
               rect.nonterminal      {fill: #E3E3E3; stroke: #1F1F1F;}
               rect.text             {fill: none; stroke: none;}    
               polygon.regexp        {fill: #EFEFEF; stroke: #1F1F1F;}
               
            </style>
         </defs>
         <polygon points="9 17 1 13 1 21"/>
         <polygon points="17 17 9 13 9 21"/>
         <rect x="31" y="3" width="58" height="32" rx="10"/>
         <rect x="29" y="1" width="58" height="32" class="terminal" rx="10"/>
         <text class="terminal" x="39" y="21">open(</text>
         <a xmlns:xlink="http://www.w3.org/1999/xlink" xlink:href="#parentHandle" xlink:title="parentHandle">
            <rect x="129" y="3" width="106" height="32"/>
            <rect x="127" y="1" width="106" height="32" class="nonterminal"/>
            <text class="nonterminal" x="137" y="21">parentHandle</text>
         </a>
         <rect x="275" y="3" width="24" height="32" rx="10"/>
         <rect x="273" y="1" width="24" height="32" class="terminal" rx="10"/>
         <text class="terminal" x="283" y="21">,</text>
         <a xmlns:xlink="http://www.w3.org/1999/xlink" xlink:href="#subkey" xlink:title="subkey">
            <rect x="339" y="3" width="64" height="32"/>
            <rect x="337" y="1" width="64" height="32" class="nonterminal"/>
            <text class="nonterminal" x="347" y="21">subkey</text>
         </a>
         <rect x="463" y="3" width="24" height="32" rx="10"/>
         <rect x="461" y="1" width="24" height="32" class="terminal" rx="10"/>
         <text class="terminal" x="471" y="21">,</text>
         <a xmlns:xlink="http://www.w3.org/1999/xlink" xlink:href="#access" xlink:title="access">
            <rect x="507" y="3" width="62" height="32"/>
            <rect x="505" y="1" width="62" height="32" class="nonterminal"/>
            <text class="nonterminal" x="515" y="21">access</text>
         </a>
         <rect x="649" y="3" width="26" height="32" rx="10"/>
         <rect x="647" y="1" width="26" height="32" class="terminal" rx="10"/>
         <text class="terminal" x="657" y="21">)</text>
         <svg:path xmlns:svg="http://www.w3.org/2000/svg" class="line" d="m17 17 h2 m0 0 h10 m58 0 h10 m20 0 h10 m106 0 h10 m20 0 h10 m24 0 h10 m20 0 h10 m64 0 h10 m-104 0 h20 m84 0 h20 m-124 0 q10 0 10 10 m104 0 q0 -10 10 -10 m-114 10 v14 m104 0 v-14 m-104 14 q0 10 10 10 m84 0 q10 0 10 -10 m-94 10 h10 m0 0 h74 m40 -34 h10 m24 0 h10 m0 0 h10 m62 0 h10 m-146 0 h20 m126 0 h20 m-166 0 q10 0 10 10 m146 0 q0 -10 10 -10 m-156 10 v14 m146 0 v-14 m-146 14 q0 10 10 10 m126 0 q10 0 10 -10 m-136 10 h10 m0 0 h116 m-334 -34 h20 m334 0 h20 m-374 0 q10 0 10 10 m354 0 q0 -10 10 -10 m-364 10 v30 m354 0 v-30 m-354 30 q0 10 10 10 m334 0 q10 0 10 -10 m-344 10 h10 m0 0 h324 m-500 -50 h20 m500 0 h20 m-540 0 q10 0 10 10 m520 0 q0 -10 10 -10 m-530 10 v46 m520 0 v-46 m-520 46 q0 10 10 10 m500 0 q10 0 10 -10 m-510 10 h10 m0 0 h490 m20 -66 h10 m26 0 h10 m3 0 h-3"/>
         <polygon points="693 17 701 13 701 21"/>
         <polygon points="693 17 685 13 685 21"/>
      </svg>
