      <svg xmlns="http://www.w3.org/2000/svg" width="832" height="272">
         <defs>
            <style type="text/css">
               @namespace "http://www.w3.org/2000/svg";
               .line                 {fill: none; stroke: #1F1F1F;}
               .bold-line            {stroke: #0A0A0A; shape-rendering: crispEdges; stroke-width:
               2; }
               .thin-line            {stroke: #0F0F0F; shape-rendering: crispEdges}
               .filled               {fill: #1F1F1F; stroke: none;}
               text.terminal         {font-family: Verdana, Sans-serif;
               font-size: 12px;
               fill: #0A0A0A;
               font-weight: bold;
               }
               text.nonterminal      {font-family: Verdana, Sans-serif;
               font-size: 12px;
               fill: #0D0D0D;
               }
               text.regexp           {font-family: Verdana, Sans-serif;
               font-size: 12px;
               fill: #0F0F0F;
               }
               rect, circle, polygon {fill: #1F1F1F; stroke: #1F1F1F;}
               rect.terminal         {fill: #CCCCCC; stroke: #1F1F1F;}
               rect.nonterminal      {fill: #E3E3E3; stroke: #1F1F1F;}
               rect.text             {fill: none; stroke: none;}    
               polygon.regexp        {fill: #EFEFEF; stroke: #1F1F1F;}
               
            </style>
         </defs>
         <polygon points="9 17 1 13 1 21"/>
         <polygon points="17 17 9 13 9 21"/>
         <rect x="31" y="3" width="84" height="32" rx="10"/>
         <rect x="29" y="1" width="84" height="32" class="terminal" rx="10"/>
         <text class="terminal" x="39" y="21">setValue(</text>
         <a xmlns:xlink="http://www.w3.org/1999/xlink" xlink:href="#key_handle" xlink:title="key_handle">
            <rect x="155" y="3" width="92" height="32"/>
            <rect x="153" y="1" width="92" height="32" class="nonterminal"/>
            <text class="nonterminal" x="163" y="21">key_handle</text>
         </a>
         <rect x="287" y="3" width="24" height="32" rx="10"/>
         <rect x="285" y="1" width="24" height="32" class="terminal" rx="10"/>
         <text class="terminal" x="295" y="21">,</text>
         <a xmlns:xlink="http://www.w3.org/1999/xlink" xlink:href="#name" xlink:title="name">
            <rect x="351" y="3" width="54" height="32"/>
            <rect x="349" y="1" width="54" height="32" class="nonterminal"/>
            <text class="nonterminal" x="359" y="21">name</text>
         </a>
         <rect x="445" y="3" width="24" height="32" rx="10"/>
         <rect x="443" y="1" width="24" height="32" class="terminal" rx="10"/>
         <text class="terminal" x="453" y="21">,</text>
         <a xmlns:xlink="http://www.w3.org/1999/xlink" xlink:href="#value" xlink:title="value">
            <rect x="489" y="3" width="54" height="32"/>
            <rect x="487" y="1" width="54" height="32" class="nonterminal"/>
            <text class="nonterminal" x="497" y="21">value</text>
         </a>
         <rect x="583" y="3" width="24" height="32" rx="10"/>
         <rect x="581" y="1" width="24" height="32" class="terminal" rx="10"/>
         <text class="terminal" x="591" y="21">,</text>
         <a xmlns:xlink="http://www.w3.org/1999/xlink" xlink:href="#NORMAL" xlink:title="NORMAL">
            <rect x="647" y="3" width="72" height="32"/>
            <rect x="645" y="1" width="72" height="32" class="nonterminal"/>
            <text class="nonterminal" x="655" y="21">NORMAL</text>
         </a>
         <a xmlns:xlink="http://www.w3.org/1999/xlink" xlink:href="#EXPAND" xlink:title="EXPAND">
            <rect x="647" y="47" width="70" height="32"/>
            <rect x="645" y="45" width="70" height="32" class="nonterminal"/>
            <text class="nonterminal" x="655" y="65">EXPAND</text>
         </a>
         <a xmlns:xlink="http://www.w3.org/1999/xlink" xlink:href="#MULTI" xlink:title="MULTI">
            <rect x="647" y="91" width="58" height="32"/>
            <rect x="645" y="89" width="58" height="32" class="nonterminal"/>
            <text class="nonterminal" x="655" y="109">MULTI</text>
         </a>
         <a xmlns:xlink="http://www.w3.org/1999/xlink" xlink:href="#NUMBER" xlink:title="NUMBER">
            <rect x="647" y="135" width="72" height="32"/>
            <rect x="645" y="133" width="72" height="32" class="nonterminal"/>
            <text class="nonterminal" x="655" y="153">NUMBER</text>
         </a>
         <a xmlns:xlink="http://www.w3.org/1999/xlink" xlink:href="#BINARY" xlink:title="BINARY">
            <rect x="647" y="179" width="64" height="32"/>
            <rect x="645" y="177" width="64" height="32" class="nonterminal"/>
            <text class="nonterminal" x="655" y="197">BINARY</text>
         </a>
         <a xmlns:xlink="http://www.w3.org/1999/xlink" xlink:href="#NONE" xlink:title="NONE">
            <rect x="647" y="223" width="56" height="32"/>
            <rect x="645" y="221" width="56" height="32" class="nonterminal"/>
            <text class="nonterminal" x="655" y="241">NONE</text>
         </a>
         <rect x="779" y="3" width="26" height="32" rx="10"/>
         <rect x="777" y="1" width="26" height="32" class="terminal" rx="10"/>
         <text class="terminal" x="787" y="21">)</text>
         <svg:path xmlns:svg="http://www.w3.org/2000/svg" class="line" d="m17 17 h2 m0 0 h10 m84 0 h10 m20 0 h10 m92 0 h10 m-132 0 h20 m112 0 h20 m-152 0 q10 0 10 10 m132 0 q0 -10 10 -10 m-142 10 v14 m132 0 v-14 m-132 14 q0 10 10 10 m112 0 q10 0 10 -10 m-122 10 h10 m0 0 h102 m20 -34 h10 m24 0 h10 m20 0 h10 m54 0 h10 m-94 0 h20 m74 0 h20 m-114 0 q10 0 10 10 m94 0 q0 -10 10 -10 m-104 10 v14 m94 0 v-14 m-94 14 q0 10 10 10 m74 0 q10 0 10 -10 m-84 10 h10 m0 0 h64 m20 -34 h10 m24 0 h10 m0 0 h10 m54 0 h10 m20 0 h10 m24 0 h10 m20 0 h10 m72 0 h10 m-112 0 h20 m92 0 h20 m-132 0 q10 0 10 10 m112 0 q0 -10 10 -10 m-122 10 v24 m112 0 v-24 m-112 24 q0 10 10 10 m92 0 q10 0 10 -10 m-102 10 h10 m70 0 h10 m0 0 h2 m-102 -10 v20 m112 0 v-20 m-112 20 v24 m112 0 v-24 m-112 24 q0 10 10 10 m92 0 q10 0 10 -10 m-102 10 h10 m58 0 h10 m0 0 h14 m-102 -10 v20 m112 0 v-20 m-112 20 v24 m112 0 v-24 m-112 24 q0 10 10 10 m92 0 q10 0 10 -10 m-102 10 h10 m72 0 h10 m-102 -10 v20 m112 0 v-20 m-112 20 v24 m112 0 v-24 m-112 24 q0 10 10 10 m92 0 q10 0 10 -10 m-102 10 h10 m64 0 h10 m0 0 h8 m-102 -10 v20 m112 0 v-20 m-112 20 v24 m112 0 v-24 m-112 24 q0 10 10 10 m92 0 q10 0 10 -10 m-102 10 h10 m56 0 h10 m0 0 h16 m-176 -220 h20 m176 0 h20 m-216 0 q10 0 10 10 m196 0 q0 -10 10 -10 m-206 10 v234 m196 0 v-234 m-196 234 q0 10 10 10 m176 0 q10 0 10 -10 m-186 10 h10 m0 0 h166 m20 -254 h10 m26 0 h10 m3 0 h-3"/>
         <polygon points="823 17 831 13 831 21"/>
         <polygon points="823 17 815 13 815 21"/>
      </svg>
