      <svg xmlns="http://www.w3.org/2000/svg" width="518" height="52">
         <defs>
            <style type="text/css">
               @namespace "http://www.w3.org/2000/svg";
               .line                 {fill: none; stroke: #1F1F1F;}
               .bold-line            {stroke: #0A0A0A; shape-rendering: crispEdges; stroke-width:
               2; }
               .thin-line            {stroke: #0F0F0F; shape-rendering: crispEdges}
               .filled               {fill: #1F1F1F; stroke: none;}
               text.terminal         {font-family: Verdana, Sans-serif;
               font-size: 12px;
               fill: #0A0A0A;
               font-weight: bold;
               }
               text.nonterminal      {font-family: Verdana, Sans-serif;
               font-size: 12px;
               fill: #0D0D0D;
               }
               text.regexp           {font-family: Verdana, Sans-serif;
               font-size: 12px;
               fill: #0F0F0F;
               }
               rect, circle, polygon {fill: #1F1F1F; stroke: #1F1F1F;}
               rect.terminal         {fill: #CCCCCC; stroke: #1F1F1F;}
               rect.nonterminal      {fill: #E3E3E3; stroke: #1F1F1F;}
               rect.text             {fill: none; stroke: none;}    
               polygon.regexp        {fill: #EFEFEF; stroke: #1F1F1F;}
               
            </style>
         </defs>
         <polygon points="9 17 1 13 1 21"/>
         <polygon points="17 17 9 13 9 21"/>
         <rect x="31" y="3" width="104" height="32" rx="10"/>
         <rect x="29" y="1" width="104" height="32" class="terminal" rx="10"/>
         <text class="terminal" x="39" y="21">deleteValue(</text>
         <a xmlns:xlink="http://www.w3.org/1999/xlink" xlink:href="#key_handle" xlink:title="key_handle">
            <rect x="175" y="3" width="92" height="32"/>
            <rect x="173" y="1" width="92" height="32" class="nonterminal"/>
            <text class="nonterminal" x="183" y="21">key_handle</text>
         </a>
         <rect x="327" y="3" width="24" height="32" rx="10"/>
         <rect x="325" y="1" width="24" height="32" class="terminal" rx="10"/>
         <text class="terminal" x="335" y="21">,</text>
         <a xmlns:xlink="http://www.w3.org/1999/xlink" xlink:href="#value" xlink:title="value">
            <rect x="371" y="3" width="54" height="32"/>
            <rect x="369" y="1" width="54" height="32" class="nonterminal"/>
            <text class="nonterminal" x="379" y="21">value</text>
         </a>
         <rect x="465" y="3" width="26" height="32" rx="10"/>
         <rect x="463" y="1" width="26" height="32" class="terminal" rx="10"/>
         <text class="terminal" x="473" y="21">)</text>
         <svg:path xmlns:svg="http://www.w3.org/2000/svg" class="line" d="m17 17 h2 m0 0 h10 m104 0 h10 m20 0 h10 m92 0 h10 m-132 0 h20 m112 0 h20 m-152 0 q10 0 10 10 m132 0 q0 -10 10 -10 m-142 10 v14 m132 0 v-14 m-132 14 q0 10 10 10 m112 0 q10 0 10 -10 m-122 10 h10 m0 0 h102 m40 -34 h10 m24 0 h10 m0 0 h10 m54 0 h10 m-138 0 h20 m118 0 h20 m-158 0 q10 0 10 10 m138 0 q0 -10 10 -10 m-148 10 v14 m138 0 v-14 m-138 14 q0 10 10 10 m118 0 q10 0 10 -10 m-128 10 h10 m0 0 h108 m20 -34 h10 m26 0 h10 m3 0 h-3"/>
         <polygon points="509 17 517 13 517 21"/>
         <polygon points="509 17 501 13 501 21"/>
      </svg>
