      <svg xmlns="http://www.w3.org/2000/svg" width="868" height="150">
         <defs>
            <style type="text/css">
               @namespace "http://www.w3.org/2000/svg";
               .line                 {fill: none; stroke: #1F1F1F;}
               .bold-line            {stroke: #0A0A0A; shape-rendering: crispEdges; stroke-width:
               2; }
               .thin-line            {stroke: #0F0F0F; shape-rendering: crispEdges}
               .filled               {fill: #1F1F1F; stroke: none;}
               text.terminal         {font-family: Verdana, Sans-serif;
               font-size: 12px;
               fill: #0A0A0A;
               font-weight: bold;
               }
               text.nonterminal      {font-family: Verdana, Sans-serif; font-style: italic;
               font-size: 12px;
               fill: #0D0D0D;
               }
               text.regexp           {font-family: Verdana, Sans-serif;
               font-size: 12px;
               fill: #0F0F0F;
               }
               rect, circle, polygon {fill: #1F1F1F; stroke: #1F1F1F;}
               rect.terminal         {fill: #CCCCCC; stroke: #1F1F1F;}
               rect.nonterminal      {fill: #E3E3E3; stroke: #1F1F1F;}
               rect.text             {fill: none; stroke: none;}    
               polygon.regexp        {fill: #EFEFEF; stroke: #1F1F1F;}
               
            </style>
         </defs>
         <polygon points="9 33 1 29 1 37"/>
         <polygon points="17 33 9 29 9 37"/>
         <rect x="31" y="19" width="178" height="32" rx="10"/>
         <rect x="29" y="17" width="178" height="32" class="terminal" rx="10"/>
         <text class="terminal" x="39" y="37">processMenuCommand(</text>
<!--     <a xmlns:xlink="http://www.w3.org/1999/xlink" xlink:href="#title" xlink:title="title"> -->
            <rect x="249" y="51" width="44" height="32"/>
            <rect x="247" y="49" width="44" height="32" class="nonterminal"/>
            <text class="nonterminal" x="257" y="69">title</text>
<!--     </a> -->
         <rect x="333" y="19" width="24" height="32" rx="10"/>
         <rect x="331" y="17" width="24" height="32" class="terminal" rx="10"/>
         <text class="terminal" x="341" y="37">,</text>
<!--     <a xmlns:xlink="http://www.w3.org/1999/xlink" xlink:href="#popup" xlink:title="popup"> -->
            <rect x="397" y="51" width="60" height="32"/>
            <rect x="395" y="49" width="60" height="32" class="nonterminal"/>
            <text class="nonterminal" x="405" y="69">popup</text>
<!--     </a> -->
         <rect x="517" y="19" width="24" height="32" rx="10"/>
         <rect x="515" y="17" width="24" height="32" class="terminal" rx="10"/>
         <text class="terminal" x="525" y="37">,</text>
<!--     <a xmlns:xlink="http://www.w3.org/1999/xlink" xlink:href="#submenu" xlink:title="submenu"> -->
            <rect x="581" y="51" width="78" height="32"/>
            <rect x="579" y="49" width="78" height="32" class="nonterminal"/>
            <text class="nonterminal" x="589" y="69">submenu</text>
<!--     </a> -->
         <rect x="719" y="19" width="24" height="32" rx="10"/>
         <rect x="717" y="17" width="24" height="32" class="terminal" rx="10"/>
         <text class="terminal" x="727" y="37">,</text>
<!--     <a xmlns:xlink="http://www.w3.org/1999/xlink" xlink:href="#menuItem" xlink:title="menuItem"> -->
            <rect x="763" y="19" width="84" height="32"/>
            <rect x="761" y="17" width="84" height="32" class="nonterminal"/>
            <text class="nonterminal" x="771" y="37">menuItem</text>
<!--     </a> -->
         <rect x="815" y="117" width="26" height="32" rx="10"/>
         <rect x="813" y="115" width="26" height="32" class="terminal" rx="10"/>
         <text class="terminal" x="823" y="135">)</text>
         <svg:path xmlns:svg="http://www.w3.org/2000/svg" class="line" d="m17 33 h2 m0 0 h10 m178 0 h10 m20 0 h10 m0 0 h54 m-84 0 h20 m64 0 h20 m-104 0 q10 0 10 10 m84 0 q0 -10 10 -10 m-94 10 v12 m84 0 v-12 m-84 12 q0 10 10 10 m64 0 q10 0 10 -10 m-74 10 h10 m44 0 h10 m20 -32 h10 m24 0 h10 m20 0 h10 m0 0 h70 m-100 0 h20 m80 0 h20 m-120 0 q10 0 10 10 m100 0 q0 -10 10 -10 m-110 10 v12 m100 0 v-12 m-100 12 q0 10 10 10 m80 0 q10 0 10 -10 m-90 10 h10 m60 0 h10 m40 -32 h10 m24 0 h10 m20 0 h10 m0 0 h88 m-118 0 h20 m98 0 h20 m-138 0 q10 0 10 10 m118 0 q0 -10 10 -10 m-128 10 v12 m118 0 v-12 m-118 12 q0 10 10 10 m98 0 q10 0 10 -10 m-108 10 h10 m78 0 h10 m-182 -32 l20 0 m-1 0 q-9 0 -9 -10 l0 -12 q0 -10 10 -10 m182 32 l20 0 m-20 0 q10 0 10 -10 l0 -12 q0 -10 -10 -10 m-182 0 h10 m0 0 h172 m20 32 h10 m24 0 h10 m0 0 h10 m84 0 h10 m2 0 l2 0 m2 0 l2 0 m2 0 l2 0 m-76 98 l2 0 m2 0 l2 0 m2 0 l2 0 m2 0 h10 m26 0 h10 m3 0 h-3"/>
         <polygon points="859 131 867 127 867 135"/>
         <polygon points="859 131 851 127 851 135"/>
      </svg>
