      <svg xmlns="http://www.w3.org/2000/svg" width="448" height="176">
         <defs>
            <style type="text/css">
               @namespace "http://www.w3.org/2000/svg";
               .line                 {fill: none; stroke: #1F1F1F;}
               .bold-line            {stroke: #0A0A0A; shape-rendering: crispEdges; stroke-width:
               2; }
               .thin-line            {stroke: #0F0F0F; shape-rendering: crispEdges}
               .filled               {fill: #1F1F1F; stroke: none;}
               text.terminal         {font-family: Verdana, Sans-serif;
               font-size: 12px;
               fill: #0A0A0A;
               font-weight: bold;
               }
               text.nonterminal      {font-family: Verdana, Sans-serif; font-style: italic;
               font-size: 12px;
               fill: #0D0D0D;
               }
               text.regexp           {font-family: Verdana, Sans-serif;
               font-size: 12px;
               fill: #0F0F0F;
               }
               rect, circle, polygon {fill: #1F1F1F; stroke: #1F1F1F;}
               rect.terminal         {fill: #CCCCCC; stroke: #1F1F1F;}
               rect.nonterminal      {fill: #E3E3E3; stroke: #1F1F1F;}
               rect.text             {fill: none; stroke: none;}    
               polygon.regexp        {fill: #EFEFEF; stroke: #1F1F1F;}
               
            </style>
         </defs>
         <polygon points="9 17 1 13 1 21"/>
         <polygon points="17 17 9 13 9 21"/>
         <rect x="31" y="3" width="84" height="32" rx="10"/>
         <rect x="29" y="1" width="84" height="32" class="terminal" rx="10"/>
         <text class="terminal" x="39" y="21">ADDRESS</text>
<!--     <a xmlns:xlink="http://www.w3.org/1999/xlink" xlink:href="#environment" xlink:title="environment"> -->
            <rect x="155" y="35" width="98" height="32"/>
            <rect x="153" y="33" width="98" height="32" class="nonterminal"/>
            <text class="nonterminal" x="163" y="53">environment</text>
<!--     </a> -->
<!--     <a xmlns:xlink="http://www.w3.org/1999/xlink" xlink:href="#expression" xlink:title="expression"> -->
            <rect x="293" y="67" width="88" height="32"/>
            <rect x="291" y="65" width="88" height="32" class="nonterminal"/>
            <text class="nonterminal" x="301" y="85">expression</text>
<!--     </a> -->
         <rect x="175" y="143" width="64" height="32" rx="10"/>
         <rect x="173" y="141" width="64" height="32" class="terminal" rx="10"/>
         <text class="terminal" x="183" y="161">VALUE</text>
<!--     <a xmlns:xlink="http://www.w3.org/1999/xlink" xlink:href="#env_expression" xlink:title="env_expression"> -->
            <rect x="279" y="111" width="120" height="32"/>
            <rect x="277" y="109" width="120" height="32" class="nonterminal"/>
            <text class="nonterminal" x="287" y="129">env_expression</text>
<!--     </a> -->
         <svg:path xmlns:svg="http://www.w3.org/2000/svg" class="line" d="m17 17 h2 m0 0 h10 m84 0 h10 m20 0 h10 m0 0 h256 m-286 0 h20 m266 0 h20 m-306 0 q10 0 10 10 m286 0 q0 -10 10 -10 m-296 10 v12 m286 0 v-12 m-286 12 q0 10 10 10 m266 0 q10 0 10 -10 m-276 10 h10 m98 0 h10 m20 0 h10 m0 0 h98 m-128 0 h20 m108 0 h20 m-148 0 q10 0 10 10 m128 0 q0 -10 10 -10 m-138 10 v12 m128 0 v-12 m-128 12 q0 10 10 10 m108 0 q10 0 10 -10 m-118 10 h10 m88 0 h10 m-256 -42 v20 m286 0 v-20 m-286 20 v56 m286 0 v-56 m-286 56 q0 10 10 10 m266 0 q10 0 10 -10 m-256 10 h10 m0 0 h74 m-104 0 h20 m84 0 h20 m-124 0 q10 0 10 10 m104 0 q0 -10 10 -10 m-114 10 v12 m104 0 v-12 m-104 12 q0 10 10 10 m84 0 q10 0 10 -10 m-94 10 h10 m64 0 h10 m20 -32 h10 m120 0 h10 m0 0 h2 m23 -108 h-3"/>
         <polygon points="439 17 447 13 447 21"/>
         <polygon points="439 17 431 13 431 21"/>
      </svg>
