<svg xmlns="http://www.w3.org/2000/svg" width="733" height="361">
         <defs>
            <style type="text/css">
    @namespace "http://www.w3.org/2000/svg";
    .line                 {fill: none; stroke: #1F1F1F;}
    .bold-line            {stroke: #0A0A0A; shape-rendering: crispEdges; stroke-width: 2; }
    .thin-line            {stroke: #0F0F0F; shape-rendering: crispEdges}
    .filled               {fill: #1F1F1F; stroke: none;}
    text.terminal         {font-family: Verdana, Sans-serif;
                            font-size: 12px;
                            fill: #0A0A0A;
                            font-weight: bold;
                          }
    text.nonterminal      {font-family: Verdana, Sans-serif; font-style: italic;
                            font-size: 12px;
                            fill: #0D0D0D;
                            font-weight: normal;
                          }
    text.regexp           {font-family: Verdana, Sans-serif;
                            font-size: 12px;
                            fill: #0F0F0F;
                            font-weight: normal;
                          }
    rect, circle, polygon {fill: #1F1F1F; stroke: #1F1F1F;}
    rect.terminal         {fill: #CCCCCC; stroke: #1F1F1F;}
    rect.nonterminal      {fill: #E3E3E3; stroke: #1F1F1F;}
    rect.text             {fill: none; stroke: none;}    
    polygon.regexp        {fill: #EFEFEF; stroke: #1F1F1F;}
  </style>
         </defs>
         <polygon points="9 33 1 29 1 37"/>
         <polygon points="17 33 9 29 9 37"/>
         <rect x="31" y="19" width="58" height="32" rx="10"/>
         <rect x="29" y="17" width="58" height="32" class="terminal" rx="10"/>
         <text class="terminal" x="39" y="37">WITH</text>
         <rect x="149" y="19" width="64" height="32" rx="10"/>
         <rect x="147" y="17" width="64" height="32" class="terminal" rx="10"/>
         <text class="terminal" x="157" y="37">INPUT</text>
         <rect x="253" y="19" width="78" height="32" rx="10"/>
         <rect x="251" y="17" width="78" height="32" class="terminal" rx="10"/>
         <text class="terminal" x="261" y="37">NORMAL</text>
         <rect x="253" y="63" width="56" height="32" rx="10"/>
         <rect x="251" y="61" width="56" height="32" class="terminal" rx="10"/>
         <text class="terminal" x="261" y="81">STEM</text>
<!--  <a xmlns:xlink="http://www.w3.org/1999/xlink" xlink:href="#stem" xlink:title="stem"> -->
            <rect x="329" y="63" width="52" height="32"/>
            <rect x="327" y="61" width="52" height="32" class="nonterminal"/>
            <text class="nonterminal" x="337" y="81">stem</text><!-- </a> -->
<rect x="253" y="107" width="76" height="32" rx="10"/>
         <rect x="251" y="105" width="76" height="32" class="terminal" rx="10"/>
         <text class="terminal" x="261" y="125">STREAM</text>
<!--  <a xmlns:xlink="http://www.w3.org/1999/xlink" xlink:href="#stream" xlink:title="stream"> -->
            <rect x="349" y="107" width="64" height="32"/>
            <rect x="347" y="105" width="64" height="32" class="nonterminal"/>
            <text class="nonterminal" x="357" y="125">stream</text><!-- </a> -->
<rect x="253" y="151" width="64" height="32" rx="10"/>
         <rect x="251" y="149" width="64" height="32" class="terminal" rx="10"/>
         <text class="terminal" x="261" y="169">USING</text>
<!--  <a xmlns:xlink="http://www.w3.org/1999/xlink" xlink:href="#expr" xlink:title="expr"> -->
            <rect x="337" y="151" width="48" height="32"/>
            <rect x="335" y="149" width="48" height="32" class="nonterminal"/>
            <text class="nonterminal" x="345" y="169">expr</text><!-- </a> -->
<rect x="169" y="195" width="76" height="32" rx="10"/>
         <rect x="167" y="193" width="76" height="32" class="terminal" rx="10"/>
         <text class="terminal" x="177" y="213">OUTPUT</text>
         <rect x="169" y="239" width="66" height="32" rx="10"/>
         <rect x="167" y="237" width="66" height="32" class="terminal" rx="10"/>
         <text class="terminal" x="177" y="257">ERROR</text>
         <rect x="305" y="195" width="78" height="32" rx="10"/>
         <rect x="303" y="193" width="78" height="32" class="terminal" rx="10"/>
         <text class="terminal" x="313" y="213">NORMAL</text>
         <rect x="325" y="271" width="80" height="32" rx="10"/>
         <rect x="323" y="269" width="80" height="32" class="terminal" rx="10"/>
         <text class="terminal" x="333" y="289">REPLACE</text>
         <rect x="325" y="315" width="76" height="32" rx="10"/>
         <rect x="323" y="313" width="76" height="32" class="terminal" rx="10"/>
         <text class="terminal" x="333" y="333">APPEND</text>
         <rect x="465" y="239" width="56" height="32" rx="10"/>
         <rect x="463" y="237" width="56" height="32" class="terminal" rx="10"/>
         <text class="terminal" x="473" y="257">STEM</text>
<!--  <a xmlns:xlink="http://www.w3.org/1999/xlink" xlink:href="#stem" xlink:title="stem"> -->
            <rect x="541" y="239" width="52" height="32"/>
            <rect x="539" y="237" width="52" height="32" class="nonterminal"/>
            <text class="nonterminal" x="549" y="257">stem</text><!-- </a> -->
<rect x="465" y="283" width="76" height="32" rx="10"/>
         <rect x="463" y="281" width="76" height="32" class="terminal" rx="10"/>
         <text class="terminal" x="473" y="301">STREAM</text>
<!--  <a xmlns:xlink="http://www.w3.org/1999/xlink" xlink:href="#stream" xlink:title="stream"> -->
            <rect x="561" y="283" width="64" height="32"/>
            <rect x="559" y="281" width="64" height="32" class="nonterminal"/>
            <text class="nonterminal" x="569" y="301">stream</text><!-- </a> -->
<rect x="465" y="327" width="64" height="32" rx="10"/>
         <rect x="463" y="325" width="64" height="32" class="terminal" rx="10"/>
         <text class="terminal" x="473" y="345">USING</text>
<!--  <a xmlns:xlink="http://www.w3.org/1999/xlink" xlink:href="#expr" xlink:title="expr"> -->
            <rect x="549" y="327" width="48" height="32"/>
            <rect x="547" y="325" width="48" height="32" class="nonterminal"/>
            <text class="nonterminal" x="557" y="345">expr</text><!-- </a> -->
<svg:path xmlns:svg="http://www.w3.org/2000/svg" class="line" d="m17 33 h2 m0 0 h10 m58 0 h10 m40 0 h10 m64 0 h10 m20 0 h10 m78 0 h10 m0 0 h82 m-200 0 h20 m180 0 h20 m-220 0 q10 0 10 10 m200 0 q0 -10 10 -10 m-210 10 v24 m200 0 v-24 m-200 24 q0 10 10 10 m180 0 q10 0 10 -10 m-190 10 h10 m56 0 h10 m0 0 h10 m52 0 h10 m0 0 h32 m-190 -10 v20 m200 0 v-20 m-200 20 v24 m200 0 v-24 m-200 24 q0 10 10 10 m180 0 q10 0 10 -10 m-190 10 h10 m76 0 h10 m0 0 h10 m64 0 h10 m-190 -10 v20 m200 0 v-20 m-200 20 v24 m200 0 v-24 m-200 24 q0 10 10 10 m180 0 q10 0 10 -10 m-190 10 h10 m64 0 h10 m0 0 h10 m48 0 h10 m0 0 h28 m20 -132 h232 m-556 0 h20 m536 0 h20 m-576 0 q10 0 10 10 m556 0 q0 -10 10 -10 m-566 10 v156 m556 0 v-156 m-556 156 q0 10 10 10 m536 0 q10 0 10 -10 m-526 10 h10 m76 0 h10 m-116 0 h20 m96 0 h20 m-136 0 q10 0 10 10 m116 0 q0 -10 10 -10 m-126 10 v24 m116 0 v-24 m-116 24 q0 10 10 10 m96 0 q10 0 10 -10 m-106 10 h10 m66 0 h10 m0 0 h10 m40 -44 h10 m78 0 h10 m0 0 h262 m-380 0 h20 m360 0 h20 m-400 0 q10 0 10 10 m380 0 q0 -10 10 -10 m-390 10 v24 m380 0 v-24 m-380 24 q0 10 10 10 m360 0 q10 0 10 -10 m-350 10 h10 m0 0 h90 m-120 0 h20 m100 0 h20 m-140 0 q10 0 10 10 m120 0 q0 -10 10 -10 m-130 10 v12 m120 0 v-12 m-120 12 q0 10 10 10 m100 0 q10 0 10 -10 m-110 10 h10 m80 0 h10 m-110 -10 v20 m120 0 v-20 m-120 20 v24 m120 0 v-24 m-120 24 q0 10 10 10 m100 0 q10 0 10 -10 m-110 10 h10 m76 0 h10 m0 0 h4 m40 -76 h10 m56 0 h10 m0 0 h10 m52 0 h10 m0 0 h32 m-200 0 h20 m180 0 h20 m-220 0 q10 0 10 10 m200 0 q0 -10 10 -10 m-210 10 v24 m200 0 v-24 m-200 24 q0 10 10 10 m180 0 q10 0 10 -10 m-190 10 h10 m76 0 h10 m0 0 h10 m64 0 h10 m-190 -10 v20 m200 0 v-20 m-200 20 v24 m200 0 v-24 m-200 24 q0 10 10 10 m180 0 q10 0 10 -10 m-190 10 h10 m64 0 h10 m0 0 h10 m48 0 h10 m0 0 h28 m-536 -308 l20 0 m-1 0 q-9 0 -9 -10 l0 -12 q0 -10 10 -10 m576 32 l20 0 m-20 0 q10 0 10 -10 l0 -12 q0 -10 -10 -10 m-576 0 h10 m0 0 h566 m23 32 h-3"/>
         <polygon points="723 33 731 29 731 37"/>
         <polygon points="723 33 715 29 715 37"/></svg>
