      <svg xmlns="http://www.w3.org/2000/svg" width="440" height="176">
         <defs>
            <style type="text/css">
               @namespace "http://www.w3.org/2000/svg";
               .line                 {fill: none; stroke: #1F1F1F;}
               .bold-line            {stroke: #0A0A0A; shape-rendering: crispEdges; stroke-width:
               2; }
               .thin-line            {stroke: #0F0F0F; shape-rendering: crispEdges}
               .filled               {fill: #1F1F1F; stroke: none;}
               text.terminal         {font-family: Verdana, Sans-serif;
               font-size: 12px;
               fill: #0A0A0A;
               font-weight: bold;
               }
               text.nonterminal      {font-family: Verdana, Sans-serif; font-style: italic;
               font-size: 12px;
               fill: #0D0D0D;
               }
               text.regexp           {font-family: Verdana, Sans-serif;
               font-size: 12px;
               fill: #0F0F0F;
               }
               rect, circle, polygon {fill: #1F1F1F; stroke: #1F1F1F;}
               rect.terminal         {fill: #CCCCCC; stroke: #1F1F1F;}
               rect.nonterminal      {fill: #E3E3E3; stroke: #1F1F1F;}
               rect.text             {fill: none; stroke: none;}    
               polygon.regexp        {fill: #EFEFEF; stroke: #1F1F1F;}
               
            </style>
         </defs>
         <polygon points="9 17 1 13 1 21"/>
         <polygon points="17 17 9 13 9 21"/>
         <rect x="31" y="3" width="84" height="32" rx="10"/>
         <rect x="29" y="1" width="84" height="32" class="terminal" rx="10"/>
         <text class="terminal" x="39" y="21">ADDRESS</text>
<!--     <a xmlns:xlink="http://www.w3.org/1999/xlink" xlink:href="#environment" xlink:title="environment"> -->
            <rect x="155" y="35" width="94" height="32"/>
            <rect x="153" y="33" width="94" height="32" class="nonterminal"/>
            <text class="nonterminal" x="163" y="53">environment</text>
<!--     </a> -->
<!--     <a xmlns:xlink="http://www.w3.org/1999/xlink" xlink:href="#expression" xlink:title="expression"> -->
            <rect x="289" y="67" width="84" height="32"/>
            <rect x="287" y="65" width="84" height="32" class="nonterminal"/>
            <text class="nonterminal" x="297" y="85">expression</text>
<!--     </a> -->
         <rect x="175" y="143" width="64" height="32" rx="10"/>
         <rect x="173" y="141" width="64" height="32" class="terminal" rx="10"/>
         <text class="terminal" x="183" y="161">VALUE</text>
<!--     <a xmlns:xlink="http://www.w3.org/1999/xlink" xlink:href="#env_expression" xlink:title="env_expression"> -->
            <rect x="279" y="111" width="114" height="32"/>
            <rect x="277" y="109" width="114" height="32" class="nonterminal"/>
            <text class="nonterminal" x="287" y="129">env_expression</text>
<!--     </a> -->
         <svg:path xmlns:svg="http://www.w3.org/2000/svg" class="line" d="m17 17 h2 m0 0 h10 m84 0 h10 m20 0 h10 m0 0 h248 m-278 0 h20 m258 0 h20 m-298 0 q10 0 10 10 m278 0 q0 -10 10 -10 m-288 10 v12 m278 0 v-12 m-278 12 q0 10 10 10 m258 0 q10 0 10 -10 m-268 10 h10 m94 0 h10 m20 0 h10 m0 0 h94 m-124 0 h20 m104 0 h20 m-144 0 q10 0 10 10 m124 0 q0 -10 10 -10 m-134 10 v12 m124 0 v-12 m-124 12 q0 10 10 10 m104 0 q10 0 10 -10 m-114 10 h10 m84 0 h10 m-248 -42 v20 m278 0 v-20 m-278 20 v56 m278 0 v-56 m-278 56 q0 10 10 10 m258 0 q10 0 10 -10 m-248 10 h10 m0 0 h74 m-104 0 h20 m84 0 h20 m-124 0 q10 0 10 10 m104 0 q0 -10 10 -10 m-114 10 v12 m104 0 v-12 m-104 12 q0 10 10 10 m84 0 q10 0 10 -10 m-94 10 h10 m64 0 h10 m20 -32 h10 m114 0 h10 m23 -108 h-3"/>
         <polygon points="431 17 439 13 439 21"/>
         <polygon points="431 17 423 13 423 21"/>
      </svg>
