<svg xmlns="http://www.w3.org/2000/svg" width="687" height="177">
         <defs>
            <style type="text/css">
    @namespace "http://www.w3.org/2000/svg";
    .line                 {fill: none; stroke: #1F1F1F; stroke-width: 1;}
    .bold-line            {stroke: #0A0A0A; shape-rendering: crispEdges; stroke-width: 2;}
    .thin-line            {stroke: #0F0F0F; shape-rendering: crispEdges}
    .filled               {fill: #1F1F1F; stroke: none;}
    text.terminal         {font-family: Verdana, Sans-serif;
                            font-size: 12px;
                            fill: #0A0A0A;
                            font-weight: bold;
                          }
    text.nonterminal      {font-family: Verdana, Sans-serif; font-style: italic;
                            font-size: 12px;
                            fill: #0D0D0D;
                            font-weight: normal;
                          }
    text.regexp           {font-family: Verdana, Sans-serif;
                            font-size: 12px;
                            fill: #0F0F0F;
                            font-weight: normal;
                          }
    rect, circle, polygon {fill: #1F1F1F; stroke: #1F1F1F;}
    rect.terminal         {fill: #cccccc; stroke: #1F1F1F; stroke-width: 1;}
    rect.nonterminal      {fill: #E3E3E3; stroke: #1F1F1F; stroke-width: 1;}
    rect.text             {fill: none; stroke: none;}
    polygon.regexp        {fill: #EFEFEF; stroke: #1F1F1F; stroke-width: 1;}
  </style>
         </defs>
         <polygon points="9 17 1 13 1 21"/>
         <polygon points="17 17 9 13 9 21"/>
         <rect x="31" y="3" width="84" height="32" rx="10"/>
         <rect x="29" y="1" width="84" height="32" class="terminal" rx="10"/>
         <text class="terminal" x="39" y="21">ADDRESS</text>
<!--  <a xmlns:xlink="http://www.w3.org/1999/xlink" xlink:href="#environment" xlink:title="environment"> -->
            <rect x="175" y="35" width="100" height="32"/>
            <rect x="173" y="33" width="100" height="32" class="nonterminal"/>
            <text class="nonterminal" x="183" y="53">environment</text><!-- </a> -->
<!--  <a xmlns:xlink="http://www.w3.org/1999/xlink" xlink:href="#expression" xlink:title="expression"> -->
            <rect x="315" y="67" width="90" height="32"/>
            <rect x="313" y="65" width="90" height="32" class="nonterminal"/>
            <text class="nonterminal" x="323" y="85">expression</text><!-- </a> -->
<rect x="195" y="143" width="64" height="32" rx="10"/>
         <rect x="193" y="141" width="64" height="32" class="terminal" rx="10"/>
         <text class="terminal" x="203" y="161">VALUE</text>
<!--  <a xmlns:xlink="http://www.w3.org/1999/xlink" xlink:href="#env_expression" xlink:title="env_expression"> -->
            <rect x="299" y="111" width="120" height="32"/>
            <rect x="297" y="109" width="120" height="32" class="nonterminal"/>
            <text class="nonterminal" x="307" y="129">env_expression</text><!-- </a> -->
<polygon points="485 83 492 67 612 67 619 83 612 99 492 99"/>
         <polygon points="483 81 490 65 610 65 617 81 610 97 490 97" class="regexp"/>
         <text class="regexp" x="498" y="85">WITH - fragment</text>
         <svg:path xmlns:svg="http://www.w3.org/2000/svg" class="line" d="m17 17 h2 m0 0 h10 m84 0 h10 m20 0 h10 m0 0 h494 m-524 0 h20 m504 0 h20 m-544 0 q10 0 10 10 m524 0 q0 -10 10 -10 m-534 10 v12 m524 0 v-12 m-524 12 q0 10 10 10 m504 0 q10 0 10 -10 m-494 10 h10 m100 0 h10 m20 0 h10 m0 0 h100 m-130 0 h20 m110 0 h20 m-150 0 q10 0 10 10 m130 0 q0 -10 10 -10 m-140 10 v12 m130 0 v-12 m-130 12 q0 10 10 10 m110 0 q10 0 10 -10 m-120 10 h10 m90 0 h10 m-270 -32 h20 m270 0 h20 m-310 0 q10 0 10 10 m290 0 q0 -10 10 -10 m-300 10 v56 m290 0 v-56 m-290 56 q0 10 10 10 m270 0 q10 0 10 -10 m-260 10 h10 m0 0 h74 m-104 0 h20 m84 0 h20 m-124 0 q10 0 10 10 m104 0 q0 -10 10 -10 m-114 10 v12 m104 0 v-12 m-104 12 q0 10 10 10 m84 0 q10 0 10 -10 m-94 10 h10 m64 0 h10 m20 -32 h10 m120 0 h10 m0 0 h6 m40 -76 h10 m0 0 h144 m-174 0 h20 m154 0 h20 m-194 0 q10 0 10 10 m174 0 q0 -10 10 -10 m-184 10 v12 m174 0 v-12 m-174 12 q0 10 10 10 m154 0 q10 0 10 -10 m-164 10 h10 m134 0 h10 m43 -64 h-3"/>
         <polygon points="677 17 685 13 685 21"/>
         <polygon points="677 17 669 13 669 21"/></svg>
