<svg xmlns="http://www.w3.org/2000/svg" width="421" height="257">
         <defs>
            <style type="text/css">
    @namespace "http://www.w3.org/2000/svg";
    .line                 {fill: none; stroke: #1F1F1F;}
    .bold-line            {stroke: #0A0A0A; shape-rendering: crispEdges; stroke-width: 2; }
    .thin-line            {stroke: #0F0F0F; shape-rendering: crispEdges}
    .filled               {fill: #1F1F1F; stroke: none;}
    text.terminal         {font-family: Verdana, Sans-serif;
                            font-size: 12px;
                            fill: #0A0A0A;
                            font-weight: bold;
                          }
    text.nonterminal      {font-family: Verdana, Sans-serif; font-style: italic;
                            font-size: 12px;
                            fill: #0D0D0D;
                            font-weight: normal;
                          }
    text.regexp           {font-family: Verdana, Sans-serif;
                            font-size: 12px;
                            fill: #0F0F0F;
                            font-weight: normal;
                          }
    rect, circle, polygon {fill: #1F1F1F; stroke: #1F1F1F;}
    rect.terminal         {fill: #cccccc; stroke: #1F1F1F;}
    rect.nonterminal      {fill: #E3E3E3; stroke: #1F1F1F;}
    rect.text             {fill: none; stroke: none;}    
    polygon.regexp        {fill: #EFEFEF; stroke: #1F1F1F;}
  </style>
         </defs>
         <polygon points="9 17 1 13 1 21"/>
         <polygon points="17 17 9 13 9 21"/>
         <rect x="31" y="3" width="54" height="32" rx="10"/>
         <rect x="29" y="1" width="54" height="32" class="terminal" rx="10"/>
         <text class="terminal" x="39" y="21">CALL</text>
         <rect x="105" y="3" width="46" height="32" rx="10"/>
         <rect x="103" y="1" width="46" height="32" class="terminal" rx="10"/>
         <text class="terminal" x="113" y="21">OFF</text>
         <rect x="191" y="3" width="48" height="32" rx="10"/>
         <rect x="189" y="1" width="48" height="32" class="terminal" rx="10"/>
         <text class="terminal" x="199" y="21">ANY</text>
         <rect x="191" y="47" width="66" height="32" rx="10"/>
         <rect x="189" y="45" width="66" height="32" class="terminal" rx="10"/>
         <text class="terminal" x="199" y="65">ERROR</text>
         <rect x="191" y="91" width="78" height="32" rx="10"/>
         <rect x="189" y="89" width="78" height="32" class="terminal" rx="10"/>
         <text class="terminal" x="199" y="109">FAILURE</text>
         <rect x="191" y="135" width="56" height="32" rx="10"/>
         <rect x="189" y="133" width="56" height="32" class="terminal" rx="10"/>
         <text class="terminal" x="199" y="153">HALT</text>
         <rect x="191" y="179" width="94" height="32" rx="10"/>
         <rect x="189" y="177" width="94" height="32" class="terminal" rx="10"/>
         <text class="terminal" x="199" y="197">NOTREADY</text>
         <rect x="191" y="223" width="56" height="32" rx="10"/>
         <rect x="189" y="221" width="56" height="32" class="terminal" rx="10"/>
         <text class="terminal" x="199" y="241">USER</text>
<!--  <a xmlns:xlink="http://www.w3.org/1999/xlink" xlink:href="#usercondition" xlink:title="usercondition"> -->
            <rect x="267" y="223" width="106" height="32"/>
            <rect x="265" y="221" width="106" height="32" class="nonterminal"/>
            <text class="nonterminal" x="275" y="241">usercondition</text><!-- </a> -->
<svg:path xmlns:svg="http://www.w3.org/2000/svg" class="line" d="m17 17 h2 m0 0 h10 m54 0 h10 m0 0 h10 m46 0 h10 m20 0 h10 m48 0 h10 m0 0 h134 m-222 0 h20 m202 0 h20 m-242 0 q10 0 10 10 m222 0 q0 -10 10 -10 m-232 10 v24 m222 0 v-24 m-222 24 q0 10 10 10 m202 0 q10 0 10 -10 m-212 10 h10 m66 0 h10 m0 0 h116 m-212 -10 v20 m222 0 v-20 m-222 20 v24 m222 0 v-24 m-222 24 q0 10 10 10 m202 0 q10 0 10 -10 m-212 10 h10 m78 0 h10 m0 0 h104 m-212 -10 v20 m222 0 v-20 m-222 20 v24 m222 0 v-24 m-222 24 q0 10 10 10 m202 0 q10 0 10 -10 m-212 10 h10 m56 0 h10 m0 0 h126 m-212 -10 v20 m222 0 v-20 m-222 20 v24 m222 0 v-24 m-222 24 q0 10 10 10 m202 0 q10 0 10 -10 m-212 10 h10 m94 0 h10 m0 0 h88 m-212 -10 v20 m222 0 v-20 m-222 20 v24 m222 0 v-24 m-222 24 q0 10 10 10 m202 0 q10 0 10 -10 m-212 10 h10 m56 0 h10 m0 0 h10 m106 0 h10 m23 -220 h-3"/>
         <polygon points="411 17 419 13 419 21"/>
         <polygon points="411 17 403 13 403 21"/></svg>
