      <svg xmlns="http://www.w3.org/2000/svg" width="670" height="690">
         <defs>
            <style type="text/css">
               @namespace "http://www.w3.org/2000/svg";
               .line                 {fill: none; stroke: #1F1F1F;}
               .bold-line            {stroke: #0A0A0A; shape-rendering: crispEdges; stroke-width:
               2; }
               .thin-line            {stroke: #0F0F0F; shape-rendering: crispEdges}
               .filled               {fill: #1F1F1F; stroke: none;}
               text.terminal         {font-family: Verdana, Sans-serif;
               font-size: 12px;
               fill: #0A0A0A;
               font-weight: bold;
               }
               text.nonterminal      {font-family: Verdana, Sans-serif;
               font-size: 12px;
               fill: #0D0D0D;
               }
               text.regexp           {font-family: Verdana, Sans-serif;
               font-size: 12px;
               fill: #0F0F0F;
               }
               rect, circle, polygon {fill: #1F1F1F; stroke: #1F1F1F;}
               rect.terminal         {fill: #cccccc; stroke: #1F1F1F;}
               rect.nonterminal      {fill: #E3E3E3; stroke: #1F1F1F;}
               rect.text             {fill: none; stroke: none;}    
               polygon.regexp        {fill: #EFEFEF; stroke: #1F1F1F;}
               
            </style>
         </defs>
         <polygon points="9 61 1 57 1 65"/>
         <polygon points="17 61 9 57 9 65"/>
         <a xmlns:xlink="http://www.w3.org/1999/xlink" xlink:href="#CALL" xlink:title="CALL">
            <rect x="51" y="47" width="50" height="32"/>
            <rect x="49" y="45" width="50" height="32" class="nonterminal"/>
            <text class="nonterminal" x="59" y="65">CALL</text>
         </a>
         <a xmlns:xlink="http://www.w3.org/1999/xlink" xlink:href="#name" xlink:title="name">
            <rect x="141" y="47" width="54" height="32"/>
            <rect x="139" y="45" width="54" height="32" class="nonterminal"/>
            <text class="nonterminal" x="149" y="65">name</text>
         </a>
         <rect x="141" y="91" width="26" height="32" rx="10"/>
         <rect x="139" y="89" width="26" height="32" class="terminal" rx="10"/>
         <text class="terminal" x="149" y="109">(</text>
         <a xmlns:xlink="http://www.w3.org/1999/xlink" xlink:href="#expr" xlink:title="expr">
            <rect x="187" y="91" width="48" height="32"/>
            <rect x="185" y="89" width="48" height="32" class="nonterminal"/>
            <text class="nonterminal" x="195" y="109">expr</text>
         </a>
         <rect x="255" y="91" width="26" height="32" rx="10"/>
         <rect x="253" y="89" width="26" height="32" class="terminal" rx="10"/>
         <text class="terminal" x="263" y="109">)</text>
         <a xmlns:xlink="http://www.w3.org/1999/xlink" xlink:href="#expression" xlink:title="expression">
            <rect x="361" y="47" width="88" height="32"/>
            <rect x="359" y="45" width="88" height="32" class="nonterminal"/>
            <text class="nonterminal" x="369" y="65">expression</text>
         </a>
         <rect x="361" y="3" width="24" height="32" rx="10"/>
         <rect x="359" y="1" width="24" height="32" class="terminal" rx="10"/>
         <text class="terminal" x="369" y="21">,</text>
         <a xmlns:xlink="http://www.w3.org/1999/xlink" xlink:href="#OFF" xlink:title="OFF">
            <rect x="51" y="157" width="44" height="32"/>
            <rect x="49" y="155" width="44" height="32" class="nonterminal"/>
            <text class="nonterminal" x="59" y="175">OFF</text>
         </a>
         <a xmlns:xlink="http://www.w3.org/1999/xlink" xlink:href="#ANY" xlink:title="ANY">
            <rect x="135" y="157" width="44" height="32"/>
            <rect x="133" y="155" width="44" height="32" class="nonterminal"/>
            <text class="nonterminal" x="143" y="175">ANY</text>
         </a>
         <a xmlns:xlink="http://www.w3.org/1999/xlink" xlink:href="#ERROR" xlink:title="ERROR">
            <rect x="135" y="201" width="62" height="32"/>
            <rect x="133" y="199" width="62" height="32" class="nonterminal"/>
            <text class="nonterminal" x="143" y="219">ERROR</text>
         </a>
         <a xmlns:xlink="http://www.w3.org/1999/xlink" xlink:href="#FAILURE" xlink:title="FAILURE">
            <rect x="135" y="245" width="72" height="32"/>
            <rect x="133" y="243" width="72" height="32" class="nonterminal"/>
            <text class="nonterminal" x="143" y="263">FAILURE</text>
         </a>
         <a xmlns:xlink="http://www.w3.org/1999/xlink" xlink:href="#HALT" xlink:title="HALT">
            <rect x="135" y="289" width="50" height="32"/>
            <rect x="133" y="287" width="50" height="32" class="nonterminal"/>
            <text class="nonterminal" x="143" y="307">HALT</text>
         </a>
         <a xmlns:xlink="http://www.w3.org/1999/xlink" xlink:href="#NOTREADY" xlink:title="NOTREADY">
            <rect x="135" y="333" width="86" height="32"/>
            <rect x="133" y="331" width="86" height="32" class="nonterminal"/>
            <text class="nonterminal" x="143" y="351">NOTREADY</text>
         </a>
         <a xmlns:xlink="http://www.w3.org/1999/xlink" xlink:href="#USER" xlink:title="USER">
            <rect x="135" y="377" width="52" height="32"/>
            <rect x="133" y="375" width="52" height="32" class="nonterminal"/>
            <text class="nonterminal" x="143" y="395">USER</text>
         </a>
         <a xmlns:xlink="http://www.w3.org/1999/xlink" xlink:href="#usercondition" xlink:title="usercondition">
            <rect x="207" y="377" width="104" height="32"/>
            <rect x="205" y="375" width="104" height="32" class="nonterminal"/>
            <text class="nonterminal" x="215" y="395">usercondition</text>
         </a>
         <a xmlns:xlink="http://www.w3.org/1999/xlink" xlink:href="#ON" xlink:title="ON">
            <rect x="51" y="421" width="38" height="32"/>
            <rect x="49" y="419" width="38" height="32" class="nonterminal"/>
            <text class="nonterminal" x="59" y="439">ON</text>
         </a>
         <a xmlns:xlink="http://www.w3.org/1999/xlink" xlink:href="#ANY" xlink:title="ANY">
            <rect x="129" y="421" width="44" height="32"/>
            <rect x="127" y="419" width="44" height="32" class="nonterminal"/>
            <text class="nonterminal" x="137" y="439">ANY</text>
         </a>
         <a xmlns:xlink="http://www.w3.org/1999/xlink" xlink:href="#ERROR" xlink:title="ERROR">
            <rect x="129" y="465" width="62" height="32"/>
            <rect x="127" y="463" width="62" height="32" class="nonterminal"/>
            <text class="nonterminal" x="137" y="483">ERROR</text>
         </a>
         <a xmlns:xlink="http://www.w3.org/1999/xlink" xlink:href="#FAILURE" xlink:title="FAILURE">
            <rect x="129" y="509" width="72" height="32"/>
            <rect x="127" y="507" width="72" height="32" class="nonterminal"/>
            <text class="nonterminal" x="137" y="527">FAILURE</text>
         </a>
         <a xmlns:xlink="http://www.w3.org/1999/xlink" xlink:href="#HALT" xlink:title="HALT">
            <rect x="129" y="553" width="50" height="32"/>
            <rect x="127" y="551" width="50" height="32" class="nonterminal"/>
            <text class="nonterminal" x="137" y="571">HALT</text>
         </a>
         <a xmlns:xlink="http://www.w3.org/1999/xlink" xlink:href="#NOTREADY" xlink:title="NOTREADY">
            <rect x="129" y="597" width="86" height="32"/>
            <rect x="127" y="595" width="86" height="32" class="nonterminal"/>
            <text class="nonterminal" x="137" y="615">NOTREADY</text>
         </a>
         <a xmlns:xlink="http://www.w3.org/1999/xlink" xlink:href="#USER" xlink:title="USER">
            <rect x="129" y="641" width="52" height="32"/>
            <rect x="127" y="639" width="52" height="32" class="nonterminal"/>
            <text class="nonterminal" x="137" y="659">USER</text>
         </a>
         <a xmlns:xlink="http://www.w3.org/1999/xlink" xlink:href="#usercondition" xlink:title="usercondition">
            <rect x="221" y="641" width="104" height="32"/>
            <rect x="219" y="639" width="104" height="32" class="nonterminal"/>
            <text class="nonterminal" x="229" y="659">usercondition</text>
         </a>
         <a xmlns:xlink="http://www.w3.org/1999/xlink" xlink:href="#name" xlink:title="name">
            <rect x="405" y="421" width="54" height="32"/>
            <rect x="403" y="419" width="54" height="32" class="nonterminal"/>
            <text class="nonterminal" x="413" y="439">name</text>
         </a>
         <a xmlns:xlink="http://www.w3.org/1999/xlink" xlink:href="#trapname" xlink:title="trapname">
            <rect x="479" y="421" width="80" height="32"/>
            <rect x="477" y="419" width="80" height="32" class="nonterminal"/>
            <text class="nonterminal" x="487" y="439">trapname</text>
         </a>
         <rect x="599" y="421" width="24" height="32" rx="10"/>
         <rect x="597" y="419" width="24" height="32" class="terminal" rx="10"/>
         <text class="terminal" x="607" y="439">;</text>
         <svg:path xmlns:svg="http://www.w3.org/2000/svg" class="line" d="m17 61 h2 m20 0 h10 m50 0 h10 m20 0 h10 m54 0 h10 m0 0 h86 m-180 0 h20 m160 0 h20 m-200 0 q10 0 10 10 m180 0 q0 -10 10 -10 m-190 10 v24 m180 0 v-24 m-180 24 q0 10 10 10 m160 0 q10 0 10 -10 m-170 10 h10 m26 0 h10 m0 0 h10 m48 0 h10 m0 0 h10 m26 0 h10 m-170 -10 v20 m180 0 v-20 m-180 20 v14 m180 0 v-14 m-180 14 q0 10 10 10 m160 0 q10 0 10 -10 m-170 10 h10 m0 0 h150 m60 -78 h10 m88 0 h10 m-128 0 l20 0 m-1 0 q-9 0 -9 -10 l0 -24 q0 -10 10 -10 m108 44 l20 0 m-20 0 q10 0 10 -10 l0 -24 q0 -10 -10 -10 m-108 0 h10 m24 0 h10 m0 0 h64 m-148 44 h20 m148 0 h20 m-188 0 q10 0 10 10 m168 0 q0 -10 10 -10 m-178 10 v14 m168 0 v-14 m-168 14 q0 10 10 10 m148 0 q10 0 10 -10 m-158 10 h10 m0 0 h138 m20 -34 h134 m-612 0 h20 m592 0 h20 m-632 0 q10 0 10 10 m612 0 q0 -10 10 -10 m-622 10 v90 m612 0 v-90 m-612 90 q0 10 10 10 m592 0 q10 0 10 -10 m-602 10 h10 m44 0 h10 m20 0 h10 m44 0 h10 m0 0 h132 m-216 0 h20 m196 0 h20 m-236 0 q10 0 10 10 m216 0 q0 -10 10 -10 m-226 10 v24 m216 0 v-24 m-216 24 q0 10 10 10 m196 0 q10 0 10 -10 m-206 10 h10 m62 0 h10 m0 0 h114 m-206 -10 v20 m216 0 v-20 m-216 20 v24 m216 0 v-24 m-216 24 q0 10 10 10 m196 0 q10 0 10 -10 m-206 10 h10 m72 0 h10 m0 0 h104 m-206 -10 v20 m216 0 v-20 m-216 20 v24 m216 0 v-24 m-216 24 q0 10 10 10 m196 0 q10 0 10 -10 m-206 10 h10 m50 0 h10 m0 0 h126 m-206 -10 v20 m216 0 v-20 m-216 20 v24 m216 0 v-24 m-216 24 q0 10 10 10 m196 0 q10 0 10 -10 m-206 10 h10 m86 0 h10 m0 0 h90 m-206 -10 v20 m216 0 v-20 m-216 20 v24 m216 0 v-24 m-216 24 q0 10 10 10 m196 0 q10 0 10 -10 m-206 10 h10 m52 0 h10 m0 0 h10 m104 0 h10 m20 -220 h292 m-602 -10 v20 m612 0 v-20 m-612 20 v244 m612 0 v-244 m-612 244 q0 10 10 10 m592 0 q10 0 10 -10 m-602 10 h10 m38 0 h10 m20 0 h10 m44 0 h10 m0 0 h172 m-256 0 h20 m236 0 h20 m-276 0 q10 0 10 10 m256 0 q0 -10 10 -10 m-266 10 v24 m256 0 v-24 m-256 24 q0 10 10 10 m236 0 q10 0 10 -10 m-246 10 h10 m62 0 h10 m0 0 h154 m-246 -10 v20 m256 0 v-20 m-256 20 v24 m256 0 v-24 m-256 24 q0 10 10 10 m236 0 q10 0 10 -10 m-246 10 h10 m72 0 h10 m0 0 h144 m-246 -10 v20 m256 0 v-20 m-256 20 v24 m256 0 v-24 m-256 24 q0 10 10 10 m236 0 q10 0 10 -10 m-246 10 h10 m50 0 h10 m0 0 h166 m-246 -10 v20 m256 0 v-20 m-256 20 v24 m256 0 v-24 m-256 24 q0 10 10 10 m236 0 q10 0 10 -10 m-246 10 h10 m86 0 h10 m0 0 h130 m-246 -10 v20 m256 0 v-20 m-256 20 v24 m256 0 v-24 m-256 24 q0 10 10 10 m236 0 q10 0 10 -10 m-246 10 h10 m52 0 h10 m20 0 h10 m104 0 h10 m-144 0 h20 m124 0 h20 m-164 0 q10 0 10 10 m144 0 q0 -10 10 -10 m-154 10 v14 m144 0 v-14 m-144 14 q0 10 10 10 m124 0 q10 0 10 -10 m-134 10 h10 m0 0 h114 m60 -254 h10 m54 0 h10 m0 0 h10 m80 0 h10 m-194 0 h20 m174 0 h20 m-214 0 q10 0 10 10 m194 0 q0 -10 10 -10 m-204 10 v14 m194 0 v-14 m-194 14 q0 10 10 10 m174 0 q10 0 10 -10 m-184 10 h10 m0 0 h164 m20 -34 h10 m24 0 h10 m23 -374 h-3"/>
         <polygon points="661 61 669 57 669 65"/>
         <polygon points="661 61 653 57 653 65"/>
      </svg>
