      <svg xmlns="http://www.w3.org/2000/svg" width="500" height="114">
         <defs>
            <style type="text/css">
               @namespace "http://www.w3.org/2000/svg";
               .line                 {fill: none; stroke: #1F1F1F;}
               .bold-line            {stroke: #0A0A0A; shape-rendering: crispEdges; stroke-width:
               2; }
               .thin-line            {stroke: #0F0F0F; shape-rendering: crispEdges}
               .filled               {fill: #1F1F1F; stroke: none;}
               text.terminal         {font-family: Verdana, Sans-serif;
               font-size: 12px;
               fill: #0A0A0A;
               font-weight: bold;
               }
               text.nonterminal      {font-family: Verdana, Sans-serif; font-style: italic;
               font-size: 12px;
               fill: #0D0D0D;
               }
               text.regexp           {font-family: Verdana, Sans-serif;
               font-size: 12px;
               fill: #0F0F0F;
               }
               rect, circle, polygon {fill: #1F1F1F; stroke: #1F1F1F;}
               rect.terminal         {fill: #CCCCCC; stroke: #1F1F1F;}
               rect.nonterminal      {fill: #E3E3E3; stroke: #1F1F1F;}
               rect.text             {fill: none; stroke: none;}    
               polygon.regexp        {fill: #EFEFEF; stroke: #1F1F1F;}
               
            </style>
         </defs>
         <polygon points="9 51 1 47 1 55"/>
         <polygon points="17 51 9 47 9 55"/>
         <rect x="31" y="37" width="54" height="32" rx="10"/>
         <rect x="29" y="35" width="54" height="32" class="terminal" rx="10"/>
         <text class="terminal" x="39" y="55">CALL</text>
<!--     <a xmlns:xlink="http://www.w3.org/1999/xlink" xlink:href="#name" xlink:title="name"> -->
            <rect x="125" y="37" width="54" height="32"/>
            <rect x="123" y="35" width="54" height="32" class="nonterminal"/>
            <text class="nonterminal" x="133" y="55">name</text>
<!--     </a> -->
         <rect x="125" y="81" width="26" height="32" rx="10"/>
         <rect x="123" y="79" width="26" height="32" class="terminal" rx="10"/>
         <text class="terminal" x="133" y="99">(</text>
<!--     <a xmlns:xlink="http://www.w3.org/1999/xlink" xlink:href="#expr" xlink:title="expr"> -->
            <rect x="171" y="81" width="48" height="32"/>
            <rect x="169" y="79" width="48" height="32" class="nonterminal"/>
            <text class="nonterminal" x="179" y="99">expr</text>
<!--     </a> -->
         <rect x="239" y="81" width="26" height="32" rx="10"/>
         <rect x="237" y="79" width="26" height="32" class="terminal" rx="10"/>
         <text class="terminal" x="247" y="99">)</text>
<!--     <a xmlns:xlink="http://www.w3.org/1999/xlink" xlink:href="#expression" xlink:title="expression"> -->
            <rect x="345" y="69" width="88" height="32"/>
            <rect x="343" y="67" width="88" height="32" class="nonterminal"/>
            <text class="nonterminal" x="353" y="87">expression</text>
<!--     </a> -->
         <rect x="325" y="3" width="24" height="32" rx="10"/>
         <rect x="323" y="1" width="24" height="32" class="terminal" rx="10"/>
         <text class="terminal" x="333" y="21">,</text>
         <svg:path xmlns:svg="http://www.w3.org/2000/svg" class="line" d="m17 51 h2 m0 0 h10 m54 0 h10 m20 0 h10 m54 0 h10 m0 0 h86 m-180 0 h20 m160 0 h20 m-200 0 q10 0 10 10 m180 0 q0 -10 10 -10 m-190 10 v24 m180 0 v-24 m-180 24 q0 10 10 10 m160 0 q10 0 10 -10 m-170 10 h10 m26 0 h10 m0 0 h10 m48 0 h10 m0 0 h10 m26 0 h10 m60 -44 h10 m0 0 h98 m-128 0 h20 m108 0 h20 m-148 0 q10 0 10 10 m128 0 q0 -10 10 -10 m-138 10 v12 m128 0 v-12 m-128 12 q0 10 10 10 m108 0 q10 0 10 -10 m-118 10 h10 m88 0 h10 m-148 -32 l20 0 m-1 0 q-9 0 -9 -10 l0 -14 q0 -10 10 -10 m148 34 l20 0 m-20 0 q10 0 10 -10 l0 -14 q0 -10 -10 -10 m-148 0 h10 m24 0 h10 m0 0 h104 m23 34 h-3"/>
         <polygon points="491 51 499 47 499 55"/>
         <polygon points="491 51 483 47 483 55"/>
      </svg>
