      <svg xmlns="http://www.w3.org/2000/svg" width="622" height="256">
         <defs>
            <style type="text/css">
               @namespace "http://www.w3.org/2000/svg";
               .line                 {fill: none; stroke: #1F1F1F;}
               .bold-line            {stroke: #0A0A0A; shape-rendering: crispEdges; stroke-width:
               2; }
               .thin-line            {stroke: #0F0F0F; shape-rendering: crispEdges}
               .filled               {fill: #1F1F1F; stroke: none;}
               text.terminal         {font-family: Verdana, Sans-serif;
               font-size: 12px;
               fill: #0A0A0A;
               font-weight: bold;
               }
               text.nonterminal      {font-family: Verdana, Sans-serif; font-style: italic;
               font-size: 12px;
               fill: #0D0D0D;
               }
               text.regexp           {font-family: Verdana, Sans-serif;
               font-size: 12px;
               fill: #0F0F0F;
               }
               rect, circle, polygon {fill: #1F1F1F; stroke: #1F1F1F;}
               rect.terminal         {fill: #CCCCCC; stroke: #1F1F1F;}
               rect.nonterminal      {fill: #E3E3E3; stroke: #1F1F1F;}
               rect.text             {fill: none; stroke: none;}    
               polygon.regexp        {fill: #EFEFEF; stroke: #1F1F1F;}
               
            </style>
         </defs>
         <polygon points="9 17 1 13 1 21"/>
         <polygon points="17 17 9 13 9 21"/>
         <rect x="31" y="3" width="54" height="32" rx="10"/>
         <rect x="29" y="1" width="54" height="32" class="terminal" rx="10"/>
         <text class="terminal" x="39" y="21">CALL</text>
         <rect x="105" y="3" width="40" height="32" rx="10"/>
         <rect x="103" y="1" width="40" height="32" class="terminal" rx="10"/>
         <text class="terminal" x="113" y="21">ON</text>
         <rect x="185" y="3" width="48" height="32" rx="10"/>
         <rect x="183" y="1" width="48" height="32" class="terminal" rx="10"/>
         <text class="terminal" x="193" y="21">ANY</text>
         <rect x="185" y="47" width="66" height="32" rx="10"/>
         <rect x="183" y="45" width="66" height="32" class="terminal" rx="10"/>
         <text class="terminal" x="193" y="65">ERROR</text>
         <rect x="185" y="91" width="78" height="32" rx="10"/>
         <rect x="183" y="89" width="78" height="32" class="terminal" rx="10"/>
         <text class="terminal" x="193" y="109">FAILURE</text>
         <rect x="185" y="135" width="54" height="32" rx="10"/>
         <rect x="183" y="133" width="54" height="32" class="terminal" rx="10"/>
         <text class="terminal" x="193" y="153">HALT</text>
         <rect x="185" y="179" width="94" height="32" rx="10"/>
         <rect x="183" y="177" width="94" height="32" class="terminal" rx="10"/>
         <text class="terminal" x="193" y="197">NOTREADY</text>
         <rect x="185" y="223" width="56" height="32" rx="10"/>
         <rect x="183" y="221" width="56" height="32" class="terminal" rx="10"/>
         <text class="terminal" x="193" y="241">USER</text>
<!--     <a xmlns:xlink="http://www.w3.org/1999/xlink" xlink:href="#usercondition" xlink:title="usercondition"> -->
            <rect x="261" y="223" width="98" height="32"/>
            <rect x="259" y="221" width="98" height="32" class="nonterminal"/>
            <text class="nonterminal" x="269" y="241">usercondition</text>
<!--     </a> -->
         <rect x="419" y="35" width="58" height="32" rx="10"/>
         <rect x="417" y="33" width="58" height="32" class="terminal" rx="10"/>
         <text class="terminal" x="427" y="53">NAME</text>
<!--     <a xmlns:xlink="http://www.w3.org/1999/xlink" xlink:href="#trapname" xlink:title="trapname"> -->
            <rect x="497" y="35" width="78" height="32"/>
            <rect x="495" y="33" width="78" height="32" class="nonterminal"/>
            <text class="nonterminal" x="505" y="53">trapname</text>
<!--     </a> -->
         <svg:path xmlns:svg="http://www.w3.org/2000/svg" class="line" d="m17 17 h2 m0 0 h10 m54 0 h10 m0 0 h10 m40 0 h10 m20 0 h10 m48 0 h10 m0 0 h126 m-214 0 h20 m194 0 h20 m-234 0 q10 0 10 10 m214 0 q0 -10 10 -10 m-224 10 v24 m214 0 v-24 m-214 24 q0 10 10 10 m194 0 q10 0 10 -10 m-204 10 h10 m66 0 h10 m0 0 h108 m-204 -10 v20 m214 0 v-20 m-214 20 v24 m214 0 v-24 m-214 24 q0 10 10 10 m194 0 q10 0 10 -10 m-204 10 h10 m78 0 h10 m0 0 h96 m-204 -10 v20 m214 0 v-20 m-214 20 v24 m214 0 v-24 m-214 24 q0 10 10 10 m194 0 q10 0 10 -10 m-204 10 h10 m54 0 h10 m0 0 h120 m-204 -10 v20 m214 0 v-20 m-214 20 v24 m214 0 v-24 m-214 24 q0 10 10 10 m194 0 q10 0 10 -10 m-204 10 h10 m94 0 h10 m0 0 h80 m-204 -10 v20 m214 0 v-20 m-214 20 v24 m214 0 v-24 m-214 24 q0 10 10 10 m194 0 q10 0 10 -10 m-204 10 h10 m56 0 h10 m0 0 h10 m98 0 h10 m40 -220 h10 m0 0 h166 m-196 0 h20 m176 0 h20 m-216 0 q10 0 10 10 m196 0 q0 -10 10 -10 m-206 10 v12 m196 0 v-12 m-196 12 q0 10 10 10 m176 0 q10 0 10 -10 m-186 10 h10 m58 0 h10 m0 0 h10 m78 0 h10 m23 -32 h-3"/>
         <polygon points="613 17 621 13 621 21"/>
         <polygon points="613 17 605 13 605 21"/>
      </svg>
