      <svg xmlns="http://www.w3.org/2000/svg" width="462" height="256">
         <defs>
            <style type="text/css">
               @namespace "http://www.w3.org/2000/svg";
               .line                 {fill: none; stroke: #1F1F1F;}
               .bold-line            {stroke: #0A0A0A; shape-rendering: crispEdges; stroke-width:
               2; }
               .thin-line            {stroke: #0F0F0F; shape-rendering: crispEdges}
               .filled               {fill: #1F1F1F; stroke: none;}
               text.terminal         {font-family: Verdana, Sans-serif;
               font-size: 12px;
               fill: #0A0A0A;
               font-weight: bold;
               }
               text.nonterminal      {font-family: Verdana, Sans-serif; font-style: italic;
               font-size: 12px;
               fill: #0D0D0D;
               }
               text.regexp           {font-family: Verdana, Sans-serif;
               font-size: 12px;
               fill: #0F0F0F;
               }
               rect, circle, polygon {fill: #1F1F1F; stroke: #1F1F1F;}
               rect.terminal         {fill: #CCCCCC; stroke: #1F1F1F;}
               rect.nonterminal      {fill: #E3E3E3; stroke: #1F1F1F;}
               rect.text             {fill: none; stroke: none;}    
               polygon.regexp        {fill: #EFEFEF; stroke: #1F1F1F;}
               
            </style>
         </defs>
         <polygon points="9 17 1 13 1 21"/>
         <polygon points="17 17 9 13 9 21"/>
         <rect x="31" y="3" width="54" height="32" rx="10"/>
         <rect x="29" y="1" width="54" height="32" class="terminal" rx="10"/>
         <text class="terminal" x="39" y="21">CALL</text>
         <rect x="105" y="3" width="46" height="32" rx="10"/>
         <rect x="103" y="1" width="46" height="32" class="terminal" rx="10"/>
         <text class="terminal" x="113" y="21">OFF</text>
         <rect x="191" y="3" width="48" height="32" rx="10"/>
         <rect x="189" y="1" width="48" height="32" class="terminal" rx="10"/>
         <text class="terminal" x="199" y="21">ANY</text>
         <rect x="191" y="47" width="66" height="32" rx="10"/>
         <rect x="189" y="45" width="66" height="32" class="terminal" rx="10"/>
         <text class="terminal" x="199" y="65">ERROR</text>
         <rect x="191" y="91" width="78" height="32" rx="10"/>
         <rect x="189" y="89" width="78" height="32" class="terminal" rx="10"/>
         <text class="terminal" x="199" y="109">FAILURE</text>
         <rect x="191" y="135" width="54" height="32" rx="10"/>
         <rect x="189" y="133" width="54" height="32" class="terminal" rx="10"/>
         <text class="terminal" x="199" y="153">HALT</text>
         <rect x="191" y="179" width="94" height="32" rx="10"/>
         <rect x="189" y="177" width="94" height="32" class="terminal" rx="10"/>
         <text class="terminal" x="199" y="197">NOTREADY</text>
         <rect x="191" y="223" width="56" height="32" rx="10"/>
         <rect x="189" y="221" width="56" height="32" class="terminal" rx="10"/>
         <text class="terminal" x="199" y="241">USER</text>
<!--     <a xmlns:xlink="http://www.w3.org/1999/xlink" xlink:href="#usercondition" xlink:title="usercondition"> -->
            <rect x="267" y="223" width="104" height="32"/>
            <rect x="265" y="221" width="104" height="32" class="nonterminal"/>
            <text class="nonterminal" x="275" y="241">usercondition</text>
<!--     </a> -->
         <rect x="411" y="3" width="24" height="32" rx="10"/>
         <rect x="409" y="1" width="24" height="32" class="terminal" rx="10"/>
         <text class="terminal" x="419" y="21">;</text>
         <svg:path xmlns:svg="http://www.w3.org/2000/svg" class="line" d="m17 17 h2 m0 0 h10 m54 0 h10 m0 0 h10 m46 0 h10 m20 0 h10 m48 0 h10 m0 0 h132 m-220 0 h20 m200 0 h20 m-240 0 q10 0 10 10 m220 0 q0 -10 10 -10 m-230 10 v24 m220 0 v-24 m-220 24 q0 10 10 10 m200 0 q10 0 10 -10 m-210 10 h10 m66 0 h10 m0 0 h114 m-210 -10 v20 m220 0 v-20 m-220 20 v24 m220 0 v-24 m-220 24 q0 10 10 10 m200 0 q10 0 10 -10 m-210 10 h10 m78 0 h10 m0 0 h102 m-210 -10 v20 m220 0 v-20 m-220 20 v24 m220 0 v-24 m-220 24 q0 10 10 10 m200 0 q10 0 10 -10 m-210 10 h10 m54 0 h10 m0 0 h126 m-210 -10 v20 m220 0 v-20 m-220 20 v24 m220 0 v-24 m-220 24 q0 10 10 10 m200 0 q10 0 10 -10 m-210 10 h10 m94 0 h10 m0 0 h86 m-210 -10 v20 m220 0 v-20 m-220 20 v24 m220 0 v-24 m-220 24 q0 10 10 10 m200 0 q10 0 10 -10 m-210 10 h10 m56 0 h10 m0 0 h10 m104 0 h10 m20 -220 h10 m24 0 h10 m3 0 h-3"/>
         <polygon points="453 17 461 13 461 21"/>
         <polygon points="453 17 445 13 445 21"/>
      </svg>
