      <svg xmlns="http://www.w3.org/2000/svg" width="714" height="652">
         <defs>
            <style type="text/css">
               @namespace "http://www.w3.org/2000/svg";
               .line                 {fill: none; stroke: #1F1F1F;}
               .bold-line            {stroke: #0A0A0A; shape-rendering: crispEdges; stroke-width:
               2; }
               .thin-line            {stroke: #0F0F0F; shape-rendering: crispEdges}
               .filled               {fill: #1F1F1F; stroke: none;}
               text.terminal         {font-family: Verdana, Sans-serif;
               font-size: 12px;
               fill: #0A0A0A;
               font-weight: bold;
               }
               text.nonterminal      {font-family: Verdana, Sans-serif; font-style: italic;
               font-size: 12px;
               fill: #0D0D0D;
               }
               text.regexp           {font-family: Verdana, Sans-serif;
               font-size: 12px;
               fill: #0F0F0F;
               }
               rect, circle, polygon {fill: #1F1F1F; stroke: #1F1F1F;}
               rect.terminal         {fill: #CCCCCC; stroke: #1F1F1F;}
               rect.nonterminal      {fill: #E3E3E3; stroke: #1F1F1F;}
               rect.text             {fill: none; stroke: none;}    
               polygon.regexp        {fill: #EFEFEF; stroke: #1F1F1F;}
               
            </style>
         </defs>
         <polygon points="9 61 1 57 1 65"/>
         <polygon points="17 61 9 57 9 65"/>
         <rect x="31" y="47" width="54" height="32" rx="10"/>
         <rect x="29" y="45" width="54" height="32" class="terminal" rx="10"/>
         <text class="terminal" x="39" y="65">CALL</text>
<!--     <a xmlns:xlink="http://www.w3.org/1999/xlink" xlink:href="#name" xlink:title="name"> -->
            <rect x="145" y="47" width="54" height="32"/>
            <rect x="143" y="45" width="54" height="32" class="nonterminal"/>
            <text class="nonterminal" x="153" y="65">name</text>
<!--     </a> -->
         <rect x="145" y="91" width="26" height="32" rx="10"/>
         <rect x="143" y="89" width="26" height="32" class="terminal" rx="10"/>
         <text class="terminal" x="153" y="109">(</text>
<!--     <a xmlns:xlink="http://www.w3.org/1999/xlink" xlink:href="#expr" xlink:title="expr"> -->
            <rect x="191" y="91" width="48" height="32"/>
            <rect x="189" y="89" width="48" height="32" class="nonterminal"/>
            <text class="nonterminal" x="199" y="109">expr</text>
<!--     </a> -->
         <rect x="259" y="91" width="26" height="32" rx="10"/>
         <rect x="257" y="89" width="26" height="32" class="terminal" rx="10"/>
         <text class="terminal" x="267" y="109">)</text>
<!--     <a xmlns:xlink="http://www.w3.org/1999/xlink" xlink:href="#expression" xlink:title="expression"> -->
            <rect x="365" y="47" width="88" height="32"/>
            <rect x="363" y="45" width="88" height="32" class="nonterminal"/>
            <text class="nonterminal" x="373" y="65">expression</text>
<!--     </a> -->
         <rect x="365" y="3" width="24" height="32" rx="10"/>
         <rect x="363" y="1" width="24" height="32" class="terminal" rx="10"/>
         <text class="terminal" x="373" y="21">,</text>
         <rect x="125" y="135" width="46" height="32" rx="10"/>
         <rect x="123" y="133" width="46" height="32" class="terminal" rx="10"/>
         <text class="terminal" x="133" y="153">OFF</text>
         <rect x="211" y="135" width="48" height="32" rx="10"/>
         <rect x="209" y="133" width="48" height="32" class="terminal" rx="10"/>
         <text class="terminal" x="219" y="153">ANY</text>
         <rect x="211" y="179" width="66" height="32" rx="10"/>
         <rect x="209" y="177" width="66" height="32" class="terminal" rx="10"/>
         <text class="terminal" x="219" y="197">ERROR</text>
         <rect x="211" y="223" width="78" height="32" rx="10"/>
         <rect x="209" y="221" width="78" height="32" class="terminal" rx="10"/>
         <text class="terminal" x="219" y="241">FAILURE</text>
         <rect x="211" y="267" width="54" height="32" rx="10"/>
         <rect x="209" y="265" width="54" height="32" class="terminal" rx="10"/>
         <text class="terminal" x="219" y="285">HALT</text>
         <rect x="211" y="311" width="94" height="32" rx="10"/>
         <rect x="209" y="309" width="94" height="32" class="terminal" rx="10"/>
         <text class="terminal" x="219" y="329">NOTREADY</text>
         <rect x="211" y="355" width="56" height="32" rx="10"/>
         <rect x="209" y="353" width="56" height="32" class="terminal" rx="10"/>
         <text class="terminal" x="219" y="373">USER</text>
<!--     <a xmlns:xlink="http://www.w3.org/1999/xlink" xlink:href="#usercondition" xlink:title="usercondition"> -->
            <rect x="287" y="355" width="104" height="32"/>
            <rect x="285" y="353" width="104" height="32" class="nonterminal"/>
            <text class="nonterminal" x="295" y="373">usercondition</text>
<!--     </a> -->
         <rect x="125" y="399" width="40" height="32" rx="10"/>
         <rect x="123" y="397" width="40" height="32" class="terminal" rx="10"/>
         <text class="terminal" x="133" y="417">ON</text>
         <rect x="205" y="399" width="48" height="32" rx="10"/>
         <rect x="203" y="397" width="48" height="32" class="terminal" rx="10"/>
         <text class="terminal" x="213" y="417">ANY</text>
         <rect x="205" y="443" width="66" height="32" rx="10"/>
         <rect x="203" y="441" width="66" height="32" class="terminal" rx="10"/>
         <text class="terminal" x="213" y="461">ERROR</text>
         <rect x="205" y="487" width="78" height="32" rx="10"/>
         <rect x="203" y="485" width="78" height="32" class="terminal" rx="10"/>
         <text class="terminal" x="213" y="505">FAILURE</text>
         <rect x="205" y="531" width="54" height="32" rx="10"/>
         <rect x="203" y="529" width="54" height="32" class="terminal" rx="10"/>
         <text class="terminal" x="213" y="549">HALT</text>
         <rect x="205" y="575" width="94" height="32" rx="10"/>
         <rect x="203" y="573" width="94" height="32" class="terminal" rx="10"/>
         <text class="terminal" x="213" y="593">NOTREADY</text>
         <rect x="205" y="619" width="56" height="32" rx="10"/>
         <rect x="203" y="617" width="56" height="32" class="terminal" rx="10"/>
         <text class="terminal" x="213" y="637">USER</text>
<!--     <a xmlns:xlink="http://www.w3.org/1999/xlink" xlink:href="#usercondition" xlink:title="usercondition"> -->
            <rect x="281" y="619" width="104" height="32"/>
            <rect x="279" y="617" width="104" height="32" class="nonterminal"/>
            <text class="nonterminal" x="289" y="637">usercondition</text>
<!--     </a> -->
         <rect x="445" y="399" width="58" height="32" rx="10"/>
         <rect x="443" y="397" width="58" height="32" class="terminal" rx="10"/>
         <text class="terminal" x="453" y="417">NAME</text>
<!--     <a xmlns:xlink="http://www.w3.org/1999/xlink" xlink:href="#trapname" xlink:title="trapname"> -->
            <rect x="523" y="399" width="80" height="32"/>
            <rect x="521" y="397" width="80" height="32" class="nonterminal"/>
            <text class="nonterminal" x="531" y="417">trapname</text>
<!--     </a> -->
         <rect x="663" y="47" width="24" height="32" rx="10"/>
         <rect x="661" y="45" width="24" height="32" class="terminal" rx="10"/>
         <text class="terminal" x="671" y="65">;</text>
         <svg:path xmlns:svg="http://www.w3.org/2000/svg" class="line" d="m17 61 h2 m0 0 h10 m54 0 h10 m40 0 h10 m54 0 h10 m0 0 h86 m-180 0 h20 m160 0 h20 m-200 0 q10 0 10 10 m180 0 q0 -10 10 -10 m-190 10 v24 m180 0 v-24 m-180 24 q0 10 10 10 m160 0 q10 0 10 -10 m-170 10 h10 m26 0 h10 m0 0 h10 m48 0 h10 m0 0 h10 m26 0 h10 m60 -44 h10 m88 0 h10 m-128 0 l20 0 m-1 0 q-9 0 -9 -10 l0 -24 q0 -10 10 -10 m108 44 l20 0 m-20 0 q10 0 10 -10 l0 -24 q0 -10 -10 -10 m-108 0 h10 m24 0 h10 m0 0 h64 m-148 44 h20 m148 0 h20 m-188 0 q10 0 10 10 m168 0 q0 -10 10 -10 m-178 10 v14 m168 0 v-14 m-168 14 q0 10 10 10 m148 0 q10 0 10 -10 m-158 10 h10 m0 0 h138 m20 -34 h130 m-538 0 h20 m518 0 h20 m-558 0 q10 0 10 10 m538 0 q0 -10 10 -10 m-548 10 v68 m538 0 v-68 m-538 68 q0 10 10 10 m518 0 q10 0 10 -10 m-528 10 h10 m46 0 h10 m20 0 h10 m48 0 h10 m0 0 h132 m-220 0 h20 m200 0 h20 m-240 0 q10 0 10 10 m220 0 q0 -10 10 -10 m-230 10 v24 m220 0 v-24 m-220 24 q0 10 10 10 m200 0 q10 0 10 -10 m-210 10 h10 m66 0 h10 m0 0 h114 m-210 -10 v20 m220 0 v-20 m-220 20 v24 m220 0 v-24 m-220 24 q0 10 10 10 m200 0 q10 0 10 -10 m-210 10 h10 m78 0 h10 m0 0 h102 m-210 -10 v20 m220 0 v-20 m-220 20 v24 m220 0 v-24 m-220 24 q0 10 10 10 m200 0 q10 0 10 -10 m-210 10 h10 m54 0 h10 m0 0 h126 m-210 -10 v20 m220 0 v-20 m-220 20 v24 m220 0 v-24 m-220 24 q0 10 10 10 m200 0 q10 0 10 -10 m-210 10 h10 m94 0 h10 m0 0 h86 m-210 -10 v20 m220 0 v-20 m-220 20 v24 m220 0 v-24 m-220 24 q0 10 10 10 m200 0 q10 0 10 -10 m-210 10 h10 m56 0 h10 m0 0 h10 m104 0 h10 m20 -220 h212 m-528 -10 v20 m538 0 v-20 m-538 20 v244 m538 0 v-244 m-538 244 q0 10 10 10 m518 0 q10 0 10 -10 m-528 10 h10 m40 0 h10 m20 0 h10 m48 0 h10 m0 0 h132 m-220 0 h20 m200 0 h20 m-240 0 q10 0 10 10 m220 0 q0 -10 10 -10 m-230 10 v24 m220 0 v-24 m-220 24 q0 10 10 10 m200 0 q10 0 10 -10 m-210 10 h10 m66 0 h10 m0 0 h114 m-210 -10 v20 m220 0 v-20 m-220 20 v24 m220 0 v-24 m-220 24 q0 10 10 10 m200 0 q10 0 10 -10 m-210 10 h10 m78 0 h10 m0 0 h102 m-210 -10 v20 m220 0 v-20 m-220 20 v24 m220 0 v-24 m-220 24 q0 10 10 10 m200 0 q10 0 10 -10 m-210 10 h10 m54 0 h10 m0 0 h126 m-210 -10 v20 m220 0 v-20 m-220 20 v24 m220 0 v-24 m-220 24 q0 10 10 10 m200 0 q10 0 10 -10 m-210 10 h10 m94 0 h10 m0 0 h86 m-210 -10 v20 m220 0 v-20 m-220 20 v24 m220 0 v-24 m-220 24 q0 10 10 10 m200 0 q10 0 10 -10 m-210 10 h10 m56 0 h10 m0 0 h10 m104 0 h10 m40 -220 h10 m58 0 h10 m0 0 h10 m80 0 h10 m-198 0 h20 m178 0 h20 m-218 0 q10 0 10 10 m198 0 q0 -10 10 -10 m-208 10 v14 m198 0 v-14 m-198 14 q0 10 10 10 m178 0 q10 0 10 -10 m-188 10 h10 m0 0 h168 m40 -386 h10 m24 0 h10 m3 0 h-3"/>
         <polygon points="705 61 713 57 713 65"/>
         <polygon points="705 61 697 57 697 65"/>
      </svg>
