      <svg xmlns="http://www.w3.org/2000/svg" width="926" height="178">
         <defs>
            <style type="text/css">
               @namespace "http://www.w3.org/2000/svg";
               .line                 {fill: none; stroke: #1F1F1F;}
               .bold-line            {stroke: #0A0A0A; shape-rendering: crispEdges; stroke-width:
               2; }
               .thin-line            {stroke: #0F0F0F; shape-rendering: crispEdges}
               .filled               {fill: #1F1F1F; stroke: none;}
               text.terminal         {font-family: Verdana, Sans-serif;
               font-size: 12px;
               fill: #0A0A0A;
               font-weight: bold;
               }
               text.nonterminal      {font-family: Verdana, Sans-serif;
               font-size: 12px;
               fill: #0D0D0D;
               }
               text.regexp           {font-family: Verdana, Sans-serif;
               font-size: 12px;
               fill: #0F0F0F;
               }
               rect, circle, polygon {fill: #1F1F1F; stroke: #1F1F1F;}
               rect.terminal         {fill: #CCCCCC; stroke: #1F1F1F;}
               rect.nonterminal      {fill: #E3E3E3; stroke: #1F1F1F;}
               rect.text             {fill: none; stroke: none;}    
               polygon.regexp        {fill: #EFEFEF; stroke: #1F1F1F;}
               
            </style>
         </defs>
         <polygon points="9 61 1 57 1 65"/>
         <polygon points="17 61 9 57 9 65"/>
         <a xmlns:xlink="http://www.w3.org/1999/xlink" xlink:href="#DO" xlink:title="DO">
            <rect x="31" y="47" width="38" height="32"/>
            <rect x="29" y="45" width="38" height="32" class="nonterminal"/>
            <text class="nonterminal" x="39" y="65">DO</text>
         </a>
         <a xmlns:xlink="http://www.w3.org/1999/xlink" xlink:href="#LABEL" xlink:title="LABEL">
            <rect x="109" y="47" width="58" height="32"/>
            <rect x="107" y="45" width="58" height="32" class="nonterminal"/>
            <text class="nonterminal" x="117" y="65">LABEL</text>
         </a>
         <a xmlns:xlink="http://www.w3.org/1999/xlink" xlink:href="#name" xlink:title="name">
            <rect x="187" y="47" width="54" height="32"/>
            <rect x="185" y="45" width="54" height="32" class="nonterminal"/>
            <text class="nonterminal" x="195" y="65">name</text>
         </a>
         <a xmlns:xlink="http://www.w3.org/1999/xlink" xlink:href="#repetitor" xlink:title="repetitor">
            <rect x="301" y="47" width="74" height="32"/>
            <rect x="299" y="45" width="74" height="32" class="nonterminal"/>
            <text class="nonterminal" x="309" y="65">repetitor</text>
         </a>
         <a xmlns:xlink="http://www.w3.org/1999/xlink" xlink:href="#conditional" xlink:title="conditional">
            <rect x="435" y="47" width="88" height="32"/>
            <rect x="433" y="45" width="88" height="32" class="nonterminal"/>
            <text class="nonterminal" x="443" y="65">conditional</text>
         </a>
         <rect x="563" y="47" width="24" height="32" rx="10"/>
         <rect x="561" y="45" width="24" height="32" class="terminal" rx="10"/>
         <text class="terminal" x="571" y="65">;</text>
         <a xmlns:xlink="http://www.w3.org/1999/xlink" xlink:href="#instruction" xlink:title="instruction">
            <rect x="607" y="47" width="86" height="32"/>
            <rect x="605" y="45" width="86" height="32" class="nonterminal"/>
            <text class="nonterminal" x="615" y="65">instruction</text>
         </a>
         <rect x="733" y="47" width="24" height="32" rx="10"/>
         <rect x="731" y="45" width="24" height="32" class="terminal" rx="10"/>
         <text class="terminal" x="741" y="65">;</text>
         <a xmlns:xlink="http://www.w3.org/1999/xlink" xlink:href="#instruction" xlink:title="instruction">
            <rect x="733" y="3" width="86" height="32"/>
            <rect x="731" y="1" width="86" height="32" class="nonterminal"/>
            <text class="nonterminal" x="741" y="21">instruction</text>
         </a>
         <a xmlns:xlink="http://www.w3.org/1999/xlink" xlink:href="#END" xlink:title="END">
            <rect x="859" y="47" width="46" height="32"/>
            <rect x="857" y="45" width="46" height="32" class="nonterminal"/>
            <text class="nonterminal" x="867" y="65">END</text>
         </a>
         <a xmlns:xlink="http://www.w3.org/1999/xlink" xlink:href="#name" xlink:title="name">
            <rect x="781" y="129" width="54" height="32"/>
            <rect x="779" y="127" width="54" height="32" class="nonterminal"/>
            <text class="nonterminal" x="789" y="147">name</text>
         </a>
         <rect x="875" y="129" width="24" height="32" rx="10"/>
         <rect x="873" y="127" width="24" height="32" class="terminal" rx="10"/>
         <text class="terminal" x="883" y="147">;</text>
         <svg:path xmlns:svg="http://www.w3.org/2000/svg" class="line" d="m17 61 h2 m0 0 h10 m38 0 h10 m20 0 h10 m58 0 h10 m0 0 h10 m54 0 h10 m-172 0 h20 m152 0 h20 m-192 0 q10 0 10 10 m172 0 q0 -10 10 -10 m-182 10 v14 m172 0 v-14 m-172 14 q0 10 10 10 m152 0 q10 0 10 -10 m-162 10 h10 m0 0 h142 m40 -34 h10 m74 0 h10 m-114 0 h20 m94 0 h20 m-134 0 q10 0 10 10 m114 0 q0 -10 10 -10 m-124 10 v14 m114 0 v-14 m-114 14 q0 10 10 10 m94 0 q10 0 10 -10 m-104 10 h10 m0 0 h84 m40 -34 h10 m88 0 h10 m-128 0 h20 m108 0 h20 m-148 0 q10 0 10 10 m128 0 q0 -10 10 -10 m-138 10 v14 m128 0 v-14 m-128 14 q0 10 10 10 m108 0 q10 0 10 -10 m-118 10 h10 m0 0 h98 m20 -34 h10 m24 0 h10 m0 0 h10 m86 0 h10 m20 0 h10 m24 0 h10 m0 0 h62 m-126 0 l20 0 m-1 0 q-9 0 -9 -10 l0 -24 q0 -10 10 -10 m106 44 l20 0 m-20 0 q10 0 10 -10 l0 -24 q0 -10 -10 -10 m-106 0 h10 m86 0 h10 m20 44 h10 m46 0 h10 m2 0 l2 0 m2 0 l2 0 m2 0 l2 0 m-188 82 l2 0 m2 0 l2 0 m2 0 l2 0 m22 0 h10 m54 0 h10 m-94 0 h20 m74 0 h20 m-114 0 q10 0 10 10 m94 0 q0 -10 10 -10 m-104 10 v14 m94 0 v-14 m-94 14 q0 10 10 10 m74 0 q10 0 10 -10 m-84 10 h10 m0 0 h64 m20 -34 h10 m24 0 h10 m3 0 h-3"/>
         <polygon points="917 143 925 139 925 147"/>
         <polygon points="917 143 909 139 909 147"/>
      </svg>
