      <svg xmlns="http://www.w3.org/2000/svg" width="968" height="206">
         <defs>
            <style type="text/css">
               @namespace "http://www.w3.org/2000/svg";
               .line                 {fill: none; stroke: #1F1F1F;}
               .bold-line            {stroke: #0A0A0A; shape-rendering: crispEdges; stroke-width:
               2; }
               .thin-line            {stroke: #0F0F0F; shape-rendering: crispEdges}
               .filled               {fill: #1F1F1F; stroke: none;}
               text.terminal         {font-family: Verdana, Sans-serif;
               font-size: 12px;
               fill: #0A0A0A;
               font-weight: bold;
               }
               text.nonterminal      {font-family: Verdana, Sans-serif; font-style: italic;
               font-size: 12px;
               fill: #0D0D0D;
               }
               text.regexp           {font-family: Verdana, Sans-serif;
               font-size: 12px;
               fill: #0F0F0F;
               }
               rect, circle, polygon {fill: #1F1F1F; stroke: #1F1F1F;}
               rect.terminal         {fill: #CCCCCC; stroke: #1F1F1F;}
               rect.nonterminal      {fill: #E3E3E3; stroke: #1F1F1F;}
               rect.text             {fill: none; stroke: none;}    
               polygon.regexp        {fill: #EFEFEF; stroke: #1F1F1F;}
               
            </style>
         </defs>
         <polygon points="9 61 1 57 1 65"/>
         <polygon points="17 61 9 57 9 65"/>
         <rect x="51" y="47" width="40" height="32" rx="10"/>
         <rect x="49" y="45" width="40" height="32" class="terminal" rx="10"/>
         <text class="terminal" x="59" y="65">DO</text>
         <rect x="51" y="91" width="58" height="32" rx="10"/>
         <rect x="49" y="89" width="58" height="32" class="terminal" rx="10"/>
         <text class="terminal" x="59" y="109">LOOP</text>
         <rect x="169" y="47" width="62" height="32" rx="10"/>
         <rect x="167" y="45" width="62" height="32" class="terminal" rx="10"/>
         <text class="terminal" x="177" y="65">LABEL</text>
<!--     <a xmlns:xlink="http://www.w3.org/1999/xlink" xlink:href="#name" xlink:title="name"> -->
            <rect x="251" y="47" width="54" height="32"/>
            <rect x="249" y="45" width="54" height="32" class="nonterminal"/>
            <text class="nonterminal" x="259" y="65">name</text>
<!--     </a> -->
         <polygon points="365 63 372 47 526 47 533 63 526 79 372 79"/>
         <polygon points="363 61 370 45 524 45 531 61 524 77 370 77" class="regexp"/>
<!--     <a xmlns:xlink="http://www.w3.org/1999/xlink" xlink:href="#REPETITOR" xlink:title="REPETITOR"> -->
            <rect class="text" x="378" y="54" width="68" height="14"/>
            <text class="regexp" x="378" y="65">REPETITOR</text>
<!--     </a> -->
         <text class="regexp" x="451" y="65">- </text>
<!--     <a xmlns:xlink="http://www.w3.org/1999/xlink" xlink:href="#fragment" xlink:title="fragment"> -->
            <rect class="text" x="460" y="54" width="56" height="14"/>
            <text class="regexp" x="460" y="65">fragment</text>
<!--     </a> -->
         <polygon points="593 63 600 47 774 47 781 63 774 79 600 79"/>
         <polygon points="591 61 598 45 772 45 779 61 772 77 598 77" class="regexp"/>
<!--     <a xmlns:xlink="http://www.w3.org/1999/xlink" xlink:href="#CONDITIONAL" xlink:title="CONDITIONAL"> -->
            <rect class="text" x="606" y="54" width="87" height="14"/>
            <text class="regexp" x="606" y="65">CONDITIONAL</text>
<!--     </a> -->
         <text class="regexp" x="698" y="65">- </text>
<!--     <a xmlns:xlink="http://www.w3.org/1999/xlink" xlink:href="#fragment" xlink:title="fragment"> -->
            <rect class="text" x="707" y="54" width="56" height="14"/>
            <text class="regexp" x="707" y="65">fragment</text>
<!--     </a> -->
         <rect x="841" y="47" width="24" height="32" rx="10"/>
         <rect x="839" y="45" width="24" height="32" class="terminal" rx="10"/>
         <text class="terminal" x="849" y="65">;</text>
<!--     <a xmlns:xlink="http://www.w3.org/1999/xlink" xlink:href="#instruction" xlink:title="instruction"> -->
            <rect x="841" y="3" width="86" height="32"/>
            <rect x="839" y="1" width="86" height="32" class="nonterminal"/>
            <text class="nonterminal" x="849" y="21">instruction</text>
<!--     </a> -->
         <rect x="735" y="157" width="48" height="32" rx="10"/>
         <rect x="733" y="155" width="48" height="32" class="terminal" rx="10"/>
         <text class="terminal" x="743" y="175">END</text>
<!--     <a xmlns:xlink="http://www.w3.org/1999/xlink" xlink:href="#name" xlink:title="name"> -->
            <rect x="823" y="157" width="54" height="32"/>
            <rect x="821" y="155" width="54" height="32" class="nonterminal"/>
            <text class="nonterminal" x="831" y="175">name</text>
<!--     </a> -->
         <rect x="917" y="157" width="24" height="32" rx="10"/>
         <rect x="915" y="155" width="24" height="32" class="terminal" rx="10"/>
         <text class="terminal" x="925" y="175">;</text>
         <svg:path xmlns:svg="http://www.w3.org/2000/svg" class="line" d="m17 61 h2 m20 0 h10 m40 0 h10 m0 0 h18 m-98 0 h20 m78 0 h20 m-118 0 q10 0 10 10 m98 0 q0 -10 10 -10 m-108 10 v24 m98 0 v-24 m-98 24 q0 10 10 10 m78 0 q10 0 10 -10 m-88 10 h10 m58 0 h10 m40 -44 h10 m62 0 h10 m0 0 h10 m54 0 h10 m-176 0 h20 m156 0 h20 m-196 0 q10 0 10 10 m176 0 q0 -10 10 -10 m-186 10 v14 m176 0 v-14 m-176 14 q0 10 10 10 m156 0 q10 0 10 -10 m-166 10 h10 m0 0 h146 m40 -34 h10 m168 0 h10 m-208 0 h20 m188 0 h20 m-228 0 q10 0 10 10 m208 0 q0 -10 10 -10 m-218 10 v14 m208 0 v-14 m-208 14 q0 10 10 10 m188 0 q10 0 10 -10 m-198 10 h10 m0 0 h178 m40 -34 h10 m188 0 h10 m-228 0 h20 m208 0 h20 m-248 0 q10 0 10 10 m228 0 q0 -10 10 -10 m-238 10 v14 m228 0 v-14 m-228 14 q0 10 10 10 m208 0 q10 0 10 -10 m-218 10 h10 m0 0 h198 m40 -34 h10 m24 0 h10 m0 0 h62 m-126 0 l20 0 m-1 0 q-9 0 -9 -10 l0 -24 q0 -10 10 -10 m106 44 l20 0 m-20 0 q10 0 10 -10 l0 -24 q0 -10 -10 -10 m-106 0 h10 m86 0 h10 m22 44 l2 0 m2 0 l2 0 m2 0 l2 0 m-256 110 l2 0 m2 0 l2 0 m2 0 l2 0 m2 0 h10 m48 0 h10 m20 0 h10 m54 0 h10 m-94 0 h20 m74 0 h20 m-114 0 q10 0 10 10 m94 0 q0 -10 10 -10 m-104 10 v14 m94 0 v-14 m-94 14 q0 10 10 10 m74 0 q10 0 10 -10 m-84 10 h10 m0 0 h64 m20 -34 h10 m24 0 h10 m3 0 h-3"/>
         <polygon points="959 171 967 167 967 175"/>
         <polygon points="959 171 951 167 951 175"/>
      </svg>
