      <svg xmlns="http://www.w3.org/2000/svg" width="278" height="168">
         <defs>
            <style type="text/css">
               @namespace "http://www.w3.org/2000/svg";
               .line                 {fill: none; stroke: #1F1F1F;}
               .bold-line            {stroke: #0A0A0A; shape-rendering: crispEdges; stroke-width:
               2; }
               .thin-line            {stroke: #0F0F0F; shape-rendering: crispEdges}
               .filled               {fill: #1F1F1F; stroke: none;}
               text.terminal         {font-family: Verdana, Sans-serif;
               font-size: 12px;
               fill: #0A0A0A;
               font-weight: bold;
               }
               text.nonterminal      {font-family: Verdana, Sans-serif; font-style: italic;
               font-size: 12px;
               fill: #0D0D0D;
               }
               text.regexp           {font-family: Verdana, Sans-serif;
               font-size: 12px;
               fill: #0F0F0F;
               }
               rect, circle, polygon {fill: #1F1F1F; stroke: #1F1F1F;}
               rect.terminal         {fill: #CCCCCC; stroke: #1F1F1F;}
               rect.nonterminal      {fill: #E3E3E3; stroke: #1F1F1F;}
               rect.text             {fill: none; stroke: none;}    
               polygon.regexp        {fill: #EFEFEF; stroke: #1F1F1F;}
               
            </style>
         </defs>
         <polygon points="9 61 1 57 1 65"/>
         <polygon points="17 61 9 57 9 65"/>
         <rect x="51" y="47" width="64" height="32" rx="10"/>
         <rect x="49" y="45" width="64" height="32" class="terminal" rx="10"/>
         <text class="terminal" x="59" y="65">WHILE</text>
<!--     <a xmlns:xlink="http://www.w3.org/1999/xlink" xlink:href="#exprw" xlink:title="exprw"> -->
            <rect x="155" y="47" width="56" height="32"/>
            <rect x="153" y="45" width="56" height="32" class="nonterminal"/>
            <text class="nonterminal" x="163" y="65">exprw</text>
<!--     </a> -->
         <rect x="155" y="3" width="24" height="32" rx="10"/>
         <rect x="153" y="1" width="24" height="32" class="terminal" rx="10"/>
         <text class="terminal" x="163" y="21">,</text>
         <rect x="51" y="135" width="62" height="32" rx="10"/>
         <rect x="49" y="133" width="62" height="32" class="terminal" rx="10"/>
         <text class="terminal" x="59" y="153">UNTIL</text>
<!--     <a xmlns:xlink="http://www.w3.org/1999/xlink" xlink:href="#expru" xlink:title="expru"> -->
            <rect x="153" y="135" width="54" height="32"/>
            <rect x="151" y="133" width="54" height="32" class="nonterminal"/>
            <text class="nonterminal" x="161" y="153">expru</text>
<!--     </a> -->
         <rect x="153" y="91" width="24" height="32" rx="10"/>
         <rect x="151" y="89" width="24" height="32" class="terminal" rx="10"/>
         <text class="terminal" x="161" y="109">,</text>
         <svg:path xmlns:svg="http://www.w3.org/2000/svg" class="line" d="m17 61 h2 m20 0 h10 m64 0 h10 m20 0 h10 m56 0 h10 m-96 0 l20 0 m-1 0 q-9 0 -9 -10 l0 -24 q0 -10 10 -10 m76 44 l20 0 m-20 0 q10 0 10 -10 l0 -24 q0 -10 -10 -10 m-76 0 h10 m24 0 h10 m0 0 h32 m-200 44 h20 m200 0 h20 m-240 0 q10 0 10 10 m220 0 q0 -10 10 -10 m-230 10 v68 m220 0 v-68 m-220 68 q0 10 10 10 m200 0 q10 0 10 -10 m-210 10 h10 m62 0 h10 m20 0 h10 m54 0 h10 m-94 0 l20 0 m-1 0 q-9 0 -9 -10 l0 -24 q0 -10 10 -10 m74 44 l20 0 m-20 0 q10 0 10 -10 l0 -24 q0 -10 -10 -10 m-74 0 h10 m24 0 h10 m0 0 h30 m20 44 h4 m23 -88 h-3"/>
         <polygon points="269 61 277 57 277 65"/>
         <polygon points="269 61 261 57 261 65"/>
      </svg>
