      <svg xmlns="http://www.w3.org/2000/svg" width="798" height="190">
         <defs>
            <style type="text/css">
               @namespace "http://www.w3.org/2000/svg";
               .line                 {fill: none; stroke: #1F1F1F;}
               .bold-line            {stroke: #0A0A0A; shape-rendering: crispEdges; stroke-width:
               2; }
               .thin-line            {stroke: #0F0F0F; shape-rendering: crispEdges}
               .filled               {fill: #1F1F1F; stroke: none;}
               text.terminal         {font-family: Verdana, Sans-serif;
               font-size: 12px;
               fill: #0A0A0A;
               font-weight: bold;
               }
               text.nonterminal      {font-family: Verdana, Sans-serif;
               font-size: 12px;
               fill: #0D0D0D;
               }
               text.regexp           {font-family: Verdana, Sans-serif;
               font-size: 12px;
               fill: #0F0F0F;
               }
               rect, circle, polygon {fill: #1F1F1F; stroke: #1F1F1F;}
               rect.terminal         {fill: #CCCCCC; stroke: #1F1F1F;}
               rect.nonterminal      {fill: #E3E3E3; stroke: #1F1F1F;}
               rect.text             {fill: none; stroke: none;}    
               polygon.regexp        {fill: #EFEFEF; stroke: #1F1F1F;}
               
            </style>
         </defs>
         <polygon points="9 17 1 13 1 21"/>
         <polygon points="17 17 9 13 9 21"/>
         <a xmlns:xlink="http://www.w3.org/1999/xlink" xlink:href="#control2" xlink:title="control2">
            <rect x="51" y="3" width="70" height="32"/>
            <rect x="49" y="1" width="70" height="32" class="nonterminal"/>
            <text class="nonterminal" x="59" y="21">control2</text>
         </a>
         <rect x="141" y="3" width="30" height="32" rx="10"/>
         <rect x="139" y="1" width="30" height="32" class="terminal" rx="10"/>
         <text class="terminal" x="149" y="21">=</text>
         <a xmlns:xlink="http://www.w3.org/1999/xlink" xlink:href="#expri" xlink:title="expri">
            <rect x="191" y="3" width="50" height="32"/>
            <rect x="189" y="1" width="50" height="32" class="nonterminal"/>
            <text class="nonterminal" x="199" y="21">expri</text>
         </a>
         <a xmlns:xlink="http://www.w3.org/1999/xlink" xlink:href="#TO" xlink:title="TO">
            <rect x="281" y="3" width="36" height="32"/>
            <rect x="279" y="1" width="36" height="32" class="nonterminal"/>
            <text class="nonterminal" x="289" y="21">TO</text>
         </a>
         <a xmlns:xlink="http://www.w3.org/1999/xlink" xlink:href="#exprt" xlink:title="exprt">
            <rect x="337" y="3" width="52" height="32"/>
            <rect x="335" y="1" width="52" height="32" class="nonterminal"/>
            <text class="nonterminal" x="345" y="21">exprt</text>
         </a>
         <a xmlns:xlink="http://www.w3.org/1999/xlink" xlink:href="#BY" xlink:title="BY">
            <rect x="449" y="3" width="34" height="32"/>
            <rect x="447" y="1" width="34" height="32" class="nonterminal"/>
            <text class="nonterminal" x="457" y="21">BY</text>
         </a>
         <a xmlns:xlink="http://www.w3.org/1999/xlink" xlink:href="#exprb" xlink:title="exprb">
            <rect x="503" y="3" width="56" height="32"/>
            <rect x="501" y="1" width="56" height="32" class="nonterminal"/>
            <text class="nonterminal" x="511" y="21">exprb</text>
         </a>
         <a xmlns:xlink="http://www.w3.org/1999/xlink" xlink:href="#FOR" xlink:title="FOR">
            <rect x="619" y="3" width="44" height="32"/>
            <rect x="617" y="1" width="44" height="32" class="nonterminal"/>
            <text class="nonterminal" x="627" y="21">FOR</text>
         </a>
         <a xmlns:xlink="http://www.w3.org/1999/xlink" xlink:href="#rxprf" xlink:title="rxprf">
            <rect x="683" y="3" width="48" height="32"/>
            <rect x="681" y="1" width="48" height="32" class="nonterminal"/>
            <text class="nonterminal" x="691" y="21">rxprf</text>
         </a>
         <a xmlns:xlink="http://www.w3.org/1999/xlink" xlink:href="#control2" xlink:title="control2">
            <rect x="51" y="69" width="70" height="32"/>
            <rect x="49" y="67" width="70" height="32" class="nonterminal"/>
            <text class="nonterminal" x="59" y="87">control2</text>
         </a>
         <a xmlns:xlink="http://www.w3.org/1999/xlink" xlink:href="#OVER" xlink:title="OVER">
            <rect x="141" y="69" width="54" height="32"/>
            <rect x="139" y="67" width="54" height="32" class="nonterminal"/>
            <text class="nonterminal" x="149" y="87">OVER</text>
         </a>
         <a xmlns:xlink="http://www.w3.org/1999/xlink" xlink:href="#collection" xlink:title="collection">
            <rect x="215" y="69" width="78" height="32"/>
            <rect x="213" y="67" width="78" height="32" class="nonterminal"/>
            <text class="nonterminal" x="223" y="87">collection</text>
         </a>
         <a xmlns:xlink="http://www.w3.org/1999/xlink" xlink:href="#FOREVER" xlink:title="FOREVER">
            <rect x="51" y="113" width="76" height="32"/>
            <rect x="49" y="111" width="76" height="32" class="nonterminal"/>
            <text class="nonterminal" x="59" y="131">FOREVER</text>
         </a>
         <a xmlns:xlink="http://www.w3.org/1999/xlink" xlink:href="#exprr" xlink:title="exprr">
            <rect x="51" y="157" width="52" height="32"/>
            <rect x="49" y="155" width="52" height="32" class="nonterminal"/>
            <text class="nonterminal" x="59" y="175">exprr</text>
         </a>
         <svg:path xmlns:svg="http://www.w3.org/2000/svg" class="line" d="m17 17 h2 m20 0 h10 m70 0 h10 m0 0 h10 m30 0 h10 m0 0 h10 m50 0 h10 m20 0 h10 m36 0 h10 m0 0 h10 m52 0 h10 m-148 0 h20 m128 0 h20 m-168 0 q10 0 10 10 m148 0 q0 -10 10 -10 m-158 10 v14 m148 0 v-14 m-148 14 q0 10 10 10 m128 0 q10 0 10 -10 m-138 10 h10 m0 0 h118 m40 -34 h10 m34 0 h10 m0 0 h10 m56 0 h10 m-150 0 h20 m130 0 h20 m-170 0 q10 0 10 10 m150 0 q0 -10 10 -10 m-160 10 v14 m150 0 v-14 m-150 14 q0 10 10 10 m130 0 q10 0 10 -10 m-140 10 h10 m0 0 h120 m40 -34 h10 m44 0 h10 m0 0 h10 m48 0 h10 m-152 0 h20 m132 0 h20 m-172 0 q10 0 10 10 m152 0 q0 -10 10 -10 m-162 10 v14 m152 0 v-14 m-152 14 q0 10 10 10 m132 0 q10 0 10 -10 m-142 10 h10 m0 0 h122 m-720 -34 h20 m720 0 h20 m-760 0 q10 0 10 10 m740 0 q0 -10 10 -10 m-750 10 v46 m740 0 v-46 m-740 46 q0 10 10 10 m720 0 q10 0 10 -10 m-730 10 h10 m70 0 h10 m0 0 h10 m54 0 h10 m0 0 h10 m78 0 h10 m0 0 h458 m-730 -10 v20 m740 0 v-20 m-740 20 v24 m740 0 v-24 m-740 24 q0 10 10 10 m720 0 q10 0 10 -10 m-730 10 h10 m76 0 h10 m0 0 h624 m-730 -10 v20 m740 0 v-20 m-740 20 v24 m740 0 v-24 m-740 24 q0 10 10 10 m720 0 q10 0 10 -10 m-730 10 h10 m52 0 h10 m0 0 h648 m23 -154 h-3"/>
         <polygon points="789 17 797 13 797 21"/>
         <polygon points="789 17 781 13 781 21"/>
      </svg>
