<svg xmlns="http://www.w3.org/2000/svg" width="857" height="311">
         <defs>
            <style type="text/css">
               @namespace "http://www.w3.org/2000/svg";
               .line                 {fill: none; stroke: #1F1F1F;}
               .bold-line            {stroke: #0A0A0A; shape-rendering: crispEdges; stroke-width:
               2; }
               .thin-line            {stroke: #0F0F0F; shape-rendering: crispEdges}
               .filled               {fill: #1F1F1F; stroke: none;}
               text.terminal         {font-family: Verdana, Sans-serif;
               font-size: 12px;
               fill: #0A0A0A;
               font-weight: bold;
               }
               text.nonterminal      {font-family: Verdana, Sans-serif; font-style: italic;
               font-size: 12px;
               fill: #0D0D0D;
               }
               text.regexp           {font-family: Verdana, Sans-serif;
               font-size: 12px;
               fill: #0F0F0F;
               }
               rect, circle, polygon {fill: #1F1F1F; stroke: #1F1F1F;}
               rect.terminal         {fill: #CCCCCC; stroke: #1F1F1F;}
               rect.nonterminal      {fill: #E3E3E3; stroke: #1F1F1F;}
               rect.text             {fill: none; stroke: none;}
               polygon.regexp        {fill: #EFEFEF; stroke: #1F1F1F;}

            </style>
         </defs>

         <polygon points="9 17 1 13 1 21"/>
         <polygon points="17 17 9 13 9 21"/><a xmlns:xlink="http://www.w3.org/1999/xlink" xlink:href="#control1" xlink:title="control1">
            <rect x="71" y="3" width="72" height="32"/>
            <rect x="69" y="1" width="72" height="32" class="nonterminal"/>
            <text class="nonterminal" x="79" y="21">control1</text></a><rect x="163" y="3" width="30" height="32" rx="10"/>
         <rect x="161" y="1" width="30" height="32" class="terminal" rx="10"/>
         <text class="terminal" x="171" y="21">=</text><a xmlns:xlink="http://www.w3.org/1999/xlink" xlink:href="#expri" xlink:title="expri">
            <rect x="213" y="3" width="52" height="32"/>
            <rect x="211" y="1" width="52" height="32" class="nonterminal"/>
            <text class="nonterminal" x="221" y="21">expri</text></a><rect x="305" y="35" width="38" height="32" rx="10"/>
         <rect x="303" y="33" width="38" height="32" class="terminal" rx="10"/>
         <text class="terminal" x="313" y="53">TO</text><a xmlns:xlink="http://www.w3.org/1999/xlink" xlink:href="#exprt" xlink:title="exprt">
            <rect x="363" y="35" width="52" height="32"/>
            <rect x="361" y="33" width="52" height="32" class="nonterminal"/>
            <text class="nonterminal" x="371" y="53">exprt</text></a><rect x="475" y="35" width="38" height="32" rx="10"/>
         <rect x="473" y="33" width="38" height="32" class="terminal" rx="10"/>
         <text class="terminal" x="483" y="53">BY</text><a xmlns:xlink="http://www.w3.org/1999/xlink" xlink:href="#exprb" xlink:title="exprb">
            <rect x="533" y="35" width="56" height="32"/>
            <rect x="531" y="33" width="56" height="32" class="nonterminal"/>
            <text class="nonterminal" x="541" y="53">exprb</text></a><a xmlns:xlink="http://www.w3.org/1999/xlink" xlink:href="#control2" xlink:title="control2">
            <rect x="71" y="79" width="72" height="32"/>
            <rect x="69" y="77" width="72" height="32" class="nonterminal"/>
            <text class="nonterminal" x="79" y="97">control2</text></a><rect x="163" y="79" width="58" height="32" rx="10"/>
         <rect x="161" y="77" width="58" height="32" class="terminal" rx="10"/>
         <text class="terminal" x="171" y="97">OVER</text><a xmlns:xlink="http://www.w3.org/1999/xlink" xlink:href="#collection" xlink:title="collection">
            <rect x="241" y="79" width="78" height="32"/>
            <rect x="239" y="77" width="78" height="32" class="nonterminal"/>
            <text class="nonterminal" x="249" y="97">collection</text></a><rect x="71" y="145" width="58" height="32" rx="10"/>
         <rect x="69" y="143" width="58" height="32" class="terminal" rx="10"/>
         <text class="terminal" x="79" y="163">WITH</text>
         <rect x="189" y="145" width="64" height="32" rx="10"/>
         <rect x="187" y="143" width="64" height="32" class="terminal" rx="10"/>
         <text class="terminal" x="197" y="163">INDEX</text><a xmlns:xlink="http://www.w3.org/1999/xlink" xlink:href="#index" xlink:title="index">
            <rect x="273" y="145" width="54" height="32"/>
            <rect x="271" y="143" width="54" height="32" class="nonterminal"/>
            <text class="nonterminal" x="281" y="163">index</text></a><rect x="189" y="189" width="54" height="32" rx="10"/>
         <rect x="187" y="187" width="54" height="32" class="terminal" rx="10"/>
         <text class="terminal" x="197" y="207">ITEM</text><a xmlns:xlink="http://www.w3.org/1999/xlink" xlink:href="#item" xlink:title="item">
            <rect x="263" y="189" width="48" height="32"/>
            <rect x="261" y="187" width="48" height="32" class="nonterminal"/>
            <text class="nonterminal" x="271" y="207">item</text></a><rect x="387" y="145" width="58" height="32" rx="10"/>
         <rect x="385" y="143" width="58" height="32" class="terminal" rx="10"/>
         <text class="terminal" x="395" y="163">OVER</text><a xmlns:xlink="http://www.w3.org/1999/xlink" xlink:href="#supplier" xlink:title="supplier">
            <rect x="465" y="145" width="70" height="32"/>
            <rect x="463" y="143" width="70" height="32" class="nonterminal"/>
            <text class="nonterminal" x="473" y="163">supplier</text></a><rect x="669" y="35" width="48" height="32" rx="10"/>
         <rect x="667" y="33" width="48" height="32" class="terminal" rx="10"/>
         <text class="terminal" x="677" y="53">FOR</text><a xmlns:xlink="http://www.w3.org/1999/xlink" xlink:href="#exprf" xlink:title="exprf">
            <rect x="737" y="35" width="52" height="32"/>
            <rect x="735" y="33" width="52" height="32" class="nonterminal"/>
            <text class="nonterminal" x="745" y="53">exprf</text></a><rect x="51" y="233" width="82" height="32" rx="10"/>
         <rect x="49" y="231" width="82" height="32" class="terminal" rx="10"/>
         <text class="terminal" x="59" y="251">FOREVER</text><a xmlns:xlink="http://www.w3.org/1999/xlink" xlink:href="#exprr" xlink:title="exprr">
            <rect x="51" y="277" width="52" height="32"/>
            <rect x="49" y="275" width="52" height="32" class="nonterminal"/>
            <text class="nonterminal" x="59" y="295">exprr</text></a><path class="line" d="m17 17 h2 m40 0 h10 m72 0 h10 m0 0 h10 m30 0 h10 m0 0 h10 m52 0 h10 m20 0 h10 m0 0 h120 m-150 0 h20 m130 0 h20 m-170 0 q10 0 10 10 m150 0 q0 -10 10 -10 m-160 10 v12 m150 0 v-12 m-150 12 q0 10 10 10 m130 0 q10 0 10 -10 m-140 10 h10 m38 0 h10 m0 0 h10 m52 0 h10 m40 -32 h10 m0 0 h124 m-154 0 h20 m134 0 h20 m-174 0 q10 0 10 10 m154 0 q0 -10 10 -10 m-164 10 v12 m154 0 v-12 m-154 12 q0 10 10 10 m134 0 q10 0 10 -10 m-144 10 h10 m38 0 h10 m0 0 h10 m56 0 h10 m-558 -32 h20 m558 0 h20 m-598 0 q10 0 10 10 m578 0 q0 -10 10 -10 m-588 10 v56 m578 0 v-56 m-578 56 q0 10 10 10 m558 0 q10 0 10 -10 m-568 10 h10 m72 0 h10 m0 0 h10 m58 0 h10 m0 0 h10 m78 0 h10 m0 0 h290 m-568 -10 v20 m578 0 v-20 m-578 20 v46 m578 0 v-46 m-578 46 q0 10 10 10 m558 0 q10 0 10 -10 m-568 10 h10 m58 0 h10 m40 0 h10 m64 0 h10 m0 0 h10 m54 0 h10 m-178 0 h20 m158 0 h20 m-198 0 q10 0 10 10 m178 0 q0 -10 10 -10 m-188 10 v24 m178 0 v-24 m-178 24 q0 10 10 10 m158 0 q10 0 10 -10 m-168 10 h10 m54 0 h10 m0 0 h10 m48 0 h10 m0 0 h16 m-198 -44 l20 0 m-1 0 q-9 0 -9 -10 l0 -12 q0 -10 10 -10 m198 32 l20 0 m-20 0 q10 0 10 -10 l0 -12 q0 -10 -10 -10 m-198 0 h10 m0 0 h188 m20 32 h10 m58 0 h10 m0 0 h10 m70 0 h10 m0 0 h74 m40 -142 h10 m0 0 h130 m-160 0 h20 m140 0 h20 m-180 0 q10 0 10 10 m160 0 q0 -10 10 -10 m-170 10 v12 m160 0 v-12 m-160 12 q0 10 10 10 m140 0 q10 0 10 -10 m-150 10 h10 m48 0 h10 m0 0 h10 m52 0 h10 m-778 -32 h20 m778 0 h20 m-818 0 q10 0 10 10 m798 0 q0 -10 10 -10 m-808 10 v210 m798 0 v-210 m-798 210 q0 10 10 10 m778 0 q10 0 10 -10 m-788 10 h10 m82 0 h10 m0 0 h676 m-788 -10 v20 m798 0 v-20 m-798 20 v24 m798 0 v-24 m-798 24 q0 10 10 10 m778 0 q10 0 10 -10 m-788 10 h10 m52 0 h10 m0 0 h706 m23 -274 h-3"/>
         <polygon points="847 17 855 13 855 21"/>
         <polygon points="847 17 839 13 839 21"/>
</svg>