      <svg xmlns="http://www.w3.org/2000/svg" width="864" height="308">
         <defs>
            <style type="text/css">
               @namespace "http://www.w3.org/2000/svg";
               .line                 {fill: none; stroke: #1F1F1F;}
               .bold-line            {stroke: #0A0A0A; shape-rendering: crispEdges; stroke-width:
               2; }
               .thin-line            {stroke: #0F0F0F; shape-rendering: crispEdges}
               .filled               {fill: #1F1F1F; stroke: none;}
               text.terminal         {font-family: Verdana, Sans-serif;
               font-size: 12px;
               fill: #0A0A0A;
               font-weight: bold;
               }
               text.nonterminal      {font-family: Verdana, Sans-serif; font-style: italic;
               font-size: 12px;
               fill: #0D0D0D;
               }
               text.regexp           {font-family: Verdana, Sans-serif;
               font-size: 12px;
               fill: #0F0F0F;
               }
               rect, circle, polygon {fill: #1F1F1F; stroke: #1F1F1F;}
               rect.terminal         {fill: #CCCCCC; stroke: #1F1F1F;}
               rect.nonterminal      {fill: #E3E3E3; stroke: #1F1F1F;}
               rect.text             {fill: none; stroke: none;}    
               polygon.regexp        {fill: #EFEFEF; stroke: #1F1F1F;}
               
            </style>
         </defs>
         <polygon points="9 17 1 13 1 21"/>
         <polygon points="17 17 9 13 9 21"/>
<!--     <a xmlns:xlink="http://www.w3.org/1999/xlink" xlink:href="#control1" xlink:title="control1"> -->
            <rect x="51" y="3" width="70" height="32"/>
            <rect x="49" y="1" width="70" height="32" class="nonterminal"/>
            <text class="nonterminal" x="59" y="21">control1</text>
<!--     </a> -->
         <rect x="141" y="3" width="30" height="32" rx="10"/>
         <rect x="139" y="1" width="30" height="32" class="terminal" rx="10"/>
         <text class="terminal" x="149" y="21">=</text>
<!--     <a xmlns:xlink="http://www.w3.org/1999/xlink" xlink:href="#expri" xlink:title="expri"> -->
            <rect x="191" y="3" width="48" height="32"/>
            <rect x="189" y="1" width="48" height="32" class="nonterminal"/>
            <text class="nonterminal" x="199" y="21">expri</text>
<!--     </a> -->
         <rect x="279" y="35" width="38" height="32" rx="10"/>
         <rect x="277" y="33" width="38" height="32" class="terminal" rx="10"/>
         <text class="terminal" x="287" y="53">TO</text>
<!--     <a xmlns:xlink="http://www.w3.org/1999/xlink" xlink:href="#exprt" xlink:title="exprt"> -->
            <rect x="337" y="35" width="50" height="32"/>
            <rect x="335" y="33" width="50" height="32" class="nonterminal"/>
            <text class="nonterminal" x="345" y="53">exprt</text>
<!--     </a> -->
         <rect x="447" y="35" width="38" height="32" rx="10"/>
         <rect x="445" y="33" width="38" height="32" class="terminal" rx="10"/>
         <text class="terminal" x="455" y="53">BY</text>
<!--     <a xmlns:xlink="http://www.w3.org/1999/xlink" xlink:href="#exprb" xlink:title="exprb"> -->
            <rect x="505" y="35" width="54" height="32"/>
            <rect x="503" y="33" width="54" height="32" class="nonterminal"/>
            <text class="nonterminal" x="513" y="53">exprb</text>
<!--     </a> -->
         <rect x="619" y="35" width="48" height="32" rx="10"/>
         <rect x="617" y="33" width="48" height="32" class="terminal" rx="10"/>
         <text class="terminal" x="627" y="53">FOR</text>
<!--     <a xmlns:xlink="http://www.w3.org/1999/xlink" xlink:href="#exprf" xlink:title="exprf"> -->
            <rect x="687" y="35" width="50" height="32"/>
            <rect x="685" y="33" width="50" height="32" class="nonterminal"/>
            <text class="nonterminal" x="695" y="53">exprf</text>
<!--     </a> -->
<!--     <a xmlns:xlink="http://www.w3.org/1999/xlink" xlink:href="#control2" xlink:title="control2"> -->
            <rect x="51" y="79" width="70" height="32"/>
            <rect x="49" y="77" width="70" height="32" class="nonterminal"/>
            <text class="nonterminal" x="59" y="97">control2</text>
<!--     </a> -->
         <rect x="141" y="79" width="56" height="32" rx="10"/>
         <rect x="139" y="77" width="56" height="32" class="terminal" rx="10"/>
         <text class="terminal" x="149" y="97">OVER</text>
<!--     <a xmlns:xlink="http://www.w3.org/1999/xlink" xlink:href="#collection" xlink:title="collection"> -->
            <rect x="217" y="79" width="74" height="32"/>
            <rect x="215" y="77" width="74" height="32" class="nonterminal"/>
            <text class="nonterminal" x="225" y="97">collection</text>
<!--     </a> -->
         <rect x="331" y="111" width="48" height="32" rx="10"/>
         <rect x="329" y="109" width="48" height="32" class="terminal" rx="10"/>
         <text class="terminal" x="339" y="129">FOR</text>
<!--     <a xmlns:xlink="http://www.w3.org/1999/xlink" xlink:href="#exprf" xlink:title="exprf"> -->
            <rect x="399" y="111" width="50" height="32"/>
            <rect x="397" y="109" width="50" height="32" class="nonterminal"/>
            <text class="nonterminal" x="407" y="129">exprf</text>
<!--     </a> -->
         <rect x="51" y="155" width="56" height="32" rx="10"/>
         <rect x="49" y="153" width="56" height="32" class="terminal" rx="10"/>
         <text class="terminal" x="59" y="173">WITH</text>
         <rect x="147" y="187" width="62" height="32" rx="10"/>
         <rect x="145" y="185" width="62" height="32" class="terminal" rx="10"/>
         <text class="terminal" x="155" y="205">INDEX</text>
<!--     <a xmlns:xlink="http://www.w3.org/1999/xlink" xlink:href="#index" xlink:title="index"> -->
            <rect x="229" y="187" width="50" height="32"/>
            <rect x="227" y="185" width="50" height="32" class="nonterminal"/>
            <text class="nonterminal" x="237" y="205">index</text>
<!--     </a> -->
         <rect x="339" y="187" width="54" height="32" rx="10"/>
         <rect x="337" y="185" width="54" height="32" class="terminal" rx="10"/>
         <text class="terminal" x="347" y="205">ITEM</text>
<!--     <a xmlns:xlink="http://www.w3.org/1999/xlink" xlink:href="#item" xlink:title="item"> -->
            <rect x="413" y="187" width="46" height="32"/>
            <rect x="411" y="185" width="46" height="32" class="nonterminal"/>
            <text class="nonterminal" x="421" y="205">item</text>
<!--     </a> -->
         <rect x="499" y="155" width="56" height="32" rx="10"/>
         <rect x="497" y="153" width="56" height="32" class="terminal" rx="10"/>
         <text class="terminal" x="507" y="173">OVER</text>
<!--     <a xmlns:xlink="http://www.w3.org/1999/xlink" xlink:href="#supplier" xlink:title="supplier"> -->
            <rect x="575" y="155" width="64" height="32"/>
            <rect x="573" y="153" width="64" height="32" class="nonterminal"/>
            <text class="nonterminal" x="583" y="173">supplier</text>
<!--     </a> -->
         <rect x="679" y="187" width="48" height="32" rx="10"/>
         <rect x="677" y="185" width="48" height="32" class="terminal" rx="10"/>
         <text class="terminal" x="687" y="205">FOR</text>
<!--     <a xmlns:xlink="http://www.w3.org/1999/xlink" xlink:href="#exprf" xlink:title="exprf"> -->
            <rect x="747" y="187" width="50" height="32"/>
            <rect x="745" y="185" width="50" height="32" class="nonterminal"/>
            <text class="nonterminal" x="755" y="205">exprf</text>
<!--     </a> -->
         <rect x="51" y="231" width="82" height="32" rx="10"/>
         <rect x="49" y="229" width="82" height="32" class="terminal" rx="10"/>
         <text class="terminal" x="59" y="249">FOREVER</text>
<!--     <a xmlns:xlink="http://www.w3.org/1999/xlink" xlink:href="#exprr" xlink:title="exprr"> -->
            <rect x="51" y="275" width="50" height="32"/>
            <rect x="49" y="273" width="50" height="32" class="nonterminal"/>
            <text class="nonterminal" x="59" y="293">exprr</text>
<!--     </a> -->
         <svg:path xmlns:svg="http://www.w3.org/2000/svg" class="line" d="m17 17 h2 m20 0 h10 m70 0 h10 m0 0 h10 m30 0 h10 m0 0 h10 m48 0 h10 m20 0 h10 m0 0 h118 m-148 0 h20 m128 0 h20 m-168 0 q10 0 10 10 m148 0 q0 -10 10 -10 m-158 10 v12 m148 0 v-12 m-148 12 q0 10 10 10 m128 0 q10 0 10 -10 m-138 10 h10 m38 0 h10 m0 0 h10 m50 0 h10 m40 -32 h10 m0 0 h122 m-152 0 h20 m132 0 h20 m-172 0 q10 0 10 10 m152 0 q0 -10 10 -10 m-162 10 v12 m152 0 v-12 m-152 12 q0 10 10 10 m132 0 q10 0 10 -10 m-142 10 h10 m38 0 h10 m0 0 h10 m54 0 h10 m40 -32 h10 m0 0 h128 m-158 0 h20 m138 0 h20 m-178 0 q10 0 10 10 m158 0 q0 -10 10 -10 m-168 10 v12 m158 0 v-12 m-158 12 q0 10 10 10 m138 0 q10 0 10 -10 m-148 10 h10 m48 0 h10 m0 0 h10 m50 0 h10 m20 -32 h60 m-806 0 h20 m786 0 h20 m-826 0 q10 0 10 10 m806 0 q0 -10 10 -10 m-816 10 v56 m806 0 v-56 m-806 56 q0 10 10 10 m786 0 q10 0 10 -10 m-796 10 h10 m70 0 h10 m0 0 h10 m56 0 h10 m0 0 h10 m74 0 h10 m20 0 h10 m0 0 h128 m-158 0 h20 m138 0 h20 m-178 0 q10 0 10 10 m158 0 q0 -10 10 -10 m-168 10 v12 m158 0 v-12 m-158 12 q0 10 10 10 m138 0 q10 0 10 -10 m-148 10 h10 m48 0 h10 m0 0 h10 m50 0 h10 m20 -32 h348 m-796 -10 v20 m806 0 v-20 m-806 20 v56 m806 0 v-56 m-806 56 q0 10 10 10 m786 0 q10 0 10 -10 m-796 10 h10 m56 0 h10 m20 0 h10 m0 0 h142 m-172 0 h20 m152 0 h20 m-192 0 q10 0 10 10 m172 0 q0 -10 10 -10 m-182 10 v12 m172 0 v-12 m-172 12 q0 10 10 10 m152 0 q10 0 10 -10 m-162 10 h10 m62 0 h10 m0 0 h10 m50 0 h10 m40 -32 h10 m0 0 h130 m-160 0 h20 m140 0 h20 m-180 0 q10 0 10 10 m160 0 q0 -10 10 -10 m-170 10 v12 m160 0 v-12 m-160 12 q0 10 10 10 m140 0 q10 0 10 -10 m-150 10 h10 m54 0 h10 m0 0 h10 m46 0 h10 m20 -32 h10 m56 0 h10 m0 0 h10 m64 0 h10 m20 0 h10 m0 0 h128 m-158 0 h20 m138 0 h20 m-178 0 q10 0 10 10 m158 0 q0 -10 10 -10 m-168 10 v12 m158 0 v-12 m-158 12 q0 10 10 10 m138 0 q10 0 10 -10 m-148 10 h10 m48 0 h10 m0 0 h10 m50 0 h10 m-776 -42 v20 m806 0 v-20 m-806 20 v56 m806 0 v-56 m-806 56 q0 10 10 10 m786 0 q10 0 10 -10 m-796 10 h10 m82 0 h10 m0 0 h684 m-796 -10 v20 m806 0 v-20 m-806 20 v24 m806 0 v-24 m-806 24 q0 10 10 10 m786 0 q10 0 10 -10 m-796 10 h10 m50 0 h10 m0 0 h716 m23 -272 h-3"/>
         <polygon points="855 17 863 13 863 21"/>
         <polygon points="855 17 847 13 847 21"/>
      </svg>
