      <svg xmlns="http://www.w3.org/2000/svg" width="876" height="278">
         <defs>
            <style type="text/css">
               @namespace "http://www.w3.org/2000/svg";
               .line                 {fill: none; stroke: #1F1F1F;}
               .bold-line            {stroke: #0A0A0A; shape-rendering: crispEdges; stroke-width:
               2; }
               .thin-line            {stroke: #0F0F0F; shape-rendering: crispEdges}
               .filled               {fill: #1F1F1F; stroke: none;}
               text.terminal         {font-family: Verdana, Sans-serif;
               font-size: 12px;
               fill: #0A0A0A;
               font-weight: bold;
               }
               text.nonterminal      {font-family: Verdana, Sans-serif; font-style: italic;
               font-size: 12px;
               fill: #0D0D0D;
               }
               text.regexp           {font-family: Verdana, Sans-serif;
               font-size: 12px;
               fill: #0F0F0F;
               }
               rect, circle, polygon {fill: #1F1F1F; stroke: #1F1F1F;}
               rect.terminal         {fill: #CCCCCC; stroke: #1F1F1F;}
               rect.nonterminal      {fill: #E3E3E3; stroke: #1F1F1F;}
               rect.text             {fill: none; stroke: none;}    
               polygon.regexp        {fill: #EFEFEF; stroke: #1F1F1F;}
               
            </style>
         </defs>
         <polygon points="9 17 1 13 1 21"/>
         <polygon points="17 17 9 13 9 21"/>
<!--     <a xmlns:xlink="http://www.w3.org/1999/xlink" xlink:href="#control1" xlink:title="control1"> -->
            <rect x="51" y="3" width="70" height="32"/>
            <rect x="49" y="1" width="70" height="32" class="nonterminal"/>
            <text class="nonterminal" x="59" y="21">control1</text>
<!--     </a> -->
         <rect x="141" y="3" width="30" height="32" rx="10"/>
         <rect x="139" y="1" width="30" height="32" class="terminal" rx="10"/>
         <text class="terminal" x="149" y="21">=</text>
<!--     <a xmlns:xlink="http://www.w3.org/1999/xlink" xlink:href="#expri" xlink:title="expri"> -->
            <rect x="191" y="3" width="50" height="32"/>
            <rect x="189" y="1" width="50" height="32" class="nonterminal"/>
            <text class="nonterminal" x="199" y="21">expri</text>
<!--     </a> -->
         <rect x="281" y="3" width="38" height="32" rx="10"/>
         <rect x="279" y="1" width="38" height="32" class="terminal" rx="10"/>
         <text class="terminal" x="289" y="21">TO</text>
<!--     <a xmlns:xlink="http://www.w3.org/1999/xlink" xlink:href="#exprt" xlink:title="exprt"> -->
            <rect x="339" y="3" width="52" height="32"/>
            <rect x="337" y="1" width="52" height="32" class="nonterminal"/>
            <text class="nonterminal" x="347" y="21">exprt</text>
<!--     </a> -->
         <rect x="451" y="3" width="38" height="32" rx="10"/>
         <rect x="449" y="1" width="38" height="32" class="terminal" rx="10"/>
         <text class="terminal" x="459" y="21">BY</text>
<!--     <a xmlns:xlink="http://www.w3.org/1999/xlink" xlink:href="#exprb" xlink:title="exprb"> -->
            <rect x="509" y="3" width="56" height="32"/>
            <rect x="507" y="1" width="56" height="32" class="nonterminal"/>
            <text class="nonterminal" x="517" y="21">exprb</text>
<!--     </a> -->
         <rect x="625" y="3" width="48" height="32" rx="10"/>
         <rect x="623" y="1" width="48" height="32" class="terminal" rx="10"/>
         <text class="terminal" x="633" y="21">FOR</text>
<!--     <a xmlns:xlink="http://www.w3.org/1999/xlink" xlink:href="#exprf" xlink:title="exprf"> -->
            <rect x="693" y="3" width="52" height="32"/>
            <rect x="691" y="1" width="52" height="32" class="nonterminal"/>
            <text class="nonterminal" x="701" y="21">exprf</text>
<!--     </a> -->
<!--     <a xmlns:xlink="http://www.w3.org/1999/xlink" xlink:href="#control2" xlink:title="control2"> -->
            <rect x="51" y="69" width="70" height="32"/>
            <rect x="49" y="67" width="70" height="32" class="nonterminal"/>
            <text class="nonterminal" x="59" y="87">control2</text>
<!--     </a> -->
         <rect x="141" y="69" width="56" height="32" rx="10"/>
         <rect x="139" y="67" width="56" height="32" class="terminal" rx="10"/>
         <text class="terminal" x="149" y="87">OVER</text>
<!--     <a xmlns:xlink="http://www.w3.org/1999/xlink" xlink:href="#collection" xlink:title="collection"> -->
            <rect x="217" y="69" width="78" height="32"/>
            <rect x="215" y="67" width="78" height="32" class="nonterminal"/>
            <text class="nonterminal" x="225" y="87">collection</text>
<!--     </a> -->
         <rect x="335" y="69" width="48" height="32" rx="10"/>
         <rect x="333" y="67" width="48" height="32" class="terminal" rx="10"/>
         <text class="terminal" x="343" y="87">FOR</text>
<!--     <a xmlns:xlink="http://www.w3.org/1999/xlink" xlink:href="#exprf" xlink:title="exprf"> -->
            <rect x="403" y="69" width="52" height="32"/>
            <rect x="401" y="67" width="52" height="32" class="nonterminal"/>
            <text class="nonterminal" x="411" y="87">exprf</text>
<!--     </a> -->
         <rect x="51" y="135" width="58" height="32" rx="10"/>
         <rect x="49" y="133" width="58" height="32" class="terminal" rx="10"/>
         <text class="terminal" x="59" y="153">WITH</text>
         <rect x="149" y="135" width="62" height="32" rx="10"/>
         <rect x="147" y="133" width="62" height="32" class="terminal" rx="10"/>
         <text class="terminal" x="157" y="153">INDEX</text>
<!--     <a xmlns:xlink="http://www.w3.org/1999/xlink" xlink:href="#index" xlink:title="index"> -->
            <rect x="231" y="135" width="54" height="32"/>
            <rect x="229" y="133" width="54" height="32" class="nonterminal"/>
            <text class="nonterminal" x="239" y="153">index</text>
<!--     </a> -->
         <rect x="345" y="135" width="52" height="32" rx="10"/>
         <rect x="343" y="133" width="52" height="32" class="terminal" rx="10"/>
         <text class="terminal" x="353" y="153">ITEM</text>
<!--     <a xmlns:xlink="http://www.w3.org/1999/xlink" xlink:href="#item" xlink:title="item"> -->
            <rect x="417" y="135" width="46" height="32"/>
            <rect x="415" y="133" width="46" height="32" class="nonterminal"/>
            <text class="nonterminal" x="425" y="153">item</text>
<!--     </a> -->
         <rect x="503" y="135" width="56" height="32" rx="10"/>
         <rect x="501" y="133" width="56" height="32" class="terminal" rx="10"/>
         <text class="terminal" x="511" y="153">OVER</text>
<!--     <a xmlns:xlink="http://www.w3.org/1999/xlink" xlink:href="#supplier" xlink:title="supplier"> -->
            <rect x="579" y="135" width="70" height="32"/>
            <rect x="577" y="133" width="70" height="32" class="nonterminal"/>
            <text class="nonterminal" x="587" y="153">supplier</text>
<!--     </a> -->
         <rect x="689" y="135" width="48" height="32" rx="10"/>
         <rect x="687" y="133" width="48" height="32" class="terminal" rx="10"/>
         <text class="terminal" x="697" y="153">FOR</text>
<!--     <a xmlns:xlink="http://www.w3.org/1999/xlink" xlink:href="#exprf" xlink:title="exprf"> -->
            <rect x="757" y="135" width="52" height="32"/>
            <rect x="755" y="133" width="52" height="32" class="nonterminal"/>
            <text class="nonterminal" x="765" y="153">exprf</text>
<!--     </a> -->
         <rect x="51" y="201" width="82" height="32" rx="10"/>
         <rect x="49" y="199" width="82" height="32" class="terminal" rx="10"/>
         <text class="terminal" x="59" y="219">FOREVER</text>
<!--     <a xmlns:xlink="http://www.w3.org/1999/xlink" xlink:href="#exprr" xlink:title="exprr"> -->
            <rect x="51" y="245" width="52" height="32"/>
            <rect x="49" y="243" width="52" height="32" class="nonterminal"/>
            <text class="nonterminal" x="59" y="263">exprr</text>
<!--     </a> -->
         <svg:path xmlns:svg="http://www.w3.org/2000/svg" class="line" d="m17 17 h2 m20 0 h10 m70 0 h10 m0 0 h10 m30 0 h10 m0 0 h10 m50 0 h10 m20 0 h10 m38 0 h10 m0 0 h10 m52 0 h10 m-150 0 h20 m130 0 h20 m-170 0 q10 0 10 10 m150 0 q0 -10 10 -10 m-160 10 v14 m150 0 v-14 m-150 14 q0 10 10 10 m130 0 q10 0 10 -10 m-140 10 h10 m0 0 h120 m40 -34 h10 m38 0 h10 m0 0 h10 m56 0 h10 m-154 0 h20 m134 0 h20 m-174 0 q10 0 10 10 m154 0 q0 -10 10 -10 m-164 10 v14 m154 0 v-14 m-154 14 q0 10 10 10 m134 0 q10 0 10 -10 m-144 10 h10 m0 0 h124 m40 -34 h10 m48 0 h10 m0 0 h10 m52 0 h10 m-160 0 h20 m140 0 h20 m-180 0 q10 0 10 10 m160 0 q0 -10 10 -10 m-170 10 v14 m160 0 v-14 m-160 14 q0 10 10 10 m140 0 q10 0 10 -10 m-150 10 h10 m0 0 h130 m20 -34 h64 m-818 0 h20 m798 0 h20 m-838 0 q10 0 10 10 m818 0 q0 -10 10 -10 m-828 10 v46 m818 0 v-46 m-818 46 q0 10 10 10 m798 0 q10 0 10 -10 m-808 10 h10 m70 0 h10 m0 0 h10 m56 0 h10 m0 0 h10 m78 0 h10 m20 0 h10 m48 0 h10 m0 0 h10 m52 0 h10 m-160 0 h20 m140 0 h20 m-180 0 q10 0 10 10 m160 0 q0 -10 10 -10 m-170 10 v14 m160 0 v-14 m-160 14 q0 10 10 10 m140 0 q10 0 10 -10 m-150 10 h10 m0 0 h130 m20 -34 h354 m-808 -10 v20 m818 0 v-20 m-818 20 v46 m818 0 v-46 m-818 46 q0 10 10 10 m798 0 q10 0 10 -10 m-808 10 h10 m58 0 h10 m20 0 h10 m62 0 h10 m0 0 h10 m54 0 h10 m-176 0 h20 m156 0 h20 m-196 0 q10 0 10 10 m176 0 q0 -10 10 -10 m-186 10 v14 m176 0 v-14 m-176 14 q0 10 10 10 m156 0 q10 0 10 -10 m-166 10 h10 m0 0 h146 m40 -34 h10 m52 0 h10 m0 0 h10 m46 0 h10 m-158 0 h20 m138 0 h20 m-178 0 q10 0 10 10 m158 0 q0 -10 10 -10 m-168 10 v14 m158 0 v-14 m-158 14 q0 10 10 10 m138 0 q10 0 10 -10 m-148 10 h10 m0 0 h128 m20 -34 h10 m56 0 h10 m0 0 h10 m70 0 h10 m20 0 h10 m48 0 h10 m0 0 h10 m52 0 h10 m-160 0 h20 m140 0 h20 m-180 0 q10 0 10 10 m160 0 q0 -10 10 -10 m-170 10 v14 m160 0 v-14 m-160 14 q0 10 10 10 m140 0 q10 0 10 -10 m-150 10 h10 m0 0 h130 m-788 -44 v20 m818 0 v-20 m-818 20 v46 m818 0 v-46 m-818 46 q0 10 10 10 m798 0 q10 0 10 -10 m-808 10 h10 m82 0 h10 m0 0 h696 m-808 -10 v20 m818 0 v-20 m-818 20 v24 m818 0 v-24 m-818 24 q0 10 10 10 m798 0 q10 0 10 -10 m-808 10 h10 m52 0 h10 m0 0 h726 m23 -242 h-3"/>
         <polygon points="867 17 875 13 875 21"/>
         <polygon points="867 17 859 13 859 21"/>
      </svg>
