<svg xmlns="http://www.w3.org/2000/svg" width="885" height="309">
         <defs>
            <style type="text/css">
    @namespace "http://www.w3.org/2000/svg";
    .line                 {fill: none; stroke: #1F1F1F;}
    .bold-line            {stroke: #0A0A0A; shape-rendering: crispEdges; stroke-width: 2; }
    .thin-line            {stroke: #0F0F0F; shape-rendering: crispEdges}
    .filled               {fill: #1F1F1F; stroke: none;}
    text.terminal         {font-family: Verdana, Sans-serif;
                            font-size: 12px;
                            fill: #0A0A0A;
                            font-weight: bold;
                          }
    text.nonterminal      {font-family: Verdana, Sans-serif; font-style: italic;
                            font-size: 12px;
                            fill: #0D0D0D;
                            font-weight: normal;
                          }
    text.regexp           {font-family: Verdana, Sans-serif;
                            font-size: 12px;
                            fill: #0F0F0F;
                            font-weight: normal;
                          }
    rect, circle, polygon {fill: #1F1F1F; stroke: #1F1F1F;}
    rect.terminal         {fill: #cccccc; stroke: #1F1F1F;}
    rect.nonterminal      {fill: #E3E3E3; stroke: #1F1F1F;}
    rect.text             {fill: none; stroke: none;}    
    polygon.regexp        {fill: #EFEFEF; stroke: #1F1F1F;}
  </style>
         </defs>
         <polygon points="9 17 1 13 1 21"/>
         <polygon points="17 17 9 13 9 21"/>
<!--  <a xmlns:xlink="http://www.w3.org/1999/xlink" xlink:href="#control1" xlink:title="control1"> -->
            <rect x="51" y="3" width="72" height="32"/>
            <rect x="49" y="1" width="72" height="32" class="nonterminal"/>
            <text class="nonterminal" x="59" y="21">control1</text><!-- </a> -->
<rect x="143" y="3" width="30" height="32" rx="10"/>
         <rect x="141" y="1" width="30" height="32" class="terminal" rx="10"/>
         <text class="terminal" x="151" y="21">=</text>
<!--  <a xmlns:xlink="http://www.w3.org/1999/xlink" xlink:href="#expri" xlink:title="expri"> -->
            <rect x="193" y="3" width="52" height="32"/>
            <rect x="191" y="1" width="52" height="32" class="nonterminal"/>
            <text class="nonterminal" x="201" y="21">expri</text><!-- </a> -->
<rect x="285" y="35" width="38" height="32" rx="10"/>
         <rect x="283" y="33" width="38" height="32" class="terminal" rx="10"/>
         <text class="terminal" x="293" y="53">TO</text>
<!--  <a xmlns:xlink="http://www.w3.org/1999/xlink" xlink:href="#exprt" xlink:title="exprt"> -->
            <rect x="343" y="35" width="52" height="32"/>
            <rect x="341" y="33" width="52" height="32" class="nonterminal"/>
            <text class="nonterminal" x="351" y="53">exprt</text><!-- </a> -->
<rect x="455" y="35" width="38" height="32" rx="10"/>
         <rect x="453" y="33" width="38" height="32" class="terminal" rx="10"/>
         <text class="terminal" x="463" y="53">BY</text>
<!--  <a xmlns:xlink="http://www.w3.org/1999/xlink" xlink:href="#exprb" xlink:title="exprb"> -->
            <rect x="513" y="35" width="56" height="32"/>
            <rect x="511" y="33" width="56" height="32" class="nonterminal"/>
            <text class="nonterminal" x="521" y="53">exprb</text><!-- </a> -->
<rect x="629" y="35" width="48" height="32" rx="10"/>
         <rect x="627" y="33" width="48" height="32" class="terminal" rx="10"/>
         <text class="terminal" x="637" y="53">FOR</text>
<!--  <a xmlns:xlink="http://www.w3.org/1999/xlink" xlink:href="#exprf" xlink:title="exprf"> -->
            <rect x="697" y="35" width="52" height="32"/>
            <rect x="695" y="33" width="52" height="32" class="nonterminal"/>
            <text class="nonterminal" x="705" y="53">exprf</text><!-- </a> -->
<!--  <a xmlns:xlink="http://www.w3.org/1999/xlink" xlink:href="#control2" xlink:title="control2"> -->
            <rect x="51" y="79" width="72" height="32"/>
            <rect x="49" y="77" width="72" height="32" class="nonterminal"/>
            <text class="nonterminal" x="59" y="97">control2</text><!-- </a> -->
<rect x="143" y="79" width="58" height="32" rx="10"/>
         <rect x="141" y="77" width="58" height="32" class="terminal" rx="10"/>
         <text class="terminal" x="151" y="97">OVER</text>
<!--  <a xmlns:xlink="http://www.w3.org/1999/xlink" xlink:href="#collection" xlink:title="collection"> -->
            <rect x="221" y="79" width="78" height="32"/>
            <rect x="219" y="77" width="78" height="32" class="nonterminal"/>
            <text class="nonterminal" x="229" y="97">collection</text><!-- </a> -->
<rect x="339" y="111" width="48" height="32" rx="10"/>
         <rect x="337" y="109" width="48" height="32" class="terminal" rx="10"/>
         <text class="terminal" x="347" y="129">FOR</text>
<!--  <a xmlns:xlink="http://www.w3.org/1999/xlink" xlink:href="#exprf" xlink:title="exprf"> -->
            <rect x="407" y="111" width="52" height="32"/>
            <rect x="405" y="109" width="52" height="32" class="nonterminal"/>
            <text class="nonterminal" x="415" y="129">exprf</text><!-- </a> -->
<rect x="51" y="155" width="58" height="32" rx="10"/>
         <rect x="49" y="153" width="58" height="32" class="terminal" rx="10"/>
         <text class="terminal" x="59" y="173">WITH</text>
         <rect x="149" y="187" width="64" height="32" rx="10"/>
         <rect x="147" y="185" width="64" height="32" class="terminal" rx="10"/>
         <text class="terminal" x="157" y="205">INDEX</text>
<!--  <a xmlns:xlink="http://www.w3.org/1999/xlink" xlink:href="#index" xlink:title="index"> -->
            <rect x="233" y="187" width="54" height="32"/>
            <rect x="231" y="185" width="54" height="32" class="nonterminal"/>
            <text class="nonterminal" x="241" y="205">index</text><!-- </a> -->
<rect x="347" y="187" width="54" height="32" rx="10"/>
         <rect x="345" y="185" width="54" height="32" class="terminal" rx="10"/>
         <text class="terminal" x="355" y="205">ITEM</text>
<!--  <a xmlns:xlink="http://www.w3.org/1999/xlink" xlink:href="#item" xlink:title="item"> -->
            <rect x="421" y="187" width="48" height="32"/>
            <rect x="419" y="185" width="48" height="32" class="nonterminal"/>
            <text class="nonterminal" x="429" y="205">item</text><!-- </a> -->
<rect x="509" y="155" width="58" height="32" rx="10"/>
         <rect x="507" y="153" width="58" height="32" class="terminal" rx="10"/>
         <text class="terminal" x="517" y="173">OVER</text>
<!--  <a xmlns:xlink="http://www.w3.org/1999/xlink" xlink:href="#supplier" xlink:title="supplier"> -->
            <rect x="587" y="155" width="70" height="32"/>
            <rect x="585" y="153" width="70" height="32" class="nonterminal"/>
            <text class="nonterminal" x="595" y="173">supplier</text><!-- </a> -->
<rect x="697" y="187" width="48" height="32" rx="10"/>
         <rect x="695" y="185" width="48" height="32" class="terminal" rx="10"/>
         <text class="terminal" x="705" y="205">FOR</text>
<!--  <a xmlns:xlink="http://www.w3.org/1999/xlink" xlink:href="#exprf" xlink:title="exprf"> -->
            <rect x="765" y="187" width="52" height="32"/>
            <rect x="763" y="185" width="52" height="32" class="nonterminal"/>
            <text class="nonterminal" x="773" y="205">exprf</text><!-- </a> -->
<rect x="51" y="231" width="82" height="32" rx="10"/>
         <rect x="49" y="229" width="82" height="32" class="terminal" rx="10"/>
         <text class="terminal" x="59" y="249">FOREVER</text>
<!--  <a xmlns:xlink="http://www.w3.org/1999/xlink" xlink:href="#exprr" xlink:title="exprr"> -->
            <rect x="51" y="275" width="52" height="32"/>
            <rect x="49" y="273" width="52" height="32" class="nonterminal"/>
            <text class="nonterminal" x="59" y="293">exprr</text><!-- </a> -->
<svg:path xmlns:svg="http://www.w3.org/2000/svg" class="line" d="m17 17 h2 m20 0 h10 m72 0 h10 m0 0 h10 m30 0 h10 m0 0 h10 m52 0 h10 m20 0 h10 m0 0 h120 m-150 0 h20 m130 0 h20 m-170 0 q10 0 10 10 m150 0 q0 -10 10 -10 m-160 10 v12 m150 0 v-12 m-150 12 q0 10 10 10 m130 0 q10 0 10 -10 m-140 10 h10 m38 0 h10 m0 0 h10 m52 0 h10 m40 -32 h10 m0 0 h124 m-154 0 h20 m134 0 h20 m-174 0 q10 0 10 10 m154 0 q0 -10 10 -10 m-164 10 v12 m154 0 v-12 m-154 12 q0 10 10 10 m134 0 q10 0 10 -10 m-144 10 h10 m38 0 h10 m0 0 h10 m56 0 h10 m40 -32 h10 m0 0 h130 m-160 0 h20 m140 0 h20 m-180 0 q10 0 10 10 m160 0 q0 -10 10 -10 m-170 10 v12 m160 0 v-12 m-160 12 q0 10 10 10 m140 0 q10 0 10 -10 m-150 10 h10 m48 0 h10 m0 0 h10 m52 0 h10 m20 -32 h68 m-826 0 h20 m806 0 h20 m-846 0 q10 0 10 10 m826 0 q0 -10 10 -10 m-836 10 v56 m826 0 v-56 m-826 56 q0 10 10 10 m806 0 q10 0 10 -10 m-816 10 h10 m72 0 h10 m0 0 h10 m58 0 h10 m0 0 h10 m78 0 h10 m20 0 h10 m0 0 h130 m-160 0 h20 m140 0 h20 m-180 0 q10 0 10 10 m160 0 q0 -10 10 -10 m-170 10 v12 m160 0 v-12 m-160 12 q0 10 10 10 m140 0 q10 0 10 -10 m-150 10 h10 m48 0 h10 m0 0 h10 m52 0 h10 m20 -32 h358 m-816 -10 v20 m826 0 v-20 m-826 20 v56 m826 0 v-56 m-826 56 q0 10 10 10 m806 0 q10 0 10 -10 m-816 10 h10 m58 0 h10 m20 0 h10 m0 0 h148 m-178 0 h20 m158 0 h20 m-198 0 q10 0 10 10 m178 0 q0 -10 10 -10 m-188 10 v12 m178 0 v-12 m-178 12 q0 10 10 10 m158 0 q10 0 10 -10 m-168 10 h10 m64 0 h10 m0 0 h10 m54 0 h10 m40 -32 h10 m0 0 h132 m-162 0 h20 m142 0 h20 m-182 0 q10 0 10 10 m162 0 q0 -10 10 -10 m-172 10 v12 m162 0 v-12 m-162 12 q0 10 10 10 m142 0 q10 0 10 -10 m-152 10 h10 m54 0 h10 m0 0 h10 m48 0 h10 m20 -32 h10 m58 0 h10 m0 0 h10 m70 0 h10 m20 0 h10 m0 0 h130 m-160 0 h20 m140 0 h20 m-180 0 q10 0 10 10 m160 0 q0 -10 10 -10 m-170 10 v12 m160 0 v-12 m-160 12 q0 10 10 10 m140 0 q10 0 10 -10 m-150 10 h10 m48 0 h10 m0 0 h10 m52 0 h10 m-796 -42 v20 m826 0 v-20 m-826 20 v56 m826 0 v-56 m-826 56 q0 10 10 10 m806 0 q10 0 10 -10 m-816 10 h10 m82 0 h10 m0 0 h704 m-816 -10 v20 m826 0 v-20 m-826 20 v24 m826 0 v-24 m-826 24 q0 10 10 10 m806 0 q10 0 10 -10 m-816 10 h10 m52 0 h10 m0 0 h734 m23 -272 h-3"/>
         <polygon points="875 17 883 13 883 21"/>
         <polygon points="875 17 867 13 867 21"/></svg>
