      <svg xmlns="http://www.w3.org/2000/svg" width="876" height="308">
         <defs>
            <style type="text/css">
               @namespace "http://www.w3.org/2000/svg";
               .line                 {fill: none; stroke: #1F1F1F;}
               .bold-line            {stroke: #0A0A0A; shape-rendering: crispEdges; stroke-width:
               2; }
               .thin-line            {stroke: #0F0F0F; shape-rendering: crispEdges}
               .filled               {fill: #1F1F1F; stroke: none;}
               text.terminal         {font-family: Verdana, Sans-serif;
               font-size: 12px;
               fill: #0A0A0A;
               font-weight: bold;
               }
               text.nonterminal      {font-family: Verdana, Sans-serif; font-style: italic;
               font-size: 12px;
               fill: #0D0D0D;
               }
               text.regexp           {font-family: Verdana, Sans-serif;
               font-size: 12px;
               fill: #0F0F0F;
               }
               rect, circle, polygon {fill: #1F1F1F; stroke: #1F1F1F;}
               rect.terminal         {fill: #CCCCCC; stroke: #1F1F1F;}
               rect.nonterminal      {fill: #E3E3E3; stroke: #1F1F1F;}
               rect.text             {fill: none; stroke: none;}    
               polygon.regexp        {fill: #EFEFEF; stroke: #1F1F1F;}
               
            </style>
         </defs>
         <polygon points="9 17 1 13 1 21"/>
         <polygon points="17 17 9 13 9 21"/>
<!--     <a xmlns:xlink="http://www.w3.org/1999/xlink" xlink:href="#control1" xlink:title="control1"> -->
            <rect x="51" y="3" width="70" height="32"/>
            <rect x="49" y="1" width="70" height="32" class="nonterminal"/>
            <text class="nonterminal" x="59" y="21">control1</text>
<!--     </a> -->
         <rect x="141" y="3" width="30" height="32" rx="10"/>
         <rect x="139" y="1" width="30" height="32" class="terminal" rx="10"/>
         <text class="terminal" x="149" y="21">=</text>
<!--     <a xmlns:xlink="http://www.w3.org/1999/xlink" xlink:href="#expri" xlink:title="expri"> -->
            <rect x="191" y="3" width="50" height="32"/>
            <rect x="189" y="1" width="50" height="32" class="nonterminal"/>
            <text class="nonterminal" x="199" y="21">expri</text>
<!--     </a> -->
         <rect x="281" y="35" width="38" height="32" rx="10"/>
         <rect x="279" y="33" width="38" height="32" class="terminal" rx="10"/>
         <text class="terminal" x="289" y="53">TO</text>
<!--     <a xmlns:xlink="http://www.w3.org/1999/xlink" xlink:href="#exprt" xlink:title="exprt"> -->
            <rect x="339" y="35" width="52" height="32"/>
            <rect x="337" y="33" width="52" height="32" class="nonterminal"/>
            <text class="nonterminal" x="347" y="53">exprt</text>
<!--     </a> -->
         <rect x="451" y="35" width="38" height="32" rx="10"/>
         <rect x="449" y="33" width="38" height="32" class="terminal" rx="10"/>
         <text class="terminal" x="459" y="53">BY</text>
<!--     <a xmlns:xlink="http://www.w3.org/1999/xlink" xlink:href="#exprb" xlink:title="exprb"> -->
            <rect x="509" y="35" width="56" height="32"/>
            <rect x="507" y="33" width="56" height="32" class="nonterminal"/>
            <text class="nonterminal" x="517" y="53">exprb</text>
<!--     </a> -->
         <rect x="625" y="35" width="48" height="32" rx="10"/>
         <rect x="623" y="33" width="48" height="32" class="terminal" rx="10"/>
         <text class="terminal" x="633" y="53">FOR</text>
<!--     <a xmlns:xlink="http://www.w3.org/1999/xlink" xlink:href="#exprf" xlink:title="exprf"> -->
            <rect x="693" y="35" width="52" height="32"/>
            <rect x="691" y="33" width="52" height="32" class="nonterminal"/>
            <text class="nonterminal" x="701" y="53">exprf</text>
<!--     </a> -->
<!--     <a xmlns:xlink="http://www.w3.org/1999/xlink" xlink:href="#control2" xlink:title="control2"> -->
            <rect x="51" y="79" width="70" height="32"/>
            <rect x="49" y="77" width="70" height="32" class="nonterminal"/>
            <text class="nonterminal" x="59" y="97">control2</text>
<!--     </a> -->
         <rect x="141" y="79" width="56" height="32" rx="10"/>
         <rect x="139" y="77" width="56" height="32" class="terminal" rx="10"/>
         <text class="terminal" x="149" y="97">OVER</text>
<!--     <a xmlns:xlink="http://www.w3.org/1999/xlink" xlink:href="#collection" xlink:title="collection"> -->
            <rect x="217" y="79" width="78" height="32"/>
            <rect x="215" y="77" width="78" height="32" class="nonterminal"/>
            <text class="nonterminal" x="225" y="97">collection</text>
<!--     </a> -->
         <rect x="335" y="111" width="48" height="32" rx="10"/>
         <rect x="333" y="109" width="48" height="32" class="terminal" rx="10"/>
         <text class="terminal" x="343" y="129">FOR</text>
<!--     <a xmlns:xlink="http://www.w3.org/1999/xlink" xlink:href="#exprf" xlink:title="exprf"> -->
            <rect x="403" y="111" width="52" height="32"/>
            <rect x="401" y="109" width="52" height="32" class="nonterminal"/>
            <text class="nonterminal" x="411" y="129">exprf</text>
<!--     </a> -->
         <rect x="51" y="155" width="58" height="32" rx="10"/>
         <rect x="49" y="153" width="58" height="32" class="terminal" rx="10"/>
         <text class="terminal" x="59" y="173">WITH</text>
         <rect x="149" y="187" width="62" height="32" rx="10"/>
         <rect x="147" y="185" width="62" height="32" class="terminal" rx="10"/>
         <text class="terminal" x="157" y="205">INDEX</text>
<!--     <a xmlns:xlink="http://www.w3.org/1999/xlink" xlink:href="#index" xlink:title="index"> -->
            <rect x="231" y="187" width="54" height="32"/>
            <rect x="229" y="185" width="54" height="32" class="nonterminal"/>
            <text class="nonterminal" x="239" y="205">index</text>
<!--     </a> -->
         <rect x="345" y="187" width="52" height="32" rx="10"/>
         <rect x="343" y="185" width="52" height="32" class="terminal" rx="10"/>
         <text class="terminal" x="353" y="205">ITEM</text>
<!--     <a xmlns:xlink="http://www.w3.org/1999/xlink" xlink:href="#item" xlink:title="item"> -->
            <rect x="417" y="187" width="46" height="32"/>
            <rect x="415" y="185" width="46" height="32" class="nonterminal"/>
            <text class="nonterminal" x="425" y="205">item</text>
<!--     </a> -->
         <rect x="503" y="155" width="56" height="32" rx="10"/>
         <rect x="501" y="153" width="56" height="32" class="terminal" rx="10"/>
         <text class="terminal" x="511" y="173">OVER</text>
<!--     <a xmlns:xlink="http://www.w3.org/1999/xlink" xlink:href="#supplier" xlink:title="supplier"> -->
            <rect x="579" y="155" width="70" height="32"/>
            <rect x="577" y="153" width="70" height="32" class="nonterminal"/>
            <text class="nonterminal" x="587" y="173">supplier</text>
<!--     </a> -->
         <rect x="689" y="187" width="48" height="32" rx="10"/>
         <rect x="687" y="185" width="48" height="32" class="terminal" rx="10"/>
         <text class="terminal" x="697" y="205">FOR</text>
<!--     <a xmlns:xlink="http://www.w3.org/1999/xlink" xlink:href="#exprf" xlink:title="exprf"> -->
            <rect x="757" y="187" width="52" height="32"/>
            <rect x="755" y="185" width="52" height="32" class="nonterminal"/>
            <text class="nonterminal" x="765" y="205">exprf</text>
<!--     </a> -->
         <rect x="51" y="231" width="82" height="32" rx="10"/>
         <rect x="49" y="229" width="82" height="32" class="terminal" rx="10"/>
         <text class="terminal" x="59" y="249">FOREVER</text>
<!--     <a xmlns:xlink="http://www.w3.org/1999/xlink" xlink:href="#exprr" xlink:title="exprr"> -->
            <rect x="51" y="275" width="52" height="32"/>
            <rect x="49" y="273" width="52" height="32" class="nonterminal"/>
            <text class="nonterminal" x="59" y="293">exprr</text>
<!--     </a> -->
         <svg:path xmlns:svg="http://www.w3.org/2000/svg" class="line" d="m17 17 h2 m20 0 h10 m70 0 h10 m0 0 h10 m30 0 h10 m0 0 h10 m50 0 h10 m20 0 h10 m0 0 h120 m-150 0 h20 m130 0 h20 m-170 0 q10 0 10 10 m150 0 q0 -10 10 -10 m-160 10 v12 m150 0 v-12 m-150 12 q0 10 10 10 m130 0 q10 0 10 -10 m-140 10 h10 m38 0 h10 m0 0 h10 m52 0 h10 m40 -32 h10 m0 0 h124 m-154 0 h20 m134 0 h20 m-174 0 q10 0 10 10 m154 0 q0 -10 10 -10 m-164 10 v12 m154 0 v-12 m-154 12 q0 10 10 10 m134 0 q10 0 10 -10 m-144 10 h10 m38 0 h10 m0 0 h10 m56 0 h10 m40 -32 h10 m0 0 h130 m-160 0 h20 m140 0 h20 m-180 0 q10 0 10 10 m160 0 q0 -10 10 -10 m-170 10 v12 m160 0 v-12 m-160 12 q0 10 10 10 m140 0 q10 0 10 -10 m-150 10 h10 m48 0 h10 m0 0 h10 m52 0 h10 m20 -32 h64 m-818 0 h20 m798 0 h20 m-838 0 q10 0 10 10 m818 0 q0 -10 10 -10 m-828 10 v56 m818 0 v-56 m-818 56 q0 10 10 10 m798 0 q10 0 10 -10 m-808 10 h10 m70 0 h10 m0 0 h10 m56 0 h10 m0 0 h10 m78 0 h10 m20 0 h10 m0 0 h130 m-160 0 h20 m140 0 h20 m-180 0 q10 0 10 10 m160 0 q0 -10 10 -10 m-170 10 v12 m160 0 v-12 m-160 12 q0 10 10 10 m140 0 q10 0 10 -10 m-150 10 h10 m48 0 h10 m0 0 h10 m52 0 h10 m20 -32 h354 m-808 -10 v20 m818 0 v-20 m-818 20 v56 m818 0 v-56 m-818 56 q0 10 10 10 m798 0 q10 0 10 -10 m-808 10 h10 m58 0 h10 m20 0 h10 m0 0 h146 m-176 0 h20 m156 0 h20 m-196 0 q10 0 10 10 m176 0 q0 -10 10 -10 m-186 10 v12 m176 0 v-12 m-176 12 q0 10 10 10 m156 0 q10 0 10 -10 m-166 10 h10 m62 0 h10 m0 0 h10 m54 0 h10 m40 -32 h10 m0 0 h128 m-158 0 h20 m138 0 h20 m-178 0 q10 0 10 10 m158 0 q0 -10 10 -10 m-168 10 v12 m158 0 v-12 m-158 12 q0 10 10 10 m138 0 q10 0 10 -10 m-148 10 h10 m52 0 h10 m0 0 h10 m46 0 h10 m20 -32 h10 m56 0 h10 m0 0 h10 m70 0 h10 m20 0 h10 m0 0 h130 m-160 0 h20 m140 0 h20 m-180 0 q10 0 10 10 m160 0 q0 -10 10 -10 m-170 10 v12 m160 0 v-12 m-160 12 q0 10 10 10 m140 0 q10 0 10 -10 m-150 10 h10 m48 0 h10 m0 0 h10 m52 0 h10 m-788 -42 v20 m818 0 v-20 m-818 20 v56 m818 0 v-56 m-818 56 q0 10 10 10 m798 0 q10 0 10 -10 m-808 10 h10 m82 0 h10 m0 0 h696 m-808 -10 v20 m818 0 v-20 m-818 20 v24 m818 0 v-24 m-818 24 q0 10 10 10 m798 0 q10 0 10 -10 m-808 10 h10 m52 0 h10 m0 0 h726 m23 -272 h-3"/>
         <polygon points="867 17 875 13 875 21"/>
         <polygon points="867 17 859 13 859 21"/>
      </svg>
