<svg xmlns="http://www.w3.org/2000/svg" width="837" height="113">
         <defs>
            <style type="text/css">
    @namespace "http://www.w3.org/2000/svg";
    .line                 {fill: none; stroke: #1F1F1F;}
    .bold-line            {stroke: #0A0A0A; shape-rendering: crispEdges; stroke-width: 2; }
    .thin-line            {stroke: #0F0F0F; shape-rendering: crispEdges}
    .filled               {fill: #1F1F1F; stroke: none;}
    text.terminal         {font-family: Verdana, Sans-serif;
                            font-size: 12px;
                            fill: #0A0A0A;
                            font-weight: bold;
                          }
    text.nonterminal      {font-family: Verdana, Sans-serif; font-style: italic;
                            font-size: 12px;
                            fill: #0D0D0D;
                            font-weight: normal;
                          }
    text.regexp           {font-family: Verdana, Sans-serif;
                            font-size: 12px;
                            fill: #0F0F0F;
                            font-weight: normal;
                          }
    rect, circle, polygon {fill: #1F1F1F; stroke: #1F1F1F;}
    rect.terminal         {fill: #cccccc; stroke: #1F1F1F;}
    rect.nonterminal      {fill: #E3E3E3; stroke: #1F1F1F;}
    rect.text             {fill: none; stroke: none;}    
    polygon.regexp        {fill: #EFEFEF; stroke: #1F1F1F;}
  </style>
         </defs>
         <polygon points="9 17 1 13 1 21"/>
         <polygon points="17 17 9 13 9 21"/>
         <rect x="51" y="3" width="40" height="32" rx="10"/>
         <rect x="49" y="1" width="40" height="32" class="terminal" rx="10"/>
         <text class="terminal" x="59" y="21">DO</text>
         <rect x="51" y="47" width="58" height="32" rx="10"/>
         <rect x="49" y="45" width="58" height="32" class="terminal" rx="10"/>
         <text class="terminal" x="59" y="65">LOOP</text>
         <rect x="169" y="35" width="86" height="32" rx="10"/>
         <rect x="167" y="33" width="86" height="32" class="terminal" rx="10"/>
         <text class="terminal" x="177" y="53">COUNTER</text>
<!--  <a xmlns:xlink="http://www.w3.org/1999/xlink" xlink:href="#ctr" xlink:title="ctr"> -->
            <rect x="275" y="35" width="36" height="32"/>
            <rect x="273" y="33" width="36" height="32" class="nonterminal"/>
            <text class="nonterminal" x="283" y="53">ctr</text><!-- </a> -->
<rect x="169" y="79" width="62" height="32" rx="10"/>
         <rect x="167" y="77" width="62" height="32" class="terminal" rx="10"/>
         <text class="terminal" x="177" y="97">LABEL</text>
<!--  <a xmlns:xlink="http://www.w3.org/1999/xlink" xlink:href="#name" xlink:title="name"> -->
            <rect x="251" y="79" width="56" height="32"/>
            <rect x="249" y="77" width="56" height="32" class="nonterminal"/>
            <text class="nonterminal" x="259" y="97">name</text><!-- </a> -->
<polygon points="371 51 378 35 534 35 541 51 534 67 378 67"/>
         <polygon points="369 49 376 33 532 33 539 49 532 65 376 65" class="regexp"/>
         <text class="regexp" x="384" y="53">REPETITOR - fragment</text>
         <polygon points="601 51 608 35 782 35 789 51 782 67 608 67"/>
         <polygon points="599 49 606 33 780 33 787 49 780 65 606 65" class="regexp"/>
         <text class="regexp" x="614" y="53">CONDITIONAL - fragment</text>
         <svg:path xmlns:svg="http://www.w3.org/2000/svg" class="line" d="m17 17 h2 m20 0 h10 m40 0 h10 m0 0 h18 m-98 0 h20 m78 0 h20 m-118 0 q10 0 10 10 m98 0 q0 -10 10 -10 m-108 10 v24 m98 0 v-24 m-98 24 q0 10 10 10 m78 0 q10 0 10 -10 m-88 10 h10 m58 0 h10 m40 -44 h10 m0 0 h152 m-182 0 h20 m162 0 h20 m-202 0 q10 0 10 10 m182 0 q0 -10 10 -10 m-192 10 v12 m182 0 v-12 m-182 12 q0 10 10 10 m162 0 q10 0 10 -10 m-172 10 h10 m86 0 h10 m0 0 h10 m36 0 h10 m-172 -10 v20 m182 0 v-20 m-182 20 v24 m182 0 v-24 m-182 24 q0 10 10 10 m162 0 q10 0 10 -10 m-172 10 h10 m62 0 h10 m0 0 h10 m56 0 h10 m0 0 h4 m40 -76 h10 m0 0 h180 m-210 0 h20 m190 0 h20 m-230 0 q10 0 10 10 m210 0 q0 -10 10 -10 m-220 10 v12 m210 0 v-12 m-210 12 q0 10 10 10 m190 0 q10 0 10 -10 m-200 10 h10 m170 0 h10 m40 -32 h10 m0 0 h198 m-228 0 h20 m208 0 h20 m-248 0 q10 0 10 10 m228 0 q0 -10 10 -10 m-238 10 v12 m228 0 v-12 m-228 12 q0 10 10 10 m208 0 q10 0 10 -10 m-218 10 h10 m188 0 h10 m23 -32 h-3"/>
         <polygon points="827 17 835 13 835 21"/>
         <polygon points="827 17 819 13 819 21"/></svg>
