<svg xmlns="http://www.w3.org/2000/svg" width="781" height="167">
         <defs>
            <style type="text/css">
               @namespace "http://www.w3.org/2000/svg";
               .line                 {fill: none; stroke: #1F1F1F;}
               .bold-line            {stroke: #0A0A0A; shape-rendering: crispEdges; stroke-width:
               2; }
               .thin-line            {stroke: #0F0F0F; shape-rendering: crispEdges}
               .filled               {fill: #1F1F1F; stroke: none;}
               text.terminal         {font-family: Verdana, Sans-serif;
               font-size: 12px;
               fill: #0A0A0A;
               font-weight: bold;
               }
               text.nonterminal      {font-family: Verdana, Sans-serif; font-style: italic;
               font-size: 12px;
               fill: #0D0D0D;
               }
               text.regexp           {font-family: Verdana, Sans-serif;
               font-size: 12px;
               fill: #0F0F0F;
               }
               rect, circle, polygon {fill: #1F1F1F; stroke: #1F1F1F;}
               rect.terminal         {fill: #CCCCCC; stroke: #1F1F1F;}
               rect.nonterminal      {fill: #E3E3E3; stroke: #1F1F1F;}
               rect.text             {fill: none; stroke: none;}
               polygon.regexp        {fill: #EFEFEF; stroke: #1F1F1F;}

            </style>
         </defs>

         <polygon points="9 17 1 13 1 21"/>
         <polygon points="17 17 9 13 9 21"/>
         <rect x="51" y="3" width="40" height="32" rx="10"/>
         <rect x="49" y="1" width="40" height="32" class="terminal" rx="10"/>
         <text class="terminal" x="59" y="21">DO</text>
         <rect x="51" y="47" width="58" height="32" rx="10"/>
         <rect x="49" y="45" width="58" height="32" class="terminal" rx="10"/>
         <text class="terminal" x="59" y="65">LOOP</text>
         <rect x="169" y="35" width="62" height="32" rx="10"/>
         <rect x="167" y="33" width="62" height="32" class="terminal" rx="10"/>
         <text class="terminal" x="177" y="53">LABEL</text><a xmlns:xlink="http://www.w3.org/1999/xlink" xlink:href="#name" xlink:title="name">
            <rect x="251" y="35" width="56" height="32"/>
            <rect x="249" y="33" width="56" height="32" class="nonterminal"/>
            <text class="nonterminal" x="259" y="53">name</text></a><rect x="367" y="35" width="86" height="32" rx="10"/>
         <rect x="365" y="33" width="86" height="32" class="terminal" rx="10"/>
         <text class="terminal" x="375" y="53">COUNTER</text><a xmlns:xlink="http://www.w3.org/1999/xlink" xlink:href="#ctr" xlink:title="ctr">
            <rect x="473" y="35" width="36" height="32"/>
            <rect x="471" y="33" width="36" height="32" class="nonterminal"/>
            <text class="nonterminal" x="481" y="53">ctr</text></a><polygon points="569 51 576 35 732 35 739 51 732 67 576 67"/>
         <polygon points="567 49 574 33 730 33 737 49 730 65 574 65" class="regexp"/>
         <text class="regexp" x="582" y="53">REPETITOR - fragment</text>
         <polygon points="545 149 552 133 726 133 733 149 726 165 552 165"/>
         <polygon points="543 147 550 131 724 131 731 147 724 163 550 163" class="regexp"/>
         <text class="regexp" x="558" y="151">CONDITIONAL - fragment</text>
         <path class="line" d="m17 17 h2 m20 0 h10 m40 0 h10 m0 0 h18 m-98 0 h20 m78 0 h20 m-118 0 q10 0 10 10 m98 0 q0 -10 10 -10 m-108 10 v24 m98 0 v-24 m-98 24 q0 10 10 10 m78 0 q10 0 10 -10 m-88 10 h10 m58 0 h10 m40 -44 h10 m0 0 h148 m-178 0 h20 m158 0 h20 m-198 0 q10 0 10 10 m178 0 q0 -10 10 -10 m-188 10 v12 m178 0 v-12 m-178 12 q0 10 10 10 m158 0 q10 0 10 -10 m-168 10 h10 m62 0 h10 m0 0 h10 m56 0 h10 m40 -32 h10 m0 0 h152 m-182 0 h20 m162 0 h20 m-202 0 q10 0 10 10 m182 0 q0 -10 10 -10 m-192 10 v12 m182 0 v-12 m-182 12 q0 10 10 10 m162 0 q10 0 10 -10 m-172 10 h10 m86 0 h10 m0 0 h10 m36 0 h10 m40 -32 h10 m0 0 h180 m-210 0 h20 m190 0 h20 m-230 0 q10 0 10 10 m210 0 q0 -10 10 -10 m-220 10 v12 m210 0 v-12 m-210 12 q0 10 10 10 m190 0 q10 0 10 -10 m-200 10 h10 m170 0 h10 m22 -32 l2 0 m2 0 l2 0 m2 0 l2 0 m-278 98 l2 0 m2 0 l2 0 m2 0 l2 0 m22 0 h10 m0 0 h198 m-228 0 h20 m208 0 h20 m-248 0 q10 0 10 10 m228 0 q0 -10 10 -10 m-238 10 v12 m228 0 v-12 m-228 12 q0 10 10 10 m208 0 q10 0 10 -10 m-218 10 h10 m188 0 h10 m23 -32 h-3"/>
         <polygon points="771 115 779 111 779 119"/>
         <polygon points="771 115 763 111 763 119"/>
</svg>