      <svg xmlns="http://www.w3.org/2000/svg" width="814" height="80">
         <defs>
            <style type="text/css">
               @namespace "http://www.w3.org/2000/svg";
               .line                 {fill: none; stroke: #1F1F1F;}
               .bold-line            {stroke: #0A0A0A; shape-rendering: crispEdges; stroke-width:
               2; }
               .thin-line            {stroke: #0F0F0F; shape-rendering: crispEdges}
               .filled               {fill: #1F1F1F; stroke: none;}
               text.terminal         {font-family: Verdana, Sans-serif;
               font-size: 12px;
               fill: #0A0A0A;
               font-weight: bold;
               }
               text.nonterminal      {font-family: Verdana, Sans-serif; font-style: italic;
               font-size: 12px;
               fill: #0D0D0D;
               }
               text.regexp           {font-family: Verdana, Sans-serif;
               font-size: 12px;
               fill: #0F0F0F;
               }
               rect, circle, polygon {fill: #1F1F1F; stroke: #1F1F1F;}
               rect.terminal         {fill: #CCCCCC; stroke: #1F1F1F;}
               rect.nonterminal      {fill: #E3E3E3; stroke: #1F1F1F;}
               rect.text             {fill: none; stroke: none;}    
               polygon.regexp        {fill: #EFEFEF; stroke: #1F1F1F;}
               
            </style>
         </defs>
         <polygon points="9 17 1 13 1 21"/>
         <polygon points="17 17 9 13 9 21"/>
         <rect x="51" y="3" width="40" height="32" rx="10"/>
         <rect x="49" y="1" width="40" height="32" class="terminal" rx="10"/>
         <text class="terminal" x="59" y="21">DO</text>
         <rect x="51" y="47" width="58" height="32" rx="10"/>
         <rect x="49" y="45" width="58" height="32" class="terminal" rx="10"/>
         <text class="terminal" x="59" y="65">LOOP</text>
         <rect x="169" y="35" width="62" height="32" rx="10"/>
         <rect x="167" y="33" width="62" height="32" class="terminal" rx="10"/>
         <text class="terminal" x="177" y="53">LABEL</text>
<!--     <a xmlns:xlink="http://www.w3.org/1999/xlink" xlink:href="#name" xlink:title="name"> -->
            <rect x="251" y="35" width="54" height="32"/>
            <rect x="249" y="33" width="54" height="32" class="nonterminal"/>
            <text class="nonterminal" x="259" y="53">name</text>
<!--     </a> -->
         <polygon points="365 51 372 35 520 35 527 51 520 67 372 67"/>
         <polygon points="363 49 370 33 518 33 525 49 518 65 370 65" class="regexp"/>
<!--     <a xmlns:xlink="http://www.w3.org/1999/xlink" xlink:href="#REPETITOR" xlink:title="REPETITOR"> -->
            <rect class="text" x="378" y="42" width="63" height="14"/>
            <text class="regexp" x="378" y="53">REPETITOR</text>
<!--     </a> -->
         <text class="regexp" x="446" y="53">- </text>
<!--     <a xmlns:xlink="http://www.w3.org/1999/xlink" xlink:href="#fragment" xlink:title="fragment"> -->
            <rect class="text" x="456" y="42" width="53" height="14"/>
            <text class="regexp" x="456" y="53">fragment</text>
<!--     </a> -->
         <polygon points="587 51 594 35 760 35 767 51 760 67 594 67"/>
         <polygon points="585 49 592 33 758 33 765 49 758 65 592 65" class="regexp"/>
<!--     <a xmlns:xlink="http://www.w3.org/1999/xlink" xlink:href="#CONDITIONAL" xlink:title="CONDITIONAL"> -->
            <rect class="text" x="600" y="42" width="82" height="14"/>
            <text class="regexp" x="600" y="53">CONDITIONAL</text>
<!--     </a> -->
         <text class="regexp" x="687" y="53">- </text>
<!--     <a xmlns:xlink="http://www.w3.org/1999/xlink" xlink:href="#fragment" xlink:title="fragment"> -->
            <rect class="text" x="697" y="42" width="53" height="14"/>
            <text class="regexp" x="697" y="53">fragment</text>
<!--     </a> -->
         <svg:path xmlns:svg="http://www.w3.org/2000/svg" class="line" d="m17 17 h2 m20 0 h10 m40 0 h10 m0 0 h18 m-98 0 h20 m78 0 h20 m-118 0 q10 0 10 10 m98 0 q0 -10 10 -10 m-108 10 v24 m98 0 v-24 m-98 24 q0 10 10 10 m78 0 q10 0 10 -10 m-88 10 h10 m58 0 h10 m40 -44 h10 m0 0 h146 m-176 0 h20 m156 0 h20 m-196 0 q10 0 10 10 m176 0 q0 -10 10 -10 m-186 10 v12 m176 0 v-12 m-176 12 q0 10 10 10 m156 0 q10 0 10 -10 m-166 10 h10 m62 0 h10 m0 0 h10 m54 0 h10 m40 -32 h10 m0 0 h172 m-202 0 h20 m182 0 h20 m-222 0 q10 0 10 10 m202 0 q0 -10 10 -10 m-212 10 v12 m202 0 v-12 m-202 12 q0 10 10 10 m182 0 q10 0 10 -10 m-192 10 h10 m162 0 h10 m40 -32 h10 m0 0 h190 m-220 0 h20 m200 0 h20 m-240 0 q10 0 10 10 m220 0 q0 -10 10 -10 m-230 10 v12 m220 0 v-12 m-220 12 q0 10 10 10 m200 0 q10 0 10 -10 m-210 10 h10 m180 0 h10 m23 -32 h-3"/>
         <polygon points="805 17 813 13 813 21"/>
         <polygon points="805 17 797 13 797 21"/>
      </svg>
