      <svg xmlns="http://www.w3.org/2000/svg" width="872" height="80">
         <defs>
            <style type="text/css">
               @namespace "http://www.w3.org/2000/svg";
               .line                 {fill: none; stroke: #1F1F1F;}
               .bold-line            {stroke: #0A0A0A; shape-rendering: crispEdges; stroke-width:
               2; }
               .thin-line            {stroke: #0F0F0F; shape-rendering: crispEdges}
               .filled               {fill: #1F1F1F; stroke: none;}
               text.terminal         {font-family: Verdana, Sans-serif;
               font-size: 12px;
               fill: #0A0A0A;
               font-weight: bold;
               }
               text.nonterminal      {font-family: Verdana, Sans-serif; font-style: italic;
               font-size: 12px;
               fill: #0D0D0D;
               }
               text.regexp           {font-family: Verdana, Sans-serif;
               font-size: 12px;
               fill: #0F0F0F;
               }
               rect, circle, polygon {fill: #1F1F1F; stroke: #1F1F1F;}
               rect.terminal         {fill: #CCCCCC; stroke: #1F1F1F;}
               rect.nonterminal      {fill: #E3E3E3; stroke: #1F1F1F;}
               rect.text             {fill: none; stroke: none;}    
               polygon.regexp        {fill: #EFEFEF; stroke: #1F1F1F;}
               
            </style>
         </defs>
         <polygon points="9 17 1 13 1 21"/>
         <polygon points="17 17 9 13 9 21"/>
         <rect x="51" y="3" width="40" height="32" rx="10"/>
         <rect x="49" y="1" width="40" height="32" class="terminal" rx="10"/>
         <text class="terminal" x="59" y="21">DO</text>
         <rect x="51" y="47" width="58" height="32" rx="10"/>
         <rect x="49" y="45" width="58" height="32" class="terminal" rx="10"/>
         <text class="terminal" x="59" y="65">LOOP</text>
         <rect x="169" y="3" width="62" height="32" rx="10"/>
         <rect x="167" y="1" width="62" height="32" class="terminal" rx="10"/>
         <text class="terminal" x="177" y="21">LABEL</text>
<!--     <a xmlns:xlink="http://www.w3.org/1999/xlink" xlink:href="#name" xlink:title="name"> -->
            <rect x="251" y="3" width="54" height="32"/>
            <rect x="249" y="1" width="54" height="32" class="nonterminal"/>
            <text class="nonterminal" x="259" y="21">name</text>
<!--     </a> -->
         <polygon points="365 19 372 3 526 3 533 19 526 35 372 35"/>
         <polygon points="363 17 370 1 524 1 531 17 524 33 370 33" class="regexp"/>
<!--     <a xmlns:xlink="http://www.w3.org/1999/xlink" xlink:href="#REPETITOR" xlink:title="REPETITOR"> -->
            <rect class="text" x="378" y="10" width="68" height="14"/>
            <text class="regexp" x="378" y="21">REPETITOR</text>
<!--     </a> -->
         <text class="regexp" x="451" y="21">- </text>
<!--     <a xmlns:xlink="http://www.w3.org/1999/xlink" xlink:href="#fragment" xlink:title="fragment"> -->
            <rect class="text" x="460" y="10" width="56" height="14"/>
            <text class="regexp" x="460" y="21">fragment</text>
<!--     </a> -->
         <polygon points="593 19 600 3 774 3 781 19 774 35 600 35"/>
         <polygon points="591 17 598 1 772 1 779 17 772 33 598 33" class="regexp"/>
<!--     <a xmlns:xlink="http://www.w3.org/1999/xlink" xlink:href="#CONDITIONAL" xlink:title="CONDITIONAL"> -->
            <rect class="text" x="606" y="10" width="87" height="14"/>
            <text class="regexp" x="606" y="21">CONDITIONAL</text>
<!--     </a> -->
         <text class="regexp" x="698" y="21">- </text>
<!--     <a xmlns:xlink="http://www.w3.org/1999/xlink" xlink:href="#fragment" xlink:title="fragment"> -->
            <rect class="text" x="707" y="10" width="56" height="14"/>
            <text class="regexp" x="707" y="21">fragment</text>
<!--     </a> -->
         <rect x="821" y="3" width="24" height="32" rx="10"/>
         <rect x="819" y="1" width="24" height="32" class="terminal" rx="10"/>
         <text class="terminal" x="829" y="21">;</text>
         <svg:path xmlns:svg="http://www.w3.org/2000/svg" class="line" d="m17 17 h2 m20 0 h10 m40 0 h10 m0 0 h18 m-98 0 h20 m78 0 h20 m-118 0 q10 0 10 10 m98 0 q0 -10 10 -10 m-108 10 v24 m98 0 v-24 m-98 24 q0 10 10 10 m78 0 q10 0 10 -10 m-88 10 h10 m58 0 h10 m40 -44 h10 m62 0 h10 m0 0 h10 m54 0 h10 m-176 0 h20 m156 0 h20 m-196 0 q10 0 10 10 m176 0 q0 -10 10 -10 m-186 10 v14 m176 0 v-14 m-176 14 q0 10 10 10 m156 0 q10 0 10 -10 m-166 10 h10 m0 0 h146 m40 -34 h10 m168 0 h10 m-208 0 h20 m188 0 h20 m-228 0 q10 0 10 10 m208 0 q0 -10 10 -10 m-218 10 v14 m208 0 v-14 m-208 14 q0 10 10 10 m188 0 q10 0 10 -10 m-198 10 h10 m0 0 h178 m40 -34 h10 m188 0 h10 m-228 0 h20 m208 0 h20 m-248 0 q10 0 10 10 m228 0 q0 -10 10 -10 m-238 10 v14 m228 0 v-14 m-228 14 q0 10 10 10 m208 0 q10 0 10 -10 m-218 10 h10 m0 0 h198 m20 -34 h10 m24 0 h10 m3 0 h-3"/>
         <polygon points="863 17 871 13 871 21"/>
         <polygon points="863 17 855 13 855 21"/>
      </svg>
