<svg xmlns="http://www.w3.org/2000/svg" width="833" height="81">
         <defs>
            <style type="text/css">
    @namespace "http://www.w3.org/2000/svg";
    .line                 {fill: none; stroke: #1F1F1F;}
    .bold-line            {stroke: #0A0A0A; shape-rendering: crispEdges; stroke-width: 2; }
    .thin-line            {stroke: #0F0F0F; shape-rendering: crispEdges}
    .filled               {fill: #1F1F1F; stroke: none;}
    text.terminal         {font-family: Verdana, Sans-serif;
                            font-size: 12px;
                            fill: #0A0A0A;
                            font-weight: bold;
                          }
    text.nonterminal      {font-family: Verdana, Sans-serif; font-style: italic;
                            font-size: 12px;
                            fill: #0D0D0D;
                            font-weight: normal;
                          }
    text.regexp           {font-family: Verdana, Sans-serif;
                            font-size: 12px;
                            fill: #0F0F0F;
                            font-weight: normal;
                          }
    rect, circle, polygon {fill: #1F1F1F; stroke: #1F1F1F;}
    rect.terminal         {fill: #CCCCCC; stroke: #1F1F1F;}
    rect.nonterminal      {fill: #E3E3E3; stroke: #1F1F1F;}
    rect.text             {fill: none; stroke: none;}    
    polygon.regexp        {fill: #EFEFEF; stroke: #1F1F1F;}
  </style>
         </defs>
         <polygon points="9 17 1 13 1 21"/>
         <polygon points="17 17 9 13 9 21"/>
         <rect x="51" y="3" width="40" height="32" rx="10"/>
         <rect x="49" y="1" width="40" height="32" class="terminal" rx="10"/>
         <text class="terminal" x="59" y="21">DO</text>
         <rect x="51" y="47" width="58" height="32" rx="10"/>
         <rect x="49" y="45" width="58" height="32" class="terminal" rx="10"/>
         <text class="terminal" x="59" y="65">LOOP</text>
         <rect x="169" y="35" width="62" height="32" rx="10"/>
         <rect x="167" y="33" width="62" height="32" class="terminal" rx="10"/>
         <text class="terminal" x="177" y="53">LABEL</text>
<!--  <a xmlns:xlink="http://www.w3.org/1999/xlink" xlink:href="#name" xlink:title="name"> -->
            <rect x="251" y="35" width="56" height="32"/>
            <rect x="249" y="33" width="56" height="32" class="nonterminal"/>
            <text class="nonterminal" x="259" y="53">name</text><!-- </a> -->
<polygon points="367 51 374 35 530 35 537 51 530 67 374 67"/>
         <polygon points="365 49 372 33 528 33 535 49 528 65 372 65" class="regexp"/>
<!--  <a xmlns:xlink="http://www.w3.org/1999/xlink" xlink:href="#REPETITOR" xlink:title="REPETITOR"> -->
            <rect class="text" x="380" y="42" width="68" height="14"/>
            <text class="regexp" x="380" y="53">REPETITOR</text><!-- </a> -->
<text class="regexp" x="453" y="53">- </text>
<!--  <a xmlns:xlink="http://www.w3.org/1999/xlink" xlink:href="#fragment" xlink:title="fragment"> -->
            <rect class="text" x="462" y="42" width="57" height="14"/>
            <text class="regexp" x="462" y="53">fragment</text><!-- </a> -->
<polygon points="597 51 604 35 778 35 785 51 778 67 604 67"/>
         <polygon points="595 49 602 33 776 33 783 49 776 65 602 65" class="regexp"/>
<!--  <a xmlns:xlink="http://www.w3.org/1999/xlink" xlink:href="#CONDITIONAL" xlink:title="CONDITIONAL"> -->
            <rect class="text" x="610" y="42" width="86" height="14"/>
            <text class="regexp" x="610" y="53">CONDITIONAL</text><!-- </a> -->
<text class="regexp" x="701" y="53">- </text>
<!--  <a xmlns:xlink="http://www.w3.org/1999/xlink" xlink:href="#fragment" xlink:title="fragment"> -->
            <rect class="text" x="711" y="42" width="57" height="14"/>
            <text class="regexp" x="711" y="53">fragment</text><!-- </a> -->
<svg:path xmlns:svg="http://www.w3.org/2000/svg" class="line" d="m17 17 h2 m20 0 h10 m40 0 h10 m0 0 h18 m-98 0 h20 m78 0 h20 m-118 0 q10 0 10 10 m98 0 q0 -10 10 -10 m-108 10 v24 m98 0 v-24 m-98 24 q0 10 10 10 m78 0 q10 0 10 -10 m-88 10 h10 m58 0 h10 m40 -44 h10 m0 0 h148 m-178 0 h20 m158 0 h20 m-198 0 q10 0 10 10 m178 0 q0 -10 10 -10 m-188 10 v12 m178 0 v-12 m-178 12 q0 10 10 10 m158 0 q10 0 10 -10 m-168 10 h10 m62 0 h10 m0 0 h10 m56 0 h10 m40 -32 h10 m0 0 h180 m-210 0 h20 m190 0 h20 m-230 0 q10 0 10 10 m210 0 q0 -10 10 -10 m-220 10 v12 m210 0 v-12 m-210 12 q0 10 10 10 m190 0 q10 0 10 -10 m-200 10 h10 m170 0 h10 m40 -32 h10 m0 0 h198 m-228 0 h20 m208 0 h20 m-248 0 q10 0 10 10 m228 0 q0 -10 10 -10 m-238 10 v12 m228 0 v-12 m-228 12 q0 10 10 10 m208 0 q10 0 10 -10 m-218 10 h10 m188 0 h10 m23 -32 h-3"/>
         <polygon points="823 17 831 13 831 21"/>
         <polygon points="823 17 815 13 815 21"/></svg>
