      <svg xmlns="http://www.w3.org/2000/svg" width="238" height="80">
         <defs>
            <style type="text/css">
               @namespace "http://www.w3.org/2000/svg";
               .line                 {fill: none; stroke: #1F1F1F;}
               .bold-line            {stroke: #0A0A0A; shape-rendering: crispEdges; stroke-width:
               2; }
               .thin-line            {stroke: #0F0F0F; shape-rendering: crispEdges}
               .filled               {fill: #1F1F1F; stroke: none;}
               text.terminal         {font-family: Verdana, Sans-serif;
               font-size: 12px;
               fill: #0A0A0A;
               font-weight: bold;
               }
               text.nonterminal      {font-family: Verdana, Sans-serif;
               font-size: 12px;
               fill: #0D0D0D;
               }
               text.regexp           {font-family: Verdana, Sans-serif;
               font-size: 12px;
               fill: #0F0F0F;
               }
               rect, circle, polygon {fill: #1F1F1F; stroke: #1F1F1F;}
               rect.terminal         {fill: #CCCCCC; stroke: #1F1F1F;}
               rect.nonterminal      {fill: #E3E3E3; stroke: #1F1F1F;}
               rect.text             {fill: none; stroke: none;}    
               polygon.regexp        {fill: #EFEFEF; stroke: #1F1F1F;}
               
            </style>
         </defs>
         <polygon points="9 17 1 13 1 21"/>
         <polygon points="17 17 9 13 9 21"/>
         <a xmlns:xlink="http://www.w3.org/1999/xlink" xlink:href="#WHILE" xlink:title="WHILE">
            <rect x="51" y="3" width="62" height="32"/>
            <rect x="49" y="1" width="62" height="32" class="nonterminal"/>
            <text class="nonterminal" x="59" y="21">WHILE</text>
         </a>
         <a xmlns:xlink="http://www.w3.org/1999/xlink" xlink:href="#exprw" xlink:title="exprw">
            <rect x="133" y="3" width="58" height="32"/>
            <rect x="131" y="1" width="58" height="32" class="nonterminal"/>
            <text class="nonterminal" x="141" y="21">exprw</text>
         </a>
         <a xmlns:xlink="http://www.w3.org/1999/xlink" xlink:href="#UNTIL" xlink:title="UNTIL">
            <rect x="51" y="47" width="56" height="32"/>
            <rect x="49" y="45" width="56" height="32" class="nonterminal"/>
            <text class="nonterminal" x="59" y="65">UNTIL</text>
         </a>
         <a xmlns:xlink="http://www.w3.org/1999/xlink" xlink:href="#expru" xlink:title="expru">
            <rect x="127" y="47" width="56" height="32"/>
            <rect x="125" y="45" width="56" height="32" class="nonterminal"/>
            <text class="nonterminal" x="135" y="65">expru</text>
         </a>
         <svg:path xmlns:svg="http://www.w3.org/2000/svg" class="line" d="m17 17 h2 m20 0 h10 m62 0 h10 m0 0 h10 m58 0 h10 m-180 0 h20 m160 0 h20 m-200 0 q10 0 10 10 m180 0 q0 -10 10 -10 m-190 10 v24 m180 0 v-24 m-180 24 q0 10 10 10 m160 0 q10 0 10 -10 m-170 10 h10 m56 0 h10 m0 0 h10 m56 0 h10 m0 0 h8 m23 -44 h-3"/>
         <polygon points="229 17 237 13 237 21"/>
         <polygon points="229 17 221 13 221 21"/>
      </svg>
