      <svg xmlns="http://www.w3.org/2000/svg" width="442" height="112">
         <defs>
            <style type="text/css">
               @namespace "http://www.w3.org/2000/svg";
               .line                 {fill: none; stroke: #1F1F1F;}
               .bold-line            {stroke: #0A0A0A; shape-rendering: crispEdges; stroke-width:
               2; }
               .thin-line            {stroke: #0F0F0F; shape-rendering: crispEdges}
               .filled               {fill: #1F1F1F; stroke: none;}
               text.terminal         {font-family: Verdana, Sans-serif;
               font-size: 12px;
               fill: #0A0A0A;
               font-weight: bold;
               }
               text.nonterminal      {font-family: Verdana, Sans-serif;
               font-size: 12px;
               fill: #0D0D0D;
               }
               text.regexp           {font-family: Verdana, Sans-serif;
               font-size: 12px;
               fill: #0F0F0F;
               }
               rect, circle, polygon {fill: #1F1F1F; stroke: #1F1F1F;}
               rect.terminal         {fill: #CCCCCC; stroke: #1F1F1F;}
               rect.nonterminal      {fill: #E3E3E3; stroke: #1F1F1F;}
               rect.text             {fill: none; stroke: none;}    
               polygon.regexp        {fill: #EFEFEF; stroke: #1F1F1F;}
               
            </style>
         </defs>
         <polygon points="9 33 1 29 1 37"/>
         <polygon points="17 33 9 29 9 37"/>
         <a xmlns:xlink="http://www.w3.org/1999/xlink" xlink:href="#DROP" xlink:title="DROP">
            <rect x="31" y="19" width="54" height="32"/>
            <rect x="29" y="17" width="54" height="32" class="nonterminal"/>
            <text class="nonterminal" x="39" y="37">DROP</text>
         </a>
         <a xmlns:xlink="http://www.w3.org/1999/xlink" xlink:href="#name" xlink:title="name">
            <rect x="165" y="19" width="54" height="32"/>
            <rect x="163" y="17" width="54" height="32" class="nonterminal"/>
            <text class="nonterminal" x="173" y="37">name</text>
         </a>
         <rect x="165" y="63" width="26" height="32" rx="10"/>
         <rect x="163" y="61" width="26" height="32" class="terminal" rx="10"/>
         <text class="terminal" x="173" y="81">(</text>
         <a xmlns:xlink="http://www.w3.org/1999/xlink" xlink:href="#name" xlink:title="name">
            <rect x="211" y="63" width="54" height="32"/>
            <rect x="209" y="61" width="54" height="32" class="nonterminal"/>
            <text class="nonterminal" x="219" y="81">name</text>
         </a>
         <rect x="285" y="63" width="26" height="32" rx="10"/>
         <rect x="283" y="61" width="26" height="32" class="terminal" rx="10"/>
         <text class="terminal" x="293" y="81">)</text>
         <rect x="391" y="19" width="24" height="32" rx="10"/>
         <rect x="389" y="17" width="24" height="32" class="terminal" rx="10"/>
         <text class="terminal" x="399" y="37">;</text>
         <svg:path xmlns:svg="http://www.w3.org/2000/svg" class="line" d="m17 33 h2 m0 0 h10 m54 0 h10 m60 0 h10 m54 0 h10 m0 0 h92 m-186 0 h20 m166 0 h20 m-206 0 q10 0 10 10 m186 0 q0 -10 10 -10 m-196 10 v24 m186 0 v-24 m-186 24 q0 10 10 10 m166 0 q10 0 10 -10 m-176 10 h10 m26 0 h10 m0 0 h10 m54 0 h10 m0 0 h10 m26 0 h10 m-206 -44 l20 0 m-1 0 q-9 0 -9 -10 l0 -12 q0 -10 10 -10 m206 32 l20 0 m-20 0 q10 0 10 -10 l0 -12 q0 -10 -10 -10 m-206 0 h10 m0 0 h196 m-246 32 h20 m246 0 h20 m-286 0 q10 0 10 10 m266 0 q0 -10 10 -10 m-276 10 v58 m266 0 v-58 m-266 58 q0 10 10 10 m246 0 q10 0 10 -10 m-256 10 h10 m0 0 h236 m20 -78 h10 m24 0 h10 m3 0 h-3"/>
         <polygon points="433 33 441 29 441 37"/>
         <polygon points="433 33 425 29 425 37"/>
      </svg>
