      <svg xmlns="http://www.w3.org/2000/svg" width="406" height="96">
         <defs>
            <style type="text/css">
               @namespace "http://www.w3.org/2000/svg";
               .line                 {fill: none; stroke: #1F1F1F;}
               .bold-line            {stroke: #0A0A0A; shape-rendering: crispEdges; stroke-width:
               2; }
               .thin-line            {stroke: #0F0F0F; shape-rendering: crispEdges}
               .filled               {fill: #1F1F1F; stroke: none;}
               text.terminal         {font-family: Verdana, Sans-serif;
               font-size: 12px;
               fill: #0A0A0A;
               font-weight: bold;
               }
               text.nonterminal      {font-family: Verdana, Sans-serif; font-style: italic;
               font-size: 12px;
               fill: #0D0D0D;
               }
               text.regexp           {font-family: Verdana, Sans-serif;
               font-size: 12px;
               fill: #0F0F0F;
               }
               rect, circle, polygon {fill: #1F1F1F; stroke: #1F1F1F;}
               rect.terminal         {fill: #CCCCCC; stroke: #1F1F1F;}
               rect.nonterminal      {fill: #E3E3E3; stroke: #1F1F1F;}
               rect.text             {fill: none; stroke: none;}    
               polygon.regexp        {fill: #EFEFEF; stroke: #1F1F1F;}
               
            </style>
         </defs>
         <polygon points="9 33 1 29 1 37"/>
         <polygon points="17 33 9 29 9 37"/>
         <rect x="31" y="19" width="58" height="32" rx="10"/>
         <rect x="29" y="17" width="58" height="32" class="terminal" rx="10"/>
         <text class="terminal" x="39" y="37">DROP</text>
<!--     <a xmlns:xlink="http://www.w3.org/1999/xlink" xlink:href="#name" xlink:title="name"> -->
            <rect x="149" y="19" width="54" height="32"/>
            <rect x="147" y="17" width="54" height="32" class="nonterminal"/>
            <text class="nonterminal" x="157" y="37">name</text>
<!--     </a> -->
         <rect x="149" y="63" width="26" height="32" rx="10"/>
         <rect x="147" y="61" width="26" height="32" class="terminal" rx="10"/>
         <text class="terminal" x="157" y="81">(</text>
<!--     <a xmlns:xlink="http://www.w3.org/1999/xlink" xlink:href="#name" xlink:title="name"> -->
            <rect x="195" y="63" width="54" height="32"/>
            <rect x="193" y="61" width="54" height="32" class="nonterminal"/>
            <text class="nonterminal" x="203" y="81">name</text>
<!--     </a> -->
         <rect x="269" y="63" width="26" height="32" rx="10"/>
         <rect x="267" y="61" width="26" height="32" class="terminal" rx="10"/>
         <text class="terminal" x="277" y="81">)</text>
         <rect x="355" y="19" width="24" height="32" rx="10"/>
         <rect x="353" y="17" width="24" height="32" class="terminal" rx="10"/>
         <text class="terminal" x="363" y="37">;</text>
         <svg:path xmlns:svg="http://www.w3.org/2000/svg" class="line" d="m17 33 h2 m0 0 h10 m58 0 h10 m40 0 h10 m54 0 h10 m0 0 h92 m-186 0 h20 m166 0 h20 m-206 0 q10 0 10 10 m186 0 q0 -10 10 -10 m-196 10 v24 m186 0 v-24 m-186 24 q0 10 10 10 m166 0 q10 0 10 -10 m-176 10 h10 m26 0 h10 m0 0 h10 m54 0 h10 m0 0 h10 m26 0 h10 m-206 -44 l20 0 m-1 0 q-9 0 -9 -10 l0 -12 q0 -10 10 -10 m206 32 l20 0 m-20 0 q10 0 10 -10 l0 -12 q0 -10 -10 -10 m-206 0 h10 m0 0 h196 m20 32 h10 m24 0 h10 m3 0 h-3"/>
         <polygon points="397 33 405 29 405 37"/>
         <polygon points="397 33 389 29 389 37"/>
      </svg>
