<svg xmlns="http://www.w3.org/2000/svg" width="665" height="259">
         <defs>
            <style type="text/css">
    @namespace "http://www.w3.org/2000/svg";
    .line                 {fill: none; stroke: #1F1F1F;}
    .bold-line            {stroke: #0A0A0A; shape-rendering: crispEdges; stroke-width: 2; }
    .thin-line            {stroke: #0F0F0F; shape-rendering: crispEdges}
    .filled               {fill: #1F1F1F; stroke: none;}
    text.terminal         {font-family: Verdana, Sans-serif;
                            font-size: 12px;
                            fill: #0A0A0A;
                            font-weight: bold;
                          }
    text.nonterminal      {font-family: Verdana, Sans-serif; font-style: italic;
                            font-size: 12px;
                            fill: #0D0D0D;
                            font-weight: normal;
                          }
    text.regexp           {font-family: Verdana, Sans-serif;
                            font-size: 12px;
                            fill: #0F0F0F;
                            font-weight: normal;
                          }
    rect, circle, polygon {fill: #1F1F1F; stroke: #1F1F1F;}
    rect.terminal         {fill: #CCCCCC; stroke: #1F1F1F;}
    rect.nonterminal      {fill: #E3E3E3; stroke: #1F1F1F;}
    rect.text             {fill: none; stroke: none;}    
    polygon.regexp        {fill: #EFEFEF; stroke: #1F1F1F;}
  </style>
         </defs>
         <polygon points="9 17 1 13 1 21"/>
         <polygon points="17 17 9 13 9 21"/>
         <rect x="31" y="3" width="90" height="32" rx="10"/>
         <rect x="29" y="1" width="90" height="32" class="terminal" rx="10"/>
         <text class="terminal" x="39" y="21">FORWARD</text>
         <rect x="161" y="35" width="92" height="32" rx="10"/>
         <rect x="159" y="33" width="92" height="32" class="terminal" rx="10"/>
         <text class="terminal" x="169" y="53">CONTINUE</text>
         <rect x="313" y="35" width="104" height="32" rx="10"/>
         <rect x="311" y="33" width="104" height="32" class="terminal" rx="10"/>
         <text class="terminal" x="321" y="53">ARGUMENTS</text>
<!--  <a xmlns:xlink="http://www.w3.org/1999/xlink" xlink:href="#expra" xlink:title="expra"> -->
            <rect x="437" y="35" width="56" height="32"/>
            <rect x="435" y="33" width="56" height="32" class="nonterminal"/>
            <text class="nonterminal" x="445" y="53">expra</text><!-- </a> -->
<rect x="313" y="123" width="66" height="32" rx="10"/>
         <rect x="311" y="121" width="66" height="32" class="terminal" rx="10"/>
         <text class="terminal" x="321" y="141">ARRAY</text>
         <rect x="399" y="123" width="26" height="32" rx="10"/>
         <rect x="397" y="121" width="26" height="32" class="terminal" rx="10"/>
         <text class="terminal" x="407" y="141">(</text>
<!--  <a xmlns:xlink="http://www.w3.org/1999/xlink" xlink:href="#expri" xlink:title="expri"> -->
            <rect x="485" y="123" width="52" height="32"/>
            <rect x="483" y="121" width="52" height="32" class="nonterminal"/>
            <text class="nonterminal" x="493" y="141">expri</text><!-- </a> -->
<rect x="485" y="79" width="24" height="32" rx="10"/>
         <rect x="483" y="77" width="24" height="32" class="terminal" rx="10"/>
         <text class="terminal" x="493" y="97">,</text>
         <rect x="597" y="123" width="26" height="32" rx="10"/>
         <rect x="595" y="121" width="26" height="32" class="terminal" rx="10"/>
         <text class="terminal" x="605" y="141">)</text>
         <rect x="85" y="225" width="84" height="32" rx="10"/>
         <rect x="83" y="223" width="84" height="32" class="terminal" rx="10"/>
         <text class="terminal" x="93" y="243">MESSAGE</text>
<!--  <a xmlns:xlink="http://www.w3.org/1999/xlink" xlink:href="#exprm" xlink:title="exprm"> -->
            <rect x="189" y="225" width="60" height="32"/>
            <rect x="187" y="223" width="60" height="32" class="nonterminal"/>
            <text class="nonterminal" x="197" y="243">exprm</text><!-- </a> -->
<rect x="309" y="225" width="64" height="32" rx="10"/>
         <rect x="307" y="223" width="64" height="32" class="terminal" rx="10"/>
         <text class="terminal" x="317" y="243">CLASS</text>
<!--  <a xmlns:xlink="http://www.w3.org/1999/xlink" xlink:href="#exprs" xlink:title="exprs"> -->
            <rect x="393" y="225" width="54" height="32"/>
            <rect x="391" y="223" width="54" height="32" class="nonterminal"/>
            <text class="nonterminal" x="401" y="243">exprs</text><!-- </a> -->
<rect x="507" y="225" width="38" height="32" rx="10"/>
         <rect x="505" y="223" width="38" height="32" class="terminal" rx="10"/>
         <text class="terminal" x="515" y="243">TO</text>
<!--  <a xmlns:xlink="http://www.w3.org/1999/xlink" xlink:href="#exprt" xlink:title="exprt"> -->
            <rect x="565" y="225" width="52" height="32"/>
            <rect x="563" y="223" width="52" height="32" class="nonterminal"/>
            <text class="nonterminal" x="573" y="243">exprt</text><!-- </a> -->
<svg:path xmlns:svg="http://www.w3.org/2000/svg" class="line" d="m17 17 h2 m0 0 h10 m90 0 h10 m20 0 h10 m0 0 h102 m-132 0 h20 m112 0 h20 m-152 0 q10 0 10 10 m132 0 q0 -10 10 -10 m-142 10 v12 m132 0 v-12 m-132 12 q0 10 10 10 m112 0 q10 0 10 -10 m-122 10 h10 m92 0 h10 m40 -32 h10 m0 0 h320 m-350 0 h20 m330 0 h20 m-370 0 q10 0 10 10 m350 0 q0 -10 10 -10 m-360 10 v12 m350 0 v-12 m-350 12 q0 10 10 10 m330 0 q10 0 10 -10 m-340 10 h10 m104 0 h10 m0 0 h10 m56 0 h10 m0 0 h130 m-340 -10 v20 m350 0 v-20 m-350 20 v68 m350 0 v-68 m-350 68 q0 10 10 10 m330 0 q10 0 10 -10 m-340 10 h10 m66 0 h10 m0 0 h10 m26 0 h10 m40 0 h10 m52 0 h10 m-92 0 l20 0 m-1 0 q-9 0 -9 -10 l0 -24 q0 -10 10 -10 m72 44 l20 0 m-20 0 q10 0 10 -10 l0 -24 q0 -10 -10 -10 m-72 0 h10 m24 0 h10 m0 0 h28 m-112 44 h20 m112 0 h20 m-152 0 q10 0 10 10 m132 0 q0 -10 10 -10 m-142 10 v14 m132 0 v-14 m-132 14 q0 10 10 10 m112 0 q10 0 10 -10 m-122 10 h10 m0 0 h102 m20 -34 h10 m26 0 h10 m22 -120 l2 0 m2 0 l2 0 m2 0 l2 0 m-622 190 l2 0 m2 0 l2 0 m2 0 l2 0 m22 0 h10 m0 0 h174 m-204 0 h20 m184 0 h20 m-224 0 q10 0 10 10 m204 0 q0 -10 10 -10 m-214 10 v12 m204 0 v-12 m-204 12 q0 10 10 10 m184 0 q10 0 10 -10 m-194 10 h10 m84 0 h10 m0 0 h10 m60 0 h10 m40 -32 h10 m0 0 h148 m-178 0 h20 m158 0 h20 m-198 0 q10 0 10 10 m178 0 q0 -10 10 -10 m-188 10 v12 m178 0 v-12 m-178 12 q0 10 10 10 m158 0 q10 0 10 -10 m-168 10 h10 m64 0 h10 m0 0 h10 m54 0 h10 m40 -32 h10 m0 0 h120 m-150 0 h20 m130 0 h20 m-170 0 q10 0 10 10 m150 0 q0 -10 10 -10 m-160 10 v12 m150 0 v-12 m-150 12 q0 10 10 10 m130 0 q10 0 10 -10 m-140 10 h10 m38 0 h10 m0 0 h10 m52 0 h10 m23 -32 h-3"/>
         <polygon points="655 207 663 203 663 211"/>
         <polygon points="655 207 647 203 647 211"/></svg>
