      <svg xmlns="http://www.w3.org/2000/svg" width="922" height="206">
         <defs>
            <style type="text/css">
               @namespace "http://www.w3.org/2000/svg";
               .line                 {fill: none; stroke: #1F1F1F;}
               .bold-line            {stroke: #0A0A0A; shape-rendering: crispEdges; stroke-width:
               2; }
               .thin-line            {stroke: #0F0F0F; shape-rendering: crispEdges}
               .filled               {fill: #1F1F1F; stroke: none;}
               text.terminal         {font-family: Verdana, Sans-serif;
               font-size: 12px;
               fill: #0A0A0A;
               font-weight: bold;
               }
               text.nonterminal      {font-family: Verdana, Sans-serif;
               font-size: 12px;
               fill: #0D0D0D;
               }
               text.regexp           {font-family: Verdana, Sans-serif;
               font-size: 12px;
               fill: #0F0F0F;
               }
               rect, circle, polygon {fill: #1F1F1F; stroke: #1F1F1F;}
               rect.terminal         {fill: #CCCCCC; stroke: #1F1F1F;}
               rect.nonterminal      {fill: #E3E3E3; stroke: #1F1F1F;}
               rect.text             {fill: none; stroke: none;}    
               polygon.regexp        {fill: #EFEFEF; stroke: #1F1F1F;}
               
            </style>
         </defs>
         <polygon points="9 17 1 13 1 21"/>
         <polygon points="17 17 9 13 9 21"/>
         <a xmlns:xlink="http://www.w3.org/1999/xlink" xlink:href="#FORWARD" xlink:title="FORWARD">
            <rect x="31" y="3" width="82" height="32"/>
            <rect x="29" y="1" width="82" height="32" class="nonterminal"/>
            <text class="nonterminal" x="39" y="21">FORWARD</text>
         </a>
         <a xmlns:xlink="http://www.w3.org/1999/xlink" xlink:href="#CONTINUE" xlink:title="CONTINUE">
            <rect x="153" y="3" width="86" height="32"/>
            <rect x="151" y="1" width="86" height="32" class="nonterminal"/>
            <text class="nonterminal" x="161" y="21">CONTINUE</text>
         </a>
         <a xmlns:xlink="http://www.w3.org/1999/xlink" xlink:href="#ARGUMENTS" xlink:title="ARGUMENTS">
            <rect x="299" y="3" width="96" height="32"/>
            <rect x="297" y="1" width="96" height="32" class="nonterminal"/>
            <text class="nonterminal" x="307" y="21">ARGUMENTS</text>
         </a>
         <a xmlns:xlink="http://www.w3.org/1999/xlink" xlink:href="#expra" xlink:title="expra">
            <rect x="415" y="3" width="56" height="32"/>
            <rect x="413" y="1" width="56" height="32" class="nonterminal"/>
            <text class="nonterminal" x="423" y="21">expra</text>
         </a>
         <a xmlns:xlink="http://www.w3.org/1999/xlink" xlink:href="#ARRAY" xlink:title="ARRAY">
            <rect x="299" y="91" width="58" height="32"/>
            <rect x="297" y="89" width="58" height="32" class="nonterminal"/>
            <text class="nonterminal" x="307" y="109">ARRAY</text>
         </a>
         <a xmlns:xlink="http://www.w3.org/1999/xlink" xlink:href="#expri" xlink:title="expri">
            <rect x="397" y="91" width="50" height="32"/>
            <rect x="395" y="89" width="50" height="32" class="nonterminal"/>
            <text class="nonterminal" x="405" y="109">expri</text>
         </a>
         <rect x="397" y="47" width="24" height="32" rx="10"/>
         <rect x="395" y="45" width="24" height="32" class="terminal" rx="10"/>
         <text class="terminal" x="405" y="65">,</text>
         <a xmlns:xlink="http://www.w3.org/1999/xlink" xlink:href="#MESSAGE" xlink:title="MESSAGE">
            <rect x="531" y="3" width="78" height="32"/>
            <rect x="529" y="1" width="78" height="32" class="nonterminal"/>
            <text class="nonterminal" x="539" y="21">MESSAGE</text>
         </a>
         <a xmlns:xlink="http://www.w3.org/1999/xlink" xlink:href="#exprm" xlink:title="exprm">
            <rect x="629" y="3" width="58" height="32"/>
            <rect x="627" y="1" width="58" height="32" class="nonterminal"/>
            <text class="nonterminal" x="637" y="21">exprm</text>
         </a>
         <a xmlns:xlink="http://www.w3.org/1999/xlink" xlink:href="#CLASS" xlink:title="CLASS">
            <rect x="747" y="3" width="60" height="32"/>
            <rect x="745" y="1" width="60" height="32" class="nonterminal"/>
            <text class="nonterminal" x="755" y="21">CLASS</text>
         </a>
         <a xmlns:xlink="http://www.w3.org/1999/xlink" xlink:href="#exprs" xlink:title="exprs">
            <rect x="827" y="3" width="54" height="32"/>
            <rect x="825" y="1" width="54" height="32" class="nonterminal"/>
            <text class="nonterminal" x="835" y="21">exprs</text>
         </a>
         <a xmlns:xlink="http://www.w3.org/1999/xlink" xlink:href="#TO" xlink:title="TO">
            <rect x="723" y="157" width="36" height="32"/>
            <rect x="721" y="155" width="36" height="32" class="nonterminal"/>
            <text class="nonterminal" x="731" y="175">TO</text>
         </a>
         <a xmlns:xlink="http://www.w3.org/1999/xlink" xlink:href="#exprt" xlink:title="exprt">
            <rect x="779" y="157" width="52" height="32"/>
            <rect x="777" y="155" width="52" height="32" class="nonterminal"/>
            <text class="nonterminal" x="787" y="175">exprt</text>
         </a>
         <rect x="871" y="157" width="24" height="32" rx="10"/>
         <rect x="869" y="155" width="24" height="32" class="terminal" rx="10"/>
         <text class="terminal" x="879" y="175">;</text>
         <svg:path xmlns:svg="http://www.w3.org/2000/svg" class="line" d="m17 17 h2 m0 0 h10 m82 0 h10 m20 0 h10 m86 0 h10 m-126 0 h20 m106 0 h20 m-146 0 q10 0 10 10 m126 0 q0 -10 10 -10 m-136 10 v14 m126 0 v-14 m-126 14 q0 10 10 10 m106 0 q10 0 10 -10 m-116 10 h10 m0 0 h96 m40 -34 h10 m96 0 h10 m0 0 h10 m56 0 h10 m-212 0 h20 m192 0 h20 m-232 0 q10 0 10 10 m212 0 q0 -10 10 -10 m-222 10 v68 m212 0 v-68 m-212 68 q0 10 10 10 m192 0 q10 0 10 -10 m-202 10 h10 m58 0 h10 m20 0 h10 m50 0 h10 m-90 0 l20 0 m-1 0 q-9 0 -9 -10 l0 -24 q0 -10 10 -10 m70 44 l20 0 m-20 0 q10 0 10 -10 l0 -24 q0 -10 -10 -10 m-70 0 h10 m24 0 h10 m0 0 h26 m20 44 h4 m40 -88 h10 m78 0 h10 m0 0 h10 m58 0 h10 m-196 0 h20 m176 0 h20 m-216 0 q10 0 10 10 m196 0 q0 -10 10 -10 m-206 10 v14 m196 0 v-14 m-196 14 q0 10 10 10 m176 0 q10 0 10 -10 m-186 10 h10 m0 0 h166 m40 -34 h10 m60 0 h10 m0 0 h10 m54 0 h10 m-174 0 h20 m154 0 h20 m-194 0 q10 0 10 10 m174 0 q0 -10 10 -10 m-184 10 v14 m174 0 v-14 m-174 14 q0 10 10 10 m154 0 q10 0 10 -10 m-164 10 h10 m0 0 h144 m22 -34 l2 0 m2 0 l2 0 m2 0 l2 0 m-242 154 l2 0 m2 0 l2 0 m2 0 l2 0 m22 0 h10 m36 0 h10 m0 0 h10 m52 0 h10 m-148 0 h20 m128 0 h20 m-168 0 q10 0 10 10 m148 0 q0 -10 10 -10 m-158 10 v14 m148 0 v-14 m-148 14 q0 10 10 10 m128 0 q10 0 10 -10 m-138 10 h10 m0 0 h118 m20 -34 h10 m24 0 h10 m3 0 h-3"/>
         <polygon points="913 171 921 167 921 175"/>
         <polygon points="913 171 905 167 905 175"/>
      </svg>
