      <svg xmlns="http://www.w3.org/2000/svg" width="658" height="258">
         <defs>
            <style type="text/css">
               @namespace "http://www.w3.org/2000/svg";
               .line                 {fill: none; stroke: #1F1F1F;}
               .bold-line            {stroke: #0A0A0A; shape-rendering: crispEdges; stroke-width:
               2; }
               .thin-line            {stroke: #0F0F0F; shape-rendering: crispEdges}
               .filled               {fill: #1F1F1F; stroke: none;}
               text.terminal         {font-family: Verdana, Sans-serif;
               font-size: 12px;
               fill: #0A0A0A;
               font-weight: bold;
               }
               text.nonterminal      {font-family: Verdana, Sans-serif; font-style: italic;
               font-size: 12px;
               fill: #0D0D0D;
               }
               text.regexp           {font-family: Verdana, Sans-serif;
               font-size: 12px;
               fill: #0F0F0F;
               }
               rect, circle, polygon {fill: #1F1F1F; stroke: #1F1F1F;}
               rect.terminal         {fill: #CCCCCC; stroke: #1F1F1F;}
               rect.nonterminal      {fill: #E3E3E3; stroke: #1F1F1F;}
               rect.text             {fill: none; stroke: none;}    
               polygon.regexp        {fill: #EFEFEF; stroke: #1F1F1F;}
               
            </style>
         </defs>
         <polygon points="9 17 1 13 1 21"/>
         <polygon points="17 17 9 13 9 21"/>
         <rect x="31" y="3" width="90" height="32" rx="10"/>
         <rect x="29" y="1" width="90" height="32" class="terminal" rx="10"/>
         <text class="terminal" x="39" y="21">FORWARD</text>
         <rect x="161" y="35" width="90" height="32" rx="10"/>
         <rect x="159" y="33" width="90" height="32" class="terminal" rx="10"/>
         <text class="terminal" x="169" y="53">CONTINUE</text>
         <rect x="311" y="35" width="104" height="32" rx="10"/>
         <rect x="309" y="33" width="104" height="32" class="terminal" rx="10"/>
         <text class="terminal" x="319" y="53">ARGUMENTS</text>
<!--     <a xmlns:xlink="http://www.w3.org/1999/xlink" xlink:href="#expra" xlink:title="expra"> -->
            <rect x="435" y="35" width="54" height="32"/>
            <rect x="433" y="33" width="54" height="32" class="nonterminal"/>
            <text class="nonterminal" x="443" y="53">expra</text>
<!--     </a> -->
         <rect x="311" y="123" width="66" height="32" rx="10"/>
         <rect x="309" y="121" width="66" height="32" class="terminal" rx="10"/>
         <text class="terminal" x="319" y="141">ARRAY</text>
         <rect x="397" y="123" width="26" height="32" rx="10"/>
         <rect x="395" y="121" width="26" height="32" class="terminal" rx="10"/>
         <text class="terminal" x="405" y="141">(</text>
<!--     <a xmlns:xlink="http://www.w3.org/1999/xlink" xlink:href="#expri" xlink:title="expri"> -->
            <rect x="483" y="123" width="48" height="32"/>
            <rect x="481" y="121" width="48" height="32" class="nonterminal"/>
            <text class="nonterminal" x="491" y="141">expri</text>
<!--     </a> -->
         <rect x="483" y="79" width="24" height="32" rx="10"/>
         <rect x="481" y="77" width="24" height="32" class="terminal" rx="10"/>
         <text class="terminal" x="491" y="97">,</text>
         <rect x="591" y="123" width="26" height="32" rx="10"/>
         <rect x="589" y="121" width="26" height="32" class="terminal" rx="10"/>
         <text class="terminal" x="599" y="141">)</text>
         <rect x="85" y="225" width="84" height="32" rx="10"/>
         <rect x="83" y="223" width="84" height="32" class="terminal" rx="10"/>
         <text class="terminal" x="93" y="243">MESSAGE</text>
<!--     <a xmlns:xlink="http://www.w3.org/1999/xlink" xlink:href="#exprm" xlink:title="exprm"> -->
            <rect x="189" y="225" width="58" height="32"/>
            <rect x="187" y="223" width="58" height="32" class="nonterminal"/>
            <text class="nonterminal" x="197" y="243">exprm</text>
<!--     </a> -->
         <rect x="307" y="225" width="64" height="32" rx="10"/>
         <rect x="305" y="223" width="64" height="32" class="terminal" rx="10"/>
         <text class="terminal" x="315" y="243">CLASS</text>
<!--     <a xmlns:xlink="http://www.w3.org/1999/xlink" xlink:href="#exprs" xlink:title="exprs"> -->
            <rect x="391" y="225" width="52" height="32"/>
            <rect x="389" y="223" width="52" height="32" class="nonterminal"/>
            <text class="nonterminal" x="399" y="243">exprs</text>
<!--     </a> -->
         <rect x="503" y="225" width="38" height="32" rx="10"/>
         <rect x="501" y="223" width="38" height="32" class="terminal" rx="10"/>
         <text class="terminal" x="511" y="243">TO</text>
<!--     <a xmlns:xlink="http://www.w3.org/1999/xlink" xlink:href="#exprt" xlink:title="exprt"> -->
            <rect x="561" y="225" width="50" height="32"/>
            <rect x="559" y="223" width="50" height="32" class="nonterminal"/>
            <text class="nonterminal" x="569" y="243">exprt</text>
<!--     </a> -->
         <svg:path xmlns:svg="http://www.w3.org/2000/svg" class="line" d="m17 17 h2 m0 0 h10 m90 0 h10 m20 0 h10 m0 0 h100 m-130 0 h20 m110 0 h20 m-150 0 q10 0 10 10 m130 0 q0 -10 10 -10 m-140 10 v12 m130 0 v-12 m-130 12 q0 10 10 10 m110 0 q10 0 10 -10 m-120 10 h10 m90 0 h10 m40 -32 h10 m0 0 h316 m-346 0 h20 m326 0 h20 m-366 0 q10 0 10 10 m346 0 q0 -10 10 -10 m-356 10 v12 m346 0 v-12 m-346 12 q0 10 10 10 m326 0 q10 0 10 -10 m-336 10 h10 m104 0 h10 m0 0 h10 m54 0 h10 m0 0 h128 m-336 -10 v20 m346 0 v-20 m-346 20 v68 m346 0 v-68 m-346 68 q0 10 10 10 m326 0 q10 0 10 -10 m-336 10 h10 m66 0 h10 m0 0 h10 m26 0 h10 m40 0 h10 m48 0 h10 m-88 0 l20 0 m-1 0 q-9 0 -9 -10 l0 -24 q0 -10 10 -10 m68 44 l20 0 m-20 0 q10 0 10 -10 l0 -24 q0 -10 -10 -10 m-68 0 h10 m24 0 h10 m0 0 h24 m-108 44 h20 m108 0 h20 m-148 0 q10 0 10 10 m128 0 q0 -10 10 -10 m-138 10 v14 m128 0 v-14 m-128 14 q0 10 10 10 m108 0 q10 0 10 -10 m-118 10 h10 m0 0 h98 m20 -34 h10 m26 0 h10 m22 -120 l2 0 m2 0 l2 0 m2 0 l2 0 m-616 190 l2 0 m2 0 l2 0 m2 0 l2 0 m22 0 h10 m0 0 h172 m-202 0 h20 m182 0 h20 m-222 0 q10 0 10 10 m202 0 q0 -10 10 -10 m-212 10 v12 m202 0 v-12 m-202 12 q0 10 10 10 m182 0 q10 0 10 -10 m-192 10 h10 m84 0 h10 m0 0 h10 m58 0 h10 m40 -32 h10 m0 0 h146 m-176 0 h20 m156 0 h20 m-196 0 q10 0 10 10 m176 0 q0 -10 10 -10 m-186 10 v12 m176 0 v-12 m-176 12 q0 10 10 10 m156 0 q10 0 10 -10 m-166 10 h10 m64 0 h10 m0 0 h10 m52 0 h10 m40 -32 h10 m0 0 h118 m-148 0 h20 m128 0 h20 m-168 0 q10 0 10 10 m148 0 q0 -10 10 -10 m-158 10 v12 m148 0 v-12 m-148 12 q0 10 10 10 m128 0 q10 0 10 -10 m-138 10 h10 m38 0 h10 m0 0 h10 m50 0 h10 m23 -32 h-3"/>
         <polygon points="649 207 657 203 657 211"/>
         <polygon points="649 207 641 203 641 211"/>
      </svg>
