      <svg xmlns="http://www.w3.org/2000/svg" width="666" height="254">
         <defs>
            <style type="text/css">
               @namespace "http://www.w3.org/2000/svg";
               .line                 {fill: none; stroke: #1F1F1F;}
               .bold-line            {stroke: #0A0A0A; shape-rendering: crispEdges; stroke-width:
               2; }
               .thin-line            {stroke: #0F0F0F; shape-rendering: crispEdges}
               .filled               {fill: #1F1F1F; stroke: none;}
               text.terminal         {font-family: Verdana, Sans-serif;
               font-size: 12px;
               fill: #0A0A0A;
               font-weight: bold;
               }
               text.nonterminal      {font-family: Verdana, Sans-serif; font-style: italic;
               font-size: 12px;
               fill: #0D0D0D;
               }
               text.regexp           {font-family: Verdana, Sans-serif;
               font-size: 12px;
               fill: #0F0F0F;
               }
               rect, circle, polygon {fill: #1F1F1F; stroke: #1F1F1F;}
               rect.terminal         {fill: #CCCCCC; stroke: #1F1F1F;}
               rect.nonterminal      {fill: #E3E3E3; stroke: #1F1F1F;}
               rect.text             {fill: none; stroke: none;}    
               polygon.regexp        {fill: #EFEFEF; stroke: #1F1F1F;}
               
            </style>
         </defs>
         <polygon points="11 17 3 13 3 21"/>
         <polygon points="19 17 11 13 11 21"/>
         <rect x="33" y="3" width="90" height="32" rx="10"/>
         <rect x="31" y="1" width="90" height="32" class="terminal" rx="10"/>
         <text class="terminal" x="41" y="21">FORWARD</text>
         <rect x="163" y="35" width="92" height="32" rx="10"/>
         <rect x="161" y="33" width="92" height="32" class="terminal" rx="10"/>
         <text class="terminal" x="171" y="53">CONTINUE</text>
         <rect x="315" y="3" width="104" height="32" rx="10"/>
         <rect x="313" y="1" width="104" height="32" class="terminal" rx="10"/>
         <text class="terminal" x="323" y="21">ARGUMENTS</text>
<!--     <a xmlns:xlink="http://www.w3.org/1999/xlink" xlink:href="#expra" xlink:title="expra"> -->
            <rect x="439" y="3" width="56" height="32"/>
            <rect x="437" y="1" width="56" height="32" class="nonterminal"/>
            <text class="nonterminal" x="447" y="21">expra</text>
<!--     </a> -->
         <rect x="315" y="91" width="66" height="32" rx="10"/>
         <rect x="313" y="89" width="66" height="32" class="terminal" rx="10"/>
         <text class="terminal" x="323" y="109">ARRAY</text>
         <rect x="401" y="91" width="26" height="32" rx="10"/>
         <rect x="399" y="89" width="26" height="32" class="terminal" rx="10"/>
         <text class="terminal" x="409" y="109">(</text>
<!--     <a xmlns:xlink="http://www.w3.org/1999/xlink" xlink:href="#expri" xlink:title="expri"> -->
            <rect x="487" y="91" width="50" height="32"/>
            <rect x="485" y="89" width="50" height="32" class="nonterminal"/>
            <text class="nonterminal" x="495" y="109">expri</text>
<!--     </a> -->
         <rect x="487" y="47" width="24" height="32" rx="10"/>
         <rect x="485" y="45" width="24" height="32" class="terminal" rx="10"/>
         <text class="terminal" x="495" y="65">,</text>
         <rect x="597" y="91" width="26" height="32" rx="10"/>
         <rect x="595" y="89" width="26" height="32" class="terminal" rx="10"/>
         <text class="terminal" x="605" y="109">)</text>
         <rect x="45" y="221" width="84" height="32" rx="10"/>
         <rect x="43" y="219" width="84" height="32" class="terminal" rx="10"/>
         <text class="terminal" x="53" y="239">MESSAGE</text>
<!--     <a xmlns:xlink="http://www.w3.org/1999/xlink" xlink:href="#exprm" xlink:title="exprm"> -->
            <rect x="149" y="221" width="58" height="32"/>
            <rect x="147" y="219" width="58" height="32" class="nonterminal"/>
            <text class="nonterminal" x="157" y="239">exprm</text>
<!--     </a> -->
         <rect x="267" y="221" width="64" height="32" rx="10"/>
         <rect x="265" y="219" width="64" height="32" class="terminal" rx="10"/>
         <text class="terminal" x="275" y="239">CLASS</text>
<!--     <a xmlns:xlink="http://www.w3.org/1999/xlink" xlink:href="#exprs" xlink:title="exprs"> -->
            <rect x="351" y="221" width="54" height="32"/>
            <rect x="349" y="219" width="54" height="32" class="nonterminal"/>
            <text class="nonterminal" x="359" y="239">exprs</text>
<!--     </a> -->
         <rect x="465" y="221" width="38" height="32" rx="10"/>
         <rect x="463" y="219" width="38" height="32" class="terminal" rx="10"/>
         <text class="terminal" x="473" y="239">TO</text>
<!--     <a xmlns:xlink="http://www.w3.org/1999/xlink" xlink:href="#exprt" xlink:title="exprt"> -->
            <rect x="523" y="221" width="52" height="32"/>
            <rect x="521" y="219" width="52" height="32" class="nonterminal"/>
            <text class="nonterminal" x="531" y="239">exprt</text>
<!--     </a> -->
         <rect x="615" y="189" width="24" height="32" rx="10"/>
         <rect x="613" y="187" width="24" height="32" class="terminal" rx="10"/>
         <text class="terminal" x="623" y="207">;</text>
         <svg:path xmlns:svg="http://www.w3.org/2000/svg" class="line" d="m19 17 h2 m0 0 h10 m90 0 h10 m20 0 h10 m0 0 h102 m-132 0 h20 m112 0 h20 m-152 0 q10 0 10 10 m132 0 q0 -10 10 -10 m-142 10 v12 m132 0 v-12 m-132 12 q0 10 10 10 m112 0 q10 0 10 -10 m-122 10 h10 m92 0 h10 m40 -32 h10 m104 0 h10 m0 0 h10 m56 0 h10 m0 0 h128 m-348 0 h20 m328 0 h20 m-368 0 q10 0 10 10 m348 0 q0 -10 10 -10 m-358 10 v68 m348 0 v-68 m-348 68 q0 10 10 10 m328 0 q10 0 10 -10 m-338 10 h10 m66 0 h10 m0 0 h10 m26 0 h10 m40 0 h10 m50 0 h10 m-90 0 l20 0 m-1 0 q-9 0 -9 -10 l0 -24 q0 -10 10 -10 m70 44 l20 0 m-20 0 q10 0 10 -10 l0 -24 q0 -10 -10 -10 m-70 0 h10 m24 0 h10 m0 0 h26 m-110 44 h20 m110 0 h20 m-150 0 q10 0 10 10 m130 0 q0 -10 10 -10 m-140 10 v14 m130 0 v-14 m-130 14 q0 10 10 10 m110 0 q10 0 10 -10 m-120 10 h10 m0 0 h100 m20 -34 h10 m26 0 h10 m-338 -10 v20 m348 0 v-20 m-348 20 v30 m348 0 v-30 m-348 30 q0 10 10 10 m328 0 q10 0 10 -10 m-338 10 h10 m0 0 h318 m22 -138 l2 0 m2 0 l2 0 m2 0 l2 0 m-662 186 l2 0 m2 0 l2 0 m2 0 l2 0 m22 0 h10 m0 0 h172 m-202 0 h20 m182 0 h20 m-222 0 q10 0 10 10 m202 0 q0 -10 10 -10 m-212 10 v12 m202 0 v-12 m-202 12 q0 10 10 10 m182 0 q10 0 10 -10 m-192 10 h10 m84 0 h10 m0 0 h10 m58 0 h10 m40 -32 h10 m0 0 h148 m-178 0 h20 m158 0 h20 m-198 0 q10 0 10 10 m178 0 q0 -10 10 -10 m-188 10 v12 m178 0 v-12 m-178 12 q0 10 10 10 m158 0 q10 0 10 -10 m-168 10 h10 m64 0 h10 m0 0 h10 m54 0 h10 m40 -32 h10 m0 0 h120 m-150 0 h20 m130 0 h20 m-170 0 q10 0 10 10 m150 0 q0 -10 10 -10 m-160 10 v12 m150 0 v-12 m-150 12 q0 10 10 10 m130 0 q10 0 10 -10 m-140 10 h10 m38 0 h10 m0 0 h10 m52 0 h10 m20 -32 h10 m24 0 h10 m3 0 h-3"/>
         <polygon points="657 203 665 199 665 207"/>
         <polygon points="657 203 649 199 649 207"/>
      </svg>
