<svg xmlns="http://www.w3.org/2000/svg" width="569" height="103">
         <defs>
            <style type="text/css">
               @namespace "http://www.w3.org/2000/svg";
               .line                 {fill: none; stroke: #1F1F1F;}
               .bold-line            {stroke: #0A0A0A; shape-rendering: crispEdges; stroke-width:
               2; }
               .thin-line            {stroke: #0F0F0F; shape-rendering: crispEdges}
               .filled               {fill: #1F1F1F; stroke: none;}
               text.terminal         {font-family: Verdana, Sans-serif;
               font-size: 12px;
               fill: #0A0A0A;
               font-weight: bold;
               }
               text.nonterminal      {font-family: Verdana, Sans-serif; font-style: italic;
               font-size: 12px;
               fill: #0D0D0D;
               }
               text.regexp           {font-family: Verdana, Sans-serif;
               font-size: 12px;
               fill: #0F0F0F;
               }
               rect, circle, polygon {fill: #1F1F1F; stroke: #1F1F1F;}
               rect.terminal         {fill: #CCCCCC; stroke: #1F1F1F;}
               rect.nonterminal      {fill: #E3E3E3; stroke: #1F1F1F;}
               rect.text             {fill: none; stroke: none;}
               polygon.regexp        {fill: #EFEFEF; stroke: #1F1F1F;}

            </style>
         </defs>

         <polygon points="9 51 1 47 1 55"/>
         <polygon points="17 51 9 47 9 55"/>
         <rect x="31" y="37" width="58" height="32" rx="10"/>
         <rect x="29" y="35" width="58" height="32" class="terminal" rx="10"/>
         <text class="terminal" x="39" y="55">result</text>
         <rect x="109" y="37" width="30" height="32" rx="10"/>
         <rect x="107" y="35" width="30" height="32" class="terminal" rx="10"/>
         <text class="terminal" x="117" y="55">=</text><a xmlns:xlink="http://www.w3.org/1999/xlink" xlink:href="#routinename" xlink:title="routinename">
            <rect x="159" y="37" width="100" height="32"/>
            <rect x="157" y="35" width="100" height="32" class="nonterminal"/>
            <text class="nonterminal" x="167" y="55">routinename</text></a><rect x="279" y="37" width="26" height="32" rx="10"/>
         <rect x="277" y="35" width="26" height="32" class="terminal" rx="10"/>
         <text class="terminal" x="287" y="55">(</text><a xmlns:xlink="http://www.w3.org/1999/xlink" xlink:href="#expression" xlink:title="expression">
            <rect x="365" y="69" width="90" height="32"/>
            <rect x="363" y="67" width="90" height="32" class="nonterminal"/>
            <text class="nonterminal" x="373" y="87">expression</text></a><rect x="345" y="3" width="24" height="32" rx="10"/>
         <rect x="343" y="1" width="24" height="32" class="terminal" rx="10"/>
         <text class="terminal" x="353" y="21">,</text>
         <rect x="515" y="37" width="26" height="32" rx="10"/>
         <rect x="513" y="35" width="26" height="32" class="terminal" rx="10"/>
         <text class="terminal" x="523" y="55">)</text>
         <path class="line" d="m17 51 h2 m0 0 h10 m58 0 h10 m0 0 h10 m30 0 h10 m0 0 h10 m100 0 h10 m0 0 h10 m26 0 h10 m40 0 h10 m0 0 h100 m-130 0 h20 m110 0 h20 m-150 0 q10 0 10 10 m130 0 q0 -10 10 -10 m-140 10 v12 m130 0 v-12 m-130 12 q0 10 10 10 m110 0 q10 0 10 -10 m-120 10 h10 m90 0 h10 m-150 -32 l20 0 m-1 0 q-9 0 -9 -10 l0 -14 q0 -10 10 -10 m150 34 l20 0 m-20 0 q10 0 10 -10 l0 -14 q0 -10 -10 -10 m-150 0 h10 m24 0 h10 m0 0 h106 m20 34 h10 m26 0 h10 m3 0 h-3"/>
         <polygon points="559 51 567 47 567 55"/>
         <polygon points="559 51 551 47 551 55"/>
</svg>