      <svg xmlns="http://www.w3.org/2000/svg" width="480" height="80">
         <defs>
            <style type="text/css">
               @namespace "http://www.w3.org/2000/svg";
               .line                 {fill: none; stroke: #1F1F1F;}
               .bold-line            {stroke: #0A0A0A; shape-rendering: crispEdges; stroke-width:
               2; }
               .thin-line            {stroke: #0F0F0F; shape-rendering: crispEdges}
               .filled               {fill: #1F1F1F; stroke: none;}
               text.terminal         {font-family: Verdana, Sans-serif;
               font-size: 12px;
               fill: #0A0A0A;
               font-weight: bold;
               }
               text.nonterminal      {font-family: Verdana, Sans-serif; font-style: italic;
               font-size: 12px;
               fill: #0D0D0D;
               }
               text.regexp           {font-family: Verdana, Sans-serif;
               font-size: 12px;
               fill: #0F0F0F;
               }
               rect, circle, polygon {fill: #1F1F1F; stroke: #1F1F1F;}
               rect.terminal         {fill: #CCCCCC; stroke: #1F1F1F;}
               rect.nonterminal      {fill: #E3E3E3; stroke: #1F1F1F;}
               rect.text             {fill: none; stroke: none;}    
               polygon.regexp        {fill: #EFEFEF; stroke: #1F1F1F;}
               
            </style>
         </defs>
         <polygon points="9 61 1 57 1 65"/>
         <polygon points="17 61 9 57 9 65"/>
         <rect x="31" y="47" width="58" height="32" rx="10"/>
         <rect x="29" y="45" width="58" height="32" class="terminal" rx="10"/>
         <text class="terminal" x="39" y="65">result</text>
         <rect x="109" y="47" width="30" height="32" rx="10"/>
         <rect x="107" y="45" width="30" height="32" class="terminal" rx="10"/>
         <text class="terminal" x="117" y="65">=</text>
<!--     <a xmlns:xlink="http://www.w3.org/1999/xlink" xlink:href="#name" xlink:title="name"> -->
            <rect x="159" y="47" width="54" height="32"/>
            <rect x="157" y="45" width="54" height="32" class="nonterminal"/>
            <text class="nonterminal" x="167" y="65">name</text>
<!--     </a> -->
         <rect x="233" y="47" width="26" height="32" rx="10"/>
         <rect x="231" y="45" width="26" height="32" class="terminal" rx="10"/>
         <text class="terminal" x="241" y="65">(</text>
<!--     <a xmlns:xlink="http://www.w3.org/1999/xlink" xlink:href="#expression" xlink:title="expression"> -->
            <rect x="299" y="47" width="88" height="32"/>
            <rect x="297" y="45" width="88" height="32" class="nonterminal"/>
            <text class="nonterminal" x="307" y="65">expression</text>
<!--     </a> -->
         <rect x="299" y="3" width="24" height="32" rx="10"/>
         <rect x="297" y="1" width="24" height="32" class="terminal" rx="10"/>
         <text class="terminal" x="307" y="21">,</text>
         <rect x="427" y="47" width="26" height="32" rx="10"/>
         <rect x="425" y="45" width="26" height="32" class="terminal" rx="10"/>
         <text class="terminal" x="435" y="65">)</text>
         <svg:path xmlns:svg="http://www.w3.org/2000/svg" class="line" d="m17 61 h2 m0 0 h10 m58 0 h10 m0 0 h10 m30 0 h10 m0 0 h10 m54 0 h10 m0 0 h10 m26 0 h10 m20 0 h10 m88 0 h10 m-128 0 l20 0 m-1 0 q-9 0 -9 -10 l0 -24 q0 -10 10 -10 m108 44 l20 0 m-20 0 q10 0 10 -10 l0 -24 q0 -10 -10 -10 m-108 0 h10 m24 0 h10 m0 0 h64 m20 44 h10 m26 0 h10 m3 0 h-3"/>
         <polygon points="471 61 479 57 479 65"/>
         <polygon points="471 61 463 57 463 65"/>
      </svg>
