      <svg xmlns="http://www.w3.org/2000/svg" width="494" height="118">
         <defs>
            <style type="text/css">
               @namespace "http://www.w3.org/2000/svg";
               .line                 {fill: none; stroke: #1F1F1F;}
               .bold-line            {stroke: #0A0A0A; shape-rendering: crispEdges; stroke-width:
               2; }
               .thin-line            {stroke: #0F0F0F; shape-rendering: crispEdges}
               .filled               {fill: #1F1F1F; stroke: none;}
               text.terminal         {font-family: Verdana, Sans-serif;
               font-size: 12px;
               fill: #0A0A0A;
               font-weight: bold;
               }
               text.nonterminal      {font-family: Verdana, Sans-serif;
               font-size: 12px;
               fill: #0D0D0D;
               }
               text.regexp           {font-family: Verdana, Sans-serif;
               font-size: 12px;
               fill: #0F0F0F;
               }
               rect, circle, polygon {fill: #1F1F1F; stroke: #1F1F1F;}
               rect.terminal         {fill: #CCCCCC; stroke: #1F1F1F;}
               rect.nonterminal      {fill: #E3E3E3; stroke: #1F1F1F;}
               rect.text             {fill: none; stroke: none;}    
               polygon.regexp        {fill: #EFEFEF; stroke: #1F1F1F;}
               
            </style>
         </defs>
         <polygon points="9 17 1 13 1 21"/>
         <polygon points="17 17 9 13 9 21"/>
         <a xmlns:xlink="http://www.w3.org/1999/xlink" xlink:href="#GUARD" xlink:title="GUARD">
            <rect x="31" y="3" width="62" height="32"/>
            <rect x="29" y="1" width="62" height="32" class="nonterminal"/>
            <text class="nonterminal" x="39" y="21">GUARD</text>
         </a>
         <a xmlns:xlink="http://www.w3.org/1999/xlink" xlink:href="#ON" xlink:title="ON">
            <rect x="133" y="3" width="38" height="32"/>
            <rect x="131" y="1" width="38" height="32" class="nonterminal"/>
            <text class="nonterminal" x="141" y="21">ON</text>
         </a>
         <a xmlns:xlink="http://www.w3.org/1999/xlink" xlink:href="#WHEN" xlink:title="WHEN">
            <rect x="211" y="3" width="58" height="32"/>
            <rect x="209" y="1" width="58" height="32" class="nonterminal"/>
            <text class="nonterminal" x="219" y="21">WHEN</text>
         </a>
         <a xmlns:xlink="http://www.w3.org/1999/xlink" xlink:href="#expression" xlink:title="expression">
            <rect x="289" y="3" width="88" height="32"/>
            <rect x="287" y="1" width="88" height="32" class="nonterminal"/>
            <text class="nonterminal" x="297" y="21">expression</text>
         </a>
         <a xmlns:xlink="http://www.w3.org/1999/xlink" xlink:href="#OFF" xlink:title="OFF">
            <rect x="133" y="69" width="44" height="32"/>
            <rect x="131" y="67" width="44" height="32" class="nonterminal"/>
            <text class="nonterminal" x="141" y="87">OFF</text>
         </a>
         <a xmlns:xlink="http://www.w3.org/1999/xlink" xlink:href="#WHEN" xlink:title="WHEN">
            <rect x="217" y="69" width="58" height="32"/>
            <rect x="215" y="67" width="58" height="32" class="nonterminal"/>
            <text class="nonterminal" x="225" y="87">WHEN</text>
         </a>
         <a xmlns:xlink="http://www.w3.org/1999/xlink" xlink:href="#expression" xlink:title="expression">
            <rect x="295" y="69" width="88" height="32"/>
            <rect x="293" y="67" width="88" height="32" class="nonterminal"/>
            <text class="nonterminal" x="303" y="87">expression</text>
         </a>
         <rect x="443" y="3" width="24" height="32" rx="10"/>
         <rect x="441" y="1" width="24" height="32" class="terminal" rx="10"/>
         <text class="terminal" x="451" y="21">;</text>
         <svg:path xmlns:svg="http://www.w3.org/2000/svg" class="line" d="m17 17 h2 m0 0 h10 m62 0 h10 m20 0 h10 m38 0 h10 m20 0 h10 m58 0 h10 m0 0 h10 m88 0 h10 m-206 0 h20 m186 0 h20 m-226 0 q10 0 10 10 m206 0 q0 -10 10 -10 m-216 10 v14 m206 0 v-14 m-206 14 q0 10 10 10 m186 0 q10 0 10 -10 m-196 10 h10 m0 0 h176 m20 -34 h6 m-310 0 h20 m290 0 h20 m-330 0 q10 0 10 10 m310 0 q0 -10 10 -10 m-320 10 v46 m310 0 v-46 m-310 46 q0 10 10 10 m290 0 q10 0 10 -10 m-300 10 h10 m44 0 h10 m20 0 h10 m58 0 h10 m0 0 h10 m88 0 h10 m-206 0 h20 m186 0 h20 m-226 0 q10 0 10 10 m206 0 q0 -10 10 -10 m-216 10 v14 m206 0 v-14 m-206 14 q0 10 10 10 m186 0 q10 0 10 -10 m-196 10 h10 m0 0 h176 m40 -100 h10 m24 0 h10 m3 0 h-3"/>
         <polygon points="485 17 493 13 493 21"/>
         <polygon points="485 17 477 13 477 21"/>
      </svg>
