<svg xmlns="http://www.w3.org/2000/svg" width="505" height="125">
         <defs>
            <style type="text/css">
               @namespace "http://www.w3.org/2000/svg";
               .line                 {fill: none; stroke: #1F1F1F;}
               .bold-line            {stroke: #0A0A0A; shape-rendering: crispEdges; stroke-width:
               2; }
               .thin-line            {stroke: #0F0F0F; shape-rendering: crispEdges}
               .filled               {fill: #1F1F1F; stroke: none;}
               text.terminal         {font-family: Verdana, Sans-serif;
               font-size: 12px;
               fill: #0A0A0A;
               font-weight: bold;
               }
               text.nonterminal      {font-family: Verdana, Sans-serif; font-style: italic;
               font-size: 12px;
               fill: #0D0D0D;
               }
               text.regexp           {font-family: Verdana, Sans-serif;
               font-size: 12px;
               fill: #0F0F0F;
               }
               rect, circle, polygon {fill: #1F1F1F; stroke: #1F1F1F;}
               rect.terminal         {fill: #CCCCCC; stroke: #1F1F1F;}
               rect.nonterminal      {fill: #E3E3E3; stroke: #1F1F1F;}
               rect.text             {fill: none; stroke: none;}
               polygon.regexp        {fill: #EFEFEF; stroke: #1F1F1F;}

            </style>
         </defs>

         <polygon points="9 61 1 57 1 65"/>
         <polygon points="17 61 9 57 9 65"/>
         <rect x="31" y="47" width="68" height="32" rx="10"/>
         <rect x="29" y="45" width="68" height="32" class="terminal" rx="10"/>
         <text class="terminal" x="39" y="65">GUARD</text>
         <rect x="139" y="47" width="40" height="32" rx="10"/>
         <rect x="137" y="45" width="40" height="32" class="terminal" rx="10"/>
         <text class="terminal" x="147" y="65">ON</text>
         <rect x="139" y="91" width="46" height="32" rx="10"/>
         <rect x="137" y="89" width="46" height="32" class="terminal" rx="10"/>
         <text class="terminal" x="147" y="109">OFF</text>
         <rect x="245" y="47" width="62" height="32" rx="10"/>
         <rect x="243" y="45" width="62" height="32" class="terminal" rx="10"/>
         <text class="terminal" x="253" y="65">WHEN</text><a xmlns:xlink="http://www.w3.org/1999/xlink" xlink:href="#expression" xlink:title="expression">
            <rect x="347" y="47" width="90" height="32"/>
            <rect x="345" y="45" width="90" height="32" class="nonterminal"/>
            <text class="nonterminal" x="355" y="65">expression</text></a><rect x="347" y="3" width="24" height="32" rx="10"/>
         <rect x="345" y="1" width="24" height="32" class="terminal" rx="10"/>
         <text class="terminal" x="355" y="21">,</text>
         <path class="line" d="m17 61 h2 m0 0 h10 m68 0 h10 m20 0 h10 m40 0 h10 m0 0 h6 m-86 0 h20 m66 0 h20 m-106 0 q10 0 10 10 m86 0 q0 -10 10 -10 m-96 10 v24 m86 0 v-24 m-86 24 q0 10 10 10 m66 0 q10 0 10 -10 m-76 10 h10 m46 0 h10 m40 -44 h10 m62 0 h10 m20 0 h10 m90 0 h10 m-130 0 l20 0 m-1 0 q-9 0 -9 -10 l0 -24 q0 -10 10 -10 m110 44 l20 0 m-20 0 q10 0 10 -10 l0 -24 q0 -10 -10 -10 m-110 0 h10 m24 0 h10 m0 0 h66 m-232 44 h20 m232 0 h20 m-272 0 q10 0 10 10 m252 0 q0 -10 10 -10 m-262 10 v14 m252 0 v-14 m-252 14 q0 10 10 10 m232 0 q10 0 10 -10 m-242 10 h10 m0 0 h222 m23 -34 h-3"/>
         <polygon points="495 61 503 57 503 65"/>
         <polygon points="495 61 487 57 487 65"/>
</svg>