      <svg xmlns="http://www.w3.org/2000/svg" width="462" height="80">
         <defs>
            <style type="text/css">
               @namespace "http://www.w3.org/2000/svg";
               .line                 {fill: none; stroke: #1F1F1F;}
               .bold-line            {stroke: #0A0A0A; shape-rendering: crispEdges; stroke-width:
               2; }
               .thin-line            {stroke: #0F0F0F; shape-rendering: crispEdges}
               .filled               {fill: #1F1F1F; stroke: none;}
               text.terminal         {font-family: Verdana, Sans-serif;
               font-size: 12px;
               fill: #0A0A0A;
               font-weight: bold;
               }
               text.nonterminal      {font-family: Verdana, Sans-serif; font-style: italic;
               font-size: 12px;
               fill: #0D0D0D;
               }
               text.regexp           {font-family: Verdana, Sans-serif;
               font-size: 12px;
               fill: #0F0F0F;
               }
               rect, circle, polygon {fill: #1F1F1F; stroke: #1F1F1F;}
               rect.terminal         {fill: #CCCCCC; stroke: #1F1F1F;}
               rect.nonterminal      {fill: #E3E3E3; stroke: #1F1F1F;}
               rect.text             {fill: none; stroke: none;}    
               polygon.regexp        {fill: #EFEFEF; stroke: #1F1F1F;}
               
            </style>
         </defs>
         <polygon points="9 17 1 13 1 21"/>
         <polygon points="17 17 9 13 9 21"/>
         <rect x="31" y="3" width="68" height="32" rx="10"/>
         <rect x="29" y="1" width="68" height="32" class="terminal" rx="10"/>
         <text class="terminal" x="39" y="21">GUARD</text>
         <rect x="139" y="3" width="40" height="32" rx="10"/>
         <rect x="137" y="1" width="40" height="32" class="terminal" rx="10"/>
         <text class="terminal" x="147" y="21">ON</text>
         <rect x="139" y="47" width="46" height="32" rx="10"/>
         <rect x="137" y="45" width="46" height="32" class="terminal" rx="10"/>
         <text class="terminal" x="147" y="65">OFF</text>
         <rect x="245" y="35" width="62" height="32" rx="10"/>
         <rect x="243" y="33" width="62" height="32" class="terminal" rx="10"/>
         <text class="terminal" x="253" y="53">WHEN</text>
<!--     <a xmlns:xlink="http://www.w3.org/1999/xlink" xlink:href="#expression" xlink:title="expression"> -->
            <rect x="327" y="35" width="88" height="32"/>
            <rect x="325" y="33" width="88" height="32" class="nonterminal"/>
            <text class="nonterminal" x="335" y="53">expression</text>
<!--     </a> -->
         <svg:path xmlns:svg="http://www.w3.org/2000/svg" class="line" d="m17 17 h2 m0 0 h10 m68 0 h10 m20 0 h10 m40 0 h10 m0 0 h6 m-86 0 h20 m66 0 h20 m-106 0 q10 0 10 10 m86 0 q0 -10 10 -10 m-96 10 v24 m86 0 v-24 m-86 24 q0 10 10 10 m66 0 q10 0 10 -10 m-76 10 h10 m46 0 h10 m40 -44 h10 m0 0 h180 m-210 0 h20 m190 0 h20 m-230 0 q10 0 10 10 m210 0 q0 -10 10 -10 m-220 10 v12 m210 0 v-12 m-210 12 q0 10 10 10 m190 0 q10 0 10 -10 m-200 10 h10 m62 0 h10 m0 0 h10 m88 0 h10 m23 -32 h-3"/>
         <polygon points="453 17 461 13 461 21"/>
         <polygon points="453 17 445 13 445 21"/>
      </svg>
