      <svg xmlns="http://www.w3.org/2000/svg" width="892" height="112">
         <defs>
            <style type="text/css">
               @namespace "http://www.w3.org/2000/svg";
               .line                 {fill: none; stroke: #1F1F1F;}
               .bold-line            {stroke: #0A0A0A; shape-rendering: crispEdges; stroke-width:
               2; }
               .thin-line            {stroke: #0F0F0F; shape-rendering: crispEdges}
               .filled               {fill: #1F1F1F; stroke: none;}
               text.terminal         {font-family: Verdana, Sans-serif;
               font-size: 12px;
               fill: #0A0A0A;
               font-weight: bold;
               }
               text.nonterminal      {font-family: Verdana, Sans-serif; font-style: italic;
               font-size: 12px;
               fill: #0D0D0D;
               }
               text.regexp           {font-family: Verdana, Sans-serif;
               font-size: 12px;
               fill: #0F0F0F;
               }
               rect, circle, polygon {fill: #1F1F1F; stroke: #1F1F1F;}
               rect.terminal         {fill: #CCCCCC; stroke: #1F1F1F;}
               rect.nonterminal      {fill: #E3E3E3; stroke: #1F1F1F;}
               rect.text             {fill: none; stroke: none;}    
               polygon.regexp        {fill: #EFEFEF; stroke: #1F1F1F;}
               
            </style>
         </defs>
         <polygon points="9 61 1 57 1 65"/>
         <polygon points="17 61 9 57 9 65"/>
         <rect x="31" y="47" width="34" height="32" rx="10"/>
         <rect x="29" y="45" width="34" height="32" class="terminal" rx="10"/>
         <text class="terminal" x="39" y="65">IF</text>
<!--     <a xmlns:xlink="http://www.w3.org/1999/xlink" xlink:href="#expression" xlink:title="expression"> -->
            <rect x="105" y="47" width="88" height="32"/>
            <rect x="103" y="45" width="88" height="32" class="nonterminal"/>
            <text class="nonterminal" x="113" y="65">expression</text>
<!--     </a> -->
         <rect x="105" y="3" width="24" height="32" rx="10"/>
         <rect x="103" y="1" width="24" height="32" class="terminal" rx="10"/>
         <text class="terminal" x="113" y="21">,</text>
         <rect x="253" y="47" width="24" height="32" rx="10"/>
         <rect x="251" y="45" width="24" height="32" class="terminal" rx="10"/>
         <text class="terminal" x="261" y="65">;</text>
         <rect x="317" y="47" width="56" height="32" rx="10"/>
         <rect x="315" y="45" width="56" height="32" class="terminal" rx="10"/>
         <text class="terminal" x="325" y="65">THEN</text>
         <rect x="413" y="47" width="24" height="32" rx="10"/>
         <rect x="411" y="45" width="24" height="32" class="terminal" rx="10"/>
         <text class="terminal" x="421" y="65">;</text>
<!--     <a xmlns:xlink="http://www.w3.org/1999/xlink" xlink:href="#instruction" xlink:title="instruction"> -->
            <rect x="477" y="47" width="86" height="32"/>
            <rect x="475" y="45" width="86" height="32" class="nonterminal"/>
            <text class="nonterminal" x="485" y="65">instruction</text>
<!--     </a> -->
         <rect x="603" y="47" width="52" height="32" rx="10"/>
         <rect x="601" y="45" width="52" height="32" class="terminal" rx="10"/>
         <text class="terminal" x="611" y="65">ELSE</text>
         <rect x="695" y="47" width="24" height="32" rx="10"/>
         <rect x="693" y="45" width="24" height="32" class="terminal" rx="10"/>
         <text class="terminal" x="703" y="65">;</text>
<!--     <a xmlns:xlink="http://www.w3.org/1999/xlink" xlink:href="#instruction" xlink:title="instruction"> -->
            <rect x="759" y="47" width="86" height="32"/>
            <rect x="757" y="45" width="86" height="32" class="nonterminal"/>
            <text class="nonterminal" x="767" y="65">instruction</text>
<!--     </a> -->
         <svg:path xmlns:svg="http://www.w3.org/2000/svg" class="line" d="m17 61 h2 m0 0 h10 m34 0 h10 m20 0 h10 m88 0 h10 m-128 0 l20 0 m-1 0 q-9 0 -9 -10 l0 -24 q0 -10 10 -10 m108 44 l20 0 m-20 0 q10 0 10 -10 l0 -24 q0 -10 -10 -10 m-108 0 h10 m24 0 h10 m0 0 h64 m40 44 h10 m24 0 h10 m-64 0 h20 m44 0 h20 m-84 0 q10 0 10 10 m64 0 q0 -10 10 -10 m-74 10 v14 m64 0 v-14 m-64 14 q0 10 10 10 m44 0 q10 0 10 -10 m-54 10 h10 m0 0 h34 m20 -34 h10 m56 0 h10 m20 0 h10 m24 0 h10 m-64 0 h20 m44 0 h20 m-84 0 q10 0 10 10 m64 0 q0 -10 10 -10 m-74 10 v14 m64 0 v-14 m-64 14 q0 10 10 10 m44 0 q10 0 10 -10 m-54 10 h10 m0 0 h34 m20 -34 h10 m86 0 h10 m20 0 h10 m52 0 h10 m20 0 h10 m24 0 h10 m-64 0 h20 m44 0 h20 m-84 0 q10 0 10 10 m64 0 q0 -10 10 -10 m-74 10 v14 m64 0 v-14 m-64 14 q0 10 10 10 m44 0 q10 0 10 -10 m-54 10 h10 m0 0 h34 m20 -34 h10 m86 0 h10 m-282 0 h20 m262 0 h20 m-302 0 q10 0 10 10 m282 0 q0 -10 10 -10 m-292 10 v30 m282 0 v-30 m-282 30 q0 10 10 10 m262 0 q10 0 10 -10 m-272 10 h10 m0 0 h252 m23 -50 h-3"/>
         <polygon points="883 61 891 57 891 65"/>
         <polygon points="883 61 875 57 875 65"/>
      </svg>
