      <svg xmlns="http://www.w3.org/2000/svg" width="844" height="68">
         <defs>
            <style type="text/css">
               @namespace "http://www.w3.org/2000/svg";
               .line                 {fill: none; stroke: #1F1F1F;}
               .bold-line            {stroke: #0A0A0A; shape-rendering: crispEdges; stroke-width:
               2; }
               .thin-line            {stroke: #0F0F0F; shape-rendering: crispEdges}
               .filled               {fill: #1F1F1F; stroke: none;}
               text.terminal         {font-family: Verdana, Sans-serif;
               font-size: 12px;
               fill: #0A0A0A;
               font-weight: bold;
               }
               text.nonterminal      {font-family: Verdana, Sans-serif;
               font-size: 12px;
               fill: #0D0D0D;
               }
               text.regexp           {font-family: Verdana, Sans-serif;
               font-size: 12px;
               fill: #0F0F0F;
               }
               rect, circle, polygon {fill: #1F1F1F; stroke: #1F1F1F;}
               rect.terminal         {fill: #CCCCCC; stroke: #1F1F1F;}
               rect.nonterminal      {fill: #E3E3E3; stroke: #1F1F1F;}
               rect.text             {fill: none; stroke: none;}    
               polygon.regexp        {fill: #EFEFEF; stroke: #1F1F1F;}
               
            </style>
         </defs>
         <polygon points="9 17 1 13 1 21"/>
         <polygon points="17 17 9 13 9 21"/>
         <a xmlns:xlink="http://www.w3.org/1999/xlink" xlink:href="#IF" xlink:title="IF">
            <rect x="31" y="3" width="32" height="32"/>
            <rect x="29" y="1" width="32" height="32" class="nonterminal"/>
            <text class="nonterminal" x="39" y="21">IF</text>
         </a>
         <a xmlns:xlink="http://www.w3.org/1999/xlink" xlink:href="#expression" xlink:title="expression">
            <rect x="83" y="3" width="88" height="32"/>
            <rect x="81" y="1" width="88" height="32" class="nonterminal"/>
            <text class="nonterminal" x="91" y="21">expression</text>
         </a>
         <rect x="211" y="3" width="24" height="32" rx="10"/>
         <rect x="209" y="1" width="24" height="32" class="terminal" rx="10"/>
         <text class="terminal" x="219" y="21">;</text>
         <a xmlns:xlink="http://www.w3.org/1999/xlink" xlink:href="#THEN" xlink:title="THEN">
            <rect x="275" y="3" width="52" height="32"/>
            <rect x="273" y="1" width="52" height="32" class="nonterminal"/>
            <text class="nonterminal" x="283" y="21">THEN</text>
         </a>
         <rect x="367" y="3" width="24" height="32" rx="10"/>
         <rect x="365" y="1" width="24" height="32" class="terminal" rx="10"/>
         <text class="terminal" x="375" y="21">;</text>
         <a xmlns:xlink="http://www.w3.org/1999/xlink" xlink:href="#instruction" xlink:title="instruction">
            <rect x="431" y="3" width="86" height="32"/>
            <rect x="429" y="1" width="86" height="32" class="nonterminal"/>
            <text class="nonterminal" x="439" y="21">instruction</text>
         </a>
         <a xmlns:xlink="http://www.w3.org/1999/xlink" xlink:href="#ELSE" xlink:title="ELSE">
            <rect x="557" y="3" width="50" height="32"/>
            <rect x="555" y="1" width="50" height="32" class="nonterminal"/>
            <text class="nonterminal" x="565" y="21">ELSE</text>
         </a>
         <rect x="647" y="3" width="24" height="32" rx="10"/>
         <rect x="645" y="1" width="24" height="32" class="terminal" rx="10"/>
         <text class="terminal" x="655" y="21">;</text>
         <a xmlns:xlink="http://www.w3.org/1999/xlink" xlink:href="#instruction" xlink:title="instruction">
            <rect x="711" y="3" width="86" height="32"/>
            <rect x="709" y="1" width="86" height="32" class="nonterminal"/>
            <text class="nonterminal" x="719" y="21">instruction</text>
         </a>
         <svg:path xmlns:svg="http://www.w3.org/2000/svg" class="line" d="m17 17 h2 m0 0 h10 m32 0 h10 m0 0 h10 m88 0 h10 m20 0 h10 m24 0 h10 m-64 0 h20 m44 0 h20 m-84 0 q10 0 10 10 m64 0 q0 -10 10 -10 m-74 10 v14 m64 0 v-14 m-64 14 q0 10 10 10 m44 0 q10 0 10 -10 m-54 10 h10 m0 0 h34 m20 -34 h10 m52 0 h10 m20 0 h10 m24 0 h10 m-64 0 h20 m44 0 h20 m-84 0 q10 0 10 10 m64 0 q0 -10 10 -10 m-74 10 v14 m64 0 v-14 m-64 14 q0 10 10 10 m44 0 q10 0 10 -10 m-54 10 h10 m0 0 h34 m20 -34 h10 m86 0 h10 m20 0 h10 m50 0 h10 m20 0 h10 m24 0 h10 m-64 0 h20 m44 0 h20 m-84 0 q10 0 10 10 m64 0 q0 -10 10 -10 m-74 10 v14 m64 0 v-14 m-64 14 q0 10 10 10 m44 0 q10 0 10 -10 m-54 10 h10 m0 0 h34 m20 -34 h10 m86 0 h10 m-280 0 h20 m260 0 h20 m-300 0 q10 0 10 10 m280 0 q0 -10 10 -10 m-290 10 v30 m280 0 v-30 m-280 30 q0 10 10 10 m260 0 q10 0 10 -10 m-270 10 h10 m0 0 h250 m23 -50 h-3"/>
         <polygon points="835 17 843 13 843 21"/>
         <polygon points="835 17 827 13 827 21"/>
      </svg>
