      <svg xmlns="http://www.w3.org/2000/svg" width="574" height="230">
         <defs>
            <style type="text/css">
               @namespace "http://www.w3.org/2000/svg";
               .line                 {fill: none; stroke: #1F1F1F;}
               .bold-line            {stroke: #0A0A0A; shape-rendering: crispEdges; stroke-width:
               2; }
               .thin-line            {stroke: #0F0F0F; shape-rendering: crispEdges}
               .filled               {fill: #1F1F1F; stroke: none;}
               text.terminal         {font-family: Verdana, Sans-serif;
               font-size: 12px;
               fill: #0A0A0A;
               font-weight: bold;
               }
               text.nonterminal      {font-family: Verdana, Sans-serif; font-style: italic;
               font-size: 12px;
               fill: #0D0D0D;
               }
               text.regexp           {font-family: Verdana, Sans-serif;
               font-size: 12px;
               fill: #0F0F0F;
               }
               rect, circle, polygon {fill: #1F1F1F; stroke: #1F1F1F;}
               rect.terminal         {fill: #CCCCCC; stroke: #1F1F1F;}
               rect.nonterminal      {fill: #E3E3E3; stroke: #1F1F1F;}
               rect.text             {fill: none; stroke: none;}    
               polygon.regexp        {fill: #EFEFEF; stroke: #1F1F1F;}
               
            </style>
         </defs>
         <polygon points="9 61 1 57 1 65"/>
         <polygon points="17 61 9 57 9 65"/>
         <rect x="31" y="47" width="34" height="32" rx="10"/>
         <rect x="29" y="45" width="34" height="32" class="terminal" rx="10"/>
         <text class="terminal" x="39" y="65">IF</text>
<!--     <a xmlns:xlink="http://www.w3.org/1999/xlink" xlink:href="#expression" xlink:title="expression"> -->
            <rect x="105" y="47" width="84" height="32"/>
            <rect x="103" y="45" width="84" height="32" class="nonterminal"/>
            <text class="nonterminal" x="113" y="65">expression</text>
<!--     </a> -->
         <rect x="105" y="3" width="24" height="32" rx="10"/>
         <rect x="103" y="1" width="24" height="32" class="terminal" rx="10"/>
         <text class="terminal" x="113" y="21">,</text>
         <rect x="249" y="79" width="24" height="32" rx="10"/>
         <rect x="247" y="77" width="24" height="32" class="terminal" rx="10"/>
         <text class="terminal" x="257" y="97">;</text>
         <rect x="313" y="47" width="54" height="32" rx="10"/>
         <rect x="311" y="45" width="54" height="32" class="terminal" rx="10"/>
         <text class="terminal" x="321" y="65">THEN</text>
         <rect x="407" y="79" width="24" height="32" rx="10"/>
         <rect x="405" y="77" width="24" height="32" class="terminal" rx="10"/>
         <text class="terminal" x="415" y="97">;</text>
<!--     <a xmlns:xlink="http://www.w3.org/1999/xlink" xlink:href="#instruction" xlink:title="instruction"> -->
            <rect x="471" y="47" width="82" height="32"/>
            <rect x="469" y="45" width="82" height="32" class="nonterminal"/>
            <text class="nonterminal" x="479" y="65">instruction</text>
<!--     </a> -->
         <rect x="289" y="165" width="52" height="32" rx="10"/>
         <rect x="287" y="163" width="52" height="32" class="terminal" rx="10"/>
         <text class="terminal" x="297" y="183">ELSE</text>
         <rect x="381" y="197" width="24" height="32" rx="10"/>
         <rect x="379" y="195" width="24" height="32" class="terminal" rx="10"/>
         <text class="terminal" x="389" y="215">;</text>
<!--     <a xmlns:xlink="http://www.w3.org/1999/xlink" xlink:href="#instruction" xlink:title="instruction"> -->
            <rect x="445" y="165" width="82" height="32"/>
            <rect x="443" y="163" width="82" height="32" class="nonterminal"/>
            <text class="nonterminal" x="453" y="183">instruction</text>
<!--     </a> -->
         <svg:path xmlns:svg="http://www.w3.org/2000/svg" class="line" d="m17 61 h2 m0 0 h10 m34 0 h10 m20 0 h10 m84 0 h10 m-124 0 l20 0 m-1 0 q-9 0 -9 -10 l0 -24 q0 -10 10 -10 m104 44 l20 0 m-20 0 q10 0 10 -10 l0 -24 q0 -10 -10 -10 m-104 0 h10 m24 0 h10 m0 0 h60 m40 44 h10 m0 0 h34 m-64 0 h20 m44 0 h20 m-84 0 q10 0 10 10 m64 0 q0 -10 10 -10 m-74 10 v12 m64 0 v-12 m-64 12 q0 10 10 10 m44 0 q10 0 10 -10 m-54 10 h10 m24 0 h10 m20 -32 h10 m54 0 h10 m20 0 h10 m0 0 h34 m-64 0 h20 m44 0 h20 m-84 0 q10 0 10 10 m64 0 q0 -10 10 -10 m-74 10 v12 m64 0 v-12 m-64 12 q0 10 10 10 m44 0 q10 0 10 -10 m-54 10 h10 m24 0 h10 m20 -32 h10 m82 0 h10 m2 0 l2 0 m2 0 l2 0 m2 0 l2 0 m-328 86 l2 0 m2 0 l2 0 m2 0 l2 0 m22 0 h10 m0 0 h248 m-278 0 h20 m258 0 h20 m-298 0 q10 0 10 10 m278 0 q0 -10 10 -10 m-288 10 v12 m278 0 v-12 m-278 12 q0 10 10 10 m258 0 q10 0 10 -10 m-268 10 h10 m52 0 h10 m20 0 h10 m0 0 h34 m-64 0 h20 m44 0 h20 m-84 0 q10 0 10 10 m64 0 q0 -10 10 -10 m-74 10 v12 m64 0 v-12 m-64 12 q0 10 10 10 m44 0 q10 0 10 -10 m-54 10 h10 m24 0 h10 m20 -32 h10 m82 0 h10 m23 -32 h-3"/>
         <polygon points="565 147 573 143 573 151"/>
         <polygon points="565 147 557 143 557 151"/>
      </svg>
