<svg xmlns="http://www.w3.org/2000/svg" width="545" height="341">
         <defs>
            <style type="text/css">
               @namespace "http://www.w3.org/2000/svg";
               .line                 {fill: none; stroke: #1F1F1F;}
               .bold-line            {stroke: #0A0A0A; shape-rendering: crispEdges; stroke-width:
               2; }
               .thin-line            {stroke: #0F0F0F; shape-rendering: crispEdges}
               .filled               {fill: #1F1F1F; stroke: none;}
               text.terminal         {font-family: Verdana, Sans-serif;
               font-size: 12px;
               fill: #0A0A0A;
               font-weight: bold;
               }
               text.nonterminal      {font-family: Verdana, Sans-serif; font-style: italic;
               font-size: 12px;
               fill: #0D0D0D;
               }
               text.regexp           {font-family: Verdana, Sans-serif;
               font-size: 12px;
               fill: #0F0F0F;
               }
               rect, circle, polygon {fill: #1F1F1F; stroke: #1F1F1F;}
               rect.terminal         {fill: #CCCCCC; stroke: #1F1F1F;}
               rect.nonterminal      {fill: #E3E3E3; stroke: #1F1F1F;}
               rect.text             {fill: none; stroke: none;}
               polygon.regexp        {fill: #EFEFEF; stroke: #1F1F1F;}

            </style>
         </defs>

         <polygon points="9 17 1 13 1 21"/>
         <polygon points="17 17 9 13 9 21"/>
         <rect x="31" y="3" width="84" height="32" rx="10"/>
         <rect x="29" y="1" width="84" height="32" class="terminal" rx="10"/>
         <text class="terminal" x="39" y="21">NUMERIC</text>
         <rect x="155" y="3" width="70" height="32" rx="10"/>
         <rect x="153" y="1" width="70" height="32" class="terminal" rx="10"/>
         <text class="terminal" x="163" y="21">DIGITS</text><a xmlns:xlink="http://www.w3.org/1999/xlink" xlink:href="#expression1" xlink:title="expression1">
            <rect x="265" y="35" width="98" height="32"/>
            <rect x="263" y="33" width="98" height="32" class="nonterminal"/>
            <text class="nonterminal" x="273" y="53">expression1</text></a><rect x="155" y="79" width="60" height="32" rx="10"/>
         <rect x="153" y="77" width="60" height="32" class="terminal" rx="10"/>
         <text class="terminal" x="163" y="97">FORM</text>
         <rect x="255" y="111" width="100" height="32" rx="10"/>
         <rect x="253" y="109" width="100" height="32" class="terminal" rx="10"/>
         <text class="terminal" x="263" y="129">SCIENTIFIC</text>
         <rect x="255" y="155" width="116" height="32" rx="10"/>
         <rect x="253" y="153" width="116" height="32" class="terminal" rx="10"/>
         <text class="terminal" x="263" y="173">ENGINEERING</text>
         <rect x="275" y="231" width="64" height="32" rx="10"/>
         <rect x="273" y="229" width="64" height="32" class="terminal" rx="10"/>
         <text class="terminal" x="283" y="249">VALUE</text><a xmlns:xlink="http://www.w3.org/1999/xlink" xlink:href="#expression2" xlink:title="expression2">
            <rect x="379" y="199" width="98" height="32"/>
            <rect x="377" y="197" width="98" height="32" class="nonterminal"/>
            <text class="nonterminal" x="387" y="217">expression2</text></a><rect x="155" y="275" width="54" height="32" rx="10"/>
         <rect x="153" y="273" width="54" height="32" class="terminal" rx="10"/>
         <text class="terminal" x="163" y="293">FUZZ</text><a xmlns:xlink="http://www.w3.org/1999/xlink" xlink:href="#expression3" xlink:title="expression3">
            <rect x="249" y="307" width="98" height="32"/>
            <rect x="247" y="305" width="98" height="32" class="nonterminal"/>
            <text class="nonterminal" x="257" y="325">expression3</text></a><path class="line" d="m17 17 h2 m0 0 h10 m84 0 h10 m20 0 h10 m70 0 h10 m20 0 h10 m0 0 h108 m-138 0 h20 m118 0 h20 m-158 0 q10 0 10 10 m138 0 q0 -10 10 -10 m-148 10 v12 m138 0 v-12 m-138 12 q0 10 10 10 m118 0 q10 0 10 -10 m-128 10 h10 m98 0 h10 m20 -32 h114 m-382 0 h20 m362 0 h20 m-402 0 q10 0 10 10 m382 0 q0 -10 10 -10 m-392 10 v56 m382 0 v-56 m-382 56 q0 10 10 10 m362 0 q10 0 10 -10 m-372 10 h10 m60 0 h10 m20 0 h10 m0 0 h232 m-262 0 h20 m242 0 h20 m-282 0 q10 0 10 10 m262 0 q0 -10 10 -10 m-272 10 v12 m262 0 v-12 m-262 12 q0 10 10 10 m242 0 q10 0 10 -10 m-252 10 h10 m100 0 h10 m0 0 h122 m-252 -10 v20 m262 0 v-20 m-262 20 v24 m262 0 v-24 m-262 24 q0 10 10 10 m242 0 q10 0 10 -10 m-252 10 h10 m116 0 h10 m0 0 h106 m-252 -10 v20 m262 0 v-20 m-262 20 v24 m262 0 v-24 m-262 24 q0 10 10 10 m242 0 q10 0 10 -10 m-232 10 h10 m0 0 h74 m-104 0 h20 m84 0 h20 m-124 0 q10 0 10 10 m104 0 q0 -10 10 -10 m-114 10 v12 m104 0 v-12 m-104 12 q0 10 10 10 m84 0 q10 0 10 -10 m-94 10 h10 m64 0 h10 m20 -32 h10 m98 0 h10 m-352 -130 v20 m382 0 v-20 m-382 20 v176 m382 0 v-176 m-382 176 q0 10 10 10 m362 0 q10 0 10 -10 m-372 10 h10 m54 0 h10 m20 0 h10 m0 0 h108 m-138 0 h20 m118 0 h20 m-158 0 q10 0 10 10 m138 0 q0 -10 10 -10 m-148 10 v12 m138 0 v-12 m-138 12 q0 10 10 10 m118 0 q10 0 10 -10 m-128 10 h10 m98 0 h10 m20 -32 h130 m23 -272 h-3"/>
         <polygon points="535 17 543 13 543 21"/>
         <polygon points="535 17 527 13 527 21"/>
</svg>