      <svg xmlns="http://www.w3.org/2000/svg" width="582" height="288">
         <defs>
            <style type="text/css">
               @namespace "http://www.w3.org/2000/svg";
               .line                 {fill: none; stroke: #1F1F1F;}
               .bold-line            {stroke: #0A0A0A; shape-rendering: crispEdges; stroke-width:
               2; }
               .thin-line            {stroke: #0F0F0F; shape-rendering: crispEdges}
               .filled               {fill: #1F1F1F; stroke: none;}
               text.terminal         {font-family: Verdana, Sans-serif;
               font-size: 12px;
               fill: #0A0A0A;
               font-weight: bold;
               }
               text.nonterminal      {font-family: Verdana, Sans-serif; font-style: italic;
               font-size: 12px;
               fill: #0D0D0D;
               }
               text.regexp           {font-family: Verdana, Sans-serif;
               font-size: 12px;
               fill: #0F0F0F;
               }
               rect, circle, polygon {fill: #1F1F1F; stroke: #1F1F1F;}
               rect.terminal         {fill: #CCCCCC; stroke: #1F1F1F;}
               rect.nonterminal      {fill: #E3E3E3; stroke: #1F1F1F;}
               rect.text             {fill: none; stroke: none;}    
               polygon.regexp        {fill: #EFEFEF; stroke: #1F1F1F;}
               
            </style>
         </defs>
         <polygon points="9 17 1 13 1 21"/>
         <polygon points="17 17 9 13 9 21"/>
         <rect x="31" y="3" width="82" height="32" rx="10"/>
         <rect x="29" y="1" width="82" height="32" class="terminal" rx="10"/>
         <text class="terminal" x="39" y="21">NUMERIC</text>
         <rect x="153" y="3" width="68" height="32" rx="10"/>
         <rect x="151" y="1" width="68" height="32" class="terminal" rx="10"/>
         <text class="terminal" x="161" y="21">DIGITS</text>
<!--     <a xmlns:xlink="http://www.w3.org/1999/xlink" xlink:href="#expression1" xlink:title="expression1"> -->
            <rect x="261" y="3" width="96" height="32"/>
            <rect x="259" y="1" width="96" height="32" class="nonterminal"/>
            <text class="nonterminal" x="269" y="21">expression1</text>
<!--     </a> -->
         <rect x="153" y="69" width="58" height="32" rx="10"/>
         <rect x="151" y="67" width="58" height="32" class="terminal" rx="10"/>
         <text class="terminal" x="161" y="87">FORM</text>
         <rect x="251" y="69" width="98" height="32" rx="10"/>
         <rect x="249" y="67" width="98" height="32" class="terminal" rx="10"/>
         <text class="terminal" x="259" y="87">SCIENTIFIC</text>
         <rect x="251" y="113" width="114" height="32" rx="10"/>
         <rect x="249" y="111" width="114" height="32" class="terminal" rx="10"/>
         <text class="terminal" x="259" y="131">ENGINEERING</text>
         <rect x="271" y="157" width="64" height="32" rx="10"/>
         <rect x="269" y="155" width="64" height="32" class="terminal" rx="10"/>
         <text class="terminal" x="279" y="175">VALUE</text>
<!--     <a xmlns:xlink="http://www.w3.org/1999/xlink" xlink:href="#expression2" xlink:title="expression2"> -->
            <rect x="375" y="157" width="96" height="32"/>
            <rect x="373" y="155" width="96" height="32" class="nonterminal"/>
            <text class="nonterminal" x="383" y="175">expression2</text>
<!--     </a> -->
         <rect x="153" y="239" width="54" height="32" rx="10"/>
         <rect x="151" y="237" width="54" height="32" class="terminal" rx="10"/>
         <text class="terminal" x="161" y="257">FUZZ</text>
<!--     <a xmlns:xlink="http://www.w3.org/1999/xlink" xlink:href="#expression3" xlink:title="expression3"> -->
            <rect x="247" y="239" width="96" height="32"/>
            <rect x="245" y="237" width="96" height="32" class="nonterminal"/>
            <text class="nonterminal" x="255" y="257">expression3</text>
<!--     </a> -->
         <rect x="531" y="3" width="24" height="32" rx="10"/>
         <rect x="529" y="1" width="24" height="32" class="terminal" rx="10"/>
         <text class="terminal" x="539" y="21">;</text>
         <svg:path xmlns:svg="http://www.w3.org/2000/svg" class="line" d="m17 17 h2 m0 0 h10 m82 0 h10 m20 0 h10 m68 0 h10 m20 0 h10 m96 0 h10 m-136 0 h20 m116 0 h20 m-156 0 q10 0 10 10 m136 0 q0 -10 10 -10 m-146 10 v14 m136 0 v-14 m-136 14 q0 10 10 10 m116 0 q10 0 10 -10 m-126 10 h10 m0 0 h106 m20 -34 h114 m-378 0 h20 m358 0 h20 m-398 0 q10 0 10 10 m378 0 q0 -10 10 -10 m-388 10 v46 m378 0 v-46 m-378 46 q0 10 10 10 m358 0 q10 0 10 -10 m-368 10 h10 m58 0 h10 m20 0 h10 m98 0 h10 m0 0 h122 m-260 0 h20 m240 0 h20 m-280 0 q10 0 10 10 m260 0 q0 -10 10 -10 m-270 10 v24 m260 0 v-24 m-260 24 q0 10 10 10 m240 0 q10 0 10 -10 m-250 10 h10 m114 0 h10 m0 0 h106 m-250 -10 v20 m260 0 v-20 m-260 20 v24 m260 0 v-24 m-260 24 q0 10 10 10 m240 0 q10 0 10 -10 m-230 10 h10 m64 0 h10 m-104 0 h20 m84 0 h20 m-124 0 q10 0 10 10 m104 0 q0 -10 10 -10 m-114 10 v14 m104 0 v-14 m-104 14 q0 10 10 10 m84 0 q10 0 10 -10 m-94 10 h10 m0 0 h74 m20 -34 h10 m96 0 h10 m-250 -10 v20 m260 0 v-20 m-260 20 v30 m260 0 v-30 m-260 30 q0 10 10 10 m240 0 q10 0 10 -10 m-250 10 h10 m0 0 h230 m-348 -148 v20 m378 0 v-20 m-378 20 v150 m378 0 v-150 m-378 150 q0 10 10 10 m358 0 q10 0 10 -10 m-368 10 h10 m54 0 h10 m20 0 h10 m96 0 h10 m-136 0 h20 m116 0 h20 m-156 0 q10 0 10 10 m136 0 q0 -10 10 -10 m-146 10 v14 m136 0 v-14 m-136 14 q0 10 10 10 m116 0 q10 0 10 -10 m-126 10 h10 m0 0 h106 m20 -34 h128 m20 -236 h10 m24 0 h10 m3 0 h-3"/>
         <polygon points="573 17 581 13 581 21"/>
         <polygon points="573 17 565 13 565 21"/>
      </svg>
