      <svg xmlns="http://www.w3.org/2000/svg" width="570" height="288">
         <defs>
            <style type="text/css">
               @namespace "http://www.w3.org/2000/svg";
               .line                 {fill: none; stroke: #1F1F1F;}
               .bold-line            {stroke: #0A0A0A; shape-rendering: crispEdges; stroke-width:
               2; }
               .thin-line            {stroke: #0F0F0F; shape-rendering: crispEdges}
               .filled               {fill: #1F1F1F; stroke: none;}
               text.terminal         {font-family: Verdana, Sans-serif;
               font-size: 12px;
               fill: #0A0A0A;
               font-weight: bold;
               }
               text.nonterminal      {font-family: Verdana, Sans-serif;
               font-size: 12px;
               fill: #0D0D0D;
               }
               text.regexp           {font-family: Verdana, Sans-serif;
               font-size: 12px;
               fill: #0F0F0F;
               }
               rect, circle, polygon {fill: #1F1F1F; stroke: #1F1F1F;}
               rect.terminal         {fill: #CCCCCC; stroke: #1F1F1F;}
               rect.nonterminal      {fill: #E3E3E3; stroke: #1F1F1F;}
               rect.text             {fill: none; stroke: none;}    
               polygon.regexp        {fill: #EFEFEF; stroke: #1F1F1F;}
               
            </style>
         </defs>
         <polygon points="9 17 1 13 1 21"/>
         <polygon points="17 17 9 13 9 21"/>
         <a xmlns:xlink="http://www.w3.org/1999/xlink" xlink:href="#NUMERIC" xlink:title="NUMERIC">
            <rect x="31" y="3" width="78" height="32"/>
            <rect x="29" y="1" width="78" height="32" class="nonterminal"/>
            <text class="nonterminal" x="39" y="21">NUMERIC</text>
         </a>
         <a xmlns:xlink="http://www.w3.org/1999/xlink" xlink:href="#DIGITS" xlink:title="DIGITS">
            <rect x="149" y="3" width="62" height="32"/>
            <rect x="147" y="1" width="62" height="32" class="nonterminal"/>
            <text class="nonterminal" x="157" y="21">DIGITS</text>
         </a>
         <a xmlns:xlink="http://www.w3.org/1999/xlink" xlink:href="#expression" xlink:title="expression">
            <rect x="251" y="3" width="88" height="32"/>
            <rect x="249" y="1" width="88" height="32" class="nonterminal"/>
            <text class="nonterminal" x="259" y="21">expression</text>
         </a>
         <a xmlns:xlink="http://www.w3.org/1999/xlink" xlink:href="#FORM" xlink:title="FORM">
            <rect x="149" y="69" width="54" height="32"/>
            <rect x="147" y="67" width="54" height="32" class="nonterminal"/>
            <text class="nonterminal" x="157" y="87">FORM</text>
         </a>
         <a xmlns:xlink="http://www.w3.org/1999/xlink" xlink:href="#SCIENTIFIC" xlink:title="SCIENTIFIC">
            <rect x="243" y="69" width="92" height="32"/>
            <rect x="241" y="67" width="92" height="32" class="nonterminal"/>
            <text class="nonterminal" x="251" y="87">SCIENTIFIC</text>
         </a>
         <a xmlns:xlink="http://www.w3.org/1999/xlink" xlink:href="#ENGINEERING" xlink:title="ENGINEERING">
            <rect x="243" y="113" width="106" height="32"/>
            <rect x="241" y="111" width="106" height="32" class="nonterminal"/>
            <text class="nonterminal" x="251" y="131">ENGINEERING</text>
         </a>
         <a xmlns:xlink="http://www.w3.org/1999/xlink" xlink:href="#VALUE" xlink:title="VALUE">
            <rect x="263" y="157" width="60" height="32"/>
            <rect x="261" y="155" width="60" height="32" class="nonterminal"/>
            <text class="nonterminal" x="271" y="175">VALUE</text>
         </a>
         <a xmlns:xlink="http://www.w3.org/1999/xlink" xlink:href="#expression2" xlink:title="expression2">
            <rect x="363" y="157" width="96" height="32"/>
            <rect x="361" y="155" width="96" height="32" class="nonterminal"/>
            <text class="nonterminal" x="371" y="175">expression2</text>
         </a>
         <a xmlns:xlink="http://www.w3.org/1999/xlink" xlink:href="#FUZZ" xlink:title="FUZZ">
            <rect x="149" y="239" width="52" height="32"/>
            <rect x="147" y="237" width="52" height="32" class="nonterminal"/>
            <text class="nonterminal" x="157" y="257">FUZZ</text>
         </a>
         <a xmlns:xlink="http://www.w3.org/1999/xlink" xlink:href="#expression" xlink:title="expression">
            <rect x="241" y="239" width="88" height="32"/>
            <rect x="239" y="237" width="88" height="32" class="nonterminal"/>
            <text class="nonterminal" x="249" y="257">expression</text>
         </a>
         <rect x="519" y="3" width="24" height="32" rx="10"/>
         <rect x="517" y="1" width="24" height="32" class="terminal" rx="10"/>
         <text class="terminal" x="527" y="21">;</text>
         <svg:path xmlns:svg="http://www.w3.org/2000/svg" class="line" d="m17 17 h2 m0 0 h10 m78 0 h10 m20 0 h10 m62 0 h10 m20 0 h10 m88 0 h10 m-128 0 h20 m108 0 h20 m-148 0 q10 0 10 10 m128 0 q0 -10 10 -10 m-138 10 v14 m128 0 v-14 m-128 14 q0 10 10 10 m108 0 q10 0 10 -10 m-118 10 h10 m0 0 h98 m20 -34 h120 m-370 0 h20 m350 0 h20 m-390 0 q10 0 10 10 m370 0 q0 -10 10 -10 m-380 10 v46 m370 0 v-46 m-370 46 q0 10 10 10 m350 0 q10 0 10 -10 m-360 10 h10 m54 0 h10 m20 0 h10 m92 0 h10 m0 0 h124 m-256 0 h20 m236 0 h20 m-276 0 q10 0 10 10 m256 0 q0 -10 10 -10 m-266 10 v24 m256 0 v-24 m-256 24 q0 10 10 10 m236 0 q10 0 10 -10 m-246 10 h10 m106 0 h10 m0 0 h110 m-246 -10 v20 m256 0 v-20 m-256 20 v24 m256 0 v-24 m-256 24 q0 10 10 10 m236 0 q10 0 10 -10 m-226 10 h10 m60 0 h10 m-100 0 h20 m80 0 h20 m-120 0 q10 0 10 10 m100 0 q0 -10 10 -10 m-110 10 v14 m100 0 v-14 m-100 14 q0 10 10 10 m80 0 q10 0 10 -10 m-90 10 h10 m0 0 h70 m20 -34 h10 m96 0 h10 m-246 -10 v20 m256 0 v-20 m-256 20 v30 m256 0 v-30 m-256 30 q0 10 10 10 m236 0 q10 0 10 -10 m-246 10 h10 m0 0 h226 m-340 -148 v20 m370 0 v-20 m-370 20 v150 m370 0 v-150 m-370 150 q0 10 10 10 m350 0 q10 0 10 -10 m-360 10 h10 m52 0 h10 m20 0 h10 m88 0 h10 m-128 0 h20 m108 0 h20 m-148 0 q10 0 10 10 m128 0 q0 -10 10 -10 m-138 10 v14 m128 0 v-14 m-128 14 q0 10 10 10 m108 0 q10 0 10 -10 m-118 10 h10 m0 0 h98 m20 -34 h130 m20 -236 h10 m24 0 h10 m3 0 h-3"/>
         <polygon points="561 17 569 13 569 21"/>
         <polygon points="561 17 553 13 553 21"/>
      </svg>
