      <svg xmlns="http://www.w3.org/2000/svg" width="534" height="340">
         <defs>
            <style type="text/css">
               @namespace "http://www.w3.org/2000/svg";
               .line                 {fill: none; stroke: #1F1F1F;}
               .bold-line            {stroke: #0A0A0A; shape-rendering: crispEdges; stroke-width:
               2; }
               .thin-line            {stroke: #0F0F0F; shape-rendering: crispEdges}
               .filled               {fill: #1F1F1F; stroke: none;}
               text.terminal         {font-family: Verdana, Sans-serif;
               font-size: 12px;
               fill: #0A0A0A;
               font-weight: bold;
               }
               text.nonterminal      {font-family: Verdana, Sans-serif; font-style: italic;
               font-size: 12px;
               fill: #0D0D0D;
               }
               text.regexp           {font-family: Verdana, Sans-serif;
               font-size: 12px;
               fill: #0F0F0F;
               }
               rect, circle, polygon {fill: #1F1F1F; stroke: #1F1F1F;}
               rect.terminal         {fill: #CCCCCC; stroke: #1F1F1F;}
               rect.nonterminal      {fill: #E3E3E3; stroke: #1F1F1F;}
               rect.text             {fill: none; stroke: none;}    
               polygon.regexp        {fill: #EFEFEF; stroke: #1F1F1F;}
               
            </style>
         </defs>
         <polygon points="9 17 1 13 1 21"/>
         <polygon points="17 17 9 13 9 21"/>
         <rect x="31" y="3" width="82" height="32" rx="10"/>
         <rect x="29" y="1" width="82" height="32" class="terminal" rx="10"/>
         <text class="terminal" x="39" y="21">NUMERIC</text>
         <rect x="153" y="3" width="68" height="32" rx="10"/>
         <rect x="151" y="1" width="68" height="32" class="terminal" rx="10"/>
         <text class="terminal" x="161" y="21">DIGITS</text>
<!--     <a xmlns:xlink="http://www.w3.org/1999/xlink" xlink:href="#expression1" xlink:title="expression1"> -->
            <rect x="261" y="35" width="92" height="32"/>
            <rect x="259" y="33" width="92" height="32" class="nonterminal"/>
            <text class="nonterminal" x="269" y="53">expression1</text>
<!--     </a> -->
         <rect x="153" y="79" width="58" height="32" rx="10"/>
         <rect x="151" y="77" width="58" height="32" class="terminal" rx="10"/>
         <text class="terminal" x="161" y="97">FORM</text>
         <rect x="251" y="111" width="98" height="32" rx="10"/>
         <rect x="249" y="109" width="98" height="32" class="terminal" rx="10"/>
         <text class="terminal" x="259" y="129">SCIENTIFIC</text>
         <rect x="251" y="155" width="114" height="32" rx="10"/>
         <rect x="249" y="153" width="114" height="32" class="terminal" rx="10"/>
         <text class="terminal" x="259" y="173">ENGINEERING</text>
         <rect x="271" y="231" width="64" height="32" rx="10"/>
         <rect x="269" y="229" width="64" height="32" class="terminal" rx="10"/>
         <text class="terminal" x="279" y="249">VALUE</text>
<!--     <a xmlns:xlink="http://www.w3.org/1999/xlink" xlink:href="#expression2" xlink:title="expression2"> -->
            <rect x="375" y="199" width="92" height="32"/>
            <rect x="373" y="197" width="92" height="32" class="nonterminal"/>
            <text class="nonterminal" x="383" y="217">expression2</text>
<!--     </a> -->
         <rect x="153" y="275" width="54" height="32" rx="10"/>
         <rect x="151" y="273" width="54" height="32" class="terminal" rx="10"/>
         <text class="terminal" x="161" y="293">FUZZ</text>
<!--     <a xmlns:xlink="http://www.w3.org/1999/xlink" xlink:href="#expression3" xlink:title="expression3"> -->
            <rect x="247" y="307" width="92" height="32"/>
            <rect x="245" y="305" width="92" height="32" class="nonterminal"/>
            <text class="nonterminal" x="255" y="325">expression3</text>
<!--     </a> -->
         <svg:path xmlns:svg="http://www.w3.org/2000/svg" class="line" d="m17 17 h2 m0 0 h10 m82 0 h10 m20 0 h10 m68 0 h10 m20 0 h10 m0 0 h102 m-132 0 h20 m112 0 h20 m-152 0 q10 0 10 10 m132 0 q0 -10 10 -10 m-142 10 v12 m132 0 v-12 m-132 12 q0 10 10 10 m112 0 q10 0 10 -10 m-122 10 h10 m92 0 h10 m20 -32 h114 m-374 0 h20 m354 0 h20 m-394 0 q10 0 10 10 m374 0 q0 -10 10 -10 m-384 10 v56 m374 0 v-56 m-374 56 q0 10 10 10 m354 0 q10 0 10 -10 m-364 10 h10 m58 0 h10 m20 0 h10 m0 0 h226 m-256 0 h20 m236 0 h20 m-276 0 q10 0 10 10 m256 0 q0 -10 10 -10 m-266 10 v12 m256 0 v-12 m-256 12 q0 10 10 10 m236 0 q10 0 10 -10 m-246 10 h10 m98 0 h10 m0 0 h118 m-246 -10 v20 m256 0 v-20 m-256 20 v24 m256 0 v-24 m-256 24 q0 10 10 10 m236 0 q10 0 10 -10 m-246 10 h10 m114 0 h10 m0 0 h102 m-246 -10 v20 m256 0 v-20 m-256 20 v24 m256 0 v-24 m-256 24 q0 10 10 10 m236 0 q10 0 10 -10 m-226 10 h10 m0 0 h74 m-104 0 h20 m84 0 h20 m-124 0 q10 0 10 10 m104 0 q0 -10 10 -10 m-114 10 v12 m104 0 v-12 m-104 12 q0 10 10 10 m84 0 q10 0 10 -10 m-94 10 h10 m64 0 h10 m20 -32 h10 m92 0 h10 m-344 -130 v20 m374 0 v-20 m-374 20 v176 m374 0 v-176 m-374 176 q0 10 10 10 m354 0 q10 0 10 -10 m-364 10 h10 m54 0 h10 m20 0 h10 m0 0 h102 m-132 0 h20 m112 0 h20 m-152 0 q10 0 10 10 m132 0 q0 -10 10 -10 m-142 10 v12 m132 0 v-12 m-132 12 q0 10 10 10 m112 0 q10 0 10 -10 m-122 10 h10 m92 0 h10 m20 -32 h128 m23 -272 h-3"/>
         <polygon points="525 17 533 13 533 21"/>
         <polygon points="525 17 517 13 517 21"/>
      </svg>
