      <svg xmlns="http://www.w3.org/2000/svg" width="744" height="430">
         <defs>
            <style type="text/css">
               @namespace "http://www.w3.org/2000/svg";
               .line                 {fill: none; stroke: #1F1F1F;}
               .bold-line            {stroke: #0A0A0A; shape-rendering: crispEdges; stroke-width:
               2; }
               .thin-line            {stroke: #0F0F0F; shape-rendering: crispEdges}
               .filled               {fill: #1F1F1F; stroke: none;}
               text.terminal         {font-family: Verdana, Sans-serif;
               font-size: 12px;
               fill: #0A0A0A;
               font-weight: bold;
               }
               text.nonterminal      {font-family: Verdana, Sans-serif; font-style: italic;
               font-size: 12px;
               fill: #0D0D0D;
               }
               text.regexp           {font-family: Verdana, Sans-serif;
               font-size: 12px;
               fill: #0F0F0F;
               }
               rect, circle, polygon {fill: #1F1F1F; stroke: #1F1F1F;}
               rect.terminal         {fill: #CCCCCC; stroke: #1F1F1F;}
               rect.nonterminal      {fill: #E3E3E3; stroke: #1F1F1F;}
               rect.text             {fill: none; stroke: none;}    
               polygon.regexp        {fill: #EFEFEF; stroke: #1F1F1F;}
               
            </style>
         </defs>
         <polygon points="9 17 1 13 1 21"/>
         <polygon points="17 17 9 13 9 21"/>
         <rect x="31" y="3" width="64" height="32" rx="10"/>
         <rect x="29" y="1" width="64" height="32" class="terminal" rx="10"/>
         <text class="terminal" x="39" y="21">PARSE</text>
         <rect x="135" y="35" width="64" height="32" rx="10"/>
         <rect x="133" y="33" width="64" height="32" class="terminal" rx="10"/>
         <text class="terminal" x="143" y="53">UPPER</text>
         <rect x="135" y="79" width="70" height="32" rx="10"/>
         <rect x="133" y="77" width="70" height="32" class="terminal" rx="10"/>
         <text class="terminal" x="143" y="97">LOWER</text>
         <rect x="265" y="35" width="88" height="32" rx="10"/>
         <rect x="263" y="33" width="88" height="32" class="terminal" rx="10"/>
         <text class="terminal" x="273" y="53">CASELESS</text>
         <rect x="413" y="3" width="48" height="32" rx="10"/>
         <rect x="411" y="1" width="48" height="32" class="terminal" rx="10"/>
         <text class="terminal" x="421" y="21">ARG</text>
         <rect x="413" y="47" width="68" height="32" rx="10"/>
         <rect x="411" y="45" width="68" height="32" class="terminal" rx="10"/>
         <text class="terminal" x="421" y="65">LINEIN</text>
         <rect x="413" y="91" width="54" height="32" rx="10"/>
         <rect x="411" y="89" width="54" height="32" class="terminal" rx="10"/>
         <text class="terminal" x="421" y="109">PULL</text>
         <rect x="413" y="135" width="76" height="32" rx="10"/>
         <rect x="411" y="133" width="76" height="32" class="terminal" rx="10"/>
         <text class="terminal" x="421" y="153">SOURCE</text>
         <rect x="413" y="179" width="64" height="32" rx="10"/>
         <rect x="411" y="177" width="64" height="32" class="terminal" rx="10"/>
         <text class="terminal" x="421" y="197">VALUE</text>
<!--     <a xmlns:xlink="http://www.w3.org/1999/xlink" xlink:href="#expression" xlink:title="expression"> -->
            <rect x="517" y="211" width="88" height="32"/>
            <rect x="515" y="209" width="88" height="32" class="nonterminal"/>
            <text class="nonterminal" x="525" y="229">expression</text>
<!--     </a> -->
         <rect x="645" y="179" width="58" height="32" rx="10"/>
         <rect x="643" y="177" width="58" height="32" class="terminal" rx="10"/>
         <text class="terminal" x="653" y="197">WITH</text>
         <rect x="413" y="255" width="46" height="32" rx="10"/>
         <rect x="411" y="253" width="46" height="32" class="terminal" rx="10"/>
         <text class="terminal" x="421" y="273">VAR</text>
<!--     <a xmlns:xlink="http://www.w3.org/1999/xlink" xlink:href="#name" xlink:title="name"> -->
            <rect x="479" y="255" width="54" height="32"/>
            <rect x="477" y="253" width="54" height="32" class="nonterminal"/>
            <text class="nonterminal" x="487" y="273">name</text>
<!--     </a> -->
         <rect x="413" y="299" width="82" height="32" rx="10"/>
         <rect x="411" y="297" width="82" height="32" class="terminal" rx="10"/>
         <text class="terminal" x="421" y="317">VERSION</text>
<!--     <a xmlns:xlink="http://www.w3.org/1999/xlink" xlink:href="#template_list" xlink:title="template_list"> -->
            <rect x="551" y="397" width="102" height="32"/>
            <rect x="549" y="395" width="102" height="32" class="nonterminal"/>
            <text class="nonterminal" x="559" y="415">template_list</text>
<!--     </a> -->
         <rect x="693" y="365" width="24" height="32" rx="10"/>
         <rect x="691" y="363" width="24" height="32" class="terminal" rx="10"/>
         <text class="terminal" x="701" y="383">;</text>
         <svg:path xmlns:svg="http://www.w3.org/2000/svg" class="line" d="m17 17 h2 m0 0 h10 m64 0 h10 m20 0 h10 m0 0 h80 m-110 0 h20 m90 0 h20 m-130 0 q10 0 10 10 m110 0 q0 -10 10 -10 m-120 10 v12 m110 0 v-12 m-110 12 q0 10 10 10 m90 0 q10 0 10 -10 m-100 10 h10 m64 0 h10 m0 0 h6 m-100 -10 v20 m110 0 v-20 m-110 20 v24 m110 0 v-24 m-110 24 q0 10 10 10 m90 0 q10 0 10 -10 m-100 10 h10 m70 0 h10 m40 -76 h10 m0 0 h98 m-128 0 h20 m108 0 h20 m-148 0 q10 0 10 10 m128 0 q0 -10 10 -10 m-138 10 v12 m128 0 v-12 m-128 12 q0 10 10 10 m108 0 q10 0 10 -10 m-118 10 h10 m88 0 h10 m40 -32 h10 m48 0 h10 m0 0 h242 m-330 0 h20 m310 0 h20 m-350 0 q10 0 10 10 m330 0 q0 -10 10 -10 m-340 10 v24 m330 0 v-24 m-330 24 q0 10 10 10 m310 0 q10 0 10 -10 m-320 10 h10 m68 0 h10 m0 0 h222 m-320 -10 v20 m330 0 v-20 m-330 20 v24 m330 0 v-24 m-330 24 q0 10 10 10 m310 0 q10 0 10 -10 m-320 10 h10 m54 0 h10 m0 0 h236 m-320 -10 v20 m330 0 v-20 m-330 20 v24 m330 0 v-24 m-330 24 q0 10 10 10 m310 0 q10 0 10 -10 m-320 10 h10 m76 0 h10 m0 0 h214 m-320 -10 v20 m330 0 v-20 m-330 20 v24 m330 0 v-24 m-330 24 q0 10 10 10 m310 0 q10 0 10 -10 m-320 10 h10 m64 0 h10 m20 0 h10 m0 0 h98 m-128 0 h20 m108 0 h20 m-148 0 q10 0 10 10 m128 0 q0 -10 10 -10 m-138 10 v12 m128 0 v-12 m-128 12 q0 10 10 10 m108 0 q10 0 10 -10 m-118 10 h10 m88 0 h10 m20 -32 h10 m58 0 h10 m-320 -10 v20 m330 0 v-20 m-330 20 v56 m330 0 v-56 m-330 56 q0 10 10 10 m310 0 q10 0 10 -10 m-320 10 h10 m46 0 h10 m0 0 h10 m54 0 h10 m0 0 h170 m-320 -10 v20 m330 0 v-20 m-330 20 v24 m330 0 v-24 m-330 24 q0 10 10 10 m310 0 q10 0 10 -10 m-320 10 h10 m82 0 h10 m0 0 h208 m22 -296 l2 0 m2 0 l2 0 m2 0 l2 0 m-236 362 l2 0 m2 0 l2 0 m2 0 l2 0 m22 0 h10 m0 0 h112 m-142 0 h20 m122 0 h20 m-162 0 q10 0 10 10 m142 0 q0 -10 10 -10 m-152 10 v12 m142 0 v-12 m-142 12 q0 10 10 10 m122 0 q10 0 10 -10 m-132 10 h10 m102 0 h10 m20 -32 h10 m24 0 h10 m3 0 h-3"/>
         <polygon points="735 379 743 375 743 383"/>
         <polygon points="735 379 727 375 727 383"/>
      </svg>
