      <svg xmlns="http://www.w3.org/2000/svg" width="736" height="418">
         <defs>
            <style type="text/css">
               @namespace "http://www.w3.org/2000/svg";
               .line                 {fill: none; stroke: #1F1F1F;}
               .bold-line            {stroke: #0A0A0A; shape-rendering: crispEdges; stroke-width:
               2; }
               .thin-line            {stroke: #0F0F0F; shape-rendering: crispEdges}
               .filled               {fill: #1F1F1F; stroke: none;}
               text.terminal         {font-family: Verdana, Sans-serif;
               font-size: 12px;
               fill: #0A0A0A;
               font-weight: bold;
               }
               text.nonterminal      {font-family: Verdana, Sans-serif; font-style: italic;
               font-size: 12px;
               fill: #0D0D0D;
               }
               text.regexp           {font-family: Verdana, Sans-serif;
               font-size: 12px;
               fill: #0F0F0F;
               }
               rect, circle, polygon {fill: #1F1F1F; stroke: #1F1F1F;}
               rect.terminal         {fill: #CCCCCC; stroke: #1F1F1F;}
               rect.nonterminal      {fill: #E3E3E3; stroke: #1F1F1F;}
               rect.text             {fill: none; stroke: none;}    
               polygon.regexp        {fill: #EFEFEF; stroke: #1F1F1F;}
               
            </style>
         </defs>
         <polygon points="9 17 1 13 1 21"/>
         <polygon points="17 17 9 13 9 21"/>
         <rect x="31" y="3" width="64" height="32" rx="10"/>
         <rect x="29" y="1" width="64" height="32" class="terminal" rx="10"/>
         <text class="terminal" x="39" y="21">PARSE</text>
         <rect x="135" y="35" width="64" height="32" rx="10"/>
         <rect x="133" y="33" width="64" height="32" class="terminal" rx="10"/>
         <text class="terminal" x="143" y="53">UPPER</text>
         <rect x="135" y="79" width="68" height="32" rx="10"/>
         <rect x="133" y="77" width="68" height="32" class="terminal" rx="10"/>
         <text class="terminal" x="143" y="97">LOWER</text>
         <rect x="263" y="35" width="88" height="32" rx="10"/>
         <rect x="261" y="33" width="88" height="32" class="terminal" rx="10"/>
         <text class="terminal" x="271" y="53">CASELESS</text>
         <rect x="411" y="3" width="48" height="32" rx="10"/>
         <rect x="409" y="1" width="48" height="32" class="terminal" rx="10"/>
         <text class="terminal" x="419" y="21">ARG</text>
         <rect x="411" y="47" width="68" height="32" rx="10"/>
         <rect x="409" y="45" width="68" height="32" class="terminal" rx="10"/>
         <text class="terminal" x="419" y="65">LINEIN</text>
         <rect x="411" y="91" width="54" height="32" rx="10"/>
         <rect x="409" y="89" width="54" height="32" class="terminal" rx="10"/>
         <text class="terminal" x="419" y="109">PULL</text>
         <rect x="411" y="135" width="74" height="32" rx="10"/>
         <rect x="409" y="133" width="74" height="32" class="terminal" rx="10"/>
         <text class="terminal" x="419" y="153">SOURCE</text>
         <rect x="411" y="179" width="64" height="32" rx="10"/>
         <rect x="409" y="177" width="64" height="32" class="terminal" rx="10"/>
         <text class="terminal" x="419" y="197">VALUE</text>
<!--     <a xmlns:xlink="http://www.w3.org/1999/xlink" xlink:href="#expression" xlink:title="expression"> -->
            <rect x="515" y="211" width="84" height="32"/>
            <rect x="513" y="209" width="84" height="32" class="nonterminal"/>
            <text class="nonterminal" x="523" y="229">expression</text>
<!--     </a> -->
         <rect x="639" y="179" width="56" height="32" rx="10"/>
         <rect x="637" y="177" width="56" height="32" class="terminal" rx="10"/>
         <text class="terminal" x="647" y="197">WITH</text>
         <rect x="411" y="255" width="48" height="32" rx="10"/>
         <rect x="409" y="253" width="48" height="32" class="terminal" rx="10"/>
         <text class="terminal" x="419" y="273">VAR</text>
<!--     <a xmlns:xlink="http://www.w3.org/1999/xlink" xlink:href="#name" xlink:title="name"> -->
            <rect x="479" y="255" width="54" height="32"/>
            <rect x="477" y="253" width="54" height="32" class="nonterminal"/>
            <text class="nonterminal" x="487" y="273">name</text>
<!--     </a> -->
         <rect x="411" y="299" width="82" height="32" rx="10"/>
         <rect x="409" y="297" width="82" height="32" class="terminal" rx="10"/>
         <text class="terminal" x="419" y="317">VERSION</text>
<!--     <a xmlns:xlink="http://www.w3.org/1999/xlink" xlink:href="#template_list" xlink:title="template_list"> -->
            <rect x="593" y="385" width="96" height="32"/>
            <rect x="591" y="383" width="96" height="32" class="nonterminal"/>
            <text class="nonterminal" x="601" y="403">template_list</text>
<!--     </a> -->
         <svg:path xmlns:svg="http://www.w3.org/2000/svg" class="line" d="m17 17 h2 m0 0 h10 m64 0 h10 m20 0 h10 m0 0 h78 m-108 0 h20 m88 0 h20 m-128 0 q10 0 10 10 m108 0 q0 -10 10 -10 m-118 10 v12 m108 0 v-12 m-108 12 q0 10 10 10 m88 0 q10 0 10 -10 m-98 10 h10 m64 0 h10 m0 0 h4 m-98 -10 v20 m108 0 v-20 m-108 20 v24 m108 0 v-24 m-108 24 q0 10 10 10 m88 0 q10 0 10 -10 m-98 10 h10 m68 0 h10 m40 -76 h10 m0 0 h98 m-128 0 h20 m108 0 h20 m-148 0 q10 0 10 10 m128 0 q0 -10 10 -10 m-138 10 v12 m128 0 v-12 m-128 12 q0 10 10 10 m108 0 q10 0 10 -10 m-118 10 h10 m88 0 h10 m40 -32 h10 m48 0 h10 m0 0 h236 m-324 0 h20 m304 0 h20 m-344 0 q10 0 10 10 m324 0 q0 -10 10 -10 m-334 10 v24 m324 0 v-24 m-324 24 q0 10 10 10 m304 0 q10 0 10 -10 m-314 10 h10 m68 0 h10 m0 0 h216 m-314 -10 v20 m324 0 v-20 m-324 20 v24 m324 0 v-24 m-324 24 q0 10 10 10 m304 0 q10 0 10 -10 m-314 10 h10 m54 0 h10 m0 0 h230 m-314 -10 v20 m324 0 v-20 m-324 20 v24 m324 0 v-24 m-324 24 q0 10 10 10 m304 0 q10 0 10 -10 m-314 10 h10 m74 0 h10 m0 0 h210 m-314 -10 v20 m324 0 v-20 m-324 20 v24 m324 0 v-24 m-324 24 q0 10 10 10 m304 0 q10 0 10 -10 m-314 10 h10 m64 0 h10 m20 0 h10 m0 0 h94 m-124 0 h20 m104 0 h20 m-144 0 q10 0 10 10 m124 0 q0 -10 10 -10 m-134 10 v12 m124 0 v-12 m-124 12 q0 10 10 10 m104 0 q10 0 10 -10 m-114 10 h10 m84 0 h10 m20 -32 h10 m56 0 h10 m-314 -10 v20 m324 0 v-20 m-324 20 v56 m324 0 v-56 m-324 56 q0 10 10 10 m304 0 q10 0 10 -10 m-314 10 h10 m48 0 h10 m0 0 h10 m54 0 h10 m0 0 h162 m-314 -10 v20 m324 0 v-20 m-324 20 v24 m324 0 v-24 m-324 24 q0 10 10 10 m304 0 q10 0 10 -10 m-314 10 h10 m82 0 h10 m0 0 h202 m22 -296 l2 0 m2 0 l2 0 m2 0 l2 0 m-186 350 l2 0 m2 0 l2 0 m2 0 l2 0 m22 0 h10 m0 0 h106 m-136 0 h20 m116 0 h20 m-156 0 q10 0 10 10 m136 0 q0 -10 10 -10 m-146 10 v12 m136 0 v-12 m-136 12 q0 10 10 10 m116 0 q10 0 10 -10 m-126 10 h10 m96 0 h10 m23 -32 h-3"/>
         <polygon points="727 367 735 363 735 371"/>
         <polygon points="727 367 719 363 719 371"/>
      </svg>
