      <svg xmlns="http://www.w3.org/2000/svg" width="936" height="322">
         <defs>
            <style type="text/css">
               @namespace "http://www.w3.org/2000/svg";
               .line                 {fill: none; stroke: #1F1F1F;}
               .bold-line            {stroke: #0A0A0A; shape-rendering: crispEdges; stroke-width:
               2; }
               .thin-line            {stroke: #0F0F0F; shape-rendering: crispEdges}
               .filled               {fill: #1F1F1F; stroke: none;}
               text.terminal         {font-family: Verdana, Sans-serif;
               font-size: 12px;
               fill: #0A0A0A;
               font-weight: bold;
               }
               text.nonterminal      {font-family: Verdana, Sans-serif;
               font-size: 12px;
               fill: #0D0D0D;
               }
               text.regexp           {font-family: Verdana, Sans-serif;
               font-size: 12px;
               fill: #0F0F0F;
               }
               rect, circle, polygon {fill: #1F1F1F; stroke: #1F1F1F;}
               rect.terminal         {fill: #CCCCCC; stroke: #1F1F1F;}
               rect.nonterminal      {fill: #E3E3E3; stroke: #1F1F1F;}
               rect.text             {fill: none; stroke: none;}    
               polygon.regexp        {fill: #EFEFEF; stroke: #1F1F1F;}
               
            </style>
         </defs>
         <polygon points="9 17 1 13 1 21"/>
         <polygon points="17 17 9 13 9 21"/>
         <a xmlns:xlink="http://www.w3.org/1999/xlink" xlink:href="#PARSE" xlink:title="PARSE">
            <rect x="31" y="3" width="60" height="32"/>
            <rect x="29" y="1" width="60" height="32" class="nonterminal"/>
            <text class="nonterminal" x="39" y="21">PARSE</text>
         </a>
         <a xmlns:xlink="http://www.w3.org/1999/xlink" xlink:href="#UPPER" xlink:title="UPPER">
            <rect x="131" y="3" width="60" height="32"/>
            <rect x="129" y="1" width="60" height="32" class="nonterminal"/>
            <text class="nonterminal" x="139" y="21">UPPER</text>
         </a>
         <a xmlns:xlink="http://www.w3.org/1999/xlink" xlink:href="#LOWER" xlink:title="LOWER">
            <rect x="131" y="47" width="66" height="32"/>
            <rect x="129" y="45" width="66" height="32" class="nonterminal"/>
            <text class="nonterminal" x="139" y="65">LOWER</text>
         </a>
         <a xmlns:xlink="http://www.w3.org/1999/xlink" xlink:href="#CASELESS" xlink:title="CASELESS">
            <rect x="257" y="3" width="84" height="32"/>
            <rect x="255" y="1" width="84" height="32" class="nonterminal"/>
            <text class="nonterminal" x="265" y="21">CASELESS</text>
         </a>
         <a xmlns:xlink="http://www.w3.org/1999/xlink" xlink:href="#ARG" xlink:title="ARG">
            <rect x="401" y="3" width="44" height="32"/>
            <rect x="399" y="1" width="44" height="32" class="nonterminal"/>
            <text class="nonterminal" x="409" y="21">ARG</text>
         </a>
         <a xmlns:xlink="http://www.w3.org/1999/xlink" xlink:href="#LINEIN" xlink:title="LINEIN">
            <rect x="401" y="47" width="62" height="32"/>
            <rect x="399" y="45" width="62" height="32" class="nonterminal"/>
            <text class="nonterminal" x="409" y="65">LINEIN</text>
         </a>
         <a xmlns:xlink="http://www.w3.org/1999/xlink" xlink:href="#PULL" xlink:title="PULL">
            <rect x="401" y="91" width="50" height="32"/>
            <rect x="399" y="89" width="50" height="32" class="nonterminal"/>
            <text class="nonterminal" x="409" y="109">PULL</text>
         </a>
         <a xmlns:xlink="http://www.w3.org/1999/xlink" xlink:href="#SOURCE" xlink:title="SOURCE">
            <rect x="401" y="135" width="72" height="32"/>
            <rect x="399" y="133" width="72" height="32" class="nonterminal"/>
            <text class="nonterminal" x="409" y="153">SOURCE</text>
         </a>
         <a xmlns:xlink="http://www.w3.org/1999/xlink" xlink:href="#VALUE" xlink:title="VALUE">
            <rect x="401" y="179" width="60" height="32"/>
            <rect x="399" y="177" width="60" height="32" class="nonterminal"/>
            <text class="nonterminal" x="409" y="197">VALUE</text>
         </a>
         <a xmlns:xlink="http://www.w3.org/1999/xlink" xlink:href="#expression" xlink:title="expression">
            <rect x="501" y="179" width="88" height="32"/>
            <rect x="499" y="177" width="88" height="32" class="nonterminal"/>
            <text class="nonterminal" x="509" y="197">expression</text>
         </a>
         <a xmlns:xlink="http://www.w3.org/1999/xlink" xlink:href="#WITH" xlink:title="WITH">
            <rect x="629" y="179" width="54" height="32"/>
            <rect x="627" y="177" width="54" height="32" class="nonterminal"/>
            <text class="nonterminal" x="637" y="197">WITH</text>
         </a>
         <a xmlns:xlink="http://www.w3.org/1999/xlink" xlink:href="#VAR" xlink:title="VAR">
            <rect x="401" y="245" width="44" height="32"/>
            <rect x="399" y="243" width="44" height="32" class="nonterminal"/>
            <text class="nonterminal" x="409" y="263">VAR</text>
         </a>
         <a xmlns:xlink="http://www.w3.org/1999/xlink" xlink:href="#name" xlink:title="name">
            <rect x="465" y="245" width="54" height="32"/>
            <rect x="463" y="243" width="54" height="32" class="nonterminal"/>
            <text class="nonterminal" x="473" y="263">name</text>
         </a>
         <a xmlns:xlink="http://www.w3.org/1999/xlink" xlink:href="#VERSION" xlink:title="VERSION">
            <rect x="401" y="289" width="76" height="32"/>
            <rect x="399" y="287" width="76" height="32" class="nonterminal"/>
            <text class="nonterminal" x="409" y="307">VERSION</text>
         </a>
         <a xmlns:xlink="http://www.w3.org/1999/xlink" xlink:href="#template_list" xlink:title="template_list">
            <rect x="743" y="3" width="102" height="32"/>
            <rect x="741" y="1" width="102" height="32" class="nonterminal"/>
            <text class="nonterminal" x="751" y="21">template_list</text>
         </a>
         <rect x="885" y="3" width="24" height="32" rx="10"/>
         <rect x="883" y="1" width="24" height="32" class="terminal" rx="10"/>
         <text class="terminal" x="893" y="21">;</text>
         <svg:path xmlns:svg="http://www.w3.org/2000/svg" class="line" d="m17 17 h2 m0 0 h10 m60 0 h10 m20 0 h10 m60 0 h10 m0 0 h6 m-106 0 h20 m86 0 h20 m-126 0 q10 0 10 10 m106 0 q0 -10 10 -10 m-116 10 v24 m106 0 v-24 m-106 24 q0 10 10 10 m86 0 q10 0 10 -10 m-96 10 h10 m66 0 h10 m-96 -10 v20 m106 0 v-20 m-106 20 v14 m106 0 v-14 m-106 14 q0 10 10 10 m86 0 q10 0 10 -10 m-96 10 h10 m0 0 h76 m40 -78 h10 m84 0 h10 m-124 0 h20 m104 0 h20 m-144 0 q10 0 10 10 m124 0 q0 -10 10 -10 m-134 10 v14 m124 0 v-14 m-124 14 q0 10 10 10 m104 0 q10 0 10 -10 m-114 10 h10 m0 0 h94 m40 -34 h10 m44 0 h10 m0 0 h238 m-322 0 h20 m302 0 h20 m-342 0 q10 0 10 10 m322 0 q0 -10 10 -10 m-332 10 v24 m322 0 v-24 m-322 24 q0 10 10 10 m302 0 q10 0 10 -10 m-312 10 h10 m62 0 h10 m0 0 h220 m-312 -10 v20 m322 0 v-20 m-322 20 v24 m322 0 v-24 m-322 24 q0 10 10 10 m302 0 q10 0 10 -10 m-312 10 h10 m50 0 h10 m0 0 h232 m-312 -10 v20 m322 0 v-20 m-322 20 v24 m322 0 v-24 m-322 24 q0 10 10 10 m302 0 q10 0 10 -10 m-312 10 h10 m72 0 h10 m0 0 h210 m-312 -10 v20 m322 0 v-20 m-322 20 v24 m322 0 v-24 m-322 24 q0 10 10 10 m302 0 q10 0 10 -10 m-312 10 h10 m60 0 h10 m20 0 h10 m88 0 h10 m-128 0 h20 m108 0 h20 m-148 0 q10 0 10 10 m128 0 q0 -10 10 -10 m-138 10 v14 m128 0 v-14 m-128 14 q0 10 10 10 m108 0 q10 0 10 -10 m-118 10 h10 m0 0 h98 m20 -34 h10 m54 0 h10 m-312 -10 v20 m322 0 v-20 m-322 20 v46 m322 0 v-46 m-322 46 q0 10 10 10 m302 0 q10 0 10 -10 m-312 10 h10 m44 0 h10 m0 0 h10 m54 0 h10 m0 0 h164 m-312 -10 v20 m322 0 v-20 m-322 20 v24 m322 0 v-24 m-322 24 q0 10 10 10 m302 0 q10 0 10 -10 m-312 10 h10 m76 0 h10 m0 0 h206 m40 -286 h10 m102 0 h10 m-142 0 h20 m122 0 h20 m-162 0 q10 0 10 10 m142 0 q0 -10 10 -10 m-152 10 v14 m142 0 v-14 m-142 14 q0 10 10 10 m122 0 q10 0 10 -10 m-132 10 h10 m0 0 h112 m20 -34 h10 m24 0 h10 m3 0 h-3"/>
         <polygon points="927 17 935 13 935 21"/>
         <polygon points="927 17 919 13 919 21"/>
      </svg>
