<svg xmlns="http://www.w3.org/2000/svg" width="439" height="69">
         <defs>
            <style type="text/css">
    @namespace "http://www.w3.org/2000/svg";
    .line                 {fill: none; stroke: #1F1F1F;}
    .bold-line            {stroke: #0A0A0A; shape-rendering: crispEdges; stroke-width: 2; }
    .thin-line            {stroke: #0F0F0F; shape-rendering: crispEdges}
    .filled               {fill: #1F1F1F; stroke: none;}
    text.terminal         {font-family: Verdana, Sans-serif;
                            font-size: 12px;
                            fill: #0A0A0A;
                            font-weight: bold;
                          }
    text.nonterminal      {font-family: Verdana, Sans-serif; font-style: italic;
                            font-size: 12px;
                            fill: #0D0D0D;
                            font-weight: normal;
                          }
    text.regexp           {font-family: Verdana, Sans-serif;
                            font-size: 12px;
                            fill: #0F0F0F;
                            font-weight: normal;
                          }
    rect, circle, polygon {fill: #1F1F1F; stroke: #1F1F1F;}
    rect.terminal         {fill: #CCCCCC; stroke: #1F1F1F;}
    rect.nonterminal      {fill: #E3E3E3; stroke: #1F1F1F;}
    rect.text             {fill: none; stroke: none;}    
    polygon.regexp        {fill: #EFEFEF; stroke: #1F1F1F;}
  </style>
         </defs>
         <polygon points="9 17 1 13 1 21"/>
         <polygon points="17 17 9 13 9 21"/>
         <rect x="31" y="3" width="64" height="32" rx="10"/>
         <rect x="29" y="1" width="64" height="32" class="terminal" rx="10"/>
         <text class="terminal" x="39" y="21">PARSE</text>
         <rect x="115" y="3" width="64" height="32" rx="10"/>
         <rect x="113" y="1" width="64" height="32" class="terminal" rx="10"/>
         <text class="terminal" x="123" y="21">UPPER</text>
         <rect x="199" y="3" width="48" height="32" rx="10"/>
         <rect x="197" y="1" width="48" height="32" class="terminal" rx="10"/>
         <text class="terminal" x="207" y="21">ARG</text>
<!--  <a xmlns:xlink="http://www.w3.org/1999/xlink" xlink:href="#template_list" xlink:title="template_list"> -->
            <rect x="287" y="35" width="104" height="32"/>
            <rect x="285" y="33" width="104" height="32" class="nonterminal"/>
            <text class="nonterminal" x="295" y="53">template_list</text><!-- </a> -->
<svg:path xmlns:svg="http://www.w3.org/2000/svg" class="line" d="m17 17 h2 m0 0 h10 m64 0 h10 m0 0 h10 m64 0 h10 m0 0 h10 m48 0 h10 m20 0 h10 m0 0 h114 m-144 0 h20 m124 0 h20 m-164 0 q10 0 10 10 m144 0 q0 -10 10 -10 m-154 10 v12 m144 0 v-12 m-144 12 q0 10 10 10 m124 0 q10 0 10 -10 m-134 10 h10 m104 0 h10 m23 -32 h-3"/>
         <polygon points="429 17 437 13 437 21"/>
         <polygon points="429 17 421 13 421 21"/></svg>
