      <svg xmlns="http://www.w3.org/2000/svg" width="486" height="52">
         <defs>
            <style type="text/css">
               @namespace "http://www.w3.org/2000/svg";
               .line                 {fill: none; stroke: #1F1F1F;}
               .bold-line            {stroke: #0A0A0A; shape-rendering: crispEdges; stroke-width:
               2; }
               .thin-line            {stroke: #0F0F0F; shape-rendering: crispEdges}
               .filled               {fill: #1F1F1F; stroke: none;}
               text.terminal         {font-family: Verdana, Sans-serif;
               font-size: 12px;
               fill: #0A0A0A;
               font-weight: bold;
               }
               text.nonterminal      {font-family: Verdana, Sans-serif; font-style: italic;
               font-size: 12px;
               fill: #0D0D0D;
               }
               text.regexp           {font-family: Verdana, Sans-serif;
               font-size: 12px;
               fill: #0F0F0F;
               }
               rect, circle, polygon {fill: #1F1F1F; stroke: #1F1F1F;}
               rect.terminal         {fill: #CCCCCC; stroke: #1F1F1F;}
               rect.nonterminal      {fill: #E3E3E3; stroke: #1F1F1F;}
               rect.text             {fill: none; stroke: none;}    
               polygon.regexp        {fill: #EFEFEF; stroke: #1F1F1F;}
               
            </style>
         </defs>
         <polygon points="9 17 1 13 1 21"/>
         <polygon points="17 17 9 13 9 21"/>
         <rect x="31" y="3" width="64" height="32" rx="10"/>
         <rect x="29" y="1" width="64" height="32" class="terminal" rx="10"/>
         <text class="terminal" x="39" y="21">PARSE</text>
         <rect x="115" y="3" width="64" height="32" rx="10"/>
         <rect x="113" y="1" width="64" height="32" class="terminal" rx="10"/>
         <text class="terminal" x="123" y="21">UPPER</text>
         <rect x="199" y="3" width="54" height="32" rx="10"/>
         <rect x="197" y="1" width="54" height="32" class="terminal" rx="10"/>
         <text class="terminal" x="207" y="21">PULL</text>
<!--     <a xmlns:xlink="http://www.w3.org/1999/xlink" xlink:href="#template_list" xlink:title="template_list"> -->
            <rect x="293" y="3" width="102" height="32"/>
            <rect x="291" y="1" width="102" height="32" class="nonterminal"/>
            <text class="nonterminal" x="301" y="21">template_list</text>
<!--     </a> -->
         <rect x="435" y="3" width="24" height="32" rx="10"/>
         <rect x="433" y="1" width="24" height="32" class="terminal" rx="10"/>
         <text class="terminal" x="443" y="21">;</text>
         <svg:path xmlns:svg="http://www.w3.org/2000/svg" class="line" d="m17 17 h2 m0 0 h10 m64 0 h10 m0 0 h10 m64 0 h10 m0 0 h10 m54 0 h10 m20 0 h10 m102 0 h10 m-142 0 h20 m122 0 h20 m-162 0 q10 0 10 10 m142 0 q0 -10 10 -10 m-152 10 v14 m142 0 v-14 m-142 14 q0 10 10 10 m122 0 q10 0 10 -10 m-132 10 h10 m0 0 h112 m20 -34 h10 m24 0 h10 m3 0 h-3"/>
         <polygon points="477 17 485 13 485 21"/>
         <polygon points="477 17 469 13 469 21"/>
      </svg>
