<svg xmlns="http://www.w3.org/2000/svg" width="545" height="113">
         <defs>
            <style type="text/css">
    @namespace "http://www.w3.org/2000/svg";
    .line                 {fill: none; stroke: #1F1F1F; stroke-width: 1;}
    .bold-line            {stroke: #0A0A0A; shape-rendering: crispEdges; stroke-width: 2;}
    .thin-line            {stroke: #0F0F0F; shape-rendering: crispEdges}
    .filled               {fill: #1F1F1F; stroke: none;}
    text.terminal         {font-family: Verdana, Sans-serif;
                            font-size: 12px;
                            fill: #0A0A0A;
                            font-weight: bold;
                          }
    text.nonterminal      {font-family: Verdana, Sans-serif; font-style: italic;
                            font-size: 12px;
                            fill: #0D0D0D;
                            font-weight: normal;
                          }
    text.regexp           {font-family: Verdana, Sans-serif;
                            font-size: 12px;
                            fill: #0F0F0F;
                            font-weight: normal;
                          }
    rect, circle, polygon {fill: #1F1F1F; stroke: #1F1F1F;}
    rect.terminal         {fill: #cccccc; stroke: #1F1F1F; stroke-width: 1;}
    rect.nonterminal      {fill: #E3E3E3; stroke: #1F1F1F; stroke-width: 1;}
    rect.text             {fill: none; stroke: none;}
    polygon.regexp        {fill: #EFEFEF; stroke: #1F1F1F; stroke-width: 1;}
  </style>
         </defs>
         <polygon points="9 33 1 29 1 37"/>
         <polygon points="17 33 9 29 9 37"/>
         <rect x="31" y="19" width="104" height="32" rx="10"/>
         <rect x="29" y="17" width="104" height="32" class="terminal" rx="10"/>
         <text class="terminal" x="39" y="37">PROCEDURE</text>
         <rect x="175" y="19" width="74" height="32" rx="10"/>
         <rect x="173" y="17" width="74" height="32" class="terminal" rx="10"/>
         <text class="terminal" x="183" y="37">EXPOSE</text>
<!--  <a xmlns:xlink="http://www.w3.org/1999/xlink" xlink:href="#name" xlink:title="name"> -->
            <rect x="309" y="19" width="56" height="32"/>
            <rect x="307" y="17" width="56" height="32" class="nonterminal"/>
            <text class="nonterminal" x="317" y="37">name</text><!-- </a> -->
<rect x="309" y="63" width="26" height="32" rx="10"/>
         <rect x="307" y="61" width="26" height="32" class="terminal" rx="10"/>
         <text class="terminal" x="317" y="81">(</text>
<!--  <a xmlns:xlink="http://www.w3.org/1999/xlink" xlink:href="#name" xlink:title="name"> -->
            <rect x="355" y="63" width="56" height="32"/>
            <rect x="353" y="61" width="56" height="32" class="nonterminal"/>
            <text class="nonterminal" x="363" y="81">name</text><!-- </a> -->
<rect x="431" y="63" width="26" height="32" rx="10"/>
         <rect x="429" y="61" width="26" height="32" class="terminal" rx="10"/>
         <text class="terminal" x="439" y="81">)</text>
         <svg:path xmlns:svg="http://www.w3.org/2000/svg" class="line" d="m17 33 h2 m0 0 h10 m104 0 h10 m20 0 h10 m74 0 h10 m40 0 h10 m56 0 h10 m0 0 h92 m-188 0 h20 m168 0 h20 m-208 0 q10 0 10 10 m188 0 q0 -10 10 -10 m-198 10 v24 m188 0 v-24 m-188 24 q0 10 10 10 m168 0 q10 0 10 -10 m-178 10 h10 m26 0 h10 m0 0 h10 m56 0 h10 m0 0 h10 m26 0 h10 m-208 -44 l20 0 m-1 0 q-9 0 -9 -10 l0 -12 q0 -10 10 -10 m208 32 l20 0 m-20 0 q10 0 10 -10 l0 -12 q0 -10 -10 -10 m-208 0 h10 m0 0 h198 m-342 32 h20 m342 0 h20 m-382 0 q10 0 10 10 m362 0 q0 -10 10 -10 m-372 10 v58 m362 0 v-58 m-362 58 q0 10 10 10 m342 0 q10 0 10 -10 m-352 10 h10 m0 0 h332 m23 -78 h-3"/>
         <polygon points="535 33 543 29 543 37"/>
         <polygon points="535 33 527 29 527 37"/></svg>
