      <svg xmlns="http://www.w3.org/2000/svg" width="524" height="256">
         <defs>
            <style type="text/css">
               @namespace "http://www.w3.org/2000/svg";
               .line                 {fill: none; stroke: #1F1F1F;}
               .bold-line            {stroke: #0A0A0A; shape-rendering: crispEdges; stroke-width:
               2; }
               .thin-line            {stroke: #0F0F0F; shape-rendering: crispEdges}
               .filled               {fill: #1F1F1F; stroke: none;}
               text.terminal         {font-family: Verdana, Sans-serif;
               font-size: 12px;
               fill: #0A0A0A;
               font-weight: bold;
               }
               text.nonterminal      {font-family: Verdana, Sans-serif;
               font-size: 12px;
               fill: #0D0D0D;
               }
               text.regexp           {font-family: Verdana, Sans-serif;
               font-size: 12px;
               fill: #0F0F0F;
               }
               rect, circle, polygon {fill: #1F1F1F; stroke: #1F1F1F;}
               rect.terminal         {fill: #CCCCCC; stroke: #1F1F1F;}
               rect.nonterminal      {fill: #E3E3E3; stroke: #1F1F1F;}
               rect.text             {fill: none; stroke: none;}    
               polygon.regexp        {fill: #EFEFEF; stroke: #1F1F1F;}
               
            </style>
         </defs>
         <polygon points="9 17 1 13 1 21"/>
         <polygon points="17 17 9 13 9 21"/>
         <a xmlns:xlink="http://www.w3.org/1999/xlink" xlink:href="#RAISR" xlink:title="RAISR">
            <rect x="31" y="3" width="56" height="32"/>
            <rect x="29" y="1" width="56" height="32" class="nonterminal"/>
            <text class="nonterminal" x="39" y="21">RAISR</text>
         </a>
         <a xmlns:xlink="http://www.w3.org/1999/xlink" xlink:href="#condition" xlink:title="condition">
            <rect x="127" y="3" width="76" height="32"/>
            <rect x="125" y="1" width="76" height="32" class="nonterminal"/>
            <text class="nonterminal" x="135" y="21">condition</text>
         </a>
         <a xmlns:xlink="http://www.w3.org/1999/xlink" xlink:href="#ERROR" xlink:title="ERROR">
            <rect x="127" y="47" width="62" height="32"/>
            <rect x="125" y="45" width="62" height="32" class="nonterminal"/>
            <text class="nonterminal" x="135" y="65">ERROR</text>
         </a>
         <a xmlns:xlink="http://www.w3.org/1999/xlink" xlink:href="#errorcode" xlink:title="errorcode">
            <rect x="209" y="47" width="80" height="32"/>
            <rect x="207" y="45" width="80" height="32" class="nonterminal"/>
            <text class="nonterminal" x="217" y="65">errorcode</text>
         </a>
         <a xmlns:xlink="http://www.w3.org/1999/xlink" xlink:href="#FAILURE" xlink:title="FAILURE">
            <rect x="127" y="91" width="72" height="32"/>
            <rect x="125" y="89" width="72" height="32" class="nonterminal"/>
            <text class="nonterminal" x="135" y="109">FAILURE</text>
         </a>
         <a xmlns:xlink="http://www.w3.org/1999/xlink" xlink:href="#failurecode" xlink:title="failurecode">
            <rect x="219" y="91" width="88" height="32"/>
            <rect x="217" y="89" width="88" height="32" class="nonterminal"/>
            <text class="nonterminal" x="227" y="109">failurecode</text>
         </a>
         <a xmlns:xlink="http://www.w3.org/1999/xlink" xlink:href="#SYNTAX" xlink:title="SYNTAX">
            <rect x="127" y="135" width="66" height="32"/>
            <rect x="125" y="133" width="66" height="32" class="nonterminal"/>
            <text class="nonterminal" x="135" y="153">SYNTAX</text>
         </a>
         <a xmlns:xlink="http://www.w3.org/1999/xlink" xlink:href="#number" xlink:title="number">
            <rect x="213" y="135" width="68" height="32"/>
            <rect x="211" y="133" width="68" height="32" class="nonterminal"/>
            <text class="nonterminal" x="221" y="153">number</text>
         </a>
         <a xmlns:xlink="http://www.w3.org/1999/xlink" xlink:href="#USER" xlink:title="USER">
            <rect x="127" y="179" width="52" height="32"/>
            <rect x="125" y="177" width="52" height="32" class="nonterminal"/>
            <text class="nonterminal" x="135" y="197">USER</text>
         </a>
         <a xmlns:xlink="http://www.w3.org/1999/xlink" xlink:href="#usercondition" xlink:title="usercondition">
            <rect x="199" y="179" width="104" height="32"/>
            <rect x="197" y="177" width="104" height="32" class="nonterminal"/>
            <text class="nonterminal" x="207" y="197">usercondition</text>
         </a>
         <a xmlns:xlink="http://www.w3.org/1999/xlink" xlink:href="#PRPOAGATE" xlink:title="PRPOAGATE">
            <rect x="127" y="223" width="94" height="32"/>
            <rect x="125" y="221" width="94" height="32" class="nonterminal"/>
            <text class="nonterminal" x="135" y="241">PRPOAGATE</text>
         </a>
         <a xmlns:xlink="http://www.w3.org/1999/xlink" xlink:href="#options" xlink:title="options">
            <rect x="367" y="3" width="66" height="32"/>
            <rect x="365" y="1" width="66" height="32" class="nonterminal"/>
            <text class="nonterminal" x="375" y="21">options</text>
         </a>
         <rect x="473" y="3" width="24" height="32" rx="10"/>
         <rect x="471" y="1" width="24" height="32" class="terminal" rx="10"/>
         <text class="terminal" x="481" y="21">;</text>
         <svg:path xmlns:svg="http://www.w3.org/2000/svg" class="line" d="m17 17 h2 m0 0 h10 m56 0 h10 m20 0 h10 m76 0 h10 m0 0 h104 m-220 0 h20 m200 0 h20 m-240 0 q10 0 10 10 m220 0 q0 -10 10 -10 m-230 10 v24 m220 0 v-24 m-220 24 q0 10 10 10 m200 0 q10 0 10 -10 m-210 10 h10 m62 0 h10 m0 0 h10 m80 0 h10 m0 0 h18 m-210 -10 v20 m220 0 v-20 m-220 20 v24 m220 0 v-24 m-220 24 q0 10 10 10 m200 0 q10 0 10 -10 m-210 10 h10 m72 0 h10 m0 0 h10 m88 0 h10 m-210 -10 v20 m220 0 v-20 m-220 20 v24 m220 0 v-24 m-220 24 q0 10 10 10 m200 0 q10 0 10 -10 m-210 10 h10 m66 0 h10 m0 0 h10 m68 0 h10 m0 0 h26 m-210 -10 v20 m220 0 v-20 m-220 20 v24 m220 0 v-24 m-220 24 q0 10 10 10 m200 0 q10 0 10 -10 m-210 10 h10 m52 0 h10 m0 0 h10 m104 0 h10 m0 0 h4 m-210 -10 v20 m220 0 v-20 m-220 20 v24 m220 0 v-24 m-220 24 q0 10 10 10 m200 0 q10 0 10 -10 m-210 10 h10 m94 0 h10 m0 0 h86 m40 -220 h10 m66 0 h10 m-106 0 h20 m86 0 h20 m-126 0 q10 0 10 10 m106 0 q0 -10 10 -10 m-116 10 v14 m106 0 v-14 m-106 14 q0 10 10 10 m86 0 q10 0 10 -10 m-96 10 h10 m0 0 h76 m20 -34 h10 m24 0 h10 m3 0 h-3"/>
         <polygon points="515 17 523 13 523 21"/>
         <polygon points="515 17 507 13 507 21"/>
      </svg>
