      <svg xmlns="http://www.w3.org/2000/svg" width="650" height="356">
         <defs>
            <style type="text/css">
               @namespace "http://www.w3.org/2000/svg";
               .line                 {fill: none; stroke: #1F1F1F;}
               .bold-line            {stroke: #0A0A0A; shape-rendering: crispEdges; stroke-width:
               2; }
               .thin-line            {stroke: #0F0F0F; shape-rendering: crispEdges}
               .filled               {fill: #1F1F1F; stroke: none;}
               text.terminal         {font-family: Verdana, Sans-serif;
               font-size: 12px;
               fill: #0A0A0A;
               font-weight: bold;
               }
               text.nonterminal      {font-family: Verdana, Sans-serif; font-style: italic;
               font-size: 12px;
               fill: #0D0D0D;
               }
               text.regexp           {font-family: Verdana, Sans-serif;
               font-size: 12px;
               fill: #0F0F0F;
               }
               rect, circle, polygon {fill: #1F1F1F; stroke: #1F1F1F;}
               rect.terminal         {fill: #CCCCCC; stroke: #1F1F1F;}
               rect.nonterminal      {fill: #E3E3E3; stroke: #1F1F1F;}
               rect.text             {fill: none; stroke: none;}    
               polygon.regexp        {fill: #EFEFEF; stroke: #1F1F1F;}
               
            </style>
         </defs>
         <polygon points="9 61 1 57 1 65"/>
         <polygon points="17 61 9 57 9 65"/>
         <rect x="51" y="47" width="66" height="32" rx="10"/>
         <rect x="49" y="45" width="66" height="32" class="terminal" rx="10"/>
         <text class="terminal" x="59" y="65">ARRAY</text>
         <rect x="137" y="47" width="26" height="32" rx="10"/>
         <rect x="135" y="45" width="26" height="32" class="terminal" rx="10"/>
         <text class="terminal" x="145" y="65">(</text>
<!--     <a xmlns:xlink="http://www.w3.org/1999/xlink" xlink:href="#expri" xlink:title="expri"> -->
            <rect x="223" y="47" width="50" height="32"/>
            <rect x="221" y="45" width="50" height="32" class="nonterminal"/>
            <text class="nonterminal" x="231" y="65">expri</text>
<!--     </a> -->
         <rect x="223" y="3" width="24" height="32" rx="10"/>
         <rect x="221" y="1" width="24" height="32" class="terminal" rx="10"/>
         <text class="terminal" x="231" y="21">,</text>
         <rect x="333" y="47" width="26" height="32" rx="10"/>
         <rect x="331" y="45" width="26" height="32" class="terminal" rx="10"/>
         <text class="terminal" x="341" y="65">)</text>
         <rect x="51" y="113" width="106" height="32" rx="10"/>
         <rect x="49" y="111" width="106" height="32" class="terminal" rx="10"/>
         <text class="terminal" x="59" y="131">ADDITIONAL</text>
<!--     <a xmlns:xlink="http://www.w3.org/1999/xlink" xlink:href="#expra" xlink:title="expra"> -->
            <rect x="177" y="113" width="56" height="32"/>
            <rect x="175" y="111" width="56" height="32" class="nonterminal"/>
            <text class="nonterminal" x="185" y="131">expra</text>
<!--     </a> -->
         <rect x="419" y="79" width="114" height="32" rx="10"/>
         <rect x="417" y="77" width="114" height="32" class="terminal" rx="10"/>
         <text class="terminal" x="427" y="97">DESCRIPTION</text>
<!--     <a xmlns:xlink="http://www.w3.org/1999/xlink" xlink:href="#exprd" xlink:title="exprd"> -->
            <rect x="553" y="79" width="56" height="32"/>
            <rect x="551" y="77" width="56" height="32" class="nonterminal"/>
            <text class="nonterminal" x="561" y="97">exprd</text>
<!--     </a> -->
         <rect x="417" y="215" width="50" height="32" rx="10"/>
         <rect x="415" y="213" width="50" height="32" class="terminal" rx="10"/>
         <text class="terminal" x="425" y="233">EXIT</text>
<!--     <a xmlns:xlink="http://www.w3.org/1999/xlink" xlink:href="#expre" xlink:title="expre"> -->
            <rect x="507" y="247" width="56" height="32"/>
            <rect x="505" y="245" width="56" height="32" class="nonterminal"/>
            <text class="nonterminal" x="515" y="265">expre</text>
<!--     </a> -->
         <rect x="417" y="291" width="74" height="32" rx="10"/>
         <rect x="415" y="289" width="74" height="32" class="terminal" rx="10"/>
         <text class="terminal" x="425" y="309">RETURN</text>
<!--     <a xmlns:xlink="http://www.w3.org/1999/xlink" xlink:href="#exprr" xlink:title="exprr"> -->
            <rect x="531" y="323" width="52" height="32"/>
            <rect x="529" y="321" width="52" height="32" class="nonterminal"/>
            <text class="nonterminal" x="539" y="341">exprr</text>
<!--     </a> -->
         <svg:path xmlns:svg="http://www.w3.org/2000/svg" class="line" d="m17 61 h2 m20 0 h10 m66 0 h10 m0 0 h10 m26 0 h10 m40 0 h10 m50 0 h10 m-90 0 l20 0 m-1 0 q-9 0 -9 -10 l0 -24 q0 -10 10 -10 m70 44 l20 0 m-20 0 q10 0 10 -10 l0 -24 q0 -10 -10 -10 m-70 0 h10 m24 0 h10 m0 0 h26 m-110 44 h20 m110 0 h20 m-150 0 q10 0 10 10 m130 0 q0 -10 10 -10 m-140 10 v14 m130 0 v-14 m-130 14 q0 10 10 10 m110 0 q10 0 10 -10 m-120 10 h10 m0 0 h100 m20 -34 h10 m26 0 h10 m-348 0 h20 m328 0 h20 m-368 0 q10 0 10 10 m348 0 q0 -10 10 -10 m-358 10 v46 m348 0 v-46 m-348 46 q0 10 10 10 m328 0 q10 0 10 -10 m-338 10 h10 m106 0 h10 m0 0 h10 m56 0 h10 m0 0 h126 m-338 -10 v20 m348 0 v-20 m-348 20 v14 m348 0 v-14 m-348 14 q0 10 10 10 m328 0 q10 0 10 -10 m-338 10 h10 m0 0 h318 m40 -100 h10 m0 0 h200 m-230 0 h20 m210 0 h20 m-250 0 q10 0 10 10 m230 0 q0 -10 10 -10 m-240 10 v12 m230 0 v-12 m-230 12 q0 10 10 10 m210 0 q10 0 10 -10 m-220 10 h10 m114 0 h10 m0 0 h10 m56 0 h10 m22 -32 l2 0 m2 0 l2 0 m2 0 l2 0 m-276 136 l2 0 m2 0 l2 0 m2 0 l2 0 m22 0 h10 m0 0 h196 m-226 0 h20 m206 0 h20 m-246 0 q10 0 10 10 m226 0 q0 -10 10 -10 m-236 10 v12 m226 0 v-12 m-226 12 q0 10 10 10 m206 0 q10 0 10 -10 m-216 10 h10 m50 0 h10 m20 0 h10 m0 0 h66 m-96 0 h20 m76 0 h20 m-116 0 q10 0 10 10 m96 0 q0 -10 10 -10 m-106 10 v12 m96 0 v-12 m-96 12 q0 10 10 10 m76 0 q10 0 10 -10 m-86 10 h10 m56 0 h10 m20 -32 h20 m-216 -10 v20 m226 0 v-20 m-226 20 v56 m226 0 v-56 m-226 56 q0 10 10 10 m206 0 q10 0 10 -10 m-216 10 h10 m74 0 h10 m20 0 h10 m0 0 h62 m-92 0 h20 m72 0 h20 m-112 0 q10 0 10 10 m92 0 q0 -10 10 -10 m-102 10 v12 m92 0 v-12 m-92 12 q0 10 10 10 m72 0 q10 0 10 -10 m-82 10 h10 m52 0 h10 m43 -140 h-3"/>
         <polygon points="641 197 649 193 649 201"/>
         <polygon points="641 197 633 193 633 201"/>
      </svg>
