      <svg xmlns="http://www.w3.org/2000/svg" width="584" height="476">
         <defs>
            <style type="text/css">
               @namespace "http://www.w3.org/2000/svg";
               .line                 {fill: none; stroke: #1F1F1F;}
               .bold-line            {stroke: #0A0A0A; shape-rendering: crispEdges; stroke-width:
               2; }
               .thin-line            {stroke: #0F0F0F; shape-rendering: crispEdges}
               .filled               {fill: #1F1F1F; stroke: none;}
               text.terminal         {font-family: Verdana, Sans-serif;
               font-size: 12px;
               fill: #0A0A0A;
               font-weight: bold;
               }
               text.nonterminal      {font-family: Verdana, Sans-serif; font-style: italic;
               font-size: 12px;
               fill: #0D0D0D;
               }
               text.regexp           {font-family: Verdana, Sans-serif;
               font-size: 12px;
               fill: #0F0F0F;
               }
               rect, circle, polygon {fill: #1F1F1F; stroke: #1F1F1F;}
               rect.terminal         {fill: #CCCCCC; stroke: #1F1F1F;}
               rect.nonterminal      {fill: #E3E3E3; stroke: #1F1F1F;}
               rect.text             {fill: none; stroke: none;}    
               polygon.regexp        {fill: #EFEFEF; stroke: #1F1F1F;}
               
            </style>
         </defs>
         <polygon points="9 17 1 13 1 21"/>
         <polygon points="17 17 9 13 9 21"/>
         <rect x="31" y="3" width="60" height="32" rx="10"/>
         <rect x="29" y="1" width="60" height="32" class="terminal" rx="10"/>
         <text class="terminal" x="39" y="21">RAISE</text>
         <rect x="131" y="3" width="66" height="32" rx="10"/>
         <rect x="129" y="1" width="66" height="32" class="terminal" rx="10"/>
         <text class="terminal" x="139" y="21">ERROR</text>
<!--     <a xmlns:xlink="http://www.w3.org/1999/xlink" xlink:href="#errorcode" xlink:title="errorcode"> -->
            <rect x="217" y="3" width="80" height="32"/>
            <rect x="215" y="1" width="80" height="32" class="nonterminal"/>
            <text class="nonterminal" x="225" y="21">errorcode</text>
<!--     </a> -->
         <rect x="131" y="47" width="78" height="32" rx="10"/>
         <rect x="129" y="45" width="78" height="32" class="terminal" rx="10"/>
         <text class="terminal" x="139" y="65">FAILURE</text>
<!--     <a xmlns:xlink="http://www.w3.org/1999/xlink" xlink:href="#failurecode" xlink:title="failurecode"> -->
            <rect x="229" y="47" width="88" height="32"/>
            <rect x="227" y="45" width="88" height="32" class="nonterminal"/>
            <text class="nonterminal" x="237" y="65">failurecode</text>
<!--     </a> -->
         <rect x="131" y="91" width="54" height="32" rx="10"/>
         <rect x="129" y="89" width="54" height="32" class="terminal" rx="10"/>
         <text class="terminal" x="139" y="109">HALT</text>
         <rect x="131" y="135" width="104" height="32" rx="10"/>
         <rect x="129" y="133" width="104" height="32" class="terminal" rx="10"/>
         <text class="terminal" x="139" y="153">LOSTDIGITS</text>
         <rect x="131" y="179" width="98" height="32" rx="10"/>
         <rect x="129" y="177" width="98" height="32" class="terminal" rx="10"/>
         <text class="terminal" x="139" y="197">NOMETHOD</text>
         <rect x="131" y="223" width="92" height="32" rx="10"/>
         <rect x="129" y="221" width="92" height="32" class="terminal" rx="10"/>
         <text class="terminal" x="139" y="241">NOSTRING</text>
         <rect x="131" y="267" width="94" height="32" rx="10"/>
         <rect x="129" y="265" width="94" height="32" class="terminal" rx="10"/>
         <text class="terminal" x="139" y="285">NOTREADY</text>
         <rect x="131" y="311" width="84" height="32" rx="10"/>
         <rect x="129" y="309" width="84" height="32" class="terminal" rx="10"/>
         <text class="terminal" x="139" y="329">NOVALUE</text>
         <rect x="131" y="355" width="74" height="32" rx="10"/>
         <rect x="129" y="353" width="74" height="32" class="terminal" rx="10"/>
         <text class="terminal" x="139" y="373">SYNTAX</text>
<!--     <a xmlns:xlink="http://www.w3.org/1999/xlink" xlink:href="#number" xlink:title="number"> -->
            <rect x="225" y="355" width="68" height="32"/>
            <rect x="223" y="353" width="68" height="32" class="nonterminal"/>
            <text class="nonterminal" x="233" y="373">number</text>
<!--     </a> -->
         <rect x="131" y="399" width="56" height="32" rx="10"/>
         <rect x="129" y="397" width="56" height="32" class="terminal" rx="10"/>
         <text class="terminal" x="139" y="417">USER</text>
<!--     <a xmlns:xlink="http://www.w3.org/1999/xlink" xlink:href="#usercondition" xlink:title="usercondition"> -->
            <rect x="207" y="399" width="104" height="32"/>
            <rect x="205" y="397" width="104" height="32" class="nonterminal"/>
            <text class="nonterminal" x="215" y="417">usercondition</text>
<!--     </a> -->
         <rect x="131" y="443" width="102" height="32" rx="10"/>
         <rect x="129" y="441" width="102" height="32" class="terminal" rx="10"/>
         <text class="terminal" x="139" y="461">PROPAGATE</text>
         <polygon points="357 19 364 3 506 3 513 19 506 35 364 35"/>
         <polygon points="355 17 362 1 504 1 511 17 504 33 362 33" class="regexp"/>
<!--     <a xmlns:xlink="http://www.w3.org/1999/xlink" xlink:href="#OPTIONS" xlink:title="OPTIONS"> -->
            <rect class="text" x="370" y="10" width="56" height="14"/>
            <text class="regexp" x="370" y="21">OPTIONS</text>
<!--     </a> -->
         <text class="regexp" x="431" y="21">- </text>
<!--     <a xmlns:xlink="http://www.w3.org/1999/xlink" xlink:href="#fragment" xlink:title="fragment"> -->
            <rect class="text" x="440" y="10" width="56" height="14"/>
            <text class="regexp" x="440" y="21">fragment</text>
<!--     </a> -->
         <rect x="533" y="3" width="24" height="32" rx="10"/>
         <rect x="531" y="1" width="24" height="32" class="terminal" rx="10"/>
         <text class="terminal" x="541" y="21">;</text>
         <svg:path xmlns:svg="http://www.w3.org/2000/svg" class="line" d="m17 17 h2 m0 0 h10 m60 0 h10 m20 0 h10 m66 0 h10 m0 0 h10 m80 0 h10 m0 0 h20 m-226 0 h20 m206 0 h20 m-246 0 q10 0 10 10 m226 0 q0 -10 10 -10 m-236 10 v24 m226 0 v-24 m-226 24 q0 10 10 10 m206 0 q10 0 10 -10 m-216 10 h10 m78 0 h10 m0 0 h10 m88 0 h10 m-216 -10 v20 m226 0 v-20 m-226 20 v24 m226 0 v-24 m-226 24 q0 10 10 10 m206 0 q10 0 10 -10 m-216 10 h10 m54 0 h10 m0 0 h132 m-216 -10 v20 m226 0 v-20 m-226 20 v24 m226 0 v-24 m-226 24 q0 10 10 10 m206 0 q10 0 10 -10 m-216 10 h10 m104 0 h10 m0 0 h82 m-216 -10 v20 m226 0 v-20 m-226 20 v24 m226 0 v-24 m-226 24 q0 10 10 10 m206 0 q10 0 10 -10 m-216 10 h10 m98 0 h10 m0 0 h88 m-216 -10 v20 m226 0 v-20 m-226 20 v24 m226 0 v-24 m-226 24 q0 10 10 10 m206 0 q10 0 10 -10 m-216 10 h10 m92 0 h10 m0 0 h94 m-216 -10 v20 m226 0 v-20 m-226 20 v24 m226 0 v-24 m-226 24 q0 10 10 10 m206 0 q10 0 10 -10 m-216 10 h10 m94 0 h10 m0 0 h92 m-216 -10 v20 m226 0 v-20 m-226 20 v24 m226 0 v-24 m-226 24 q0 10 10 10 m206 0 q10 0 10 -10 m-216 10 h10 m84 0 h10 m0 0 h102 m-216 -10 v20 m226 0 v-20 m-226 20 v24 m226 0 v-24 m-226 24 q0 10 10 10 m206 0 q10 0 10 -10 m-216 10 h10 m74 0 h10 m0 0 h10 m68 0 h10 m0 0 h24 m-216 -10 v20 m226 0 v-20 m-226 20 v24 m226 0 v-24 m-226 24 q0 10 10 10 m206 0 q10 0 10 -10 m-216 10 h10 m56 0 h10 m0 0 h10 m104 0 h10 m0 0 h6 m-216 -10 v20 m226 0 v-20 m-226 20 v24 m226 0 v-24 m-226 24 q0 10 10 10 m206 0 q10 0 10 -10 m-216 10 h10 m102 0 h10 m0 0 h84 m20 -440 h10 m156 0 h10 m0 0 h10 m24 0 h10 m3 0 h-3"/>
         <polygon points="575 17 583 13 583 21"/>
         <polygon points="575 17 567 13 567 21"/>
      </svg>
