<svg xmlns="http://www.w3.org/2000/svg" width="907" height="165">
         <defs>
            <style type="text/css">
               @namespace "http://www.w3.org/2000/svg";
               .line                 {fill: none; stroke: #1F1F1F;}
               .bold-line            {stroke: #0A0A0A; shape-rendering: crispEdges; stroke-width:
               2; }
               .thin-line            {stroke: #0F0F0F; shape-rendering: crispEdges}
               .filled               {fill: #1F1F1F; stroke: none;}
               text.terminal         {font-family: Verdana, Sans-serif;
               font-size: 12px;
               fill: #0A0A0A;
               font-weight: bold;
               }
               text.nonterminal      {font-family: Verdana, Sans-serif; font-style: italic;
               font-size: 12px;
               fill: #0D0D0D;
               }
               text.regexp           {font-family: Verdana, Sans-serif;
               font-size: 12px;
               fill: #0F0F0F;
               }
               rect, circle, polygon {fill: #1F1F1F; stroke: #1F1F1F;}
               rect.terminal         {fill: #CCCCCC; stroke: #1F1F1F;}
               rect.nonterminal      {fill: #E3E3E3; stroke: #1F1F1F;}
               rect.text             {fill: none; stroke: none;}
               polygon.regexp        {fill: #EFEFEF; stroke: #1F1F1F;}

            </style>
         </defs>

         <polygon points="9 5 1 1 1 9"/>
         <polygon points="17 5 9 1 9 9"/>
         <rect x="51" y="23" width="108" height="32" rx="10"/>
         <rect x="49" y="21" width="108" height="32" class="terminal" rx="10"/>
         <text class="terminal" x="59" y="41">ADDITIONAL</text><a xmlns:xlink="http://www.w3.org/1999/xlink" xlink:href="#expra" xlink:title="expra">
            <rect x="179" y="23" width="56" height="32"/>
            <rect x="177" y="21" width="56" height="32" class="nonterminal"/>
            <text class="nonterminal" x="187" y="41">expra</text></a><rect x="51" y="111" width="66" height="32" rx="10"/>
         <rect x="49" y="109" width="66" height="32" class="terminal" rx="10"/>
         <text class="terminal" x="59" y="129">ARRAY</text>
         <rect x="137" y="111" width="26" height="32" rx="10"/>
         <rect x="135" y="109" width="26" height="32" class="terminal" rx="10"/>
         <text class="terminal" x="145" y="129">(</text><a xmlns:xlink="http://www.w3.org/1999/xlink" xlink:href="#expri" xlink:title="expri">
            <rect x="223" y="111" width="52" height="32"/>
            <rect x="221" y="109" width="52" height="32" class="nonterminal"/>
            <text class="nonterminal" x="231" y="129">expri</text></a><rect x="223" y="67" width="24" height="32" rx="10"/>
         <rect x="221" y="65" width="24" height="32" class="terminal" rx="10"/>
         <text class="terminal" x="231" y="85">,</text>
         <rect x="335" y="111" width="26" height="32" rx="10"/>
         <rect x="333" y="109" width="26" height="32" class="terminal" rx="10"/>
         <text class="terminal" x="343" y="129">)</text>
         <rect x="421" y="23" width="116" height="32" rx="10"/>
         <rect x="419" y="21" width="116" height="32" class="terminal" rx="10"/>
         <text class="terminal" x="429" y="41">DESCRIPTION</text><a xmlns:xlink="http://www.w3.org/1999/xlink" xlink:href="#exprd" xlink:title="exprd">
            <rect x="557" y="23" width="56" height="32"/>
            <rect x="555" y="21" width="56" height="32" class="nonterminal"/>
            <text class="nonterminal" x="565" y="41">exprd</text></a><rect x="673" y="23" width="52" height="32" rx="10"/>
         <rect x="671" y="21" width="52" height="32" class="terminal" rx="10"/>
         <text class="terminal" x="681" y="41">EXIT</text><a xmlns:xlink="http://www.w3.org/1999/xlink" xlink:href="#expre" xlink:title="expre">
            <rect x="765" y="55" width="56" height="32"/>
            <rect x="763" y="53" width="56" height="32" class="nonterminal"/>
            <text class="nonterminal" x="773" y="73">expre</text></a><rect x="673" y="99" width="74" height="32" rx="10"/>
         <rect x="671" y="97" width="74" height="32" class="terminal" rx="10"/>
         <text class="terminal" x="681" y="117">RETURN</text><a xmlns:xlink="http://www.w3.org/1999/xlink" xlink:href="#exprr" xlink:title="exprr">
            <rect x="787" y="131" width="52" height="32"/>
            <rect x="785" y="129" width="52" height="32" class="nonterminal"/>
            <text class="nonterminal" x="795" y="149">exprr</text></a><path class="line" d="m17 5 h2 m20 0 h10 m0 0 h320 m-350 0 h20 m330 0 h20 m-370 0 q10 0 10 10 m350 0 q0 -10 10 -10 m-360 10 v12 m350 0 v-12 m-350 12 q0 10 10 10 m330 0 q10 0 10 -10 m-340 10 h10 m108 0 h10 m0 0 h10 m56 0 h10 m0 0 h126 m-340 -10 v20 m350 0 v-20 m-350 20 v68 m350 0 v-68 m-350 68 q0 10 10 10 m330 0 q10 0 10 -10 m-340 10 h10 m66 0 h10 m0 0 h10 m26 0 h10 m40 0 h10 m52 0 h10 m-92 0 l20 0 m-1 0 q-9 0 -9 -10 l0 -24 q0 -10 10 -10 m72 44 l20 0 m-20 0 q10 0 10 -10 l0 -24 q0 -10 -10 -10 m-72 0 h10 m24 0 h10 m0 0 h28 m-112 44 h20 m112 0 h20 m-152 0 q10 0 10 10 m132 0 q0 -10 10 -10 m-142 10 v14 m132 0 v-14 m-132 14 q0 10 10 10 m112 0 q10 0 10 -10 m-122 10 h10 m0 0 h102 m20 -34 h10 m26 0 h10 m40 -120 h10 m0 0 h202 m-232 0 h20 m212 0 h20 m-252 0 q10 0 10 10 m232 0 q0 -10 10 -10 m-242 10 v12 m232 0 v-12 m-232 12 q0 10 10 10 m212 0 q10 0 10 -10 m-222 10 h10 m116 0 h10 m0 0 h10 m56 0 h10 m40 -32 h10 m0 0 h196 m-226 0 h20 m206 0 h20 m-246 0 q10 0 10 10 m226 0 q0 -10 10 -10 m-236 10 v12 m226 0 v-12 m-226 12 q0 10 10 10 m206 0 q10 0 10 -10 m-216 10 h10 m52 0 h10 m20 0 h10 m0 0 h66 m-96 0 h20 m76 0 h20 m-116 0 q10 0 10 10 m96 0 q0 -10 10 -10 m-106 10 v12 m96 0 v-12 m-96 12 q0 10 10 10 m76 0 q10 0 10 -10 m-86 10 h10 m56 0 h10 m20 -32 h18 m-216 -10 v20 m226 0 v-20 m-226 20 v56 m226 0 v-56 m-226 56 q0 10 10 10 m206 0 q10 0 10 -10 m-216 10 h10 m74 0 h10 m20 0 h10 m0 0 h62 m-92 0 h20 m72 0 h20 m-112 0 q10 0 10 10 m92 0 q0 -10 10 -10 m-102 10 v12 m92 0 v-12 m-92 12 q0 10 10 10 m72 0 q10 0 10 -10 m-82 10 h10 m52 0 h10 m43 -140 h-3"/>
         <polygon points="897 5 905 1 905 9"/>
         <polygon points="897 5 889 1 889 9"/>
</svg>