      <svg xmlns="http://www.w3.org/2000/svg" width="646" height="354">
         <defs>
            <style type="text/css">
               @namespace "http://www.w3.org/2000/svg";
               .line                 {fill: none; stroke: #1F1F1F;}
               .bold-line            {stroke: #0A0A0A; shape-rendering: crispEdges; stroke-width:
               2; }
               .thin-line            {stroke: #0F0F0F; shape-rendering: crispEdges}
               .filled               {fill: #1F1F1F; stroke: none;}
               text.terminal         {font-family: Verdana, Sans-serif;
               font-size: 12px;
               fill: #0A0A0A;
               font-weight: bold;
               }
               text.nonterminal      {font-family: Verdana, Sans-serif; font-style: italic;
               font-size: 12px;
               fill: #0D0D0D;
               }
               text.regexp           {font-family: Verdana, Sans-serif;
               font-size: 12px;
               fill: #0F0F0F;
               }
               rect, circle, polygon {fill: #1F1F1F; stroke: #1F1F1F;}
               rect.terminal         {fill: #CCCCCC; stroke: #1F1F1F;}
               rect.nonterminal      {fill: #E3E3E3; stroke: #1F1F1F;}
               rect.text             {fill: none; stroke: none;}    
               polygon.regexp        {fill: #EFEFEF; stroke: #1F1F1F;}
               
            </style>
         </defs>
         <polygon points="9 5 1 1 1 9"/>
         <polygon points="17 5 9 1 9 9"/>
         <rect x="51" y="23" width="106" height="32" rx="10"/>
         <rect x="49" y="21" width="106" height="32" class="terminal" rx="10"/>
         <text class="terminal" x="59" y="41">ADDITIONAL</text>
<!--     <a xmlns:xlink="http://www.w3.org/1999/xlink" xlink:href="#expra" xlink:title="expra"> -->
            <rect x="177" y="23" width="54" height="32"/>
            <rect x="175" y="21" width="54" height="32" class="nonterminal"/>
            <text class="nonterminal" x="185" y="41">expra</text>
<!--     </a> -->
         <rect x="51" y="111" width="66" height="32" rx="10"/>
         <rect x="49" y="109" width="66" height="32" class="terminal" rx="10"/>
         <text class="terminal" x="59" y="129">ARRAY</text>
         <rect x="137" y="111" width="26" height="32" rx="10"/>
         <rect x="135" y="109" width="26" height="32" class="terminal" rx="10"/>
         <text class="terminal" x="145" y="129">(</text>
<!--     <a xmlns:xlink="http://www.w3.org/1999/xlink" xlink:href="#expri" xlink:title="expri"> -->
            <rect x="223" y="111" width="48" height="32"/>
            <rect x="221" y="109" width="48" height="32" class="nonterminal"/>
            <text class="nonterminal" x="231" y="129">expri</text>
<!--     </a> -->
         <rect x="223" y="67" width="24" height="32" rx="10"/>
         <rect x="221" y="65" width="24" height="32" class="terminal" rx="10"/>
         <text class="terminal" x="231" y="85">,</text>
         <rect x="331" y="111" width="26" height="32" rx="10"/>
         <rect x="329" y="109" width="26" height="32" class="terminal" rx="10"/>
         <text class="terminal" x="339" y="129">)</text>
         <rect x="417" y="23" width="114" height="32" rx="10"/>
         <rect x="415" y="21" width="114" height="32" class="terminal" rx="10"/>
         <text class="terminal" x="425" y="41">DESCRIPTION</text>
<!--     <a xmlns:xlink="http://www.w3.org/1999/xlink" xlink:href="#exprd" xlink:title="exprd"> -->
            <rect x="551" y="23" width="54" height="32"/>
            <rect x="549" y="21" width="54" height="32" class="nonterminal"/>
            <text class="nonterminal" x="559" y="41">exprd</text>
<!--     </a> -->
         <rect x="415" y="213" width="50" height="32" rx="10"/>
         <rect x="413" y="211" width="50" height="32" class="terminal" rx="10"/>
         <text class="terminal" x="423" y="231">EXIT</text>
<!--     <a xmlns:xlink="http://www.w3.org/1999/xlink" xlink:href="#expre" xlink:title="expre"> -->
            <rect x="505" y="245" width="54" height="32"/>
            <rect x="503" y="243" width="54" height="32" class="nonterminal"/>
            <text class="nonterminal" x="513" y="263">expre</text>
<!--     </a> -->
         <rect x="415" y="289" width="74" height="32" rx="10"/>
         <rect x="413" y="287" width="74" height="32" class="terminal" rx="10"/>
         <text class="terminal" x="423" y="307">RETURN</text>
<!--     <a xmlns:xlink="http://www.w3.org/1999/xlink" xlink:href="#exprr" xlink:title="exprr"> -->
            <rect x="529" y="321" width="50" height="32"/>
            <rect x="527" y="319" width="50" height="32" class="nonterminal"/>
            <text class="nonterminal" x="537" y="339">exprr</text>
<!--     </a> -->
         <svg:path xmlns:svg="http://www.w3.org/2000/svg" class="line" d="m17 5 h2 m20 0 h10 m0 0 h316 m-346 0 h20 m326 0 h20 m-366 0 q10 0 10 10 m346 0 q0 -10 10 -10 m-356 10 v12 m346 0 v-12 m-346 12 q0 10 10 10 m326 0 q10 0 10 -10 m-336 10 h10 m106 0 h10 m0 0 h10 m54 0 h10 m0 0 h126 m-336 -10 v20 m346 0 v-20 m-346 20 v68 m346 0 v-68 m-346 68 q0 10 10 10 m326 0 q10 0 10 -10 m-336 10 h10 m66 0 h10 m0 0 h10 m26 0 h10 m40 0 h10 m48 0 h10 m-88 0 l20 0 m-1 0 q-9 0 -9 -10 l0 -24 q0 -10 10 -10 m68 44 l20 0 m-20 0 q10 0 10 -10 l0 -24 q0 -10 -10 -10 m-68 0 h10 m24 0 h10 m0 0 h24 m-108 44 h20 m108 0 h20 m-148 0 q10 0 10 10 m128 0 q0 -10 10 -10 m-138 10 v14 m128 0 v-14 m-128 14 q0 10 10 10 m108 0 q10 0 10 -10 m-118 10 h10 m0 0 h98 m20 -34 h10 m26 0 h10 m40 -120 h10 m0 0 h198 m-228 0 h20 m208 0 h20 m-248 0 q10 0 10 10 m228 0 q0 -10 10 -10 m-238 10 v12 m228 0 v-12 m-228 12 q0 10 10 10 m208 0 q10 0 10 -10 m-218 10 h10 m114 0 h10 m0 0 h10 m54 0 h10 m22 -32 l2 0 m2 0 l2 0 m2 0 l2 0 m-274 190 l2 0 m2 0 l2 0 m2 0 l2 0 m22 0 h10 m0 0 h194 m-224 0 h20 m204 0 h20 m-244 0 q10 0 10 10 m224 0 q0 -10 10 -10 m-234 10 v12 m224 0 v-12 m-224 12 q0 10 10 10 m204 0 q10 0 10 -10 m-214 10 h10 m50 0 h10 m20 0 h10 m0 0 h64 m-94 0 h20 m74 0 h20 m-114 0 q10 0 10 10 m94 0 q0 -10 10 -10 m-104 10 v12 m94 0 v-12 m-94 12 q0 10 10 10 m74 0 q10 0 10 -10 m-84 10 h10 m54 0 h10 m20 -32 h20 m-214 -10 v20 m224 0 v-20 m-224 20 v56 m224 0 v-56 m-224 56 q0 10 10 10 m204 0 q10 0 10 -10 m-214 10 h10 m74 0 h10 m20 0 h10 m0 0 h60 m-90 0 h20 m70 0 h20 m-110 0 q10 0 10 10 m90 0 q0 -10 10 -10 m-100 10 v12 m90 0 v-12 m-90 12 q0 10 10 10 m70 0 q10 0 10 -10 m-80 10 h10 m50 0 h10 m43 -140 h-3"/>
         <polygon points="637 195 645 191 645 199"/>
         <polygon points="637 195 629 191 629 199"/>
      </svg>
