      <svg xmlns="http://www.w3.org/2000/svg" width="752" height="140">
         <defs>
            <style type="text/css">
               @namespace "http://www.w3.org/2000/svg";
               .line                 {fill: none; stroke: #1F1F1F;}
               .bold-line            {stroke: #0A0A0A; shape-rendering: crispEdges; stroke-width:
               2; }
               .thin-line            {stroke: #0F0F0F; shape-rendering: crispEdges}
               .filled               {fill: #1F1F1F; stroke: none;}
               text.terminal         {font-family: Verdana, Sans-serif;
               font-size: 12px;
               fill: #0A0A0A;
               font-weight: bold;
               }
               text.nonterminal      {font-family: Verdana, Sans-serif;
               font-size: 12px;
               fill: #0D0D0D;
               }
               text.regexp           {font-family: Verdana, Sans-serif;
               font-size: 12px;
               fill: #0F0F0F;
               }
               rect, circle, polygon {fill: #1F1F1F; stroke: #1F1F1F;}
               rect.terminal         {fill: #CCCCCC; stroke: #1F1F1F;}
               rect.nonterminal      {fill: #E3E3E3; stroke: #1F1F1F;}
               rect.text             {fill: none; stroke: none;}    
               polygon.regexp        {fill: #EFEFEF; stroke: #1F1F1F;}
               
            </style>
         </defs>
         <polygon points="9 17 1 13 1 21"/>
         <polygon points="17 17 9 13 9 21"/>
         <a xmlns:xlink="http://www.w3.org/1999/xlink" xlink:href="#ADDITIONAL" xlink:title="ADDITIONAL">
            <rect x="51" y="3" width="96" height="32"/>
            <rect x="49" y="1" width="96" height="32" class="nonterminal"/>
            <text class="nonterminal" x="59" y="21">ADDITIONAL</text>
         </a>
         <a xmlns:xlink="http://www.w3.org/1999/xlink" xlink:href="#expra" xlink:title="expra">
            <rect x="167" y="3" width="56" height="32"/>
            <rect x="165" y="1" width="56" height="32" class="nonterminal"/>
            <text class="nonterminal" x="175" y="21">expra</text>
         </a>
         <a xmlns:xlink="http://www.w3.org/1999/xlink" xlink:href="#ARRAY" xlink:title="ARRAY">
            <rect x="51" y="91" width="58" height="32"/>
            <rect x="49" y="89" width="58" height="32" class="nonterminal"/>
            <text class="nonterminal" x="59" y="109">ARRAY</text>
         </a>
         <a xmlns:xlink="http://www.w3.org/1999/xlink" xlink:href="#expri" xlink:title="expri">
            <rect x="149" y="91" width="50" height="32"/>
            <rect x="147" y="89" width="50" height="32" class="nonterminal"/>
            <text class="nonterminal" x="157" y="109">expri</text>
         </a>
         <rect x="149" y="47" width="24" height="32" rx="10"/>
         <rect x="147" y="45" width="24" height="32" class="terminal" rx="10"/>
         <text class="terminal" x="157" y="65">,</text>
         <a xmlns:xlink="http://www.w3.org/1999/xlink" xlink:href="#DESCRIPTION" xlink:title="DESCRIPTION">
            <rect x="283" y="3" width="106" height="32"/>
            <rect x="281" y="1" width="106" height="32" class="nonterminal"/>
            <text class="nonterminal" x="291" y="21">DESCRIPTION</text>
         </a>
         <a xmlns:xlink="http://www.w3.org/1999/xlink" xlink:href="#exprd" xlink:title="exprd">
            <rect x="409" y="3" width="56" height="32"/>
            <rect x="407" y="1" width="56" height="32" class="nonterminal"/>
            <text class="nonterminal" x="417" y="21">exprd</text>
         </a>
         <a xmlns:xlink="http://www.w3.org/1999/xlink" xlink:href="#EXIT" xlink:title="EXIT">
            <rect x="525" y="3" width="48" height="32"/>
            <rect x="523" y="1" width="48" height="32" class="nonterminal"/>
            <text class="nonterminal" x="533" y="21">EXIT</text>
         </a>
         <a xmlns:xlink="http://www.w3.org/1999/xlink" xlink:href="#expre" xlink:title="expre">
            <rect x="613" y="3" width="56" height="32"/>
            <rect x="611" y="1" width="56" height="32" class="nonterminal"/>
            <text class="nonterminal" x="621" y="21">expre</text>
         </a>
         <a xmlns:xlink="http://www.w3.org/1999/xlink" xlink:href="#RETURN" xlink:title="RETURN">
            <rect x="525" y="69" width="68" height="32"/>
            <rect x="523" y="67" width="68" height="32" class="nonterminal"/>
            <text class="nonterminal" x="533" y="87">RETURN</text>
         </a>
         <a xmlns:xlink="http://www.w3.org/1999/xlink" xlink:href="#exprr" xlink:title="exprr">
            <rect x="633" y="69" width="52" height="32"/>
            <rect x="631" y="67" width="52" height="32" class="nonterminal"/>
            <text class="nonterminal" x="641" y="87">exprr</text>
         </a>
         <svg:path xmlns:svg="http://www.w3.org/2000/svg" class="line" d="m17 17 h2 m20 0 h10 m96 0 h10 m0 0 h10 m56 0 h10 m-212 0 h20 m192 0 h20 m-232 0 q10 0 10 10 m212 0 q0 -10 10 -10 m-222 10 v68 m212 0 v-68 m-212 68 q0 10 10 10 m192 0 q10 0 10 -10 m-202 10 h10 m58 0 h10 m20 0 h10 m50 0 h10 m-90 0 l20 0 m-1 0 q-9 0 -9 -10 l0 -24 q0 -10 10 -10 m70 44 l20 0 m-20 0 q10 0 10 -10 l0 -24 q0 -10 -10 -10 m-70 0 h10 m24 0 h10 m0 0 h26 m20 44 h4 m-202 -10 v20 m212 0 v-20 m-212 20 v14 m212 0 v-14 m-212 14 q0 10 10 10 m192 0 q10 0 10 -10 m-202 10 h10 m0 0 h182 m40 -122 h10 m106 0 h10 m0 0 h10 m56 0 h10 m-222 0 h20 m202 0 h20 m-242 0 q10 0 10 10 m222 0 q0 -10 10 -10 m-232 10 v14 m222 0 v-14 m-222 14 q0 10 10 10 m202 0 q10 0 10 -10 m-212 10 h10 m0 0 h192 m40 -34 h10 m48 0 h10 m20 0 h10 m56 0 h10 m-96 0 h20 m76 0 h20 m-116 0 q10 0 10 10 m96 0 q0 -10 10 -10 m-106 10 v14 m96 0 v-14 m-96 14 q0 10 10 10 m76 0 q10 0 10 -10 m-86 10 h10 m0 0 h66 m20 -34 h16 m-220 0 h20 m200 0 h20 m-240 0 q10 0 10 10 m220 0 q0 -10 10 -10 m-230 10 v46 m220 0 v-46 m-220 46 q0 10 10 10 m200 0 q10 0 10 -10 m-210 10 h10 m68 0 h10 m20 0 h10 m52 0 h10 m-92 0 h20 m72 0 h20 m-112 0 q10 0 10 10 m92 0 q0 -10 10 -10 m-102 10 v14 m92 0 v-14 m-92 14 q0 10 10 10 m72 0 q10 0 10 -10 m-82 10 h10 m0 0 h62 m-190 -44 v20 m220 0 v-20 m-220 20 v30 m220 0 v-30 m-220 30 q0 10 10 10 m200 0 q10 0 10 -10 m-210 10 h10 m0 0 h190 m23 -116 h-3"/>
         <polygon points="743 17 751 13 751 21"/>
         <polygon points="743 17 735 13 735 21"/>
      </svg>
