      <svg xmlns="http://www.w3.org/2000/svg" width="646" height="128">
         <defs>
            <style type="text/css">
               @namespace "http://www.w3.org/2000/svg";
               .line                 {fill: none; stroke: #1F1F1F;}
               .bold-line            {stroke: #0A0A0A; shape-rendering: crispEdges; stroke-width:
               2; }
               .thin-line            {stroke: #0F0F0F; shape-rendering: crispEdges}
               .filled               {fill: #1F1F1F; stroke: none;}
               text.terminal         {font-family: Verdana, Sans-serif;
               font-size: 12px;
               fill: #0A0A0A;
               font-weight: bold;
               }
               text.nonterminal      {font-family: Verdana, Sans-serif; font-style: italic;
               font-size: 12px;
               fill: #0D0D0D;
               }
               text.regexp           {font-family: Verdana, Sans-serif;
               font-size: 12px;
               fill: #0F0F0F;
               }
               rect, circle, polygon {fill: #1F1F1F; stroke: #1F1F1F;}
               rect.terminal         {fill: #CCCCCC; stroke: #1F1F1F;}
               rect.nonterminal      {fill: #E3E3E3; stroke: #1F1F1F;}
               rect.text             {fill: none; stroke: none;}    
               polygon.regexp        {fill: #EFEFEF; stroke: #1F1F1F;}
               
            </style>
         </defs>
         <polygon points="9 77 1 73 1 81"/>
         <polygon points="17 77 9 73 9 81"/>
         <rect x="51" y="63" width="60" height="32" rx="10"/>
         <rect x="49" y="61" width="60" height="32" class="terminal" rx="10"/>
         <text class="terminal" x="59" y="81">WHEN</text>
<!--     <a xmlns:xlink="http://www.w3.org/1999/xlink" xlink:href="#expression" xlink:title="expression"> -->
            <rect x="151" y="63" width="84" height="32"/>
            <rect x="149" y="61" width="84" height="32" class="nonterminal"/>
            <text class="nonterminal" x="159" y="81">expression</text>
<!--     </a> -->
         <rect x="151" y="19" width="24" height="32" rx="10"/>
         <rect x="149" y="17" width="24" height="32" class="terminal" rx="10"/>
         <text class="terminal" x="159" y="37">,</text>
         <rect x="295" y="95" width="24" height="32" rx="10"/>
         <rect x="293" y="93" width="24" height="32" class="terminal" rx="10"/>
         <text class="terminal" x="303" y="113">;</text>
         <rect x="359" y="63" width="54" height="32" rx="10"/>
         <rect x="357" y="61" width="54" height="32" class="terminal" rx="10"/>
         <text class="terminal" x="367" y="81">THEN</text>
         <rect x="453" y="95" width="24" height="32" rx="10"/>
         <rect x="451" y="93" width="24" height="32" class="terminal" rx="10"/>
         <text class="terminal" x="461" y="113">;</text>
<!--     <a xmlns:xlink="http://www.w3.org/1999/xlink" xlink:href="#instruction" xlink:title="instruction"> -->
            <rect x="517" y="63" width="82" height="32"/>
            <rect x="515" y="61" width="82" height="32" class="nonterminal"/>
            <text class="nonterminal" x="525" y="81">instruction</text>
<!--     </a> -->
         <svg:path xmlns:svg="http://www.w3.org/2000/svg" class="line" d="m17 77 h2 m20 0 h10 m60 0 h10 m20 0 h10 m84 0 h10 m-124 0 l20 0 m-1 0 q-9 0 -9 -10 l0 -24 q0 -10 10 -10 m104 44 l20 0 m-20 0 q10 0 10 -10 l0 -24 q0 -10 -10 -10 m-104 0 h10 m24 0 h10 m0 0 h60 m40 44 h10 m0 0 h34 m-64 0 h20 m44 0 h20 m-84 0 q10 0 10 10 m64 0 q0 -10 10 -10 m-74 10 v12 m64 0 v-12 m-64 12 q0 10 10 10 m44 0 q10 0 10 -10 m-54 10 h10 m24 0 h10 m20 -32 h10 m54 0 h10 m20 0 h10 m0 0 h34 m-64 0 h20 m44 0 h20 m-84 0 q10 0 10 10 m64 0 q0 -10 10 -10 m-74 10 v12 m64 0 v-12 m-64 12 q0 10 10 10 m44 0 q10 0 10 -10 m-54 10 h10 m24 0 h10 m20 -32 h10 m82 0 h10 m-588 0 l20 0 m-1 0 q-9 0 -9 -10 l0 -56 q0 -10 10 -10 m568 76 l20 0 m-20 0 q10 0 10 -10 l0 -56 q0 -10 -10 -10 m-568 0 h10 m0 0 h558 m23 76 h-3"/>
         <polygon points="637 77 645 73 645 81"/>
         <polygon points="637 77 629 73 629 81"/>
      </svg>
