      <svg xmlns="http://www.w3.org/2000/svg" width="514" height="84">
         <defs>
            <style type="text/css">
               @namespace "http://www.w3.org/2000/svg";
               .line                 {fill: none; stroke: #1F1F1F;}
               .bold-line            {stroke: #0A0A0A; shape-rendering: crispEdges; stroke-width:
               2; }
               .thin-line            {stroke: #0F0F0F; shape-rendering: crispEdges}
               .filled               {fill: #1F1F1F; stroke: none;}
               text.terminal         {font-family: Verdana, Sans-serif;
               font-size: 12px;
               fill: #0A0A0A;
               font-weight: bold;
               }
               text.nonterminal      {font-family: Verdana, Sans-serif; font-style: italic;
               font-size: 12px;
               fill: #0D0D0D;
               }
               text.regexp           {font-family: Verdana, Sans-serif;
               font-size: 12px;
               fill: #0F0F0F;
               }
               rect, circle, polygon {fill: #1F1F1F; stroke: #1F1F1F;}
               rect.terminal         {fill: #CCCCCC; stroke: #1F1F1F;}
               rect.nonterminal      {fill: #E3E3E3; stroke: #1F1F1F;}
               rect.text             {fill: none; stroke: none;}    
               polygon.regexp        {fill: #EFEFEF; stroke: #1F1F1F;}
               
            </style>
         </defs>
         <polygon points="9 33 1 29 1 37"/>
         <polygon points="17 33 9 29 9 37"/>
         <rect x="51" y="19" width="102" height="32" rx="10"/>
         <rect x="49" y="17" width="102" height="32" class="terminal" rx="10"/>
         <text class="terminal" x="59" y="37">OTHERWISE</text>
         <rect x="193" y="19" width="24" height="32" rx="10"/>
         <rect x="191" y="17" width="24" height="32" class="terminal" rx="10"/>
         <text class="terminal" x="201" y="37">;</text>
<!--     <a xmlns:xlink="http://www.w3.org/1999/xlink" xlink:href="#instruction" xlink:title="instruction"> -->
            <rect x="297" y="19" width="86" height="32"/>
            <rect x="295" y="17" width="86" height="32" class="nonterminal"/>
            <text class="nonterminal" x="305" y="37">instruction</text>
<!--     </a> -->
         <rect x="403" y="19" width="24" height="32" rx="10"/>
         <rect x="401" y="17" width="24" height="32" class="terminal" rx="10"/>
         <text class="terminal" x="411" y="37">;</text>
         <svg:path xmlns:svg="http://www.w3.org/2000/svg" class="line" d="m17 33 h2 m20 0 h10 m102 0 h10 m20 0 h10 m24 0 h10 m-64 0 h20 m44 0 h20 m-84 0 q10 0 10 10 m64 0 q0 -10 10 -10 m-74 10 v14 m64 0 v-14 m-64 14 q0 10 10 10 m44 0 q10 0 10 -10 m-54 10 h10 m0 0 h34 m60 -34 h10 m86 0 h10 m0 0 h10 m24 0 h10 m-170 0 l20 0 m-1 0 q-9 0 -9 -10 l0 -12 q0 -10 10 -10 m150 32 l20 0 m-20 0 q10 0 10 -10 l0 -12 q0 -10 -10 -10 m-150 0 h10 m0 0 h140 m-190 32 h20 m190 0 h20 m-230 0 q10 0 10 10 m210 0 q0 -10 10 -10 m-220 10 v14 m210 0 v-14 m-210 14 q0 10 10 10 m190 0 q10 0 10 -10 m-200 10 h10 m0 0 h180 m-436 -34 h20 m436 0 h20 m-476 0 q10 0 10 10 m456 0 q0 -10 10 -10 m-466 10 v30 m456 0 v-30 m-456 30 q0 10 10 10 m436 0 q10 0 10 -10 m-446 10 h10 m0 0 h426 m23 -50 h-3"/>
         <polygon points="505 33 513 29 513 37"/>
         <polygon points="505 33 497 29 497 37"/>
      </svg>
