      <svg xmlns="http://www.w3.org/2000/svg" width="702" height="128">
         <defs>
            <style type="text/css">
               @namespace "http://www.w3.org/2000/svg";
               .line                 {fill: none; stroke: #1F1F1F;}
               .bold-line            {stroke: #0A0A0A; shape-rendering: crispEdges; stroke-width:
               2; }
               .thin-line            {stroke: #0F0F0F; shape-rendering: crispEdges}
               .filled               {fill: #1F1F1F; stroke: none;}
               text.terminal         {font-family: Verdana, Sans-serif;
               font-size: 12px;
               fill: #0A0A0A;
               font-weight: bold;
               }
               text.nonterminal      {font-family: Verdana, Sans-serif; font-style: italic;
               font-size: 12px;
               fill: #0D0D0D;
               }
               text.regexp           {font-family: Verdana, Sans-serif;
               font-size: 12px;
               fill: #0F0F0F;
               }
               rect, circle, polygon {fill: #1F1F1F; stroke: #1F1F1F;}
               rect.terminal         {fill: #CCCCCC; stroke: #1F1F1F;}
               rect.nonterminal      {fill: #E3E3E3; stroke: #1F1F1F;}
               rect.text             {fill: none; stroke: none;}    
               polygon.regexp        {fill: #EFEFEF; stroke: #1F1F1F;}
               
            </style>
         </defs>
         <polygon points="9 77 1 73 1 81"/>
         <polygon points="17 77 9 73 9 81"/>
         <rect x="51" y="63" width="62" height="32" rx="10"/>
         <rect x="49" y="61" width="62" height="32" class="terminal" rx="10"/>
         <text class="terminal" x="59" y="81">WHEN</text>
<!--     <a xmlns:xlink="http://www.w3.org/1999/xlink" xlink:href="#expression" xlink:title="expression"> -->
            <rect x="153" y="63" width="88" height="32"/>
            <rect x="151" y="61" width="88" height="32" class="nonterminal"/>
            <text class="nonterminal" x="161" y="81">expression</text>
<!--     </a> -->
         <rect x="153" y="19" width="24" height="32" rx="10"/>
         <rect x="151" y="17" width="24" height="32" class="terminal" rx="10"/>
         <text class="terminal" x="161" y="37">,</text>
         <rect x="301" y="95" width="24" height="32" rx="10"/>
         <rect x="299" y="93" width="24" height="32" class="terminal" rx="10"/>
         <text class="terminal" x="309" y="113">;</text>
         <rect x="365" y="63" width="56" height="32" rx="10"/>
         <rect x="363" y="61" width="56" height="32" class="terminal" rx="10"/>
         <text class="terminal" x="373" y="81">THEN</text>
         <rect x="461" y="95" width="24" height="32" rx="10"/>
         <rect x="459" y="93" width="24" height="32" class="terminal" rx="10"/>
         <text class="terminal" x="469" y="113">;</text>
<!--     <a xmlns:xlink="http://www.w3.org/1999/xlink" xlink:href="#instruction" xlink:title="instruction"> -->
            <rect x="525" y="63" width="86" height="32"/>
            <rect x="523" y="61" width="86" height="32" class="nonterminal"/>
            <text class="nonterminal" x="533" y="81">instruction</text>
<!--     </a> -->
         <rect x="631" y="63" width="24" height="32" rx="10"/>
         <rect x="629" y="61" width="24" height="32" class="terminal" rx="10"/>
         <text class="terminal" x="639" y="81">;</text>
         <svg:path xmlns:svg="http://www.w3.org/2000/svg" class="line" d="m17 77 h2 m20 0 h10 m62 0 h10 m20 0 h10 m88 0 h10 m-128 0 l20 0 m-1 0 q-9 0 -9 -10 l0 -24 q0 -10 10 -10 m108 44 l20 0 m-20 0 q10 0 10 -10 l0 -24 q0 -10 -10 -10 m-108 0 h10 m24 0 h10 m0 0 h64 m40 44 h10 m0 0 h34 m-64 0 h20 m44 0 h20 m-84 0 q10 0 10 10 m64 0 q0 -10 10 -10 m-74 10 v12 m64 0 v-12 m-64 12 q0 10 10 10 m44 0 q10 0 10 -10 m-54 10 h10 m24 0 h10 m20 -32 h10 m56 0 h10 m20 0 h10 m0 0 h34 m-64 0 h20 m44 0 h20 m-84 0 q10 0 10 10 m64 0 q0 -10 10 -10 m-74 10 v12 m64 0 v-12 m-64 12 q0 10 10 10 m44 0 q10 0 10 -10 m-54 10 h10 m24 0 h10 m20 -32 h10 m86 0 h10 m0 0 h10 m24 0 h10 m-644 0 l20 0 m-1 0 q-9 0 -9 -10 l0 -56 q0 -10 10 -10 m624 76 l20 0 m-20 0 q10 0 10 -10 l0 -56 q0 -10 -10 -10 m-624 0 h10 m0 0 h614 m23 76 h-3"/>
         <polygon points="693 77 701 73 701 81"/>
         <polygon points="693 77 685 73 685 81"/>
      </svg>
