      <svg xmlns="http://www.w3.org/2000/svg" width="628" height="68">
         <defs>
            <style type="text/css">
               @namespace "http://www.w3.org/2000/svg";
               .line                 {fill: none; stroke: #1F1F1F;}
               .bold-line            {stroke: #0A0A0A; shape-rendering: crispEdges; stroke-width:
               2; }
               .thin-line            {stroke: #0F0F0F; shape-rendering: crispEdges}
               .filled               {fill: #1F1F1F; stroke: none;}
               text.terminal         {font-family: Verdana, Sans-serif;
               font-size: 12px;
               fill: #0A0A0A;
               font-weight: bold;
               }
               text.nonterminal      {font-family: Verdana, Sans-serif; font-style: italic;
               font-size: 12px;
               fill: #0D0D0D;
               }
               text.regexp           {font-family: Verdana, Sans-serif;
               font-size: 12px;
               fill: #0F0F0F;
               }
               rect, circle, polygon {fill: #1F1F1F; stroke: #1F1F1F;}
               rect.terminal         {fill: #CCCCCC; stroke: #1F1F1F;}
               rect.nonterminal      {fill: #E3E3E3; stroke: #1F1F1F;}
               rect.text             {fill: none; stroke: none;}    
               polygon.regexp        {fill: #EFEFEF; stroke: #1F1F1F;}
               
            </style>
         </defs>
         <polygon points="9 17 1 13 1 21"/>
         <polygon points="17 17 9 13 9 21"/>
         <rect x="31" y="3" width="70" height="32" rx="10"/>
         <rect x="29" y="1" width="70" height="32" class="terminal" rx="10"/>
         <text class="terminal" x="39" y="21">SELECT</text>
         <rect x="141" y="35" width="62" height="32" rx="10"/>
         <rect x="139" y="33" width="62" height="32" class="terminal" rx="10"/>
         <text class="terminal" x="149" y="53">LABEL</text>
<!--     <a xmlns:xlink="http://www.w3.org/1999/xlink" xlink:href="#name" xlink:title="name"> -->
            <rect x="223" y="35" width="54" height="32"/>
            <rect x="221" y="33" width="54" height="32" class="nonterminal"/>
            <text class="nonterminal" x="231" y="53">name</text>
<!--     </a> -->
         <rect x="337" y="35" width="54" height="32" rx="10"/>
         <rect x="335" y="33" width="54" height="32" class="terminal" rx="10"/>
         <text class="terminal" x="345" y="53">CASE</text>
<!--     <a xmlns:xlink="http://www.w3.org/1999/xlink" xlink:href="#case_expression" xlink:title="case_expression"> -->
            <rect x="411" y="35" width="126" height="32"/>
            <rect x="409" y="33" width="126" height="32" class="nonterminal"/>
            <text class="nonterminal" x="419" y="53">case_expression</text>
<!--     </a> -->
         <rect x="577" y="3" width="24" height="32" rx="10"/>
         <rect x="575" y="1" width="24" height="32" class="terminal" rx="10"/>
         <text class="terminal" x="585" y="21">;</text>
         <svg:path xmlns:svg="http://www.w3.org/2000/svg" class="line" d="m17 17 h2 m0 0 h10 m70 0 h10 m20 0 h10 m0 0 h146 m-176 0 h20 m156 0 h20 m-196 0 q10 0 10 10 m176 0 q0 -10 10 -10 m-186 10 v12 m176 0 v-12 m-176 12 q0 10 10 10 m156 0 q10 0 10 -10 m-166 10 h10 m62 0 h10 m0 0 h10 m54 0 h10 m40 -32 h10 m0 0 h210 m-240 0 h20 m220 0 h20 m-260 0 q10 0 10 10 m240 0 q0 -10 10 -10 m-250 10 v12 m240 0 v-12 m-240 12 q0 10 10 10 m220 0 q10 0 10 -10 m-230 10 h10 m54 0 h10 m0 0 h10 m126 0 h10 m20 -32 h10 m24 0 h10 m3 0 h-3"/>
         <polygon points="619 17 627 13 627 21"/>
         <polygon points="619 17 611 13 611 21"/>
      </svg>
