      <svg xmlns="http://www.w3.org/2000/svg" width="926" height="182">
         <defs>
            <style type="text/css">
               @namespace "http://www.w3.org/2000/svg";
               .line                 {fill: none; stroke: #1F1F1F;}
               .bold-line            {stroke: #0A0A0A; shape-rendering: crispEdges; stroke-width:
               2; }
               .thin-line            {stroke: #0F0F0F; shape-rendering: crispEdges}
               .filled               {fill: #1F1F1F; stroke: none;}
               text.terminal         {font-family: Verdana, Sans-serif;
               font-size: 12px;
               fill: #0A0A0A;
               font-weight: bold;
               }
               text.nonterminal      {font-family: Verdana, Sans-serif;
               font-size: 12px;
               fill: #0D0D0D;
               }
               text.regexp           {font-family: Verdana, Sans-serif;
               font-size: 12px;
               fill: #0F0F0F;
               }
               rect, circle, polygon {fill: #1F1F1F; stroke: #1F1F1F;}
               rect.terminal         {fill: #CCCCCC; stroke: #1F1F1F;}
               rect.nonterminal      {fill: #E3E3E3; stroke: #1F1F1F;}
               rect.text             {fill: none; stroke: none;}    
               polygon.regexp        {fill: #EFEFEF; stroke: #1F1F1F;}
               
            </style>
         </defs>
         <polygon points="9 33 1 29 1 37"/>
         <polygon points="17 33 9 29 9 37"/>
         <a xmlns:xlink="http://www.w3.org/1999/xlink" xlink:href="#SELECT" xlink:title="SELECT">
            <rect x="31" y="19" width="66" height="32"/>
            <rect x="29" y="17" width="66" height="32" class="nonterminal"/>
            <text class="nonterminal" x="39" y="37">SELECT</text>
         </a>
         <a xmlns:xlink="http://www.w3.org/1999/xlink" xlink:href="#LABEL" xlink:title="LABEL">
            <rect x="137" y="19" width="58" height="32"/>
            <rect x="135" y="17" width="58" height="32" class="nonterminal"/>
            <text class="nonterminal" x="145" y="37">LABEL</text>
         </a>
         <a xmlns:xlink="http://www.w3.org/1999/xlink" xlink:href="#name" xlink:title="name">
            <rect x="215" y="19" width="54" height="32"/>
            <rect x="213" y="17" width="54" height="32" class="nonterminal"/>
            <text class="nonterminal" x="223" y="37">name</text>
         </a>
         <a xmlns:xlink="http://www.w3.org/1999/xlink" xlink:href="#WHEN" xlink:title="WHEN">
            <rect x="329" y="19" width="58" height="32"/>
            <rect x="327" y="17" width="58" height="32" class="nonterminal"/>
            <text class="nonterminal" x="337" y="37">WHEN</text>
         </a>
         <a xmlns:xlink="http://www.w3.org/1999/xlink" xlink:href="#expression" xlink:title="expression">
            <rect x="407" y="19" width="88" height="32"/>
            <rect x="405" y="17" width="88" height="32" class="nonterminal"/>
            <text class="nonterminal" x="415" y="37">expression</text>
         </a>
         <rect x="535" y="19" width="24" height="32" rx="10"/>
         <rect x="533" y="17" width="24" height="32" class="terminal" rx="10"/>
         <text class="terminal" x="543" y="37">;</text>
         <a xmlns:xlink="http://www.w3.org/1999/xlink" xlink:href="#THEN" xlink:title="THEN">
            <rect x="599" y="19" width="52" height="32"/>
            <rect x="597" y="17" width="52" height="32" class="nonterminal"/>
            <text class="nonterminal" x="607" y="37">THEN</text>
         </a>
         <rect x="691" y="19" width="24" height="32" rx="10"/>
         <rect x="689" y="17" width="24" height="32" class="terminal" rx="10"/>
         <text class="terminal" x="699" y="37">;</text>
         <a xmlns:xlink="http://www.w3.org/1999/xlink" xlink:href="#instruction" xlink:title="instruction">
            <rect x="755" y="19" width="86" height="32"/>
            <rect x="753" y="17" width="86" height="32" class="nonterminal"/>
            <text class="nonterminal" x="763" y="37">instruction</text>
         </a>
         <rect x="861" y="19" width="24" height="32" rx="10"/>
         <rect x="859" y="17" width="24" height="32" class="terminal" rx="10"/>
         <text class="terminal" x="869" y="37">;</text>
         <a xmlns:xlink="http://www.w3.org/1999/xlink" xlink:href="#OTHERWISE" xlink:title="OTHERWISE">
            <rect x="245" y="117" width="96" height="32"/>
            <rect x="243" y="115" width="96" height="32" class="nonterminal"/>
            <text class="nonterminal" x="253" y="135">OTHERWISE</text>
         </a>
         <rect x="381" y="117" width="24" height="32" rx="10"/>
         <rect x="379" y="115" width="24" height="32" class="terminal" rx="10"/>
         <text class="terminal" x="389" y="135">;</text>
         <a xmlns:xlink="http://www.w3.org/1999/xlink" xlink:href="#instruction" xlink:title="instruction">
            <rect x="485" y="117" width="86" height="32"/>
            <rect x="483" y="115" width="86" height="32" class="nonterminal"/>
            <text class="nonterminal" x="493" y="135">instruction</text>
         </a>
         <rect x="591" y="117" width="24" height="32" rx="10"/>
         <rect x="589" y="115" width="24" height="32" class="terminal" rx="10"/>
         <text class="terminal" x="599" y="135">;</text>
         <a xmlns:xlink="http://www.w3.org/1999/xlink" xlink:href="#END" xlink:title="END">
            <rect x="695" y="117" width="46" height="32"/>
            <rect x="693" y="115" width="46" height="32" class="nonterminal"/>
            <text class="nonterminal" x="703" y="135">END</text>
         </a>
         <a xmlns:xlink="http://www.w3.org/1999/xlink" xlink:href="#name" xlink:title="name">
            <rect x="781" y="117" width="54" height="32"/>
            <rect x="779" y="115" width="54" height="32" class="nonterminal"/>
            <text class="nonterminal" x="789" y="135">name</text>
         </a>
         <rect x="875" y="117" width="24" height="32" rx="10"/>
         <rect x="873" y="115" width="24" height="32" class="terminal" rx="10"/>
         <text class="terminal" x="883" y="135">;</text>
         <svg:path xmlns:svg="http://www.w3.org/2000/svg" class="line" d="m17 33 h2 m0 0 h10 m66 0 h10 m20 0 h10 m58 0 h10 m0 0 h10 m54 0 h10 m-172 0 h20 m152 0 h20 m-192 0 q10 0 10 10 m172 0 q0 -10 10 -10 m-182 10 v14 m172 0 v-14 m-172 14 q0 10 10 10 m152 0 q10 0 10 -10 m-162 10 h10 m0 0 h142 m40 -34 h10 m58 0 h10 m0 0 h10 m88 0 h10 m20 0 h10 m24 0 h10 m-64 0 h20 m44 0 h20 m-84 0 q10 0 10 10 m64 0 q0 -10 10 -10 m-74 10 v14 m64 0 v-14 m-64 14 q0 10 10 10 m44 0 q10 0 10 -10 m-54 10 h10 m0 0 h34 m20 -34 h10 m52 0 h10 m20 0 h10 m24 0 h10 m-64 0 h20 m44 0 h20 m-84 0 q10 0 10 10 m64 0 q0 -10 10 -10 m-74 10 v14 m64 0 v-14 m-64 14 q0 10 10 10 m44 0 q10 0 10 -10 m-54 10 h10 m0 0 h34 m20 -34 h10 m86 0 h10 m0 0 h10 m24 0 h10 m-596 0 l20 0 m-1 0 q-9 0 -9 -10 l0 -12 q0 -10 10 -10 m576 32 l20 0 m-20 0 q10 0 10 -10 l0 -12 q0 -10 -10 -10 m-576 0 h10 m0 0 h566 m22 32 l2 0 m2 0 l2 0 m2 0 l2 0 m-724 98 l2 0 m2 0 l2 0 m2 0 l2 0 m22 0 h10 m96 0 h10 m20 0 h10 m24 0 h10 m-64 0 h20 m44 0 h20 m-84 0 q10 0 10 10 m64 0 q0 -10 10 -10 m-74 10 v14 m64 0 v-14 m-64 14 q0 10 10 10 m44 0 q10 0 10 -10 m-54 10 h10 m0 0 h34 m60 -34 h10 m86 0 h10 m0 0 h10 m24 0 h10 m-170 0 l20 0 m-1 0 q-9 0 -9 -10 l0 -12 q0 -10 10 -10 m150 32 l20 0 m-20 0 q10 0 10 -10 l0 -12 q0 -10 -10 -10 m-150 0 h10 m0 0 h140 m-190 32 h20 m190 0 h20 m-230 0 q10 0 10 10 m210 0 q0 -10 10 -10 m-220 10 v14 m210 0 v-14 m-210 14 q0 10 10 10 m190 0 q10 0 10 -10 m-200 10 h10 m0 0 h180 m-430 -34 h20 m430 0 h20 m-470 0 q10 0 10 10 m450 0 q0 -10 10 -10 m-460 10 v30 m450 0 v-30 m-450 30 q0 10 10 10 m430 0 q10 0 10 -10 m-440 10 h10 m0 0 h420 m20 -50 h10 m46 0 h10 m20 0 h10 m54 0 h10 m-94 0 h20 m74 0 h20 m-114 0 q10 0 10 10 m94 0 q0 -10 10 -10 m-104 10 v14 m94 0 v-14 m-94 14 q0 10 10 10 m74 0 q10 0 10 -10 m-84 10 h10 m0 0 h64 m20 -34 h10 m24 0 h10 m3 0 h-3"/>
         <polygon points="917 131 925 127 925 135"/>
         <polygon points="917 131 909 127 909 135"/>
      </svg>
