<svg xmlns="http://www.w3.org/2000/svg" width="589" height="69">
         <defs>
            <style type="text/css">
               @namespace "http://www.w3.org/2000/svg";
               .line                 {fill: none; stroke: #1F1F1F;}
               .bold-line            {stroke: #0A0A0A; shape-rendering: crispEdges; stroke-width:
               2; }
               .thin-line            {stroke: #0F0F0F; shape-rendering: crispEdges}
               .filled               {fill: #1F1F1F; stroke: none;}
               text.terminal         {font-family: Verdana, Sans-serif;
               font-size: 12px;
               fill: #0A0A0A;
               font-weight: bold;
               }
               text.nonterminal      {font-family: Verdana, Sans-serif; font-style: italic;
               font-size: 12px;
               fill: #0D0D0D;
               }
               text.regexp           {font-family: Verdana, Sans-serif;
               font-size: 12px;
               fill: #0F0F0F;
               }
               rect, circle, polygon {fill: #1F1F1F; stroke: #1F1F1F;}
               rect.terminal         {fill: #CCCCCC; stroke: #1F1F1F;}
               rect.nonterminal      {fill: #E3E3E3; stroke: #1F1F1F;}
               rect.text             {fill: none; stroke: none;}
               polygon.regexp        {fill: #EFEFEF; stroke: #1F1F1F;}

            </style>
         </defs>

         <polygon points="9 17 1 13 1 21"/>
         <polygon points="17 17 9 13 9 21"/>
         <rect x="31" y="3" width="70" height="32" rx="10"/>
         <rect x="29" y="1" width="70" height="32" class="terminal" rx="10"/>
         <text class="terminal" x="39" y="21">SELECT</text>
         <rect x="141" y="35" width="62" height="32" rx="10"/>
         <rect x="139" y="33" width="62" height="32" class="terminal" rx="10"/>
         <text class="terminal" x="149" y="53">LABEL</text><a xmlns:xlink="http://www.w3.org/1999/xlink" xlink:href="#name" xlink:title="name">
            <rect x="223" y="35" width="56" height="32"/>
            <rect x="221" y="33" width="56" height="32" class="nonterminal"/>
            <text class="nonterminal" x="231" y="53">name</text></a><rect x="339" y="35" width="56" height="32" rx="10"/>
         <rect x="337" y="33" width="56" height="32" class="terminal" rx="10"/>
         <text class="terminal" x="347" y="53">CASE</text><a xmlns:xlink="http://www.w3.org/1999/xlink" xlink:href="#case_expression" xlink:title="case_expression">
            <rect x="415" y="35" width="126" height="32"/>
            <rect x="413" y="33" width="126" height="32" class="nonterminal"/>
            <text class="nonterminal" x="423" y="53">case_expression</text></a><path class="line" d="m17 17 h2 m0 0 h10 m70 0 h10 m20 0 h10 m0 0 h148 m-178 0 h20 m158 0 h20 m-198 0 q10 0 10 10 m178 0 q0 -10 10 -10 m-188 10 v12 m178 0 v-12 m-178 12 q0 10 10 10 m158 0 q10 0 10 -10 m-168 10 h10 m62 0 h10 m0 0 h10 m56 0 h10 m40 -32 h10 m0 0 h212 m-242 0 h20 m222 0 h20 m-262 0 q10 0 10 10 m242 0 q0 -10 10 -10 m-252 10 v12 m242 0 v-12 m-242 12 q0 10 10 10 m222 0 q10 0 10 -10 m-232 10 h10 m56 0 h10 m0 0 h10 m126 0 h10 m23 -32 h-3"/>
         <polygon points="579 17 587 13 587 21"/>
         <polygon points="579 17 571 13 571 21"/>
</svg>