      <svg xmlns="http://www.w3.org/2000/svg" width="716" height="1070">
         <defs>
            <style type="text/css">
               @namespace "http://www.w3.org/2000/svg";
               .line                 {fill: none; stroke: #1F1F1F;}
               .bold-line            {stroke: #0A0A0A; shape-rendering: crispEdges; stroke-width:
               2; }
               .thin-line            {stroke: #0F0F0F; shape-rendering: crispEdges}
               .filled               {fill: #1F1F1F; stroke: none;}
               text.terminal         {font-family: Verdana, Sans-serif;
               font-size: 12px;
               fill: #0A0A0A;
               font-weight: bold;
               }
               text.nonterminal      {font-family: Verdana, Sans-serif;
               font-size: 12px;
               fill: #0D0D0D;
               }
               text.regexp           {font-family: Verdana, Sans-serif;
               font-size: 12px;
               fill: #0F0F0F;
               }
               rect, circle, polygon {fill: #1F1F1F; stroke: #1F1F1F;}
               rect.terminal         {fill: #CCCCCC; stroke: #1F1F1F;}
               rect.nonterminal      {fill: #E3E3E3; stroke: #1F1F1F;}
               rect.text             {fill: none; stroke: none;}    
               polygon.regexp        {fill: #EFEFEF; stroke: #1F1F1F;}
               
            </style>
         </defs>
         <polygon points="9 17 1 13 1 21"/>
         <polygon points="17 17 9 13 9 21"/>
         <a xmlns:xlink="http://www.w3.org/1999/xlink" xlink:href="#SIGNAL" xlink:title="SIGNAL">
            <rect x="31" y="3" width="66" height="32"/>
            <rect x="29" y="1" width="66" height="32" class="nonterminal"/>
            <text class="nonterminal" x="39" y="21">SIGNAL</text>
         </a>
         <a xmlns:xlink="http://www.w3.org/1999/xlink" xlink:href="#labelname" xlink:title="labelname">
            <rect x="137" y="3" width="84" height="32"/>
            <rect x="135" y="1" width="84" height="32" class="nonterminal"/>
            <text class="nonterminal" x="145" y="21">labelname</text>
         </a>
         <a xmlns:xlink="http://www.w3.org/1999/xlink" xlink:href="#VALUE" xlink:title="VALUE">
            <rect x="157" y="47" width="60" height="32"/>
            <rect x="155" y="45" width="60" height="32" class="nonterminal"/>
            <text class="nonterminal" x="165" y="65">VALUE</text>
         </a>
         <a xmlns:xlink="http://www.w3.org/1999/xlink" xlink:href="#expression" xlink:title="expression">
            <rect x="257" y="47" width="88" height="32"/>
            <rect x="255" y="45" width="88" height="32" class="nonterminal"/>
            <text class="nonterminal" x="265" y="65">expression</text>
         </a>
         <a xmlns:xlink="http://www.w3.org/1999/xlink" xlink:href="#OFF" xlink:title="OFF">
            <rect x="137" y="113" width="44" height="32"/>
            <rect x="135" y="111" width="44" height="32" class="nonterminal"/>
            <text class="nonterminal" x="145" y="131">OFF</text>
         </a>
         <a xmlns:xlink="http://www.w3.org/1999/xlink" xlink:href="#ANY" xlink:title="ANY">
            <rect x="221" y="113" width="44" height="32"/>
            <rect x="219" y="111" width="44" height="32" class="nonterminal"/>
            <text class="nonterminal" x="229" y="131">ANY</text>
         </a>
         <a xmlns:xlink="http://www.w3.org/1999/xlink" xlink:href="#ERROR" xlink:title="ERROR">
            <rect x="221" y="157" width="62" height="32"/>
            <rect x="219" y="155" width="62" height="32" class="nonterminal"/>
            <text class="nonterminal" x="229" y="175">ERROR</text>
         </a>
         <a xmlns:xlink="http://www.w3.org/1999/xlink" xlink:href="#FAILURE" xlink:title="FAILURE">
            <rect x="221" y="201" width="72" height="32"/>
            <rect x="219" y="199" width="72" height="32" class="nonterminal"/>
            <text class="nonterminal" x="229" y="219">FAILURE</text>
         </a>
         <a xmlns:xlink="http://www.w3.org/1999/xlink" xlink:href="#HALT" xlink:title="HALT">
            <rect x="221" y="245" width="50" height="32"/>
            <rect x="219" y="243" width="50" height="32" class="nonterminal"/>
            <text class="nonterminal" x="229" y="263">HALT</text>
         </a>
         <a xmlns:xlink="http://www.w3.org/1999/xlink" xlink:href="#LOSTDOGITS" xlink:title="LOSTDOGITS">
            <rect x="221" y="289" width="100" height="32"/>
            <rect x="219" y="287" width="100" height="32" class="nonterminal"/>
            <text class="nonterminal" x="229" y="307">LOSTDOGITS</text>
         </a>
         <a xmlns:xlink="http://www.w3.org/1999/xlink" xlink:href="#NOMETHOD" xlink:title="NOMETHOD">
            <rect x="221" y="333" width="92" height="32"/>
            <rect x="219" y="331" width="92" height="32" class="nonterminal"/>
            <text class="nonterminal" x="229" y="351">NOMETHOD</text>
         </a>
         <a xmlns:xlink="http://www.w3.org/1999/xlink" xlink:href="#NOSTRING" xlink:title="NOSTRING">
            <rect x="221" y="377" width="84" height="32"/>
            <rect x="219" y="375" width="84" height="32" class="nonterminal"/>
            <text class="nonterminal" x="229" y="395">NOSTRING</text>
         </a>
         <a xmlns:xlink="http://www.w3.org/1999/xlink" xlink:href="#NOTREADY" xlink:title="NOTREADY">
            <rect x="221" y="421" width="86" height="32"/>
            <rect x="219" y="419" width="86" height="32" class="nonterminal"/>
            <text class="nonterminal" x="229" y="439">NOTREADY</text>
         </a>
         <a xmlns:xlink="http://www.w3.org/1999/xlink" xlink:href="#NOVALUE" xlink:title="NOVALUE">
            <rect x="221" y="465" width="78" height="32"/>
            <rect x="219" y="463" width="78" height="32" class="nonterminal"/>
            <text class="nonterminal" x="229" y="483">NOVALUE</text>
         </a>
         <a xmlns:xlink="http://www.w3.org/1999/xlink" xlink:href="#SYNTAX" xlink:title="SYNTAX">
            <rect x="221" y="509" width="66" height="32"/>
            <rect x="219" y="507" width="66" height="32" class="nonterminal"/>
            <text class="nonterminal" x="229" y="527">SYNTAX</text>
         </a>
         <a xmlns:xlink="http://www.w3.org/1999/xlink" xlink:href="#USER" xlink:title="USER">
            <rect x="221" y="553" width="52" height="32"/>
            <rect x="219" y="551" width="52" height="32" class="nonterminal"/>
            <text class="nonterminal" x="229" y="571">USER</text>
         </a>
         <a xmlns:xlink="http://www.w3.org/1999/xlink" xlink:href="#usercondition" xlink:title="usercondition">
            <rect x="293" y="553" width="104" height="32"/>
            <rect x="291" y="551" width="104" height="32" class="nonterminal"/>
            <text class="nonterminal" x="301" y="571">usercondition</text>
         </a>
         <a xmlns:xlink="http://www.w3.org/1999/xlink" xlink:href="#ON" xlink:title="ON">
            <rect x="137" y="597" width="38" height="32"/>
            <rect x="135" y="595" width="38" height="32" class="nonterminal"/>
            <text class="nonterminal" x="145" y="615">ON</text>
         </a>
         <a xmlns:xlink="http://www.w3.org/1999/xlink" xlink:href="#ANY" xlink:title="ANY">
            <rect x="215" y="597" width="44" height="32"/>
            <rect x="213" y="595" width="44" height="32" class="nonterminal"/>
            <text class="nonterminal" x="223" y="615">ANY</text>
         </a>
         <a xmlns:xlink="http://www.w3.org/1999/xlink" xlink:href="#ERROR" xlink:title="ERROR">
            <rect x="215" y="641" width="62" height="32"/>
            <rect x="213" y="639" width="62" height="32" class="nonterminal"/>
            <text class="nonterminal" x="223" y="659">ERROR</text>
         </a>
         <a xmlns:xlink="http://www.w3.org/1999/xlink" xlink:href="#FAILURE" xlink:title="FAILURE">
            <rect x="215" y="685" width="72" height="32"/>
            <rect x="213" y="683" width="72" height="32" class="nonterminal"/>
            <text class="nonterminal" x="223" y="703">FAILURE</text>
         </a>
         <a xmlns:xlink="http://www.w3.org/1999/xlink" xlink:href="#HALT" xlink:title="HALT">
            <rect x="215" y="729" width="50" height="32"/>
            <rect x="213" y="727" width="50" height="32" class="nonterminal"/>
            <text class="nonterminal" x="223" y="747">HALT</text>
         </a>
         <a xmlns:xlink="http://www.w3.org/1999/xlink" xlink:href="#LOSTDOGITS" xlink:title="LOSTDOGITS">
            <rect x="215" y="773" width="100" height="32"/>
            <rect x="213" y="771" width="100" height="32" class="nonterminal"/>
            <text class="nonterminal" x="223" y="791">LOSTDOGITS</text>
         </a>
         <a xmlns:xlink="http://www.w3.org/1999/xlink" xlink:href="#NOMETHOD" xlink:title="NOMETHOD">
            <rect x="215" y="817" width="92" height="32"/>
            <rect x="213" y="815" width="92" height="32" class="nonterminal"/>
            <text class="nonterminal" x="223" y="835">NOMETHOD</text>
         </a>
         <a xmlns:xlink="http://www.w3.org/1999/xlink" xlink:href="#NOSTRING" xlink:title="NOSTRING">
            <rect x="215" y="861" width="84" height="32"/>
            <rect x="213" y="859" width="84" height="32" class="nonterminal"/>
            <text class="nonterminal" x="223" y="879">NOSTRING</text>
         </a>
         <a xmlns:xlink="http://www.w3.org/1999/xlink" xlink:href="#NOTREADY" xlink:title="NOTREADY">
            <rect x="215" y="905" width="86" height="32"/>
            <rect x="213" y="903" width="86" height="32" class="nonterminal"/>
            <text class="nonterminal" x="223" y="923">NOTREADY</text>
         </a>
         <a xmlns:xlink="http://www.w3.org/1999/xlink" xlink:href="#NOVALUE" xlink:title="NOVALUE">
            <rect x="215" y="949" width="78" height="32"/>
            <rect x="213" y="947" width="78" height="32" class="nonterminal"/>
            <text class="nonterminal" x="223" y="967">NOVALUE</text>
         </a>
         <a xmlns:xlink="http://www.w3.org/1999/xlink" xlink:href="#SYNTAX" xlink:title="SYNTAX">
            <rect x="215" y="993" width="66" height="32"/>
            <rect x="213" y="991" width="66" height="32" class="nonterminal"/>
            <text class="nonterminal" x="223" y="1011">SYNTAX</text>
         </a>
         <a xmlns:xlink="http://www.w3.org/1999/xlink" xlink:href="#USER" xlink:title="USER">
            <rect x="215" y="1037" width="52" height="32"/>
            <rect x="213" y="1035" width="52" height="32" class="nonterminal"/>
            <text class="nonterminal" x="223" y="1055">USER</text>
         </a>
         <a xmlns:xlink="http://www.w3.org/1999/xlink" xlink:href="#usercondition" xlink:title="usercondition">
            <rect x="287" y="1037" width="104" height="32"/>
            <rect x="285" y="1035" width="104" height="32" class="nonterminal"/>
            <text class="nonterminal" x="295" y="1055">usercondition</text>
         </a>
         <a xmlns:xlink="http://www.w3.org/1999/xlink" xlink:href="#NAME" xlink:title="NAME">
            <rect x="451" y="597" width="54" height="32"/>
            <rect x="449" y="595" width="54" height="32" class="nonterminal"/>
            <text class="nonterminal" x="459" y="615">NAME</text>
         </a>
         <a xmlns:xlink="http://www.w3.org/1999/xlink" xlink:href="#trapname" xlink:title="trapname">
            <rect x="525" y="597" width="80" height="32"/>
            <rect x="523" y="595" width="80" height="32" class="nonterminal"/>
            <text class="nonterminal" x="533" y="615">trapname</text>
         </a>
         <rect x="665" y="3" width="24" height="32" rx="10"/>
         <rect x="663" y="1" width="24" height="32" class="terminal" rx="10"/>
         <text class="terminal" x="673" y="21">;</text>
         <svg:path xmlns:svg="http://www.w3.org/2000/svg" class="line" d="m17 17 h2 m0 0 h10 m66 0 h10 m20 0 h10 m84 0 h10 m0 0 h404 m-528 0 h20 m508 0 h20 m-548 0 q10 0 10 10 m528 0 q0 -10 10 -10 m-538 10 v24 m528 0 v-24 m-528 24 q0 10 10 10 m508 0 q10 0 10 -10 m-498 10 h10 m60 0 h10 m-100 0 h20 m80 0 h20 m-120 0 q10 0 10 10 m100 0 q0 -10 10 -10 m-110 10 v14 m100 0 v-14 m-100 14 q0 10 10 10 m80 0 q10 0 10 -10 m-90 10 h10 m0 0 h70 m20 -34 h10 m88 0 h10 m0 0 h280 m-518 -10 v20 m528 0 v-20 m-528 20 v46 m528 0 v-46 m-528 46 q0 10 10 10 m508 0 q10 0 10 -10 m-518 10 h10 m44 0 h10 m20 0 h10 m44 0 h10 m0 0 h132 m-216 0 h20 m196 0 h20 m-236 0 q10 0 10 10 m216 0 q0 -10 10 -10 m-226 10 v24 m216 0 v-24 m-216 24 q0 10 10 10 m196 0 q10 0 10 -10 m-206 10 h10 m62 0 h10 m0 0 h114 m-206 -10 v20 m216 0 v-20 m-216 20 v24 m216 0 v-24 m-216 24 q0 10 10 10 m196 0 q10 0 10 -10 m-206 10 h10 m72 0 h10 m0 0 h104 m-206 -10 v20 m216 0 v-20 m-216 20 v24 m216 0 v-24 m-216 24 q0 10 10 10 m196 0 q10 0 10 -10 m-206 10 h10 m50 0 h10 m0 0 h126 m-206 -10 v20 m216 0 v-20 m-216 20 v24 m216 0 v-24 m-216 24 q0 10 10 10 m196 0 q10 0 10 -10 m-206 10 h10 m100 0 h10 m0 0 h76 m-206 -10 v20 m216 0 v-20 m-216 20 v24 m216 0 v-24 m-216 24 q0 10 10 10 m196 0 q10 0 10 -10 m-206 10 h10 m92 0 h10 m0 0 h84 m-206 -10 v20 m216 0 v-20 m-216 20 v24 m216 0 v-24 m-216 24 q0 10 10 10 m196 0 q10 0 10 -10 m-206 10 h10 m84 0 h10 m0 0 h92 m-206 -10 v20 m216 0 v-20 m-216 20 v24 m216 0 v-24 m-216 24 q0 10 10 10 m196 0 q10 0 10 -10 m-206 10 h10 m86 0 h10 m0 0 h90 m-206 -10 v20 m216 0 v-20 m-216 20 v24 m216 0 v-24 m-216 24 q0 10 10 10 m196 0 q10 0 10 -10 m-206 10 h10 m78 0 h10 m0 0 h98 m-206 -10 v20 m216 0 v-20 m-216 20 v24 m216 0 v-24 m-216 24 q0 10 10 10 m196 0 q10 0 10 -10 m-206 10 h10 m66 0 h10 m0 0 h110 m-206 -10 v20 m216 0 v-20 m-216 20 v24 m216 0 v-24 m-216 24 q0 10 10 10 m196 0 q10 0 10 -10 m-206 10 h10 m52 0 h10 m0 0 h10 m104 0 h10 m20 -440 h208 m-518 -10 v20 m528 0 v-20 m-528 20 v464 m528 0 v-464 m-528 464 q0 10 10 10 m508 0 q10 0 10 -10 m-518 10 h10 m38 0 h10 m20 0 h10 m44 0 h10 m0 0 h132 m-216 0 h20 m196 0 h20 m-236 0 q10 0 10 10 m216 0 q0 -10 10 -10 m-226 10 v24 m216 0 v-24 m-216 24 q0 10 10 10 m196 0 q10 0 10 -10 m-206 10 h10 m62 0 h10 m0 0 h114 m-206 -10 v20 m216 0 v-20 m-216 20 v24 m216 0 v-24 m-216 24 q0 10 10 10 m196 0 q10 0 10 -10 m-206 10 h10 m72 0 h10 m0 0 h104 m-206 -10 v20 m216 0 v-20 m-216 20 v24 m216 0 v-24 m-216 24 q0 10 10 10 m196 0 q10 0 10 -10 m-206 10 h10 m50 0 h10 m0 0 h126 m-206 -10 v20 m216 0 v-20 m-216 20 v24 m216 0 v-24 m-216 24 q0 10 10 10 m196 0 q10 0 10 -10 m-206 10 h10 m100 0 h10 m0 0 h76 m-206 -10 v20 m216 0 v-20 m-216 20 v24 m216 0 v-24 m-216 24 q0 10 10 10 m196 0 q10 0 10 -10 m-206 10 h10 m92 0 h10 m0 0 h84 m-206 -10 v20 m216 0 v-20 m-216 20 v24 m216 0 v-24 m-216 24 q0 10 10 10 m196 0 q10 0 10 -10 m-206 10 h10 m84 0 h10 m0 0 h92 m-206 -10 v20 m216 0 v-20 m-216 20 v24 m216 0 v-24 m-216 24 q0 10 10 10 m196 0 q10 0 10 -10 m-206 10 h10 m86 0 h10 m0 0 h90 m-206 -10 v20 m216 0 v-20 m-216 20 v24 m216 0 v-24 m-216 24 q0 10 10 10 m196 0 q10 0 10 -10 m-206 10 h10 m78 0 h10 m0 0 h98 m-206 -10 v20 m216 0 v-20 m-216 20 v24 m216 0 v-24 m-216 24 q0 10 10 10 m196 0 q10 0 10 -10 m-206 10 h10 m66 0 h10 m0 0 h110 m-206 -10 v20 m216 0 v-20 m-216 20 v24 m216 0 v-24 m-216 24 q0 10 10 10 m196 0 q10 0 10 -10 m-206 10 h10 m52 0 h10 m0 0 h10 m104 0 h10 m40 -440 h10 m54 0 h10 m0 0 h10 m80 0 h10 m-194 0 h20 m174 0 h20 m-214 0 q10 0 10 10 m194 0 q0 -10 10 -10 m-204 10 v14 m194 0 v-14 m-194 14 q0 10 10 10 m174 0 q10 0 10 -10 m-184 10 h10 m0 0 h164 m40 -628 h10 m24 0 h10 m3 0 h-3"/>
         <polygon points="707 17 715 13 715 21"/>
         <polygon points="707 17 699 13 699 21"/>
      </svg>
