      <svg xmlns="http://www.w3.org/2000/svg" width="430" height="476">
         <defs>
            <style type="text/css">
               @namespace "http://www.w3.org/2000/svg";
               .line                 {fill: none; stroke: #1F1F1F;}
               .bold-line            {stroke: #0A0A0A; shape-rendering: crispEdges; stroke-width:
               2; }
               .thin-line            {stroke: #0F0F0F; shape-rendering: crispEdges}
               .filled               {fill: #1F1F1F; stroke: none;}
               text.terminal         {font-family: Verdana, Sans-serif;
               font-size: 12px;
               fill: #0A0A0A;
               font-weight: bold;
               }
               text.nonterminal      {font-family: Verdana, Sans-serif; font-style: italic;
               font-size: 12px;
               fill: #0D0D0D;
               }
               text.regexp           {font-family: Verdana, Sans-serif;
               font-size: 12px;
               fill: #0F0F0F;
               }
               rect, circle, polygon {fill: #1F1F1F; stroke: #1F1F1F;}
               rect.terminal         {fill: #CCCCCC; stroke: #1F1F1F;}
               rect.nonterminal      {fill: #E3E3E3; stroke: #1F1F1F;}
               rect.text             {fill: none; stroke: none;}    
               polygon.regexp        {fill: #EFEFEF; stroke: #1F1F1F;}
               
            </style>
         </defs>
         <polygon points="9 17 1 13 1 21"/>
         <polygon points="17 17 9 13 9 21"/>
         <rect x="31" y="3" width="72" height="32" rx="10"/>
         <rect x="29" y="1" width="72" height="32" class="terminal" rx="10"/>
         <text class="terminal" x="39" y="21">SIGNAL</text>
         <rect x="123" y="3" width="46" height="32" rx="10"/>
         <rect x="121" y="1" width="46" height="32" class="terminal" rx="10"/>
         <text class="terminal" x="131" y="21">OFF</text>
         <rect x="209" y="3" width="48" height="32" rx="10"/>
         <rect x="207" y="1" width="48" height="32" class="terminal" rx="10"/>
         <text class="terminal" x="217" y="21">ANY</text>
         <rect x="209" y="47" width="66" height="32" rx="10"/>
         <rect x="207" y="45" width="66" height="32" class="terminal" rx="10"/>
         <text class="terminal" x="217" y="65">ERROR</text>
         <rect x="209" y="91" width="78" height="32" rx="10"/>
         <rect x="207" y="89" width="78" height="32" class="terminal" rx="10"/>
         <text class="terminal" x="217" y="109">FAILURE</text>
         <rect x="209" y="135" width="54" height="32" rx="10"/>
         <rect x="207" y="133" width="54" height="32" class="terminal" rx="10"/>
         <text class="terminal" x="217" y="153">HALT</text>
         <rect x="209" y="179" width="104" height="32" rx="10"/>
         <rect x="207" y="177" width="104" height="32" class="terminal" rx="10"/>
         <text class="terminal" x="217" y="197">LOSTDIGITS</text>
         <rect x="209" y="223" width="96" height="32" rx="10"/>
         <rect x="207" y="221" width="96" height="32" class="terminal" rx="10"/>
         <text class="terminal" x="217" y="241">NOMETHOD</text>
         <rect x="209" y="267" width="92" height="32" rx="10"/>
         <rect x="207" y="265" width="92" height="32" class="terminal" rx="10"/>
         <text class="terminal" x="217" y="285">NOSTRING</text>
         <rect x="209" y="311" width="94" height="32" rx="10"/>
         <rect x="207" y="309" width="94" height="32" class="terminal" rx="10"/>
         <text class="terminal" x="217" y="329">NOTREADY</text>
         <rect x="209" y="355" width="84" height="32" rx="10"/>
         <rect x="207" y="353" width="84" height="32" class="terminal" rx="10"/>
         <text class="terminal" x="217" y="373">NOVALUE</text>
         <rect x="209" y="399" width="74" height="32" rx="10"/>
         <rect x="207" y="397" width="74" height="32" class="terminal" rx="10"/>
         <text class="terminal" x="217" y="417">SYNTAX</text>
         <rect x="209" y="443" width="56" height="32" rx="10"/>
         <rect x="207" y="441" width="56" height="32" class="terminal" rx="10"/>
         <text class="terminal" x="217" y="461">USER</text>
<!--     <a xmlns:xlink="http://www.w3.org/1999/xlink" xlink:href="#usercondition" xlink:title="usercondition"> -->
            <rect x="285" y="443" width="98" height="32"/>
            <rect x="283" y="441" width="98" height="32" class="nonterminal"/>
            <text class="nonterminal" x="293" y="461">usercondition</text>
<!--     </a> -->
         <svg:path xmlns:svg="http://www.w3.org/2000/svg" class="line" d="m17 17 h2 m0 0 h10 m72 0 h10 m0 0 h10 m46 0 h10 m20 0 h10 m48 0 h10 m0 0 h126 m-214 0 h20 m194 0 h20 m-234 0 q10 0 10 10 m214 0 q0 -10 10 -10 m-224 10 v24 m214 0 v-24 m-214 24 q0 10 10 10 m194 0 q10 0 10 -10 m-204 10 h10 m66 0 h10 m0 0 h108 m-204 -10 v20 m214 0 v-20 m-214 20 v24 m214 0 v-24 m-214 24 q0 10 10 10 m194 0 q10 0 10 -10 m-204 10 h10 m78 0 h10 m0 0 h96 m-204 -10 v20 m214 0 v-20 m-214 20 v24 m214 0 v-24 m-214 24 q0 10 10 10 m194 0 q10 0 10 -10 m-204 10 h10 m54 0 h10 m0 0 h120 m-204 -10 v20 m214 0 v-20 m-214 20 v24 m214 0 v-24 m-214 24 q0 10 10 10 m194 0 q10 0 10 -10 m-204 10 h10 m104 0 h10 m0 0 h70 m-204 -10 v20 m214 0 v-20 m-214 20 v24 m214 0 v-24 m-214 24 q0 10 10 10 m194 0 q10 0 10 -10 m-204 10 h10 m96 0 h10 m0 0 h78 m-204 -10 v20 m214 0 v-20 m-214 20 v24 m214 0 v-24 m-214 24 q0 10 10 10 m194 0 q10 0 10 -10 m-204 10 h10 m92 0 h10 m0 0 h82 m-204 -10 v20 m214 0 v-20 m-214 20 v24 m214 0 v-24 m-214 24 q0 10 10 10 m194 0 q10 0 10 -10 m-204 10 h10 m94 0 h10 m0 0 h80 m-204 -10 v20 m214 0 v-20 m-214 20 v24 m214 0 v-24 m-214 24 q0 10 10 10 m194 0 q10 0 10 -10 m-204 10 h10 m84 0 h10 m0 0 h90 m-204 -10 v20 m214 0 v-20 m-214 20 v24 m214 0 v-24 m-214 24 q0 10 10 10 m194 0 q10 0 10 -10 m-204 10 h10 m74 0 h10 m0 0 h100 m-204 -10 v20 m214 0 v-20 m-214 20 v24 m214 0 v-24 m-214 24 q0 10 10 10 m194 0 q10 0 10 -10 m-204 10 h10 m56 0 h10 m0 0 h10 m98 0 h10 m23 -440 h-3"/>
         <polygon points="421 17 429 13 429 21"/>
         <polygon points="421 17 413 13 413 21"/>
      </svg>
