<svg xmlns="http://www.w3.org/2000/svg" width="653" height="477">
         <defs>
            <style type="text/css">
    @namespace "http://www.w3.org/2000/svg";
    .line                 {fill: none; stroke: #1F1F1F;}
    .bold-line            {stroke: #0A0A0A; shape-rendering: crispEdges; stroke-width: 2; }
    .thin-line            {stroke: #0F0F0F; shape-rendering: crispEdges}
    .filled               {fill: #1F1F1F; stroke: none;}
    text.terminal         {font-family: Verdana, Sans-serif;
                            font-size: 12px;
                            fill: #0A0A0A;
                            font-weight: bold;
                          }
    text.nonterminal      {font-family: Verdana, Sans-serif; font-style: italic;
                            font-size: 12px;
                            fill: #0D0D0D;
                            font-weight: normal;
                          }
    text.regexp           {font-family: Verdana, Sans-serif;
                            font-size: 12px;
                            fill: #0F0F0F;
                            font-weight: normal;
                          }
    rect, circle, polygon {fill: #1F1F1F; stroke: #1F1F1F;}
    rect.terminal         {fill: #cccccc; stroke: #1F1F1F;}
    rect.nonterminal      {fill: #E3E3E3; stroke: #1F1F1F;}
    rect.text             {fill: none; stroke: none;}    
    polygon.regexp        {fill: #EFEFEF; stroke: #1F1F1F;}
  </style>
         </defs>
         <polygon points="9 17 1 13 1 21"/>
         <polygon points="17 17 9 13 9 21"/>
         <rect x="31" y="3" width="72" height="32" rx="10"/>
         <rect x="29" y="1" width="72" height="32" class="terminal" rx="10"/>
         <text class="terminal" x="39" y="21">SIGNAL</text>
         <rect x="123" y="3" width="40" height="32" rx="10"/>
         <rect x="121" y="1" width="40" height="32" class="terminal" rx="10"/>
         <text class="terminal" x="131" y="21">ON</text>
         <rect x="203" y="3" width="48" height="32" rx="10"/>
         <rect x="201" y="1" width="48" height="32" class="terminal" rx="10"/>
         <text class="terminal" x="211" y="21">ANY</text>
         <rect x="203" y="47" width="66" height="32" rx="10"/>
         <rect x="201" y="45" width="66" height="32" class="terminal" rx="10"/>
         <text class="terminal" x="211" y="65">ERROR</text>
         <rect x="203" y="91" width="78" height="32" rx="10"/>
         <rect x="201" y="89" width="78" height="32" class="terminal" rx="10"/>
         <text class="terminal" x="211" y="109">FAILURE</text>
         <rect x="203" y="135" width="56" height="32" rx="10"/>
         <rect x="201" y="133" width="56" height="32" class="terminal" rx="10"/>
         <text class="terminal" x="211" y="153">HALT</text>
         <rect x="203" y="179" width="106" height="32" rx="10"/>
         <rect x="201" y="177" width="106" height="32" class="terminal" rx="10"/>
         <text class="terminal" x="211" y="197">LOSTDIGITS</text>
         <rect x="203" y="223" width="100" height="32" rx="10"/>
         <rect x="201" y="221" width="100" height="32" class="terminal" rx="10"/>
         <text class="terminal" x="211" y="241">NOMETHOD</text>
         <rect x="203" y="267" width="94" height="32" rx="10"/>
         <rect x="201" y="265" width="94" height="32" class="terminal" rx="10"/>
         <text class="terminal" x="211" y="285">NOSTRING</text>
         <rect x="203" y="311" width="94" height="32" rx="10"/>
         <rect x="201" y="309" width="94" height="32" class="terminal" rx="10"/>
         <text class="terminal" x="211" y="329">NOTREADY</text>
         <rect x="203" y="355" width="84" height="32" rx="10"/>
         <rect x="201" y="353" width="84" height="32" class="terminal" rx="10"/>
         <text class="terminal" x="211" y="373">NOVALUE</text>
         <rect x="203" y="399" width="74" height="32" rx="10"/>
         <rect x="201" y="397" width="74" height="32" class="terminal" rx="10"/>
         <text class="terminal" x="211" y="417">SYNTAX</text>
         <rect x="203" y="443" width="56" height="32" rx="10"/>
         <rect x="201" y="441" width="56" height="32" class="terminal" rx="10"/>
         <text class="terminal" x="211" y="461">USER</text>
<!--  <a xmlns:xlink="http://www.w3.org/1999/xlink" xlink:href="#usercondition" xlink:title="usercondition"> -->
            <rect x="279" y="443" width="106" height="32"/>
            <rect x="277" y="441" width="106" height="32" class="nonterminal"/>
            <text class="nonterminal" x="287" y="461">usercondition</text><!-- </a> -->
<rect x="445" y="35" width="58" height="32" rx="10"/>
         <rect x="443" y="33" width="58" height="32" class="terminal" rx="10"/>
         <text class="terminal" x="453" y="53">NAME</text>
<!--  <a xmlns:xlink="http://www.w3.org/1999/xlink" xlink:href="#trapname" xlink:title="trapname"> -->
            <rect x="523" y="35" width="82" height="32"/>
            <rect x="521" y="33" width="82" height="32" class="nonterminal"/>
            <text class="nonterminal" x="531" y="53">trapname</text><!-- </a> -->
<svg:path xmlns:svg="http://www.w3.org/2000/svg" class="line" d="m17 17 h2 m0 0 h10 m72 0 h10 m0 0 h10 m40 0 h10 m20 0 h10 m48 0 h10 m0 0 h134 m-222 0 h20 m202 0 h20 m-242 0 q10 0 10 10 m222 0 q0 -10 10 -10 m-232 10 v24 m222 0 v-24 m-222 24 q0 10 10 10 m202 0 q10 0 10 -10 m-212 10 h10 m66 0 h10 m0 0 h116 m-212 -10 v20 m222 0 v-20 m-222 20 v24 m222 0 v-24 m-222 24 q0 10 10 10 m202 0 q10 0 10 -10 m-212 10 h10 m78 0 h10 m0 0 h104 m-212 -10 v20 m222 0 v-20 m-222 20 v24 m222 0 v-24 m-222 24 q0 10 10 10 m202 0 q10 0 10 -10 m-212 10 h10 m56 0 h10 m0 0 h126 m-212 -10 v20 m222 0 v-20 m-222 20 v24 m222 0 v-24 m-222 24 q0 10 10 10 m202 0 q10 0 10 -10 m-212 10 h10 m106 0 h10 m0 0 h76 m-212 -10 v20 m222 0 v-20 m-222 20 v24 m222 0 v-24 m-222 24 q0 10 10 10 m202 0 q10 0 10 -10 m-212 10 h10 m100 0 h10 m0 0 h82 m-212 -10 v20 m222 0 v-20 m-222 20 v24 m222 0 v-24 m-222 24 q0 10 10 10 m202 0 q10 0 10 -10 m-212 10 h10 m94 0 h10 m0 0 h88 m-212 -10 v20 m222 0 v-20 m-222 20 v24 m222 0 v-24 m-222 24 q0 10 10 10 m202 0 q10 0 10 -10 m-212 10 h10 m94 0 h10 m0 0 h88 m-212 -10 v20 m222 0 v-20 m-222 20 v24 m222 0 v-24 m-222 24 q0 10 10 10 m202 0 q10 0 10 -10 m-212 10 h10 m84 0 h10 m0 0 h98 m-212 -10 v20 m222 0 v-20 m-222 20 v24 m222 0 v-24 m-222 24 q0 10 10 10 m202 0 q10 0 10 -10 m-212 10 h10 m74 0 h10 m0 0 h108 m-212 -10 v20 m222 0 v-20 m-222 20 v24 m222 0 v-24 m-222 24 q0 10 10 10 m202 0 q10 0 10 -10 m-212 10 h10 m56 0 h10 m0 0 h10 m106 0 h10 m40 -440 h10 m0 0 h170 m-200 0 h20 m180 0 h20 m-220 0 q10 0 10 10 m200 0 q0 -10 10 -10 m-210 10 v12 m200 0 v-12 m-200 12 q0 10 10 10 m180 0 q10 0 10 -10 m-190 10 h10 m58 0 h10 m0 0 h10 m82 0 h10 m23 -32 h-3"/>
         <polygon points="643 17 651 13 651 21"/>
         <polygon points="643 17 635 13 635 21"/></svg>
