      <svg xmlns="http://www.w3.org/2000/svg" width="648" height="476">
         <defs>
            <style type="text/css">
               @namespace "http://www.w3.org/2000/svg";
               .line                 {fill: none; stroke: #1F1F1F;}
               .bold-line            {stroke: #0A0A0A; shape-rendering: crispEdges; stroke-width:
               2; }
               .thin-line            {stroke: #0F0F0F; shape-rendering: crispEdges}
               .filled               {fill: #1F1F1F; stroke: none;}
               text.terminal         {font-family: Verdana, Sans-serif;
               font-size: 12px;
               fill: #0A0A0A;
               font-weight: bold;
               }
               text.nonterminal      {font-family: Verdana, Sans-serif; font-style: italic;
               font-size: 12px;
               fill: #0D0D0D;
               }
               text.regexp           {font-family: Verdana, Sans-serif;
               font-size: 12px;
               fill: #0F0F0F;
               }
               rect, circle, polygon {fill: #1F1F1F; stroke: #1F1F1F;}
               rect.terminal         {fill: #CCCCCC; stroke: #1F1F1F;}
               rect.nonterminal      {fill: #E3E3E3; stroke: #1F1F1F;}
               rect.text             {fill: none; stroke: none;}    
               polygon.regexp        {fill: #EFEFEF; stroke: #1F1F1F;}
               
            </style>
         </defs>
         <polygon points="9 17 1 13 1 21"/>
         <polygon points="17 17 9 13 9 21"/>
         <rect x="31" y="3" width="72" height="32" rx="10"/>
         <rect x="29" y="1" width="72" height="32" class="terminal" rx="10"/>
         <text class="terminal" x="39" y="21">SIGNAL</text>
         <rect x="123" y="3" width="40" height="32" rx="10"/>
         <rect x="121" y="1" width="40" height="32" class="terminal" rx="10"/>
         <text class="terminal" x="131" y="21">ON</text>
         <rect x="203" y="3" width="48" height="32" rx="10"/>
         <rect x="201" y="1" width="48" height="32" class="terminal" rx="10"/>
         <text class="terminal" x="211" y="21">ANY</text>
         <rect x="203" y="47" width="66" height="32" rx="10"/>
         <rect x="201" y="45" width="66" height="32" class="terminal" rx="10"/>
         <text class="terminal" x="211" y="65">ERROR</text>
         <rect x="203" y="91" width="78" height="32" rx="10"/>
         <rect x="201" y="89" width="78" height="32" class="terminal" rx="10"/>
         <text class="terminal" x="211" y="109">FAILURE</text>
         <rect x="203" y="135" width="54" height="32" rx="10"/>
         <rect x="201" y="133" width="54" height="32" class="terminal" rx="10"/>
         <text class="terminal" x="211" y="153">HALT</text>
         <rect x="203" y="179" width="104" height="32" rx="10"/>
         <rect x="201" y="177" width="104" height="32" class="terminal" rx="10"/>
         <text class="terminal" x="211" y="197">LOSTDIGITS</text>
         <rect x="203" y="223" width="98" height="32" rx="10"/>
         <rect x="201" y="221" width="98" height="32" class="terminal" rx="10"/>
         <text class="terminal" x="211" y="241">NOMETHOD</text>
         <rect x="203" y="267" width="92" height="32" rx="10"/>
         <rect x="201" y="265" width="92" height="32" class="terminal" rx="10"/>
         <text class="terminal" x="211" y="285">NOSTRING</text>
         <rect x="203" y="311" width="94" height="32" rx="10"/>
         <rect x="201" y="309" width="94" height="32" class="terminal" rx="10"/>
         <text class="terminal" x="211" y="329">NOTREADY</text>
         <rect x="203" y="355" width="84" height="32" rx="10"/>
         <rect x="201" y="353" width="84" height="32" class="terminal" rx="10"/>
         <text class="terminal" x="211" y="373">NOVALUE</text>
         <rect x="203" y="399" width="74" height="32" rx="10"/>
         <rect x="201" y="397" width="74" height="32" class="terminal" rx="10"/>
         <text class="terminal" x="211" y="417">SYNTAX</text>
         <rect x="203" y="443" width="56" height="32" rx="10"/>
         <rect x="201" y="441" width="56" height="32" class="terminal" rx="10"/>
         <text class="terminal" x="211" y="461">USER</text>
<!--     <a xmlns:xlink="http://www.w3.org/1999/xlink" xlink:href="#usercondition" xlink:title="usercondition"> -->
            <rect x="279" y="443" width="104" height="32"/>
            <rect x="277" y="441" width="104" height="32" class="nonterminal"/>
            <text class="nonterminal" x="287" y="461">usercondition</text>
<!--     </a> -->
         <rect x="443" y="35" width="58" height="32" rx="10"/>
         <rect x="441" y="33" width="58" height="32" class="terminal" rx="10"/>
         <text class="terminal" x="451" y="53">NAME</text>
<!--     <a xmlns:xlink="http://www.w3.org/1999/xlink" xlink:href="#trapname" xlink:title="trapname"> -->
            <rect x="521" y="35" width="80" height="32"/>
            <rect x="519" y="33" width="80" height="32" class="nonterminal"/>
            <text class="nonterminal" x="529" y="53">trapname</text>
<!--     </a> -->
         <svg:path xmlns:svg="http://www.w3.org/2000/svg" class="line" d="m17 17 h2 m0 0 h10 m72 0 h10 m0 0 h10 m40 0 h10 m20 0 h10 m48 0 h10 m0 0 h132 m-220 0 h20 m200 0 h20 m-240 0 q10 0 10 10 m220 0 q0 -10 10 -10 m-230 10 v24 m220 0 v-24 m-220 24 q0 10 10 10 m200 0 q10 0 10 -10 m-210 10 h10 m66 0 h10 m0 0 h114 m-210 -10 v20 m220 0 v-20 m-220 20 v24 m220 0 v-24 m-220 24 q0 10 10 10 m200 0 q10 0 10 -10 m-210 10 h10 m78 0 h10 m0 0 h102 m-210 -10 v20 m220 0 v-20 m-220 20 v24 m220 0 v-24 m-220 24 q0 10 10 10 m200 0 q10 0 10 -10 m-210 10 h10 m54 0 h10 m0 0 h126 m-210 -10 v20 m220 0 v-20 m-220 20 v24 m220 0 v-24 m-220 24 q0 10 10 10 m200 0 q10 0 10 -10 m-210 10 h10 m104 0 h10 m0 0 h76 m-210 -10 v20 m220 0 v-20 m-220 20 v24 m220 0 v-24 m-220 24 q0 10 10 10 m200 0 q10 0 10 -10 m-210 10 h10 m98 0 h10 m0 0 h82 m-210 -10 v20 m220 0 v-20 m-220 20 v24 m220 0 v-24 m-220 24 q0 10 10 10 m200 0 q10 0 10 -10 m-210 10 h10 m92 0 h10 m0 0 h88 m-210 -10 v20 m220 0 v-20 m-220 20 v24 m220 0 v-24 m-220 24 q0 10 10 10 m200 0 q10 0 10 -10 m-210 10 h10 m94 0 h10 m0 0 h86 m-210 -10 v20 m220 0 v-20 m-220 20 v24 m220 0 v-24 m-220 24 q0 10 10 10 m200 0 q10 0 10 -10 m-210 10 h10 m84 0 h10 m0 0 h96 m-210 -10 v20 m220 0 v-20 m-220 20 v24 m220 0 v-24 m-220 24 q0 10 10 10 m200 0 q10 0 10 -10 m-210 10 h10 m74 0 h10 m0 0 h106 m-210 -10 v20 m220 0 v-20 m-220 20 v24 m220 0 v-24 m-220 24 q0 10 10 10 m200 0 q10 0 10 -10 m-210 10 h10 m56 0 h10 m0 0 h10 m104 0 h10 m40 -440 h10 m0 0 h168 m-198 0 h20 m178 0 h20 m-218 0 q10 0 10 10 m198 0 q0 -10 10 -10 m-208 10 v12 m198 0 v-12 m-198 12 q0 10 10 10 m178 0 q10 0 10 -10 m-188 10 h10 m58 0 h10 m0 0 h10 m80 0 h10 m23 -32 h-3"/>
         <polygon points="639 17 647 13 647 21"/>
         <polygon points="639 17 631 13 631 21"/>
      </svg>
