      <svg xmlns="http://www.w3.org/2000/svg" width="398" height="112">
         <defs>
            <style type="text/css">
               @namespace "http://www.w3.org/2000/svg";
               .line                 {fill: none; stroke: #1F1F1F;}
               .bold-line            {stroke: #0A0A0A; shape-rendering: crispEdges; stroke-width:
               2; }
               .thin-line            {stroke: #0F0F0F; shape-rendering: crispEdges}
               .filled               {fill: #1F1F1F; stroke: none;}
               text.terminal         {font-family: Verdana, Sans-serif;
               font-size: 12px;
               fill: #0A0A0A;
               font-weight: bold;
               }
               text.nonterminal      {font-family: Verdana, Sans-serif; font-style: italic;
               font-size: 12px;
               fill: #0D0D0D;
               }
               text.regexp           {font-family: Verdana, Sans-serif;
               font-size: 12px;
               fill: #0F0F0F;
               }
               rect, circle, polygon {fill: #1F1F1F; stroke: #1F1F1F;}
               rect.terminal         {fill: #CCCCCC; stroke: #1F1F1F;}
               rect.nonterminal      {fill: #E3E3E3; stroke: #1F1F1F;}
               rect.text             {fill: none; stroke: none;}    
               polygon.regexp        {fill: #EFEFEF; stroke: #1F1F1F;}
               
            </style>
         </defs>
         <polygon points="9 17 1 13 1 21"/>
         <polygon points="17 17 9 13 9 21"/>
         <rect x="31" y="3" width="72" height="32" rx="10"/>
         <rect x="29" y="1" width="72" height="32" class="terminal" rx="10"/>
         <text class="terminal" x="39" y="21">SIGNAL</text>
<!--     <a xmlns:xlink="http://www.w3.org/1999/xlink" xlink:href="#labelname" xlink:title="labelname"> -->
            <rect x="143" y="3" width="80" height="32"/>
            <rect x="141" y="1" width="80" height="32" class="nonterminal"/>
            <text class="nonterminal" x="151" y="21">labelname</text>
<!--     </a> -->
         <rect x="163" y="79" width="64" height="32" rx="10"/>
         <rect x="161" y="77" width="64" height="32" class="terminal" rx="10"/>
         <text class="terminal" x="171" y="97">VALUE</text>
<!--     <a xmlns:xlink="http://www.w3.org/1999/xlink" xlink:href="#expression" xlink:title="expression"> -->
            <rect x="267" y="47" width="84" height="32"/>
            <rect x="265" y="45" width="84" height="32" class="nonterminal"/>
            <text class="nonterminal" x="275" y="65">expression</text>
<!--     </a> -->
         <svg:path xmlns:svg="http://www.w3.org/2000/svg" class="line" d="m17 17 h2 m0 0 h10 m72 0 h10 m20 0 h10 m80 0 h10 m0 0 h128 m-248 0 h20 m228 0 h20 m-268 0 q10 0 10 10 m248 0 q0 -10 10 -10 m-258 10 v24 m248 0 v-24 m-248 24 q0 10 10 10 m228 0 q10 0 10 -10 m-218 10 h10 m0 0 h74 m-104 0 h20 m84 0 h20 m-124 0 q10 0 10 10 m104 0 q0 -10 10 -10 m-114 10 v12 m104 0 v-12 m-104 12 q0 10 10 10 m84 0 q10 0 10 -10 m-94 10 h10 m64 0 h10 m20 -32 h10 m84 0 h10 m23 -44 h-3"/>
         <polygon points="389 17 397 13 397 21"/>
         <polygon points="389 17 381 13 381 21"/>
      </svg>
