      <svg xmlns="http://www.w3.org/2000/svg" width="500" height="470">
         <defs>
            <style type="text/css">
               @namespace "http://www.w3.org/2000/svg";
               .line                 {fill: none; stroke: #1F1F1F;}
               .bold-line            {stroke: #0A0A0A; shape-rendering: crispEdges; stroke-width:
               2; }
               .thin-line            {stroke: #0F0F0F; shape-rendering: crispEdges}
               .filled               {fill: #1F1F1F; stroke: none;}
               text.terminal         {font-family: Verdana, Sans-serif;
               font-size: 12px;
               fill: #0A0A0A;
               font-weight: bold;
               }
               text.nonterminal      {font-family: Verdana, Sans-serif;
               font-size: 12px;
               fill: #0D0D0D;
               }
               text.regexp           {font-family: Verdana, Sans-serif;
               font-size: 12px;
               fill: #0F0F0F;
               }
               rect, circle, polygon {fill: #1F1F1F; stroke: #1F1F1F;}
               rect.terminal         {fill: #CCCCCC; stroke: #1F1F1F;}
               rect.nonterminal      {fill: #E3E3E3; stroke: #1F1F1F;}
               rect.text             {fill: none; stroke: none;}    
               polygon.regexp        {fill: #EFEFEF; stroke: #1F1F1F;}
               
            </style>
         </defs>
         <polygon points="9 17 1 13 1 21"/>
         <polygon points="17 17 9 13 9 21"/>
         <a xmlns:xlink="http://www.w3.org/1999/xlink" xlink:href="#TRACE" xlink:title="TRACE">
            <rect x="31" y="3" width="60" height="32"/>
            <rect x="29" y="1" width="60" height="32" class="nonterminal"/>
            <text class="nonterminal" x="39" y="21">TRACE</text>
         </a>
         <a xmlns:xlink="http://www.w3.org/1999/xlink" xlink:href="#number" xlink:title="number">
            <rect x="131" y="3" width="68" height="32"/>
            <rect x="129" y="1" width="68" height="32" class="nonterminal"/>
            <text class="nonterminal" x="139" y="21">number</text>
         </a>
         <rect x="171" y="69" width="26" height="32" rx="10"/>
         <rect x="169" y="67" width="26" height="32" class="terminal" rx="10"/>
         <text class="terminal" x="179" y="87">?</text>
         <rect x="277" y="69" width="68" height="32" rx="10"/>
         <rect x="275" y="67" width="68" height="32" class="terminal" rx="10"/>
         <text class="terminal" x="285" y="87">Normal</text>
         <rect x="277" y="113" width="36" height="32" rx="10"/>
         <rect x="275" y="111" width="36" height="32" class="terminal" rx="10"/>
         <text class="terminal" x="285" y="131">All</text>
         <rect x="277" y="157" width="92" height="32" rx="10"/>
         <rect x="275" y="155" width="92" height="32" class="terminal" rx="10"/>
         <text class="terminal" x="285" y="175">Commands</text>
         <rect x="277" y="201" width="54" height="32" rx="10"/>
         <rect x="275" y="199" width="54" height="32" class="terminal" rx="10"/>
         <text class="terminal" x="285" y="219">Error</text>
         <rect x="277" y="245" width="66" height="32" rx="10"/>
         <rect x="275" y="243" width="66" height="32" class="terminal" rx="10"/>
         <text class="terminal" x="285" y="263">Failure</text>
         <rect x="277" y="289" width="112" height="32" rx="10"/>
         <rect x="275" y="287" width="112" height="32" class="terminal" rx="10"/>
         <text class="terminal" x="285" y="307">Intermediates</text>
         <rect x="277" y="333" width="62" height="32" rx="10"/>
         <rect x="275" y="331" width="62" height="32" class="terminal" rx="10"/>
         <text class="terminal" x="285" y="351">Labels</text>
         <rect x="277" y="377" width="40" height="32" rx="10"/>
         <rect x="275" y="375" width="40" height="32" class="terminal" rx="10"/>
         <text class="terminal" x="285" y="395">Off</text>
         <rect x="277" y="421" width="68" height="32" rx="10"/>
         <rect x="275" y="419" width="68" height="32" class="terminal" rx="10"/>
         <text class="terminal" x="285" y="439">Results</text>
         <rect x="449" y="3" width="24" height="32" rx="10"/>
         <rect x="447" y="1" width="24" height="32" class="terminal" rx="10"/>
         <text class="terminal" x="457" y="21">;</text>
         <svg:path xmlns:svg="http://www.w3.org/2000/svg" class="line" d="m17 17 h2 m0 0 h10 m60 0 h10 m20 0 h10 m68 0 h10 m0 0 h210 m-318 0 h20 m298 0 h20 m-338 0 q10 0 10 10 m318 0 q0 -10 10 -10 m-328 10 v46 m318 0 v-46 m-318 46 q0 10 10 10 m298 0 q10 0 10 -10 m-268 10 h10 m26 0 h10 m-66 0 l20 0 m-1 0 q-9 0 -9 -10 l0 -12 q0 -10 10 -10 m46 32 l20 0 m-20 0 q10 0 10 -10 l0 -12 q0 -10 -10 -10 m-46 0 h10 m0 0 h36 m-86 32 h20 m86 0 h20 m-126 0 q10 0 10 10 m106 0 q0 -10 10 -10 m-116 10 v14 m106 0 v-14 m-106 14 q0 10 10 10 m86 0 q10 0 10 -10 m-96 10 h10 m0 0 h76 m40 -34 h10 m68 0 h10 m0 0 h44 m-152 0 h20 m132 0 h20 m-172 0 q10 0 10 10 m152 0 q0 -10 10 -10 m-162 10 v24 m152 0 v-24 m-152 24 q0 10 10 10 m132 0 q10 0 10 -10 m-142 10 h10 m36 0 h10 m0 0 h76 m-142 -10 v20 m152 0 v-20 m-152 20 v24 m152 0 v-24 m-152 24 q0 10 10 10 m132 0 q10 0 10 -10 m-142 10 h10 m92 0 h10 m0 0 h20 m-142 -10 v20 m152 0 v-20 m-152 20 v24 m152 0 v-24 m-152 24 q0 10 10 10 m132 0 q10 0 10 -10 m-142 10 h10 m54 0 h10 m0 0 h58 m-142 -10 v20 m152 0 v-20 m-152 20 v24 m152 0 v-24 m-152 24 q0 10 10 10 m132 0 q10 0 10 -10 m-142 10 h10 m66 0 h10 m0 0 h46 m-142 -10 v20 m152 0 v-20 m-152 20 v24 m152 0 v-24 m-152 24 q0 10 10 10 m132 0 q10 0 10 -10 m-142 10 h10 m112 0 h10 m-142 -10 v20 m152 0 v-20 m-152 20 v24 m152 0 v-24 m-152 24 q0 10 10 10 m132 0 q10 0 10 -10 m-142 10 h10 m62 0 h10 m0 0 h50 m-142 -10 v20 m152 0 v-20 m-152 20 v24 m152 0 v-24 m-152 24 q0 10 10 10 m132 0 q10 0 10 -10 m-142 10 h10 m40 0 h10 m0 0 h72 m-142 -10 v20 m152 0 v-20 m-152 20 v24 m152 0 v-24 m-152 24 q0 10 10 10 m132 0 q10 0 10 -10 m-142 10 h10 m68 0 h10 m0 0 h44 m-142 -10 v20 m152 0 v-20 m-152 20 v14 m152 0 v-14 m-152 14 q0 10 10 10 m132 0 q10 0 10 -10 m-142 10 h10 m0 0 h122 m40 -452 h10 m24 0 h10 m3 0 h-3"/>
         <polygon points="491 17 499 13 499 21"/>
         <polygon points="491 17 483 13 483 21"/>
      </svg>
