<svg xmlns="http://www.w3.org/2000/svg" width="425" height="631">
         <defs>
            <style type="text/css">
    @namespace "http://www.w3.org/2000/svg";
    .line                 {fill: none; stroke: #1F1F1F;}
    .bold-line            {stroke: #0A0A0A; shape-rendering: crispEdges; stroke-width: 2; }
    .thin-line            {stroke: #0F0F0F; shape-rendering: crispEdges}
    .filled               {fill: #1F1F1F; stroke: none;}
    text.terminal         {font-family: Verdana, Sans-serif;
                            font-size: 12px;
                            fill: #0A0A0A;
                            font-weight: bold;
                          }
    text.nonterminal      {font-family: Verdana, Sans-serif; font-style: italic;
                            font-size: 12px;
                            fill: #0D0D0D;
                            font-weight: normal;
                          }
    text.regexp           {font-family: Verdana, Sans-serif;
                            font-size: 12px;
                            fill: #0F0F0F;
                            font-weight: normal;
                          }
    rect, circle, polygon {fill: #1F1F1F; stroke: #1F1F1F;}
    rect.terminal         {fill: #cccccc; stroke: #1F1F1F;}
    rect.nonterminal      {fill: #E3E3E3; stroke: #1F1F1F;}
    rect.text             {fill: none; stroke: none;}    
    polygon.regexp        {fill: #EFEFEF; stroke: #1F1F1F;}
  </style>
         </defs>
         <polygon points="9 51 1 47 1 55"/>
         <polygon points="17 51 9 47 9 55"/>
         <rect x="31" y="37" width="64" height="32" rx="10"/>
         <rect x="29" y="35" width="64" height="32" class="terminal" rx="10"/>
         <text class="terminal" x="39" y="55">TRACE</text>
         <rect x="155" y="3" width="26" height="32" rx="10"/>
         <rect x="153" y="1" width="26" height="32" class="terminal" rx="10"/>
         <text class="terminal" x="163" y="21">?</text>
         <rect x="241" y="69" width="68" height="32" rx="10"/>
         <rect x="239" y="67" width="68" height="32" class="terminal" rx="10"/>
         <text class="terminal" x="249" y="87">Normal</text>
         <rect x="241" y="113" width="38" height="32" rx="10"/>
         <rect x="239" y="111" width="38" height="32" class="terminal" rx="10"/>
         <text class="terminal" x="249" y="131">All</text>
         <rect x="241" y="157" width="94" height="32" rx="10"/>
         <rect x="239" y="155" width="94" height="32" class="terminal" rx="10"/>
         <text class="terminal" x="249" y="175">Commands</text>
         <rect x="241" y="201" width="54" height="32" rx="10"/>
         <rect x="239" y="199" width="54" height="32" class="terminal" rx="10"/>
         <text class="terminal" x="249" y="219">Error</text>
         <rect x="241" y="245" width="66" height="32" rx="10"/>
         <rect x="239" y="243" width="66" height="32" class="terminal" rx="10"/>
         <text class="terminal" x="249" y="263">Failure</text>
         <rect x="241" y="289" width="116" height="32" rx="10"/>
         <rect x="239" y="287" width="116" height="32" class="terminal" rx="10"/>
         <text class="terminal" x="249" y="307">Intermediates</text>
         <rect x="241" y="333" width="64" height="32" rx="10"/>
         <rect x="239" y="331" width="64" height="32" class="terminal" rx="10"/>
         <text class="terminal" x="249" y="351">Labels</text>
         <rect x="241" y="377" width="40" height="32" rx="10"/>
         <rect x="239" y="375" width="40" height="32" class="terminal" rx="10"/>
         <text class="terminal" x="249" y="395">Off</text>
         <rect x="241" y="421" width="70" height="32" rx="10"/>
         <rect x="239" y="419" width="70" height="32" class="terminal" rx="10"/>
         <text class="terminal" x="249" y="439">Results</text>
<!--  <a xmlns:xlink="http://www.w3.org/1999/xlink" xlink:href="#number" xlink:title="number"> -->
            <rect x="135" y="465" width="68" height="32"/>
            <rect x="133" y="463" width="68" height="32" class="nonterminal"/>
            <text class="nonterminal" x="143" y="483">number</text><!-- </a> -->
<!--  <a xmlns:xlink="http://www.w3.org/1999/xlink" xlink:href="#string" xlink:title="string"> -->
            <rect x="135" y="509" width="56" height="32"/>
            <rect x="133" y="507" width="56" height="32" class="nonterminal"/>
            <text class="nonterminal" x="143" y="527">string</text><!-- </a> -->
<!--  <a xmlns:xlink="http://www.w3.org/1999/xlink" xlink:href="#symbol" xlink:title="symbol"> -->
            <rect x="135" y="553" width="64" height="32"/>
            <rect x="133" y="551" width="64" height="32" class="nonterminal"/>
            <text class="nonterminal" x="143" y="571">symbol</text><!-- </a> -->
<rect x="135" y="597" width="64" height="32" rx="10"/>
         <rect x="133" y="595" width="64" height="32" class="terminal" rx="10"/>
         <text class="terminal" x="143" y="615">VALUE</text>
<!--  <a xmlns:xlink="http://www.w3.org/1999/xlink" xlink:href="#expression" xlink:title="expression"> -->
            <rect x="219" y="597" width="90" height="32"/>
            <rect x="217" y="595" width="90" height="32" class="nonterminal"/>
            <text class="nonterminal" x="227" y="615">expression</text><!-- </a> -->
<svg:path xmlns:svg="http://www.w3.org/2000/svg" class="line" d="m17 51 h2 m0 0 h10 m64 0 h10 m40 0 h10 m0 0 h36 m-66 0 l20 0 m-1 0 q-9 0 -9 -10 l0 -14 q0 -10 10 -10 m46 34 l20 0 m-20 0 q10 0 10 -10 l0 -14 q0 -10 -10 -10 m-46 0 h10 m26 0 h10 m40 34 h10 m0 0 h126 m-156 0 h20 m136 0 h20 m-176 0 q10 0 10 10 m156 0 q0 -10 10 -10 m-166 10 v12 m156 0 v-12 m-156 12 q0 10 10 10 m136 0 q10 0 10 -10 m-146 10 h10 m68 0 h10 m0 0 h48 m-146 -10 v20 m156 0 v-20 m-156 20 v24 m156 0 v-24 m-156 24 q0 10 10 10 m136 0 q10 0 10 -10 m-146 10 h10 m38 0 h10 m0 0 h78 m-146 -10 v20 m156 0 v-20 m-156 20 v24 m156 0 v-24 m-156 24 q0 10 10 10 m136 0 q10 0 10 -10 m-146 10 h10 m94 0 h10 m0 0 h22 m-146 -10 v20 m156 0 v-20 m-156 20 v24 m156 0 v-24 m-156 24 q0 10 10 10 m136 0 q10 0 10 -10 m-146 10 h10 m54 0 h10 m0 0 h62 m-146 -10 v20 m156 0 v-20 m-156 20 v24 m156 0 v-24 m-156 24 q0 10 10 10 m136 0 q10 0 10 -10 m-146 10 h10 m66 0 h10 m0 0 h50 m-146 -10 v20 m156 0 v-20 m-156 20 v24 m156 0 v-24 m-156 24 q0 10 10 10 m136 0 q10 0 10 -10 m-146 10 h10 m116 0 h10 m-146 -10 v20 m156 0 v-20 m-156 20 v24 m156 0 v-24 m-156 24 q0 10 10 10 m136 0 q10 0 10 -10 m-146 10 h10 m64 0 h10 m0 0 h52 m-146 -10 v20 m156 0 v-20 m-156 20 v24 m156 0 v-24 m-156 24 q0 10 10 10 m136 0 q10 0 10 -10 m-146 10 h10 m40 0 h10 m0 0 h76 m-146 -10 v20 m156 0 v-20 m-156 20 v24 m156 0 v-24 m-156 24 q0 10 10 10 m136 0 q10 0 10 -10 m-146 10 h10 m70 0 h10 m0 0 h46 m-262 -384 h20 m262 0 h20 m-302 0 q10 0 10 10 m282 0 q0 -10 10 -10 m-292 10 v408 m282 0 v-408 m-282 408 q0 10 10 10 m262 0 q10 0 10 -10 m-272 10 h10 m68 0 h10 m0 0 h174 m-272 -10 v20 m282 0 v-20 m-282 20 v24 m282 0 v-24 m-282 24 q0 10 10 10 m262 0 q10 0 10 -10 m-272 10 h10 m56 0 h10 m0 0 h186 m-272 -10 v20 m282 0 v-20 m-282 20 v24 m282 0 v-24 m-282 24 q0 10 10 10 m262 0 q10 0 10 -10 m-272 10 h10 m64 0 h10 m0 0 h178 m-272 -10 v20 m282 0 v-20 m-282 20 v24 m282 0 v-24 m-282 24 q0 10 10 10 m262 0 q10 0 10 -10 m-272 10 h10 m64 0 h10 m0 0 h10 m90 0 h10 m0 0 h68 m23 -560 h-3"/>
         <polygon points="415 51 423 47 423 55"/>
         <polygon points="415 51 407 47 407 55"/></svg>
