      <svg xmlns="http://www.w3.org/2000/svg" width="462" height="652">
         <defs>
            <style type="text/css">
               @namespace "http://www.w3.org/2000/svg";
               .line                 {fill: none; stroke: #1F1F1F;}
               .bold-line            {stroke: #0A0A0A; shape-rendering: crispEdges; stroke-width:
               2; }
               .thin-line            {stroke: #0F0F0F; shape-rendering: crispEdges}
               .filled               {fill: #1F1F1F; stroke: none;}
               text.terminal         {font-family: Verdana, Sans-serif;
               font-size: 12px;
               fill: #0A0A0A;
               font-weight: bold;
               }
               text.nonterminal      {font-family: Verdana, Sans-serif; font-style: italic;
               font-size: 12px;
               fill: #0D0D0D;
               }
               text.regexp           {font-family: Verdana, Sans-serif;
               font-size: 12px;
               fill: #0F0F0F;
               }
               rect, circle, polygon {fill: #1F1F1F; stroke: #1F1F1F;}
               rect.terminal         {fill: #CCCCCC; stroke: #1F1F1F;}
               rect.nonterminal      {fill: #E3E3E3; stroke: #1F1F1F;}
               rect.text             {fill: none; stroke: none;}    
               polygon.regexp        {fill: #EFEFEF; stroke: #1F1F1F;}
               
            </style>
         </defs>
         <polygon points="9 17 1 13 1 21"/>
         <polygon points="17 17 9 13 9 21"/>
         <rect x="31" y="3" width="62" height="32" rx="10"/>
         <rect x="29" y="1" width="62" height="32" class="terminal" rx="10"/>
         <text class="terminal" x="39" y="21">TRACE</text>
<!--     <a xmlns:xlink="http://www.w3.org/1999/xlink" xlink:href="#number" xlink:title="number"> -->
            <rect x="133" y="3" width="68" height="32"/>
            <rect x="131" y="1" width="68" height="32" class="nonterminal"/>
            <text class="nonterminal" x="141" y="21">number</text>
<!--     </a> -->
         <rect x="153" y="47" width="26" height="32" rx="10"/>
         <rect x="151" y="45" width="26" height="32" class="terminal" rx="10"/>
         <text class="terminal" x="161" y="65">?</text>
         <rect x="239" y="81" width="68" height="32" rx="10"/>
         <rect x="237" y="79" width="68" height="32" class="terminal" rx="10"/>
         <text class="terminal" x="247" y="99">Normal</text>
         <rect x="239" y="125" width="36" height="32" rx="10"/>
         <rect x="237" y="123" width="36" height="32" class="terminal" rx="10"/>
         <text class="terminal" x="247" y="143">All</text>
         <rect x="239" y="169" width="92" height="32" rx="10"/>
         <rect x="237" y="167" width="92" height="32" class="terminal" rx="10"/>
         <text class="terminal" x="247" y="187">Commands</text>
         <rect x="239" y="213" width="54" height="32" rx="10"/>
         <rect x="237" y="211" width="54" height="32" class="terminal" rx="10"/>
         <text class="terminal" x="247" y="231">Error</text>
         <rect x="239" y="257" width="66" height="32" rx="10"/>
         <rect x="237" y="255" width="66" height="32" class="terminal" rx="10"/>
         <text class="terminal" x="247" y="275">Failure</text>
         <rect x="239" y="301" width="112" height="32" rx="10"/>
         <rect x="237" y="299" width="112" height="32" class="terminal" rx="10"/>
         <text class="terminal" x="247" y="319">Intermediates</text>
         <rect x="239" y="345" width="62" height="32" rx="10"/>
         <rect x="237" y="343" width="62" height="32" class="terminal" rx="10"/>
         <text class="terminal" x="247" y="363">Labels</text>
         <rect x="239" y="389" width="40" height="32" rx="10"/>
         <rect x="237" y="387" width="40" height="32" class="terminal" rx="10"/>
         <text class="terminal" x="247" y="407">Off</text>
         <rect x="239" y="433" width="68" height="32" rx="10"/>
         <rect x="237" y="431" width="68" height="32" class="terminal" rx="10"/>
         <text class="terminal" x="247" y="451">Results</text>
<!--     <a xmlns:xlink="http://www.w3.org/1999/xlink" xlink:href="#string" xlink:title="string"> -->
            <rect x="133" y="499" width="56" height="32"/>
            <rect x="131" y="497" width="56" height="32" class="nonterminal"/>
            <text class="nonterminal" x="141" y="517">string</text>
<!--     </a> -->
<!--     <a xmlns:xlink="http://www.w3.org/1999/xlink" xlink:href="#symbol" xlink:title="symbol"> -->
            <rect x="133" y="543" width="64" height="32"/>
            <rect x="131" y="541" width="64" height="32" class="nonterminal"/>
            <text class="nonterminal" x="141" y="561">symbol</text>
<!--     </a> -->
         <rect x="153" y="587" width="64" height="32" rx="10"/>
         <rect x="151" y="585" width="64" height="32" class="terminal" rx="10"/>
         <text class="terminal" x="161" y="605">VALUE</text>
<!--     <a xmlns:xlink="http://www.w3.org/1999/xlink" xlink:href="#expression" xlink:title="expression"> -->
            <rect x="257" y="587" width="88" height="32"/>
            <rect x="255" y="585" width="88" height="32" class="nonterminal"/>
            <text class="nonterminal" x="265" y="605">expression</text>
<!--     </a> -->
         <rect x="411" y="3" width="24" height="32" rx="10"/>
         <rect x="409" y="1" width="24" height="32" class="terminal" rx="10"/>
         <text class="terminal" x="419" y="21">;</text>
         <svg:path xmlns:svg="http://www.w3.org/2000/svg" class="line" d="m17 17 h2 m0 0 h10 m62 0 h10 m20 0 h10 m68 0 h10 m0 0 h170 m-278 0 h20 m258 0 h20 m-298 0 q10 0 10 10 m278 0 q0 -10 10 -10 m-288 10 v58 m278 0 v-58 m-278 58 q0 10 10 10 m258 0 q10 0 10 -10 m-248 10 h10 m0 0 h36 m-66 0 l20 0 m-1 0 q-9 0 -9 -10 l0 -14 q0 -10 10 -10 m46 34 l20 0 m-20 0 q10 0 10 -10 l0 -14 q0 -10 -10 -10 m-46 0 h10 m26 0 h10 m40 34 h10 m68 0 h10 m0 0 h44 m-152 0 h20 m132 0 h20 m-172 0 q10 0 10 10 m152 0 q0 -10 10 -10 m-162 10 v24 m152 0 v-24 m-152 24 q0 10 10 10 m132 0 q10 0 10 -10 m-142 10 h10 m36 0 h10 m0 0 h76 m-142 -10 v20 m152 0 v-20 m-152 20 v24 m152 0 v-24 m-152 24 q0 10 10 10 m132 0 q10 0 10 -10 m-142 10 h10 m92 0 h10 m0 0 h20 m-142 -10 v20 m152 0 v-20 m-152 20 v24 m152 0 v-24 m-152 24 q0 10 10 10 m132 0 q10 0 10 -10 m-142 10 h10 m54 0 h10 m0 0 h58 m-142 -10 v20 m152 0 v-20 m-152 20 v24 m152 0 v-24 m-152 24 q0 10 10 10 m132 0 q10 0 10 -10 m-142 10 h10 m66 0 h10 m0 0 h46 m-142 -10 v20 m152 0 v-20 m-152 20 v24 m152 0 v-24 m-152 24 q0 10 10 10 m132 0 q10 0 10 -10 m-142 10 h10 m112 0 h10 m-142 -10 v20 m152 0 v-20 m-152 20 v24 m152 0 v-24 m-152 24 q0 10 10 10 m132 0 q10 0 10 -10 m-142 10 h10 m62 0 h10 m0 0 h50 m-142 -10 v20 m152 0 v-20 m-152 20 v24 m152 0 v-24 m-152 24 q0 10 10 10 m132 0 q10 0 10 -10 m-142 10 h10 m40 0 h10 m0 0 h72 m-142 -10 v20 m152 0 v-20 m-152 20 v24 m152 0 v-24 m-152 24 q0 10 10 10 m132 0 q10 0 10 -10 m-142 10 h10 m68 0 h10 m0 0 h44 m-142 -10 v20 m152 0 v-20 m-152 20 v14 m152 0 v-14 m-152 14 q0 10 10 10 m132 0 q10 0 10 -10 m-142 10 h10 m0 0 h122 m-248 -396 v20 m278 0 v-20 m-278 20 v398 m278 0 v-398 m-278 398 q0 10 10 10 m258 0 q10 0 10 -10 m-268 10 h10 m56 0 h10 m0 0 h182 m-268 -10 v20 m278 0 v-20 m-278 20 v24 m278 0 v-24 m-278 24 q0 10 10 10 m258 0 q10 0 10 -10 m-268 10 h10 m64 0 h10 m0 0 h174 m-268 -10 v20 m278 0 v-20 m-278 20 v24 m278 0 v-24 m-278 24 q0 10 10 10 m258 0 q10 0 10 -10 m-248 10 h10 m64 0 h10 m-104 0 h20 m84 0 h20 m-124 0 q10 0 10 10 m104 0 q0 -10 10 -10 m-114 10 v14 m104 0 v-14 m-104 14 q0 10 10 10 m84 0 q10 0 10 -10 m-94 10 h10 m0 0 h74 m20 -34 h10 m88 0 h10 m0 0 h26 m-268 -10 v20 m278 0 v-20 m-278 20 v30 m278 0 v-30 m-278 30 q0 10 10 10 m258 0 q10 0 10 -10 m-268 10 h10 m0 0 h248 m20 -634 h10 m24 0 h10 m3 0 h-3"/>
         <polygon points="453 17 461 13 461 21"/>
         <polygon points="453 17 445 13 445 21"/>
      </svg>
