      <svg xmlns="http://www.w3.org/2000/svg" width="430" height="156">
         <defs>
            <style type="text/css">
               @namespace "http://www.w3.org/2000/svg";
               .line                 {fill: none; stroke: #1F1F1F;}
               .bold-line            {stroke: #0A0A0A; shape-rendering: crispEdges; stroke-width:
               2; }
               .thin-line            {stroke: #0F0F0F; shape-rendering: crispEdges}
               .filled               {fill: #1F1F1F; stroke: none;}
               text.terminal         {font-family: Verdana, Sans-serif;
               font-size: 12px;
               fill: #0A0A0A;
               font-weight: bold;
               }
               text.nonterminal      {font-family: Verdana, Sans-serif;
               font-size: 12px;
               fill: #0D0D0D;
               }
               text.regexp           {font-family: Verdana, Sans-serif;
               font-size: 12px;
               fill: #0F0F0F;
               }
               rect, circle, polygon {fill: #1F1F1F; stroke: #1F1F1F;}
               rect.terminal         {fill: #CCCCCC; stroke: #1F1F1F;}
               rect.nonterminal      {fill: #E3E3E3; stroke: #1F1F1F;}
               rect.text             {fill: none; stroke: none;}    
               polygon.regexp        {fill: #EFEFEF; stroke: #1F1F1F;}
               
            </style>
         </defs>
         <polygon points="9 17 1 13 1 21"/>
         <polygon points="17 17 9 13 9 21"/>
         <a xmlns:xlink="http://www.w3.org/1999/xlink" xlink:href="#TRACE" xlink:title="TRACE">
            <rect x="31" y="3" width="60" height="32"/>
            <rect x="29" y="1" width="60" height="32" class="nonterminal"/>
            <text class="nonterminal" x="39" y="21">TRACE</text>
         </a>
         <a xmlns:xlink="http://www.w3.org/1999/xlink" xlink:href="#string" xlink:title="string">
            <rect x="131" y="3" width="56" height="32"/>
            <rect x="129" y="1" width="56" height="32" class="nonterminal"/>
            <text class="nonterminal" x="139" y="21">string</text>
         </a>
         <a xmlns:xlink="http://www.w3.org/1999/xlink" xlink:href="#symbol" xlink:title="symbol">
            <rect x="131" y="47" width="64" height="32"/>
            <rect x="129" y="45" width="64" height="32" class="nonterminal"/>
            <text class="nonterminal" x="139" y="65">symbol</text>
         </a>
         <a xmlns:xlink="http://www.w3.org/1999/xlink" xlink:href="#VALUE" xlink:title="VALUE">
            <rect x="151" y="91" width="60" height="32"/>
            <rect x="149" y="89" width="60" height="32" class="nonterminal"/>
            <text class="nonterminal" x="159" y="109">VALUE</text>
         </a>
         <a xmlns:xlink="http://www.w3.org/1999/xlink" xlink:href="#expression" xlink:title="expression">
            <rect x="251" y="91" width="88" height="32"/>
            <rect x="249" y="89" width="88" height="32" class="nonterminal"/>
            <text class="nonterminal" x="259" y="109">expression</text>
         </a>
         <rect x="379" y="3" width="24" height="32" rx="10"/>
         <rect x="377" y="1" width="24" height="32" class="terminal" rx="10"/>
         <text class="terminal" x="387" y="21">;</text>
         <svg:path xmlns:svg="http://www.w3.org/2000/svg" class="line" d="m17 17 h2 m0 0 h10 m60 0 h10 m20 0 h10 m56 0 h10 m0 0 h152 m-248 0 h20 m228 0 h20 m-268 0 q10 0 10 10 m248 0 q0 -10 10 -10 m-258 10 v24 m248 0 v-24 m-248 24 q0 10 10 10 m228 0 q10 0 10 -10 m-238 10 h10 m64 0 h10 m0 0 h144 m-238 -10 v20 m248 0 v-20 m-248 20 v24 m248 0 v-24 m-248 24 q0 10 10 10 m228 0 q10 0 10 -10 m-218 10 h10 m60 0 h10 m-100 0 h20 m80 0 h20 m-120 0 q10 0 10 10 m100 0 q0 -10 10 -10 m-110 10 v14 m100 0 v-14 m-100 14 q0 10 10 10 m80 0 q10 0 10 -10 m-90 10 h10 m0 0 h70 m20 -34 h10 m88 0 h10 m-238 -10 v20 m248 0 v-20 m-248 20 v30 m248 0 v-30 m-248 30 q0 10 10 10 m228 0 q10 0 10 -10 m-238 10 h10 m0 0 h218 m20 -138 h10 m24 0 h10 m3 0 h-3"/>
         <polygon points="421 17 429 13 429 21"/>
         <polygon points="421 17 413 13 413 21"/>
      </svg>
