      <svg xmlns="http://www.w3.org/2000/svg" width="422" height="630">
         <defs>
            <style type="text/css">
               @namespace "http://www.w3.org/2000/svg";
               .line                 {fill: none; stroke: #1F1F1F;}
               .bold-line            {stroke: #0A0A0A; shape-rendering: crispEdges; stroke-width:
               2; }
               .thin-line            {stroke: #0F0F0F; shape-rendering: crispEdges}
               .filled               {fill: #1F1F1F; stroke: none;}
               text.terminal         {font-family: Verdana, Sans-serif;
               font-size: 12px;
               fill: #0A0A0A;
               font-weight: bold;
               }
               text.nonterminal      {font-family: Verdana, Sans-serif; font-style: italic;
               font-size: 12px;
               fill: #0D0D0D;
               }
               text.regexp           {font-family: Verdana, Sans-serif;
               font-size: 12px;
               fill: #0F0F0F;
               }
               rect, circle, polygon {fill: #1F1F1F; stroke: #1F1F1F;}
               rect.terminal         {fill: #CCCCCC; stroke: #1F1F1F;}
               rect.nonterminal      {fill: #E3E3E3; stroke: #1F1F1F;}
               rect.text             {fill: none; stroke: none;}    
               polygon.regexp        {fill: #EFEFEF; stroke: #1F1F1F;}
               
            </style>
         </defs>
         <polygon points="9 51 1 47 1 55"/>
         <polygon points="17 51 9 47 9 55"/>
         <rect x="31" y="37" width="64" height="32" rx="10"/>
         <rect x="29" y="35" width="64" height="32" class="terminal" rx="10"/>
         <text class="terminal" x="39" y="55">TRACE</text>
         <rect x="155" y="3" width="26" height="32" rx="10"/>
         <rect x="153" y="1" width="26" height="32" class="terminal" rx="10"/>
         <text class="terminal" x="163" y="21">?</text>
         <rect x="241" y="69" width="66" height="32" rx="10"/>
         <rect x="239" y="67" width="66" height="32" class="terminal" rx="10"/>
         <text class="terminal" x="249" y="87">Normal</text>
         <rect x="241" y="113" width="36" height="32" rx="10"/>
         <rect x="239" y="111" width="36" height="32" class="terminal" rx="10"/>
         <text class="terminal" x="249" y="131">All</text>
         <rect x="241" y="157" width="94" height="32" rx="10"/>
         <rect x="239" y="155" width="94" height="32" class="terminal" rx="10"/>
         <text class="terminal" x="249" y="175">Commands</text>
         <rect x="241" y="201" width="52" height="32" rx="10"/>
         <rect x="239" y="199" width="52" height="32" class="terminal" rx="10"/>
         <text class="terminal" x="249" y="219">Error</text>
         <rect x="241" y="245" width="64" height="32" rx="10"/>
         <rect x="239" y="243" width="64" height="32" class="terminal" rx="10"/>
         <text class="terminal" x="249" y="263">Failure</text>
         <rect x="241" y="289" width="114" height="32" rx="10"/>
         <rect x="239" y="287" width="114" height="32" class="terminal" rx="10"/>
         <text class="terminal" x="249" y="307">Intermediates</text>
         <rect x="241" y="333" width="62" height="32" rx="10"/>
         <rect x="239" y="331" width="62" height="32" class="terminal" rx="10"/>
         <text class="terminal" x="249" y="351">Labels</text>
         <rect x="241" y="377" width="40" height="32" rx="10"/>
         <rect x="239" y="375" width="40" height="32" class="terminal" rx="10"/>
         <text class="terminal" x="249" y="395">Off</text>
         <rect x="241" y="421" width="68" height="32" rx="10"/>
         <rect x="239" y="419" width="68" height="32" class="terminal" rx="10"/>
         <text class="terminal" x="249" y="439">Results</text>
<!--     <a xmlns:xlink="http://www.w3.org/1999/xlink" xlink:href="#number" xlink:title="number"> -->
            <rect x="135" y="465" width="66" height="32"/>
            <rect x="133" y="463" width="66" height="32" class="nonterminal"/>
            <text class="nonterminal" x="143" y="483">number</text>
<!--     </a> -->
<!--     <a xmlns:xlink="http://www.w3.org/1999/xlink" xlink:href="#string" xlink:title="string"> -->
            <rect x="135" y="509" width="52" height="32"/>
            <rect x="133" y="507" width="52" height="32" class="nonterminal"/>
            <text class="nonterminal" x="143" y="527">string</text>
<!--     </a> -->
<!--     <a xmlns:xlink="http://www.w3.org/1999/xlink" xlink:href="#symbol" xlink:title="symbol"> -->
            <rect x="135" y="553" width="62" height="32"/>
            <rect x="133" y="551" width="62" height="32" class="nonterminal"/>
            <text class="nonterminal" x="143" y="571">symbol</text>
<!--     </a> -->
         <rect x="135" y="597" width="64" height="32" rx="10"/>
         <rect x="133" y="595" width="64" height="32" class="terminal" rx="10"/>
         <text class="terminal" x="143" y="615">VALUE</text>
<!--     <a xmlns:xlink="http://www.w3.org/1999/xlink" xlink:href="#expression" xlink:title="expression"> -->
            <rect x="219" y="597" width="84" height="32"/>
            <rect x="217" y="595" width="84" height="32" class="nonterminal"/>
            <text class="nonterminal" x="227" y="615">expression</text>
<!--     </a> -->
         <svg:path xmlns:svg="http://www.w3.org/2000/svg" class="line" d="m17 51 h2 m0 0 h10 m64 0 h10 m40 0 h10 m0 0 h36 m-66 0 l20 0 m-1 0 q-9 0 -9 -10 l0 -14 q0 -10 10 -10 m46 34 l20 0 m-20 0 q10 0 10 -10 l0 -14 q0 -10 -10 -10 m-46 0 h10 m26 0 h10 m40 34 h10 m0 0 h124 m-154 0 h20 m134 0 h20 m-174 0 q10 0 10 10 m154 0 q0 -10 10 -10 m-164 10 v12 m154 0 v-12 m-154 12 q0 10 10 10 m134 0 q10 0 10 -10 m-144 10 h10 m66 0 h10 m0 0 h48 m-144 -10 v20 m154 0 v-20 m-154 20 v24 m154 0 v-24 m-154 24 q0 10 10 10 m134 0 q10 0 10 -10 m-144 10 h10 m36 0 h10 m0 0 h78 m-144 -10 v20 m154 0 v-20 m-154 20 v24 m154 0 v-24 m-154 24 q0 10 10 10 m134 0 q10 0 10 -10 m-144 10 h10 m94 0 h10 m0 0 h20 m-144 -10 v20 m154 0 v-20 m-154 20 v24 m154 0 v-24 m-154 24 q0 10 10 10 m134 0 q10 0 10 -10 m-144 10 h10 m52 0 h10 m0 0 h62 m-144 -10 v20 m154 0 v-20 m-154 20 v24 m154 0 v-24 m-154 24 q0 10 10 10 m134 0 q10 0 10 -10 m-144 10 h10 m64 0 h10 m0 0 h50 m-144 -10 v20 m154 0 v-20 m-154 20 v24 m154 0 v-24 m-154 24 q0 10 10 10 m134 0 q10 0 10 -10 m-144 10 h10 m114 0 h10 m-144 -10 v20 m154 0 v-20 m-154 20 v24 m154 0 v-24 m-154 24 q0 10 10 10 m134 0 q10 0 10 -10 m-144 10 h10 m62 0 h10 m0 0 h52 m-144 -10 v20 m154 0 v-20 m-154 20 v24 m154 0 v-24 m-154 24 q0 10 10 10 m134 0 q10 0 10 -10 m-144 10 h10 m40 0 h10 m0 0 h74 m-144 -10 v20 m154 0 v-20 m-154 20 v24 m154 0 v-24 m-154 24 q0 10 10 10 m134 0 q10 0 10 -10 m-144 10 h10 m68 0 h10 m0 0 h46 m-260 -384 h20 m260 0 h20 m-300 0 q10 0 10 10 m280 0 q0 -10 10 -10 m-290 10 v408 m280 0 v-408 m-280 408 q0 10 10 10 m260 0 q10 0 10 -10 m-270 10 h10 m66 0 h10 m0 0 h174 m-270 -10 v20 m280 0 v-20 m-280 20 v24 m280 0 v-24 m-280 24 q0 10 10 10 m260 0 q10 0 10 -10 m-270 10 h10 m52 0 h10 m0 0 h188 m-270 -10 v20 m280 0 v-20 m-280 20 v24 m280 0 v-24 m-280 24 q0 10 10 10 m260 0 q10 0 10 -10 m-270 10 h10 m62 0 h10 m0 0 h178 m-270 -10 v20 m280 0 v-20 m-280 20 v24 m280 0 v-24 m-280 24 q0 10 10 10 m260 0 q10 0 10 -10 m-270 10 h10 m64 0 h10 m0 0 h10 m84 0 h10 m0 0 h72 m23 -560 h-3"/>
         <polygon points="413 51 421 47 421 55"/>
         <polygon points="413 51 405 47 405 55"/>
      </svg>
