      <svg xmlns="http://www.w3.org/2000/svg" width="832" height="196">
         <defs>
            <style type="text/css">
               @namespace "http://www.w3.org/2000/svg";
               .line                 {fill: none; stroke: #1F1F1F;}
               .bold-line            {stroke: #0A0A0A; shape-rendering: crispEdges; stroke-width:
               2; }
               .thin-line            {stroke: #0F0F0F; shape-rendering: crispEdges}
               .filled               {fill: #1F1F1F; stroke: none;}
               text.terminal         {font-family: Verdana, Sans-serif;
               font-size: 12px;
               fill: #0A0A0A;
               font-weight: bold;
               }
               text.nonterminal      {font-family: Verdana, Sans-serif; font-style: italic;
               font-size: 12px;
               fill: #0D0D0D;
               }
               text.regexp           {font-family: Verdana, Sans-serif;
               font-size: 12px;
               fill: #0F0F0F;
               }
               rect, circle, polygon {fill: #1F1F1F; stroke: #1F1F1F;}
               rect.terminal         {fill: #CCCCCC; stroke: #1F1F1F;}
               rect.nonterminal      {fill: #E3E3E3; stroke: #1F1F1F;}
               rect.text             {fill: none; stroke: none;}    
               polygon.regexp        {fill: #EFEFEF; stroke: #1F1F1F;}
               
            </style>
         </defs>
         <polygon points="9 61 1 57 1 65"/>
         <polygon points="17 61 9 57 9 65"/>
         <rect x="31" y="47" width="46" height="32" rx="10"/>
         <rect x="29" y="45" width="46" height="32" class="terminal" rx="10"/>
         <text class="terminal" x="39" y="65">USE</text>
         <rect x="137" y="47" width="68" height="32" rx="10"/>
         <rect x="135" y="45" width="68" height="32" class="terminal" rx="10"/>
         <text class="terminal" x="145" y="65">STRICT</text>
         <rect x="245" y="47" width="48" height="32" rx="10"/>
         <rect x="243" y="45" width="48" height="32" class="terminal" rx="10"/>
         <text class="terminal" x="253" y="65">ARG</text>
<!--     <a xmlns:xlink="http://www.w3.org/1999/xlink" xlink:href="#name" xlink:title="name"> -->
            <rect x="353" y="47" width="54" height="32"/>
            <rect x="351" y="45" width="54" height="32" class="nonterminal"/>
            <text class="nonterminal" x="361" y="65">name</text>
<!--     </a> -->
         <rect x="447" y="47" width="30" height="32" rx="10"/>
         <rect x="445" y="45" width="30" height="32" class="terminal" rx="10"/>
         <text class="terminal" x="455" y="65">=</text>
<!--     <a xmlns:xlink="http://www.w3.org/1999/xlink" xlink:href="#expr" xlink:title="expr"> -->
            <rect x="497" y="47" width="48" height="32"/>
            <rect x="495" y="45" width="48" height="32" class="nonterminal"/>
            <text class="nonterminal" x="505" y="65">expr</text>
<!--     </a> -->
         <rect x="353" y="3" width="24" height="32" rx="10"/>
         <rect x="351" y="1" width="24" height="32" class="terminal" rx="10"/>
         <text class="terminal" x="361" y="21">,</text>
         <rect x="645" y="47" width="24" height="32" rx="10"/>
         <rect x="643" y="45" width="24" height="32" class="terminal" rx="10"/>
         <text class="terminal" x="653" y="65">,</text>
         <rect x="689" y="47" width="32" height="32" rx="10"/>
         <rect x="687" y="45" width="32" height="32" class="terminal" rx="10"/>
         <text class="terminal" x="697" y="65">...</text>
         <rect x="117" y="163" width="64" height="32" rx="10"/>
         <rect x="115" y="161" width="64" height="32" class="terminal" rx="10"/>
         <text class="terminal" x="125" y="181">LOCAL</text>
<!--     <a xmlns:xlink="http://www.w3.org/1999/xlink" xlink:href="#name" xlink:title="name"> -->
            <rect x="221" y="129" width="54" height="32"/>
            <rect x="219" y="127" width="54" height="32" class="nonterminal"/>
            <text class="nonterminal" x="229" y="147">name</text>
<!--     </a> -->
         <rect x="781" y="47" width="24" height="32" rx="10"/>
         <rect x="779" y="45" width="24" height="32" class="terminal" rx="10"/>
         <text class="terminal" x="789" y="65">;</text>
         <svg:path xmlns:svg="http://www.w3.org/2000/svg" class="line" d="m17 61 h2 m0 0 h10 m46 0 h10 m40 0 h10 m68 0 h10 m-108 0 h20 m88 0 h20 m-128 0 q10 0 10 10 m108 0 q0 -10 10 -10 m-118 10 v14 m108 0 v-14 m-108 14 q0 10 10 10 m88 0 q10 0 10 -10 m-98 10 h10 m0 0 h78 m20 -34 h10 m48 0 h10 m40 0 h10 m54 0 h10 m20 0 h10 m30 0 h10 m0 0 h10 m48 0 h10 m-138 0 h20 m118 0 h20 m-158 0 q10 0 10 10 m138 0 q0 -10 10 -10 m-148 10 v14 m138 0 v-14 m-138 14 q0 10 10 10 m118 0 q10 0 10 -10 m-128 10 h10 m0 0 h108 m-232 -34 l20 0 m-1 0 q-9 0 -9 -10 l0 -24 q0 -10 10 -10 m232 44 l20 0 m-20 0 q10 0 10 -10 l0 -24 q0 -10 -10 -10 m-232 0 h10 m24 0 h10 m0 0 h188 m-272 44 h20 m272 0 h20 m-312 0 q10 0 10 10 m292 0 q0 -10 10 -10 m-302 10 v30 m292 0 v-30 m-292 30 q0 10 10 10 m272 0 q10 0 10 -10 m-282 10 h10 m0 0 h262 m40 -50 h10 m24 0 h10 m0 0 h10 m32 0 h10 m-116 0 h20 m96 0 h20 m-136 0 q10 0 10 10 m116 0 q0 -10 10 -10 m-126 10 v14 m116 0 v-14 m-116 14 q0 10 10 10 m96 0 q10 0 10 -10 m-106 10 h10 m0 0 h86 m-644 -34 h20 m644 0 h20 m-684 0 q10 0 10 10 m664 0 q0 -10 10 -10 m-674 10 v96 m664 0 v-96 m-664 96 q0 10 10 10 m644 0 q10 0 10 -10 m-654 10 h10 m64 0 h10 m20 0 h10 m0 0 h64 m-94 0 l20 0 m-1 0 q-9 0 -9 -10 l0 -14 q0 -10 10 -10 m74 34 l20 0 m-20 0 q10 0 10 -10 l0 -14 q0 -10 -10 -10 m-74 0 h10 m54 0 h10 m20 34 h446 m20 -116 h10 m24 0 h10 m3 0 h-3"/>
         <polygon points="823 61 831 57 831 65"/>
         <polygon points="823 61 815 57 815 65"/>
      </svg>
