      <svg xmlns="http://www.w3.org/2000/svg" width="646" height="68">
         <defs>
            <style type="text/css">
               @namespace "http://www.w3.org/2000/svg";
               .line                 {fill: none; stroke: #1F1F1F;}
               .bold-line            {stroke: #0A0A0A; shape-rendering: crispEdges; stroke-width:
               2; }
               .thin-line            {stroke: #0F0F0F; shape-rendering: crispEdges}
               .filled               {fill: #1F1F1F; stroke: none;}
               text.terminal         {font-family: Verdana, Sans-serif;
               font-size: 12px;
               fill: #0A0A0A;
               font-weight: bold;
               }
               text.nonterminal      {font-family: Verdana, Sans-serif;
               font-size: 12px;
               fill: #0D0D0D;
               }
               text.regexp           {font-family: Verdana, Sans-serif;
               font-size: 12px;
               fill: #0F0F0F;
               }
               rect, circle, polygon {fill: #1F1F1F; stroke: #1F1F1F;}
               rect.terminal         {fill: #CCCCCC; stroke: #1F1F1F;}
               rect.nonterminal      {fill: #E3E3E3; stroke: #1F1F1F;}
               rect.text             {fill: none; stroke: none;}    
               polygon.regexp        {fill: #EFEFEF; stroke: #1F1F1F;}
               
            </style>
         </defs>
         <polygon points="9 33 1 29 1 37"/>
         <polygon points="17 33 9 29 9 37"/>
         <a xmlns:xlink="http://www.w3.org/1999/xlink" xlink:href="#USE" xlink:title="USE">
            <rect x="31" y="19" width="44" height="32"/>
            <rect x="29" y="17" width="44" height="32" class="nonterminal"/>
            <text class="nonterminal" x="39" y="37">USE</text>
         </a>
         <a xmlns:xlink="http://www.w3.org/1999/xlink" xlink:href="#STRICT" xlink:title="STRICT">
            <rect x="115" y="19" width="64" height="32"/>
            <rect x="113" y="17" width="64" height="32" class="nonterminal"/>
            <text class="nonterminal" x="123" y="37">STRICT</text>
         </a>
         <a xmlns:xlink="http://www.w3.org/1999/xlink" xlink:href="#ARG" xlink:title="ARG">
            <rect x="219" y="19" width="44" height="32"/>
            <rect x="217" y="17" width="44" height="32" class="nonterminal"/>
            <text class="nonterminal" x="227" y="37">ARG</text>
         </a>
         <a xmlns:xlink="http://www.w3.org/1999/xlink" xlink:href="#name" xlink:title="name">
            <rect x="323" y="19" width="54" height="32"/>
            <rect x="321" y="17" width="54" height="32" class="nonterminal"/>
            <text class="nonterminal" x="331" y="37">name</text>
         </a>
         <rect x="397" y="19" width="30" height="32" rx="10"/>
         <rect x="395" y="17" width="30" height="32" class="terminal" rx="10"/>
         <text class="terminal" x="405" y="37">=</text>
         <a xmlns:xlink="http://www.w3.org/1999/xlink" xlink:href="#expression" xlink:title="expression">
            <rect x="447" y="19" width="88" height="32"/>
            <rect x="445" y="17" width="88" height="32" class="nonterminal"/>
            <text class="nonterminal" x="455" y="37">expression</text>
         </a>
         <rect x="595" y="19" width="24" height="32" rx="10"/>
         <rect x="593" y="17" width="24" height="32" class="terminal" rx="10"/>
         <text class="terminal" x="603" y="37">;</text>
         <svg:path xmlns:svg="http://www.w3.org/2000/svg" class="line" d="m17 33 h2 m0 0 h10 m44 0 h10 m20 0 h10 m64 0 h10 m-104 0 h20 m84 0 h20 m-124 0 q10 0 10 10 m104 0 q0 -10 10 -10 m-114 10 v14 m104 0 v-14 m-104 14 q0 10 10 10 m84 0 q10 0 10 -10 m-94 10 h10 m0 0 h74 m20 -34 h10 m44 0 h10 m40 0 h10 m54 0 h10 m0 0 h10 m30 0 h10 m0 0 h10 m88 0 h10 m-252 0 l20 0 m-1 0 q-9 0 -9 -10 l0 -12 q0 -10 10 -10 m232 32 l20 0 m-20 0 q10 0 10 -10 l0 -12 q0 -10 -10 -10 m-232 0 h10 m0 0 h222 m-272 32 h20 m272 0 h20 m-312 0 q10 0 10 10 m292 0 q0 -10 10 -10 m-302 10 v14 m292 0 v-14 m-292 14 q0 10 10 10 m272 0 q10 0 10 -10 m-282 10 h10 m0 0 h262 m20 -34 h10 m24 0 h10 m3 0 h-3"/>
         <polygon points="637 33 645 29 645 37"/>
         <polygon points="637 33 629 29 629 37"/>
      </svg>
