      <svg xmlns="http://www.w3.org/2000/svg" width="828" height="256">
         <defs>
            <style type="text/css">
               @namespace "http://www.w3.org/2000/svg";
               .line                 {fill: none; stroke: #1F1F1F;}
               .bold-line            {stroke: #0A0A0A; shape-rendering: crispEdges; stroke-width:
               2; }
               .thin-line            {stroke: #0F0F0F; shape-rendering: crispEdges}
               .filled               {fill: #1F1F1F; stroke: none;}
               text.terminal         {font-family: Verdana, Sans-serif;
               font-size: 12px;
               fill: #0A0A0A;
               font-weight: bold;
               }
               text.nonterminal      {font-family: Verdana, Sans-serif; font-style: italic;
               font-size: 12px;
               fill: #0D0D0D;
               }
               text.regexp           {font-family: Verdana, Sans-serif;
               font-size: 12px;
               fill: #0F0F0F;
               }
               rect, circle, polygon {fill: #1F1F1F; stroke: #1F1F1F;}
               rect.terminal         {fill: #CCCCCC; stroke: #1F1F1F;}
               rect.nonterminal      {fill: #E3E3E3; stroke: #1F1F1F;}
               rect.text             {fill: none; stroke: none;}    
               polygon.regexp        {fill: #EFEFEF; stroke: #1F1F1F;}
               
            </style>
         </defs>
         <polygon points="9 51 1 47 1 55"/>
         <polygon points="17 51 9 47 9 55"/>
         <rect x="31" y="37" width="46" height="32" rx="10"/>
         <rect x="29" y="35" width="46" height="32" class="terminal" rx="10"/>
         <text class="terminal" x="39" y="55">USE</text>
         <rect x="117" y="37" width="64" height="32" rx="10"/>
         <rect x="115" y="35" width="64" height="32" class="terminal" rx="10"/>
         <text class="terminal" x="125" y="55">LOCAL</text>
<!--     <a xmlns:xlink="http://www.w3.org/1999/xlink" xlink:href="#name" xlink:title="name"> -->
            <rect x="221" y="3" width="54" height="32"/>
            <rect x="219" y="1" width="54" height="32" class="nonterminal"/>
            <text class="nonterminal" x="229" y="21">name</text>
<!--     </a> -->
         <rect x="137" y="147" width="68" height="32" rx="10"/>
         <rect x="135" y="145" width="68" height="32" class="terminal" rx="10"/>
         <text class="terminal" x="145" y="165">STRICT</text>
         <rect x="245" y="115" width="48" height="32" rx="10"/>
         <rect x="243" y="113" width="48" height="32" class="terminal" rx="10"/>
         <text class="terminal" x="253" y="133">ARG</text>
<!--     <a xmlns:xlink="http://www.w3.org/1999/xlink" xlink:href="#name" xlink:title="name"> -->
            <rect x="373" y="147" width="54" height="32"/>
            <rect x="371" y="145" width="54" height="32" class="nonterminal"/>
            <text class="nonterminal" x="381" y="165">name</text>
<!--     </a> -->
         <rect x="467" y="179" width="30" height="32" rx="10"/>
         <rect x="465" y="177" width="30" height="32" class="terminal" rx="10"/>
         <text class="terminal" x="475" y="197">=</text>
<!--     <a xmlns:xlink="http://www.w3.org/1999/xlink" xlink:href="#expr" xlink:title="expr"> -->
            <rect x="517" y="179" width="48" height="32"/>
            <rect x="515" y="177" width="48" height="32" class="nonterminal"/>
            <text class="nonterminal" x="525" y="197">expr</text>
<!--     </a> -->
         <rect x="353" y="81" width="24" height="32" rx="10"/>
         <rect x="351" y="79" width="24" height="32" class="terminal" rx="10"/>
         <text class="terminal" x="361" y="99">,</text>
         <rect x="665" y="147" width="24" height="32" rx="10"/>
         <rect x="663" y="145" width="24" height="32" class="terminal" rx="10"/>
         <text class="terminal" x="673" y="165">,</text>
         <rect x="709" y="147" width="32" height="32" rx="10"/>
         <rect x="707" y="145" width="32" height="32" class="terminal" rx="10"/>
         <text class="terminal" x="717" y="165">...</text>
         <rect x="333" y="223" width="32" height="32" rx="10"/>
         <rect x="331" y="221" width="32" height="32" class="terminal" rx="10"/>
         <text class="terminal" x="341" y="241">...</text>
         <svg:path xmlns:svg="http://www.w3.org/2000/svg" class="line" d="m17 51 h2 m0 0 h10 m46 0 h10 m20 0 h10 m64 0 h10 m20 0 h10 m0 0 h64 m-94 0 l20 0 m-1 0 q-9 0 -9 -10 l0 -14 q0 -10 10 -10 m74 34 l20 0 m-20 0 q10 0 10 -10 l0 -14 q0 -10 -10 -10 m-74 0 h10 m54 0 h10 m20 34 h486 m-704 0 h20 m684 0 h20 m-724 0 q10 0 10 10 m704 0 q0 -10 10 -10 m-714 10 v58 m704 0 v-58 m-704 58 q0 10 10 10 m684 0 q10 0 10 -10 m-674 10 h10 m0 0 h78 m-108 0 h20 m88 0 h20 m-128 0 q10 0 10 10 m108 0 q0 -10 10 -10 m-118 10 v12 m108 0 v-12 m-108 12 q0 10 10 10 m88 0 q10 0 10 -10 m-98 10 h10 m68 0 h10 m20 -32 h10 m48 0 h10 m60 0 h10 m0 0 h222 m-252 0 h20 m232 0 h20 m-272 0 q10 0 10 10 m252 0 q0 -10 10 -10 m-262 10 v12 m252 0 v-12 m-252 12 q0 10 10 10 m232 0 q10 0 10 -10 m-242 10 h10 m54 0 h10 m20 0 h10 m0 0 h108 m-138 0 h20 m118 0 h20 m-158 0 q10 0 10 10 m138 0 q0 -10 10 -10 m-148 10 v12 m138 0 v-12 m-138 12 q0 10 10 10 m118 0 q10 0 10 -10 m-128 10 h10 m30 0 h10 m0 0 h10 m48 0 h10 m-252 -64 l20 0 m-1 0 q-9 0 -9 -10 l0 -14 q0 -10 10 -10 m272 34 l20 0 m-20 0 q10 0 10 -10 l0 -14 q0 -10 -10 -10 m-272 0 h10 m24 0 h10 m0 0 h228 m40 34 h10 m0 0 h86 m-116 0 h20 m96 0 h20 m-136 0 q10 0 10 10 m116 0 q0 -10 10 -10 m-126 10 v12 m116 0 v-12 m-116 12 q0 10 10 10 m96 0 q10 0 10 -10 m-106 10 h10 m24 0 h10 m0 0 h10 m32 0 h10 m-448 -32 h20 m448 0 h20 m-488 0 q10 0 10 10 m468 0 q0 -10 10 -10 m-478 10 v88 m468 0 v-88 m-468 88 q0 10 10 10 m448 0 q10 0 10 -10 m-458 10 h10 m32 0 h10 m0 0 h396 m43 -186 h-3"/>
         <polygon points="819 51 827 47 827 55"/>
         <polygon points="819 51 811 47 811 55"/>
      </svg>
