<svg xmlns="http://www.w3.org/2000/svg" width="305" height="71">
         <defs>
            <style type="text/css">
    @namespace "http://www.w3.org/2000/svg";
    .line                 {fill: none; stroke: #1F1F1F;}
    .bold-line            {stroke: #0A0A0A; shape-rendering: crispEdges; stroke-width: 2; }
    .thin-line            {stroke: #0F0F0F; shape-rendering: crispEdges}
    .filled               {fill: #1F1F1F; stroke: none;}
    text.terminal         {font-family: Verdana, Sans-serif;
                            font-size: 12px;
                            fill: #0A0A0A;
                            font-weight: bold;
                          }
    text.nonterminal      {font-family: Verdana, Sans-serif; font-style: italic;
                            font-size: 12px;
                            fill: #0D0D0D;
                            font-weight: normal;
                          }
    text.regexp           {font-family: Verdana, Sans-serif;
                            font-size: 12px;
                            fill: #0F0F0F;
                            font-weight: normal;
                          }
    rect, circle, polygon {fill: #1F1F1F; stroke: #1F1F1F;}
    rect.terminal         {fill: #CCCCCC; stroke: #1F1F1F;}
    rect.nonterminal      {fill: #E3E3E3; stroke: #1F1F1F;}
    rect.text             {fill: none; stroke: none;}    
    polygon.regexp        {fill: #EFEFEF; stroke: #1F1F1F;}
  </style>
         </defs>
         <polygon points="9 51 1 47 1 55"/>
         <polygon points="17 51 9 47 9 55"/>
         <rect x="31" y="37" width="46" height="32" rx="10"/>
         <rect x="29" y="35" width="46" height="32" class="terminal" rx="10"/>
         <text class="terminal" x="39" y="55">USE</text>
         <rect x="97" y="37" width="64" height="32" rx="10"/>
         <rect x="95" y="35" width="64" height="32" class="terminal" rx="10"/>
         <text class="terminal" x="105" y="55">LOCAL</text>
<!--  <a xmlns:xlink="http://www.w3.org/1999/xlink" xlink:href="#name" xlink:title="name"> -->
            <rect x="201" y="3" width="56" height="32"/>
            <rect x="199" y="1" width="56" height="32" class="nonterminal"/>
            <text class="nonterminal" x="209" y="21">name</text><!-- </a> -->
<svg:path xmlns:svg="http://www.w3.org/2000/svg" class="line" d="m17 51 h2 m0 0 h10 m46 0 h10 m0 0 h10 m64 0 h10 m20 0 h10 m0 0 h66 m-96 0 l20 0 m-1 0 q-9 0 -9 -10 l0 -14 q0 -10 10 -10 m76 34 l20 0 m-20 0 q10 0 10 -10 l0 -14 q0 -10 -10 -10 m-76 0 h10 m56 0 h10 m23 34 h-3"/>
         <polygon points="295 51 303 47 303 55"/>
         <polygon points="295 51 287 47 287 55"/></svg>
