      <svg xmlns="http://www.w3.org/2000/svg" width="788" height="178">
         <defs>
            <style type="text/css">
               @namespace "http://www.w3.org/2000/svg";
               .line                 {fill: none; stroke: #1F1F1F;}
               .bold-line            {stroke: #0A0A0A; shape-rendering: crispEdges; stroke-width:
               2; }
               .thin-line            {stroke: #0F0F0F; shape-rendering: crispEdges}
               .filled               {fill: #1F1F1F; stroke: none;}
               text.terminal         {font-family: Verdana, Sans-serif;
               font-size: 12px;
               fill: #0A0A0A;
               font-weight: bold;
               }
               text.nonterminal      {font-family: Verdana, Sans-serif; font-style: italic;
               font-size: 12px;
               fill: #0D0D0D;
               }
               text.regexp           {font-family: Verdana, Sans-serif;
               font-size: 12px;
               fill: #0F0F0F;
               }
               rect, circle, polygon {fill: #1F1F1F; stroke: #1F1F1F;}
               rect.terminal         {fill: #CCCCCC; stroke: #1F1F1F;}
               rect.nonterminal      {fill: #E3E3E3; stroke: #1F1F1F;}
               rect.text             {fill: none; stroke: none;}    
               polygon.regexp        {fill: #EFEFEF; stroke: #1F1F1F;}
               
            </style>
         </defs>
         <polygon points="9 51 1 47 1 55"/>
         <polygon points="17 51 9 47 9 55"/>
         <rect x="31" y="37" width="46" height="32" rx="10"/>
         <rect x="29" y="35" width="46" height="32" class="terminal" rx="10"/>
         <text class="terminal" x="39" y="55">USE</text>
         <rect x="117" y="69" width="70" height="32" rx="10"/>
         <rect x="115" y="67" width="70" height="32" class="terminal" rx="10"/>
         <text class="terminal" x="125" y="87">STRICT</text>
         <rect x="227" y="37" width="48" height="32" rx="10"/>
         <rect x="225" y="35" width="48" height="32" class="terminal" rx="10"/>
         <text class="terminal" x="235" y="55">ARG</text>
<!--     <a xmlns:xlink="http://www.w3.org/1999/xlink" xlink:href="#name" xlink:title="name"> -->
            <rect x="355" y="69" width="54" height="32"/>
            <rect x="353" y="67" width="54" height="32" class="nonterminal"/>
            <text class="nonterminal" x="363" y="87">name</text>
<!--     </a> -->
         <rect x="449" y="101" width="30" height="32" rx="10"/>
         <rect x="447" y="99" width="30" height="32" class="terminal" rx="10"/>
         <text class="terminal" x="457" y="119">=</text>
<!--     <a xmlns:xlink="http://www.w3.org/1999/xlink" xlink:href="#expr" xlink:title="expr"> -->
            <rect x="499" y="101" width="46" height="32"/>
            <rect x="497" y="99" width="46" height="32" class="nonterminal"/>
            <text class="nonterminal" x="507" y="119">expr</text>
<!--     </a> -->
         <rect x="335" y="3" width="24" height="32" rx="10"/>
         <rect x="333" y="1" width="24" height="32" class="terminal" rx="10"/>
         <text class="terminal" x="343" y="21">,</text>
         <rect x="645" y="69" width="24" height="32" rx="10"/>
         <rect x="643" y="67" width="24" height="32" class="terminal" rx="10"/>
         <text class="terminal" x="653" y="87">,</text>
         <rect x="689" y="69" width="32" height="32" rx="10"/>
         <rect x="687" y="67" width="32" height="32" class="terminal" rx="10"/>
         <text class="terminal" x="697" y="87">...</text>
         <rect x="315" y="145" width="32" height="32" rx="10"/>
         <rect x="313" y="143" width="32" height="32" class="terminal" rx="10"/>
         <text class="terminal" x="323" y="163">...</text>
         <svg:path xmlns:svg="http://www.w3.org/2000/svg" class="line" d="m17 51 h2 m0 0 h10 m46 0 h10 m20 0 h10 m0 0 h80 m-110 0 h20 m90 0 h20 m-130 0 q10 0 10 10 m110 0 q0 -10 10 -10 m-120 10 v12 m110 0 v-12 m-110 12 q0 10 10 10 m90 0 q10 0 10 -10 m-100 10 h10 m70 0 h10 m20 -32 h10 m48 0 h10 m60 0 h10 m0 0 h220 m-250 0 h20 m230 0 h20 m-270 0 q10 0 10 10 m250 0 q0 -10 10 -10 m-260 10 v12 m250 0 v-12 m-250 12 q0 10 10 10 m230 0 q10 0 10 -10 m-240 10 h10 m54 0 h10 m20 0 h10 m0 0 h106 m-136 0 h20 m116 0 h20 m-156 0 q10 0 10 10 m136 0 q0 -10 10 -10 m-146 10 v12 m136 0 v-12 m-136 12 q0 10 10 10 m116 0 q10 0 10 -10 m-126 10 h10 m30 0 h10 m0 0 h10 m46 0 h10 m-250 -64 l20 0 m-1 0 q-9 0 -9 -10 l0 -14 q0 -10 10 -10 m270 34 l20 0 m-20 0 q10 0 10 -10 l0 -14 q0 -10 -10 -10 m-270 0 h10 m24 0 h10 m0 0 h226 m40 34 h10 m0 0 h86 m-116 0 h20 m96 0 h20 m-136 0 q10 0 10 10 m116 0 q0 -10 10 -10 m-126 10 v12 m116 0 v-12 m-116 12 q0 10 10 10 m96 0 q10 0 10 -10 m-106 10 h10 m24 0 h10 m0 0 h10 m32 0 h10 m-446 -32 h20 m446 0 h20 m-486 0 q10 0 10 10 m466 0 q0 -10 10 -10 m-476 10 v88 m466 0 v-88 m-466 88 q0 10 10 10 m446 0 q10 0 10 -10 m-456 10 h10 m32 0 h10 m0 0 h394 m23 -108 h-3"/>
         <polygon points="779 51 787 47 787 55"/>
         <polygon points="779 51 771 47 771 55"/>
      </svg>
