<svg xmlns="http://www.w3.org/2000/svg" width="557" height="113">
         <defs>
            <style type="text/css">
    @namespace "http://www.w3.org/2000/svg";
    .line                 {fill: none; stroke: #1F1F1F;}
    .bold-line            {stroke: #0A0A0A; shape-rendering: crispEdges; stroke-width: 2; }
    .thin-line            {stroke: #0F0F0F; shape-rendering: crispEdges}
    .filled               {fill: #1F1F1F; stroke: none;}
    text.terminal         {font-family: Verdana, Sans-serif;
                            font-size: 12px;
                            fill: #0A0A0A;
                            font-weight: bold;
                          }
    text.nonterminal      {font-family: Verdana, Sans-serif; font-style: italic;
                            font-size: 12px;
                            fill: #0D0D0D;
                            font-weight: normal;
                          }
    text.regexp           {font-family: Verdana, Sans-serif;
                            font-size: 12px;
                            fill: #0F0F0F;
                            font-weight: normal;
                          }
    rect, circle, polygon {fill: #1F1F1F; stroke: #1F1F1F;}
    rect.terminal         {fill: #cccccc; stroke: #1F1F1F;}
    rect.nonterminal      {fill: #E3E3E3; stroke: #1F1F1F;}
    rect.text             {fill: none; stroke: none;}    
    polygon.regexp        {fill: #EFEFEF; stroke: #1F1F1F;}
  </style>
         </defs>
         <polygon points="9 17 1 13 1 21"/>
         <polygon points="17 17 9 13 9 21"/>
         <rect x="31" y="3" width="104" height="32" rx="10"/>
         <rect x="29" y="1" width="104" height="32" class="terminal" rx="10"/>
         <text class="terminal" x="39" y="21">makeString(</text>
         <rect x="195" y="35" width="62" height="32" rx="10"/>
         <rect x="193" y="33" width="62" height="32" class="terminal" rx="10"/>
         <text class="terminal" x="203" y="53">"Line"</text>
         <rect x="317" y="35" width="24" height="32" rx="10"/>
         <rect x="315" y="33" width="24" height="32" class="terminal" rx="10"/>
         <text class="terminal" x="325" y="53">,</text>
<!--  <a xmlns:xlink="http://www.w3.org/1999/xlink" xlink:href="#separator" xlink:title="separator"> -->
            <rect x="361" y="35" width="82" height="32"/>
            <rect x="359" y="33" width="82" height="32" class="nonterminal"/>
            <text class="nonterminal" x="369" y="53">separator</text><!-- </a> -->
<rect x="175" y="79" width="66" height="32" rx="10"/>
         <rect x="173" y="77" width="66" height="32" class="terminal" rx="10"/>
         <text class="terminal" x="183" y="97">"Char"</text>
         <rect x="503" y="3" width="26" height="32" rx="10"/>
         <rect x="501" y="1" width="26" height="32" class="terminal" rx="10"/>
         <text class="terminal" x="511" y="21">)</text>
         <svg:path xmlns:svg="http://www.w3.org/2000/svg" class="line" d="m17 17 h2 m0 0 h10 m104 0 h10 m40 0 h10 m0 0 h72 m-102 0 h20 m82 0 h20 m-122 0 q10 0 10 10 m102 0 q0 -10 10 -10 m-112 10 v12 m102 0 v-12 m-102 12 q0 10 10 10 m82 0 q10 0 10 -10 m-92 10 h10 m62 0 h10 m40 -32 h10 m0 0 h136 m-166 0 h20 m146 0 h20 m-186 0 q10 0 10 10 m166 0 q0 -10 10 -10 m-176 10 v12 m166 0 v-12 m-166 12 q0 10 10 10 m146 0 q10 0 10 -10 m-156 10 h10 m24 0 h10 m0 0 h10 m82 0 h10 m-308 -32 h20 m308 0 h20 m-348 0 q10 0 10 10 m328 0 q0 -10 10 -10 m-338 10 v56 m328 0 v-56 m-328 56 q0 10 10 10 m308 0 q10 0 10 -10 m-318 10 h10 m66 0 h10 m0 0 h222 m20 -76 h10 m26 0 h10 m3 0 h-3"/>
         <polygon points="547 17 555 13 555 21"/>
         <polygon points="547 17 539 13 539 21"/></svg>
