<svg xmlns="http://www.w3.org/2000/svg" width="325" height="37">
         <defs>
            <style type="text/css">
    @namespace "http://www.w3.org/2000/svg";
    .line                 {fill: none; stroke: #1F1F1F;}
    .bold-line            {stroke: #0A0A0A; shape-rendering: crispEdges; stroke-width: 2; }
    .thin-line            {stroke: #0F0F0F; shape-rendering: crispEdges}
    .filled               {fill: #1F1F1F; stroke: none;}
    text.terminal         {font-family: Verdana, Sans-serif;
                            font-size: 12px;
                            fill: #0A0A0A;
                            font-weight: bold;
                          }
    text.nonterminal      {font-family: Verdana, Sans-serif; font-style: italic;
                            font-size: 12px;
                            fill: #0D0D0D;
                            font-weight: normal;
                          }
    text.regexp           {font-family: Verdana, Sans-serif;
                            font-size: 12px;
                            fill: #0F0F0F;
                            font-weight: normal;
                          }
    rect, circle, polygon {fill: #1F1F1F; stroke: #1F1F1F;}
    rect.terminal         {fill: #cccccc; stroke: #1F1F1F;}
    rect.nonterminal      {fill: #E3E3E3; stroke: #1F1F1F;}
    rect.text             {fill: none; stroke: none;}    
    polygon.regexp        {fill: #EFEFEF; stroke: #1F1F1F;}
  </style>
         </defs>
         <polygon points="9 17 1 13 1 21"/>
         <polygon points="17 17 9 13 9 21"/>
         <rect x="31" y="3" width="26" height="32" rx="10"/>
         <rect x="29" y="1" width="26" height="32" class="terminal" rx="10"/>
         <text class="terminal" x="39" y="21">[</text>
<!--  <a xmlns:xlink="http://www.w3.org/1999/xlink" xlink:href="#name" xlink:title="name"> -->
            <rect x="77" y="3" width="56" height="32"/>
            <rect x="75" y="1" width="56" height="32" class="nonterminal"/>
            <text class="nonterminal" x="85" y="21">name</text><!-- </a> -->
<rect x="153" y="3" width="26" height="32" rx="10"/>
         <rect x="151" y="1" width="26" height="32" class="terminal" rx="10"/>
         <text class="terminal" x="161" y="21">]</text>
         <rect x="199" y="3" width="30" height="32" rx="10"/>
         <rect x="197" y="1" width="30" height="32" class="terminal" rx="10"/>
         <text class="terminal" x="207" y="21">=</text>
<!--  <a xmlns:xlink="http://www.w3.org/1999/xlink" xlink:href="#item" xlink:title="item"> -->
            <rect x="249" y="3" width="48" height="32"/>
            <rect x="247" y="1" width="48" height="32" class="nonterminal"/>
            <text class="nonterminal" x="257" y="21">item</text><!-- </a> -->
<svg:path xmlns:svg="http://www.w3.org/2000/svg" class="line" d="m17 17 h2 m0 0 h10 m26 0 h10 m0 0 h10 m56 0 h10 m0 0 h10 m26 0 h10 m0 0 h10 m30 0 h10 m0 0 h10 m48 0 h10 m3 0 h-3"/>
         <polygon points="315 17 323 13 323 21"/>
         <polygon points="315 17 307 13 307 21"/></svg>
