<svg xmlns="http://www.w3.org/2000/svg" width="735" height="113">
         <defs>
            <style type="text/css">
               @namespace "http://www.w3.org/2000/svg";
               .line                 {fill: none; stroke: #1F1F1F;}
               .bold-line            {stroke: #0A0A0A; shape-rendering: crispEdges; stroke-width:
               2; }
               .thin-line            {stroke: #0F0F0F; shape-rendering: crispEdges}
               .filled               {fill: #1F1F1F; stroke: none;}
               text.terminal         {font-family: Verdana, Sans-serif;
               font-size: 12px;
               fill: #0A0A0A;
               font-weight: bold;
               }
               text.nonterminal      {font-family: Verdana, Sans-serif; font-style: italic;
               font-size: 12px;
               fill: #0D0D0D;
               }
               text.regexp           {font-family: Verdana, Sans-serif;
               font-size: 12px;
               fill: #0F0F0F;
               }
               rect, circle, polygon {fill: #1F1F1F; stroke: #1F1F1F;}
               rect.terminal         {fill: #CCCCCC; stroke: #1F1F1F;}
               rect.nonterminal      {fill: #E3E3E3; stroke: #1F1F1F;}
               rect.text             {fill: none; stroke: none;}
               polygon.regexp        {fill: #EFEFEF; stroke: #1F1F1F;}

            </style>
         </defs>

         <polygon points="9 17 1 13 1 21"/>
         <polygon points="17 17 9 13 9 21"/>
         <rect x="31" y="3" width="102" height="32" rx="10"/>
         <rect x="29" y="1" width="102" height="32" class="terminal" rx="10"/>
         <text class="terminal" x="39" y="21">toJSONFile(</text><a xmlns:xlink="http://www.w3.org/1999/xlink" xlink:href="#fileName" xlink:title="fileName">
            <rect x="153" y="3" width="74" height="32"/>
            <rect x="151" y="1" width="74" height="32" class="nonterminal"/>
            <text class="nonterminal" x="161" y="21">fileName</text></a><rect x="247" y="3" width="24" height="32" rx="10"/>
         <rect x="245" y="1" width="24" height="32" class="terminal" rx="10"/>
         <text class="terminal" x="255" y="21">,</text><a xmlns:xlink="http://www.w3.org/1999/xlink" xlink:href="#rexxObject" xlink:title="rexxObject">
            <rect x="291" y="3" width="88" height="32"/>
            <rect x="289" y="1" width="88" height="32" class="nonterminal"/>
            <text class="nonterminal" x="299" y="21">rexxObject</text></a><rect x="419" y="35" width="24" height="32" rx="10"/>
         <rect x="417" y="33" width="24" height="32" class="terminal" rx="10"/>
         <text class="terminal" x="427" y="53">,</text><a xmlns:xlink="http://www.w3.org/1999/xlink" xlink:href="#legible" xlink:title="legible">
            <rect x="463" y="35" width="62" height="32"/>
            <rect x="461" y="33" width="62" height="32" class="nonterminal"/>
            <text class="nonterminal" x="471" y="53">legible</text></a><rect x="565" y="35" width="56" height="32" rx="10"/>
         <rect x="563" y="33" width="56" height="32" class="terminal" rx="10"/>
         <text class="terminal" x="573" y="53">.false</text>
         <line class="bold-line" x1="574" y1="56" x2="610" y2="56"/>
         <rect x="565" y="79" width="52" height="32" rx="10"/>
         <rect x="563" y="77" width="52" height="32" class="terminal" rx="10"/>
         <text class="terminal" x="573" y="97">.true</text>
         <rect x="681" y="3" width="26" height="32" rx="10"/>
         <rect x="679" y="1" width="26" height="32" class="terminal" rx="10"/>
         <text class="terminal" x="689" y="21">)</text>
         <path class="line" d="m17 17 h2 m0 0 h10 m102 0 h10 m0 0 h10 m74 0 h10 m0 0 h10 m24 0 h10 m0 0 h10 m88 0 h10 m20 0 h10 m0 0 h232 m-262 0 h20 m242 0 h20 m-282 0 q10 0 10 10 m262 0 q0 -10 10 -10 m-272 10 v12 m262 0 v-12 m-262 12 q0 10 10 10 m242 0 q10 0 10 -10 m-252 10 h10 m24 0 h10 m0 0 h10 m62 0 h10 m20 0 h10 m56 0 h10 m-96 0 h20 m76 0 h20 m-116 0 q10 0 10 10 m96 0 q0 -10 10 -10 m-106 10 v24 m96 0 v-24 m-96 24 q0 10 10 10 m76 0 q10 0 10 -10 m-86 10 h10 m52 0 h10 m0 0 h4 m40 -76 h10 m26 0 h10 m3 0 h-3"/>
         <polygon points="725 17 733 13 733 21"/>
         <polygon points="725 17 717 13 717 21"/>
</svg>