      <svg xmlns="http://www.w3.org/2000/svg" width="630" height="68">
         <defs>
            <style type="text/css">
               @namespace "http://www.w3.org/2000/svg";
               .line                 {fill: none; stroke: #1F1F1F;}
               .bold-line            {stroke: #0A0A0A; shape-rendering: crispEdges; stroke-width:
               2; }
               .thin-line            {stroke: #0F0F0F; shape-rendering: crispEdges}
               .filled               {fill: #1F1F1F; stroke: none;}
               text.terminal         {font-family: Verdana, Sans-serif;
               font-size: 12px;
               fill: #0A0A0A;
               font-weight: bold;
               }
               text.nonterminal      {font-family: Verdana, Sans-serif;
               font-size: 12px;
               fill: #0D0D0D;
               }
               text.regexp           {font-family: Verdana, Sans-serif;
               font-size: 12px;
               fill: #0F0F0F;
               }
               rect, circle, polygon {fill: #1F1F1F; stroke: #1F1F1F;}
               rect.terminal         {fill: #CCCCCC; stroke: #1F1F1F;}
               rect.nonterminal      {fill: #E3E3E3; stroke: #1F1F1F;}
               rect.text             {fill: none; stroke: none;}    
               polygon.regexp        {fill: #EFEFEF; stroke: #1F1F1F;}
               
            </style>
         </defs>
         <polygon points="9 17 1 13 1 21"/>
         <polygon points="17 17 9 13 9 21"/>
         <rect x="31" y="3" width="78" height="32" rx="10"/>
         <rect x="29" y="1" width="78" height="32" class="terminal" rx="10"/>
         <text class="terminal" x="39" y="21">connect(</text>
         <a xmlns:xlink="http://www.w3.org/1999/xlink" xlink:href="#smthhost" xlink:title="smthhost">
            <rect x="129" y="3" width="78" height="32"/>
            <rect x="127" y="1" width="78" height="32" class="nonterminal"/>
            <text class="nonterminal" x="137" y="21">smthhost</text>
         </a>
         <rect x="247" y="3" width="24" height="32" rx="10"/>
         <rect x="245" y="1" width="24" height="32" class="terminal" rx="10"/>
         <text class="terminal" x="255" y="21">,</text>
         <a xmlns:xlink="http://www.w3.org/1999/xlink" xlink:href="#authid" xlink:title="authid">
            <rect x="291" y="3" width="60" height="32"/>
            <rect x="289" y="1" width="60" height="32" class="nonterminal"/>
            <text class="nonterminal" x="299" y="21">authid</text>
         </a>
         <rect x="391" y="3" width="24" height="32" rx="10"/>
         <rect x="389" y="1" width="24" height="32" class="terminal" rx="10"/>
         <text class="terminal" x="399" y="21">,</text>
         <a xmlns:xlink="http://www.w3.org/1999/xlink" xlink:href="#password" xlink:title="password">
            <rect x="435" y="3" width="82" height="32"/>
            <rect x="433" y="1" width="82" height="32" class="nonterminal"/>
            <text class="nonterminal" x="443" y="21">password</text>
         </a>
         <rect x="577" y="3" width="26" height="32" rx="10"/>
         <rect x="575" y="1" width="26" height="32" class="terminal" rx="10"/>
         <text class="terminal" x="585" y="21">)</text>
         <svg:path xmlns:svg="http://www.w3.org/2000/svg" class="line" d="m17 17 h2 m0 0 h10 m78 0 h10 m0 0 h10 m78 0 h10 m20 0 h10 m24 0 h10 m0 0 h10 m60 0 h10 m20 0 h10 m24 0 h10 m0 0 h10 m82 0 h10 m-166 0 h20 m146 0 h20 m-186 0 q10 0 10 10 m166 0 q0 -10 10 -10 m-176 10 v14 m166 0 v-14 m-166 14 q0 10 10 10 m146 0 q10 0 10 -10 m-156 10 h10 m0 0 h136 m-310 -34 h20 m310 0 h20 m-350 0 q10 0 10 10 m330 0 q0 -10 10 -10 m-340 10 v30 m330 0 v-30 m-330 30 q0 10 10 10 m310 0 q10 0 10 -10 m-320 10 h10 m0 0 h300 m20 -50 h10 m26 0 h10 m3 0 h-3"/>
         <polygon points="621 17 629 13 629 21"/>
         <polygon points="621 17 613 13 613 21"/>
      </svg>
