      <svg xmlns="http://www.w3.org/2000/svg" width="270" height="80">
         <defs>
            <style type="text/css">
               @namespace "http://www.w3.org/2000/svg";
               .line                 {fill: none; stroke: #1F1F1F;}
               .bold-line            {stroke: #0A0A0A; shape-rendering: crispEdges; stroke-width:
               2; }
               .thin-line            {stroke: #0F0F0F; shape-rendering: crispEdges}
               .filled               {fill: #1F1F1F; stroke: none;}
               text.terminal         {font-family: Verdana, Sans-serif;
               font-size: 12px;
               fill: #0A0A0A;
               font-weight: bold;
               }
               text.nonterminal      {font-family: Verdana, Sans-serif; font-style: italic;
               font-size: 12px;
               fill: #0D0D0D;
               }
               text.regexp           {font-family: Verdana, Sans-serif;
               font-size: 12px;
               fill: #0F0F0F;
               }
               rect, circle, polygon {fill: #1F1F1F; stroke: #1F1F1F;}
               rect.terminal         {fill: #CCCCCC; stroke: #1F1F1F;}
               rect.nonterminal      {fill: #E3E3E3; stroke: #1F1F1F;}
               rect.text             {fill: none; stroke: none;}    
               polygon.regexp        {fill: #EFEFEF; stroke: #1F1F1F;}
               
            </style>
         </defs>
         <polygon points="9 17 1 13 1 21"/>
         <polygon points="17 17 9 13 9 21"/>
         <rect x="51" y="3" width="60" height="32" rx="10"/>
         <rect x="49" y="1" width="60" height="32" class="terminal" rx="10"/>
         <text class="terminal" x="59" y="21">debug</text>
         <rect x="51" y="47" width="60" height="32" rx="10"/>
         <rect x="49" y="45" width="60" height="32" class="terminal" rx="10"/>
         <text class="terminal" x="59" y="65">debug</text>
         <rect x="131" y="47" width="30" height="32" rx="10"/>
         <rect x="129" y="45" width="30" height="32" class="terminal" rx="10"/>
         <text class="terminal" x="139" y="65">=</text>
<!--     <a xmlns:xlink="http://www.w3.org/1999/xlink" xlink:href="#flag" xlink:title="flag"> -->
            <rect x="181" y="47" width="42" height="32"/>
            <rect x="179" y="45" width="42" height="32" class="nonterminal"/>
            <text class="nonterminal" x="189" y="65">flag</text>
<!--     </a> -->
         <svg:path xmlns:svg="http://www.w3.org/2000/svg" class="line" d="m17 17 h2 m20 0 h10 m60 0 h10 m0 0 h112 m-212 0 h20 m192 0 h20 m-232 0 q10 0 10 10 m212 0 q0 -10 10 -10 m-222 10 v24 m212 0 v-24 m-212 24 q0 10 10 10 m192 0 q10 0 10 -10 m-202 10 h10 m60 0 h10 m0 0 h10 m30 0 h10 m0 0 h10 m42 0 h10 m23 -44 h-3"/>
         <polygon points="261 17 269 13 269 21"/>
         <polygon points="261 17 253 13 253 21"/>
      </svg>
