      <svg xmlns="http://www.w3.org/2000/svg" width="610" height="84">
         <defs>
            <style type="text/css">
               @namespace "http://www.w3.org/2000/svg";
               .line                 {fill: none; stroke: #1F1F1F;}
               .bold-line            {stroke: #0A0A0A; shape-rendering: crispEdges; stroke-width:
               2; }
               .thin-line            {stroke: #0F0F0F; shape-rendering: crispEdges}
               .filled               {fill: #1F1F1F; stroke: none;}
               text.terminal         {font-family: Verdana, Sans-serif;
               font-size: 12px;
               fill: #0A0A0A;
               font-weight: bold;
               }
               text.nonterminal      {font-family: Verdana, Sans-serif;
               font-size: 12px;
               fill: #0D0D0D;
               }
               text.regexp           {font-family: Verdana, Sans-serif;
               font-size: 12px;
               fill: #0F0F0F;
               }
               rect, circle, polygon {fill: #1F1F1F; stroke: #1F1F1F;}
               rect.terminal         {fill: #CCCCCC; stroke: #1F1F1F;}
               rect.nonterminal      {fill: #E3E3E3; stroke: #1F1F1F;}
               rect.text             {fill: none; stroke: none;}    
               polygon.regexp        {fill: #EFEFEF; stroke: #1F1F1F;}
               
            </style>
         </defs>
         <polygon points="9 17 1 13 1 21"/>
         <polygon points="17 17 9 13 9 21"/>
         <rect x="31" y="3" width="54" height="32" rx="10"/>
         <rect x="29" y="1" width="54" height="32" class="terminal" rx="10"/>
         <text class="terminal" x="39" y="21">new(</text>
         <a xmlns:xlink="http://www.w3.org/1999/xlink" xlink:href="#domain" xlink:title="domain">
            <rect x="125" y="3" width="66" height="32"/>
            <rect x="123" y="1" width="66" height="32" class="nonterminal"/>
            <text class="nonterminal" x="133" y="21">domain</text>
         </a>
         <rect x="231" y="3" width="24" height="32" rx="10"/>
         <rect x="229" y="1" width="24" height="32" class="terminal" rx="10"/>
         <text class="terminal" x="239" y="21">,</text>
         <a xmlns:xlink="http://www.w3.org/1999/xlink" xlink:href="#type" xlink:title="type">
            <rect x="275" y="3" width="48" height="32"/>
            <rect x="273" y="1" width="48" height="32" class="nonterminal"/>
            <text class="nonterminal" x="283" y="21">type</text>
         </a>
         <rect x="363" y="3" width="24" height="32" rx="10"/>
         <rect x="361" y="1" width="24" height="32" class="terminal" rx="10"/>
         <text class="terminal" x="371" y="21">,</text>
         <a xmlns:xlink="http://www.w3.org/1999/xlink" xlink:href="#protocol" xlink:title="protocol">
            <rect x="407" y="3" width="70" height="32"/>
            <rect x="405" y="1" width="70" height="32" class="nonterminal"/>
            <text class="nonterminal" x="415" y="21">protocol</text>
         </a>
         <rect x="557" y="3" width="26" height="32" rx="10"/>
         <rect x="555" y="1" width="26" height="32" class="terminal" rx="10"/>
         <text class="terminal" x="565" y="21">)</text>
         <svg:path xmlns:svg="http://www.w3.org/2000/svg" class="line" d="m17 17 h2 m0 0 h10 m54 0 h10 m20 0 h10 m66 0 h10 m20 0 h10 m24 0 h10 m0 0 h10 m48 0 h10 m20 0 h10 m24 0 h10 m0 0 h10 m70 0 h10 m-154 0 h20 m134 0 h20 m-174 0 q10 0 10 10 m154 0 q0 -10 10 -10 m-164 10 v14 m154 0 v-14 m-154 14 q0 10 10 10 m134 0 q10 0 10 -10 m-144 10 h10 m0 0 h124 m-286 -34 h20 m286 0 h20 m-326 0 q10 0 10 10 m306 0 q0 -10 10 -10 m-316 10 v30 m306 0 v-30 m-306 30 q0 10 10 10 m286 0 q10 0 10 -10 m-296 10 h10 m0 0 h276 m-412 -50 h20 m412 0 h20 m-452 0 q10 0 10 10 m432 0 q0 -10 10 -10 m-442 10 v46 m432 0 v-46 m-432 46 q0 10 10 10 m412 0 q10 0 10 -10 m-422 10 h10 m0 0 h402 m20 -66 h10 m26 0 h10 m3 0 h-3"/>
         <polygon points="601 17 609 13 609 21"/>
         <polygon points="601 17 593 13 593 21"/>
      </svg>
