      <svg xmlns="http://www.w3.org/2000/svg" width="408" height="36">
         <defs>
            <style type="text/css">
               @namespace "http://www.w3.org/2000/svg";
               .line                 {fill: none; stroke: #1F1F1F;}
               .bold-line            {stroke: #0A0A0A; shape-rendering: crispEdges; stroke-width:
               2; }
               .thin-line            {stroke: #0F0F0F; shape-rendering: crispEdges}
               .filled               {fill: #1F1F1F; stroke: none;}
               text.terminal         {font-family: Verdana, Sans-serif;
               font-size: 12px;
               fill: #0A0A0A;
               font-weight: bold;
               }
               text.nonterminal      {font-family: Verdana, Sans-serif;
               font-size: 12px;
               fill: #0D0D0D;
               }
               text.regexp           {font-family: Verdana, Sans-serif;
               font-size: 12px;
               fill: #0F0F0F;
               }
               rect, circle, polygon {fill: #1F1F1F; stroke: #1F1F1F;}
               rect.terminal         {fill: #CCCCCC; stroke: #1F1F1F;}
               rect.nonterminal      {fill: #E3E3E3; stroke: #1F1F1F;}
               rect.text             {fill: none; stroke: none;}    
               polygon.regexp        {fill: #EFEFEF; stroke: #1F1F1F;}
               
            </style>
         </defs>
         <polygon points="9 17 1 13 1 21"/>
         <polygon points="17 17 9 13 9 21"/>
         <rect x="31" y="3" width="90" height="32" rx="10"/>
         <rect x="29" y="1" width="90" height="32" class="terminal" rx="10"/>
         <text class="terminal" x="39" y="21">recvFrom(</text>
         <a xmlns:xlink="http://www.w3.org/1999/xlink" xlink:href="#length" xlink:title="length">
            <rect x="141" y="3" width="60" height="32"/>
            <rect x="139" y="1" width="60" height="32" class="nonterminal"/>
            <text class="nonterminal" x="149" y="21">length</text>
         </a>
         <rect x="221" y="3" width="24" height="32" rx="10"/>
         <rect x="219" y="1" width="24" height="32" class="terminal" rx="10"/>
         <text class="terminal" x="229" y="21">,</text>
         <a xmlns:xlink="http://www.w3.org/1999/xlink" xlink:href="#address" xlink:title="address">
            <rect x="265" y="3" width="70" height="32"/>
            <rect x="263" y="1" width="70" height="32" class="nonterminal"/>
            <text class="nonterminal" x="273" y="21">address</text>
         </a>
         <rect x="355" y="3" width="26" height="32" rx="10"/>
         <rect x="353" y="1" width="26" height="32" class="terminal" rx="10"/>
         <text class="terminal" x="363" y="21">)</text>
         <svg:path xmlns:svg="http://www.w3.org/2000/svg" class="line" d="m17 17 h2 m0 0 h10 m90 0 h10 m0 0 h10 m60 0 h10 m0 0 h10 m24 0 h10 m0 0 h10 m70 0 h10 m0 0 h10 m26 0 h10 m3 0 h-3"/>
         <polygon points="399 17 407 13 407 21"/>
         <polygon points="399 17 391 13 391 21"/>
      </svg>
