      <svg xmlns="http://www.w3.org/2000/svg" width="504" height="52">
         <defs>
            <style type="text/css">
               @namespace "http://www.w3.org/2000/svg";
               .line                 {fill: none; stroke: #1F1F1F;}
               .bold-line            {stroke: #0A0A0A; shape-rendering: crispEdges; stroke-width:
               2; }
               .thin-line            {stroke: #0F0F0F; shape-rendering: crispEdges}
               .filled               {fill: #1F1F1F; stroke: none;}
               text.terminal         {font-family: Verdana, Sans-serif;
               font-size: 12px;
               fill: #0A0A0A;
               font-weight: bold;
               }
               text.nonterminal      {font-family: Verdana, Sans-serif;
               font-size: 12px;
               fill: #0D0D0D;
               }
               text.regexp           {font-family: Verdana, Sans-serif;
               font-size: 12px;
               fill: #0F0F0F;
               }
               rect, circle, polygon {fill: #1F1F1F; stroke: #1F1F1F;}
               rect.terminal         {fill: #CCCCCC; stroke: #1F1F1F;}
               rect.nonterminal      {fill: #E3E3E3; stroke: #1F1F1F;}
               rect.text             {fill: none; stroke: none;}    
               polygon.regexp        {fill: #EFEFEF; stroke: #1F1F1F;}
               
            </style>
         </defs>
         <polygon points="9 17 1 13 1 21"/>
         <polygon points="17 17 9 13 9 21"/>
         <rect x="31" y="3" width="54" height="32" rx="10"/>
         <rect x="29" y="1" width="54" height="32" class="terminal" rx="10"/>
         <text class="terminal" x="39" y="21">new(</text>
         <a xmlns:xlink="http://www.w3.org/1999/xlink" xlink:href="#host" xlink:title="host">
            <rect x="105" y="3" width="48" height="32"/>
            <rect x="103" y="1" width="48" height="32" class="nonterminal"/>
            <text class="nonterminal" x="113" y="21">host</text>
         </a>
         <rect x="173" y="3" width="24" height="32" rx="10"/>
         <rect x="171" y="1" width="24" height="32" class="terminal" rx="10"/>
         <text class="terminal" x="181" y="21">,</text>
         <a xmlns:xlink="http://www.w3.org/1999/xlink" xlink:href="#port" xlink:title="port">
            <rect x="217" y="3" width="46" height="32"/>
            <rect x="215" y="1" width="46" height="32" class="nonterminal"/>
            <text class="nonterminal" x="225" y="21">port</text>
         </a>
         <rect x="303" y="3" width="24" height="32" rx="10"/>
         <rect x="301" y="1" width="24" height="32" class="terminal" rx="10"/>
         <text class="terminal" x="311" y="21">,</text>
         <a xmlns:xlink="http://www.w3.org/1999/xlink" xlink:href="#bufsize" xlink:title="bufsize">
            <rect x="347" y="3" width="64" height="32"/>
            <rect x="345" y="1" width="64" height="32" class="nonterminal"/>
            <text class="nonterminal" x="355" y="21">bufsize</text>
         </a>
         <rect x="451" y="3" width="26" height="32" rx="10"/>
         <rect x="449" y="1" width="26" height="32" class="terminal" rx="10"/>
         <text class="terminal" x="459" y="21">)</text>
         <svg:path xmlns:svg="http://www.w3.org/2000/svg" class="line" d="m17 17 h2 m0 0 h10 m54 0 h10 m0 0 h10 m48 0 h10 m0 0 h10 m24 0 h10 m0 0 h10 m46 0 h10 m20 0 h10 m24 0 h10 m0 0 h10 m64 0 h10 m-148 0 h20 m128 0 h20 m-168 0 q10 0 10 10 m148 0 q0 -10 10 -10 m-158 10 v14 m148 0 v-14 m-148 14 q0 10 10 10 m128 0 q10 0 10 -10 m-138 10 h10 m0 0 h118 m20 -34 h10 m26 0 h10 m3 0 h-3"/>
         <polygon points="495 17 503 13 503 21"/>
         <polygon points="495 17 487 13 487 21"/>
      </svg>
