      <svg xmlns="http://www.w3.org/2000/svg" width="480" height="68">
         <defs>
            <style type="text/css">
               @namespace "http://www.w3.org/2000/svg";
               .line                 {fill: none; stroke: #1F1F1F;}
               .bold-line            {stroke: #0A0A0A; shape-rendering: crispEdges; stroke-width:
               2; }
               .thin-line            {stroke: #0F0F0F; shape-rendering: crispEdges}
               .filled               {fill: #1F1F1F; stroke: none;}
               text.terminal         {font-family: Verdana, Sans-serif;
               font-size: 12px;
               fill: #0A0A0A;
               font-weight: bold;
               }
               text.nonterminal      {font-family: Verdana, Sans-serif;
               font-size: 12px;
               fill: #0D0D0D;
               }
               text.regexp           {font-family: Verdana, Sans-serif;
               font-size: 12px;
               fill: #0F0F0F;
               }
               rect, circle, polygon {fill: #1F1F1F; stroke: #1F1F1F;}
               rect.terminal         {fill: #CCCCCC; stroke: #1F1F1F;}
               rect.nonterminal      {fill: #E3E3E3; stroke: #1F1F1F;}
               rect.text             {fill: none; stroke: none;}    
               polygon.regexp        {fill: #EFEFEF; stroke: #1F1F1F;}
               
            </style>
         </defs>
         <polygon points="9 17 1 13 1 21"/>
         <polygon points="17 17 9 13 9 21"/>
         <rect x="31" y="3" width="68" height="32" rx="10"/>
         <rect x="29" y="1" width="68" height="32" class="terminal" rx="10"/>
         <text class="terminal" x="39" y="21">lineOut</text>
         <rect x="139" y="3" width="26" height="32" rx="10"/>
         <rect x="137" y="1" width="26" height="32" class="terminal" rx="10"/>
         <text class="terminal" x="147" y="21">(</text>
         <a xmlns:xlink="http://www.w3.org/1999/xlink" xlink:href="#string" xlink:title="string">
            <rect x="185" y="3" width="56" height="32"/>
            <rect x="183" y="1" width="56" height="32" class="nonterminal"/>
            <text class="nonterminal" x="193" y="21">string</text>
         </a>
         <rect x="281" y="3" width="24" height="32" rx="10"/>
         <rect x="279" y="1" width="24" height="32" class="terminal" rx="10"/>
         <text class="terminal" x="289" y="21">,</text>
         <a xmlns:xlink="http://www.w3.org/1999/xlink" xlink:href="#line" xlink:title="line">
            <rect x="325" y="3" width="42" height="32"/>
            <rect x="323" y="1" width="42" height="32" class="nonterminal"/>
            <text class="nonterminal" x="333" y="21">line</text>
         </a>
         <rect x="407" y="3" width="26" height="32" rx="10"/>
         <rect x="405" y="1" width="26" height="32" class="terminal" rx="10"/>
         <text class="terminal" x="415" y="21">)</text>
         <svg:path xmlns:svg="http://www.w3.org/2000/svg" class="line" d="m17 17 h2 m0 0 h10 m68 0 h10 m20 0 h10 m26 0 h10 m0 0 h10 m56 0 h10 m20 0 h10 m24 0 h10 m0 0 h10 m42 0 h10 m-126 0 h20 m106 0 h20 m-146 0 q10 0 10 10 m126 0 q0 -10 10 -10 m-136 10 v14 m126 0 v-14 m-126 14 q0 10 10 10 m106 0 q10 0 10 -10 m-116 10 h10 m0 0 h96 m20 -34 h10 m26 0 h10 m-334 0 h20 m314 0 h20 m-354 0 q10 0 10 10 m334 0 q0 -10 10 -10 m-344 10 v30 m334 0 v-30 m-334 30 q0 10 10 10 m314 0 q10 0 10 -10 m-324 10 h10 m0 0 h304 m23 -50 h-3"/>
         <polygon points="471 17 479 13 479 21"/>
         <polygon points="471 17 463 13 463 21"/>
      </svg>
