      <svg xmlns="http://www.w3.org/2000/svg" width="564" height="52">
         <defs>
            <style type="text/css">
               @namespace "http://www.w3.org/2000/svg";
               .line                 {fill: none; stroke: #1F1F1F;}
               .bold-line            {stroke: #0A0A0A; shape-rendering: crispEdges; stroke-width:
               2; }
               .thin-line            {stroke: #0F0F0F; shape-rendering: crispEdges}
               .filled               {fill: #1F1F1F; stroke: none;}
               text.terminal         {font-family: Verdana, Sans-serif;
               font-size: 12px;
               fill: #0A0A0A;
               font-weight: bold;
               }
               text.nonterminal      {font-family: Verdana, Sans-serif; font-style: italic;
               font-size: 12px;
               fill: #0D0D0D;
               }
               text.regexp           {font-family: Verdana, Sans-serif;
               font-size: 12px;
               fill: #0F0F0F;
               }
               rect, circle, polygon {fill: #1F1F1F; stroke: #1F1F1F;}
               rect.terminal         {fill: #CCCCCC; stroke: #1F1F1F;}
               rect.nonterminal      {fill: #E3E3E3; stroke: #1F1F1F;}
               rect.text             {fill: none; stroke: none;}    
               polygon.regexp        {fill: #EFEFEF; stroke: #1F1F1F;}
               
            </style>
         </defs>
         <polygon points="9 17 1 13 1 21"/>
         <polygon points="17 17 9 13 9 21"/>
         <rect x="31" y="3" width="80" height="32" rx="10"/>
         <rect x="29" y="1" width="80" height="32" class="terminal" rx="10"/>
         <text class="terminal" x="39" y="21">ABBREV(</text>
<!--     <a xmlns:xlink="http://www.w3.org/1999/xlink" xlink:href="#information" xlink:title="information"> -->
            <rect x="131" y="3" width="90" height="32"/>
            <rect x="129" y="1" width="90" height="32" class="nonterminal"/>
            <text class="nonterminal" x="139" y="21">information</text>
<!--     </a> -->
         <rect x="241" y="3" width="24" height="32" rx="10"/>
         <rect x="239" y="1" width="24" height="32" class="terminal" rx="10"/>
         <text class="terminal" x="249" y="21">,</text>
<!--     <a xmlns:xlink="http://www.w3.org/1999/xlink" xlink:href="#info" xlink:title="info"> -->
            <rect x="285" y="3" width="42" height="32"/>
            <rect x="283" y="1" width="42" height="32" class="nonterminal"/>
            <text class="nonterminal" x="293" y="21">info</text>
<!--     </a> -->
         <rect x="367" y="3" width="24" height="32" rx="10"/>
         <rect x="365" y="1" width="24" height="32" class="terminal" rx="10"/>
         <text class="terminal" x="375" y="21">,</text>
<!--     <a xmlns:xlink="http://www.w3.org/1999/xlink" xlink:href="#length" xlink:title="length"> -->
            <rect x="411" y="3" width="60" height="32"/>
            <rect x="409" y="1" width="60" height="32" class="nonterminal"/>
            <text class="nonterminal" x="419" y="21">length</text>
<!--     </a> -->
         <rect x="511" y="3" width="26" height="32" rx="10"/>
         <rect x="509" y="1" width="26" height="32" class="terminal" rx="10"/>
         <text class="terminal" x="519" y="21">)</text>
         <svg:path xmlns:svg="http://www.w3.org/2000/svg" class="line" d="m17 17 h2 m0 0 h10 m80 0 h10 m0 0 h10 m90 0 h10 m0 0 h10 m24 0 h10 m0 0 h10 m42 0 h10 m20 0 h10 m24 0 h10 m0 0 h10 m60 0 h10 m-144 0 h20 m124 0 h20 m-164 0 q10 0 10 10 m144 0 q0 -10 10 -10 m-154 10 v14 m144 0 v-14 m-144 14 q0 10 10 10 m124 0 q10 0 10 -10 m-134 10 h10 m0 0 h114 m20 -34 h10 m26 0 h10 m3 0 h-3"/>
         <polygon points="555 17 563 13 563 21"/>
         <polygon points="555 17 547 13 547 21"/>
      </svg>
