<svg xmlns="http://www.w3.org/2000/svg" width="569" height="69">
         <defs>
            <style type="text/css">
               @namespace "http://www.w3.org/2000/svg";
               .line                 {fill: none; stroke: #1F1F1F;}
               .bold-line            {stroke: #0A0A0A; shape-rendering: crispEdges; stroke-width:
               2; }
               .thin-line            {stroke: #0F0F0F; shape-rendering: crispEdges}
               .filled               {fill: #1F1F1F; stroke: none;}
               text.terminal         {font-family: Verdana, Sans-serif;
               font-size: 12px;
               fill: #0A0A0A;
               font-weight: bold;
               }
               text.nonterminal      {font-family: Verdana, Sans-serif; font-style: italic;
               font-size: 12px;
               fill: #0D0D0D;
               }
               text.regexp           {font-family: Verdana, Sans-serif;
               font-size: 12px;
               fill: #0F0F0F;
               }
               rect, circle, polygon {fill: #1F1F1F; stroke: #1F1F1F;}
               rect.terminal         {fill: #CCCCCC; stroke: #1F1F1F;}
               rect.nonterminal      {fill: #E3E3E3; stroke: #1F1F1F;}
               rect.text             {fill: none; stroke: none;}
               polygon.regexp        {fill: #EFEFEF; stroke: #1F1F1F;}

            </style>
         </defs>

         <polygon points="9 17 1 13 1 21"/>
         <polygon points="17 17 9 13 9 21"/>
         <rect x="31" y="3" width="80" height="32" rx="10"/>
         <rect x="29" y="1" width="80" height="32" class="terminal" rx="10"/>
         <text class="terminal" x="39" y="21">ABBREV(</text><a xmlns:xlink="http://www.w3.org/1999/xlink" xlink:href="#information" xlink:title="information">
            <rect x="131" y="3" width="92" height="32"/>
            <rect x="129" y="1" width="92" height="32" class="nonterminal"/>
            <text class="nonterminal" x="139" y="21">information</text></a><rect x="243" y="3" width="24" height="32" rx="10"/>
         <rect x="241" y="1" width="24" height="32" class="terminal" rx="10"/>
         <text class="terminal" x="251" y="21">,</text><a xmlns:xlink="http://www.w3.org/1999/xlink" xlink:href="#info" xlink:title="info">
            <rect x="287" y="3" width="44" height="32"/>
            <rect x="285" y="1" width="44" height="32" class="nonterminal"/>
            <text class="nonterminal" x="295" y="21">info</text></a><rect x="371" y="35" width="24" height="32" rx="10"/>
         <rect x="369" y="33" width="24" height="32" class="terminal" rx="10"/>
         <text class="terminal" x="379" y="53">,</text><a xmlns:xlink="http://www.w3.org/1999/xlink" xlink:href="#length" xlink:title="length">
            <rect x="415" y="35" width="60" height="32"/>
            <rect x="413" y="33" width="60" height="32" class="nonterminal"/>
            <text class="nonterminal" x="423" y="53">length</text></a><rect x="515" y="3" width="26" height="32" rx="10"/>
         <rect x="513" y="1" width="26" height="32" class="terminal" rx="10"/>
         <text class="terminal" x="523" y="21">)</text>
         <path class="line" d="m17 17 h2 m0 0 h10 m80 0 h10 m0 0 h10 m92 0 h10 m0 0 h10 m24 0 h10 m0 0 h10 m44 0 h10 m20 0 h10 m0 0 h114 m-144 0 h20 m124 0 h20 m-164 0 q10 0 10 10 m144 0 q0 -10 10 -10 m-154 10 v12 m144 0 v-12 m-144 12 q0 10 10 10 m124 0 q10 0 10 -10 m-134 10 h10 m24 0 h10 m0 0 h10 m60 0 h10 m20 -32 h10 m26 0 h10 m3 0 h-3"/>
         <polygon points="559 17 567 13 567 21"/>
         <polygon points="559 17 551 13 551 21"/>
</svg>