      <svg xmlns="http://www.w3.org/2000/svg" width="410" height="96">
         <defs>
            <style type="text/css">
               @namespace "http://www.w3.org/2000/svg";
               .line                 {fill: none; stroke: #1F1F1F;}
               .bold-line            {stroke: #0A0A0A; shape-rendering: crispEdges; stroke-width:
               2; }
               .thin-line            {stroke: #0F0F0F; shape-rendering: crispEdges}
               .filled               {fill: #1F1F1F; stroke: none;}
               text.terminal         {font-family: Verdana, Sans-serif;
               font-size: 12px;
               fill: #0A0A0A;
               font-weight: bold;
               }
               text.nonterminal      {font-family: Verdana, Sans-serif; font-style: italic;
               font-size: 12px;
               fill: #0D0D0D;
               }
               text.regexp           {font-family: Verdana, Sans-serif;
               font-size: 12px;
               fill: #0F0F0F;
               }
               rect, circle, polygon {fill: #1F1F1F; stroke: #1F1F1F;}
               rect.terminal         {fill: #CCCCCC; stroke: #1F1F1F;}
               rect.nonterminal      {fill: #E3E3E3; stroke: #1F1F1F;}
               rect.text             {fill: none; stroke: none;}    
               polygon.regexp        {fill: #EFEFEF; stroke: #1F1F1F;}
               
            </style>
         </defs>
         <polygon points="9 17 1 13 1 21"/>
         <polygon points="17 17 9 13 9 21"/>
         <rect x="51" y="3" width="62" height="32" rx="10"/>
         <rect x="49" y="1" width="62" height="32" class="terminal" rx="10"/>
         <text class="terminal" x="59" y="21">ARG()</text>
         <rect x="51" y="47" width="54" height="32" rx="10"/>
         <rect x="49" y="45" width="54" height="32" class="terminal" rx="10"/>
         <text class="terminal" x="59" y="65">ARG(</text>
<!--     <a xmlns:xlink="http://www.w3.org/1999/xlink" xlink:href="#n" xlink:title="n"> -->
            <rect x="125" y="47" width="28" height="32"/>
            <rect x="123" y="45" width="28" height="32" class="nonterminal"/>
            <text class="nonterminal" x="133" y="65">n</text>
<!--     </a> -->
         <rect x="193" y="47" width="24" height="32" rx="10"/>
         <rect x="191" y="45" width="24" height="32" class="terminal" rx="10"/>
         <text class="terminal" x="201" y="65">,</text>
<!--     <a xmlns:xlink="http://www.w3.org/1999/xlink" xlink:href="#option" xlink:title="option"> -->
            <rect x="237" y="47" width="60" height="32"/>
            <rect x="235" y="45" width="60" height="32" class="nonterminal"/>
            <text class="nonterminal" x="245" y="65">option</text>
<!--     </a> -->
         <rect x="337" y="47" width="26" height="32" rx="10"/>
         <rect x="335" y="45" width="26" height="32" class="terminal" rx="10"/>
         <text class="terminal" x="345" y="65">)</text>
         <svg:path xmlns:svg="http://www.w3.org/2000/svg" class="line" d="m17 17 h2 m20 0 h10 m62 0 h10 m0 0 h250 m-352 0 h20 m332 0 h20 m-372 0 q10 0 10 10 m352 0 q0 -10 10 -10 m-362 10 v24 m352 0 v-24 m-352 24 q0 10 10 10 m332 0 q10 0 10 -10 m-342 10 h10 m54 0 h10 m0 0 h10 m28 0 h10 m20 0 h10 m24 0 h10 m0 0 h10 m60 0 h10 m-144 0 h20 m124 0 h20 m-164 0 q10 0 10 10 m144 0 q0 -10 10 -10 m-154 10 v14 m144 0 v-14 m-144 14 q0 10 10 10 m124 0 q10 0 10 -10 m-134 10 h10 m0 0 h114 m20 -34 h10 m26 0 h10 m23 -44 h-3"/>
         <polygon points="401 17 409 13 409 21"/>
         <polygon points="401 17 393 13 393 21"/>
      </svg>
