      <svg xmlns="http://www.w3.org/2000/svg" width="406" height="112">
         <defs>
            <style type="text/css">
               @namespace "http://www.w3.org/2000/svg";
               .line                 {fill: none; stroke: #1F1F1F;}
               .bold-line            {stroke: #0A0A0A; shape-rendering: crispEdges; stroke-width:
               2; }
               .thin-line            {stroke: #0F0F0F; shape-rendering: crispEdges}
               .filled               {fill: #1F1F1F; stroke: none;}
               text.terminal         {font-family: Verdana, Sans-serif;
               font-size: 12px;
               fill: #0A0A0A;
               font-weight: bold;
               }
               text.nonterminal      {font-family: Verdana, Sans-serif; font-style: italic;
               font-size: 12px;
               fill: #0D0D0D;
               }
               text.regexp           {font-family: Verdana, Sans-serif;
               font-size: 12px;
               fill: #0F0F0F;
               }
               rect, circle, polygon {fill: #1F1F1F; stroke: #1F1F1F;}
               rect.terminal         {fill: #CCCCCC; stroke: #1F1F1F;}
               rect.nonterminal      {fill: #E3E3E3; stroke: #1F1F1F;}
               rect.text             {fill: none; stroke: none;}    
               polygon.regexp        {fill: #EFEFEF; stroke: #1F1F1F;}
               
            </style>
         </defs>
         <polygon points="9 17 1 13 1 21"/>
         <polygon points="17 17 9 13 9 21"/>
         <rect x="51" y="3" width="62" height="32" rx="10"/>
         <rect x="49" y="1" width="62" height="32" class="terminal" rx="10"/>
         <text class="terminal" x="59" y="21">ARG()</text>
         <rect x="51" y="47" width="54" height="32" rx="10"/>
         <rect x="49" y="45" width="54" height="32" class="terminal" rx="10"/>
         <text class="terminal" x="59" y="65">ARG(</text>
<!--     <a xmlns:xlink="http://www.w3.org/1999/xlink" xlink:href="#n" xlink:title="n"> -->
            <rect x="125" y="47" width="26" height="32"/>
            <rect x="123" y="45" width="26" height="32" class="nonterminal"/>
            <text class="nonterminal" x="133" y="65">n</text>
<!--     </a> -->
         <rect x="191" y="79" width="24" height="32" rx="10"/>
         <rect x="189" y="77" width="24" height="32" class="terminal" rx="10"/>
         <text class="terminal" x="199" y="97">,</text>
<!--     <a xmlns:xlink="http://www.w3.org/1999/xlink" xlink:href="#option" xlink:title="option"> -->
            <rect x="235" y="79" width="58" height="32"/>
            <rect x="233" y="77" width="58" height="32" class="nonterminal"/>
            <text class="nonterminal" x="243" y="97">option</text>
<!--     </a> -->
         <rect x="333" y="47" width="26" height="32" rx="10"/>
         <rect x="331" y="45" width="26" height="32" class="terminal" rx="10"/>
         <text class="terminal" x="341" y="65">)</text>
         <svg:path xmlns:svg="http://www.w3.org/2000/svg" class="line" d="m17 17 h2 m20 0 h10 m62 0 h10 m0 0 h246 m-348 0 h20 m328 0 h20 m-368 0 q10 0 10 10 m348 0 q0 -10 10 -10 m-358 10 v24 m348 0 v-24 m-348 24 q0 10 10 10 m328 0 q10 0 10 -10 m-338 10 h10 m54 0 h10 m0 0 h10 m26 0 h10 m20 0 h10 m0 0 h112 m-142 0 h20 m122 0 h20 m-162 0 q10 0 10 10 m142 0 q0 -10 10 -10 m-152 10 v12 m142 0 v-12 m-142 12 q0 10 10 10 m122 0 q10 0 10 -10 m-132 10 h10 m24 0 h10 m0 0 h10 m58 0 h10 m20 -32 h10 m26 0 h10 m23 -44 h-3"/>
         <polygon points="397 17 405 13 405 21"/>
         <polygon points="397 17 389 13 389 21"/>
      </svg>
