      <svg xmlns="http://www.w3.org/2000/svg" width="572" height="68">
         <defs>
            <style type="text/css">
               @namespace "http://www.w3.org/2000/svg";
               .line                 {fill: none; stroke: #1F1F1F;}
               .bold-line            {stroke: #0A0A0A; shape-rendering: crispEdges; stroke-width:
               2; }
               .thin-line            {stroke: #0F0F0F; shape-rendering: crispEdges}
               .filled               {fill: #1F1F1F; stroke: none;}
               text.terminal         {font-family: Verdana, Sans-serif;
               font-size: 12px;
               fill: #0A0A0A;
               font-weight: bold;
               }
               text.nonterminal      {font-family: Verdana, Sans-serif;
               font-size: 12px;
               fill: #0D0D0D;
               }
               text.regexp           {font-family: Verdana, Sans-serif;
               font-size: 12px;
               fill: #0F0F0F;
               }
               rect, circle, polygon {fill: #1F1F1F; stroke: #1F1F1F;}
               rect.terminal         {fill: #CCCCCC; stroke: #1F1F1F;}
               rect.nonterminal      {fill: #E3E3E3; stroke: #1F1F1F;}
               rect.text             {fill: none; stroke: none;}    
               polygon.regexp        {fill: #EFEFEF; stroke: #1F1F1F;}
               
            </style>
         </defs>
         <polygon points="9 17 1 13 1 21"/>
         <polygon points="17 17 9 13 9 21"/>
         <rect x="31" y="3" width="68" height="32" rx="10"/>
         <rect x="29" y="1" width="68" height="32" class="terminal" rx="10"/>
         <text class="terminal" x="39" y="21">bitand(</text>
         <a xmlns:xlink="http://www.w3.org/1999/xlink" xlink:href="#string1" xlink:title="string1">
            <rect x="119" y="3" width="64" height="32"/>
            <rect x="117" y="1" width="64" height="32" class="nonterminal"/>
            <text class="nonterminal" x="127" y="21">string1</text>
         </a>
         <rect x="223" y="3" width="24" height="32" rx="10"/>
         <rect x="221" y="1" width="24" height="32" class="terminal" rx="10"/>
         <text class="terminal" x="231" y="21">,</text>
         <a xmlns:xlink="http://www.w3.org/1999/xlink" xlink:href="#string2" xlink:title="string2">
            <rect x="267" y="3" width="64" height="32"/>
            <rect x="265" y="1" width="64" height="32" class="nonterminal"/>
            <text class="nonterminal" x="275" y="21">string2</text>
         </a>
         <rect x="371" y="3" width="24" height="32" rx="10"/>
         <rect x="369" y="1" width="24" height="32" class="terminal" rx="10"/>
         <text class="terminal" x="379" y="21">,</text>
         <a xmlns:xlink="http://www.w3.org/1999/xlink" xlink:href="#pad" xlink:title="pad">
            <rect x="415" y="3" width="44" height="32"/>
            <rect x="413" y="1" width="44" height="32" class="nonterminal"/>
            <text class="nonterminal" x="423" y="21">pad</text>
         </a>
         <rect x="519" y="3" width="26" height="32" rx="10"/>
         <rect x="517" y="1" width="26" height="32" class="terminal" rx="10"/>
         <text class="terminal" x="527" y="21">)</text>
         <svg:path xmlns:svg="http://www.w3.org/2000/svg" class="line" d="m17 17 h2 m0 0 h10 m68 0 h10 m0 0 h10 m64 0 h10 m20 0 h10 m24 0 h10 m0 0 h10 m64 0 h10 m20 0 h10 m24 0 h10 m0 0 h10 m44 0 h10 m-128 0 h20 m108 0 h20 m-148 0 q10 0 10 10 m128 0 q0 -10 10 -10 m-138 10 v14 m128 0 v-14 m-128 14 q0 10 10 10 m108 0 q10 0 10 -10 m-118 10 h10 m0 0 h98 m-276 -34 h20 m276 0 h20 m-316 0 q10 0 10 10 m296 0 q0 -10 10 -10 m-306 10 v30 m296 0 v-30 m-296 30 q0 10 10 10 m276 0 q10 0 10 -10 m-286 10 h10 m0 0 h266 m20 -50 h10 m26 0 h10 m3 0 h-3"/>
         <polygon points="563 17 571 13 571 21"/>
         <polygon points="563 17 555 13 555 21"/>
      </svg>
