      <svg xmlns="http://www.w3.org/2000/svg" width="560" height="80">
         <defs>
            <style type="text/css">
               @namespace "http://www.w3.org/2000/svg";
               .line                 {fill: none; stroke: #1F1F1F;}
               .bold-line            {stroke: #0A0A0A; shape-rendering: crispEdges; stroke-width:
               2; }
               .thin-line            {stroke: #0F0F0F; shape-rendering: crispEdges}
               .filled               {fill: #1F1F1F; stroke: none;}
               text.terminal         {font-family: Verdana, Sans-serif;
               font-size: 12px;
               fill: #0A0A0A;
               font-weight: bold;
               }
               text.nonterminal      {font-family: Verdana, Sans-serif; font-style: italic;
               font-size: 12px;
               fill: #0D0D0D;
               }
               text.regexp           {font-family: Verdana, Sans-serif;
               font-size: 12px;
               fill: #0F0F0F;
               }
               rect, circle, polygon {fill: #1F1F1F; stroke: #1F1F1F;}
               rect.terminal         {fill: #CCCCCC; stroke: #1F1F1F;}
               rect.nonterminal      {fill: #E3E3E3; stroke: #1F1F1F;}
               rect.text             {fill: none; stroke: none;}    
               polygon.regexp        {fill: #EFEFEF; stroke: #1F1F1F;}
               
            </style>
         </defs>
         <polygon points="9 17 1 13 1 21"/>
         <polygon points="17 17 9 13 9 21"/>
         <rect x="51" y="3" width="78" height="32" rx="10"/>
         <rect x="49" y="1" width="78" height="32" class="terminal" rx="10"/>
         <text class="terminal" x="59" y="21">CENTER(</text>
         <rect x="51" y="47" width="78" height="32" rx="10"/>
         <rect x="49" y="45" width="78" height="32" class="terminal" rx="10"/>
         <text class="terminal" x="59" y="65">CENTRE(</text>
<!--     <a xmlns:xlink="http://www.w3.org/1999/xlink" xlink:href="#string" xlink:title="string"> -->
            <rect x="169" y="3" width="52" height="32"/>
            <rect x="167" y="1" width="52" height="32" class="nonterminal"/>
            <text class="nonterminal" x="177" y="21">string</text>
<!--     </a> -->
         <rect x="241" y="3" width="24" height="32" rx="10"/>
         <rect x="239" y="1" width="24" height="32" class="terminal" rx="10"/>
         <text class="terminal" x="249" y="21">,</text>
<!--     <a xmlns:xlink="http://www.w3.org/1999/xlink" xlink:href="#length" xlink:title="length"> -->
            <rect x="285" y="3" width="56" height="32"/>
            <rect x="283" y="1" width="56" height="32" class="nonterminal"/>
            <text class="nonterminal" x="293" y="21">length</text>
<!--     </a> -->
         <rect x="381" y="35" width="24" height="32" rx="10"/>
         <rect x="379" y="33" width="24" height="32" class="terminal" rx="10"/>
         <text class="terminal" x="389" y="53">,</text>
<!--     <a xmlns:xlink="http://www.w3.org/1999/xlink" xlink:href="#pad" xlink:title="pad"> -->
            <rect x="425" y="35" width="42" height="32"/>
            <rect x="423" y="33" width="42" height="32" class="nonterminal"/>
            <text class="nonterminal" x="433" y="53">pad</text>
<!--     </a> -->
         <rect x="507" y="3" width="26" height="32" rx="10"/>
         <rect x="505" y="1" width="26" height="32" class="terminal" rx="10"/>
         <text class="terminal" x="515" y="21">)</text>
         <svg:path xmlns:svg="http://www.w3.org/2000/svg" class="line" d="m17 17 h2 m20 0 h10 m78 0 h10 m-118 0 h20 m98 0 h20 m-138 0 q10 0 10 10 m118 0 q0 -10 10 -10 m-128 10 v24 m118 0 v-24 m-118 24 q0 10 10 10 m98 0 q10 0 10 -10 m-108 10 h10 m78 0 h10 m20 -44 h10 m52 0 h10 m0 0 h10 m24 0 h10 m0 0 h10 m56 0 h10 m20 0 h10 m0 0 h96 m-126 0 h20 m106 0 h20 m-146 0 q10 0 10 10 m126 0 q0 -10 10 -10 m-136 10 v12 m126 0 v-12 m-126 12 q0 10 10 10 m106 0 q10 0 10 -10 m-116 10 h10 m24 0 h10 m0 0 h10 m42 0 h10 m20 -32 h10 m26 0 h10 m3 0 h-3"/>
         <polygon points="551 17 559 13 559 21"/>
         <polygon points="551 17 543 13 543 21"/>
      </svg>
