      <svg xmlns="http://www.w3.org/2000/svg" width="570" height="80">
         <defs>
            <style type="text/css">
               @namespace "http://www.w3.org/2000/svg";
               .line                 {fill: none; stroke: #1F1F1F;}
               .bold-line            {stroke: #0A0A0A; shape-rendering: crispEdges; stroke-width:
               2; }
               .thin-line            {stroke: #0F0F0F; shape-rendering: crispEdges}
               .filled               {fill: #1F1F1F; stroke: none;}
               text.terminal         {font-family: Verdana, Sans-serif;
               font-size: 12px;
               fill: #0A0A0A;
               font-weight: bold;
               }
               text.nonterminal      {font-family: Verdana, Sans-serif; font-style: italic;
               font-size: 12px;
               fill: #0D0D0D;
               }
               text.regexp           {font-family: Verdana, Sans-serif;
               font-size: 12px;
               fill: #0F0F0F;
               }
               rect, circle, polygon {fill: #1F1F1F; stroke: #1F1F1F;}
               rect.terminal         {fill: #CCCCCC; stroke: #1F1F1F;}
               rect.nonterminal      {fill: #E3E3E3; stroke: #1F1F1F;}
               rect.text             {fill: none; stroke: none;}    
               polygon.regexp        {fill: #EFEFEF; stroke: #1F1F1F;}
               
            </style>
         </defs>
         <polygon points="9 17 1 13 1 21"/>
         <polygon points="17 17 9 13 9 21"/>
         <rect x="51" y="3" width="78" height="32" rx="10"/>
         <rect x="49" y="1" width="78" height="32" class="terminal" rx="10"/>
         <text class="terminal" x="59" y="21">CENTER(</text>
         <rect x="51" y="47" width="78" height="32" rx="10"/>
         <rect x="49" y="45" width="78" height="32" class="terminal" rx="10"/>
         <text class="terminal" x="59" y="65">CENTRE(</text>
<!--     <a xmlns:xlink="http://www.w3.org/1999/xlink" xlink:href="#string" xlink:title="string"> -->
            <rect x="169" y="3" width="56" height="32"/>
            <rect x="167" y="1" width="56" height="32" class="nonterminal"/>
            <text class="nonterminal" x="177" y="21">string</text>
<!--     </a> -->
         <rect x="245" y="3" width="24" height="32" rx="10"/>
         <rect x="243" y="1" width="24" height="32" class="terminal" rx="10"/>
         <text class="terminal" x="253" y="21">,</text>
<!--     <a xmlns:xlink="http://www.w3.org/1999/xlink" xlink:href="#length" xlink:title="length"> -->
            <rect x="289" y="3" width="60" height="32"/>
            <rect x="287" y="1" width="60" height="32" class="nonterminal"/>
            <text class="nonterminal" x="297" y="21">length</text>
<!--     </a> -->
         <rect x="389" y="3" width="24" height="32" rx="10"/>
         <rect x="387" y="1" width="24" height="32" class="terminal" rx="10"/>
         <text class="terminal" x="397" y="21">,</text>
<!--     <a xmlns:xlink="http://www.w3.org/1999/xlink" xlink:href="#pad" xlink:title="pad"> -->
            <rect x="433" y="3" width="44" height="32"/>
            <rect x="431" y="1" width="44" height="32" class="nonterminal"/>
            <text class="nonterminal" x="441" y="21">pad</text>
<!--     </a> -->
         <rect x="517" y="3" width="26" height="32" rx="10"/>
         <rect x="515" y="1" width="26" height="32" class="terminal" rx="10"/>
         <text class="terminal" x="525" y="21">)</text>
         <svg:path xmlns:svg="http://www.w3.org/2000/svg" class="line" d="m17 17 h2 m20 0 h10 m78 0 h10 m-118 0 h20 m98 0 h20 m-138 0 q10 0 10 10 m118 0 q0 -10 10 -10 m-128 10 v24 m118 0 v-24 m-118 24 q0 10 10 10 m98 0 q10 0 10 -10 m-108 10 h10 m78 0 h10 m20 -44 h10 m56 0 h10 m0 0 h10 m24 0 h10 m0 0 h10 m60 0 h10 m20 0 h10 m24 0 h10 m0 0 h10 m44 0 h10 m-128 0 h20 m108 0 h20 m-148 0 q10 0 10 10 m128 0 q0 -10 10 -10 m-138 10 v14 m128 0 v-14 m-128 14 q0 10 10 10 m108 0 q10 0 10 -10 m-118 10 h10 m0 0 h98 m20 -34 h10 m26 0 h10 m3 0 h-3"/>
         <polygon points="561 17 569 13 569 21"/>
         <polygon points="561 17 553 13 553 21"/>
      </svg>
