      <svg xmlns="http://www.w3.org/2000/svg" width="730" height="52">
         <defs>
            <style type="text/css">
               @namespace "http://www.w3.org/2000/svg";
               .line                 {fill: none; stroke: #1F1F1F;}
               .bold-line            {stroke: #0A0A0A; shape-rendering: crispEdges; stroke-width:
               2; }
               .thin-line            {stroke: #0F0F0F; shape-rendering: crispEdges}
               .filled               {fill: #1F1F1F; stroke: none;}
               text.terminal         {font-family: Verdana, Sans-serif;
               font-size: 12px;
               fill: #0A0A0A;
               font-weight: bold;
               }
               text.nonterminal      {font-family: Verdana, Sans-serif;
               font-size: 12px;
               fill: #0D0D0D;
               }
               text.regexp           {font-family: Verdana, Sans-serif;
               font-size: 12px;
               fill: #0F0F0F;
               }
               rect, circle, polygon {fill: #1F1F1F; stroke: #1F1F1F;}
               rect.terminal         {fill: #CCCCCC; stroke: #1F1F1F;}
               rect.nonterminal      {fill: #E3E3E3; stroke: #1F1F1F;}
               rect.text             {fill: none; stroke: none;}    
               polygon.regexp        {fill: #EFEFEF; stroke: #1F1F1F;}
               
            </style>
         </defs>
         <polygon points="9 17 1 13 1 21"/>
         <polygon points="17 17 9 13 9 21"/>
         <rect x="31" y="3" width="92" height="32" rx="10"/>
         <rect x="29" y="1" width="92" height="32" class="terminal" rx="10"/>
         <text class="terminal" x="39" y="21">changestr(</text>
         <a xmlns:xlink="http://www.w3.org/1999/xlink" xlink:href="#needle" xlink:title="needle">
            <rect x="143" y="3" width="62" height="32"/>
            <rect x="141" y="1" width="62" height="32" class="nonterminal"/>
            <text class="nonterminal" x="151" y="21">needle</text>
         </a>
         <rect x="225" y="3" width="24" height="32" rx="10"/>
         <rect x="223" y="1" width="24" height="32" class="terminal" rx="10"/>
         <text class="terminal" x="233" y="21">,</text>
         <a xmlns:xlink="http://www.w3.org/1999/xlink" xlink:href="#haystack" xlink:title="haystack">
            <rect x="269" y="3" width="76" height="32"/>
            <rect x="267" y="1" width="76" height="32" class="nonterminal"/>
            <text class="nonterminal" x="277" y="21">haystack</text>
         </a>
         <rect x="365" y="3" width="24" height="32" rx="10"/>
         <rect x="363" y="1" width="24" height="32" class="terminal" rx="10"/>
         <text class="terminal" x="373" y="21">,</text>
         <a xmlns:xlink="http://www.w3.org/1999/xlink" xlink:href="#newneedle" xlink:title="newneedle">
            <rect x="409" y="3" width="90" height="32"/>
            <rect x="407" y="1" width="90" height="32" class="nonterminal"/>
            <text class="nonterminal" x="417" y="21">newneedle</text>
         </a>
         <rect x="539" y="3" width="24" height="32" rx="10"/>
         <rect x="537" y="1" width="24" height="32" class="terminal" rx="10"/>
         <text class="terminal" x="547" y="21">,</text>
         <a xmlns:xlink="http://www.w3.org/1999/xlink" xlink:href="#count" xlink:title="count">
            <rect x="583" y="3" width="54" height="32"/>
            <rect x="581" y="1" width="54" height="32" class="nonterminal"/>
            <text class="nonterminal" x="591" y="21">count</text>
         </a>
         <rect x="677" y="3" width="26" height="32" rx="10"/>
         <rect x="675" y="1" width="26" height="32" class="terminal" rx="10"/>
         <text class="terminal" x="685" y="21">)</text>
         <svg:path xmlns:svg="http://www.w3.org/2000/svg" class="line" d="m17 17 h2 m0 0 h10 m92 0 h10 m0 0 h10 m62 0 h10 m0 0 h10 m24 0 h10 m0 0 h10 m76 0 h10 m0 0 h10 m24 0 h10 m0 0 h10 m90 0 h10 m20 0 h10 m24 0 h10 m0 0 h10 m54 0 h10 m-138 0 h20 m118 0 h20 m-158 0 q10 0 10 10 m138 0 q0 -10 10 -10 m-148 10 v14 m138 0 v-14 m-138 14 q0 10 10 10 m118 0 q10 0 10 -10 m-128 10 h10 m0 0 h108 m20 -34 h10 m26 0 h10 m3 0 h-3"/>
         <polygon points="721 17 729 13 729 21"/>
         <polygon points="721 17 713 13 713 21"/>
      </svg>
