      <svg xmlns="http://www.w3.org/2000/svg" width="732" height="68">
         <defs>
            <style type="text/css">
               @namespace "http://www.w3.org/2000/svg";
               .line                 {fill: none; stroke: #1F1F1F;}
               .bold-line            {stroke: #0A0A0A; shape-rendering: crispEdges; stroke-width:
               2; }
               .thin-line            {stroke: #0F0F0F; shape-rendering: crispEdges}
               .filled               {fill: #1F1F1F; stroke: none;}
               text.terminal         {font-family: Verdana, Sans-serif;
               font-size: 12px;
               fill: #0A0A0A;
               font-weight: bold;
               }
               text.nonterminal      {font-family: Verdana, Sans-serif; font-style: italic;
               font-size: 12px;
               fill: #0D0D0D;
               }
               text.regexp           {font-family: Verdana, Sans-serif;
               font-size: 12px;
               fill: #0F0F0F;
               }
               rect, circle, polygon {fill: #1F1F1F; stroke: #1F1F1F;}
               rect.terminal         {fill: #CCCCCC; stroke: #1F1F1F;}
               rect.nonterminal      {fill: #E3E3E3; stroke: #1F1F1F;}
               rect.text             {fill: none; stroke: none;}    
               polygon.regexp        {fill: #EFEFEF; stroke: #1F1F1F;}
               
            </style>
         </defs>
         <polygon points="9 17 1 13 1 21"/>
         <polygon points="17 17 9 13 9 21"/>
         <rect x="31" y="3" width="108" height="32" rx="10"/>
         <rect x="29" y="1" width="108" height="32" class="terminal" rx="10"/>
         <text class="terminal" x="39" y="21">CHANGESTR(</text>
<!--     <a xmlns:xlink="http://www.w3.org/1999/xlink" xlink:href="#needle" xlink:title="needle"> -->
            <rect x="159" y="3" width="58" height="32"/>
            <rect x="157" y="1" width="58" height="32" class="nonterminal"/>
            <text class="nonterminal" x="167" y="21">needle</text>
<!--     </a> -->
         <rect x="237" y="3" width="24" height="32" rx="10"/>
         <rect x="235" y="1" width="24" height="32" class="terminal" rx="10"/>
         <text class="terminal" x="245" y="21">,</text>
<!--     <a xmlns:xlink="http://www.w3.org/1999/xlink" xlink:href="#haystack" xlink:title="haystack"> -->
            <rect x="281" y="3" width="74" height="32"/>
            <rect x="279" y="1" width="74" height="32" class="nonterminal"/>
            <text class="nonterminal" x="289" y="21">haystack</text>
<!--     </a> -->
         <rect x="375" y="3" width="24" height="32" rx="10"/>
         <rect x="373" y="1" width="24" height="32" class="terminal" rx="10"/>
         <text class="terminal" x="383" y="21">,</text>
<!--     <a xmlns:xlink="http://www.w3.org/1999/xlink" xlink:href="#newneedle" xlink:title="newneedle"> -->
            <rect x="419" y="3" width="82" height="32"/>
            <rect x="417" y="1" width="82" height="32" class="nonterminal"/>
            <text class="nonterminal" x="427" y="21">newneedle</text>
<!--     </a> -->
         <rect x="541" y="35" width="24" height="32" rx="10"/>
         <rect x="539" y="33" width="24" height="32" class="terminal" rx="10"/>
         <text class="terminal" x="549" y="53">,</text>
<!--     <a xmlns:xlink="http://www.w3.org/1999/xlink" xlink:href="#count" xlink:title="count"> -->
            <rect x="585" y="35" width="54" height="32"/>
            <rect x="583" y="33" width="54" height="32" class="nonterminal"/>
            <text class="nonterminal" x="593" y="53">count</text>
<!--     </a> -->
         <rect x="679" y="3" width="26" height="32" rx="10"/>
         <rect x="677" y="1" width="26" height="32" class="terminal" rx="10"/>
         <text class="terminal" x="687" y="21">)</text>
         <svg:path xmlns:svg="http://www.w3.org/2000/svg" class="line" d="m17 17 h2 m0 0 h10 m108 0 h10 m0 0 h10 m58 0 h10 m0 0 h10 m24 0 h10 m0 0 h10 m74 0 h10 m0 0 h10 m24 0 h10 m0 0 h10 m82 0 h10 m20 0 h10 m0 0 h108 m-138 0 h20 m118 0 h20 m-158 0 q10 0 10 10 m138 0 q0 -10 10 -10 m-148 10 v12 m138 0 v-12 m-138 12 q0 10 10 10 m118 0 q10 0 10 -10 m-128 10 h10 m24 0 h10 m0 0 h10 m54 0 h10 m20 -32 h10 m26 0 h10 m3 0 h-3"/>
         <polygon points="723 17 731 13 731 21"/>
         <polygon points="723 17 715 13 715 21"/>
      </svg>
