<svg xmlns="http://www.w3.org/2000/svg" width="747" height="69">
         <defs>
            <style type="text/css">
               @namespace "http://www.w3.org/2000/svg";
               .line                 {fill: none; stroke: #1F1F1F;}
               .bold-line            {stroke: #0A0A0A; shape-rendering: crispEdges; stroke-width:
               2; }
               .thin-line            {stroke: #0F0F0F; shape-rendering: crispEdges}
               .filled               {fill: #1F1F1F; stroke: none;}
               text.terminal         {font-family: Verdana, Sans-serif;
               font-size: 12px;
               fill: #0A0A0A;
               font-weight: bold;
               }
               text.nonterminal      {font-family: Verdana, Sans-serif; font-style: italic;
               font-size: 12px;
               fill: #0D0D0D;
               }
               text.regexp           {font-family: Verdana, Sans-serif;
               font-size: 12px;
               fill: #0F0F0F;
               }
               rect, circle, polygon {fill: #1F1F1F; stroke: #1F1F1F;}
               rect.terminal         {fill: #CCCCCC; stroke: #1F1F1F;}
               rect.nonterminal      {fill: #E3E3E3; stroke: #1F1F1F;}
               rect.text             {fill: none; stroke: none;}
               polygon.regexp        {fill: #EFEFEF; stroke: #1F1F1F;}

            </style>
         </defs>

         <polygon points="9 17 1 13 1 21"/>
         <polygon points="17 17 9 13 9 21"/>
         <rect x="31" y="3" width="110" height="32" rx="10"/>
         <rect x="29" y="1" width="110" height="32" class="terminal" rx="10"/>
         <text class="terminal" x="39" y="21">CHANGESTR(</text><a xmlns:xlink="http://www.w3.org/1999/xlink" xlink:href="#needle" xlink:title="needle">
            <rect x="161" y="3" width="62" height="32"/>
            <rect x="159" y="1" width="62" height="32" class="nonterminal"/>
            <text class="nonterminal" x="169" y="21">needle</text></a><rect x="243" y="3" width="24" height="32" rx="10"/>
         <rect x="241" y="1" width="24" height="32" class="terminal" rx="10"/>
         <text class="terminal" x="251" y="21">,</text><a xmlns:xlink="http://www.w3.org/1999/xlink" xlink:href="#haystack" xlink:title="haystack">
            <rect x="287" y="3" width="76" height="32"/>
            <rect x="285" y="1" width="76" height="32" class="nonterminal"/>
            <text class="nonterminal" x="295" y="21">haystack</text></a><rect x="383" y="3" width="24" height="32" rx="10"/>
         <rect x="381" y="1" width="24" height="32" class="terminal" rx="10"/>
         <text class="terminal" x="391" y="21">,</text><a xmlns:xlink="http://www.w3.org/1999/xlink" xlink:href="#newneedle" xlink:title="newneedle">
            <rect x="427" y="3" width="88" height="32"/>
            <rect x="425" y="1" width="88" height="32" class="nonterminal"/>
            <text class="nonterminal" x="435" y="21">newneedle</text></a><rect x="555" y="35" width="24" height="32" rx="10"/>
         <rect x="553" y="33" width="24" height="32" class="terminal" rx="10"/>
         <text class="terminal" x="563" y="53">,</text><a xmlns:xlink="http://www.w3.org/1999/xlink" xlink:href="#count" xlink:title="count">
            <rect x="599" y="35" width="54" height="32"/>
            <rect x="597" y="33" width="54" height="32" class="nonterminal"/>
            <text class="nonterminal" x="607" y="53">count</text></a><rect x="693" y="3" width="26" height="32" rx="10"/>
         <rect x="691" y="1" width="26" height="32" class="terminal" rx="10"/>
         <text class="terminal" x="701" y="21">)</text>
         <path class="line" d="m17 17 h2 m0 0 h10 m110 0 h10 m0 0 h10 m62 0 h10 m0 0 h10 m24 0 h10 m0 0 h10 m76 0 h10 m0 0 h10 m24 0 h10 m0 0 h10 m88 0 h10 m20 0 h10 m0 0 h108 m-138 0 h20 m118 0 h20 m-158 0 q10 0 10 10 m138 0 q0 -10 10 -10 m-148 10 v12 m138 0 v-12 m-138 12 q0 10 10 10 m118 0 q10 0 10 -10 m-128 10 h10 m24 0 h10 m0 0 h10 m54 0 h10 m20 -32 h10 m26 0 h10 m3 0 h-3"/>
         <polygon points="737 17 745 13 745 21"/>
         <polygon points="737 17 729 13 729 21"/>
</svg>