      <svg xmlns="http://www.w3.org/2000/svg" width="648" height="84">
         <defs>
            <style type="text/css">
               @namespace "http://www.w3.org/2000/svg";
               .line                 {fill: none; stroke: #1F1F1F;}
               .bold-line            {stroke: #0A0A0A; shape-rendering: crispEdges; stroke-width:
               2; }
               .thin-line            {stroke: #0F0F0F; shape-rendering: crispEdges}
               .filled               {fill: #1F1F1F; stroke: none;}
               text.terminal         {font-family: Verdana, Sans-serif;
               font-size: 12px;
               fill: #0A0A0A;
               font-weight: bold;
               }
               text.nonterminal      {font-family: Verdana, Sans-serif;
               font-size: 12px;
               fill: #0D0D0D;
               }
               text.regexp           {font-family: Verdana, Sans-serif;
               font-size: 12px;
               fill: #0F0F0F;
               }
               rect, circle, polygon {fill: #1F1F1F; stroke: #1F1F1F;}
               rect.terminal         {fill: #CCCCCC; stroke: #1F1F1F;}
               rect.nonterminal      {fill: #E3E3E3; stroke: #1F1F1F;}
               rect.text             {fill: none; stroke: none;}    
               polygon.regexp        {fill: #EFEFEF; stroke: #1F1F1F;}
               
            </style>
         </defs>
         <polygon points="9 17 1 13 1 21"/>
         <polygon points="17 17 9 13 9 21"/>
         <rect x="31" y="3" width="76" height="32" rx="10"/>
         <rect x="29" y="1" width="76" height="32" class="terminal" rx="10"/>
         <text class="terminal" x="39" y="21">charout(</text>
         <a xmlns:xlink="http://www.w3.org/1999/xlink" xlink:href="#name" xlink:title="name">
            <rect x="147" y="3" width="54" height="32"/>
            <rect x="145" y="1" width="54" height="32" class="nonterminal"/>
            <text class="nonterminal" x="155" y="21">name</text>
         </a>
         <rect x="241" y="3" width="24" height="32" rx="10"/>
         <rect x="239" y="1" width="24" height="32" class="terminal" rx="10"/>
         <text class="terminal" x="249" y="21">,</text>
         <a xmlns:xlink="http://www.w3.org/1999/xlink" xlink:href="#string" xlink:title="string">
            <rect x="305" y="3" width="56" height="32"/>
            <rect x="303" y="1" width="56" height="32" class="nonterminal"/>
            <text class="nonterminal" x="313" y="21">string</text>
         </a>
         <rect x="421" y="3" width="24" height="32" rx="10"/>
         <rect x="419" y="1" width="24" height="32" class="terminal" rx="10"/>
         <text class="terminal" x="429" y="21">,</text>
         <a xmlns:xlink="http://www.w3.org/1999/xlink" xlink:href="#start" xlink:title="start">
            <rect x="465" y="3" width="50" height="32"/>
            <rect x="463" y="1" width="50" height="32" class="nonterminal"/>
            <text class="nonterminal" x="473" y="21">start</text>
         </a>
         <rect x="595" y="3" width="26" height="32" rx="10"/>
         <rect x="593" y="1" width="26" height="32" class="terminal" rx="10"/>
         <text class="terminal" x="603" y="21">)</text>
         <svg:path xmlns:svg="http://www.w3.org/2000/svg" class="line" d="m17 17 h2 m0 0 h10 m76 0 h10 m20 0 h10 m54 0 h10 m20 0 h10 m24 0 h10 m20 0 h10 m56 0 h10 m-96 0 h20 m76 0 h20 m-116 0 q10 0 10 10 m96 0 q0 -10 10 -10 m-106 10 v14 m96 0 v-14 m-96 14 q0 10 10 10 m76 0 q10 0 10 -10 m-86 10 h10 m0 0 h66 m40 -34 h10 m24 0 h10 m0 0 h10 m50 0 h10 m-134 0 h20 m114 0 h20 m-154 0 q10 0 10 10 m134 0 q0 -10 10 -10 m-144 10 v14 m134 0 v-14 m-134 14 q0 10 10 10 m114 0 q10 0 10 -10 m-124 10 h10 m0 0 h104 m-314 -34 h20 m314 0 h20 m-354 0 q10 0 10 10 m334 0 q0 -10 10 -10 m-344 10 v30 m334 0 v-30 m-334 30 q0 10 10 10 m314 0 q10 0 10 -10 m-324 10 h10 m0 0 h304 m-428 -50 h20 m428 0 h20 m-468 0 q10 0 10 10 m448 0 q0 -10 10 -10 m-458 10 v46 m448 0 v-46 m-448 46 q0 10 10 10 m428 0 q10 0 10 -10 m-438 10 h10 m0 0 h418 m20 -66 h10 m26 0 h10 m3 0 h-3"/>
         <polygon points="639 17 647 13 647 21"/>
         <polygon points="639 17 631 13 631 21"/>
      </svg>
