      <svg xmlns="http://www.w3.org/2000/svg" width="922" height="146">
         <defs>
            <style type="text/css">
               @namespace "http://www.w3.org/2000/svg";
               .line                 {fill: none; stroke: #1F1F1F;}
               .bold-line            {stroke: #0A0A0A; shape-rendering: crispEdges; stroke-width:
               2; }
               .thin-line            {stroke: #0F0F0F; shape-rendering: crispEdges}
               .filled               {fill: #1F1F1F; stroke: none;}
               text.terminal         {font-family: Verdana, Sans-serif;
               font-size: 12px;
               fill: #0A0A0A;
               font-weight: bold;
               }
               text.nonterminal      {font-family: Verdana, Sans-serif; font-style: italic;
               font-size: 12px;
               fill: #0D0D0D;
               }
               text.regexp           {font-family: Verdana, Sans-serif;
               font-size: 12px;
               fill: #0F0F0F;
               }
               rect, circle, polygon {fill: #1F1F1F; stroke: #1F1F1F;}
               rect.terminal         {fill: #CCCCCC; stroke: #1F1F1F;}
               rect.nonterminal      {fill: #E3E3E3; stroke: #1F1F1F;}
               rect.text             {fill: none; stroke: none;}    
               polygon.regexp        {fill: #EFEFEF; stroke: #1F1F1F;}
               
            </style>
         </defs>
         <polygon points="9 17 1 13 1 21"/>
         <polygon points="17 17 9 13 9 21"/>
         <rect x="31" y="3" width="62" height="32" rx="10"/>
         <rect x="29" y="1" width="62" height="32" class="terminal" rx="10"/>
         <text class="terminal" x="39" y="21">DATE(</text>
         <rect x="133" y="3" width="30" height="32" rx="10"/>
         <rect x="131" y="1" width="30" height="32" class="terminal" rx="10"/>
         <text class="terminal" x="141" y="21">N</text>
<!--     <a xmlns:xlink="http://www.w3.org/1999/xlink" xlink:href="#option" xlink:title="option"> -->
            <rect x="133" y="47" width="60" height="32"/>
            <rect x="131" y="45" width="60" height="32" class="nonterminal"/>
            <text class="nonterminal" x="141" y="65">option</text>
<!--     </a> -->
         <rect x="233" y="3" width="24" height="32" rx="10"/>
         <rect x="231" y="1" width="24" height="32" class="terminal" rx="10"/>
         <text class="terminal" x="241" y="21">,</text>
<!--     <a xmlns:xlink="http://www.w3.org/1999/xlink" xlink:href="#string" xlink:title="string"> -->
            <rect x="297" y="3" width="56" height="32"/>
            <rect x="295" y="1" width="56" height="32" class="nonterminal"/>
            <text class="nonterminal" x="305" y="21">string</text>
<!--     </a> -->
         <rect x="373" y="3" width="24" height="32" rx="10"/>
         <rect x="371" y="1" width="24" height="32" class="terminal" rx="10"/>
         <text class="terminal" x="381" y="21">,</text>
         <rect x="437" y="3" width="30" height="32" rx="10"/>
         <rect x="435" y="1" width="30" height="32" class="terminal" rx="10"/>
         <text class="terminal" x="445" y="21">N</text>
<!--     <a xmlns:xlink="http://www.w3.org/1999/xlink" xlink:href="#option2" xlink:title="option2"> -->
            <rect x="437" y="47" width="68" height="32"/>
            <rect x="435" y="45" width="68" height="32" class="nonterminal"/>
            <text class="nonterminal" x="445" y="65">option2</text>
<!--     </a> -->
         <rect x="297" y="113" width="24" height="32" rx="10"/>
         <rect x="295" y="111" width="24" height="32" class="terminal" rx="10"/>
         <text class="terminal" x="305" y="131">,</text>
         <rect x="565" y="3" width="24" height="32" rx="10"/>
         <rect x="563" y="1" width="24" height="32" class="terminal" rx="10"/>
         <text class="terminal" x="573" y="21">,</text>
<!--     <a xmlns:xlink="http://www.w3.org/1999/xlink" xlink:href="#osep" xlink:title="osep"> -->
            <rect x="629" y="3" width="50" height="32"/>
            <rect x="627" y="1" width="50" height="32" class="nonterminal"/>
            <text class="nonterminal" x="637" y="21">osep</text>
<!--     </a> -->
         <rect x="719" y="3" width="24" height="32" rx="10"/>
         <rect x="717" y="1" width="24" height="32" class="terminal" rx="10"/>
         <text class="terminal" x="727" y="21">,</text>
<!--     <a xmlns:xlink="http://www.w3.org/1999/xlink" xlink:href="#isep" xlink:title="isep"> -->
            <rect x="783" y="3" width="46" height="32"/>
            <rect x="781" y="1" width="46" height="32" class="nonterminal"/>
            <text class="nonterminal" x="791" y="21">isep</text>
<!--     </a> -->
         <rect x="869" y="3" width="26" height="32" rx="10"/>
         <rect x="867" y="1" width="26" height="32" class="terminal" rx="10"/>
         <text class="terminal" x="877" y="21">)</text>
         <svg:path xmlns:svg="http://www.w3.org/2000/svg" class="line" d="m17 17 h2 m0 0 h10 m62 0 h10 m20 0 h10 m30 0 h10 m0 0 h30 m-100 0 h20 m80 0 h20 m-120 0 q10 0 10 10 m100 0 q0 -10 10 -10 m-110 10 v24 m100 0 v-24 m-100 24 q0 10 10 10 m80 0 q10 0 10 -10 m-90 10 h10 m60 0 h10 m-90 -10 v20 m100 0 v-20 m-100 20 v14 m100 0 v-14 m-100 14 q0 10 10 10 m80 0 q10 0 10 -10 m-90 10 h10 m0 0 h70 m20 -78 h10 m24 0 h10 m20 0 h10 m56 0 h10 m0 0 h10 m24 0 h10 m20 0 h10 m30 0 h10 m0 0 h38 m-108 0 h20 m88 0 h20 m-128 0 q10 0 10 10 m108 0 q0 -10 10 -10 m-118 10 v24 m108 0 v-24 m-108 24 q0 10 10 10 m88 0 q10 0 10 -10 m-98 10 h10 m68 0 h10 m-98 -10 v20 m108 0 v-20 m-108 20 v14 m108 0 v-14 m-108 14 q0 10 10 10 m88 0 q10 0 10 -10 m-98 10 h10 m0 0 h78 m-248 -78 h20 m248 0 h20 m-288 0 q10 0 10 10 m268 0 q0 -10 10 -10 m-278 10 v90 m268 0 v-90 m-268 90 q0 10 10 10 m248 0 q10 0 10 -10 m-258 10 h10 m24 0 h10 m0 0 h204 m20 -110 h10 m24 0 h10 m20 0 h10 m50 0 h10 m-90 0 h20 m70 0 h20 m-110 0 q10 0 10 10 m90 0 q0 -10 10 -10 m-100 10 v14 m90 0 v-14 m-90 14 q0 10 10 10 m70 0 q10 0 10 -10 m-80 10 h10 m0 0 h60 m20 -34 h10 m24 0 h10 m20 0 h10 m46 0 h10 m-86 0 h20 m66 0 h20 m-106 0 q10 0 10 10 m86 0 q0 -10 10 -10 m-96 10 v14 m86 0 v-14 m-86 14 q0 10 10 10 m66 0 q10 0 10 -10 m-76 10 h10 m0 0 h56 m20 -34 h10 m26 0 h10 m3 0 h-3"/>
         <polygon points="913 17 921 13 921 21"/>
         <polygon points="913 17 905 13 905 21"/>
      </svg>
