      <svg xmlns="http://www.w3.org/2000/svg" width="956" height="150">
         <defs>
            <style type="text/css">
               @namespace "http://www.w3.org/2000/svg";
               .line                 {fill: none; stroke: #1F1F1F;}
               .bold-line            {stroke: #0A0A0A; shape-rendering: crispEdges; stroke-width:
               2; }
               .thin-line            {stroke: #0F0F0F; shape-rendering: crispEdges}
               .filled               {fill: #1F1F1F; stroke: none;}
               text.terminal         {font-family: Verdana, Sans-serif;
               font-size: 12px;
               fill: #0A0A0A;
               font-weight: bold;
               }
               text.nonterminal      {font-family: Verdana, Sans-serif;
               font-size: 12px;
               fill: #0D0D0D;
               }
               text.regexp           {font-family: Verdana, Sans-serif;
               font-size: 12px;
               fill: #0F0F0F;
               }
               rect, circle, polygon {fill: #1F1F1F; stroke: #1F1F1F;}
               rect.terminal         {fill: #CCCCCC; stroke: #1F1F1F;}
               rect.nonterminal      {fill: #E3E3E3; stroke: #1F1F1F;}
               rect.text             {fill: none; stroke: none;}    
               polygon.regexp        {fill: #EFEFEF; stroke: #1F1F1F;}
               
            </style>
         </defs>
         <polygon points="9 17 1 13 1 21"/>
         <polygon points="17 17 9 13 9 21"/>
         <rect x="31" y="3" width="56" height="32" rx="10"/>
         <rect x="29" y="1" width="56" height="32" class="terminal" rx="10"/>
         <text class="terminal" x="39" y="21">date(</text>
         <a xmlns:xlink="http://www.w3.org/1999/xlink" xlink:href="#option" xlink:title="option">
            <rect x="127" y="3" width="60" height="32"/>
            <rect x="125" y="1" width="60" height="32" class="nonterminal"/>
            <text class="nonterminal" x="135" y="21">option</text>
         </a>
         <rect x="227" y="3" width="24" height="32" rx="10"/>
         <rect x="225" y="1" width="24" height="32" class="terminal" rx="10"/>
         <text class="terminal" x="235" y="21">,</text>
         <a xmlns:xlink="http://www.w3.org/1999/xlink" xlink:href="#string" xlink:title="string">
            <rect x="271" y="3" width="56" height="32"/>
            <rect x="269" y="1" width="56" height="32" class="nonterminal"/>
            <text class="nonterminal" x="279" y="21">string</text>
         </a>
         <rect x="367" y="3" width="24" height="32" rx="10"/>
         <rect x="365" y="1" width="24" height="32" class="terminal" rx="10"/>
         <text class="terminal" x="375" y="21">,</text>
         <a xmlns:xlink="http://www.w3.org/1999/xlink" xlink:href="#option2" xlink:title="option2">
            <rect x="411" y="3" width="68" height="32"/>
            <rect x="409" y="1" width="68" height="32" class="nonterminal"/>
            <text class="nonterminal" x="419" y="21">option2</text>
         </a>
         <rect x="227" y="69" width="24" height="32" rx="10"/>
         <rect x="225" y="67" width="24" height="32" class="terminal" rx="10"/>
         <text class="terminal" x="235" y="87">,</text>
         <a xmlns:xlink="http://www.w3.org/1999/xlink" xlink:href="#string" xlink:title="string">
            <rect x="291" y="69" width="56" height="32"/>
            <rect x="289" y="67" width="56" height="32" class="nonterminal"/>
            <text class="nonterminal" x="299" y="87">string</text>
         </a>
         <rect x="387" y="69" width="24" height="32" rx="10"/>
         <rect x="385" y="67" width="24" height="32" class="terminal" rx="10"/>
         <text class="terminal" x="395" y="87">,</text>
         <a xmlns:xlink="http://www.w3.org/1999/xlink" xlink:href="#option2" xlink:title="option2">
            <rect x="451" y="69" width="68" height="32"/>
            <rect x="449" y="67" width="68" height="32" class="nonterminal"/>
            <text class="nonterminal" x="459" y="87">option2</text>
         </a>
         <rect x="559" y="69" width="24" height="32" rx="10"/>
         <rect x="557" y="67" width="24" height="32" class="terminal" rx="10"/>
         <text class="terminal" x="567" y="87">,</text>
         <a xmlns:xlink="http://www.w3.org/1999/xlink" xlink:href="#osep" xlink:title="osep">
            <rect x="623" y="69" width="50" height="32"/>
            <rect x="621" y="67" width="50" height="32" class="nonterminal"/>
            <text class="nonterminal" x="631" y="87">osep</text>
         </a>
         <rect x="733" y="69" width="24" height="32" rx="10"/>
         <rect x="731" y="67" width="24" height="32" class="terminal" rx="10"/>
         <text class="terminal" x="741" y="87">,</text>
         <a xmlns:xlink="http://www.w3.org/1999/xlink" xlink:href="#isep" xlink:title="isep">
            <rect x="777" y="69" width="46" height="32"/>
            <rect x="775" y="67" width="46" height="32" class="nonterminal"/>
            <text class="nonterminal" x="785" y="87">isep</text>
         </a>
         <rect x="903" y="3" width="26" height="32" rx="10"/>
         <rect x="901" y="1" width="26" height="32" class="terminal" rx="10"/>
         <text class="terminal" x="911" y="21">)</text>
         <svg:path xmlns:svg="http://www.w3.org/2000/svg" class="line" d="m17 17 h2 m0 0 h10 m56 0 h10 m20 0 h10 m60 0 h10 m20 0 h10 m24 0 h10 m0 0 h10 m56 0 h10 m20 0 h10 m24 0 h10 m0 0 h10 m68 0 h10 m-152 0 h20 m132 0 h20 m-172 0 q10 0 10 10 m152 0 q0 -10 10 -10 m-162 10 v14 m152 0 v-14 m-152 14 q0 10 10 10 m132 0 q10 0 10 -10 m-142 10 h10 m0 0 h122 m20 -34 h344 m-656 0 h20 m636 0 h20 m-676 0 q10 0 10 10 m656 0 q0 -10 10 -10 m-666 10 v46 m656 0 v-46 m-656 46 q0 10 10 10 m636 0 q10 0 10 -10 m-646 10 h10 m24 0 h10 m20 0 h10 m56 0 h10 m-96 0 h20 m76 0 h20 m-116 0 q10 0 10 10 m96 0 q0 -10 10 -10 m-106 10 v14 m96 0 v-14 m-96 14 q0 10 10 10 m76 0 q10 0 10 -10 m-86 10 h10 m0 0 h66 m20 -34 h10 m24 0 h10 m20 0 h10 m68 0 h10 m-108 0 h20 m88 0 h20 m-128 0 q10 0 10 10 m108 0 q0 -10 10 -10 m-118 10 v14 m108 0 v-14 m-108 14 q0 10 10 10 m88 0 q10 0 10 -10 m-98 10 h10 m0 0 h78 m20 -34 h10 m24 0 h10 m20 0 h10 m50 0 h10 m-90 0 h20 m70 0 h20 m-110 0 q10 0 10 10 m90 0 q0 -10 10 -10 m-100 10 v14 m90 0 v-14 m-90 14 q0 10 10 10 m70 0 q10 0 10 -10 m-80 10 h10 m0 0 h60 m40 -34 h10 m24 0 h10 m0 0 h10 m46 0 h10 m-130 0 h20 m110 0 h20 m-150 0 q10 0 10 10 m130 0 q0 -10 10 -10 m-140 10 v14 m130 0 v-14 m-130 14 q0 10 10 10 m110 0 q10 0 10 -10 m-120 10 h10 m0 0 h100 m-626 -44 v20 m656 0 v-20 m-656 20 v30 m656 0 v-30 m-656 30 q0 10 10 10 m636 0 q10 0 10 -10 m-646 10 h10 m0 0 h626 m-756 -116 h20 m756 0 h20 m-796 0 q10 0 10 10 m776 0 q0 -10 10 -10 m-786 10 v112 m776 0 v-112 m-776 112 q0 10 10 10 m756 0 q10 0 10 -10 m-766 10 h10 m0 0 h746 m20 -132 h10 m26 0 h10 m3 0 h-3"/>
         <polygon points="947 17 955 13 955 21"/>
         <polygon points="947 17 939 13 939 21"/>
      </svg>
