      <svg xmlns="http://www.w3.org/2000/svg" width="856" height="222">
         <defs>
            <style type="text/css">
               @namespace "http://www.w3.org/2000/svg";
               .line                 {fill: none; stroke: #1F1F1F;}
               .bold-line            {stroke: #0A0A0A; shape-rendering: crispEdges; stroke-width:
               2; }
               .thin-line            {stroke: #0F0F0F; shape-rendering: crispEdges}
               .filled               {fill: #1F1F1F; stroke: none;}
               text.terminal         {font-family: Verdana, Sans-serif;
               font-size: 12px;
               fill: #0A0A0A;
               font-weight: bold;
               }
               text.nonterminal      {font-family: Verdana, Sans-serif; font-style: italic;
               font-size: 12px;
               fill: #0D0D0D;
               }
               text.regexp           {font-family: Verdana, Sans-serif;
               font-size: 12px;
               fill: #0F0F0F;
               }
               rect, circle, polygon {fill: #1F1F1F; stroke: #1F1F1F;}
               rect.terminal         {fill: #CCCCCC; stroke: #1F1F1F;}
               rect.nonterminal      {fill: #E3E3E3; stroke: #1F1F1F;}
               rect.text             {fill: none; stroke: none;}    
               polygon.regexp        {fill: #EFEFEF; stroke: #1F1F1F;}
               
            </style>
         </defs>
         <polygon points="9 17 1 13 1 21"/>
         <polygon points="17 17 9 13 9 21"/>
         <rect x="31" y="3" width="62" height="32" rx="10"/>
         <rect x="29" y="1" width="62" height="32" class="terminal" rx="10"/>
         <text class="terminal" x="39" y="21">DATE(</text>
         <rect x="133" y="35" width="44" height="32" rx="10"/>
         <rect x="131" y="33" width="44" height="32" class="terminal" rx="10"/>
         <text class="terminal" x="141" y="53">"N"</text>
<!--     <a xmlns:xlink="http://www.w3.org/1999/xlink" xlink:href="#option" xlink:title="option"> -->
            <rect x="133" y="79" width="58" height="32"/>
            <rect x="131" y="77" width="58" height="32" class="nonterminal"/>
            <text class="nonterminal" x="141" y="97">option</text>
<!--     </a> -->
         <rect x="231" y="3" width="24" height="32" rx="10"/>
         <rect x="229" y="1" width="24" height="32" class="terminal" rx="10"/>
         <text class="terminal" x="239" y="21">,</text>
         <rect x="295" y="3" width="24" height="32" rx="10"/>
         <rect x="293" y="1" width="24" height="32" class="terminal" rx="10"/>
         <text class="terminal" x="303" y="21">,</text>
<!--     <a xmlns:xlink="http://www.w3.org/1999/xlink" xlink:href="#string" xlink:title="string"> -->
            <rect x="295" y="47" width="52" height="32"/>
            <rect x="293" y="45" width="52" height="32" class="nonterminal"/>
            <text class="nonterminal" x="303" y="65">string</text>
<!--     </a> -->
         <rect x="367" y="47" width="24" height="32" rx="10"/>
         <rect x="365" y="45" width="24" height="32" class="terminal" rx="10"/>
         <text class="terminal" x="375" y="65">,</text>
         <rect x="431" y="79" width="44" height="32" rx="10"/>
         <rect x="429" y="77" width="44" height="32" class="terminal" rx="10"/>
         <text class="terminal" x="439" y="97">"N"</text>
<!--     <a xmlns:xlink="http://www.w3.org/1999/xlink" xlink:href="#option2" xlink:title="option2"> -->
            <rect x="431" y="123" width="66" height="32"/>
            <rect x="429" y="121" width="66" height="32" class="nonterminal"/>
            <text class="nonterminal" x="439" y="141">option2</text>
<!--     </a> -->
         <rect x="557" y="3" width="24" height="32" rx="10"/>
         <rect x="555" y="1" width="24" height="32" class="terminal" rx="10"/>
         <text class="terminal" x="565" y="21">,</text>
<!--     <a xmlns:xlink="http://www.w3.org/1999/xlink" xlink:href="#osep" xlink:title="osep"> -->
            <rect x="621" y="35" width="48" height="32"/>
            <rect x="619" y="33" width="48" height="32" class="nonterminal"/>
            <text class="nonterminal" x="629" y="53">osep</text>
<!--     </a> -->
         <rect x="729" y="35" width="24" height="32" rx="10"/>
         <rect x="727" y="33" width="24" height="32" class="terminal" rx="10"/>
         <text class="terminal" x="737" y="53">,</text>
<!--     <a xmlns:xlink="http://www.w3.org/1999/xlink" xlink:href="#isep" xlink:title="isep"> -->
            <rect x="773" y="35" width="42" height="32"/>
            <rect x="771" y="33" width="42" height="32" class="nonterminal"/>
            <text class="nonterminal" x="781" y="53">isep</text>
<!--     </a> -->
         <rect x="803" y="189" width="26" height="32" rx="10"/>
         <rect x="801" y="187" width="26" height="32" class="terminal" rx="10"/>
         <text class="terminal" x="811" y="207">)</text>
         <svg:path xmlns:svg="http://www.w3.org/2000/svg" class="line" d="m17 17 h2 m0 0 h10 m62 0 h10 m20 0 h10 m0 0 h68 m-98 0 h20 m78 0 h20 m-118 0 q10 0 10 10 m98 0 q0 -10 10 -10 m-108 10 v12 m98 0 v-12 m-98 12 q0 10 10 10 m78 0 q10 0 10 -10 m-88 10 h10 m44 0 h10 m0 0 h14 m-88 -10 v20 m98 0 v-20 m-98 20 v24 m98 0 v-24 m-98 24 q0 10 10 10 m78 0 q10 0 10 -10 m-88 10 h10 m58 0 h10 m20 -76 h10 m24 0 h10 m20 0 h10 m24 0 h10 m0 0 h198 m-262 0 h20 m242 0 h20 m-282 0 q10 0 10 10 m262 0 q0 -10 10 -10 m-272 10 v24 m262 0 v-24 m-262 24 q0 10 10 10 m242 0 q10 0 10 -10 m-252 10 h10 m52 0 h10 m0 0 h10 m24 0 h10 m20 0 h10 m0 0 h76 m-106 0 h20 m86 0 h20 m-126 0 q10 0 10 10 m106 0 q0 -10 10 -10 m-116 10 v12 m106 0 v-12 m-106 12 q0 10 10 10 m86 0 q10 0 10 -10 m-96 10 h10 m44 0 h10 m0 0 h22 m-96 -10 v20 m106 0 v-20 m-106 20 v24 m106 0 v-24 m-106 24 q0 10 10 10 m86 0 q10 0 10 -10 m-96 10 h10 m66 0 h10 m40 -120 h10 m24 0 h10 m20 0 h10 m0 0 h58 m-88 0 h20 m68 0 h20 m-108 0 q10 0 10 10 m88 0 q0 -10 10 -10 m-98 10 v12 m88 0 v-12 m-88 12 q0 10 10 10 m68 0 q10 0 10 -10 m-78 10 h10 m48 0 h10 m40 -32 h10 m0 0 h96 m-126 0 h20 m106 0 h20 m-146 0 q10 0 10 10 m126 0 q0 -10 10 -10 m-136 10 v12 m126 0 v-12 m-126 12 q0 10 10 10 m106 0 q10 0 10 -10 m-116 10 h10 m24 0 h10 m0 0 h10 m42 0 h10 m22 -32 l2 0 m2 0 l2 0 m2 0 l2 0 m-76 186 l2 0 m2 0 l2 0 m2 0 l2 0 m2 0 h10 m26 0 h10 m3 0 h-3"/>
         <polygon points="847 203 855 199 855 207"/>
         <polygon points="847 203 839 199 839 207"/>
      </svg>
