      <svg xmlns="http://www.w3.org/2000/svg" width="500" height="52">
         <defs>
            <style type="text/css">
               @namespace "http://www.w3.org/2000/svg";
               .line                 {fill: none; stroke: #1F1F1F;}
               .bold-line            {stroke: #0A0A0A; shape-rendering: crispEdges; stroke-width:
               2; }
               .thin-line            {stroke: #0F0F0F; shape-rendering: crispEdges}
               .filled               {fill: #1F1F1F; stroke: none;}
               text.terminal         {font-family: Verdana, Sans-serif;
               font-size: 12px;
               fill: #0A0A0A;
               font-weight: bold;
               }
               text.nonterminal      {font-family: Verdana, Sans-serif;
               font-size: 12px;
               fill: #0D0D0D;
               }
               text.regexp           {font-family: Verdana, Sans-serif;
               font-size: 12px;
               fill: #0F0F0F;
               }
               rect, circle, polygon {fill: #1F1F1F; stroke: #1F1F1F;}
               rect.terminal         {fill: #CCCCCC; stroke: #1F1F1F;}
               rect.nonterminal      {fill: #E3E3E3; stroke: #1F1F1F;}
               rect.text             {fill: none; stroke: none;}    
               polygon.regexp        {fill: #EFEFEF; stroke: #1F1F1F;}
               
            </style>
         </defs>
         <polygon points="9 17 1 13 1 21"/>
         <polygon points="17 17 9 13 9 21"/>
         <rect x="31" y="3" width="64" height="32" rx="10"/>
         <rect x="29" y="1" width="64" height="32" class="terminal" rx="10"/>
         <text class="terminal" x="39" y="21">delstr(</text>
         <a xmlns:xlink="http://www.w3.org/1999/xlink" xlink:href="#string" xlink:title="string">
            <rect x="115" y="3" width="56" height="32"/>
            <rect x="113" y="1" width="56" height="32" class="nonterminal"/>
            <text class="nonterminal" x="123" y="21">string</text>
         </a>
         <rect x="191" y="3" width="24" height="32" rx="10"/>
         <rect x="189" y="1" width="24" height="32" class="terminal" rx="10"/>
         <text class="terminal" x="199" y="21">,</text>
         <a xmlns:xlink="http://www.w3.org/1999/xlink" xlink:href="#n" xlink:title="n">
            <rect x="235" y="3" width="28" height="32"/>
            <rect x="233" y="1" width="28" height="32" class="nonterminal"/>
            <text class="nonterminal" x="243" y="21">n</text>
         </a>
         <rect x="303" y="3" width="24" height="32" rx="10"/>
         <rect x="301" y="1" width="24" height="32" class="terminal" rx="10"/>
         <text class="terminal" x="311" y="21">,</text>
         <a xmlns:xlink="http://www.w3.org/1999/xlink" xlink:href="#length" xlink:title="length">
            <rect x="347" y="3" width="60" height="32"/>
            <rect x="345" y="1" width="60" height="32" class="nonterminal"/>
            <text class="nonterminal" x="355" y="21">length</text>
         </a>
         <rect x="447" y="3" width="26" height="32" rx="10"/>
         <rect x="445" y="1" width="26" height="32" class="terminal" rx="10"/>
         <text class="terminal" x="455" y="21">)</text>
         <svg:path xmlns:svg="http://www.w3.org/2000/svg" class="line" d="m17 17 h2 m0 0 h10 m64 0 h10 m0 0 h10 m56 0 h10 m0 0 h10 m24 0 h10 m0 0 h10 m28 0 h10 m20 0 h10 m24 0 h10 m0 0 h10 m60 0 h10 m-144 0 h20 m124 0 h20 m-164 0 q10 0 10 10 m144 0 q0 -10 10 -10 m-154 10 v14 m144 0 v-14 m-144 14 q0 10 10 10 m124 0 q10 0 10 -10 m-134 10 h10 m0 0 h114 m20 -34 h10 m26 0 h10 m3 0 h-3"/>
         <polygon points="491 17 499 13 499 21"/>
         <polygon points="491 17 483 13 483 21"/>
      </svg>
