      <svg xmlns="http://www.w3.org/2000/svg" width="520" height="68">
         <defs>
            <style type="text/css">
               @namespace "http://www.w3.org/2000/svg";
               .line                 {fill: none; stroke: #1F1F1F;}
               .bold-line            {stroke: #0A0A0A; shape-rendering: crispEdges; stroke-width:
               2; }
               .thin-line            {stroke: #0F0F0F; shape-rendering: crispEdges}
               .filled               {fill: #1F1F1F; stroke: none;}
               text.terminal         {font-family: Verdana, Sans-serif;
               font-size: 12px;
               fill: #0A0A0A;
               font-weight: bold;
               }
               text.nonterminal      {font-family: Verdana, Sans-serif; font-style: italic;
               font-size: 12px;
               fill: #0D0D0D;
               }
               text.regexp           {font-family: Verdana, Sans-serif;
               font-size: 12px;
               fill: #0F0F0F;
               }
               rect, circle, polygon {fill: #1F1F1F; stroke: #1F1F1F;}
               rect.terminal         {fill: #CCCCCC; stroke: #1F1F1F;}
               rect.nonterminal      {fill: #E3E3E3; stroke: #1F1F1F;}
               rect.text             {fill: none; stroke: none;}    
               polygon.regexp        {fill: #EFEFEF; stroke: #1F1F1F;}
               
            </style>
         </defs>
         <polygon points="9 17 1 13 1 21"/>
         <polygon points="17 17 9 13 9 21"/>
         <rect x="31" y="3" width="94" height="32" rx="10"/>
         <rect x="29" y="1" width="94" height="32" class="terminal" rx="10"/>
         <text class="terminal" x="39" y="21">DELWORD(</text>
<!--     <a xmlns:xlink="http://www.w3.org/1999/xlink" xlink:href="#string" xlink:title="string"> -->
            <rect x="145" y="3" width="52" height="32"/>
            <rect x="143" y="1" width="52" height="32" class="nonterminal"/>
            <text class="nonterminal" x="153" y="21">string</text>
<!--     </a> -->
         <rect x="217" y="3" width="24" height="32" rx="10"/>
         <rect x="215" y="1" width="24" height="32" class="terminal" rx="10"/>
         <text class="terminal" x="225" y="21">,</text>
<!--     <a xmlns:xlink="http://www.w3.org/1999/xlink" xlink:href="#n" xlink:title="n"> -->
            <rect x="261" y="3" width="26" height="32"/>
            <rect x="259" y="1" width="26" height="32" class="nonterminal"/>
            <text class="nonterminal" x="269" y="21">n</text>
<!--     </a> -->
         <rect x="327" y="35" width="24" height="32" rx="10"/>
         <rect x="325" y="33" width="24" height="32" class="terminal" rx="10"/>
         <text class="terminal" x="335" y="53">,</text>
<!--     <a xmlns:xlink="http://www.w3.org/1999/xlink" xlink:href="#length" xlink:title="length"> -->
            <rect x="371" y="35" width="56" height="32"/>
            <rect x="369" y="33" width="56" height="32" class="nonterminal"/>
            <text class="nonterminal" x="379" y="53">length</text>
<!--     </a> -->
         <rect x="467" y="3" width="26" height="32" rx="10"/>
         <rect x="465" y="1" width="26" height="32" class="terminal" rx="10"/>
         <text class="terminal" x="475" y="21">)</text>
         <svg:path xmlns:svg="http://www.w3.org/2000/svg" class="line" d="m17 17 h2 m0 0 h10 m94 0 h10 m0 0 h10 m52 0 h10 m0 0 h10 m24 0 h10 m0 0 h10 m26 0 h10 m20 0 h10 m0 0 h110 m-140 0 h20 m120 0 h20 m-160 0 q10 0 10 10 m140 0 q0 -10 10 -10 m-150 10 v12 m140 0 v-12 m-140 12 q0 10 10 10 m120 0 q10 0 10 -10 m-130 10 h10 m24 0 h10 m0 0 h10 m56 0 h10 m20 -32 h10 m26 0 h10 m3 0 h-3"/>
         <polygon points="511 17 519 13 519 21"/>
         <polygon points="511 17 503 13 503 21"/>
      </svg>
