<svg xmlns="http://www.w3.org/2000/svg" width="281" height="69">
         <defs>
            <style type="text/css">
               @namespace "http://www.w3.org/2000/svg";
               .line                 {fill: none; stroke: #1F1F1F;}
               .bold-line            {stroke: #0A0A0A; shape-rendering: crispEdges; stroke-width:
               2; }
               .thin-line            {stroke: #0F0F0F; shape-rendering: crispEdges}
               .filled               {fill: #1F1F1F; stroke: none;}
               text.terminal         {font-family: Verdana, Sans-serif;
               font-size: 12px;
               fill: #0A0A0A;
               font-weight: bold;
               }
               text.nonterminal      {font-family: Verdana, Sans-serif; font-style: italic;
               font-size: 12px;
               fill: #0D0D0D;
               }
               text.regexp           {font-family: Verdana, Sans-serif;
               font-size: 12px;
               fill: #0F0F0F;
               }
               rect, circle, polygon {fill: #1F1F1F; stroke: #1F1F1F;}
               rect.terminal         {fill: #CCCCCC; stroke: #1F1F1F;}
               rect.nonterminal      {fill: #E3E3E3; stroke: #1F1F1F;}
               rect.text             {fill: none; stroke: none;}
               polygon.regexp        {fill: #EFEFEF; stroke: #1F1F1F;}

            </style>
         </defs>

         <polygon points="9 17 1 13 1 21"/>
         <polygon points="17 17 9 13 9 21"/>
         <rect x="31" y="3" width="46" height="32" rx="10"/>
         <rect x="29" y="1" width="46" height="32" class="terminal" rx="10"/>
         <text class="terminal" x="39" y="21">GC(</text>
         <rect x="117" y="35" width="70" height="32" rx="10"/>
         <rect x="115" y="33" width="70" height="32" class="terminal" rx="10"/>
         <text class="terminal" x="125" y="53">"Force"</text>
         <rect x="227" y="3" width="26" height="32" rx="10"/>
         <rect x="225" y="1" width="26" height="32" class="terminal" rx="10"/>
         <text class="terminal" x="235" y="21">)</text>
         <path class="line" d="m17 17 h2 m0 0 h10 m46 0 h10 m20 0 h10 m0 0 h80 m-110 0 h20 m90 0 h20 m-130 0 q10 0 10 10 m110 0 q0 -10 10 -10 m-120 10 v12 m110 0 v-12 m-110 12 q0 10 10 10 m90 0 q10 0 10 -10 m-100 10 h10 m70 0 h10 m20 -32 h10 m26 0 h10 m3 0 h-3"/>
         <polygon points="271 17 279 13 279 21"/>
         <polygon points="271 17 263 13 263 21"/>
</svg>