      <svg xmlns="http://www.w3.org/2000/svg" width="812" height="52">
         <defs>
            <style type="text/css">
               @namespace "http://www.w3.org/2000/svg";
               .line                 {fill: none; stroke: #1F1F1F;}
               .bold-line            {stroke: #0A0A0A; shape-rendering: crispEdges; stroke-width:
               2; }
               .thin-line            {stroke: #0F0F0F; shape-rendering: crispEdges}
               .filled               {fill: #1F1F1F; stroke: none;}
               text.terminal         {font-family: Verdana, Sans-serif;
               font-size: 12px;
               fill: #0A0A0A;
               font-weight: bold;
               }
               text.nonterminal      {font-family: Verdana, Sans-serif; font-style: italic;
               font-size: 12px;
               fill: #0D0D0D;
               }
               text.regexp           {font-family: Verdana, Sans-serif;
               font-size: 12px;
               fill: #0F0F0F;
               }
               rect, circle, polygon {fill: #1F1F1F; stroke: #1F1F1F;}
               rect.terminal         {fill: #CCCCCC; stroke: #1F1F1F;}
               rect.nonterminal      {fill: #E3E3E3; stroke: #1F1F1F;}
               rect.text             {fill: none; stroke: none;}    
               polygon.regexp        {fill: #EFEFEF; stroke: #1F1F1F;}
               
            </style>
         </defs>
         <polygon points="9 17 1 13 1 21"/>
         <polygon points="17 17 9 13 9 21"/>
         <rect x="31" y="3" width="76" height="32" rx="10"/>
         <rect x="29" y="1" width="76" height="32" class="terminal" rx="10"/>
         <text class="terminal" x="39" y="21">INSERT(</text>
<!--     <a xmlns:xlink="http://www.w3.org/1999/xlink" xlink:href="#new" xlink:title="new"> -->
            <rect x="127" y="3" width="46" height="32"/>
            <rect x="125" y="1" width="46" height="32" class="nonterminal"/>
            <text class="nonterminal" x="135" y="21">new</text>
<!--     </a> -->
         <rect x="193" y="3" width="24" height="32" rx="10"/>
         <rect x="191" y="1" width="24" height="32" class="terminal" rx="10"/>
         <text class="terminal" x="201" y="21">,</text>
<!--     <a xmlns:xlink="http://www.w3.org/1999/xlink" xlink:href="#target" xlink:title="target"> -->
            <rect x="237" y="3" width="58" height="32"/>
            <rect x="235" y="1" width="58" height="32" class="nonterminal"/>
            <text class="nonterminal" x="245" y="21">target</text>
<!--     </a> -->
         <rect x="315" y="3" width="24" height="32" rx="10"/>
         <rect x="313" y="1" width="24" height="32" class="terminal" rx="10"/>
         <text class="terminal" x="323" y="21">,</text>
<!--     <a xmlns:xlink="http://www.w3.org/1999/xlink" xlink:href="#n" xlink:title="n"> -->
            <rect x="379" y="3" width="28" height="32"/>
            <rect x="377" y="1" width="28" height="32" class="nonterminal"/>
            <text class="nonterminal" x="387" y="21">n</text>
<!--     </a> -->
         <rect x="447" y="3" width="24" height="32" rx="10"/>
         <rect x="445" y="1" width="24" height="32" class="terminal" rx="10"/>
         <text class="terminal" x="455" y="21">,</text>
<!--     <a xmlns:xlink="http://www.w3.org/1999/xlink" xlink:href="#length" xlink:title="length"> -->
            <rect x="511" y="3" width="60" height="32"/>
            <rect x="509" y="1" width="60" height="32" class="nonterminal"/>
            <text class="nonterminal" x="519" y="21">length</text>
<!--     </a> -->
         <rect x="611" y="3" width="24" height="32" rx="10"/>
         <rect x="609" y="1" width="24" height="32" class="terminal" rx="10"/>
         <text class="terminal" x="619" y="21">,</text>
<!--     <a xmlns:xlink="http://www.w3.org/1999/xlink" xlink:href="#pad" xlink:title="pad"> -->
            <rect x="675" y="3" width="44" height="32"/>
            <rect x="673" y="1" width="44" height="32" class="nonterminal"/>
            <text class="nonterminal" x="683" y="21">pad</text>
<!--     </a> -->
         <rect x="759" y="3" width="26" height="32" rx="10"/>
         <rect x="757" y="1" width="26" height="32" class="terminal" rx="10"/>
         <text class="terminal" x="767" y="21">)</text>
         <svg:path xmlns:svg="http://www.w3.org/2000/svg" class="line" d="m17 17 h2 m0 0 h10 m76 0 h10 m0 0 h10 m46 0 h10 m0 0 h10 m24 0 h10 m0 0 h10 m58 0 h10 m0 0 h10 m24 0 h10 m20 0 h10 m28 0 h10 m-68 0 h20 m48 0 h20 m-88 0 q10 0 10 10 m68 0 q0 -10 10 -10 m-78 10 v14 m68 0 v-14 m-68 14 q0 10 10 10 m48 0 q10 0 10 -10 m-58 10 h10 m0 0 h38 m20 -34 h10 m24 0 h10 m20 0 h10 m60 0 h10 m-100 0 h20 m80 0 h20 m-120 0 q10 0 10 10 m100 0 q0 -10 10 -10 m-110 10 v14 m100 0 v-14 m-100 14 q0 10 10 10 m80 0 q10 0 10 -10 m-90 10 h10 m0 0 h70 m20 -34 h10 m24 0 h10 m20 0 h10 m44 0 h10 m-84 0 h20 m64 0 h20 m-104 0 q10 0 10 10 m84 0 q0 -10 10 -10 m-94 10 v14 m84 0 v-14 m-84 14 q0 10 10 10 m64 0 q10 0 10 -10 m-74 10 h10 m0 0 h54 m20 -34 h10 m26 0 h10 m3 0 h-3"/>
         <polygon points="803 17 811 13 811 21"/>
         <polygon points="803 17 795 13 795 21"/>
      </svg>
