      <svg xmlns="http://www.w3.org/2000/svg" width="752" height="68">
         <defs>
            <style type="text/css">
               @namespace "http://www.w3.org/2000/svg";
               .line                 {fill: none; stroke: #1F1F1F;}
               .bold-line            {stroke: #0A0A0A; shape-rendering: crispEdges; stroke-width:
               2; }
               .thin-line            {stroke: #0F0F0F; shape-rendering: crispEdges}
               .filled               {fill: #1F1F1F; stroke: none;}
               text.terminal         {font-family: Verdana, Sans-serif;
               font-size: 12px;
               fill: #0A0A0A;
               font-weight: bold;
               }
               text.nonterminal      {font-family: Verdana, Sans-serif;
               font-size: 12px;
               fill: #0D0D0D;
               }
               text.regexp           {font-family: Verdana, Sans-serif;
               font-size: 12px;
               fill: #0F0F0F;
               }
               rect, circle, polygon {fill: #1F1F1F; stroke: #1F1F1F;}
               rect.terminal         {fill: #CCCCCC; stroke: #1F1F1F;}
               rect.nonterminal      {fill: #E3E3E3; stroke: #1F1F1F;}
               rect.text             {fill: none; stroke: none;}    
               polygon.regexp        {fill: #EFEFEF; stroke: #1F1F1F;}
               
            </style>
         </defs>
         <polygon points="9 17 1 13 1 21"/>
         <polygon points="17 17 9 13 9 21"/>
         <rect x="31" y="3" width="74" height="32" rx="10"/>
         <rect x="29" y="1" width="74" height="32" class="terminal" rx="10"/>
         <text class="terminal" x="39" y="21">lastpos(</text>
         <a xmlns:xlink="http://www.w3.org/1999/xlink" xlink:href="#needle" xlink:title="needle">
            <rect x="125" y="3" width="62" height="32"/>
            <rect x="123" y="1" width="62" height="32" class="nonterminal"/>
            <text class="nonterminal" x="133" y="21">needle</text>
         </a>
         <rect x="207" y="3" width="24" height="32" rx="10"/>
         <rect x="205" y="1" width="24" height="32" class="terminal" rx="10"/>
         <text class="terminal" x="215" y="21">,</text>
         <a xmlns:xlink="http://www.w3.org/1999/xlink" xlink:href="#haystack" xlink:title="haystack">
            <rect x="251" y="3" width="76" height="32"/>
            <rect x="249" y="1" width="76" height="32" class="nonterminal"/>
            <text class="nonterminal" x="259" y="21">haystack</text>
         </a>
         <rect x="367" y="3" width="24" height="32" rx="10"/>
         <rect x="365" y="1" width="24" height="32" class="terminal" rx="10"/>
         <text class="terminal" x="375" y="21">,</text>
         <a xmlns:xlink="http://www.w3.org/1999/xlink" xlink:href="#start" xlink:title="start">
            <rect x="431" y="3" width="50" height="32"/>
            <rect x="429" y="1" width="50" height="32" class="nonterminal"/>
            <text class="nonterminal" x="439" y="21">start</text>
         </a>
         <rect x="541" y="3" width="24" height="32" rx="10"/>
         <rect x="539" y="1" width="24" height="32" class="terminal" rx="10"/>
         <text class="terminal" x="549" y="21">,</text>
         <a xmlns:xlink="http://www.w3.org/1999/xlink" xlink:href="#count" xlink:title="count">
            <rect x="585" y="3" width="54" height="32"/>
            <rect x="583" y="1" width="54" height="32" class="nonterminal"/>
            <text class="nonterminal" x="593" y="21">count</text>
         </a>
         <rect x="699" y="3" width="26" height="32" rx="10"/>
         <rect x="697" y="1" width="26" height="32" class="terminal" rx="10"/>
         <text class="terminal" x="707" y="21">)</text>
         <svg:path xmlns:svg="http://www.w3.org/2000/svg" class="line" d="m17 17 h2 m0 0 h10 m74 0 h10 m0 0 h10 m62 0 h10 m0 0 h10 m24 0 h10 m0 0 h10 m76 0 h10 m20 0 h10 m24 0 h10 m20 0 h10 m50 0 h10 m-90 0 h20 m70 0 h20 m-110 0 q10 0 10 10 m90 0 q0 -10 10 -10 m-100 10 v14 m90 0 v-14 m-90 14 q0 10 10 10 m70 0 q10 0 10 -10 m-80 10 h10 m0 0 h60 m40 -34 h10 m24 0 h10 m0 0 h10 m54 0 h10 m-138 0 h20 m118 0 h20 m-158 0 q10 0 10 10 m138 0 q0 -10 10 -10 m-148 10 v14 m138 0 v-14 m-138 14 q0 10 10 10 m118 0 q10 0 10 -10 m-128 10 h10 m0 0 h108 m-312 -34 h20 m312 0 h20 m-352 0 q10 0 10 10 m332 0 q0 -10 10 -10 m-342 10 v30 m332 0 v-30 m-332 30 q0 10 10 10 m312 0 q10 0 10 -10 m-322 10 h10 m0 0 h302 m20 -50 h10 m26 0 h10 m3 0 h-3"/>
         <polygon points="743 17 751 13 751 21"/>
         <polygon points="743 17 735 13 735 21"/>
      </svg>
