      <svg xmlns="http://www.w3.org/2000/svg" width="768" height="100">
         <defs>
            <style type="text/css">
               @namespace "http://www.w3.org/2000/svg";
               .line                 {fill: none; stroke: #1F1F1F;}
               .bold-line            {stroke: #0A0A0A; shape-rendering: crispEdges; stroke-width:
               2; }
               .thin-line            {stroke: #0F0F0F; shape-rendering: crispEdges}
               .filled               {fill: #1F1F1F; stroke: none;}
               text.terminal         {font-family: Verdana, Sans-serif;
               font-size: 12px;
               fill: #0A0A0A;
               font-weight: bold;
               }
               text.nonterminal      {font-family: Verdana, Sans-serif; font-style: italic;
               font-size: 12px;
               fill: #0D0D0D;
               }
               text.regexp           {font-family: Verdana, Sans-serif;
               font-size: 12px;
               fill: #0F0F0F;
               }
               rect, circle, polygon {fill: #1F1F1F; stroke: #1F1F1F;}
               rect.terminal         {fill: #CCCCCC; stroke: #1F1F1F;}
               rect.nonterminal      {fill: #E3E3E3; stroke: #1F1F1F;}
               rect.text             {fill: none; stroke: none;}    
               polygon.regexp        {fill: #EFEFEF; stroke: #1F1F1F;}
               
            </style>
         </defs>
         <polygon points="9 17 1 13 1 21"/>
         <polygon points="17 17 9 13 9 21"/>
         <rect x="31" y="3" width="90" height="32" rx="10"/>
         <rect x="29" y="1" width="90" height="32" class="terminal" rx="10"/>
         <text class="terminal" x="39" y="21">LASTPOS(</text>
<!--     <a xmlns:xlink="http://www.w3.org/1999/xlink" xlink:href="#needle" xlink:title="needle"> -->
            <rect x="141" y="3" width="62" height="32"/>
            <rect x="139" y="1" width="62" height="32" class="nonterminal"/>
            <text class="nonterminal" x="149" y="21">needle</text>
<!--     </a> -->
         <rect x="223" y="3" width="24" height="32" rx="10"/>
         <rect x="221" y="1" width="24" height="32" class="terminal" rx="10"/>
         <text class="terminal" x="231" y="21">,</text>
<!--     <a xmlns:xlink="http://www.w3.org/1999/xlink" xlink:href="#haystack" xlink:title="haystack"> -->
            <rect x="267" y="3" width="76" height="32"/>
            <rect x="265" y="1" width="76" height="32" class="nonterminal"/>
            <text class="nonterminal" x="275" y="21">haystack</text>
<!--     </a> -->
         <rect x="383" y="35" width="24" height="32" rx="10"/>
         <rect x="381" y="33" width="24" height="32" class="terminal" rx="10"/>
         <text class="terminal" x="391" y="53">,</text>
<!--     <a xmlns:xlink="http://www.w3.org/1999/xlink" xlink:href="#start" xlink:title="start"> -->
            <rect x="447" y="67" width="50" height="32"/>
            <rect x="445" y="65" width="50" height="32" class="nonterminal"/>
            <text class="nonterminal" x="455" y="85">start</text>
<!--     </a> -->
         <rect x="557" y="67" width="24" height="32" rx="10"/>
         <rect x="555" y="65" width="24" height="32" class="terminal" rx="10"/>
         <text class="terminal" x="565" y="85">,</text>
<!--     <a xmlns:xlink="http://www.w3.org/1999/xlink" xlink:href="#count" xlink:title="count"> -->
            <rect x="601" y="67" width="54" height="32"/>
            <rect x="599" y="65" width="54" height="32" class="nonterminal"/>
            <text class="nonterminal" x="609" y="85">count</text>
<!--     </a> -->
         <rect x="715" y="3" width="26" height="32" rx="10"/>
         <rect x="713" y="1" width="26" height="32" class="terminal" rx="10"/>
         <text class="terminal" x="723" y="21">)</text>
         <svg:path xmlns:svg="http://www.w3.org/2000/svg" class="line" d="m17 17 h2 m0 0 h10 m90 0 h10 m0 0 h10 m62 0 h10 m0 0 h10 m24 0 h10 m0 0 h10 m76 0 h10 m20 0 h10 m0 0 h302 m-332 0 h20 m312 0 h20 m-352 0 q10 0 10 10 m332 0 q0 -10 10 -10 m-342 10 v12 m332 0 v-12 m-332 12 q0 10 10 10 m312 0 q10 0 10 -10 m-322 10 h10 m24 0 h10 m20 0 h10 m0 0 h60 m-90 0 h20 m70 0 h20 m-110 0 q10 0 10 10 m90 0 q0 -10 10 -10 m-100 10 v12 m90 0 v-12 m-90 12 q0 10 10 10 m70 0 q10 0 10 -10 m-80 10 h10 m50 0 h10 m40 -32 h10 m0 0 h108 m-138 0 h20 m118 0 h20 m-158 0 q10 0 10 10 m138 0 q0 -10 10 -10 m-148 10 v12 m138 0 v-12 m-138 12 q0 10 10 10 m118 0 q10 0 10 -10 m-128 10 h10 m24 0 h10 m0 0 h10 m54 0 h10 m40 -64 h10 m26 0 h10 m3 0 h-3"/>
         <polygon points="759 17 767 13 767 21"/>
         <polygon points="759 17 751 13 751 21"/>
      </svg>
