      <svg xmlns="http://www.w3.org/2000/svg" width="636" height="84">
         <defs>
            <style type="text/css">
               @namespace "http://www.w3.org/2000/svg";
               .line                 {fill: none; stroke: #1F1F1F;}
               .bold-line            {stroke: #0A0A0A; shape-rendering: crispEdges; stroke-width:
               2; }
               .thin-line            {stroke: #0F0F0F; shape-rendering: crispEdges}
               .filled               {fill: #1F1F1F; stroke: none;}
               text.terminal         {font-family: Verdana, Sans-serif;
               font-size: 12px;
               fill: #0A0A0A;
               font-weight: bold;
               }
               text.nonterminal      {font-family: Verdana, Sans-serif;
               font-size: 12px;
               fill: #0D0D0D;
               }
               text.regexp           {font-family: Verdana, Sans-serif;
               font-size: 12px;
               fill: #0F0F0F;
               }
               rect, circle, polygon {fill: #1F1F1F; stroke: #1F1F1F;}
               rect.terminal         {fill: #CCCCCC; stroke: #1F1F1F;}
               rect.nonterminal      {fill: #E3E3E3; stroke: #1F1F1F;}
               rect.text             {fill: none; stroke: none;}    
               polygon.regexp        {fill: #EFEFEF; stroke: #1F1F1F;}
               
            </style>
         </defs>
         <polygon points="9 17 1 13 1 21"/>
         <polygon points="17 17 9 13 9 21"/>
         <rect x="31" y="3" width="72" height="32" rx="10"/>
         <rect x="29" y="1" width="72" height="32" class="terminal" rx="10"/>
         <text class="terminal" x="39" y="21">lineout(</text>
         <a xmlns:xlink="http://www.w3.org/1999/xlink" xlink:href="#name" xlink:title="name">
            <rect x="143" y="3" width="54" height="32"/>
            <rect x="141" y="1" width="54" height="32" class="nonterminal"/>
            <text class="nonterminal" x="151" y="21">name</text>
         </a>
         <rect x="237" y="3" width="24" height="32" rx="10"/>
         <rect x="235" y="1" width="24" height="32" class="terminal" rx="10"/>
         <text class="terminal" x="245" y="21">,</text>
         <a xmlns:xlink="http://www.w3.org/1999/xlink" xlink:href="#string" xlink:title="string">
            <rect x="301" y="3" width="56" height="32"/>
            <rect x="299" y="1" width="56" height="32" class="nonterminal"/>
            <text class="nonterminal" x="309" y="21">string</text>
         </a>
         <rect x="417" y="3" width="24" height="32" rx="10"/>
         <rect x="415" y="1" width="24" height="32" class="terminal" rx="10"/>
         <text class="terminal" x="425" y="21">,</text>
         <a xmlns:xlink="http://www.w3.org/1999/xlink" xlink:href="#line" xlink:title="line">
            <rect x="461" y="3" width="42" height="32"/>
            <rect x="459" y="1" width="42" height="32" class="nonterminal"/>
            <text class="nonterminal" x="469" y="21">line</text>
         </a>
         <rect x="583" y="3" width="26" height="32" rx="10"/>
         <rect x="581" y="1" width="26" height="32" class="terminal" rx="10"/>
         <text class="terminal" x="591" y="21">)</text>
         <svg:path xmlns:svg="http://www.w3.org/2000/svg" class="line" d="m17 17 h2 m0 0 h10 m72 0 h10 m20 0 h10 m54 0 h10 m20 0 h10 m24 0 h10 m20 0 h10 m56 0 h10 m-96 0 h20 m76 0 h20 m-116 0 q10 0 10 10 m96 0 q0 -10 10 -10 m-106 10 v14 m96 0 v-14 m-96 14 q0 10 10 10 m76 0 q10 0 10 -10 m-86 10 h10 m0 0 h66 m40 -34 h10 m24 0 h10 m0 0 h10 m42 0 h10 m-126 0 h20 m106 0 h20 m-146 0 q10 0 10 10 m126 0 q0 -10 10 -10 m-136 10 v14 m126 0 v-14 m-126 14 q0 10 10 10 m106 0 q10 0 10 -10 m-116 10 h10 m0 0 h96 m-306 -34 h20 m306 0 h20 m-346 0 q10 0 10 10 m326 0 q0 -10 10 -10 m-336 10 v30 m326 0 v-30 m-326 30 q0 10 10 10 m306 0 q10 0 10 -10 m-316 10 h10 m0 0 h296 m-420 -50 h20 m420 0 h20 m-460 0 q10 0 10 10 m440 0 q0 -10 10 -10 m-450 10 v46 m440 0 v-46 m-440 46 q0 10 10 10 m420 0 q10 0 10 -10 m-430 10 h10 m0 0 h410 m20 -66 h10 m26 0 h10 m3 0 h-3"/>
         <polygon points="627 17 635 13 635 21"/>
         <polygon points="627 17 619 13 619 21"/>
      </svg>
