      <svg xmlns="http://www.w3.org/2000/svg" width="624" height="84">
         <defs>
            <style type="text/css">
               @namespace "http://www.w3.org/2000/svg";
               .line                 {fill: none; stroke: #1F1F1F;}
               .bold-line            {stroke: #0A0A0A; shape-rendering: crispEdges; stroke-width:
               2; }
               .thin-line            {stroke: #0F0F0F; shape-rendering: crispEdges}
               .filled               {fill: #1F1F1F; stroke: none;}
               text.terminal         {font-family: Verdana, Sans-serif;
               font-size: 12px;
               fill: #0A0A0A;
               font-weight: bold;
               }
               text.nonterminal      {font-family: Verdana, Sans-serif;
               font-size: 12px;
               fill: #0D0D0D;
               }
               text.regexp           {font-family: Verdana, Sans-serif;
               font-size: 12px;
               fill: #0F0F0F;
               }
               rect, circle, polygon {fill: #1F1F1F; stroke: #1F1F1F;}
               rect.terminal         {fill: #CCCCCC; stroke: #1F1F1F;}
               rect.nonterminal      {fill: #E3E3E3; stroke: #1F1F1F;}
               rect.text             {fill: none; stroke: none;}    
               polygon.regexp        {fill: #EFEFEF; stroke: #1F1F1F;}
               
            </style>
         </defs>
         <polygon points="9 17 1 13 1 21"/>
         <polygon points="17 17 9 13 9 21"/>
         <rect x="31" y="3" width="62" height="32" rx="10"/>
         <rect x="29" y="1" width="62" height="32" class="terminal" rx="10"/>
         <text class="terminal" x="39" y="21">linein(</text>
         <a xmlns:xlink="http://www.w3.org/1999/xlink" xlink:href="#name" xlink:title="name">
            <rect x="133" y="3" width="54" height="32"/>
            <rect x="131" y="1" width="54" height="32" class="nonterminal"/>
            <text class="nonterminal" x="141" y="21">name</text>
         </a>
         <rect x="227" y="3" width="24" height="32" rx="10"/>
         <rect x="225" y="1" width="24" height="32" class="terminal" rx="10"/>
         <text class="terminal" x="235" y="21">,</text>
         <a xmlns:xlink="http://www.w3.org/1999/xlink" xlink:href="#line" xlink:title="line">
            <rect x="291" y="3" width="42" height="32"/>
            <rect x="289" y="1" width="42" height="32" class="nonterminal"/>
            <text class="nonterminal" x="299" y="21">line</text>
         </a>
         <rect x="393" y="3" width="24" height="32" rx="10"/>
         <rect x="391" y="1" width="24" height="32" class="terminal" rx="10"/>
         <text class="terminal" x="401" y="21">,</text>
         <a xmlns:xlink="http://www.w3.org/1999/xlink" xlink:href="#count" xlink:title="count">
            <rect x="437" y="3" width="54" height="32"/>
            <rect x="435" y="1" width="54" height="32" class="nonterminal"/>
            <text class="nonterminal" x="445" y="21">count</text>
         </a>
         <rect x="571" y="3" width="26" height="32" rx="10"/>
         <rect x="569" y="1" width="26" height="32" class="terminal" rx="10"/>
         <text class="terminal" x="579" y="21">)</text>
         <svg:path xmlns:svg="http://www.w3.org/2000/svg" class="line" d="m17 17 h2 m0 0 h10 m62 0 h10 m20 0 h10 m54 0 h10 m20 0 h10 m24 0 h10 m20 0 h10 m42 0 h10 m-82 0 h20 m62 0 h20 m-102 0 q10 0 10 10 m82 0 q0 -10 10 -10 m-92 10 v14 m82 0 v-14 m-82 14 q0 10 10 10 m62 0 q10 0 10 -10 m-72 10 h10 m0 0 h52 m40 -34 h10 m24 0 h10 m0 0 h10 m54 0 h10 m-138 0 h20 m118 0 h20 m-158 0 q10 0 10 10 m138 0 q0 -10 10 -10 m-148 10 v14 m138 0 v-14 m-138 14 q0 10 10 10 m118 0 q10 0 10 -10 m-128 10 h10 m0 0 h108 m-304 -34 h20 m304 0 h20 m-344 0 q10 0 10 10 m324 0 q0 -10 10 -10 m-334 10 v30 m324 0 v-30 m-324 30 q0 10 10 10 m304 0 q10 0 10 -10 m-314 10 h10 m0 0 h294 m-418 -50 h20 m418 0 h20 m-458 0 q10 0 10 10 m438 0 q0 -10 10 -10 m-448 10 v46 m438 0 v-46 m-438 46 q0 10 10 10 m418 0 q10 0 10 -10 m-428 10 h10 m0 0 h408 m20 -66 h10 m26 0 h10 m3 0 h-3"/>
         <polygon points="615 17 623 13 623 21"/>
         <polygon points="615 17 607 13 607 21"/>
      </svg>
