      <svg xmlns="http://www.w3.org/2000/svg" width="602" height="68">
         <defs>
            <style type="text/css">
               @namespace "http://www.w3.org/2000/svg";
               .line                 {fill: none; stroke: #1F1F1F;}
               .bold-line            {stroke: #0A0A0A; shape-rendering: crispEdges; stroke-width:
               2; }
               .thin-line            {stroke: #0F0F0F; shape-rendering: crispEdges}
               .filled               {fill: #1F1F1F; stroke: none;}
               text.terminal         {font-family: Verdana, Sans-serif;
               font-size: 12px;
               fill: #0A0A0A;
               font-weight: bold;
               }
               text.nonterminal      {font-family: Verdana, Sans-serif; font-style: italic;
               font-size: 12px;
               fill: #0D0D0D;
               }
               text.regexp           {font-family: Verdana, Sans-serif;
               font-size: 12px;
               fill: #0F0F0F;
               }
               rect, circle, polygon {fill: #1F1F1F; stroke: #1F1F1F;}
               rect.terminal         {fill: #CCCCCC; stroke: #1F1F1F;}
               rect.nonterminal      {fill: #E3E3E3; stroke: #1F1F1F;}
               rect.text             {fill: none; stroke: none;}    
               polygon.regexp        {fill: #EFEFEF; stroke: #1F1F1F;}
               
            </style>
         </defs>
         <polygon points="9 17 1 13 1 21"/>
         <polygon points="17 17 9 13 9 21"/>
         <rect x="31" y="3" width="86" height="32" rx="10"/>
         <rect x="29" y="1" width="86" height="32" class="terminal" rx="10"/>
         <text class="terminal" x="39" y="21">LINEOUT(</text>
<!--     <a xmlns:xlink="http://www.w3.org/1999/xlink" xlink:href="#name" xlink:title="name"> -->
            <rect x="157" y="35" width="54" height="32"/>
            <rect x="155" y="33" width="54" height="32" class="nonterminal"/>
            <text class="nonterminal" x="165" y="53">name</text>
<!--     </a> -->
         <rect x="251" y="3" width="24" height="32" rx="10"/>
         <rect x="249" y="1" width="24" height="32" class="terminal" rx="10"/>
         <text class="terminal" x="259" y="21">,</text>
<!--     <a xmlns:xlink="http://www.w3.org/1999/xlink" xlink:href="#string" xlink:title="string"> -->
            <rect x="315" y="35" width="52" height="32"/>
            <rect x="313" y="33" width="52" height="32" class="nonterminal"/>
            <text class="nonterminal" x="323" y="53">string</text>
<!--     </a> -->
         <rect x="427" y="35" width="24" height="32" rx="10"/>
         <rect x="425" y="33" width="24" height="32" class="terminal" rx="10"/>
         <text class="terminal" x="435" y="53">,</text>
<!--     <a xmlns:xlink="http://www.w3.org/1999/xlink" xlink:href="#line" xlink:title="line"> -->
            <rect x="471" y="35" width="38" height="32"/>
            <rect x="469" y="33" width="38" height="32" class="nonterminal"/>
            <text class="nonterminal" x="479" y="53">line</text>
<!--     </a> -->
         <rect x="549" y="3" width="26" height="32" rx="10"/>
         <rect x="547" y="1" width="26" height="32" class="terminal" rx="10"/>
         <text class="terminal" x="557" y="21">)</text>
         <svg:path xmlns:svg="http://www.w3.org/2000/svg" class="line" d="m17 17 h2 m0 0 h10 m86 0 h10 m20 0 h10 m0 0 h64 m-94 0 h20 m74 0 h20 m-114 0 q10 0 10 10 m94 0 q0 -10 10 -10 m-104 10 v12 m94 0 v-12 m-94 12 q0 10 10 10 m74 0 q10 0 10 -10 m-84 10 h10 m54 0 h10 m20 -32 h10 m24 0 h10 m20 0 h10 m0 0 h62 m-92 0 h20 m72 0 h20 m-112 0 q10 0 10 10 m92 0 q0 -10 10 -10 m-102 10 v12 m92 0 v-12 m-92 12 q0 10 10 10 m72 0 q10 0 10 -10 m-82 10 h10 m52 0 h10 m40 -32 h10 m0 0 h92 m-122 0 h20 m102 0 h20 m-142 0 q10 0 10 10 m122 0 q0 -10 10 -10 m-132 10 v12 m122 0 v-12 m-122 12 q0 10 10 10 m102 0 q10 0 10 -10 m-112 10 h10 m24 0 h10 m0 0 h10 m38 0 h10 m20 -32 h10 m26 0 h10 m3 0 h-3"/>
         <polygon points="593 17 601 13 601 21"/>
         <polygon points="593 17 585 13 585 21"/>
      </svg>
