      <svg xmlns="http://www.w3.org/2000/svg" width="458" height="112">
         <defs>
            <style type="text/css">
               @namespace "http://www.w3.org/2000/svg";
               .line                 {fill: none; stroke: #1F1F1F;}
               .bold-line            {stroke: #0A0A0A; shape-rendering: crispEdges; stroke-width:
               2; }
               .thin-line            {stroke: #0F0F0F; shape-rendering: crispEdges}
               .filled               {fill: #1F1F1F; stroke: none;}
               text.terminal         {font-family: Verdana, Sans-serif;
               font-size: 12px;
               fill: #0A0A0A;
               font-weight: bold;
               }
               text.nonterminal      {font-family: Verdana, Sans-serif; font-style: italic;
               font-size: 12px;
               fill: #0D0D0D;
               }
               text.regexp           {font-family: Verdana, Sans-serif;
               font-size: 12px;
               fill: #0F0F0F;
               }
               rect, circle, polygon {fill: #1F1F1F; stroke: #1F1F1F;}
               rect.terminal         {fill: #CCCCCC; stroke: #1F1F1F;}
               rect.nonterminal      {fill: #E3E3E3; stroke: #1F1F1F;}
               rect.text             {fill: none; stroke: none;}    
               polygon.regexp        {fill: #EFEFEF; stroke: #1F1F1F;}
               
            </style>
         </defs>
         <polygon points="9 17 1 13 1 21"/>
         <polygon points="17 17 9 13 9 21"/>
         <rect x="31" y="3" width="68" height="32" rx="10"/>
         <rect x="29" y="1" width="68" height="32" class="terminal" rx="10"/>
         <text class="terminal" x="39" y="21">LINES(</text>
<!--     <a xmlns:xlink="http://www.w3.org/1999/xlink" xlink:href="#name" xlink:title="name"> -->
            <rect x="139" y="35" width="54" height="32"/>
            <rect x="137" y="33" width="54" height="32" class="nonterminal"/>
            <text class="nonterminal" x="147" y="53">name</text>
<!--     </a> -->
         <rect x="253" y="35" width="24" height="32" rx="10"/>
         <rect x="251" y="33" width="24" height="32" class="terminal" rx="10"/>
         <text class="terminal" x="261" y="53">,</text>
         <rect x="297" y="35" width="68" height="32" rx="10"/>
         <rect x="295" y="33" width="68" height="32" class="terminal" rx="10"/>
         <text class="terminal" x="305" y="53">Normal</text>
         <rect x="253" y="79" width="24" height="32" rx="10"/>
         <rect x="251" y="77" width="24" height="32" class="terminal" rx="10"/>
         <text class="terminal" x="261" y="97">,</text>
         <rect x="297" y="79" width="58" height="32" rx="10"/>
         <rect x="295" y="77" width="58" height="32" class="terminal" rx="10"/>
         <text class="terminal" x="305" y="97">Count</text>
         <rect x="405" y="3" width="26" height="32" rx="10"/>
         <rect x="403" y="1" width="26" height="32" class="terminal" rx="10"/>
         <text class="terminal" x="413" y="21">)</text>
         <svg:path xmlns:svg="http://www.w3.org/2000/svg" class="line" d="m17 17 h2 m0 0 h10 m68 0 h10 m20 0 h10 m0 0 h64 m-94 0 h20 m74 0 h20 m-114 0 q10 0 10 10 m94 0 q0 -10 10 -10 m-104 10 v12 m94 0 v-12 m-94 12 q0 10 10 10 m74 0 q10 0 10 -10 m-84 10 h10 m54 0 h10 m40 -32 h10 m0 0 h122 m-152 0 h20 m132 0 h20 m-172 0 q10 0 10 10 m152 0 q0 -10 10 -10 m-162 10 v12 m152 0 v-12 m-152 12 q0 10 10 10 m132 0 q10 0 10 -10 m-142 10 h10 m24 0 h10 m0 0 h10 m68 0 h10 m-142 -10 v20 m152 0 v-20 m-152 20 v24 m152 0 v-24 m-152 24 q0 10 10 10 m132 0 q10 0 10 -10 m-142 10 h10 m24 0 h10 m0 0 h10 m58 0 h10 m0 0 h10 m20 -76 h10 m26 0 h10 m3 0 h-3"/>
         <polygon points="449 17 457 13 457 21"/>
         <polygon points="449 17 441 13 441 21"/>
      </svg>
