      <svg xmlns="http://www.w3.org/2000/svg" width="540" height="68">
         <defs>
            <style type="text/css">
               @namespace "http://www.w3.org/2000/svg";
               .line                 {fill: none; stroke: #1F1F1F;}
               .bold-line            {stroke: #0A0A0A; shape-rendering: crispEdges; stroke-width:
               2; }
               .thin-line            {stroke: #0F0F0F; shape-rendering: crispEdges}
               .filled               {fill: #1F1F1F; stroke: none;}
               text.terminal         {font-family: Verdana, Sans-serif;
               font-size: 12px;
               fill: #0A0A0A;
               font-weight: bold;
               }
               text.nonterminal      {font-family: Verdana, Sans-serif; font-style: italic;
               font-size: 12px;
               fill: #0D0D0D;
               }
               text.regexp           {font-family: Verdana, Sans-serif;
               font-size: 12px;
               fill: #0F0F0F;
               }
               rect, circle, polygon {fill: #1F1F1F; stroke: #1F1F1F;}
               rect.terminal         {fill: #CCCCCC; stroke: #1F1F1F;}
               rect.nonterminal      {fill: #E3E3E3; stroke: #1F1F1F;}
               rect.text             {fill: none; stroke: none;}    
               polygon.regexp        {fill: #EFEFEF; stroke: #1F1F1F;}
               
            </style>
         </defs>
         <polygon points="9 17 1 13 1 21"/>
         <polygon points="17 17 9 13 9 21"/>
         <rect x="31" y="3" width="74" height="32" rx="10"/>
         <rect x="29" y="1" width="74" height="32" class="terminal" rx="10"/>
         <text class="terminal" x="39" y="21">LOWER(</text>
<!--     <a xmlns:xlink="http://www.w3.org/1999/xlink" xlink:href="#string" xlink:title="string"> -->
            <rect x="125" y="3" width="52" height="32"/>
            <rect x="123" y="1" width="52" height="32" class="nonterminal"/>
            <text class="nonterminal" x="133" y="21">string</text>
<!--     </a> -->
         <rect x="197" y="3" width="24" height="32" rx="10"/>
         <rect x="195" y="1" width="24" height="32" class="terminal" rx="10"/>
         <text class="terminal" x="205" y="21">,</text>
<!--     <a xmlns:xlink="http://www.w3.org/1999/xlink" xlink:href="#n" xlink:title="n"> -->
            <rect x="261" y="35" width="26" height="32"/>
            <rect x="259" y="33" width="26" height="32" class="nonterminal"/>
            <text class="nonterminal" x="269" y="53">n</text>
<!--     </a> -->
         <rect x="347" y="35" width="24" height="32" rx="10"/>
         <rect x="345" y="33" width="24" height="32" class="terminal" rx="10"/>
         <text class="terminal" x="355" y="53">,</text>
<!--     <a xmlns:xlink="http://www.w3.org/1999/xlink" xlink:href="#length" xlink:title="length"> -->
            <rect x="391" y="35" width="56" height="32"/>
            <rect x="389" y="33" width="56" height="32" class="nonterminal"/>
            <text class="nonterminal" x="399" y="53">length</text>
<!--     </a> -->
         <rect x="487" y="3" width="26" height="32" rx="10"/>
         <rect x="485" y="1" width="26" height="32" class="terminal" rx="10"/>
         <text class="terminal" x="495" y="21">)</text>
         <svg:path xmlns:svg="http://www.w3.org/2000/svg" class="line" d="m17 17 h2 m0 0 h10 m74 0 h10 m0 0 h10 m52 0 h10 m0 0 h10 m24 0 h10 m20 0 h10 m0 0 h36 m-66 0 h20 m46 0 h20 m-86 0 q10 0 10 10 m66 0 q0 -10 10 -10 m-76 10 v12 m66 0 v-12 m-66 12 q0 10 10 10 m46 0 q10 0 10 -10 m-56 10 h10 m26 0 h10 m40 -32 h10 m0 0 h110 m-140 0 h20 m120 0 h20 m-160 0 q10 0 10 10 m140 0 q0 -10 10 -10 m-150 10 v12 m140 0 v-12 m-140 12 q0 10 10 10 m120 0 q10 0 10 -10 m-130 10 h10 m24 0 h10 m0 0 h10 m56 0 h10 m20 -32 h10 m26 0 h10 m3 0 h-3"/>
         <polygon points="531 17 539 13 539 21"/>
         <polygon points="531 17 523 13 523 21"/>
      </svg>
