      <svg xmlns="http://www.w3.org/2000/svg" width="972" height="116">
         <defs>
            <style type="text/css">
               @namespace "http://www.w3.org/2000/svg";
               .line                 {fill: none; stroke: #1F1F1F;}
               .bold-line            {stroke: #0A0A0A; shape-rendering: crispEdges; stroke-width:
               2; }
               .thin-line            {stroke: #0F0F0F; shape-rendering: crispEdges}
               .filled               {fill: #1F1F1F; stroke: none;}
               text.terminal         {font-family: Verdana, Sans-serif;
               font-size: 12px;
               fill: #0A0A0A;
               font-weight: bold;
               }
               text.nonterminal      {font-family: Verdana, Sans-serif;
               font-size: 12px;
               fill: #0D0D0D;
               }
               text.regexp           {font-family: Verdana, Sans-serif;
               font-size: 12px;
               fill: #0F0F0F;
               }
               rect, circle, polygon {fill: #1F1F1F; stroke: #1F1F1F;}
               rect.terminal         {fill: #CCCCCC; stroke: #1F1F1F;}
               rect.nonterminal      {fill: #E3E3E3; stroke: #1F1F1F;}
               rect.text             {fill: none; stroke: none;}    
               polygon.regexp        {fill: #EFEFEF; stroke: #1F1F1F;}
               
            </style>
         </defs>
         <polygon points="9 17 1 13 1 21"/>
         <polygon points="17 17 9 13 9 21"/>
         <rect x="31" y="3" width="76" height="32" rx="10"/>
         <rect x="29" y="1" width="76" height="32" class="terminal" rx="10"/>
         <text class="terminal" x="39" y="21">overlay(</text>
         <a xmlns:xlink="http://www.w3.org/1999/xlink" xlink:href="#new" xlink:title="new">
            <rect x="127" y="3" width="46" height="32"/>
            <rect x="125" y="1" width="46" height="32" class="nonterminal"/>
            <text class="nonterminal" x="135" y="21">new</text>
         </a>
         <rect x="193" y="3" width="24" height="32" rx="10"/>
         <rect x="191" y="1" width="24" height="32" class="terminal" rx="10"/>
         <text class="terminal" x="201" y="21">,</text>
         <a xmlns:xlink="http://www.w3.org/1999/xlink" xlink:href="#target" xlink:title="target">
            <rect x="237" y="3" width="58" height="32"/>
            <rect x="235" y="1" width="58" height="32" class="nonterminal"/>
            <text class="nonterminal" x="245" y="21">target</text>
         </a>
         <rect x="335" y="3" width="24" height="32" rx="10"/>
         <rect x="333" y="1" width="24" height="32" class="terminal" rx="10"/>
         <text class="terminal" x="343" y="21">,</text>
         <a xmlns:xlink="http://www.w3.org/1999/xlink" xlink:href="#n" xlink:title="n">
            <rect x="419" y="3" width="28" height="32"/>
            <rect x="417" y="1" width="28" height="32" class="nonterminal"/>
            <text class="nonterminal" x="427" y="21">n</text>
         </a>
         <rect x="507" y="3" width="24" height="32" rx="10"/>
         <rect x="505" y="1" width="24" height="32" class="terminal" rx="10"/>
         <text class="terminal" x="515" y="21">,</text>
         <a xmlns:xlink="http://www.w3.org/1999/xlink" xlink:href="#length" xlink:title="length">
            <rect x="591" y="3" width="60" height="32"/>
            <rect x="589" y="1" width="60" height="32" class="nonterminal"/>
            <text class="nonterminal" x="599" y="21">length</text>
         </a>
         <rect x="711" y="3" width="24" height="32" rx="10"/>
         <rect x="709" y="1" width="24" height="32" class="terminal" rx="10"/>
         <text class="terminal" x="719" y="21">,</text>
         <a xmlns:xlink="http://www.w3.org/1999/xlink" xlink:href="#pad" xlink:title="pad">
            <rect x="755" y="3" width="44" height="32"/>
            <rect x="753" y="1" width="44" height="32" class="nonterminal"/>
            <text class="nonterminal" x="763" y="21">pad</text>
         </a>
         <rect x="919" y="3" width="26" height="32" rx="10"/>
         <rect x="917" y="1" width="26" height="32" class="terminal" rx="10"/>
         <text class="terminal" x="927" y="21">)</text>
         <svg:path xmlns:svg="http://www.w3.org/2000/svg" class="line" d="m17 17 h2 m0 0 h10 m76 0 h10 m0 0 h10 m46 0 h10 m0 0 h10 m24 0 h10 m0 0 h10 m58 0 h10 m20 0 h10 m24 0 h10 m40 0 h10 m28 0 h10 m-68 0 h20 m48 0 h20 m-88 0 q10 0 10 10 m68 0 q0 -10 10 -10 m-78 10 v14 m68 0 v-14 m-68 14 q0 10 10 10 m48 0 q10 0 10 -10 m-58 10 h10 m0 0 h38 m40 -34 h10 m24 0 h10 m40 0 h10 m60 0 h10 m-100 0 h20 m80 0 h20 m-120 0 q10 0 10 10 m100 0 q0 -10 10 -10 m-110 10 v14 m100 0 v-14 m-100 14 q0 10 10 10 m80 0 q10 0 10 -10 m-90 10 h10 m0 0 h70 m40 -34 h10 m24 0 h10 m0 0 h10 m44 0 h10 m-128 0 h20 m108 0 h20 m-148 0 q10 0 10 10 m128 0 q0 -10 10 -10 m-138 10 v14 m128 0 v-14 m-128 14 q0 10 10 10 m108 0 q10 0 10 -10 m-118 10 h10 m0 0 h98 m-268 -34 h20 m268 0 h20 m-308 0 q10 0 10 10 m288 0 q0 -10 10 -10 m-298 10 v30 m288 0 v-30 m-288 30 q0 10 10 10 m268 0 q10 0 10 -10 m-278 10 h10 m0 0 h258 m-352 -50 h20 m352 0 h20 m-392 0 q10 0 10 10 m372 0 q0 -10 10 -10 m-382 10 v46 m372 0 v-46 m-372 46 q0 10 10 10 m352 0 q10 0 10 -10 m-362 10 h10 m0 0 h342 m-480 -66 h20 m480 0 h20 m-520 0 q10 0 10 10 m500 0 q0 -10 10 -10 m-510 10 v62 m500 0 v-62 m-500 62 q0 10 10 10 m480 0 q10 0 10 -10 m-490 10 h10 m0 0 h470 m-564 -82 h20 m564 0 h20 m-604 0 q10 0 10 10 m584 0 q0 -10 10 -10 m-594 10 v78 m584 0 v-78 m-584 78 q0 10 10 10 m564 0 q10 0 10 -10 m-574 10 h10 m0 0 h554 m20 -98 h10 m26 0 h10 m3 0 h-3"/>
         <polygon points="963 17 971 13 971 21"/>
         <polygon points="963 17 955 13 955 21"/>
      </svg>
