      <svg xmlns="http://www.w3.org/2000/svg" width="686" height="68">
         <defs>
            <style type="text/css">
               @namespace "http://www.w3.org/2000/svg";
               .line                 {fill: none; stroke: #1F1F1F;}
               .bold-line            {stroke: #0A0A0A; shape-rendering: crispEdges; stroke-width:
               2; }
               .thin-line            {stroke: #0F0F0F; shape-rendering: crispEdges}
               .filled               {fill: #1F1F1F; stroke: none;}
               text.terminal         {font-family: Verdana, Sans-serif;
               font-size: 12px;
               fill: #0A0A0A;
               font-weight: bold;
               }
               text.nonterminal      {font-family: Verdana, Sans-serif; font-style: italic;
               font-size: 12px;
               fill: #0D0D0D;
               }
               text.regexp           {font-family: Verdana, Sans-serif;
               font-size: 12px;
               fill: #0F0F0F;
               }
               rect, circle, polygon {fill: #1F1F1F; stroke: #1F1F1F;}
               rect.terminal         {fill: #CCCCCC; stroke: #1F1F1F;}
               rect.nonterminal      {fill: #E3E3E3; stroke: #1F1F1F;}
               rect.text             {fill: none; stroke: none;}    
               polygon.regexp        {fill: #EFEFEF; stroke: #1F1F1F;}
               
            </style>
         </defs>
         <polygon points="9 17 1 13 1 21"/>
         <polygon points="17 17 9 13 9 21"/>
         <rect x="31" y="3" width="54" height="32" rx="10"/>
         <rect x="29" y="1" width="54" height="32" class="terminal" rx="10"/>
         <text class="terminal" x="39" y="21">POS(</text>
<!--     <a xmlns:xlink="http://www.w3.org/1999/xlink" xlink:href="#needle" xlink:title="needle"> -->
            <rect x="105" y="3" width="58" height="32"/>
            <rect x="103" y="1" width="58" height="32" class="nonterminal"/>
            <text class="nonterminal" x="113" y="21">needle</text>
<!--     </a> -->
         <rect x="183" y="3" width="24" height="32" rx="10"/>
         <rect x="181" y="1" width="24" height="32" class="terminal" rx="10"/>
         <text class="terminal" x="191" y="21">,</text>
<!--     <a xmlns:xlink="http://www.w3.org/1999/xlink" xlink:href="#haystack" xlink:title="haystack"> -->
            <rect x="227" y="3" width="74" height="32"/>
            <rect x="225" y="1" width="74" height="32" class="nonterminal"/>
            <text class="nonterminal" x="235" y="21">haystack</text>
<!--     </a> -->
         <rect x="321" y="3" width="24" height="32" rx="10"/>
         <rect x="319" y="1" width="24" height="32" class="terminal" rx="10"/>
         <text class="terminal" x="329" y="21">,</text>
<!--     <a xmlns:xlink="http://www.w3.org/1999/xlink" xlink:href="#start" xlink:title="start"> -->
            <rect x="385" y="35" width="48" height="32"/>
            <rect x="383" y="33" width="48" height="32" class="nonterminal"/>
            <text class="nonterminal" x="393" y="53">start</text>
<!--     </a> -->
         <rect x="493" y="35" width="24" height="32" rx="10"/>
         <rect x="491" y="33" width="24" height="32" class="terminal" rx="10"/>
         <text class="terminal" x="501" y="53">,</text>
<!--     <a xmlns:xlink="http://www.w3.org/1999/xlink" xlink:href="#length" xlink:title="length"> -->
            <rect x="537" y="35" width="56" height="32"/>
            <rect x="535" y="33" width="56" height="32" class="nonterminal"/>
            <text class="nonterminal" x="545" y="53">length</text>
<!--     </a> -->
         <rect x="633" y="3" width="26" height="32" rx="10"/>
         <rect x="631" y="1" width="26" height="32" class="terminal" rx="10"/>
         <text class="terminal" x="641" y="21">)</text>
         <svg:path xmlns:svg="http://www.w3.org/2000/svg" class="line" d="m17 17 h2 m0 0 h10 m54 0 h10 m0 0 h10 m58 0 h10 m0 0 h10 m24 0 h10 m0 0 h10 m74 0 h10 m0 0 h10 m24 0 h10 m20 0 h10 m0 0 h58 m-88 0 h20 m68 0 h20 m-108 0 q10 0 10 10 m88 0 q0 -10 10 -10 m-98 10 v12 m88 0 v-12 m-88 12 q0 10 10 10 m68 0 q10 0 10 -10 m-78 10 h10 m48 0 h10 m40 -32 h10 m0 0 h110 m-140 0 h20 m120 0 h20 m-160 0 q10 0 10 10 m140 0 q0 -10 10 -10 m-150 10 v12 m140 0 v-12 m-140 12 q0 10 10 10 m120 0 q10 0 10 -10 m-130 10 h10 m24 0 h10 m0 0 h10 m56 0 h10 m20 -32 h10 m26 0 h10 m3 0 h-3"/>
         <polygon points="677 17 685 13 685 21"/>
         <polygon points="677 17 669 13 669 21"/>
      </svg>
