      <svg xmlns="http://www.w3.org/2000/svg" width="636" height="112">
         <defs>
            <style type="text/css">
               @namespace "http://www.w3.org/2000/svg";
               .line                 {fill: none; stroke: #1F1F1F;}
               .bold-line            {stroke: #0A0A0A; shape-rendering: crispEdges; stroke-width:
               2; }
               .thin-line            {stroke: #0F0F0F; shape-rendering: crispEdges}
               .filled               {fill: #1F1F1F; stroke: none;}
               text.terminal         {font-family: Verdana, Sans-serif;
               font-size: 12px;
               fill: #0A0A0A;
               font-weight: bold;
               }
               text.nonterminal      {font-family: Verdana, Sans-serif; font-style: italic;
               font-size: 12px;
               fill: #0D0D0D;
               }
               text.regexp           {font-family: Verdana, Sans-serif;
               font-size: 12px;
               fill: #0F0F0F;
               }
               rect, circle, polygon {fill: #1F1F1F; stroke: #1F1F1F;}
               rect.terminal         {fill: #CCCCCC; stroke: #1F1F1F;}
               rect.nonterminal      {fill: #E3E3E3; stroke: #1F1F1F;}
               rect.text             {fill: none; stroke: none;}    
               polygon.regexp        {fill: #EFEFEF; stroke: #1F1F1F;}
               
            </style>
         </defs>
         <polygon points="9 17 1 13 1 21"/>
         <polygon points="17 17 9 13 9 21"/>
         <rect x="31" y="3" width="86" height="32" rx="10"/>
         <rect x="29" y="1" width="86" height="32" class="terminal" rx="10"/>
         <text class="terminal" x="39" y="21">RANDOM(</text>
<!--     <a xmlns:xlink="http://www.w3.org/1999/xlink" xlink:href="#max" xlink:title="max"> -->
            <rect x="157" y="3" width="46" height="32"/>
            <rect x="155" y="1" width="46" height="32" class="nonterminal"/>
            <text class="nonterminal" x="165" y="21">max</text>
<!--     </a> -->
<!--     <a xmlns:xlink="http://www.w3.org/1999/xlink" xlink:href="#min" xlink:title="min"> -->
            <rect x="177" y="79" width="42" height="32"/>
            <rect x="175" y="77" width="42" height="32" class="nonterminal"/>
            <text class="nonterminal" x="185" y="97">min</text>
<!--     </a> -->
         <rect x="259" y="47" width="24" height="32" rx="10"/>
         <rect x="257" y="45" width="24" height="32" class="terminal" rx="10"/>
         <text class="terminal" x="267" y="65">,</text>
<!--     <a xmlns:xlink="http://www.w3.org/1999/xlink" xlink:href="#max" xlink:title="max"> -->
            <rect x="323" y="79" width="46" height="32"/>
            <rect x="321" y="77" width="46" height="32" class="nonterminal"/>
            <text class="nonterminal" x="331" y="97">max</text>
<!--     </a> -->
         <rect x="429" y="79" width="24" height="32" rx="10"/>
         <rect x="427" y="77" width="24" height="32" class="terminal" rx="10"/>
         <text class="terminal" x="437" y="97">,</text>
<!--     <a xmlns:xlink="http://www.w3.org/1999/xlink" xlink:href="#seed" xlink:title="seed"> -->
            <rect x="473" y="79" width="50" height="32"/>
            <rect x="471" y="77" width="50" height="32" class="nonterminal"/>
            <text class="nonterminal" x="481" y="97">seed</text>
<!--     </a> -->
         <rect x="583" y="3" width="26" height="32" rx="10"/>
         <rect x="581" y="1" width="26" height="32" class="terminal" rx="10"/>
         <text class="terminal" x="591" y="21">)</text>
         <svg:path xmlns:svg="http://www.w3.org/2000/svg" class="line" d="m17 17 h2 m0 0 h10 m86 0 h10 m20 0 h10 m46 0 h10 m0 0 h340 m-426 0 h20 m406 0 h20 m-446 0 q10 0 10 10 m426 0 q0 -10 10 -10 m-436 10 v24 m426 0 v-24 m-426 24 q0 10 10 10 m406 0 q10 0 10 -10 m-396 10 h10 m0 0 h52 m-82 0 h20 m62 0 h20 m-102 0 q10 0 10 10 m82 0 q0 -10 10 -10 m-92 10 v12 m82 0 v-12 m-82 12 q0 10 10 10 m62 0 q10 0 10 -10 m-72 10 h10 m42 0 h10 m20 -32 h10 m24 0 h10 m20 0 h10 m0 0 h56 m-86 0 h20 m66 0 h20 m-106 0 q10 0 10 10 m86 0 q0 -10 10 -10 m-96 10 v12 m86 0 v-12 m-86 12 q0 10 10 10 m66 0 q10 0 10 -10 m-76 10 h10 m46 0 h10 m40 -32 h10 m0 0 h104 m-134 0 h20 m114 0 h20 m-154 0 q10 0 10 10 m134 0 q0 -10 10 -10 m-144 10 v12 m134 0 v-12 m-134 12 q0 10 10 10 m114 0 q10 0 10 -10 m-124 10 h10 m24 0 h10 m0 0 h10 m50 0 h10 m40 -76 h10 m26 0 h10 m3 0 h-3"/>
         <polygon points="627 17 635 13 635 21"/>
         <polygon points="627 17 619 13 619 21"/>
      </svg>
