      <svg xmlns="http://www.w3.org/2000/svg" width="586" height="96">
         <defs>
            <style type="text/css">
               @namespace "http://www.w3.org/2000/svg";
               .line                 {fill: none; stroke: #1F1F1F;}
               .bold-line            {stroke: #0A0A0A; shape-rendering: crispEdges; stroke-width:
               2; }
               .thin-line            {stroke: #0F0F0F; shape-rendering: crispEdges}
               .filled               {fill: #1F1F1F; stroke: none;}
               text.terminal         {font-family: Verdana, Sans-serif;
               font-size: 12px;
               fill: #0A0A0A;
               font-weight: bold;
               }
               text.nonterminal      {font-family: Verdana, Sans-serif;
               font-size: 12px;
               fill: #0D0D0D;
               }
               text.regexp           {font-family: Verdana, Sans-serif;
               font-size: 12px;
               fill: #0F0F0F;
               }
               rect, circle, polygon {fill: #1F1F1F; stroke: #1F1F1F;}
               rect.terminal         {fill: #CCCCCC; stroke: #1F1F1F;}
               rect.nonterminal      {fill: #E3E3E3; stroke: #1F1F1F;}
               rect.text             {fill: none; stroke: none;}    
               polygon.regexp        {fill: #EFEFEF; stroke: #1F1F1F;}
               
            </style>
         </defs>
         <polygon points="9 17 1 13 1 21"/>
         <polygon points="17 17 9 13 9 21"/>
         <rect x="31" y="3" width="76" height="32" rx="10"/>
         <rect x="29" y="1" width="76" height="32" class="terminal" rx="10"/>
         <text class="terminal" x="39" y="21">random(</text>
         <a xmlns:xlink="http://www.w3.org/1999/xlink" xlink:href="#max" xlink:title="max">
            <rect x="147" y="3" width="46" height="32"/>
            <rect x="145" y="1" width="46" height="32" class="nonterminal"/>
            <text class="nonterminal" x="155" y="21">max</text>
         </a>
         <a xmlns:xlink="http://www.w3.org/1999/xlink" xlink:href="#min" xlink:title="min">
            <rect x="147" y="47" width="42" height="32"/>
            <rect x="145" y="45" width="42" height="32" class="nonterminal"/>
            <text class="nonterminal" x="155" y="65">min</text>
         </a>
         <rect x="209" y="47" width="24" height="32" rx="10"/>
         <rect x="207" y="45" width="24" height="32" class="terminal" rx="10"/>
         <text class="terminal" x="217" y="65">,</text>
         <a xmlns:xlink="http://www.w3.org/1999/xlink" xlink:href="#max" xlink:title="max">
            <rect x="273" y="47" width="46" height="32"/>
            <rect x="271" y="45" width="46" height="32" class="nonterminal"/>
            <text class="nonterminal" x="281" y="65">max</text>
         </a>
         <rect x="379" y="47" width="24" height="32" rx="10"/>
         <rect x="377" y="45" width="24" height="32" class="terminal" rx="10"/>
         <text class="terminal" x="387" y="65">,</text>
         <a xmlns:xlink="http://www.w3.org/1999/xlink" xlink:href="#seed" xlink:title="seed">
            <rect x="423" y="47" width="50" height="32"/>
            <rect x="421" y="45" width="50" height="32" class="nonterminal"/>
            <text class="nonterminal" x="431" y="65">seed</text>
         </a>
         <rect x="533" y="3" width="26" height="32" rx="10"/>
         <rect x="531" y="1" width="26" height="32" class="terminal" rx="10"/>
         <text class="terminal" x="541" y="21">)</text>
         <svg:path xmlns:svg="http://www.w3.org/2000/svg" class="line" d="m17 17 h2 m0 0 h10 m76 0 h10 m20 0 h10 m46 0 h10 m0 0 h300 m-386 0 h20 m366 0 h20 m-406 0 q10 0 10 10 m386 0 q0 -10 10 -10 m-396 10 v24 m386 0 v-24 m-386 24 q0 10 10 10 m366 0 q10 0 10 -10 m-376 10 h10 m42 0 h10 m0 0 h10 m24 0 h10 m20 0 h10 m46 0 h10 m-86 0 h20 m66 0 h20 m-106 0 q10 0 10 10 m86 0 q0 -10 10 -10 m-96 10 v14 m86 0 v-14 m-86 14 q0 10 10 10 m66 0 q10 0 10 -10 m-76 10 h10 m0 0 h56 m40 -34 h10 m24 0 h10 m0 0 h10 m50 0 h10 m-134 0 h20 m114 0 h20 m-154 0 q10 0 10 10 m134 0 q0 -10 10 -10 m-144 10 v14 m134 0 v-14 m-134 14 q0 10 10 10 m114 0 q10 0 10 -10 m-124 10 h10 m0 0 h104 m40 -78 h10 m26 0 h10 m3 0 h-3"/>
         <polygon points="577 17 585 13 585 21"/>
         <polygon points="577 17 569 13 569 21"/>
      </svg>
