<svg xmlns="http://www.w3.org/2000/svg" width="639" height="113">
         <defs>
            <style type="text/css">
               @namespace "http://www.w3.org/2000/svg";
               .line                 {fill: none; stroke: #1F1F1F;}
               .bold-line            {stroke: #0A0A0A; shape-rendering: crispEdges; stroke-width:
               2; }
               .thin-line            {stroke: #0F0F0F; shape-rendering: crispEdges}
               .filled               {fill: #1F1F1F; stroke: none;}
               text.terminal         {font-family: Verdana, Sans-serif;
               font-size: 12px;
               fill: #0A0A0A;
               font-weight: bold;
               }
               text.nonterminal      {font-family: Verdana, Sans-serif; font-style: italic;
               font-size: 12px;
               fill: #0D0D0D;
               }
               text.regexp           {font-family: Verdana, Sans-serif;
               font-size: 12px;
               fill: #0F0F0F;
               }
               rect, circle, polygon {fill: #1F1F1F; stroke: #1F1F1F;}
               rect.terminal         {fill: #CCCCCC; stroke: #1F1F1F;}
               rect.nonterminal      {fill: #E3E3E3; stroke: #1F1F1F;}
               rect.text             {fill: none; stroke: none;}
               polygon.regexp        {fill: #EFEFEF; stroke: #1F1F1F;}

            </style>
         </defs>

         <polygon points="9 17 1 13 1 21"/>
         <polygon points="17 17 9 13 9 21"/>
         <rect x="31" y="3" width="88" height="32" rx="10"/>
         <rect x="29" y="1" width="88" height="32" class="terminal" rx="10"/>
         <text class="terminal" x="39" y="21">RANDOM(</text><a xmlns:xlink="http://www.w3.org/1999/xlink" xlink:href="#max" xlink:title="max">
            <rect x="159" y="3" width="46" height="32"/>
            <rect x="157" y="1" width="46" height="32" class="nonterminal"/>
            <text class="nonterminal" x="167" y="21">max</text></a><a xmlns:xlink="http://www.w3.org/1999/xlink" xlink:href="#min" xlink:title="min">
            <rect x="179" y="79" width="42" height="32"/>
            <rect x="177" y="77" width="42" height="32" class="nonterminal"/>
            <text class="nonterminal" x="187" y="97">min</text></a><rect x="261" y="47" width="24" height="32" rx="10"/>
         <rect x="259" y="45" width="24" height="32" class="terminal" rx="10"/>
         <text class="terminal" x="269" y="65">,</text><a xmlns:xlink="http://www.w3.org/1999/xlink" xlink:href="#max" xlink:title="max">
            <rect x="325" y="79" width="46" height="32"/>
            <rect x="323" y="77" width="46" height="32" class="nonterminal"/>
            <text class="nonterminal" x="333" y="97">max</text></a><rect x="431" y="79" width="24" height="32" rx="10"/>
         <rect x="429" y="77" width="24" height="32" class="terminal" rx="10"/>
         <text class="terminal" x="439" y="97">,</text><a xmlns:xlink="http://www.w3.org/1999/xlink" xlink:href="#seed" xlink:title="seed">
            <rect x="475" y="79" width="50" height="32"/>
            <rect x="473" y="77" width="50" height="32" class="nonterminal"/>
            <text class="nonterminal" x="483" y="97">seed</text></a><rect x="585" y="3" width="26" height="32" rx="10"/>
         <rect x="583" y="1" width="26" height="32" class="terminal" rx="10"/>
         <text class="terminal" x="593" y="21">)</text>
         <path class="line" d="m17 17 h2 m0 0 h10 m88 0 h10 m20 0 h10 m46 0 h10 m0 0 h340 m-426 0 h20 m406 0 h20 m-446 0 q10 0 10 10 m426 0 q0 -10 10 -10 m-436 10 v24 m426 0 v-24 m-426 24 q0 10 10 10 m406 0 q10 0 10 -10 m-396 10 h10 m0 0 h52 m-82 0 h20 m62 0 h20 m-102 0 q10 0 10 10 m82 0 q0 -10 10 -10 m-92 10 v12 m82 0 v-12 m-82 12 q0 10 10 10 m62 0 q10 0 10 -10 m-72 10 h10 m42 0 h10 m20 -32 h10 m24 0 h10 m20 0 h10 m0 0 h56 m-86 0 h20 m66 0 h20 m-106 0 q10 0 10 10 m86 0 q0 -10 10 -10 m-96 10 v12 m86 0 v-12 m-86 12 q0 10 10 10 m66 0 q10 0 10 -10 m-76 10 h10 m46 0 h10 m40 -32 h10 m0 0 h104 m-134 0 h20 m114 0 h20 m-154 0 q10 0 10 10 m134 0 q0 -10 10 -10 m-144 10 v12 m134 0 v-12 m-134 12 q0 10 10 10 m114 0 q10 0 10 -10 m-124 10 h10 m24 0 h10 m0 0 h10 m50 0 h10 m40 -76 h10 m26 0 h10 m3 0 h-3"/>
         <polygon points="629 17 637 13 637 21"/>
         <polygon points="629 17 621 13 621 21"/>
</svg>