      <svg xmlns="http://www.w3.org/2000/svg" width="590" height="68">
         <defs>
            <style type="text/css">
               @namespace "http://www.w3.org/2000/svg";
               .line                 {fill: none; stroke: #1F1F1F;}
               .bold-line            {stroke: #0A0A0A; shape-rendering: crispEdges; stroke-width:
               2; }
               .thin-line            {stroke: #0F0F0F; shape-rendering: crispEdges}
               .filled               {fill: #1F1F1F; stroke: none;}
               text.terminal         {font-family: Verdana, Sans-serif;
               font-size: 12px;
               fill: #0A0A0A;
               font-weight: bold;
               }
               text.nonterminal      {font-family: Verdana, Sans-serif; font-style: italic;
               font-size: 12px;
               fill: #0D0D0D;
               }
               text.regexp           {font-family: Verdana, Sans-serif;
               font-size: 12px;
               fill: #0F0F0F;
               }
               rect, circle, polygon {fill: #1F1F1F; stroke: #1F1F1F;}
               rect.terminal         {fill: #CCCCCC; stroke: #1F1F1F;}
               rect.nonterminal      {fill: #E3E3E3; stroke: #1F1F1F;}
               rect.text             {fill: none; stroke: none;}    
               polygon.regexp        {fill: #EFEFEF; stroke: #1F1F1F;}
               
            </style>
         </defs>
         <polygon points="9 17 1 13 1 21"/>
         <polygon points="17 17 9 13 9 21"/>
         <rect x="31" y="3" width="100" height="32" rx="10"/>
         <rect x="29" y="1" width="100" height="32" class="terminal" rx="10"/>
         <text class="terminal" x="39" y="21">RxFuncAdd(</text>
<!--     <a xmlns:xlink="http://www.w3.org/1999/xlink" xlink:href="#name" xlink:title="name"> -->
            <rect x="151" y="3" width="54" height="32"/>
            <rect x="149" y="1" width="54" height="32" class="nonterminal"/>
            <text class="nonterminal" x="159" y="21">name</text>
<!--     </a> -->
         <rect x="225" y="3" width="24" height="32" rx="10"/>
         <rect x="223" y="1" width="24" height="32" class="terminal" rx="10"/>
         <text class="terminal" x="233" y="21">,</text>
<!--     <a xmlns:xlink="http://www.w3.org/1999/xlink" xlink:href="#module" xlink:title="module"> -->
            <rect x="269" y="3" width="64" height="32"/>
            <rect x="267" y="1" width="64" height="32" class="nonterminal"/>
            <text class="nonterminal" x="277" y="21">module</text>
<!--     </a> -->
         <rect x="373" y="35" width="24" height="32" rx="10"/>
         <rect x="371" y="33" width="24" height="32" class="terminal" rx="10"/>
         <text class="terminal" x="381" y="53">,</text>
<!--     <a xmlns:xlink="http://www.w3.org/1999/xlink" xlink:href="#procedure" xlink:title="procedure"> -->
            <rect x="417" y="35" width="80" height="32"/>
            <rect x="415" y="33" width="80" height="32" class="nonterminal"/>
            <text class="nonterminal" x="425" y="53">procedure</text>
<!--     </a> -->
         <rect x="537" y="3" width="26" height="32" rx="10"/>
         <rect x="535" y="1" width="26" height="32" class="terminal" rx="10"/>
         <text class="terminal" x="545" y="21">)</text>
         <svg:path xmlns:svg="http://www.w3.org/2000/svg" class="line" d="m17 17 h2 m0 0 h10 m100 0 h10 m0 0 h10 m54 0 h10 m0 0 h10 m24 0 h10 m0 0 h10 m64 0 h10 m20 0 h10 m0 0 h134 m-164 0 h20 m144 0 h20 m-184 0 q10 0 10 10 m164 0 q0 -10 10 -10 m-174 10 v12 m164 0 v-12 m-164 12 q0 10 10 10 m144 0 q10 0 10 -10 m-154 10 h10 m24 0 h10 m0 0 h10 m80 0 h10 m20 -32 h10 m26 0 h10 m3 0 h-3"/>
         <polygon points="581 17 589 13 589 21"/>
         <polygon points="581 17 573 13 573 21"/>
      </svg>
