      <svg xmlns="http://www.w3.org/2000/svg" width="518" height="190">
         <defs>
            <style type="text/css">
               @namespace "http://www.w3.org/2000/svg";
               .line                 {fill: none; stroke: #1F1F1F;}
               .bold-line            {stroke: #0A0A0A; shape-rendering: crispEdges; stroke-width:
               2; }
               .thin-line            {stroke: #0F0F0F; shape-rendering: crispEdges}
               .filled               {fill: #1F1F1F; stroke: none;}
               text.terminal         {font-family: Verdana, Sans-serif;
               font-size: 12px;
               fill: #0A0A0A;
               font-weight: bold;
               }
               text.nonterminal      {font-family: Verdana, Sans-serif; font-style: italic;
               font-size: 12px;
               fill: #0D0D0D;
               }
               text.regexp           {font-family: Verdana, Sans-serif;
               font-size: 12px;
               fill: #0F0F0F;
               }
               rect, circle, polygon {fill: #1F1F1F; stroke: #1F1F1F;}
               rect.terminal         {fill: #CCCCCC; stroke: #1F1F1F;}
               rect.nonterminal      {fill: #E3E3E3; stroke: #1F1F1F;}
               rect.text             {fill: none; stroke: none;}    
               polygon.regexp        {fill: #EFEFEF; stroke: #1F1F1F;}
               
            </style>
         </defs>
         <polygon points="9 17 1 13 1 21"/>
         <polygon points="17 17 9 13 9 21"/>
         <rect x="31" y="3" width="92" height="32" rx="10"/>
         <rect x="29" y="1" width="92" height="32" class="terminal" rx="10"/>
         <text class="terminal" x="39" y="21">RXQUEUE(</text>
         <rect x="163" y="3" width="64" height="32" rx="10"/>
         <rect x="161" y="1" width="64" height="32" class="terminal" rx="10"/>
         <text class="terminal" x="171" y="21">Create</text>
         <rect x="267" y="3" width="24" height="32" rx="10"/>
         <rect x="265" y="1" width="24" height="32" class="terminal" rx="10"/>
         <text class="terminal" x="275" y="21">,</text>
<!--     <a xmlns:xlink="http://www.w3.org/1999/xlink" xlink:href="#queuename" xlink:title="queuename"> -->
            <rect x="311" y="3" width="94" height="32"/>
            <rect x="309" y="1" width="94" height="32" class="nonterminal"/>
            <text class="nonterminal" x="319" y="21">queuename</text>
<!--     </a> -->
         <rect x="163" y="69" width="62" height="32" rx="10"/>
         <rect x="161" y="67" width="62" height="32" class="terminal" rx="10"/>
         <text class="terminal" x="171" y="87">Delete</text>
         <rect x="245" y="69" width="24" height="32" rx="10"/>
         <rect x="243" y="67" width="24" height="32" class="terminal" rx="10"/>
         <text class="terminal" x="253" y="87">,</text>
<!--     <a xmlns:xlink="http://www.w3.org/1999/xlink" xlink:href="#queuename" xlink:title="queuename"> -->
            <rect x="289" y="69" width="94" height="32"/>
            <rect x="287" y="67" width="94" height="32" class="nonterminal"/>
            <text class="nonterminal" x="297" y="87">queuename</text>
<!--     </a> -->
         <rect x="163" y="113" width="42" height="32" rx="10"/>
         <rect x="161" y="111" width="42" height="32" class="terminal" rx="10"/>
         <text class="terminal" x="171" y="131">Get</text>
         <rect x="163" y="157" width="42" height="32" rx="10"/>
         <rect x="161" y="155" width="42" height="32" class="terminal" rx="10"/>
         <text class="terminal" x="171" y="175">Set</text>
         <rect x="225" y="157" width="24" height="32" rx="10"/>
         <rect x="223" y="155" width="24" height="32" class="terminal" rx="10"/>
         <text class="terminal" x="233" y="175">,</text>
<!--     <a xmlns:xlink="http://www.w3.org/1999/xlink" xlink:href="#newqueuename" xlink:title="newqueuename"> -->
            <rect x="269" y="157" width="122" height="32"/>
            <rect x="267" y="155" width="122" height="32" class="nonterminal"/>
            <text class="nonterminal" x="277" y="175">newqueuename</text>
<!--     </a> -->
         <rect x="465" y="3" width="26" height="32" rx="10"/>
         <rect x="463" y="1" width="26" height="32" class="terminal" rx="10"/>
         <text class="terminal" x="473" y="21">)</text>
         <svg:path xmlns:svg="http://www.w3.org/2000/svg" class="line" d="m17 17 h2 m0 0 h10 m92 0 h10 m20 0 h10 m64 0 h10 m20 0 h10 m24 0 h10 m0 0 h10 m94 0 h10 m-178 0 h20 m158 0 h20 m-198 0 q10 0 10 10 m178 0 q0 -10 10 -10 m-188 10 v14 m178 0 v-14 m-178 14 q0 10 10 10 m158 0 q10 0 10 -10 m-168 10 h10 m0 0 h148 m-282 -34 h20 m282 0 h20 m-322 0 q10 0 10 10 m302 0 q0 -10 10 -10 m-312 10 v46 m302 0 v-46 m-302 46 q0 10 10 10 m282 0 q10 0 10 -10 m-292 10 h10 m62 0 h10 m0 0 h10 m24 0 h10 m0 0 h10 m94 0 h10 m0 0 h42 m-292 -10 v20 m302 0 v-20 m-302 20 v24 m302 0 v-24 m-302 24 q0 10 10 10 m282 0 q10 0 10 -10 m-292 10 h10 m42 0 h10 m0 0 h220 m-292 -10 v20 m302 0 v-20 m-302 20 v24 m302 0 v-24 m-302 24 q0 10 10 10 m282 0 q10 0 10 -10 m-292 10 h10 m42 0 h10 m0 0 h10 m24 0 h10 m0 0 h10 m122 0 h10 m0 0 h34 m20 -154 h10 m26 0 h10 m3 0 h-3"/>
         <polygon points="509 17 517 13 517 21"/>
         <polygon points="509 17 501 13 501 21"/>
      </svg>
