      <svg xmlns="http://www.w3.org/2000/svg" width="532" height="288">
         <defs>
            <style type="text/css">
               @namespace "http://www.w3.org/2000/svg";
               .line                 {fill: none; stroke: #1F1F1F;}
               .bold-line            {stroke: #0A0A0A; shape-rendering: crispEdges; stroke-width:
               2; }
               .thin-line            {stroke: #0F0F0F; shape-rendering: crispEdges}
               .filled               {fill: #1F1F1F; stroke: none;}
               text.terminal         {font-family: Verdana, Sans-serif;
               font-size: 12px;
               fill: #0A0A0A;
               font-weight: bold;
               }
               text.nonterminal      {font-family: Verdana, Sans-serif; font-style: italic;
               font-size: 12px;
               fill: #0D0D0D;
               }
               text.regexp           {font-family: Verdana, Sans-serif;
               font-size: 12px;
               fill: #0F0F0F;
               }
               rect, circle, polygon {fill: #1F1F1F; stroke: #1F1F1F;}
               rect.terminal         {fill: #CCCCCC; stroke: #1F1F1F;}
               rect.nonterminal      {fill: #E3E3E3; stroke: #1F1F1F;}
               rect.text             {fill: none; stroke: none;}    
               polygon.regexp        {fill: #EFEFEF; stroke: #1F1F1F;}
               
            </style>
         </defs>
         <polygon points="9 17 1 13 1 21"/>
         <polygon points="17 17 9 13 9 21"/>
         <rect x="31" y="3" width="92" height="32" rx="10"/>
         <rect x="29" y="1" width="92" height="32" class="terminal" rx="10"/>
         <text class="terminal" x="39" y="21">RXQUEUE(</text>
         <rect x="163" y="3" width="78" height="32" rx="10"/>
         <rect x="161" y="1" width="78" height="32" class="terminal" rx="10"/>
         <text class="terminal" x="171" y="21">"Create"</text>
         <rect x="281" y="35" width="24" height="32" rx="10"/>
         <rect x="279" y="33" width="24" height="32" class="terminal" rx="10"/>
         <text class="terminal" x="289" y="53">,</text>
<!--     <a xmlns:xlink="http://www.w3.org/1999/xlink" xlink:href="#queuename" xlink:title="queuename"> -->
            <rect x="325" y="35" width="94" height="32"/>
            <rect x="323" y="33" width="94" height="32" class="nonterminal"/>
            <text class="nonterminal" x="333" y="53">queuename</text>
<!--     </a> -->
         <rect x="163" y="79" width="76" height="32" rx="10"/>
         <rect x="161" y="77" width="76" height="32" class="terminal" rx="10"/>
         <text class="terminal" x="171" y="97">"Delete"</text>
         <rect x="259" y="79" width="24" height="32" rx="10"/>
         <rect x="257" y="77" width="24" height="32" class="terminal" rx="10"/>
         <text class="terminal" x="267" y="97">,</text>
<!--     <a xmlns:xlink="http://www.w3.org/1999/xlink" xlink:href="#queuename" xlink:title="queuename"> -->
            <rect x="303" y="79" width="94" height="32"/>
            <rect x="301" y="77" width="94" height="32" class="nonterminal"/>
            <text class="nonterminal" x="311" y="97">queuename</text>
<!--     </a> -->
         <rect x="163" y="123" width="66" height="32" rx="10"/>
         <rect x="161" y="121" width="66" height="32" class="terminal" rx="10"/>
         <text class="terminal" x="171" y="141">"Exist"</text>
         <rect x="249" y="123" width="24" height="32" rx="10"/>
         <rect x="247" y="121" width="24" height="32" class="terminal" rx="10"/>
         <text class="terminal" x="257" y="141">,</text>
<!--     <a xmlns:xlink="http://www.w3.org/1999/xlink" xlink:href="#queuename" xlink:title="queuename"> -->
            <rect x="293" y="123" width="94" height="32"/>
            <rect x="291" y="121" width="94" height="32" class="nonterminal"/>
            <text class="nonterminal" x="301" y="141">queuename</text>
<!--     </a> -->
         <rect x="163" y="167" width="56" height="32" rx="10"/>
         <rect x="161" y="165" width="56" height="32" class="terminal" rx="10"/>
         <text class="terminal" x="171" y="185">"Get"</text>
         <rect x="163" y="211" width="68" height="32" rx="10"/>
         <rect x="161" y="209" width="68" height="32" class="terminal" rx="10"/>
         <text class="terminal" x="171" y="229">"Open"</text>
         <rect x="251" y="211" width="24" height="32" rx="10"/>
         <rect x="249" y="209" width="24" height="32" class="terminal" rx="10"/>
         <text class="terminal" x="259" y="229">,</text>
<!--     <a xmlns:xlink="http://www.w3.org/1999/xlink" xlink:href="#queuename" xlink:title="queuename"> -->
            <rect x="295" y="211" width="94" height="32"/>
            <rect x="293" y="209" width="94" height="32" class="nonterminal"/>
            <text class="nonterminal" x="303" y="229">queuename</text>
<!--     </a> -->
         <rect x="163" y="255" width="56" height="32" rx="10"/>
         <rect x="161" y="253" width="56" height="32" class="terminal" rx="10"/>
         <text class="terminal" x="171" y="273">"Set"</text>
         <rect x="239" y="255" width="24" height="32" rx="10"/>
         <rect x="237" y="253" width="24" height="32" class="terminal" rx="10"/>
         <text class="terminal" x="247" y="273">,</text>
<!--     <a xmlns:xlink="http://www.w3.org/1999/xlink" xlink:href="#newqueuename" xlink:title="newqueuename"> -->
            <rect x="283" y="255" width="122" height="32"/>
            <rect x="281" y="253" width="122" height="32" class="nonterminal"/>
            <text class="nonterminal" x="291" y="273">newqueuename</text>
<!--     </a> -->
         <rect x="479" y="3" width="26" height="32" rx="10"/>
         <rect x="477" y="1" width="26" height="32" class="terminal" rx="10"/>
         <text class="terminal" x="487" y="21">)</text>
         <svg:path xmlns:svg="http://www.w3.org/2000/svg" class="line" d="m17 17 h2 m0 0 h10 m92 0 h10 m20 0 h10 m78 0 h10 m20 0 h10 m0 0 h148 m-178 0 h20 m158 0 h20 m-198 0 q10 0 10 10 m178 0 q0 -10 10 -10 m-188 10 v12 m178 0 v-12 m-178 12 q0 10 10 10 m158 0 q10 0 10 -10 m-168 10 h10 m24 0 h10 m0 0 h10 m94 0 h10 m-296 -32 h20 m296 0 h20 m-336 0 q10 0 10 10 m316 0 q0 -10 10 -10 m-326 10 v56 m316 0 v-56 m-316 56 q0 10 10 10 m296 0 q10 0 10 -10 m-306 10 h10 m76 0 h10 m0 0 h10 m24 0 h10 m0 0 h10 m94 0 h10 m0 0 h42 m-306 -10 v20 m316 0 v-20 m-316 20 v24 m316 0 v-24 m-316 24 q0 10 10 10 m296 0 q10 0 10 -10 m-306 10 h10 m66 0 h10 m0 0 h10 m24 0 h10 m0 0 h10 m94 0 h10 m0 0 h52 m-306 -10 v20 m316 0 v-20 m-316 20 v24 m316 0 v-24 m-316 24 q0 10 10 10 m296 0 q10 0 10 -10 m-306 10 h10 m56 0 h10 m0 0 h220 m-306 -10 v20 m316 0 v-20 m-316 20 v24 m316 0 v-24 m-316 24 q0 10 10 10 m296 0 q10 0 10 -10 m-306 10 h10 m68 0 h10 m0 0 h10 m24 0 h10 m0 0 h10 m94 0 h10 m0 0 h50 m-306 -10 v20 m316 0 v-20 m-316 20 v24 m316 0 v-24 m-316 24 q0 10 10 10 m296 0 q10 0 10 -10 m-306 10 h10 m56 0 h10 m0 0 h10 m24 0 h10 m0 0 h10 m122 0 h10 m0 0 h34 m20 -252 h10 m26 0 h10 m3 0 h-3"/>
         <polygon points="523 17 531 13 531 21"/>
         <polygon points="523 17 515 13 515 21"/>
      </svg>
