      <svg xmlns="http://www.w3.org/2000/svg" width="526" height="288">
         <defs>
            <style type="text/css">
               @namespace "http://www.w3.org/2000/svg";
               .line                 {fill: none; stroke: #1F1F1F;}
               .bold-line            {stroke: #0A0A0A; shape-rendering: crispEdges; stroke-width:
               2; }
               .thin-line            {stroke: #0F0F0F; shape-rendering: crispEdges}
               .filled               {fill: #1F1F1F; stroke: none;}
               text.terminal         {font-family: Verdana, Sans-serif;
               font-size: 12px;
               fill: #0A0A0A;
               font-weight: bold;
               }
               text.nonterminal      {font-family: Verdana, Sans-serif; font-style: italic;
               font-size: 12px;
               fill: #0D0D0D;
               }
               text.regexp           {font-family: Verdana, Sans-serif;
               font-size: 12px;
               fill: #0F0F0F;
               }
               rect, circle, polygon {fill: #1F1F1F; stroke: #1F1F1F;}
               rect.terminal         {fill: #CCCCCC; stroke: #1F1F1F;}
               rect.nonterminal      {fill: #E3E3E3; stroke: #1F1F1F;}
               rect.text             {fill: none; stroke: none;}    
               polygon.regexp        {fill: #EFEFEF; stroke: #1F1F1F;}
               
            </style>
         </defs>
         <polygon points="9 17 1 13 1 21"/>
         <polygon points="17 17 9 13 9 21"/>
         <rect x="31" y="3" width="90" height="32" rx="10"/>
         <rect x="29" y="1" width="90" height="32" class="terminal" rx="10"/>
         <text class="terminal" x="39" y="21">RXQUEUE(</text>
         <rect x="161" y="3" width="78" height="32" rx="10"/>
         <rect x="159" y="1" width="78" height="32" class="terminal" rx="10"/>
         <text class="terminal" x="169" y="21">"Create"</text>
         <rect x="279" y="35" width="24" height="32" rx="10"/>
         <rect x="277" y="33" width="24" height="32" class="terminal" rx="10"/>
         <text class="terminal" x="287" y="53">,</text>
<!--     <a xmlns:xlink="http://www.w3.org/1999/xlink" xlink:href="#queuename" xlink:title="queuename"> -->
            <rect x="323" y="35" width="90" height="32"/>
            <rect x="321" y="33" width="90" height="32" class="nonterminal"/>
            <text class="nonterminal" x="331" y="53">queuename</text>
<!--     </a> -->
         <rect x="161" y="79" width="76" height="32" rx="10"/>
         <rect x="159" y="77" width="76" height="32" class="terminal" rx="10"/>
         <text class="terminal" x="169" y="97">"Delete"</text>
         <rect x="257" y="79" width="24" height="32" rx="10"/>
         <rect x="255" y="77" width="24" height="32" class="terminal" rx="10"/>
         <text class="terminal" x="265" y="97">,</text>
<!--     <a xmlns:xlink="http://www.w3.org/1999/xlink" xlink:href="#queuename" xlink:title="queuename"> -->
            <rect x="301" y="79" width="90" height="32"/>
            <rect x="299" y="77" width="90" height="32" class="nonterminal"/>
            <text class="nonterminal" x="309" y="97">queuename</text>
<!--     </a> -->
         <rect x="161" y="123" width="66" height="32" rx="10"/>
         <rect x="159" y="121" width="66" height="32" class="terminal" rx="10"/>
         <text class="terminal" x="169" y="141">"Exist"</text>
         <rect x="247" y="123" width="24" height="32" rx="10"/>
         <rect x="245" y="121" width="24" height="32" class="terminal" rx="10"/>
         <text class="terminal" x="255" y="141">,</text>
<!--     <a xmlns:xlink="http://www.w3.org/1999/xlink" xlink:href="#queuename" xlink:title="queuename"> -->
            <rect x="291" y="123" width="90" height="32"/>
            <rect x="289" y="121" width="90" height="32" class="nonterminal"/>
            <text class="nonterminal" x="299" y="141">queuename</text>
<!--     </a> -->
         <rect x="161" y="167" width="58" height="32" rx="10"/>
         <rect x="159" y="165" width="58" height="32" class="terminal" rx="10"/>
         <text class="terminal" x="169" y="185">"Get"</text>
         <rect x="161" y="211" width="68" height="32" rx="10"/>
         <rect x="159" y="209" width="68" height="32" class="terminal" rx="10"/>
         <text class="terminal" x="169" y="229">"Open"</text>
         <rect x="249" y="211" width="24" height="32" rx="10"/>
         <rect x="247" y="209" width="24" height="32" class="terminal" rx="10"/>
         <text class="terminal" x="257" y="229">,</text>
<!--     <a xmlns:xlink="http://www.w3.org/1999/xlink" xlink:href="#queuename" xlink:title="queuename"> -->
            <rect x="293" y="211" width="90" height="32"/>
            <rect x="291" y="209" width="90" height="32" class="nonterminal"/>
            <text class="nonterminal" x="301" y="229">queuename</text>
<!--     </a> -->
         <rect x="161" y="255" width="56" height="32" rx="10"/>
         <rect x="159" y="253" width="56" height="32" class="terminal" rx="10"/>
         <text class="terminal" x="169" y="273">"Set"</text>
         <rect x="237" y="255" width="24" height="32" rx="10"/>
         <rect x="235" y="253" width="24" height="32" class="terminal" rx="10"/>
         <text class="terminal" x="245" y="273">,</text>
<!--     <a xmlns:xlink="http://www.w3.org/1999/xlink" xlink:href="#newqueuename" xlink:title="newqueuename"> -->
            <rect x="281" y="255" width="114" height="32"/>
            <rect x="279" y="253" width="114" height="32" class="nonterminal"/>
            <text class="nonterminal" x="289" y="273">newqueuename</text>
<!--     </a> -->
         <rect x="473" y="3" width="26" height="32" rx="10"/>
         <rect x="471" y="1" width="26" height="32" class="terminal" rx="10"/>
         <text class="terminal" x="481" y="21">)</text>
         <svg:path xmlns:svg="http://www.w3.org/2000/svg" class="line" d="m17 17 h2 m0 0 h10 m90 0 h10 m20 0 h10 m78 0 h10 m20 0 h10 m0 0 h144 m-174 0 h20 m154 0 h20 m-194 0 q10 0 10 10 m174 0 q0 -10 10 -10 m-184 10 v12 m174 0 v-12 m-174 12 q0 10 10 10 m154 0 q10 0 10 -10 m-164 10 h10 m24 0 h10 m0 0 h10 m90 0 h10 m-292 -32 h20 m292 0 h20 m-332 0 q10 0 10 10 m312 0 q0 -10 10 -10 m-322 10 v56 m312 0 v-56 m-312 56 q0 10 10 10 m292 0 q10 0 10 -10 m-302 10 h10 m76 0 h10 m0 0 h10 m24 0 h10 m0 0 h10 m90 0 h10 m0 0 h42 m-302 -10 v20 m312 0 v-20 m-312 20 v24 m312 0 v-24 m-312 24 q0 10 10 10 m292 0 q10 0 10 -10 m-302 10 h10 m66 0 h10 m0 0 h10 m24 0 h10 m0 0 h10 m90 0 h10 m0 0 h52 m-302 -10 v20 m312 0 v-20 m-312 20 v24 m312 0 v-24 m-312 24 q0 10 10 10 m292 0 q10 0 10 -10 m-302 10 h10 m58 0 h10 m0 0 h214 m-302 -10 v20 m312 0 v-20 m-312 20 v24 m312 0 v-24 m-312 24 q0 10 10 10 m292 0 q10 0 10 -10 m-302 10 h10 m68 0 h10 m0 0 h10 m24 0 h10 m0 0 h10 m90 0 h10 m0 0 h50 m-302 -10 v20 m312 0 v-20 m-312 20 v24 m312 0 v-24 m-312 24 q0 10 10 10 m292 0 q10 0 10 -10 m-302 10 h10 m56 0 h10 m0 0 h10 m24 0 h10 m0 0 h10 m114 0 h10 m0 0 h38 m20 -252 h10 m26 0 h10 m3 0 h-3"/>
         <polygon points="517 17 525 13 525 21"/>
         <polygon points="517 17 509 13 509 21"/>
      </svg>
