      <svg xmlns="http://www.w3.org/2000/svg" width="530" height="52">
         <defs>
            <style type="text/css">
               @namespace "http://www.w3.org/2000/svg";
               .line                 {fill: none; stroke: #1F1F1F;}
               .bold-line            {stroke: #0A0A0A; shape-rendering: crispEdges; stroke-width:
               2; }
               .thin-line            {stroke: #0F0F0F; shape-rendering: crispEdges}
               .filled               {fill: #1F1F1F; stroke: none;}
               text.terminal         {font-family: Verdana, Sans-serif;
               font-size: 12px;
               fill: #0A0A0A;
               font-weight: bold;
               }
               text.nonterminal      {font-family: Verdana, Sans-serif; font-style: italic;
               font-size: 12px;
               fill: #0D0D0D;
               }
               text.regexp           {font-family: Verdana, Sans-serif;
               font-size: 12px;
               fill: #0F0F0F;
               }
               rect, circle, polygon {fill: #1F1F1F; stroke: #1F1F1F;}
               rect.terminal         {fill: #CCCCCC; stroke: #1F1F1F;}
               rect.nonterminal      {fill: #E3E3E3; stroke: #1F1F1F;}
               rect.text             {fill: none; stroke: none;}    
               polygon.regexp        {fill: #EFEFEF; stroke: #1F1F1F;}
               
            </style>
         </defs>
         <polygon points="9 17 1 13 1 21"/>
         <polygon points="17 17 9 13 9 21"/>
         <rect x="31" y="3" width="70" height="32" rx="10"/>
         <rect x="29" y="1" width="70" height="32" class="terminal" rx="10"/>
         <text class="terminal" x="39" y="21">SPACE(</text>
<!--     <a xmlns:xlink="http://www.w3.org/1999/xlink" xlink:href="#string" xlink:title="string"> -->
            <rect x="121" y="3" width="56" height="32"/>
            <rect x="119" y="1" width="56" height="32" class="nonterminal"/>
            <text class="nonterminal" x="129" y="21">string</text>
<!--     </a> -->
         <rect x="197" y="3" width="24" height="32" rx="10"/>
         <rect x="195" y="1" width="24" height="32" class="terminal" rx="10"/>
         <text class="terminal" x="205" y="21">,</text>
<!--     <a xmlns:xlink="http://www.w3.org/1999/xlink" xlink:href="#n" xlink:title="n"> -->
            <rect x="261" y="3" width="28" height="32"/>
            <rect x="259" y="1" width="28" height="32" class="nonterminal"/>
            <text class="nonterminal" x="269" y="21">n</text>
<!--     </a> -->
         <rect x="329" y="3" width="24" height="32" rx="10"/>
         <rect x="327" y="1" width="24" height="32" class="terminal" rx="10"/>
         <text class="terminal" x="337" y="21">,</text>
<!--     <a xmlns:xlink="http://www.w3.org/1999/xlink" xlink:href="#pad" xlink:title="pad"> -->
            <rect x="393" y="3" width="44" height="32"/>
            <rect x="391" y="1" width="44" height="32" class="nonterminal"/>
            <text class="nonterminal" x="401" y="21">pad</text>
<!--     </a> -->
         <rect x="477" y="3" width="26" height="32" rx="10"/>
         <rect x="475" y="1" width="26" height="32" class="terminal" rx="10"/>
         <text class="terminal" x="485" y="21">)</text>
         <svg:path xmlns:svg="http://www.w3.org/2000/svg" class="line" d="m17 17 h2 m0 0 h10 m70 0 h10 m0 0 h10 m56 0 h10 m0 0 h10 m24 0 h10 m20 0 h10 m28 0 h10 m-68 0 h20 m48 0 h20 m-88 0 q10 0 10 10 m68 0 q0 -10 10 -10 m-78 10 v14 m68 0 v-14 m-68 14 q0 10 10 10 m48 0 q10 0 10 -10 m-58 10 h10 m0 0 h38 m20 -34 h10 m24 0 h10 m20 0 h10 m44 0 h10 m-84 0 h20 m64 0 h20 m-104 0 q10 0 10 10 m84 0 q0 -10 10 -10 m-94 10 v14 m84 0 v-14 m-84 14 q0 10 10 10 m64 0 q10 0 10 -10 m-74 10 h10 m0 0 h54 m20 -34 h10 m26 0 h10 m3 0 h-3"/>
         <polygon points="521 17 529 13 529 21"/>
         <polygon points="521 17 513 13 513 21"/>
      </svg>
