      <svg xmlns="http://www.w3.org/2000/svg" width="662" height="880">
         <defs>
            <style type="text/css">
               @namespace "http://www.w3.org/2000/svg";
               .line                 {fill: none; stroke: #1F1F1F;}
               .bold-line            {stroke: #0A0A0A; shape-rendering: crispEdges; stroke-width:
               2; }
               .thin-line            {stroke: #0F0F0F; shape-rendering: crispEdges}
               .filled               {fill: #1F1F1F; stroke: none;}
               text.terminal         {font-family: Verdana, Sans-serif;
               font-size: 12px;
               fill: #0A0A0A;
               font-weight: bold;
               }
               text.nonterminal      {font-family: Verdana, Sans-serif; font-style: italic;
               font-size: 12px;
               fill: #0D0D0D;
               }
               text.regexp           {font-family: Verdana, Sans-serif;
               font-size: 12px;
               fill: #0F0F0F;
               }
               rect, circle, polygon {fill: #1F1F1F; stroke: #1F1F1F;}
               rect.terminal         {fill: #CCCCCC; stroke: #1F1F1F;}
               rect.nonterminal      {fill: #E3E3E3; stroke: #1F1F1F;}
               rect.text             {fill: none; stroke: none;}    
               polygon.regexp        {fill: #EFEFEF; stroke: #1F1F1F;}
               
            </style>
         </defs>
         <polygon points="9 17 1 13 1 21"/>
         <polygon points="17 17 9 13 9 21"/>
         <rect x="51" y="3" width="54" height="32" rx="10"/>
         <rect x="49" y="1" width="54" height="32" class="terminal" rx="10"/>
         <text class="terminal" x="59" y="21">Open</text>
         <rect x="165" y="35" width="52" height="32" rx="10"/>
         <rect x="163" y="33" width="52" height="32" class="terminal" rx="10"/>
         <text class="terminal" x="173" y="53">BOth</text>
         <rect x="165" y="79" width="56" height="32" rx="10"/>
         <rect x="163" y="77" width="56" height="32" class="terminal" rx="10"/>
         <text class="terminal" x="173" y="97">Write</text>
         <rect x="281" y="35" width="70" height="32" rx="10"/>
         <rect x="279" y="33" width="70" height="32" class="terminal" rx="10"/>
         <text class="terminal" x="289" y="53">APpend</text>
         <rect x="281" y="79" width="72" height="32" rx="10"/>
         <rect x="279" y="77" width="72" height="32" class="terminal" rx="10"/>
         <text class="terminal" x="289" y="97">REPlace</text>
         <rect x="145" y="123" width="54" height="32" rx="10"/>
         <rect x="143" y="121" width="54" height="32" class="terminal" rx="10"/>
         <text class="terminal" x="153" y="141">REAd</text>
         <polygon points="413 19 420 3 562 3 569 19 562 35 420 35"/>
         <polygon points="411 17 418 1 560 1 567 17 560 33 418 33" class="regexp"/>
<!--     <a xmlns:xlink="http://www.w3.org/1999/xlink" xlink:href="#OPTIONS" xlink:title="OPTIONS"> -->
            <rect class="text" x="426" y="10" width="56" height="14"/>
            <text class="regexp" x="426" y="21">OPTIONS</text>
<!--     </a> -->
         <text class="regexp" x="487" y="21">- </text>
<!--     <a xmlns:xlink="http://www.w3.org/1999/xlink" xlink:href="#fragment" xlink:title="fragment"> -->
            <rect class="text" x="496" y="10" width="56" height="14"/>
            <text class="regexp" x="496" y="21">fragment</text>
<!--     </a> -->
         <rect x="51" y="167" width="56" height="32" rx="10"/>
         <rect x="49" y="165" width="56" height="32" class="terminal" rx="10"/>
         <text class="terminal" x="59" y="185">Close</text>
         <rect x="51" y="211" width="54" height="32" rx="10"/>
         <rect x="49" y="209" width="54" height="32" class="terminal" rx="10"/>
         <text class="terminal" x="59" y="229">Flush</text>
         <rect x="71" y="255" width="52" height="32" rx="10"/>
         <rect x="69" y="253" width="52" height="32" class="terminal" rx="10"/>
         <text class="terminal" x="79" y="273">Seek</text>
         <rect x="71" y="299" width="72" height="32" rx="10"/>
         <rect x="69" y="297" width="72" height="32" class="terminal" rx="10"/>
         <text class="terminal" x="79" y="317">Position</text>
         <rect x="203" y="287" width="30" height="32" rx="10"/>
         <rect x="201" y="285" width="30" height="32" class="terminal" rx="10"/>
         <text class="terminal" x="211" y="305">=</text>
         <rect x="203" y="331" width="30" height="32" rx="10"/>
         <rect x="201" y="329" width="30" height="32" class="terminal" rx="10"/>
         <text class="terminal" x="211" y="349">&lt;</text>
         <rect x="203" y="375" width="30" height="32" rx="10"/>
         <rect x="201" y="373" width="30" height="32" class="terminal" rx="10"/>
         <text class="terminal" x="211" y="393">+</text>
         <rect x="203" y="419" width="26" height="32" rx="10"/>
         <rect x="201" y="417" width="26" height="32" class="terminal" rx="10"/>
         <text class="terminal" x="211" y="437">-</text>
<!--     <a xmlns:xlink="http://www.w3.org/1999/xlink" xlink:href="#offset" xlink:title="offset"> -->
            <rect x="273" y="255" width="56" height="32"/>
            <rect x="271" y="253" width="56" height="32" class="nonterminal"/>
            <text class="nonterminal" x="281" y="273">offset</text>
<!--     </a> -->
         <rect x="369" y="287" width="52" height="32" rx="10"/>
         <rect x="367" y="285" width="52" height="32" class="terminal" rx="10"/>
         <text class="terminal" x="377" y="305">Read</text>
         <rect x="369" y="331" width="56" height="32" rx="10"/>
         <rect x="367" y="329" width="56" height="32" class="terminal" rx="10"/>
         <text class="terminal" x="377" y="349">Write</text>
         <rect x="485" y="287" width="50" height="32" rx="10"/>
         <rect x="483" y="285" width="50" height="32" class="terminal" rx="10"/>
         <text class="terminal" x="493" y="305">Char</text>
         <rect x="485" y="331" width="48" height="32" rx="10"/>
         <rect x="483" y="329" width="48" height="32" class="terminal" rx="10"/>
         <text class="terminal" x="493" y="349">Line</text>
         <rect x="51" y="463" width="60" height="32" rx="10"/>
         <rect x="49" y="461" width="60" height="32" class="terminal" rx="10"/>
         <text class="terminal" x="59" y="481">Query</text>
         <rect x="151" y="463" width="80" height="32" rx="10"/>
         <rect x="149" y="461" width="80" height="32" class="terminal" rx="10"/>
         <text class="terminal" x="159" y="481">Datetime</text>
         <rect x="151" y="507" width="58" height="32" rx="10"/>
         <rect x="149" y="505" width="58" height="32" class="terminal" rx="10"/>
         <text class="terminal" x="159" y="525">Exists</text>
         <rect x="151" y="551" width="66" height="32" rx="10"/>
         <rect x="149" y="549" width="66" height="32" class="terminal" rx="10"/>
         <text class="terminal" x="159" y="569">Handle</text>
         <rect x="171" y="595" width="52" height="32" rx="10"/>
         <rect x="169" y="593" width="52" height="32" class="terminal" rx="10"/>
         <text class="terminal" x="179" y="613">Seek</text>
         <rect x="171" y="639" width="72" height="32" rx="10"/>
         <rect x="169" y="637" width="72" height="32" class="terminal" rx="10"/>
         <text class="terminal" x="179" y="657">Position</text>
         <rect x="323" y="627" width="52" height="32" rx="10"/>
         <rect x="321" y="625" width="52" height="32" class="terminal" rx="10"/>
         <text class="terminal" x="331" y="645">Read</text>
         <rect x="323" y="671" width="56" height="32" rx="10"/>
         <rect x="321" y="669" width="56" height="32" class="terminal" rx="10"/>
         <text class="terminal" x="331" y="689">Write</text>
         <rect x="439" y="627" width="50" height="32" rx="10"/>
         <rect x="437" y="625" width="50" height="32" class="terminal" rx="10"/>
         <text class="terminal" x="447" y="645">Char</text>
         <rect x="439" y="671" width="48" height="32" rx="10"/>
         <rect x="437" y="669" width="48" height="32" class="terminal" rx="10"/>
         <text class="terminal" x="447" y="689">Line</text>
         <rect x="303" y="715" width="44" height="32" rx="10"/>
         <rect x="301" y="713" width="44" height="32" class="terminal" rx="10"/>
         <text class="terminal" x="311" y="733">Sys</text>
         <rect x="151" y="759" width="50" height="32" rx="10"/>
         <rect x="149" y="757" width="50" height="32" class="terminal" rx="10"/>
         <text class="terminal" x="159" y="777">SIze</text>
         <rect x="151" y="803" width="100" height="32" rx="10"/>
         <rect x="149" y="801" width="100" height="32" class="terminal" rx="10"/>
         <text class="terminal" x="159" y="821">STreamtype</text>
         <rect x="151" y="847" width="92" height="32" rx="10"/>
         <rect x="149" y="845" width="92" height="32" class="terminal" rx="10"/>
         <text class="terminal" x="159" y="865">Timestamp</text>
         <rect x="609" y="3" width="26" height="32" rx="10"/>
         <rect x="607" y="1" width="26" height="32" class="terminal" rx="10"/>
         <text class="terminal" x="617" y="21">)</text>
         <svg:path xmlns:svg="http://www.w3.org/2000/svg" class="line" d="m17 17 h2 m20 0 h10 m54 0 h10 m40 0 h10 m0 0 h66 m-96 0 h20 m76 0 h20 m-116 0 q10 0 10 10 m96 0 q0 -10 10 -10 m-106 10 v12 m96 0 v-12 m-96 12 q0 10 10 10 m76 0 q10 0 10 -10 m-86 10 h10 m52 0 h10 m0 0 h4 m-86 -10 v20 m96 0 v-20 m-96 20 v24 m96 0 v-24 m-96 24 q0 10 10 10 m76 0 q10 0 10 -10 m-86 10 h10 m56 0 h10 m40 -76 h10 m0 0 h82 m-112 0 h20 m92 0 h20 m-132 0 q10 0 10 10 m112 0 q0 -10 10 -10 m-122 10 v12 m112 0 v-12 m-112 12 q0 10 10 10 m92 0 q10 0 10 -10 m-102 10 h10 m70 0 h10 m0 0 h2 m-102 -10 v20 m112 0 v-20 m-112 20 v24 m112 0 v-24 m-112 24 q0 10 10 10 m92 0 q10 0 10 -10 m-102 10 h10 m72 0 h10 m-248 -76 h20 m248 0 h20 m-288 0 q10 0 10 10 m268 0 q0 -10 10 -10 m-278 10 v100 m268 0 v-100 m-268 100 q0 10 10 10 m248 0 q10 0 10 -10 m-258 10 h10 m54 0 h10 m0 0 h174 m20 -120 h10 m156 0 h10 m-558 0 h20 m538 0 h20 m-578 0 q10 0 10 10 m558 0 q0 -10 10 -10 m-568 10 v144 m558 0 v-144 m-558 144 q0 10 10 10 m538 0 q10 0 10 -10 m-548 10 h10 m56 0 h10 m0 0 h462 m-548 -10 v20 m558 0 v-20 m-558 20 v24 m558 0 v-24 m-558 24 q0 10 10 10 m538 0 q10 0 10 -10 m-548 10 h10 m54 0 h10 m0 0 h464 m-548 -10 v20 m558 0 v-20 m-558 20 v24 m558 0 v-24 m-558 24 q0 10 10 10 m538 0 q10 0 10 -10 m-528 10 h10 m52 0 h10 m0 0 h20 m-112 0 h20 m92 0 h20 m-132 0 q10 0 10 10 m112 0 q0 -10 10 -10 m-122 10 v24 m112 0 v-24 m-112 24 q0 10 10 10 m92 0 q10 0 10 -10 m-102 10 h10 m72 0 h10 m40 -44 h10 m0 0 h40 m-70 0 h20 m50 0 h20 m-90 0 q10 0 10 10 m70 0 q0 -10 10 -10 m-80 10 v12 m70 0 v-12 m-70 12 q0 10 10 10 m50 0 q10 0 10 -10 m-60 10 h10 m30 0 h10 m-60 -10 v20 m70 0 v-20 m-70 20 v24 m70 0 v-24 m-70 24 q0 10 10 10 m50 0 q10 0 10 -10 m-60 10 h10 m30 0 h10 m-60 -10 v20 m70 0 v-20 m-70 20 v24 m70 0 v-24 m-70 24 q0 10 10 10 m50 0 q10 0 10 -10 m-60 10 h10 m30 0 h10 m-60 -10 v20 m70 0 v-20 m-70 20 v24 m70 0 v-24 m-70 24 q0 10 10 10 m50 0 q10 0 10 -10 m-60 10 h10 m26 0 h10 m0 0 h4 m20 -164 h10 m56 0 h10 m20 0 h10 m0 0 h66 m-96 0 h20 m76 0 h20 m-116 0 q10 0 10 10 m96 0 q0 -10 10 -10 m-106 10 v12 m96 0 v-12 m-96 12 q0 10 10 10 m76 0 q10 0 10 -10 m-86 10 h10 m52 0 h10 m0 0 h4 m-86 -10 v20 m96 0 v-20 m-96 20 v24 m96 0 v-24 m-96 24 q0 10 10 10 m76 0 q10 0 10 -10 m-86 10 h10 m56 0 h10 m40 -76 h10 m0 0 h60 m-90 0 h20 m70 0 h20 m-110 0 q10 0 10 10 m90 0 q0 -10 10 -10 m-100 10 v12 m90 0 v-12 m-90 12 q0 10 10 10 m70 0 q10 0 10 -10 m-80 10 h10 m50 0 h10 m-80 -10 v20 m90 0 v-20 m-90 20 v24 m90 0 v-24 m-90 24 q0 10 10 10 m70 0 q10 0 10 -10 m-80 10 h10 m48 0 h10 m0 0 h2 m20 -76 h14 m-548 -10 v20 m558 0 v-20 m-558 20 v188 m558 0 v-188 m-558 188 q0 10 10 10 m538 0 q10 0 10 -10 m-548 10 h10 m60 0 h10 m20 0 h10 m80 0 h10 m0 0 h298 m-418 0 h20 m398 0 h20 m-438 0 q10 0 10 10 m418 0 q0 -10 10 -10 m-428 10 v24 m418 0 v-24 m-418 24 q0 10 10 10 m398 0 q10 0 10 -10 m-408 10 h10 m58 0 h10 m0 0 h320 m-408 -10 v20 m418 0 v-20 m-418 20 v24 m418 0 v-24 m-418 24 q0 10 10 10 m398 0 q10 0 10 -10 m-408 10 h10 m66 0 h10 m0 0 h312 m-408 -10 v20 m418 0 v-20 m-418 20 v24 m418 0 v-24 m-418 24 q0 10 10 10 m398 0 q10 0 10 -10 m-388 10 h10 m52 0 h10 m0 0 h20 m-112 0 h20 m92 0 h20 m-132 0 q10 0 10 10 m112 0 q0 -10 10 -10 m-122 10 v24 m112 0 v-24 m-112 24 q0 10 10 10 m92 0 q10 0 10 -10 m-102 10 h10 m72 0 h10 m60 -44 h10 m0 0 h66 m-96 0 h20 m76 0 h20 m-116 0 q10 0 10 10 m96 0 q0 -10 10 -10 m-106 10 v12 m96 0 v-12 m-96 12 q0 10 10 10 m76 0 q10 0 10 -10 m-86 10 h10 m52 0 h10 m0 0 h4 m-86 -10 v20 m96 0 v-20 m-96 20 v24 m96 0 v-24 m-96 24 q0 10 10 10 m76 0 q10 0 10 -10 m-86 10 h10 m56 0 h10 m40 -76 h10 m0 0 h60 m-90 0 h20 m70 0 h20 m-110 0 q10 0 10 10 m90 0 q0 -10 10 -10 m-100 10 v12 m90 0 v-12 m-90 12 q0 10 10 10 m70 0 q10 0 10 -10 m-80 10 h10 m50 0 h10 m-80 -10 v20 m90 0 v-20 m-90 20 v24 m90 0 v-24 m-90 24 q0 10 10 10 m70 0 q10 0 10 -10 m-80 10 h10 m48 0 h10 m0 0 h2 m-226 -76 h20 m226 0 h20 m-266 0 q10 0 10 10 m246 0 q0 -10 10 -10 m-256 10 v100 m246 0 v-100 m-246 100 q0 10 10 10 m226 0 q10 0 10 -10 m-236 10 h10 m44 0 h10 m0 0 h162 m-388 -130 v20 m418 0 v-20 m-418 20 v144 m418 0 v-144 m-418 144 q0 10 10 10 m398 0 q10 0 10 -10 m-408 10 h10 m50 0 h10 m0 0 h328 m-408 -10 v20 m418 0 v-20 m-418 20 v24 m418 0 v-24 m-418 24 q0 10 10 10 m398 0 q10 0 10 -10 m-408 10 h10 m100 0 h10 m0 0 h278 m-408 -10 v20 m418 0 v-20 m-418 20 v24 m418 0 v-24 m-418 24 q0 10 10 10 m398 0 q10 0 10 -10 m-408 10 h10 m92 0 h10 m0 0 h286 m20 -384 h20 m20 -460 h10 m26 0 h10 m3 0 h-3"/>
         <polygon points="653 17 661 13 661 21"/>
         <polygon points="653 17 645 13 645 21"/>
      </svg>
