      <svg xmlns="http://www.w3.org/2000/svg" width="618" height="36">
         <defs>
            <style type="text/css">
               @namespace "http://www.w3.org/2000/svg";
               .line                 {fill: none; stroke: #1F1F1F;}
               .bold-line            {stroke: #0A0A0A; shape-rendering: crispEdges; stroke-width:
               2; }
               .thin-line            {stroke: #0F0F0F; shape-rendering: crispEdges}
               .filled               {fill: #1F1F1F; stroke: none;}
               text.terminal         {font-family: Verdana, Sans-serif;
               font-size: 12px;
               fill: #0A0A0A;
               font-weight: bold;
               }
               text.nonterminal      {font-family: Verdana, Sans-serif; font-style: italic;
               font-size: 12px;
               fill: #0D0D0D;
               }
               text.regexp           {font-family: Verdana, Sans-serif;
               font-size: 12px;
               fill: #0F0F0F;
               }
               rect, circle, polygon {fill: #1F1F1F; stroke: #1F1F1F;}
               rect.terminal         {fill: #CCCCCC; stroke: #1F1F1F;}
               rect.nonterminal      {fill: #E3E3E3; stroke: #1F1F1F;}
               rect.text             {fill: none; stroke: none;}    
               polygon.regexp        {fill: #EFEFEF; stroke: #1F1F1F;}
               
            </style>
         </defs>
         <polygon points="9 17 1 13 1 21"/>
         <polygon points="17 17 9 13 9 21"/>
         <rect x="31" y="3" width="82" height="32" rx="10"/>
         <rect x="29" y="1" width="82" height="32" class="terminal" rx="10"/>
         <text class="terminal" x="39" y="21">STREAM(</text>
<!--     <a xmlns:xlink="http://www.w3.org/1999/xlink" xlink:href="#name" xlink:title="name"> -->
            <rect x="133" y="3" width="54" height="32"/>
            <rect x="131" y="1" width="54" height="32" class="nonterminal"/>
            <text class="nonterminal" x="141" y="21">name</text>
<!--     </a> -->
         <rect x="207" y="3" width="24" height="32" rx="10"/>
         <rect x="205" y="1" width="24" height="32" class="terminal" rx="10"/>
         <text class="terminal" x="215" y="21">,</text>
         <rect x="251" y="3" width="100" height="32" rx="10"/>
         <rect x="249" y="1" width="100" height="32" class="terminal" rx="10"/>
         <text class="terminal" x="259" y="21">"Command"</text>
         <rect x="371" y="3" width="24" height="32" rx="10"/>
         <rect x="369" y="1" width="24" height="32" class="terminal" rx="10"/>
         <text class="terminal" x="379" y="21">,</text>
<!--     <a xmlns:xlink="http://www.w3.org/1999/xlink" xlink:href="#stream_command" xlink:title="stream_command"> -->
            <rect x="415" y="3" width="130" height="32"/>
            <rect x="413" y="1" width="130" height="32" class="nonterminal"/>
            <text class="nonterminal" x="423" y="21">stream_command</text>
<!--     </a> -->
         <rect x="565" y="3" width="26" height="32" rx="10"/>
         <rect x="563" y="1" width="26" height="32" class="terminal" rx="10"/>
         <text class="terminal" x="573" y="21">)</text>
         <svg:path xmlns:svg="http://www.w3.org/2000/svg" class="line" d="m17 17 h2 m0 0 h10 m82 0 h10 m0 0 h10 m54 0 h10 m0 0 h10 m24 0 h10 m0 0 h10 m100 0 h10 m0 0 h10 m24 0 h10 m0 0 h10 m130 0 h10 m0 0 h10 m26 0 h10 m3 0 h-3"/>
         <polygon points="609 17 617 13 617 21"/>
         <polygon points="609 17 601 13 601 21"/>
      </svg>
