      <svg xmlns="http://www.w3.org/2000/svg" width="630" height="156">
         <defs>
            <style type="text/css">
               @namespace "http://www.w3.org/2000/svg";
               .line                 {fill: none; stroke: #1F1F1F;}
               .bold-line            {stroke: #0A0A0A; shape-rendering: crispEdges; stroke-width:
               2; }
               .thin-line            {stroke: #0F0F0F; shape-rendering: crispEdges}
               .filled               {fill: #1F1F1F; stroke: none;}
               text.terminal         {font-family: Verdana, Sans-serif;
               font-size: 12px;
               fill: #0A0A0A;
               font-weight: bold;
               }
               text.nonterminal      {font-family: Verdana, Sans-serif; font-style: italic;
               font-size: 12px;
               fill: #0D0D0D;
               }
               text.regexp           {font-family: Verdana, Sans-serif;
               font-size: 12px;
               fill: #0F0F0F;
               }
               rect, circle, polygon {fill: #1F1F1F; stroke: #1F1F1F;}
               rect.terminal         {fill: #CCCCCC; stroke: #1F1F1F;}
               rect.nonterminal      {fill: #E3E3E3; stroke: #1F1F1F;}
               rect.text             {fill: none; stroke: none;}    
               polygon.regexp        {fill: #EFEFEF; stroke: #1F1F1F;}
               
            </style>
         </defs>
         <polygon points="9 33 1 29 1 37"/>
         <polygon points="17 33 9 29 9 37"/>
         <rect x="51" y="19" width="74" height="32" rx="10"/>
         <rect x="49" y="17" width="74" height="32" class="terminal" rx="10"/>
         <text class="terminal" x="59" y="37">SHARED</text>
         <rect x="51" y="63" width="98" height="32" rx="10"/>
         <rect x="49" y="61" width="98" height="32" class="terminal" rx="10"/>
         <text class="terminal" x="59" y="81">SHARERead</text>
         <rect x="51" y="107" width="102" height="32" rx="10"/>
         <rect x="49" y="105" width="102" height="32" class="terminal" rx="10"/>
         <text class="terminal" x="59" y="125">SHAREWrite</text>
         <rect x="253" y="19" width="82" height="32" rx="10"/>
         <rect x="251" y="17" width="82" height="32" class="terminal" rx="10"/>
         <text class="terminal" x="261" y="37">NOBuffer</text>
         <rect x="253" y="63" width="64" height="32" rx="10"/>
         <rect x="251" y="61" width="64" height="32" class="terminal" rx="10"/>
         <text class="terminal" x="261" y="81">BInary</text>
         <rect x="357" y="63" width="86" height="32" rx="10"/>
         <rect x="355" y="61" width="86" height="32" class="terminal" rx="10"/>
         <text class="terminal" x="365" y="81">REClength</text>
<!--     <a xmlns:xlink="http://www.w3.org/1999/xlink" xlink:href="#length" xlink:title="length"> -->
            <rect x="463" y="63" width="60" height="32"/>
            <rect x="461" y="61" width="60" height="32" class="nonterminal"/>
            <text class="nonterminal" x="471" y="81">length</text>
<!--     </a> -->
         <svg:path xmlns:svg="http://www.w3.org/2000/svg" class="line" d="m17 33 h2 m20 0 h10 m74 0 h10 m0 0 h28 m-142 0 h20 m122 0 h20 m-162 0 q10 0 10 10 m142 0 q0 -10 10 -10 m-152 10 v24 m142 0 v-24 m-142 24 q0 10 10 10 m122 0 q10 0 10 -10 m-132 10 h10 m98 0 h10 m0 0 h4 m-132 -10 v20 m142 0 v-20 m-142 20 v24 m142 0 v-24 m-142 24 q0 10 10 10 m122 0 q10 0 10 -10 m-132 10 h10 m102 0 h10 m-132 -10 v20 m142 0 v-20 m-142 20 v14 m142 0 v-14 m-142 14 q0 10 10 10 m122 0 q10 0 10 -10 m-132 10 h10 m0 0 h112 m80 -122 h10 m82 0 h10 m0 0 h208 m-330 0 h20 m310 0 h20 m-350 0 q10 0 10 10 m330 0 q0 -10 10 -10 m-340 10 v24 m330 0 v-24 m-330 24 q0 10 10 10 m310 0 q10 0 10 -10 m-320 10 h10 m64 0 h10 m20 0 h10 m86 0 h10 m0 0 h10 m60 0 h10 m-206 0 h20 m186 0 h20 m-226 0 q10 0 10 10 m206 0 q0 -10 10 -10 m-216 10 v14 m206 0 v-14 m-206 14 q0 10 10 10 m186 0 q10 0 10 -10 m-196 10 h10 m0 0 h176 m-330 -78 l20 0 m-1 0 q-9 0 -9 -10 l0 -12 q0 -10 10 -10 m350 32 l20 0 m-20 0 q10 0 10 -10 l0 -12 q0 -10 -10 -10 m-350 0 h10 m0 0 h340 m-390 32 h20 m390 0 h20 m-430 0 q10 0 10 10 m410 0 q0 -10 10 -10 m-420 10 v74 m410 0 v-74 m-410 74 q0 10 10 10 m390 0 q10 0 10 -10 m-400 10 h10 m0 0 h380 m23 -94 h-3"/>
         <polygon points="621 33 629 29 629 37"/>
         <polygon points="621 33 613 29 613 37"/>
      </svg>
