      <svg xmlns="http://www.w3.org/2000/svg" width="642" height="156">
         <defs>
            <style type="text/css">
               @namespace "http://www.w3.org/2000/svg";
               .line                 {fill: none; stroke: #1F1F1F;}
               .bold-line            {stroke: #0A0A0A; shape-rendering: crispEdges; stroke-width:
               2; }
               .thin-line            {stroke: #0F0F0F; shape-rendering: crispEdges}
               .filled               {fill: #1F1F1F; stroke: none;}
               text.terminal         {font-family: Verdana, Sans-serif;
               font-size: 12px;
               fill: #0A0A0A;
               font-weight: bold;
               }
               text.nonterminal      {font-family: Verdana, Sans-serif; font-style: italic;
               font-size: 12px;
               fill: #0D0D0D;
               }
               text.regexp           {font-family: Verdana, Sans-serif;
               font-size: 12px;
               fill: #0F0F0F;
               }
               rect, circle, polygon {fill: #1F1F1F; stroke: #1F1F1F;}
               rect.terminal         {fill: #CCCCCC; stroke: #1F1F1F;}
               rect.nonterminal      {fill: #E3E3E3; stroke: #1F1F1F;}
               rect.text             {fill: none; stroke: none;}    
               polygon.regexp        {fill: #EFEFEF; stroke: #1F1F1F;}
               
            </style>
         </defs>
         <polygon points="9 17 1 13 1 21"/>
         <polygon points="17 17 9 13 9 21"/>
         <rect x="31" y="3" width="80" height="32" rx="10"/>
         <rect x="29" y="1" width="80" height="32" class="terminal" rx="10"/>
         <text class="terminal" x="39" y="21">STREAM(</text>
<!--     <a xmlns:xlink="http://www.w3.org/1999/xlink" xlink:href="#name" xlink:title="name"> -->
            <rect x="131" y="3" width="54" height="32"/>
            <rect x="129" y="1" width="54" height="32" class="nonterminal"/>
            <text class="nonterminal" x="139" y="21">name</text>
<!--     </a> -->
         <rect x="205" y="3" width="24" height="32" rx="10"/>
         <rect x="203" y="1" width="24" height="32" class="terminal" rx="10"/>
         <text class="terminal" x="213" y="21">,</text>
         <rect x="269" y="35" width="54" height="32" rx="10"/>
         <rect x="267" y="33" width="54" height="32" class="terminal" rx="10"/>
         <text class="terminal" x="277" y="53">State</text>
         <rect x="269" y="79" width="84" height="32" rx="10"/>
         <rect x="267" y="77" width="84" height="32" class="terminal" rx="10"/>
         <text class="terminal" x="277" y="97">Command</text>
         <rect x="373" y="79" width="24" height="32" rx="10"/>
         <rect x="371" y="77" width="24" height="32" class="terminal" rx="10"/>
         <text class="terminal" x="381" y="97">,</text>
<!--     <a xmlns:xlink="http://www.w3.org/1999/xlink" xlink:href="#stream_command" xlink:title="stream_command"> -->
            <rect x="417" y="79" width="132" height="32"/>
            <rect x="415" y="77" width="132" height="32" class="nonterminal"/>
            <text class="nonterminal" x="425" y="97">stream_command</text>
<!--     </a> -->
         <rect x="269" y="123" width="94" height="32" rx="10"/>
         <rect x="267" y="121" width="94" height="32" class="terminal" rx="10"/>
         <text class="terminal" x="277" y="141">Description</text>
         <rect x="589" y="3" width="26" height="32" rx="10"/>
         <rect x="587" y="1" width="26" height="32" class="terminal" rx="10"/>
         <text class="terminal" x="597" y="21">)</text>
         <svg:path xmlns:svg="http://www.w3.org/2000/svg" class="line" d="m17 17 h2 m0 0 h10 m80 0 h10 m0 0 h10 m54 0 h10 m0 0 h10 m24 0 h10 m20 0 h10 m0 0 h290 m-320 0 h20 m300 0 h20 m-340 0 q10 0 10 10 m320 0 q0 -10 10 -10 m-330 10 v12 m320 0 v-12 m-320 12 q0 10 10 10 m300 0 q10 0 10 -10 m-310 10 h10 m54 0 h10 m0 0 h226 m-310 -10 v20 m320 0 v-20 m-320 20 v24 m320 0 v-24 m-320 24 q0 10 10 10 m300 0 q10 0 10 -10 m-310 10 h10 m84 0 h10 m0 0 h10 m24 0 h10 m0 0 h10 m132 0 h10 m-310 -10 v20 m320 0 v-20 m-320 20 v24 m320 0 v-24 m-320 24 q0 10 10 10 m300 0 q10 0 10 -10 m-310 10 h10 m94 0 h10 m0 0 h186 m20 -120 h10 m26 0 h10 m3 0 h-3"/>
         <polygon points="633 17 641 13 641 21"/>
         <polygon points="633 17 625 13 625 21"/>
      </svg>
