<svg xmlns="http://www.w3.org/2000/svg" width="669" height="881">
         <defs>
            <style type="text/css">
               @namespace "http://www.w3.org/2000/svg";
               .line                 {fill: none; stroke: #1F1F1F;}
               .bold-line            {stroke: #0A0A0A; shape-rendering: crispEdges; stroke-width:
               2; }
               .thin-line            {stroke: #0F0F0F; shape-rendering: crispEdges}
               .filled               {fill: #1F1F1F; stroke: none;}
               text.terminal         {font-family: Verdana, Sans-serif;
               font-size: 12px;
               fill: #0A0A0A;
               font-weight: bold;
               }
               text.nonterminal      {font-family: Verdana, Sans-serif; font-style: italic;
               font-size: 12px;
               fill: #0D0D0D;
               }
               text.regexp           {font-family: Verdana, Sans-serif;
               font-size: 12px;
               fill: #0F0F0F;
               }
               rect, circle, polygon {fill: #1F1F1F; stroke: #1F1F1F;}
               rect.terminal         {fill: #CCCCCC; stroke: #1F1F1F;}
               rect.nonterminal      {fill: #E3E3E3; stroke: #1F1F1F;}
               rect.text             {fill: none; stroke: none;}
               polygon.regexp        {fill: #EFEFEF; stroke: #1F1F1F;}

            </style>
         </defs>

         <defs>
            <style type="text/css">
    @namespace "http://www.w3.org/2000/svg";
    .line                 {fill: none; stroke: #1F1F1F;}
    .bold-line            {stroke: #0A0A0A; shape-rendering: crispEdges; stroke-width: 2; }
    .thin-line            {stroke: #0F0F0F; shape-rendering: crispEdges}
    .filled               {fill: #1F1F1F; stroke: none;}
    text.terminal         {font-family: Verdana, Sans-serif;
                            font-size: 12px;
                            fill: #0A0A0A;
                            font-weight: bold;
                          }
    text.nonterminal      {font-family: Verdana, Sans-serif;
                            font-size: 12px;
                            fill: #0D0D0D;
                            font-weight: normal;
                          }
    text.regexp           {font-family: Verdana, Sans-serif;
                            font-size: 12px;
                            fill: #0F0F0F;
                            font-weight: normal;
                          }
    rect, circle, polygon {fill: #1F1F1F; stroke: #1F1F1F;}
    rect.terminal         {fill: #cccccc; stroke: #1F1F1F;}
    rect.nonterminal      {fill: #E3E3E3; stroke: #1F1F1F;}
    rect.text             {fill: none; stroke: none;}    
    polygon.regexp        {fill: #EFEFEF; stroke: #1F1F1F;}
  </style>
         </defs>
         <polygon points="9 17 1 13 1 21"/>
         <polygon points="17 17 9 13 9 21"/>
         <rect x="51" y="3" width="56" height="32" rx="10"/>
         <rect x="49" y="1" width="56" height="32" class="terminal" rx="10"/>
         <text class="terminal" x="59" y="21">Open</text>
         <rect x="167" y="35" width="54" height="32" rx="10"/>
         <rect x="165" y="33" width="54" height="32" class="terminal" rx="10"/>
         <text class="terminal" x="175" y="53">BOth</text>
         <rect x="167" y="79" width="58" height="32" rx="10"/>
         <rect x="165" y="77" width="58" height="32" class="terminal" rx="10"/>
         <text class="terminal" x="175" y="97">Write</text>
         <rect x="285" y="35" width="72" height="32" rx="10"/>
         <rect x="283" y="33" width="72" height="32" class="terminal" rx="10"/>
         <text class="terminal" x="293" y="53">APpend</text>
         <rect x="285" y="79" width="74" height="32" rx="10"/>
         <rect x="283" y="77" width="74" height="32" class="terminal" rx="10"/>
         <text class="terminal" x="293" y="97">REPlace</text>
         <rect x="147" y="123" width="54" height="32" rx="10"/>
         <rect x="145" y="121" width="54" height="32" class="terminal" rx="10"/>
         <text class="terminal" x="155" y="141">REAd</text>
         <polygon points="419 19 426 3 568 3 575 19 568 35 426 35"/>
         <polygon points="417 17 424 1 566 1 573 17 566 33 424 33" class="regexp"/>
         <text class="regexp" x="432" y="21">OPTIONS - fragment</text>
         <rect x="51" y="167" width="56" height="32" rx="10"/>
         <rect x="49" y="165" width="56" height="32" class="terminal" rx="10"/>
         <text class="terminal" x="59" y="185">Close</text>
         <rect x="51" y="211" width="56" height="32" rx="10"/>
         <rect x="49" y="209" width="56" height="32" class="terminal" rx="10"/>
         <text class="terminal" x="59" y="229">Flush</text>
         <rect x="71" y="255" width="52" height="32" rx="10"/>
         <rect x="69" y="253" width="52" height="32" class="terminal" rx="10"/>
         <text class="terminal" x="79" y="273">Seek</text>
         <rect x="71" y="299" width="74" height="32" rx="10"/>
         <rect x="69" y="297" width="74" height="32" class="terminal" rx="10"/>
         <text class="terminal" x="79" y="317">Position</text>
         <rect x="205" y="287" width="30" height="32" rx="10"/>
         <rect x="203" y="285" width="30" height="32" class="terminal" rx="10"/>
         <text class="terminal" x="213" y="305">=</text>
         <rect x="205" y="331" width="30" height="32" rx="10"/>
         <rect x="203" y="329" width="30" height="32" class="terminal" rx="10"/>
         <text class="terminal" x="213" y="349">&lt;</text>
         <rect x="205" y="375" width="30" height="32" rx="10"/>
         <rect x="203" y="373" width="30" height="32" class="terminal" rx="10"/>
         <text class="terminal" x="213" y="393">+</text>
         <rect x="205" y="419" width="26" height="32" rx="10"/>
         <rect x="203" y="417" width="26" height="32" class="terminal" rx="10"/>
         <text class="terminal" x="213" y="437">-</text><a xmlns:xlink="http://www.w3.org/1999/xlink" xlink:href="#offset" xlink:title="offset">
            <rect x="275" y="255" width="56" height="32"/>
            <rect x="273" y="253" width="56" height="32" class="nonterminal"/>
            <text class="nonterminal" x="283" y="273">offset</text></a><rect x="371" y="287" width="54" height="32" rx="10"/>
         <rect x="369" y="285" width="54" height="32" class="terminal" rx="10"/>
         <text class="terminal" x="379" y="305">Read</text>
         <rect x="371" y="331" width="58" height="32" rx="10"/>
         <rect x="369" y="329" width="58" height="32" class="terminal" rx="10"/>
         <text class="terminal" x="379" y="349">Write</text>
         <rect x="489" y="287" width="52" height="32" rx="10"/>
         <rect x="487" y="285" width="52" height="32" class="terminal" rx="10"/>
         <text class="terminal" x="497" y="305">Char</text>
         <rect x="489" y="331" width="48" height="32" rx="10"/>
         <rect x="487" y="329" width="48" height="32" class="terminal" rx="10"/>
         <text class="terminal" x="497" y="349">Line</text>
         <rect x="51" y="463" width="62" height="32" rx="10"/>
         <rect x="49" y="461" width="62" height="32" class="terminal" rx="10"/>
         <text class="terminal" x="59" y="481">Query</text>
         <rect x="153" y="463" width="82" height="32" rx="10"/>
         <rect x="151" y="461" width="82" height="32" class="terminal" rx="10"/>
         <text class="terminal" x="161" y="481">Datetime</text>
         <rect x="153" y="507" width="60" height="32" rx="10"/>
         <rect x="151" y="505" width="60" height="32" class="terminal" rx="10"/>
         <text class="terminal" x="161" y="525">Exists</text>
         <rect x="153" y="551" width="66" height="32" rx="10"/>
         <rect x="151" y="549" width="66" height="32" class="terminal" rx="10"/>
         <text class="terminal" x="161" y="569">Handle</text>
         <rect x="173" y="595" width="52" height="32" rx="10"/>
         <rect x="171" y="593" width="52" height="32" class="terminal" rx="10"/>
         <text class="terminal" x="181" y="613">Seek</text>
         <rect x="173" y="639" width="74" height="32" rx="10"/>
         <rect x="171" y="637" width="74" height="32" class="terminal" rx="10"/>
         <text class="terminal" x="181" y="657">Position</text>
         <rect x="327" y="627" width="54" height="32" rx="10"/>
         <rect x="325" y="625" width="54" height="32" class="terminal" rx="10"/>
         <text class="terminal" x="335" y="645">Read</text>
         <rect x="327" y="671" width="58" height="32" rx="10"/>
         <rect x="325" y="669" width="58" height="32" class="terminal" rx="10"/>
         <text class="terminal" x="335" y="689">Write</text>
         <rect x="445" y="627" width="52" height="32" rx="10"/>
         <rect x="443" y="625" width="52" height="32" class="terminal" rx="10"/>
         <text class="terminal" x="453" y="645">Char</text>
         <rect x="445" y="671" width="48" height="32" rx="10"/>
         <rect x="443" y="669" width="48" height="32" class="terminal" rx="10"/>
         <text class="terminal" x="453" y="689">Line</text>
         <rect x="307" y="715" width="44" height="32" rx="10"/>
         <rect x="305" y="713" width="44" height="32" class="terminal" rx="10"/>
         <text class="terminal" x="315" y="733">Sys</text>
         <rect x="153" y="759" width="50" height="32" rx="10"/>
         <rect x="151" y="757" width="50" height="32" class="terminal" rx="10"/>
         <text class="terminal" x="161" y="777">SIze</text>
         <rect x="153" y="803" width="102" height="32" rx="10"/>
         <rect x="151" y="801" width="102" height="32" class="terminal" rx="10"/>
         <text class="terminal" x="161" y="821">STreamtype</text>
         <rect x="153" y="847" width="94" height="32" rx="10"/>
         <rect x="151" y="845" width="94" height="32" class="terminal" rx="10"/>
         <text class="terminal" x="161" y="865">Timestamp</text>
         <rect x="615" y="3" width="26" height="32" rx="10"/>
         <rect x="613" y="1" width="26" height="32" class="terminal" rx="10"/>
         <text class="terminal" x="623" y="21">)</text>
         <svg:path xmlns:svg="http://www.w3.org/2000/svg" class="line" d="m17 17 h2 m20 0 h10 m56 0 h10 m40 0 h10 m0 0 h68 m-98 0 h20 m78 0 h20 m-118 0 q10 0 10 10 m98 0 q0 -10 10 -10 m-108 10 v12 m98 0 v-12 m-98 12 q0 10 10 10 m78 0 q10 0 10 -10 m-88 10 h10 m54 0 h10 m0 0 h4 m-88 -10 v20 m98 0 v-20 m-98 20 v24 m98 0 v-24 m-98 24 q0 10 10 10 m78 0 q10 0 10 -10 m-88 10 h10 m58 0 h10 m40 -76 h10 m0 0 h84 m-114 0 h20 m94 0 h20 m-134 0 q10 0 10 10 m114 0 q0 -10 10 -10 m-124 10 v12 m114 0 v-12 m-114 12 q0 10 10 10 m94 0 q10 0 10 -10 m-104 10 h10 m72 0 h10 m0 0 h2 m-104 -10 v20 m114 0 v-20 m-114 20 v24 m114 0 v-24 m-114 24 q0 10 10 10 m94 0 q10 0 10 -10 m-104 10 h10 m74 0 h10 m-252 -76 h20 m252 0 h20 m-292 0 q10 0 10 10 m272 0 q0 -10 10 -10 m-282 10 v100 m272 0 v-100 m-272 100 q0 10 10 10 m252 0 q10 0 10 -10 m-262 10 h10 m54 0 h10 m0 0 h178 m20 -120 h10 m156 0 h10 m-564 0 h20 m544 0 h20 m-584 0 q10 0 10 10 m564 0 q0 -10 10 -10 m-574 10 v144 m564 0 v-144 m-564 144 q0 10 10 10 m544 0 q10 0 10 -10 m-554 10 h10 m56 0 h10 m0 0 h468 m-554 -10 v20 m564 0 v-20 m-564 20 v24 m564 0 v-24 m-564 24 q0 10 10 10 m544 0 q10 0 10 -10 m-554 10 h10 m56 0 h10 m0 0 h468 m-554 -10 v20 m564 0 v-20 m-564 20 v24 m564 0 v-24 m-564 24 q0 10 10 10 m544 0 q10 0 10 -10 m-534 10 h10 m52 0 h10 m0 0 h22 m-114 0 h20 m94 0 h20 m-134 0 q10 0 10 10 m114 0 q0 -10 10 -10 m-124 10 v24 m114 0 v-24 m-114 24 q0 10 10 10 m94 0 q10 0 10 -10 m-104 10 h10 m74 0 h10 m40 -44 h10 m0 0 h40 m-70 0 h20 m50 0 h20 m-90 0 q10 0 10 10 m70 0 q0 -10 10 -10 m-80 10 v12 m70 0 v-12 m-70 12 q0 10 10 10 m50 0 q10 0 10 -10 m-60 10 h10 m30 0 h10 m-60 -10 v20 m70 0 v-20 m-70 20 v24 m70 0 v-24 m-70 24 q0 10 10 10 m50 0 q10 0 10 -10 m-60 10 h10 m30 0 h10 m-60 -10 v20 m70 0 v-20 m-70 20 v24 m70 0 v-24 m-70 24 q0 10 10 10 m50 0 q10 0 10 -10 m-60 10 h10 m30 0 h10 m-60 -10 v20 m70 0 v-20 m-70 20 v24 m70 0 v-24 m-70 24 q0 10 10 10 m50 0 q10 0 10 -10 m-60 10 h10 m26 0 h10 m0 0 h4 m20 -164 h10 m56 0 h10 m20 0 h10 m0 0 h68 m-98 0 h20 m78 0 h20 m-118 0 q10 0 10 10 m98 0 q0 -10 10 -10 m-108 10 v12 m98 0 v-12 m-98 12 q0 10 10 10 m78 0 q10 0 10 -10 m-88 10 h10 m54 0 h10 m0 0 h4 m-88 -10 v20 m98 0 v-20 m-98 20 v24 m98 0 v-24 m-98 24 q0 10 10 10 m78 0 q10 0 10 -10 m-88 10 h10 m58 0 h10 m40 -76 h10 m0 0 h62 m-92 0 h20 m72 0 h20 m-112 0 q10 0 10 10 m92 0 q0 -10 10 -10 m-102 10 v12 m92 0 v-12 m-92 12 q0 10 10 10 m72 0 q10 0 10 -10 m-82 10 h10 m52 0 h10 m-82 -10 v20 m92 0 v-20 m-92 20 v24 m92 0 v-24 m-92 24 q0 10 10 10 m72 0 q10 0 10 -10 m-82 10 h10 m48 0 h10 m0 0 h4 m20 -76 h14 m-554 -10 v20 m564 0 v-20 m-564 20 v188 m564 0 v-188 m-564 188 q0 10 10 10 m544 0 q10 0 10 -10 m-554 10 h10 m62 0 h10 m20 0 h10 m82 0 h10 m0 0 h302 m-424 0 h20 m404 0 h20 m-444 0 q10 0 10 10 m424 0 q0 -10 10 -10 m-434 10 v24 m424 0 v-24 m-424 24 q0 10 10 10 m404 0 q10 0 10 -10 m-414 10 h10 m60 0 h10 m0 0 h324 m-414 -10 v20 m424 0 v-20 m-424 20 v24 m424 0 v-24 m-424 24 q0 10 10 10 m404 0 q10 0 10 -10 m-414 10 h10 m66 0 h10 m0 0 h318 m-414 -10 v20 m424 0 v-20 m-424 20 v24 m424 0 v-24 m-424 24 q0 10 10 10 m404 0 q10 0 10 -10 m-394 10 h10 m52 0 h10 m0 0 h22 m-114 0 h20 m94 0 h20 m-134 0 q10 0 10 10 m114 0 q0 -10 10 -10 m-124 10 v24 m114 0 v-24 m-114 24 q0 10 10 10 m94 0 q10 0 10 -10 m-104 10 h10 m74 0 h10 m60 -44 h10 m0 0 h68 m-98 0 h20 m78 0 h20 m-118 0 q10 0 10 10 m98 0 q0 -10 10 -10 m-108 10 v12 m98 0 v-12 m-98 12 q0 10 10 10 m78 0 q10 0 10 -10 m-88 10 h10 m54 0 h10 m0 0 h4 m-88 -10 v20 m98 0 v-20 m-98 20 v24 m98 0 v-24 m-98 24 q0 10 10 10 m78 0 q10 0 10 -10 m-88 10 h10 m58 0 h10 m40 -76 h10 m0 0 h62 m-92 0 h20 m72 0 h20 m-112 0 q10 0 10 10 m92 0 q0 -10 10 -10 m-102 10 v12 m92 0 v-12 m-92 12 q0 10 10 10 m72 0 q10 0 10 -10 m-82 10 h10 m52 0 h10 m-82 -10 v20 m92 0 v-20 m-92 20 v24 m92 0 v-24 m-92 24 q0 10 10 10 m72 0 q10 0 10 -10 m-82 10 h10 m48 0 h10 m0 0 h4 m-230 -76 h20 m230 0 h20 m-270 0 q10 0 10 10 m250 0 q0 -10 10 -10 m-260 10 v100 m250 0 v-100 m-250 100 q0 10 10 10 m230 0 q10 0 10 -10 m-240 10 h10 m44 0 h10 m0 0 h166 m-394 -130 v20 m424 0 v-20 m-424 20 v144 m424 0 v-144 m-424 144 q0 10 10 10 m404 0 q10 0 10 -10 m-414 10 h10 m50 0 h10 m0 0 h334 m-414 -10 v20 m424 0 v-20 m-424 20 v24 m424 0 v-24 m-424 24 q0 10 10 10 m404 0 q10 0 10 -10 m-414 10 h10 m102 0 h10 m0 0 h282 m-414 -10 v20 m424 0 v-20 m-424 20 v24 m424 0 v-24 m-424 24 q0 10 10 10 m404 0 q10 0 10 -10 m-414 10 h10 m94 0 h10 m0 0 h290 m20 -384 h18 m20 -460 h10 m26 0 h10 m3 0 h-3"/>
         <polygon points="659 17 667 13 667 21"/>
         <polygon points="659 17 651 13 651 21"/>
</svg>