      <svg xmlns="http://www.w3.org/2000/svg" width="692" height="144">
         <defs>
            <style type="text/css">
               @namespace "http://www.w3.org/2000/svg";
               .line                 {fill: none; stroke: #1F1F1F;}
               .bold-line            {stroke: #0A0A0A; shape-rendering: crispEdges; stroke-width:
               2; }
               .thin-line            {stroke: #0F0F0F; shape-rendering: crispEdges}
               .filled               {fill: #1F1F1F; stroke: none;}
               text.terminal         {font-family: Verdana, Sans-serif;
               font-size: 12px;
               fill: #0A0A0A;
               font-weight: bold;
               }
               text.nonterminal      {font-family: Verdana, Sans-serif; font-style: italic;
               font-size: 12px;
               fill: #0D0D0D;
               }
               text.regexp           {font-family: Verdana, Sans-serif;
               font-size: 12px;
               fill: #0F0F0F;
               }
               rect, circle, polygon {fill: #1F1F1F; stroke: #1F1F1F;}
               rect.terminal         {fill: #CCCCCC; stroke: #1F1F1F;}
               rect.nonterminal      {fill: #E3E3E3; stroke: #1F1F1F;}
               rect.text             {fill: none; stroke: none;}    
               polygon.regexp        {fill: #EFEFEF; stroke: #1F1F1F;}
               
            </style>
         </defs>
         <polygon points="9 5 1 1 1 9"/>
         <polygon points="17 5 9 1 9 9"/>
         <rect x="51" y="23" width="74" height="32" rx="10"/>
         <rect x="49" y="21" width="74" height="32" class="terminal" rx="10"/>
         <text class="terminal" x="59" y="41">SHARED</text>
         <rect x="51" y="67" width="98" height="32" rx="10"/>
         <rect x="49" y="65" width="98" height="32" class="terminal" rx="10"/>
         <text class="terminal" x="59" y="85">SHARERead</text>
         <rect x="51" y="111" width="102" height="32" rx="10"/>
         <rect x="49" y="109" width="102" height="32" class="terminal" rx="10"/>
         <text class="terminal" x="59" y="129">SHAREWrite</text>
         <rect x="213" y="23" width="82" height="32" rx="10"/>
         <rect x="211" y="21" width="82" height="32" class="terminal" rx="10"/>
         <text class="terminal" x="221" y="41">NOBuffer</text>
         <rect x="355" y="23" width="64" height="32" rx="10"/>
         <rect x="353" y="21" width="64" height="32" class="terminal" rx="10"/>
         <text class="terminal" x="363" y="41">BInary</text>
         <rect x="459" y="55" width="86" height="32" rx="10"/>
         <rect x="457" y="53" width="86" height="32" class="terminal" rx="10"/>
         <text class="terminal" x="467" y="73">REClength</text>
<!--     <a xmlns:xlink="http://www.w3.org/1999/xlink" xlink:href="#length" xlink:title="length"> -->
            <rect x="565" y="55" width="60" height="32"/>
            <rect x="563" y="53" width="60" height="32" class="nonterminal"/>
            <text class="nonterminal" x="573" y="73">length</text>
<!--     </a> -->
         <svg:path xmlns:svg="http://www.w3.org/2000/svg" class="line" d="m17 5 h2 m20 0 h10 m0 0 h112 m-142 0 h20 m122 0 h20 m-162 0 q10 0 10 10 m142 0 q0 -10 10 -10 m-152 10 v12 m142 0 v-12 m-142 12 q0 10 10 10 m122 0 q10 0 10 -10 m-132 10 h10 m74 0 h10 m0 0 h28 m-132 -10 v20 m142 0 v-20 m-142 20 v24 m142 0 v-24 m-142 24 q0 10 10 10 m122 0 q10 0 10 -10 m-132 10 h10 m98 0 h10 m0 0 h4 m-132 -10 v20 m142 0 v-20 m-142 20 v24 m142 0 v-24 m-142 24 q0 10 10 10 m122 0 q10 0 10 -10 m-132 10 h10 m102 0 h10 m40 -120 h10 m0 0 h92 m-122 0 h20 m102 0 h20 m-142 0 q10 0 10 10 m122 0 q0 -10 10 -10 m-132 10 v12 m122 0 v-12 m-122 12 q0 10 10 10 m102 0 q10 0 10 -10 m-112 10 h10 m82 0 h10 m40 -32 h10 m0 0 h300 m-330 0 h20 m310 0 h20 m-350 0 q10 0 10 10 m330 0 q0 -10 10 -10 m-340 10 v12 m330 0 v-12 m-330 12 q0 10 10 10 m310 0 q10 0 10 -10 m-320 10 h10 m64 0 h10 m20 0 h10 m0 0 h176 m-206 0 h20 m186 0 h20 m-226 0 q10 0 10 10 m206 0 q0 -10 10 -10 m-216 10 v12 m206 0 v-12 m-206 12 q0 10 10 10 m186 0 q10 0 10 -10 m-196 10 h10 m86 0 h10 m0 0 h10 m60 0 h10 m43 -64 h-3"/>
         <polygon points="683 5 691 1 691 9"/>
         <polygon points="683 5 675 1 675 9"/>
      </svg>
