      <svg xmlns="http://www.w3.org/2000/svg" width="648" height="850">
         <defs>
            <style type="text/css">
               @namespace "http://www.w3.org/2000/svg";
               .line                 {fill: none; stroke: #1F1F1F;}
               .bold-line            {stroke: #0A0A0A; shape-rendering: crispEdges; stroke-width:
               2; }
               .thin-line            {stroke: #0F0F0F; shape-rendering: crispEdges}
               .filled               {fill: #1F1F1F; stroke: none;}
               text.terminal         {font-family: Verdana, Sans-serif;
               font-size: 12px;
               fill: #0A0A0A;
               font-weight: bold;
               }
               text.nonterminal      {font-family: Verdana, Sans-serif; font-style: italic;
               font-size: 12px;
               fill: #0D0D0D;
               }
               text.regexp           {font-family: Verdana, Sans-serif;
               font-size: 12px;
               fill: #0F0F0F;
               }
               rect, circle, polygon {fill: #1F1F1F; stroke: #1F1F1F;}
               rect.terminal         {fill: #CCCCCC; stroke: #1F1F1F;}
               rect.nonterminal      {fill: #E3E3E3; stroke: #1F1F1F;}
               rect.text             {fill: none; stroke: none;}    
               polygon.regexp        {fill: #EFEFEF; stroke: #1F1F1F;}
               
            </style>
         </defs>
         <polygon points="9 17 1 13 1 21"/>
         <polygon points="17 17 9 13 9 21"/>
         <rect x="51" y="3" width="54" height="32" rx="10"/>
         <rect x="49" y="1" width="54" height="32" class="terminal" rx="10"/>
         <text class="terminal" x="59" y="21">Open</text>
         <rect x="145" y="3" width="52" height="32" rx="10"/>
         <rect x="143" y="1" width="52" height="32" class="terminal" rx="10"/>
         <text class="terminal" x="153" y="21">BOth</text>
<!--     <a xmlns:xlink="http://www.w3.org/1999/xlink" xlink:href="#write_options" xlink:title="write_options"> -->
            <rect x="217" y="3" width="106" height="32"/>
            <rect x="215" y="1" width="106" height="32" class="nonterminal"/>
            <text class="nonterminal" x="225" y="21">write_options</text>
<!--     </a> -->
         <rect x="145" y="47" width="54" height="32" rx="10"/>
         <rect x="143" y="45" width="54" height="32" class="terminal" rx="10"/>
         <text class="terminal" x="153" y="65">REAd</text>
         <rect x="145" y="91" width="56" height="32" rx="10"/>
         <rect x="143" y="89" width="56" height="32" class="terminal" rx="10"/>
         <text class="terminal" x="153" y="109">Write</text>
<!--     <a xmlns:xlink="http://www.w3.org/1999/xlink" xlink:href="#write_options" xlink:title="write_options"> -->
            <rect x="221" y="91" width="106" height="32"/>
            <rect x="219" y="89" width="106" height="32" class="nonterminal"/>
            <text class="nonterminal" x="229" y="109">write_options</text>
<!--     </a> -->
<!--     <a xmlns:xlink="http://www.w3.org/1999/xlink" xlink:href="#options" xlink:title="options"> -->
            <rect x="367" y="3" width="66" height="32"/>
            <rect x="365" y="1" width="66" height="32" class="nonterminal"/>
            <text class="nonterminal" x="375" y="21">options</text>
<!--     </a> -->
         <rect x="51" y="157" width="56" height="32" rx="10"/>
         <rect x="49" y="155" width="56" height="32" class="terminal" rx="10"/>
         <text class="terminal" x="59" y="175">Close</text>
         <rect x="51" y="201" width="54" height="32" rx="10"/>
         <rect x="49" y="199" width="54" height="32" class="terminal" rx="10"/>
         <text class="terminal" x="59" y="219">Flush</text>
         <rect x="71" y="245" width="52" height="32" rx="10"/>
         <rect x="69" y="243" width="52" height="32" class="terminal" rx="10"/>
         <text class="terminal" x="79" y="263">Seek</text>
         <rect x="71" y="289" width="72" height="32" rx="10"/>
         <rect x="69" y="287" width="72" height="32" class="terminal" rx="10"/>
         <text class="terminal" x="79" y="307">Position</text>
         <rect x="203" y="245" width="30" height="32" rx="10"/>
         <rect x="201" y="243" width="30" height="32" class="terminal" rx="10"/>
         <text class="terminal" x="211" y="263">=</text>
         <rect x="203" y="289" width="30" height="32" rx="10"/>
         <rect x="201" y="287" width="30" height="32" class="terminal" rx="10"/>
         <text class="terminal" x="211" y="307">&lt;</text>
         <rect x="203" y="333" width="30" height="32" rx="10"/>
         <rect x="201" y="331" width="30" height="32" class="terminal" rx="10"/>
         <text class="terminal" x="211" y="351">+</text>
         <rect x="203" y="377" width="24" height="32" rx="10"/>
         <rect x="201" y="375" width="24" height="32" class="terminal" rx="10"/>
         <text class="terminal" x="211" y="395">;</text>
<!--     <a xmlns:xlink="http://www.w3.org/1999/xlink" xlink:href="#offset" xlink:title="offset"> -->
            <rect x="273" y="245" width="56" height="32"/>
            <rect x="271" y="243" width="56" height="32" class="nonterminal"/>
            <text class="nonterminal" x="281" y="263">offset</text>
<!--     </a> -->
         <rect x="369" y="245" width="52" height="32" rx="10"/>
         <rect x="367" y="243" width="52" height="32" class="terminal" rx="10"/>
         <text class="terminal" x="377" y="263">Read</text>
         <rect x="369" y="289" width="56" height="32" rx="10"/>
         <rect x="367" y="287" width="56" height="32" class="terminal" rx="10"/>
         <text class="terminal" x="377" y="307">Write</text>
         <rect x="485" y="245" width="50" height="32" rx="10"/>
         <rect x="483" y="243" width="50" height="32" class="terminal" rx="10"/>
         <text class="terminal" x="493" y="263">Char</text>
         <rect x="485" y="289" width="48" height="32" rx="10"/>
         <rect x="483" y="287" width="48" height="32" class="terminal" rx="10"/>
         <text class="terminal" x="493" y="307">Line</text>
         <rect x="51" y="443" width="60" height="32" rx="10"/>
         <rect x="49" y="441" width="60" height="32" class="terminal" rx="10"/>
         <text class="terminal" x="59" y="461">Query</text>
         <rect x="151" y="443" width="80" height="32" rx="10"/>
         <rect x="149" y="441" width="80" height="32" class="terminal" rx="10"/>
         <text class="terminal" x="159" y="461">Datetime</text>
         <rect x="151" y="487" width="58" height="32" rx="10"/>
         <rect x="149" y="485" width="58" height="32" class="terminal" rx="10"/>
         <text class="terminal" x="159" y="505">Exists</text>
         <rect x="151" y="531" width="66" height="32" rx="10"/>
         <rect x="149" y="529" width="66" height="32" class="terminal" rx="10"/>
         <text class="terminal" x="159" y="549">Handle</text>
         <rect x="171" y="575" width="52" height="32" rx="10"/>
         <rect x="169" y="573" width="52" height="32" class="terminal" rx="10"/>
         <text class="terminal" x="179" y="593">Seek</text>
         <rect x="171" y="619" width="72" height="32" rx="10"/>
         <rect x="169" y="617" width="72" height="32" class="terminal" rx="10"/>
         <text class="terminal" x="179" y="637">Position</text>
         <rect x="323" y="575" width="52" height="32" rx="10"/>
         <rect x="321" y="573" width="52" height="32" class="terminal" rx="10"/>
         <text class="terminal" x="331" y="593">Read</text>
         <rect x="323" y="619" width="56" height="32" rx="10"/>
         <rect x="321" y="617" width="56" height="32" class="terminal" rx="10"/>
         <text class="terminal" x="331" y="637">Write</text>
         <rect x="439" y="575" width="50" height="32" rx="10"/>
         <rect x="437" y="573" width="50" height="32" class="terminal" rx="10"/>
         <text class="terminal" x="447" y="593">Char</text>
         <rect x="439" y="619" width="48" height="32" rx="10"/>
         <rect x="437" y="617" width="48" height="32" class="terminal" rx="10"/>
         <text class="terminal" x="447" y="637">Line</text>
         <rect x="303" y="685" width="44" height="32" rx="10"/>
         <rect x="301" y="683" width="44" height="32" class="terminal" rx="10"/>
         <text class="terminal" x="311" y="703">Sys</text>
         <rect x="151" y="729" width="50" height="32" rx="10"/>
         <rect x="149" y="727" width="50" height="32" class="terminal" rx="10"/>
         <text class="terminal" x="159" y="747">SIze</text>
         <rect x="151" y="773" width="100" height="32" rx="10"/>
         <rect x="149" y="771" width="100" height="32" class="terminal" rx="10"/>
         <text class="terminal" x="159" y="791">STreamtype</text>
         <rect x="151" y="817" width="92" height="32" rx="10"/>
         <rect x="149" y="815" width="92" height="32" class="terminal" rx="10"/>
         <text class="terminal" x="159" y="835">Timestamp</text>
         <rect x="595" y="3" width="26" height="32" rx="10"/>
         <rect x="593" y="1" width="26" height="32" class="terminal" rx="10"/>
         <text class="terminal" x="603" y="21">)</text>
         <svg:path xmlns:svg="http://www.w3.org/2000/svg" class="line" d="m17 17 h2 m20 0 h10 m54 0 h10 m20 0 h10 m52 0 h10 m0 0 h10 m106 0 h10 m0 0 h4 m-222 0 h20 m202 0 h20 m-242 0 q10 0 10 10 m222 0 q0 -10 10 -10 m-232 10 v24 m222 0 v-24 m-222 24 q0 10 10 10 m202 0 q10 0 10 -10 m-212 10 h10 m54 0 h10 m0 0 h128 m-212 -10 v20 m222 0 v-20 m-222 20 v24 m222 0 v-24 m-222 24 q0 10 10 10 m202 0 q10 0 10 -10 m-212 10 h10 m56 0 h10 m0 0 h10 m106 0 h10 m-212 -10 v20 m222 0 v-20 m-222 20 v14 m222 0 v-14 m-222 14 q0 10 10 10 m202 0 q10 0 10 -10 m-212 10 h10 m0 0 h192 m20 -122 h10 m66 0 h10 m0 0 h122 m-544 0 h20 m524 0 h20 m-564 0 q10 0 10 10 m544 0 q0 -10 10 -10 m-554 10 v134 m544 0 v-134 m-544 134 q0 10 10 10 m524 0 q10 0 10 -10 m-534 10 h10 m56 0 h10 m0 0 h448 m-534 -10 v20 m544 0 v-20 m-544 20 v24 m544 0 v-24 m-544 24 q0 10 10 10 m524 0 q10 0 10 -10 m-534 10 h10 m54 0 h10 m0 0 h450 m-534 -10 v20 m544 0 v-20 m-544 20 v24 m544 0 v-24 m-544 24 q0 10 10 10 m524 0 q10 0 10 -10 m-514 10 h10 m52 0 h10 m0 0 h20 m-112 0 h20 m92 0 h20 m-132 0 q10 0 10 10 m112 0 q0 -10 10 -10 m-122 10 v24 m112 0 v-24 m-112 24 q0 10 10 10 m92 0 q10 0 10 -10 m-102 10 h10 m72 0 h10 m40 -44 h10 m30 0 h10 m-70 0 h20 m50 0 h20 m-90 0 q10 0 10 10 m70 0 q0 -10 10 -10 m-80 10 v24 m70 0 v-24 m-70 24 q0 10 10 10 m50 0 q10 0 10 -10 m-60 10 h10 m30 0 h10 m-60 -10 v20 m70 0 v-20 m-70 20 v24 m70 0 v-24 m-70 24 q0 10 10 10 m50 0 q10 0 10 -10 m-60 10 h10 m30 0 h10 m-60 -10 v20 m70 0 v-20 m-70 20 v24 m70 0 v-24 m-70 24 q0 10 10 10 m50 0 q10 0 10 -10 m-60 10 h10 m24 0 h10 m0 0 h6 m-60 -10 v20 m70 0 v-20 m-70 20 v14 m70 0 v-14 m-70 14 q0 10 10 10 m50 0 q10 0 10 -10 m-60 10 h10 m0 0 h40 m20 -166 h10 m56 0 h10 m20 0 h10 m52 0 h10 m0 0 h4 m-96 0 h20 m76 0 h20 m-116 0 q10 0 10 10 m96 0 q0 -10 10 -10 m-106 10 v24 m96 0 v-24 m-96 24 q0 10 10 10 m76 0 q10 0 10 -10 m-86 10 h10 m56 0 h10 m-86 -10 v20 m96 0 v-20 m-96 20 v14 m96 0 v-14 m-96 14 q0 10 10 10 m76 0 q10 0 10 -10 m-86 10 h10 m0 0 h66 m40 -78 h10 m50 0 h10 m-90 0 h20 m70 0 h20 m-110 0 q10 0 10 10 m90 0 q0 -10 10 -10 m-100 10 v24 m90 0 v-24 m-90 24 q0 10 10 10 m70 0 q10 0 10 -10 m-80 10 h10 m48 0 h10 m0 0 h2 m-514 -54 v20 m544 0 v-20 m-544 20 v178 m544 0 v-178 m-544 178 q0 10 10 10 m524 0 q10 0 10 -10 m-534 10 h10 m60 0 h10 m20 0 h10 m80 0 h10 m0 0 h298 m-418 0 h20 m398 0 h20 m-438 0 q10 0 10 10 m418 0 q0 -10 10 -10 m-428 10 v24 m418 0 v-24 m-418 24 q0 10 10 10 m398 0 q10 0 10 -10 m-408 10 h10 m58 0 h10 m0 0 h320 m-408 -10 v20 m418 0 v-20 m-418 20 v24 m418 0 v-24 m-418 24 q0 10 10 10 m398 0 q10 0 10 -10 m-408 10 h10 m66 0 h10 m0 0 h312 m-408 -10 v20 m418 0 v-20 m-418 20 v24 m418 0 v-24 m-418 24 q0 10 10 10 m398 0 q10 0 10 -10 m-388 10 h10 m52 0 h10 m0 0 h20 m-112 0 h20 m92 0 h20 m-132 0 q10 0 10 10 m112 0 q0 -10 10 -10 m-122 10 v24 m112 0 v-24 m-112 24 q0 10 10 10 m92 0 q10 0 10 -10 m-102 10 h10 m72 0 h10 m60 -44 h10 m52 0 h10 m0 0 h4 m-96 0 h20 m76 0 h20 m-116 0 q10 0 10 10 m96 0 q0 -10 10 -10 m-106 10 v24 m96 0 v-24 m-96 24 q0 10 10 10 m76 0 q10 0 10 -10 m-86 10 h10 m56 0 h10 m40 -44 h10 m50 0 h10 m-90 0 h20 m70 0 h20 m-110 0 q10 0 10 10 m90 0 q0 -10 10 -10 m-100 10 v24 m90 0 v-24 m-90 24 q0 10 10 10 m70 0 q10 0 10 -10 m-80 10 h10 m48 0 h10 m0 0 h2 m-80 -10 v20 m90 0 v-20 m-90 20 v14 m90 0 v-14 m-90 14 q0 10 10 10 m70 0 q10 0 10 -10 m-80 10 h10 m0 0 h60 m-226 -78 h20 m226 0 h20 m-266 0 q10 0 10 10 m246 0 q0 -10 10 -10 m-256 10 v90 m246 0 v-90 m-246 90 q0 10 10 10 m226 0 q10 0 10 -10 m-236 10 h10 m44 0 h10 m0 0 h162 m-388 -120 v20 m418 0 v-20 m-418 20 v134 m418 0 v-134 m-418 134 q0 10 10 10 m398 0 q10 0 10 -10 m-408 10 h10 m50 0 h10 m0 0 h328 m-408 -10 v20 m418 0 v-20 m-418 20 v24 m418 0 v-24 m-418 24 q0 10 10 10 m398 0 q10 0 10 -10 m-408 10 h10 m100 0 h10 m0 0 h278 m-408 -10 v20 m418 0 v-20 m-418 20 v24 m418 0 v-24 m-418 24 q0 10 10 10 m398 0 q10 0 10 -10 m-408 10 h10 m92 0 h10 m0 0 h286 m20 -374 h6 m20 -440 h10 m26 0 h10 m3 0 h-3"/>
         <polygon points="639 17 647 13 647 21"/>
         <polygon points="639 17 631 13 631 21"/>
      </svg>
