      <svg xmlns="http://www.w3.org/2000/svg" width="578" height="156">
         <defs>
            <style type="text/css">
               @namespace "http://www.w3.org/2000/svg";
               .line                 {fill: none; stroke: #1F1F1F;}
               .bold-line            {stroke: #0A0A0A; shape-rendering: crispEdges; stroke-width:
               2; }
               .thin-line            {stroke: #0F0F0F; shape-rendering: crispEdges}
               .filled               {fill: #1F1F1F; stroke: none;}
               text.terminal         {font-family: Verdana, Sans-serif;
               font-size: 12px;
               fill: #0A0A0A;
               font-weight: bold;
               }
               text.nonterminal      {font-family: Verdana, Sans-serif;
               font-size: 12px;
               fill: #0D0D0D;
               }
               text.regexp           {font-family: Verdana, Sans-serif;
               font-size: 12px;
               fill: #0F0F0F;
               }
               rect, circle, polygon {fill: #1F1F1F; stroke: #1F1F1F;}
               rect.terminal         {fill: #CCCCCC; stroke: #1F1F1F;}
               rect.nonterminal      {fill: #E3E3E3; stroke: #1F1F1F;}
               rect.text             {fill: none; stroke: none;}    
               polygon.regexp        {fill: #EFEFEF; stroke: #1F1F1F;}
               
            </style>
         </defs>
         <polygon points="9 33 1 29 1 37"/>
         <polygon points="17 33 9 29 9 37"/>
         <rect x="51" y="19" width="66" height="32" rx="10"/>
         <rect x="49" y="17" width="66" height="32" class="terminal" rx="10"/>
         <text class="terminal" x="59" y="37">Shared</text>
         <rect x="51" y="63" width="88" height="32" rx="10"/>
         <rect x="49" y="61" width="88" height="32" class="terminal" rx="10"/>
         <text class="terminal" x="59" y="81">Shareread</text>
         <rect x="51" y="107" width="94" height="32" rx="10"/>
         <rect x="49" y="105" width="94" height="32" class="terminal" rx="10"/>
         <text class="terminal" x="59" y="125">Sharewrite</text>
         <rect x="225" y="19" width="78" height="32" rx="10"/>
         <rect x="223" y="17" width="78" height="32" class="terminal" rx="10"/>
         <text class="terminal" x="233" y="37">Nobuffer</text>
         <rect x="225" y="63" width="62" height="32" rx="10"/>
         <rect x="223" y="61" width="62" height="32" class="terminal" rx="10"/>
         <text class="terminal" x="233" y="81">Binary</text>
         <rect x="327" y="63" width="84" height="32" rx="10"/>
         <rect x="325" y="61" width="84" height="32" class="terminal" rx="10"/>
         <text class="terminal" x="335" y="81">Reclength</text>
         <a xmlns:xlink="http://www.w3.org/1999/xlink" xlink:href="#length" xlink:title="length">
            <rect x="431" y="63" width="60" height="32"/>
            <rect x="429" y="61" width="60" height="32" class="nonterminal"/>
            <text class="nonterminal" x="439" y="81">length</text>
         </a>
         <svg:path xmlns:svg="http://www.w3.org/2000/svg" class="line" d="m17 33 h2 m20 0 h10 m66 0 h10 m0 0 h28 m-134 0 h20 m114 0 h20 m-154 0 q10 0 10 10 m134 0 q0 -10 10 -10 m-144 10 v24 m134 0 v-24 m-134 24 q0 10 10 10 m114 0 q10 0 10 -10 m-124 10 h10 m88 0 h10 m0 0 h6 m-124 -10 v20 m134 0 v-20 m-134 20 v24 m134 0 v-24 m-134 24 q0 10 10 10 m114 0 q10 0 10 -10 m-124 10 h10 m94 0 h10 m-124 -10 v20 m134 0 v-20 m-134 20 v14 m134 0 v-14 m-134 14 q0 10 10 10 m114 0 q10 0 10 -10 m-124 10 h10 m0 0 h104 m60 -122 h10 m78 0 h10 m0 0 h208 m-326 0 h20 m306 0 h20 m-346 0 q10 0 10 10 m326 0 q0 -10 10 -10 m-336 10 v24 m326 0 v-24 m-326 24 q0 10 10 10 m306 0 q10 0 10 -10 m-316 10 h10 m62 0 h10 m20 0 h10 m84 0 h10 m0 0 h10 m60 0 h10 m-204 0 h20 m184 0 h20 m-224 0 q10 0 10 10 m204 0 q0 -10 10 -10 m-214 10 v14 m204 0 v-14 m-204 14 q0 10 10 10 m184 0 q10 0 10 -10 m-194 10 h10 m0 0 h174 m-326 -78 l20 0 m-1 0 q-9 0 -9 -10 l0 -12 q0 -10 10 -10 m346 32 l20 0 m-20 0 q10 0 10 -10 l0 -12 q0 -10 -10 -10 m-346 0 h10 m0 0 h336 m23 32 h-3"/>
         <polygon points="569 33 577 29 577 37"/>
         <polygon points="569 33 561 29 561 37"/>
      </svg>
