      <svg xmlns="http://www.w3.org/2000/svg" width="684" height="144">
         <defs>
            <style type="text/css">
               @namespace "http://www.w3.org/2000/svg";
               .line                 {fill: none; stroke: #1F1F1F;}
               .bold-line            {stroke: #0A0A0A; shape-rendering: crispEdges; stroke-width:
               2; }
               .thin-line            {stroke: #0F0F0F; shape-rendering: crispEdges}
               .filled               {fill: #1F1F1F; stroke: none;}
               text.terminal         {font-family: Verdana, Sans-serif;
               font-size: 12px;
               fill: #0A0A0A;
               font-weight: bold;
               }
               text.nonterminal      {font-family: Verdana, Sans-serif; font-style: italic;
               font-size: 12px;
               fill: #0D0D0D;
               }
               text.regexp           {font-family: Verdana, Sans-serif;
               font-size: 12px;
               fill: #0F0F0F;
               }
               rect, circle, polygon {fill: #1F1F1F; stroke: #1F1F1F;}
               rect.terminal         {fill: #CCCCCC; stroke: #1F1F1F;}
               rect.nonterminal      {fill: #E3E3E3; stroke: #1F1F1F;}
               rect.text             {fill: none; stroke: none;}    
               polygon.regexp        {fill: #EFEFEF; stroke: #1F1F1F;}
               
            </style>
         </defs>
         <polygon points="9 5 1 1 1 9"/>
         <polygon points="17 5 9 1 9 9"/>
         <rect x="51" y="23" width="74" height="32" rx="10"/>
         <rect x="49" y="21" width="74" height="32" class="terminal" rx="10"/>
         <text class="terminal" x="59" y="41">SHARED</text>
         <rect x="51" y="67" width="98" height="32" rx="10"/>
         <rect x="49" y="65" width="98" height="32" class="terminal" rx="10"/>
         <text class="terminal" x="59" y="85">SHARERead</text>
         <rect x="51" y="111" width="100" height="32" rx="10"/>
         <rect x="49" y="109" width="100" height="32" class="terminal" rx="10"/>
         <text class="terminal" x="59" y="129">SHAREWrite</text>
         <rect x="211" y="23" width="80" height="32" rx="10"/>
         <rect x="209" y="21" width="80" height="32" class="terminal" rx="10"/>
         <text class="terminal" x="219" y="41">NOBuffer</text>
         <rect x="351" y="23" width="64" height="32" rx="10"/>
         <rect x="349" y="21" width="64" height="32" class="terminal" rx="10"/>
         <text class="terminal" x="359" y="41">BInary</text>
         <rect x="455" y="55" width="86" height="32" rx="10"/>
         <rect x="453" y="53" width="86" height="32" class="terminal" rx="10"/>
         <text class="terminal" x="463" y="73">REClength</text>
<!--     <a xmlns:xlink="http://www.w3.org/1999/xlink" xlink:href="#length" xlink:title="length"> -->
            <rect x="561" y="55" width="56" height="32"/>
            <rect x="559" y="53" width="56" height="32" class="nonterminal"/>
            <text class="nonterminal" x="569" y="73">length</text>
<!--     </a> -->
         <svg:path xmlns:svg="http://www.w3.org/2000/svg" class="line" d="m17 5 h2 m20 0 h10 m0 0 h110 m-140 0 h20 m120 0 h20 m-160 0 q10 0 10 10 m140 0 q0 -10 10 -10 m-150 10 v12 m140 0 v-12 m-140 12 q0 10 10 10 m120 0 q10 0 10 -10 m-130 10 h10 m74 0 h10 m0 0 h26 m-130 -10 v20 m140 0 v-20 m-140 20 v24 m140 0 v-24 m-140 24 q0 10 10 10 m120 0 q10 0 10 -10 m-130 10 h10 m98 0 h10 m0 0 h2 m-130 -10 v20 m140 0 v-20 m-140 20 v24 m140 0 v-24 m-140 24 q0 10 10 10 m120 0 q10 0 10 -10 m-130 10 h10 m100 0 h10 m40 -120 h10 m0 0 h90 m-120 0 h20 m100 0 h20 m-140 0 q10 0 10 10 m120 0 q0 -10 10 -10 m-130 10 v12 m120 0 v-12 m-120 12 q0 10 10 10 m100 0 q10 0 10 -10 m-110 10 h10 m80 0 h10 m40 -32 h10 m0 0 h296 m-326 0 h20 m306 0 h20 m-346 0 q10 0 10 10 m326 0 q0 -10 10 -10 m-336 10 v12 m326 0 v-12 m-326 12 q0 10 10 10 m306 0 q10 0 10 -10 m-316 10 h10 m64 0 h10 m20 0 h10 m0 0 h172 m-202 0 h20 m182 0 h20 m-222 0 q10 0 10 10 m202 0 q0 -10 10 -10 m-212 10 v12 m202 0 v-12 m-202 12 q0 10 10 10 m182 0 q10 0 10 -10 m-192 10 h10 m86 0 h10 m0 0 h10 m56 0 h10 m43 -64 h-3"/>
         <polygon points="675 5 683 1 683 9"/>
         <polygon points="675 5 667 1 667 9"/>
      </svg>
