      <svg xmlns="http://www.w3.org/2000/svg" width="682" height="140">
         <defs>
            <style type="text/css">
               @namespace "http://www.w3.org/2000/svg";
               .line                 {fill: none; stroke: #1F1F1F;}
               .bold-line            {stroke: #0A0A0A; shape-rendering: crispEdges; stroke-width:
               2; }
               .thin-line            {stroke: #0F0F0F; shape-rendering: crispEdges}
               .filled               {fill: #1F1F1F; stroke: none;}
               text.terminal         {font-family: Verdana, Sans-serif;
               font-size: 12px;
               fill: #0A0A0A;
               font-weight: bold;
               }
               text.nonterminal      {font-family: Verdana, Sans-serif; font-style: italic;
               font-size: 12px;
               fill: #0D0D0D;
               }
               text.regexp           {font-family: Verdana, Sans-serif;
               font-size: 12px;
               fill: #0F0F0F;
               }
               rect, circle, polygon {fill: #1F1F1F; stroke: #1F1F1F;}
               rect.terminal         {fill: #CCCCCC; stroke: #1F1F1F;}
               rect.nonterminal      {fill: #E3E3E3; stroke: #1F1F1F;}
               rect.text             {fill: none; stroke: none;}    
               polygon.regexp        {fill: #EFEFEF; stroke: #1F1F1F;}
               
            </style>
         </defs>
         <polygon points="9 17 1 13 1 21"/>
         <polygon points="17 17 9 13 9 21"/>
         <rect x="31" y="3" width="80" height="32" rx="10"/>
         <rect x="29" y="1" width="80" height="32" class="terminal" rx="10"/>
         <text class="terminal" x="39" y="21">STREAM(</text>
<!--     <a xmlns:xlink="http://www.w3.org/1999/xlink" xlink:href="#name" xlink:title="name"> -->
            <rect x="131" y="3" width="54" height="32"/>
            <rect x="129" y="1" width="54" height="32" class="nonterminal"/>
            <text class="nonterminal" x="139" y="21">name</text>
<!--     </a> -->
         <rect x="225" y="3" width="24" height="32" rx="10"/>
         <rect x="223" y="1" width="24" height="32" class="terminal" rx="10"/>
         <text class="terminal" x="233" y="21">,</text>
         <rect x="289" y="3" width="54" height="32" rx="10"/>
         <rect x="287" y="1" width="54" height="32" class="terminal" rx="10"/>
         <text class="terminal" x="297" y="21">State</text>
         <rect x="289" y="47" width="84" height="32" rx="10"/>
         <rect x="287" y="45" width="84" height="32" class="terminal" rx="10"/>
         <text class="terminal" x="297" y="65">Command</text>
         <rect x="393" y="47" width="24" height="32" rx="10"/>
         <rect x="391" y="45" width="24" height="32" class="terminal" rx="10"/>
         <text class="terminal" x="401" y="65">,</text>
<!--     <a xmlns:xlink="http://www.w3.org/1999/xlink" xlink:href="#stream_command" xlink:title="stream_command"> -->
            <rect x="437" y="47" width="132" height="32"/>
            <rect x="435" y="45" width="132" height="32" class="nonterminal"/>
            <text class="nonterminal" x="445" y="65">stream_command</text>
<!--     </a> -->
         <rect x="289" y="91" width="94" height="32" rx="10"/>
         <rect x="287" y="89" width="94" height="32" class="terminal" rx="10"/>
         <text class="terminal" x="297" y="109">Description</text>
         <rect x="629" y="3" width="26" height="32" rx="10"/>
         <rect x="627" y="1" width="26" height="32" class="terminal" rx="10"/>
         <text class="terminal" x="637" y="21">)</text>
         <svg:path xmlns:svg="http://www.w3.org/2000/svg" class="line" d="m17 17 h2 m0 0 h10 m80 0 h10 m0 0 h10 m54 0 h10 m20 0 h10 m24 0 h10 m20 0 h10 m54 0 h10 m0 0 h226 m-320 0 h20 m300 0 h20 m-340 0 q10 0 10 10 m320 0 q0 -10 10 -10 m-330 10 v24 m320 0 v-24 m-320 24 q0 10 10 10 m300 0 q10 0 10 -10 m-310 10 h10 m84 0 h10 m0 0 h10 m24 0 h10 m0 0 h10 m132 0 h10 m-310 -10 v20 m320 0 v-20 m-320 20 v24 m320 0 v-24 m-320 24 q0 10 10 10 m300 0 q10 0 10 -10 m-310 10 h10 m94 0 h10 m0 0 h186 m-384 -88 h20 m384 0 h20 m-424 0 q10 0 10 10 m404 0 q0 -10 10 -10 m-414 10 v102 m404 0 v-102 m-404 102 q0 10 10 10 m384 0 q10 0 10 -10 m-394 10 h10 m0 0 h374 m20 -122 h10 m26 0 h10 m3 0 h-3"/>
         <polygon points="673 17 681 13 681 21"/>
         <polygon points="673 17 665 13 665 21"/>
      </svg>
