      <svg xmlns="http://www.w3.org/2000/svg" width="670" height="140">
         <defs>
            <style type="text/css">
               @namespace "http://www.w3.org/2000/svg";
               .line                 {fill: none; stroke: #1F1F1F;}
               .bold-line            {stroke: #0A0A0A; shape-rendering: crispEdges; stroke-width:
               2; }
               .thin-line            {stroke: #0F0F0F; shape-rendering: crispEdges}
               .filled               {fill: #1F1F1F; stroke: none;}
               text.terminal         {font-family: Verdana, Sans-serif;
               font-size: 12px;
               fill: #0A0A0A;
               font-weight: bold;
               }
               text.nonterminal      {font-family: Verdana, Sans-serif;
               font-size: 12px;
               fill: #0D0D0D;
               }
               text.regexp           {font-family: Verdana, Sans-serif;
               font-size: 12px;
               fill: #0F0F0F;
               }
               rect, circle, polygon {fill: #1F1F1F; stroke: #1F1F1F;}
               rect.terminal         {fill: #CCCCCC; stroke: #1F1F1F;}
               rect.nonterminal      {fill: #E3E3E3; stroke: #1F1F1F;}
               rect.text             {fill: none; stroke: none;}    
               polygon.regexp        {fill: #EFEFEF; stroke: #1F1F1F;}
               
            </style>
         </defs>
         <polygon points="9 17 1 13 1 21"/>
         <polygon points="17 17 9 13 9 21"/>
         <rect x="31" y="3" width="72" height="32" rx="10"/>
         <rect x="29" y="1" width="72" height="32" class="terminal" rx="10"/>
         <text class="terminal" x="39" y="21">stream(</text>
         <a xmlns:xlink="http://www.w3.org/1999/xlink" xlink:href="#name" xlink:title="name">
            <rect x="123" y="3" width="54" height="32"/>
            <rect x="121" y="1" width="54" height="32" class="nonterminal"/>
            <text class="nonterminal" x="131" y="21">name</text>
         </a>
         <rect x="217" y="3" width="24" height="32" rx="10"/>
         <rect x="215" y="1" width="24" height="32" class="terminal" rx="10"/>
         <text class="terminal" x="225" y="21">,</text>
         <rect x="281" y="3" width="54" height="32" rx="10"/>
         <rect x="279" y="1" width="54" height="32" class="terminal" rx="10"/>
         <text class="terminal" x="289" y="21">State</text>
         <a xmlns:xlink="http://www.w3.org/1999/xlink" xlink:href="#command" xlink:title="command">
            <rect x="281" y="47" width="80" height="32"/>
            <rect x="279" y="45" width="80" height="32" class="nonterminal"/>
            <text class="nonterminal" x="289" y="65">command</text>
         </a>
         <rect x="381" y="47" width="24" height="32" rx="10"/>
         <rect x="379" y="45" width="24" height="32" class="terminal" rx="10"/>
         <text class="terminal" x="389" y="65">,</text>
         <a xmlns:xlink="http://www.w3.org/1999/xlink" xlink:href="#stream_command" xlink:title="stream_command">
            <rect x="425" y="47" width="132" height="32"/>
            <rect x="423" y="45" width="132" height="32" class="nonterminal"/>
            <text class="nonterminal" x="433" y="65">stream_command</text>
         </a>
         <rect x="281" y="91" width="94" height="32" rx="10"/>
         <rect x="279" y="89" width="94" height="32" class="terminal" rx="10"/>
         <text class="terminal" x="289" y="109">Description</text>
         <rect x="617" y="3" width="26" height="32" rx="10"/>
         <rect x="615" y="1" width="26" height="32" class="terminal" rx="10"/>
         <text class="terminal" x="625" y="21">)</text>
         <svg:path xmlns:svg="http://www.w3.org/2000/svg" class="line" d="m17 17 h2 m0 0 h10 m72 0 h10 m0 0 h10 m54 0 h10 m20 0 h10 m24 0 h10 m20 0 h10 m54 0 h10 m0 0 h222 m-316 0 h20 m296 0 h20 m-336 0 q10 0 10 10 m316 0 q0 -10 10 -10 m-326 10 v24 m316 0 v-24 m-316 24 q0 10 10 10 m296 0 q10 0 10 -10 m-306 10 h10 m80 0 h10 m0 0 h10 m24 0 h10 m0 0 h10 m132 0 h10 m-306 -10 v20 m316 0 v-20 m-316 20 v24 m316 0 v-24 m-316 24 q0 10 10 10 m296 0 q10 0 10 -10 m-306 10 h10 m94 0 h10 m0 0 h182 m-380 -88 h20 m380 0 h20 m-420 0 q10 0 10 10 m400 0 q0 -10 10 -10 m-410 10 v102 m400 0 v-102 m-400 102 q0 10 10 10 m380 0 q10 0 10 -10 m-390 10 h10 m0 0 h370 m20 -122 h10 m26 0 h10 m3 0 h-3"/>
         <polygon points="661 17 669 13 669 21"/>
         <polygon points="661 17 653 13 653 21"/>
      </svg>
