      <svg xmlns="http://www.w3.org/2000/svg" width="656" height="880">
         <defs>
            <style type="text/css">
               @namespace "http://www.w3.org/2000/svg";
               .line                 {fill: none; stroke: #1F1F1F;}
               .bold-line            {stroke: #0A0A0A; shape-rendering: crispEdges; stroke-width:
               2; }
               .thin-line            {stroke: #0F0F0F; shape-rendering: crispEdges}
               .filled               {fill: #1F1F1F; stroke: none;}
               text.terminal         {font-family: Verdana, Sans-serif;
               font-size: 12px;
               fill: #0A0A0A;
               font-weight: bold;
               }
               text.nonterminal      {font-family: Verdana, Sans-serif; font-style: italic;
               font-size: 12px;
               fill: #0D0D0D;
               }
               text.regexp           {font-family: Verdana, Sans-serif;
               font-size: 12px;
               fill: #0F0F0F;
               }
               rect, circle, polygon {fill: #1F1F1F; stroke: #1F1F1F;}
               rect.terminal         {fill: #CCCCCC; stroke: #1F1F1F;}
               rect.nonterminal      {fill: #E3E3E3; stroke: #1F1F1F;}
               rect.text             {fill: none; stroke: none;}    
               polygon.regexp        {fill: #EFEFEF; stroke: #1F1F1F;}
               
            </style>
         </defs>
         <polygon points="9 17 1 13 1 21"/>
         <polygon points="17 17 9 13 9 21"/>
         <rect x="51" y="3" width="54" height="32" rx="10"/>
         <rect x="49" y="1" width="54" height="32" class="terminal" rx="10"/>
         <text class="terminal" x="59" y="21">Open</text>
         <rect x="165" y="35" width="52" height="32" rx="10"/>
         <rect x="163" y="33" width="52" height="32" class="terminal" rx="10"/>
         <text class="terminal" x="173" y="53">BOth</text>
         <rect x="165" y="79" width="54" height="32" rx="10"/>
         <rect x="163" y="77" width="54" height="32" class="terminal" rx="10"/>
         <text class="terminal" x="173" y="97">Write</text>
         <rect x="279" y="35" width="70" height="32" rx="10"/>
         <rect x="277" y="33" width="70" height="32" class="terminal" rx="10"/>
         <text class="terminal" x="287" y="53">APpend</text>
         <rect x="279" y="79" width="72" height="32" rx="10"/>
         <rect x="277" y="77" width="72" height="32" class="terminal" rx="10"/>
         <text class="terminal" x="287" y="97">REPlace</text>
         <rect x="145" y="123" width="54" height="32" rx="10"/>
         <rect x="143" y="121" width="54" height="32" class="terminal" rx="10"/>
         <text class="terminal" x="153" y="141">REAd</text>
         <polygon points="411 19 418 3 556 3 563 19 556 35 418 35"/>
         <polygon points="409 17 416 1 554 1 561 17 554 33 416 33" class="regexp"/>
<!--     <a xmlns:xlink="http://www.w3.org/1999/xlink" xlink:href="#OPTIONS" xlink:title="OPTIONS"> -->
            <rect class="text" x="424" y="10" width="53" height="14"/>
            <text class="regexp" x="424" y="21">OPTIONS</text>
<!--     </a> -->
         <text class="regexp" x="482" y="21">- </text>
<!--     <a xmlns:xlink="http://www.w3.org/1999/xlink" xlink:href="#fragment" xlink:title="fragment"> -->
            <rect class="text" x="491" y="10" width="53" height="14"/>
            <text class="regexp" x="491" y="21">fragment</text>
<!--     </a> -->
         <rect x="51" y="167" width="54" height="32" rx="10"/>
         <rect x="49" y="165" width="54" height="32" class="terminal" rx="10"/>
         <text class="terminal" x="59" y="185">Close</text>
         <rect x="51" y="211" width="54" height="32" rx="10"/>
         <rect x="49" y="209" width="54" height="32" class="terminal" rx="10"/>
         <text class="terminal" x="59" y="229">Flush</text>
         <rect x="71" y="255" width="52" height="32" rx="10"/>
         <rect x="69" y="253" width="52" height="32" class="terminal" rx="10"/>
         <text class="terminal" x="79" y="273">Seek</text>
         <rect x="71" y="299" width="72" height="32" rx="10"/>
         <rect x="69" y="297" width="72" height="32" class="terminal" rx="10"/>
         <text class="terminal" x="79" y="317">Position</text>
         <rect x="203" y="287" width="30" height="32" rx="10"/>
         <rect x="201" y="285" width="30" height="32" class="terminal" rx="10"/>
         <text class="terminal" x="211" y="305">=</text>
         <rect x="203" y="331" width="30" height="32" rx="10"/>
         <rect x="201" y="329" width="30" height="32" class="terminal" rx="10"/>
         <text class="terminal" x="211" y="349">&lt;</text>
         <rect x="203" y="375" width="30" height="32" rx="10"/>
         <rect x="201" y="373" width="30" height="32" class="terminal" rx="10"/>
         <text class="terminal" x="211" y="393">+</text>
         <rect x="203" y="419" width="26" height="32" rx="10"/>
         <rect x="201" y="417" width="26" height="32" class="terminal" rx="10"/>
         <text class="terminal" x="211" y="437">-</text>
<!--     <a xmlns:xlink="http://www.w3.org/1999/xlink" xlink:href="#offset" xlink:title="offset"> -->
            <rect x="273" y="255" width="54" height="32"/>
            <rect x="271" y="253" width="54" height="32" class="nonterminal"/>
            <text class="nonterminal" x="281" y="273">offset</text>
<!--     </a> -->
         <rect x="367" y="287" width="54" height="32" rx="10"/>
         <rect x="365" y="285" width="54" height="32" class="terminal" rx="10"/>
         <text class="terminal" x="375" y="305">Read</text>
         <rect x="367" y="331" width="54" height="32" rx="10"/>
         <rect x="365" y="329" width="54" height="32" class="terminal" rx="10"/>
         <text class="terminal" x="375" y="349">Write</text>
         <rect x="481" y="287" width="50" height="32" rx="10"/>
         <rect x="479" y="285" width="50" height="32" class="terminal" rx="10"/>
         <text class="terminal" x="489" y="305">Char</text>
         <rect x="481" y="331" width="46" height="32" rx="10"/>
         <rect x="479" y="329" width="46" height="32" class="terminal" rx="10"/>
         <text class="terminal" x="489" y="349">Line</text>
         <rect x="51" y="463" width="60" height="32" rx="10"/>
         <rect x="49" y="461" width="60" height="32" class="terminal" rx="10"/>
         <text class="terminal" x="59" y="481">Query</text>
         <rect x="151" y="463" width="80" height="32" rx="10"/>
         <rect x="149" y="461" width="80" height="32" class="terminal" rx="10"/>
         <text class="terminal" x="159" y="481">Datetime</text>
         <rect x="151" y="507" width="58" height="32" rx="10"/>
         <rect x="149" y="505" width="58" height="32" class="terminal" rx="10"/>
         <text class="terminal" x="159" y="525">Exists</text>
         <rect x="151" y="551" width="64" height="32" rx="10"/>
         <rect x="149" y="549" width="64" height="32" class="terminal" rx="10"/>
         <text class="terminal" x="159" y="569">Handle</text>
         <rect x="171" y="595" width="52" height="32" rx="10"/>
         <rect x="169" y="593" width="52" height="32" class="terminal" rx="10"/>
         <text class="terminal" x="179" y="613">Seek</text>
         <rect x="171" y="639" width="72" height="32" rx="10"/>
         <rect x="169" y="637" width="72" height="32" class="terminal" rx="10"/>
         <text class="terminal" x="179" y="657">Position</text>
         <rect x="323" y="627" width="54" height="32" rx="10"/>
         <rect x="321" y="625" width="54" height="32" class="terminal" rx="10"/>
         <text class="terminal" x="331" y="645">Read</text>
         <rect x="323" y="671" width="54" height="32" rx="10"/>
         <rect x="321" y="669" width="54" height="32" class="terminal" rx="10"/>
         <text class="terminal" x="331" y="689">Write</text>
         <rect x="437" y="627" width="50" height="32" rx="10"/>
         <rect x="435" y="625" width="50" height="32" class="terminal" rx="10"/>
         <text class="terminal" x="445" y="645">Char</text>
         <rect x="437" y="671" width="46" height="32" rx="10"/>
         <rect x="435" y="669" width="46" height="32" class="terminal" rx="10"/>
         <text class="terminal" x="445" y="689">Line</text>
         <rect x="303" y="715" width="44" height="32" rx="10"/>
         <rect x="301" y="713" width="44" height="32" class="terminal" rx="10"/>
         <text class="terminal" x="311" y="733">Sys</text>
         <rect x="151" y="759" width="50" height="32" rx="10"/>
         <rect x="149" y="757" width="50" height="32" class="terminal" rx="10"/>
         <text class="terminal" x="159" y="777">SIze</text>
         <rect x="151" y="803" width="100" height="32" rx="10"/>
         <rect x="149" y="801" width="100" height="32" class="terminal" rx="10"/>
         <text class="terminal" x="159" y="821">STreamtype</text>
         <rect x="151" y="847" width="94" height="32" rx="10"/>
         <rect x="149" y="845" width="94" height="32" class="terminal" rx="10"/>
         <text class="terminal" x="159" y="865">Timestamp</text>
         <rect x="603" y="3" width="26" height="32" rx="10"/>
         <rect x="601" y="1" width="26" height="32" class="terminal" rx="10"/>
         <text class="terminal" x="611" y="21">)</text>
         <svg:path xmlns:svg="http://www.w3.org/2000/svg" class="line" d="m17 17 h2 m20 0 h10 m54 0 h10 m40 0 h10 m0 0 h64 m-94 0 h20 m74 0 h20 m-114 0 q10 0 10 10 m94 0 q0 -10 10 -10 m-104 10 v12 m94 0 v-12 m-94 12 q0 10 10 10 m74 0 q10 0 10 -10 m-84 10 h10 m52 0 h10 m0 0 h2 m-84 -10 v20 m94 0 v-20 m-94 20 v24 m94 0 v-24 m-94 24 q0 10 10 10 m74 0 q10 0 10 -10 m-84 10 h10 m54 0 h10 m40 -76 h10 m0 0 h82 m-112 0 h20 m92 0 h20 m-132 0 q10 0 10 10 m112 0 q0 -10 10 -10 m-122 10 v12 m112 0 v-12 m-112 12 q0 10 10 10 m92 0 q10 0 10 -10 m-102 10 h10 m70 0 h10 m0 0 h2 m-102 -10 v20 m112 0 v-20 m-112 20 v24 m112 0 v-24 m-112 24 q0 10 10 10 m92 0 q10 0 10 -10 m-102 10 h10 m72 0 h10 m-246 -76 h20 m246 0 h20 m-286 0 q10 0 10 10 m266 0 q0 -10 10 -10 m-276 10 v100 m266 0 v-100 m-266 100 q0 10 10 10 m246 0 q10 0 10 -10 m-256 10 h10 m54 0 h10 m0 0 h172 m20 -120 h10 m152 0 h10 m-552 0 h20 m532 0 h20 m-572 0 q10 0 10 10 m552 0 q0 -10 10 -10 m-562 10 v144 m552 0 v-144 m-552 144 q0 10 10 10 m532 0 q10 0 10 -10 m-542 10 h10 m54 0 h10 m0 0 h458 m-542 -10 v20 m552 0 v-20 m-552 20 v24 m552 0 v-24 m-552 24 q0 10 10 10 m532 0 q10 0 10 -10 m-542 10 h10 m54 0 h10 m0 0 h458 m-542 -10 v20 m552 0 v-20 m-552 20 v24 m552 0 v-24 m-552 24 q0 10 10 10 m532 0 q10 0 10 -10 m-522 10 h10 m52 0 h10 m0 0 h20 m-112 0 h20 m92 0 h20 m-132 0 q10 0 10 10 m112 0 q0 -10 10 -10 m-122 10 v24 m112 0 v-24 m-112 24 q0 10 10 10 m92 0 q10 0 10 -10 m-102 10 h10 m72 0 h10 m40 -44 h10 m0 0 h40 m-70 0 h20 m50 0 h20 m-90 0 q10 0 10 10 m70 0 q0 -10 10 -10 m-80 10 v12 m70 0 v-12 m-70 12 q0 10 10 10 m50 0 q10 0 10 -10 m-60 10 h10 m30 0 h10 m-60 -10 v20 m70 0 v-20 m-70 20 v24 m70 0 v-24 m-70 24 q0 10 10 10 m50 0 q10 0 10 -10 m-60 10 h10 m30 0 h10 m-60 -10 v20 m70 0 v-20 m-70 20 v24 m70 0 v-24 m-70 24 q0 10 10 10 m50 0 q10 0 10 -10 m-60 10 h10 m30 0 h10 m-60 -10 v20 m70 0 v-20 m-70 20 v24 m70 0 v-24 m-70 24 q0 10 10 10 m50 0 q10 0 10 -10 m-60 10 h10 m26 0 h10 m0 0 h4 m20 -164 h10 m54 0 h10 m20 0 h10 m0 0 h64 m-94 0 h20 m74 0 h20 m-114 0 q10 0 10 10 m94 0 q0 -10 10 -10 m-104 10 v12 m94 0 v-12 m-94 12 q0 10 10 10 m74 0 q10 0 10 -10 m-84 10 h10 m54 0 h10 m-84 -10 v20 m94 0 v-20 m-94 20 v24 m94 0 v-24 m-94 24 q0 10 10 10 m74 0 q10 0 10 -10 m-84 10 h10 m54 0 h10 m40 -76 h10 m0 0 h60 m-90 0 h20 m70 0 h20 m-110 0 q10 0 10 10 m90 0 q0 -10 10 -10 m-100 10 v12 m90 0 v-12 m-90 12 q0 10 10 10 m70 0 q10 0 10 -10 m-80 10 h10 m50 0 h10 m-80 -10 v20 m90 0 v-20 m-90 20 v24 m90 0 v-24 m-90 24 q0 10 10 10 m70 0 q10 0 10 -10 m-80 10 h10 m46 0 h10 m0 0 h4 m20 -76 h12 m-542 -10 v20 m552 0 v-20 m-552 20 v188 m552 0 v-188 m-552 188 q0 10 10 10 m532 0 q10 0 10 -10 m-542 10 h10 m60 0 h10 m20 0 h10 m80 0 h10 m0 0 h296 m-416 0 h20 m396 0 h20 m-436 0 q10 0 10 10 m416 0 q0 -10 10 -10 m-426 10 v24 m416 0 v-24 m-416 24 q0 10 10 10 m396 0 q10 0 10 -10 m-406 10 h10 m58 0 h10 m0 0 h318 m-406 -10 v20 m416 0 v-20 m-416 20 v24 m416 0 v-24 m-416 24 q0 10 10 10 m396 0 q10 0 10 -10 m-406 10 h10 m64 0 h10 m0 0 h312 m-406 -10 v20 m416 0 v-20 m-416 20 v24 m416 0 v-24 m-416 24 q0 10 10 10 m396 0 q10 0 10 -10 m-386 10 h10 m52 0 h10 m0 0 h20 m-112 0 h20 m92 0 h20 m-132 0 q10 0 10 10 m112 0 q0 -10 10 -10 m-122 10 v24 m112 0 v-24 m-112 24 q0 10 10 10 m92 0 q10 0 10 -10 m-102 10 h10 m72 0 h10 m60 -44 h10 m0 0 h64 m-94 0 h20 m74 0 h20 m-114 0 q10 0 10 10 m94 0 q0 -10 10 -10 m-104 10 v12 m94 0 v-12 m-94 12 q0 10 10 10 m74 0 q10 0 10 -10 m-84 10 h10 m54 0 h10 m-84 -10 v20 m94 0 v-20 m-94 20 v24 m94 0 v-24 m-94 24 q0 10 10 10 m74 0 q10 0 10 -10 m-84 10 h10 m54 0 h10 m40 -76 h10 m0 0 h60 m-90 0 h20 m70 0 h20 m-110 0 q10 0 10 10 m90 0 q0 -10 10 -10 m-100 10 v12 m90 0 v-12 m-90 12 q0 10 10 10 m70 0 q10 0 10 -10 m-80 10 h10 m50 0 h10 m-80 -10 v20 m90 0 v-20 m-90 20 v24 m90 0 v-24 m-90 24 q0 10 10 10 m70 0 q10 0 10 -10 m-80 10 h10 m46 0 h10 m0 0 h4 m-224 -76 h20 m224 0 h20 m-264 0 q10 0 10 10 m244 0 q0 -10 10 -10 m-254 10 v100 m244 0 v-100 m-244 100 q0 10 10 10 m224 0 q10 0 10 -10 m-234 10 h10 m44 0 h10 m0 0 h160 m-386 -130 v20 m416 0 v-20 m-416 20 v144 m416 0 v-144 m-416 144 q0 10 10 10 m396 0 q10 0 10 -10 m-406 10 h10 m50 0 h10 m0 0 h326 m-406 -10 v20 m416 0 v-20 m-416 20 v24 m416 0 v-24 m-416 24 q0 10 10 10 m396 0 q10 0 10 -10 m-406 10 h10 m100 0 h10 m0 0 h276 m-406 -10 v20 m416 0 v-20 m-416 20 v24 m416 0 v-24 m-416 24 q0 10 10 10 m396 0 q10 0 10 -10 m-406 10 h10 m94 0 h10 m0 0 h282 m20 -384 h16 m20 -460 h10 m26 0 h10 m3 0 h-3"/>
         <polygon points="647 17 655 13 655 21"/>
         <polygon points="647 17 639 13 639 21"/>
      </svg>
