      <svg xmlns="http://www.w3.org/2000/svg" width="562" height="112">
         <defs>
            <style type="text/css">
               @namespace "http://www.w3.org/2000/svg";
               .line                 {fill: none; stroke: #1F1F1F;}
               .bold-line            {stroke: #0A0A0A; shape-rendering: crispEdges; stroke-width:
               2; }
               .thin-line            {stroke: #0F0F0F; shape-rendering: crispEdges}
               .filled               {fill: #1F1F1F; stroke: none;}
               text.terminal         {font-family: Verdana, Sans-serif;
               font-size: 12px;
               fill: #0A0A0A;
               font-weight: bold;
               }
               text.nonterminal      {font-family: Verdana, Sans-serif; font-style: italic;
               font-size: 12px;
               fill: #0D0D0D;
               }
               text.regexp           {font-family: Verdana, Sans-serif;
               font-size: 12px;
               fill: #0F0F0F;
               }
               rect, circle, polygon {fill: #1F1F1F; stroke: #1F1F1F;}
               rect.terminal         {fill: #CCCCCC; stroke: #1F1F1F;}
               rect.nonterminal      {fill: #E3E3E3; stroke: #1F1F1F;}
               rect.text             {fill: none; stroke: none;}    
               polygon.regexp        {fill: #EFEFEF; stroke: #1F1F1F;}
               
            </style>
         </defs>
         <polygon points="9 17 1 13 1 21"/>
         <polygon points="17 17 9 13 9 21"/>
         <rect x="31" y="3" width="68" height="32" rx="10"/>
         <rect x="29" y="1" width="68" height="32" class="terminal" rx="10"/>
         <text class="terminal" x="39" y="21">STRIP(</text>
<!--     <a xmlns:xlink="http://www.w3.org/1999/xlink" xlink:href="#string" xlink:title="string"> -->
            <rect x="119" y="3" width="52" height="32"/>
            <rect x="117" y="1" width="52" height="32" class="nonterminal"/>
            <text class="nonterminal" x="127" y="21">string</text>
<!--     </a> -->
         <rect x="191" y="3" width="24" height="32" rx="10"/>
         <rect x="189" y="1" width="24" height="32" class="terminal" rx="10"/>
         <text class="terminal" x="199" y="21">,</text>
         <rect x="255" y="35" width="42" height="32" rx="10"/>
         <rect x="253" y="33" width="42" height="32" class="terminal" rx="10"/>
         <text class="terminal" x="263" y="53">"B"</text>
<!--     <a xmlns:xlink="http://www.w3.org/1999/xlink" xlink:href="#option" xlink:title="option"> -->
            <rect x="255" y="79" width="58" height="32"/>
            <rect x="253" y="77" width="58" height="32" class="nonterminal"/>
            <text class="nonterminal" x="263" y="97">option</text>
<!--     </a> -->
         <rect x="373" y="35" width="24" height="32" rx="10"/>
         <rect x="371" y="33" width="24" height="32" class="terminal" rx="10"/>
         <text class="terminal" x="381" y="53">,</text>
<!--     <a xmlns:xlink="http://www.w3.org/1999/xlink" xlink:href="#chars" xlink:title="chars"> -->
            <rect x="417" y="35" width="52" height="32"/>
            <rect x="415" y="33" width="52" height="32" class="nonterminal"/>
            <text class="nonterminal" x="425" y="53">chars</text>
<!--     </a> -->
         <rect x="509" y="3" width="26" height="32" rx="10"/>
         <rect x="507" y="1" width="26" height="32" class="terminal" rx="10"/>
         <text class="terminal" x="517" y="21">)</text>
         <svg:path xmlns:svg="http://www.w3.org/2000/svg" class="line" d="m17 17 h2 m0 0 h10 m68 0 h10 m0 0 h10 m52 0 h10 m0 0 h10 m24 0 h10 m20 0 h10 m0 0 h68 m-98 0 h20 m78 0 h20 m-118 0 q10 0 10 10 m98 0 q0 -10 10 -10 m-108 10 v12 m98 0 v-12 m-98 12 q0 10 10 10 m78 0 q10 0 10 -10 m-88 10 h10 m42 0 h10 m0 0 h16 m-88 -10 v20 m98 0 v-20 m-98 20 v24 m98 0 v-24 m-98 24 q0 10 10 10 m78 0 q10 0 10 -10 m-88 10 h10 m58 0 h10 m40 -76 h10 m0 0 h106 m-136 0 h20 m116 0 h20 m-156 0 q10 0 10 10 m136 0 q0 -10 10 -10 m-146 10 v12 m136 0 v-12 m-136 12 q0 10 10 10 m116 0 q10 0 10 -10 m-126 10 h10 m24 0 h10 m0 0 h10 m52 0 h10 m20 -32 h10 m26 0 h10 m3 0 h-3"/>
         <polygon points="553 17 561 13 561 21"/>
         <polygon points="553 17 545 13 545 21"/>
      </svg>
