<svg xmlns="http://www.w3.org/2000/svg" width="571" height="113">
         <defs>
            <style type="text/css">
               @namespace "http://www.w3.org/2000/svg";
               .line                 {fill: none; stroke: #1F1F1F;}
               .bold-line            {stroke: #0A0A0A; shape-rendering: crispEdges; stroke-width:
               2; }
               .thin-line            {stroke: #0F0F0F; shape-rendering: crispEdges}
               .filled               {fill: #1F1F1F; stroke: none;}
               text.terminal         {font-family: Verdana, Sans-serif;
               font-size: 12px;
               fill: #0A0A0A;
               font-weight: bold;
               }
               text.nonterminal      {font-family: Verdana, Sans-serif; font-style: italic;
               font-size: 12px;
               fill: #0D0D0D;
               }
               text.regexp           {font-family: Verdana, Sans-serif;
               font-size: 12px;
               fill: #0F0F0F;
               }
               rect, circle, polygon {fill: #1F1F1F; stroke: #1F1F1F;}
               rect.terminal         {fill: #CCCCCC; stroke: #1F1F1F;}
               rect.nonterminal      {fill: #E3E3E3; stroke: #1F1F1F;}
               rect.text             {fill: none; stroke: none;}
               polygon.regexp        {fill: #EFEFEF; stroke: #1F1F1F;}

            </style>
         </defs>

         <polygon points="9 17 1 13 1 21"/>
         <polygon points="17 17 9 13 9 21"/>
         <rect x="31" y="3" width="68" height="32" rx="10"/>
         <rect x="29" y="1" width="68" height="32" class="terminal" rx="10"/>
         <text class="terminal" x="39" y="21">STRIP(</text><a xmlns:xlink="http://www.w3.org/1999/xlink" xlink:href="#string" xlink:title="string">
            <rect x="119" y="3" width="56" height="32"/>
            <rect x="117" y="1" width="56" height="32" class="nonterminal"/>
            <text class="nonterminal" x="127" y="21">string</text></a><rect x="195" y="3" width="24" height="32" rx="10"/>
         <rect x="193" y="1" width="24" height="32" class="terminal" rx="10"/>
         <text class="terminal" x="203" y="21">,</text>
         <rect x="259" y="35" width="42" height="32" rx="10"/>
         <rect x="257" y="33" width="42" height="32" class="terminal" rx="10"/>
         <text class="terminal" x="267" y="53">"B"</text><a xmlns:xlink="http://www.w3.org/1999/xlink" xlink:href="#option" xlink:title="option">
            <rect x="259" y="79" width="60" height="32"/>
            <rect x="257" y="77" width="60" height="32" class="nonterminal"/>
            <text class="nonterminal" x="267" y="97">option</text></a><rect x="379" y="35" width="24" height="32" rx="10"/>
         <rect x="377" y="33" width="24" height="32" class="terminal" rx="10"/>
         <text class="terminal" x="387" y="53">,</text><a xmlns:xlink="http://www.w3.org/1999/xlink" xlink:href="#chars" xlink:title="chars">
            <rect x="423" y="35" width="54" height="32"/>
            <rect x="421" y="33" width="54" height="32" class="nonterminal"/>
            <text class="nonterminal" x="431" y="53">chars</text></a><rect x="517" y="3" width="26" height="32" rx="10"/>
         <rect x="515" y="1" width="26" height="32" class="terminal" rx="10"/>
         <text class="terminal" x="525" y="21">)</text>
         <path class="line" d="m17 17 h2 m0 0 h10 m68 0 h10 m0 0 h10 m56 0 h10 m0 0 h10 m24 0 h10 m20 0 h10 m0 0 h70 m-100 0 h20 m80 0 h20 m-120 0 q10 0 10 10 m100 0 q0 -10 10 -10 m-110 10 v12 m100 0 v-12 m-100 12 q0 10 10 10 m80 0 q10 0 10 -10 m-90 10 h10 m42 0 h10 m0 0 h18 m-90 -10 v20 m100 0 v-20 m-100 20 v24 m100 0 v-24 m-100 24 q0 10 10 10 m80 0 q10 0 10 -10 m-90 10 h10 m60 0 h10 m40 -76 h10 m0 0 h108 m-138 0 h20 m118 0 h20 m-158 0 q10 0 10 10 m138 0 q0 -10 10 -10 m-148 10 v12 m138 0 v-12 m-138 12 q0 10 10 10 m118 0 q10 0 10 -10 m-128 10 h10 m24 0 h10 m0 0 h10 m54 0 h10 m20 -32 h10 m26 0 h10 m3 0 h-3"/>
         <polygon points="561 17 569 13 569 21"/>
         <polygon points="561 17 553 13 553 21"/>
</svg>