      <svg xmlns="http://www.w3.org/2000/svg" width="732" height="84">
         <defs>
            <style type="text/css">
               @namespace "http://www.w3.org/2000/svg";
               .line                 {fill: none; stroke: #1F1F1F;}
               .bold-line            {stroke: #0A0A0A; shape-rendering: crispEdges; stroke-width:
               2; }
               .thin-line            {stroke: #0F0F0F; shape-rendering: crispEdges}
               .filled               {fill: #1F1F1F; stroke: none;}
               text.terminal         {font-family: Verdana, Sans-serif;
               font-size: 12px;
               fill: #0A0A0A;
               font-weight: bold;
               }
               text.nonterminal      {font-family: Verdana, Sans-serif;
               font-size: 12px;
               fill: #0D0D0D;
               }
               text.regexp           {font-family: Verdana, Sans-serif;
               font-size: 12px;
               fill: #0F0F0F;
               }
               rect, circle, polygon {fill: #1F1F1F; stroke: #1F1F1F;}
               rect.terminal         {fill: #CCCCCC; stroke: #1F1F1F;}
               rect.nonterminal      {fill: #E3E3E3; stroke: #1F1F1F;}
               rect.text             {fill: none; stroke: none;}    
               polygon.regexp        {fill: #EFEFEF; stroke: #1F1F1F;}
               
            </style>
         </defs>
         <polygon points="9 17 1 13 1 21"/>
         <polygon points="17 17 9 13 9 21"/>
         <rect x="31" y="3" width="68" height="32" rx="10"/>
         <rect x="29" y="1" width="68" height="32" class="terminal" rx="10"/>
         <text class="terminal" x="39" y="21">substr(</text>
         <a xmlns:xlink="http://www.w3.org/1999/xlink" xlink:href="#string" xlink:title="string">
            <rect x="119" y="3" width="56" height="32"/>
            <rect x="117" y="1" width="56" height="32" class="nonterminal"/>
            <text class="nonterminal" x="127" y="21">string</text>
         </a>
         <rect x="195" y="3" width="24" height="32" rx="10"/>
         <rect x="193" y="1" width="24" height="32" class="terminal" rx="10"/>
         <text class="terminal" x="203" y="21">,</text>
         <a xmlns:xlink="http://www.w3.org/1999/xlink" xlink:href="#n" xlink:title="n">
            <rect x="239" y="3" width="28" height="32"/>
            <rect x="237" y="1" width="28" height="32" class="nonterminal"/>
            <text class="nonterminal" x="247" y="21">n</text>
         </a>
         <rect x="307" y="3" width="24" height="32" rx="10"/>
         <rect x="305" y="1" width="24" height="32" class="terminal" rx="10"/>
         <text class="terminal" x="315" y="21">,</text>
         <a xmlns:xlink="http://www.w3.org/1999/xlink" xlink:href="#length" xlink:title="length">
            <rect x="391" y="3" width="60" height="32"/>
            <rect x="389" y="1" width="60" height="32" class="nonterminal"/>
            <text class="nonterminal" x="399" y="21">length</text>
         </a>
         <rect x="511" y="3" width="24" height="32" rx="10"/>
         <rect x="509" y="1" width="24" height="32" class="terminal" rx="10"/>
         <text class="terminal" x="519" y="21">,</text>
         <a xmlns:xlink="http://www.w3.org/1999/xlink" xlink:href="#pad" xlink:title="pad">
            <rect x="555" y="3" width="44" height="32"/>
            <rect x="553" y="1" width="44" height="32" class="nonterminal"/>
            <text class="nonterminal" x="563" y="21">pad</text>
         </a>
         <rect x="679" y="3" width="26" height="32" rx="10"/>
         <rect x="677" y="1" width="26" height="32" class="terminal" rx="10"/>
         <text class="terminal" x="687" y="21">)</text>
         <svg:path xmlns:svg="http://www.w3.org/2000/svg" class="line" d="m17 17 h2 m0 0 h10 m68 0 h10 m0 0 h10 m56 0 h10 m0 0 h10 m24 0 h10 m0 0 h10 m28 0 h10 m20 0 h10 m24 0 h10 m40 0 h10 m60 0 h10 m-100 0 h20 m80 0 h20 m-120 0 q10 0 10 10 m100 0 q0 -10 10 -10 m-110 10 v14 m100 0 v-14 m-100 14 q0 10 10 10 m80 0 q10 0 10 -10 m-90 10 h10 m0 0 h70 m40 -34 h10 m24 0 h10 m0 0 h10 m44 0 h10 m-128 0 h20 m108 0 h20 m-148 0 q10 0 10 10 m128 0 q0 -10 10 -10 m-138 10 v14 m128 0 v-14 m-128 14 q0 10 10 10 m108 0 q10 0 10 -10 m-118 10 h10 m0 0 h98 m-268 -34 h20 m268 0 h20 m-308 0 q10 0 10 10 m288 0 q0 -10 10 -10 m-298 10 v30 m288 0 v-30 m-288 30 q0 10 10 10 m268 0 q10 0 10 -10 m-278 10 h10 m0 0 h258 m-352 -50 h20 m352 0 h20 m-392 0 q10 0 10 10 m372 0 q0 -10 10 -10 m-382 10 v46 m372 0 v-46 m-372 46 q0 10 10 10 m352 0 q10 0 10 -10 m-362 10 h10 m0 0 h342 m20 -66 h10 m26 0 h10 m3 0 h-3"/>
         <polygon points="723 17 731 13 731 21"/>
         <polygon points="723 17 715 13 715 21"/>
      </svg>
