      <svg xmlns="http://www.w3.org/2000/svg" width="608" height="144">
         <defs>
            <style type="text/css">
               @namespace "http://www.w3.org/2000/svg";
               .line                 {fill: none; stroke: #1F1F1F;}
               .bold-line            {stroke: #0A0A0A; shape-rendering: crispEdges; stroke-width:
               2; }
               .thin-line            {stroke: #0F0F0F; shape-rendering: crispEdges}
               .filled               {fill: #1F1F1F; stroke: none;}
               text.terminal         {font-family: Verdana, Sans-serif;
               font-size: 12px;
               fill: #0A0A0A;
               font-weight: bold;
               }
               text.nonterminal      {font-family: Verdana, Sans-serif; font-style: italic;
               font-size: 12px;
               fill: #0D0D0D;
               }
               text.regexp           {font-family: Verdana, Sans-serif;
               font-size: 12px;
               fill: #0F0F0F;
               }
               rect, circle, polygon {fill: #1F1F1F; stroke: #1F1F1F;}
               rect.terminal         {fill: #CCCCCC; stroke: #1F1F1F;}
               rect.nonterminal      {fill: #E3E3E3; stroke: #1F1F1F;}
               rect.text             {fill: none; stroke: none;}    
               polygon.regexp        {fill: #EFEFEF; stroke: #1F1F1F;}
               
            </style>
         </defs>
         <polygon points="9 17 1 13 1 21"/>
         <polygon points="17 17 9 13 9 21"/>
         <rect x="31" y="3" width="60" height="32" rx="10"/>
         <rect x="29" y="1" width="60" height="32" class="terminal" rx="10"/>
         <text class="terminal" x="39" y="21">TIME(</text>
         <rect x="131" y="35" width="44" height="32" rx="10"/>
         <rect x="129" y="33" width="44" height="32" class="terminal" rx="10"/>
         <text class="terminal" x="139" y="53">"N"</text>
<!--     <a xmlns:xlink="http://www.w3.org/1999/xlink" xlink:href="#option" xlink:title="option"> -->
            <rect x="131" y="79" width="58" height="32"/>
            <rect x="129" y="77" width="58" height="32" class="nonterminal"/>
            <text class="nonterminal" x="139" y="97">option</text>
<!--     </a> -->
         <rect x="249" y="35" width="24" height="32" rx="10"/>
         <rect x="247" y="33" width="24" height="32" class="terminal" rx="10"/>
         <text class="terminal" x="257" y="53">,</text>
<!--     <a xmlns:xlink="http://www.w3.org/1999/xlink" xlink:href="#string" xlink:title="string"> -->
            <rect x="293" y="35" width="52" height="32"/>
            <rect x="291" y="33" width="52" height="32" class="nonterminal"/>
            <text class="nonterminal" x="301" y="53">string</text>
<!--     </a> -->
         <rect x="365" y="35" width="24" height="32" rx="10"/>
         <rect x="363" y="33" width="24" height="32" class="terminal" rx="10"/>
         <text class="terminal" x="373" y="53">,</text>
         <rect x="429" y="67" width="44" height="32" rx="10"/>
         <rect x="427" y="65" width="44" height="32" class="terminal" rx="10"/>
         <text class="terminal" x="437" y="85">"N"</text>
<!--     <a xmlns:xlink="http://www.w3.org/1999/xlink" xlink:href="#option2" xlink:title="option2"> -->
            <rect x="429" y="111" width="66" height="32"/>
            <rect x="427" y="109" width="66" height="32" class="nonterminal"/>
            <text class="nonterminal" x="437" y="129">option2</text>
<!--     </a> -->
         <rect x="555" y="3" width="26" height="32" rx="10"/>
         <rect x="553" y="1" width="26" height="32" class="terminal" rx="10"/>
         <text class="terminal" x="563" y="21">)</text>
         <svg:path xmlns:svg="http://www.w3.org/2000/svg" class="line" d="m17 17 h2 m0 0 h10 m60 0 h10 m20 0 h10 m0 0 h68 m-98 0 h20 m78 0 h20 m-118 0 q10 0 10 10 m98 0 q0 -10 10 -10 m-108 10 v12 m98 0 v-12 m-98 12 q0 10 10 10 m78 0 q10 0 10 -10 m-88 10 h10 m44 0 h10 m0 0 h14 m-88 -10 v20 m98 0 v-20 m-98 20 v24 m98 0 v-24 m-98 24 q0 10 10 10 m78 0 q10 0 10 -10 m-88 10 h10 m58 0 h10 m40 -76 h10 m0 0 h276 m-306 0 h20 m286 0 h20 m-326 0 q10 0 10 10 m306 0 q0 -10 10 -10 m-316 10 v12 m306 0 v-12 m-306 12 q0 10 10 10 m286 0 q10 0 10 -10 m-296 10 h10 m24 0 h10 m0 0 h10 m52 0 h10 m0 0 h10 m24 0 h10 m20 0 h10 m0 0 h76 m-106 0 h20 m86 0 h20 m-126 0 q10 0 10 10 m106 0 q0 -10 10 -10 m-116 10 v12 m106 0 v-12 m-106 12 q0 10 10 10 m86 0 q10 0 10 -10 m-96 10 h10 m44 0 h10 m0 0 h22 m-96 -10 v20 m106 0 v-20 m-106 20 v24 m106 0 v-24 m-106 24 q0 10 10 10 m86 0 q10 0 10 -10 m-96 10 h10 m66 0 h10 m40 -108 h10 m26 0 h10 m3 0 h-3"/>
         <polygon points="599 17 607 13 607 21"/>
         <polygon points="599 17 591 13 591 21"/>
      </svg>
