<svg xmlns="http://www.w3.org/2000/svg" width="617" height="145">
         <defs>
            <style type="text/css">
    @namespace "http://www.w3.org/2000/svg";
    .line                 {fill: none; stroke: #1F1F1F;}
    .bold-line            {stroke: #0A0A0A; shape-rendering: crispEdges; stroke-width: 2; }
    .thin-line            {stroke: #0F0F0F; shape-rendering: crispEdges}
    .filled               {fill: #1F1F1F; stroke: none;}
    text.terminal         {font-family: Verdana, Sans-serif;
                            font-size: 12px;
                            fill: #0A0A0A;
                            font-weight: bold;
                          }
    text.nonterminal      {font-family: Verdana, Sans-serif; font-style: italic;
                            font-size: 12px;
                            fill: #0D0D0D;
                            font-weight: normal;
                          }
    text.regexp           {font-family: Verdana, Sans-serif;
                            font-size: 12px;
                            fill: #0F0F0F;
                            font-weight: normal;
                          }
    rect, circle, polygon {fill: #1F1F1F; stroke: #1F1F1F;}
    rect.terminal         {fill: #CCCCCC; stroke: #1F1F1F;}
    rect.nonterminal      {fill: #E3E3E3; stroke: #1F1F1F;}
    rect.text             {fill: none; stroke: none;}    
    polygon.regexp        {fill: #EFEFEF; stroke: #1F1F1F;}
  </style>
         </defs>
         <polygon points="9 17 1 13 1 21"/>
         <polygon points="17 17 9 13 9 21"/>
         <rect x="31" y="3" width="60" height="32" rx="10"/>
         <rect x="29" y="1" width="60" height="32" class="terminal" rx="10"/>
         <text class="terminal" x="39" y="21">TIME(</text>
         <rect x="131" y="35" width="44" height="32" rx="10"/>
         <rect x="129" y="33" width="44" height="32" class="terminal" rx="10"/>
         <text class="terminal" x="139" y="53">"N"</text>
<!--  <a xmlns:xlink="http://www.w3.org/1999/xlink" xlink:href="#option" xlink:title="option"> -->
            <rect x="131" y="79" width="60" height="32"/>
            <rect x="129" y="77" width="60" height="32" class="nonterminal"/>
            <text class="nonterminal" x="139" y="97">option</text><!-- </a> -->
<rect x="251" y="35" width="24" height="32" rx="10"/>
         <rect x="249" y="33" width="24" height="32" class="terminal" rx="10"/>
         <text class="terminal" x="259" y="53">,</text>
<!--  <a xmlns:xlink="http://www.w3.org/1999/xlink" xlink:href="#string" xlink:title="string"> -->
            <rect x="295" y="35" width="56" height="32"/>
            <rect x="293" y="33" width="56" height="32" class="nonterminal"/>
            <text class="nonterminal" x="303" y="53">string</text><!-- </a> -->
<rect x="371" y="35" width="24" height="32" rx="10"/>
         <rect x="369" y="33" width="24" height="32" class="terminal" rx="10"/>
         <text class="terminal" x="379" y="53">,</text>
         <rect x="435" y="67" width="44" height="32" rx="10"/>
         <rect x="433" y="65" width="44" height="32" class="terminal" rx="10"/>
         <text class="terminal" x="443" y="85">"N"</text>
<!--  <a xmlns:xlink="http://www.w3.org/1999/xlink" xlink:href="#option2" xlink:title="option2"> -->
            <rect x="435" y="111" width="68" height="32"/>
            <rect x="433" y="109" width="68" height="32" class="nonterminal"/>
            <text class="nonterminal" x="443" y="129">option2</text><!-- </a> -->
<rect x="563" y="3" width="26" height="32" rx="10"/>
         <rect x="561" y="1" width="26" height="32" class="terminal" rx="10"/>
         <text class="terminal" x="571" y="21">)</text>
         <svg:path xmlns:svg="http://www.w3.org/2000/svg" class="line" d="m17 17 h2 m0 0 h10 m60 0 h10 m20 0 h10 m0 0 h70 m-100 0 h20 m80 0 h20 m-120 0 q10 0 10 10 m100 0 q0 -10 10 -10 m-110 10 v12 m100 0 v-12 m-100 12 q0 10 10 10 m80 0 q10 0 10 -10 m-90 10 h10 m44 0 h10 m0 0 h16 m-90 -10 v20 m100 0 v-20 m-100 20 v24 m100 0 v-24 m-100 24 q0 10 10 10 m80 0 q10 0 10 -10 m-90 10 h10 m60 0 h10 m40 -76 h10 m0 0 h282 m-312 0 h20 m292 0 h20 m-332 0 q10 0 10 10 m312 0 q0 -10 10 -10 m-322 10 v12 m312 0 v-12 m-312 12 q0 10 10 10 m292 0 q10 0 10 -10 m-302 10 h10 m24 0 h10 m0 0 h10 m56 0 h10 m0 0 h10 m24 0 h10 m20 0 h10 m0 0 h78 m-108 0 h20 m88 0 h20 m-128 0 q10 0 10 10 m108 0 q0 -10 10 -10 m-118 10 v12 m108 0 v-12 m-108 12 q0 10 10 10 m88 0 q10 0 10 -10 m-98 10 h10 m44 0 h10 m0 0 h24 m-98 -10 v20 m108 0 v-20 m-108 20 v24 m108 0 v-24 m-108 24 q0 10 10 10 m88 0 q10 0 10 -10 m-98 10 h10 m68 0 h10 m40 -108 h10 m26 0 h10 m3 0 h-3"/>
         <polygon points="607 17 615 13 615 21"/>
         <polygon points="607 17 599 13 599 21"/></svg>
