      <svg xmlns="http://www.w3.org/2000/svg" width="836" height="166">
         <defs>
            <style type="text/css">
               @namespace "http://www.w3.org/2000/svg";
               .line                 {fill: none; stroke: #1F1F1F;}
               .bold-line            {stroke: #0A0A0A; shape-rendering: crispEdges; stroke-width:
               2; }
               .thin-line            {stroke: #0F0F0F; shape-rendering: crispEdges}
               .filled               {fill: #1F1F1F; stroke: none;}
               text.terminal         {font-family: Verdana, Sans-serif;
               font-size: 12px;
               fill: #0A0A0A;
               font-weight: bold;
               }
               text.nonterminal      {font-family: Verdana, Sans-serif; font-style: italic;
               font-size: 12px;
               fill: #0D0D0D;
               }
               text.regexp           {font-family: Verdana, Sans-serif;
               font-size: 12px;
               fill: #0F0F0F;
               }
               rect, circle, polygon {fill: #1F1F1F; stroke: #1F1F1F;}
               rect.terminal         {fill: #CCCCCC; stroke: #1F1F1F;}
               rect.nonterminal      {fill: #E3E3E3; stroke: #1F1F1F;}
               rect.text             {fill: none; stroke: none;}    
               polygon.regexp        {fill: #EFEFEF; stroke: #1F1F1F;}
               
            </style>
         </defs>
         <polygon points="9 17 1 13 1 21"/>
         <polygon points="17 17 9 13 9 21"/>
         <rect x="31" y="3" width="106" height="32" rx="10"/>
         <rect x="29" y="1" width="106" height="32" class="terminal" rx="10"/>
         <text class="terminal" x="39" y="21">TRANSLATE(</text>
<!--     <a xmlns:xlink="http://www.w3.org/1999/xlink" xlink:href="#string" xlink:title="string"> -->
            <rect x="157" y="3" width="52" height="32"/>
            <rect x="155" y="1" width="52" height="32" class="nonterminal"/>
            <text class="nonterminal" x="165" y="21">string</text>
<!--     </a> -->
         <rect x="229" y="3" width="24" height="32" rx="10"/>
         <rect x="227" y="1" width="24" height="32" class="terminal" rx="10"/>
         <text class="terminal" x="237" y="21">,</text>
<!--     <a xmlns:xlink="http://www.w3.org/1999/xlink" xlink:href="#tableo" xlink:title="tableo"> -->
            <rect x="293" y="35" width="56" height="32"/>
            <rect x="291" y="33" width="56" height="32" class="nonterminal"/>
            <text class="nonterminal" x="301" y="53">tableo</text>
<!--     </a> -->
         <rect x="389" y="3" width="24" height="32" rx="10"/>
         <rect x="387" y="1" width="24" height="32" class="terminal" rx="10"/>
         <text class="terminal" x="397" y="21">,</text>
<!--     <a xmlns:xlink="http://www.w3.org/1999/xlink" xlink:href="#tablei" xlink:title="tablei"> -->
            <rect x="453" y="35" width="50" height="32"/>
            <rect x="451" y="33" width="50" height="32" class="nonterminal"/>
            <text class="nonterminal" x="461" y="53">tablei</text>
<!--     </a> -->
         <rect x="543" y="3" width="24" height="32" rx="10"/>
         <rect x="541" y="1" width="24" height="32" class="terminal" rx="10"/>
         <text class="terminal" x="551" y="21">,</text>
<!--     <a xmlns:xlink="http://www.w3.org/1999/xlink" xlink:href="#pad" xlink:title="pad"> -->
            <rect x="607" y="35" width="42" height="32"/>
            <rect x="605" y="33" width="42" height="32" class="nonterminal"/>
            <text class="nonterminal" x="615" y="53">pad</text>
<!--     </a> -->
         <rect x="689" y="3" width="24" height="32" rx="10"/>
         <rect x="687" y="1" width="24" height="32" class="terminal" rx="10"/>
         <text class="terminal" x="697" y="21">,</text>
<!--     <a xmlns:xlink="http://www.w3.org/1999/xlink" xlink:href="#pos" xlink:title="pos"> -->
            <rect x="753" y="35" width="42" height="32"/>
            <rect x="751" y="33" width="42" height="32" class="nonterminal"/>
            <text class="nonterminal" x="761" y="53">pos</text>
<!--     </a> -->
         <rect x="643" y="133" width="24" height="32" rx="10"/>
         <rect x="641" y="131" width="24" height="32" class="terminal" rx="10"/>
         <text class="terminal" x="651" y="151">,</text>
<!--     <a xmlns:xlink="http://www.w3.org/1999/xlink" xlink:href="#length" xlink:title="length"> -->
            <rect x="687" y="133" width="56" height="32"/>
            <rect x="685" y="131" width="56" height="32" class="nonterminal"/>
            <text class="nonterminal" x="695" y="151">length</text>
<!--     </a> -->
         <rect x="783" y="101" width="26" height="32" rx="10"/>
         <rect x="781" y="99" width="26" height="32" class="terminal" rx="10"/>
         <text class="terminal" x="791" y="119">)</text>
         <svg:path xmlns:svg="http://www.w3.org/2000/svg" class="line" d="m17 17 h2 m0 0 h10 m106 0 h10 m0 0 h10 m52 0 h10 m0 0 h10 m24 0 h10 m20 0 h10 m0 0 h66 m-96 0 h20 m76 0 h20 m-116 0 q10 0 10 10 m96 0 q0 -10 10 -10 m-106 10 v12 m96 0 v-12 m-96 12 q0 10 10 10 m76 0 q10 0 10 -10 m-86 10 h10 m56 0 h10 m20 -32 h10 m24 0 h10 m20 0 h10 m0 0 h60 m-90 0 h20 m70 0 h20 m-110 0 q10 0 10 10 m90 0 q0 -10 10 -10 m-100 10 v12 m90 0 v-12 m-90 12 q0 10 10 10 m70 0 q10 0 10 -10 m-80 10 h10 m50 0 h10 m20 -32 h10 m24 0 h10 m20 0 h10 m0 0 h52 m-82 0 h20 m62 0 h20 m-102 0 q10 0 10 10 m82 0 q0 -10 10 -10 m-92 10 v12 m82 0 v-12 m-82 12 q0 10 10 10 m62 0 q10 0 10 -10 m-72 10 h10 m42 0 h10 m20 -32 h10 m24 0 h10 m20 0 h10 m0 0 h52 m-82 0 h20 m62 0 h20 m-102 0 q10 0 10 10 m82 0 q0 -10 10 -10 m-92 10 v12 m82 0 v-12 m-82 12 q0 10 10 10 m62 0 q10 0 10 -10 m-72 10 h10 m42 0 h10 m22 -32 l2 0 m2 0 l2 0 m2 0 l2 0 m-236 98 l2 0 m2 0 l2 0 m2 0 l2 0 m22 0 h10 m0 0 h110 m-140 0 h20 m120 0 h20 m-160 0 q10 0 10 10 m140 0 q0 -10 10 -10 m-150 10 v12 m140 0 v-12 m-140 12 q0 10 10 10 m120 0 q10 0 10 -10 m-130 10 h10 m24 0 h10 m0 0 h10 m56 0 h10 m20 -32 h10 m26 0 h10 m3 0 h-3"/>
         <polygon points="827 115 835 111 835 119"/>
         <polygon points="827 115 819 111 819 119"/>
      </svg>
