      <svg xmlns="http://www.w3.org/2000/svg" width="892" height="134">
         <defs>
            <style type="text/css">
               @namespace "http://www.w3.org/2000/svg";
               .line                 {fill: none; stroke: #1F1F1F;}
               .bold-line            {stroke: #0A0A0A; shape-rendering: crispEdges; stroke-width:
               2; }
               .thin-line            {stroke: #0F0F0F; shape-rendering: crispEdges}
               .filled               {fill: #1F1F1F; stroke: none;}
               text.terminal         {font-family: Verdana, Sans-serif;
               font-size: 12px;
               fill: #0A0A0A;
               font-weight: bold;
               }
               text.nonterminal      {font-family: Verdana, Sans-serif; font-style: italic;
               font-size: 12px;
               fill: #0D0D0D;
               }
               text.regexp           {font-family: Verdana, Sans-serif;
               font-size: 12px;
               fill: #0F0F0F;
               }
               rect, circle, polygon {fill: #1F1F1F; stroke: #1F1F1F;}
               rect.terminal         {fill: #CCCCCC; stroke: #1F1F1F;}
               rect.nonterminal      {fill: #E3E3E3; stroke: #1F1F1F;}
               rect.text             {fill: none; stroke: none;}    
               polygon.regexp        {fill: #EFEFEF; stroke: #1F1F1F;}
               
            </style>
         </defs>
         <polygon points="9 17 1 13 1 21"/>
         <polygon points="17 17 9 13 9 21"/>
         <rect x="31" y="3" width="104" height="32" rx="10"/>
         <rect x="29" y="1" width="104" height="32" class="terminal" rx="10"/>
         <text class="terminal" x="39" y="21">TRANSLATE(</text>
<!--     <a xmlns:xlink="http://www.w3.org/1999/xlink" xlink:href="#string" xlink:title="string"> -->
            <rect x="155" y="3" width="56" height="32"/>
            <rect x="153" y="1" width="56" height="32" class="nonterminal"/>
            <text class="nonterminal" x="163" y="21">string</text>
<!--     </a> -->
         <rect x="231" y="3" width="24" height="32" rx="10"/>
         <rect x="229" y="1" width="24" height="32" class="terminal" rx="10"/>
         <text class="terminal" x="239" y="21">,</text>
<!--     <a xmlns:xlink="http://www.w3.org/1999/xlink" xlink:href="#tableo" xlink:title="tableo"> -->
            <rect x="295" y="3" width="60" height="32"/>
            <rect x="293" y="1" width="60" height="32" class="nonterminal"/>
            <text class="nonterminal" x="303" y="21">tableo</text>
<!--     </a> -->
         <rect x="395" y="3" width="24" height="32" rx="10"/>
         <rect x="393" y="1" width="24" height="32" class="terminal" rx="10"/>
         <text class="terminal" x="403" y="21">,</text>
<!--     <a xmlns:xlink="http://www.w3.org/1999/xlink" xlink:href="#tablei" xlink:title="tablei"> -->
            <rect x="459" y="3" width="54" height="32"/>
            <rect x="457" y="1" width="54" height="32" class="nonterminal"/>
            <text class="nonterminal" x="467" y="21">tablei</text>
<!--     </a> -->
         <rect x="553" y="3" width="24" height="32" rx="10"/>
         <rect x="551" y="1" width="24" height="32" class="terminal" rx="10"/>
         <text class="terminal" x="561" y="21">,</text>
<!--     <a xmlns:xlink="http://www.w3.org/1999/xlink" xlink:href="#pad" xlink:title="pad"> -->
            <rect x="617" y="3" width="44" height="32"/>
            <rect x="615" y="1" width="44" height="32" class="nonterminal"/>
            <text class="nonterminal" x="625" y="21">pad</text>
<!--     </a> -->
         <rect x="701" y="3" width="24" height="32" rx="10"/>
         <rect x="699" y="1" width="24" height="32" class="terminal" rx="10"/>
         <text class="terminal" x="709" y="21">,</text>
<!--     <a xmlns:xlink="http://www.w3.org/1999/xlink" xlink:href="#pos" xlink:title="pos"> -->
            <rect x="765" y="3" width="42" height="32"/>
            <rect x="763" y="1" width="42" height="32" class="nonterminal"/>
            <text class="nonterminal" x="773" y="21">pos</text>
<!--     </a> -->
         <rect x="847" y="3" width="24" height="32" rx="10"/>
         <rect x="845" y="1" width="24" height="32" class="terminal" rx="10"/>
         <text class="terminal" x="855" y="21">,</text>
<!--     <a xmlns:xlink="http://www.w3.org/1999/xlink" xlink:href="#length" xlink:title="length"> -->
            <rect x="739" y="85" width="60" height="32"/>
            <rect x="737" y="83" width="60" height="32" class="nonterminal"/>
            <text class="nonterminal" x="747" y="103">length</text>
<!--     </a> -->
         <rect x="839" y="85" width="26" height="32" rx="10"/>
         <rect x="837" y="83" width="26" height="32" class="terminal" rx="10"/>
         <text class="terminal" x="847" y="103">)</text>
         <svg:path xmlns:svg="http://www.w3.org/2000/svg" class="line" d="m17 17 h2 m0 0 h10 m104 0 h10 m0 0 h10 m56 0 h10 m0 0 h10 m24 0 h10 m20 0 h10 m60 0 h10 m-100 0 h20 m80 0 h20 m-120 0 q10 0 10 10 m100 0 q0 -10 10 -10 m-110 10 v14 m100 0 v-14 m-100 14 q0 10 10 10 m80 0 q10 0 10 -10 m-90 10 h10 m0 0 h70 m20 -34 h10 m24 0 h10 m20 0 h10 m54 0 h10 m-94 0 h20 m74 0 h20 m-114 0 q10 0 10 10 m94 0 q0 -10 10 -10 m-104 10 v14 m94 0 v-14 m-94 14 q0 10 10 10 m74 0 q10 0 10 -10 m-84 10 h10 m0 0 h64 m20 -34 h10 m24 0 h10 m20 0 h10 m44 0 h10 m-84 0 h20 m64 0 h20 m-104 0 q10 0 10 10 m84 0 q0 -10 10 -10 m-94 10 v14 m84 0 v-14 m-84 14 q0 10 10 10 m64 0 q10 0 10 -10 m-74 10 h10 m0 0 h54 m20 -34 h10 m24 0 h10 m20 0 h10 m42 0 h10 m-82 0 h20 m62 0 h20 m-102 0 q10 0 10 10 m82 0 q0 -10 10 -10 m-92 10 v14 m82 0 v-14 m-82 14 q0 10 10 10 m62 0 q10 0 10 -10 m-72 10 h10 m0 0 h52 m20 -34 h10 m24 0 h10 m2 0 l2 0 m2 0 l2 0 m2 0 l2 0 m-196 82 l2 0 m2 0 l2 0 m2 0 l2 0 m22 0 h10 m60 0 h10 m-100 0 h20 m80 0 h20 m-120 0 q10 0 10 10 m100 0 q0 -10 10 -10 m-110 10 v14 m100 0 v-14 m-100 14 q0 10 10 10 m80 0 q10 0 10 -10 m-90 10 h10 m0 0 h70 m20 -34 h10 m26 0 h10 m3 0 h-3"/>
         <polygon points="883 99 891 95 891 103"/>
         <polygon points="883 99 875 95 875 103"/>
      </svg>
