      <svg xmlns="http://www.w3.org/2000/svg" width="938" height="182">
         <defs>
            <style type="text/css">
               @namespace "http://www.w3.org/2000/svg";
               .line                 {fill: none; stroke: #1F1F1F;}
               .bold-line            {stroke: #0A0A0A; shape-rendering: crispEdges; stroke-width:
               2; }
               .thin-line            {stroke: #0F0F0F; shape-rendering: crispEdges}
               .filled               {fill: #1F1F1F; stroke: none;}
               text.terminal         {font-family: Verdana, Sans-serif;
               font-size: 12px;
               fill: #0A0A0A;
               font-weight: bold;
               }
               text.nonterminal      {font-family: Verdana, Sans-serif;
               font-size: 12px;
               fill: #0D0D0D;
               }
               text.regexp           {font-family: Verdana, Sans-serif;
               font-size: 12px;
               fill: #0F0F0F;
               }
               rect, circle, polygon {fill: #1F1F1F; stroke: #1F1F1F;}
               rect.terminal         {fill: #CCCCCC; stroke: #1F1F1F;}
               rect.nonterminal      {fill: #E3E3E3; stroke: #1F1F1F;}
               rect.text             {fill: none; stroke: none;}    
               polygon.regexp        {fill: #EFEFEF; stroke: #1F1F1F;}
               
            </style>
         </defs>
         <polygon points="11 17 3 13 3 21"/>
         <polygon points="19 17 11 13 11 21"/>
         <rect x="33" y="3" width="86" height="32" rx="10"/>
         <rect x="31" y="1" width="86" height="32" class="terminal" rx="10"/>
         <text class="terminal" x="41" y="21">translate(</text>
         <a xmlns:xlink="http://www.w3.org/1999/xlink" xlink:href="#string" xlink:title="string">
            <rect x="139" y="3" width="56" height="32"/>
            <rect x="137" y="1" width="56" height="32" class="nonterminal"/>
            <text class="nonterminal" x="147" y="21">string</text>
         </a>
         <rect x="65" y="69" width="24" height="32" rx="10"/>
         <rect x="63" y="67" width="24" height="32" class="terminal" rx="10"/>
         <text class="terminal" x="73" y="87">,</text>
         <a xmlns:xlink="http://www.w3.org/1999/xlink" xlink:href="#tableo" xlink:title="tableo">
            <rect x="109" y="69" width="60" height="32"/>
            <rect x="107" y="67" width="60" height="32" class="nonterminal"/>
            <text class="nonterminal" x="117" y="87">tableo</text>
         </a>
         <rect x="209" y="69" width="24" height="32" rx="10"/>
         <rect x="207" y="67" width="24" height="32" class="terminal" rx="10"/>
         <text class="terminal" x="217" y="87">,</text>
         <a xmlns:xlink="http://www.w3.org/1999/xlink" xlink:href="#tablei" xlink:title="tablei">
            <rect x="273" y="69" width="54" height="32"/>
            <rect x="271" y="67" width="54" height="32" class="nonterminal"/>
            <text class="nonterminal" x="281" y="87">tablei</text>
         </a>
         <rect x="367" y="69" width="24" height="32" rx="10"/>
         <rect x="365" y="67" width="24" height="32" class="terminal" rx="10"/>
         <text class="terminal" x="375" y="87">,</text>
         <a xmlns:xlink="http://www.w3.org/1999/xlink" xlink:href="#pad" xlink:title="pad">
            <rect x="411" y="69" width="44" height="32"/>
            <rect x="409" y="67" width="44" height="32" class="nonterminal"/>
            <text class="nonterminal" x="419" y="87">pad</text>
         </a>
         <rect x="575" y="69" width="24" height="32" rx="10"/>
         <rect x="573" y="67" width="24" height="32" class="terminal" rx="10"/>
         <text class="terminal" x="583" y="87">,</text>
         <a xmlns:xlink="http://www.w3.org/1999/xlink" xlink:href="#pos" xlink:title="pos">
            <rect x="619" y="69" width="42" height="32"/>
            <rect x="617" y="67" width="42" height="32" class="nonterminal"/>
            <text class="nonterminal" x="627" y="87">pos</text>
         </a>
         <rect x="701" y="69" width="24" height="32" rx="10"/>
         <rect x="699" y="67" width="24" height="32" class="terminal" rx="10"/>
         <text class="terminal" x="709" y="87">,</text>
         <a xmlns:xlink="http://www.w3.org/1999/xlink" xlink:href="#length" xlink:title="length">
            <rect x="745" y="69" width="60" height="32"/>
            <rect x="743" y="67" width="60" height="32" class="nonterminal"/>
            <text class="nonterminal" x="753" y="87">length</text>
         </a>
         <rect x="885" y="69" width="26" height="32" rx="10"/>
         <rect x="883" y="67" width="26" height="32" class="terminal" rx="10"/>
         <text class="terminal" x="893" y="87">)</text>
         <svg:path xmlns:svg="http://www.w3.org/2000/svg" class="line" d="m19 17 h2 m0 0 h10 m86 0 h10 m0 0 h10 m56 0 h10 m2 0 l2 0 m2 0 l2 0 m2 0 l2 0 m-214 66 l2 0 m2 0 l2 0 m2 0 l2 0 m42 0 h10 m24 0 h10 m0 0 h10 m60 0 h10 m20 0 h10 m24 0 h10 m20 0 h10 m54 0 h10 m20 0 h10 m24 0 h10 m0 0 h10 m44 0 h10 m-128 0 h20 m108 0 h20 m-148 0 q10 0 10 10 m128 0 q0 -10 10 -10 m-138 10 v14 m128 0 v-14 m-128 14 q0 10 10 10 m108 0 q10 0 10 -10 m-118 10 h10 m0 0 h98 m-222 -34 h20 m222 0 h20 m-262 0 q10 0 10 10 m242 0 q0 -10 10 -10 m-252 10 v30 m242 0 v-30 m-242 30 q0 10 10 10 m222 0 q10 0 10 -10 m-232 10 h10 m0 0 h212 m-306 -50 h20 m306 0 h20 m-346 0 q10 0 10 10 m326 0 q0 -10 10 -10 m-336 10 v46 m326 0 v-46 m-326 46 q0 10 10 10 m306 0 q10 0 10 -10 m-316 10 h10 m0 0 h296 m-470 -66 h20 m470 0 h20 m-510 0 q10 0 10 10 m490 0 q0 -10 10 -10 m-500 10 v62 m490 0 v-62 m-490 62 q0 10 10 10 m470 0 q10 0 10 -10 m-480 10 h10 m0 0 h460 m40 -82 h10 m24 0 h10 m0 0 h10 m42 0 h10 m20 0 h10 m24 0 h10 m0 0 h10 m60 0 h10 m-144 0 h20 m124 0 h20 m-164 0 q10 0 10 10 m144 0 q0 -10 10 -10 m-154 10 v14 m144 0 v-14 m-144 14 q0 10 10 10 m124 0 q10 0 10 -10 m-134 10 h10 m0 0 h114 m-270 -34 h20 m270 0 h20 m-310 0 q10 0 10 10 m290 0 q0 -10 10 -10 m-300 10 v30 m290 0 v-30 m-290 30 q0 10 10 10 m270 0 q10 0 10 -10 m-280 10 h10 m0 0 h260 m-820 -50 h20 m820 0 h20 m-860 0 q10 0 10 10 m840 0 q0 -10 10 -10 m-850 10 v78 m840 0 v-78 m-840 78 q0 10 10 10 m820 0 q10 0 10 -10 m-830 10 h10 m0 0 h810 m20 -98 h10 m26 0 h10 m3 0 h-3"/>
         <polygon points="929 83 937 79 937 87"/>
         <polygon points="929 83 921 79 921 87"/>
      </svg>
