      <svg xmlns="http://www.w3.org/2000/svg" width="580" height="84">
         <defs>
            <style type="text/css">
               @namespace "http://www.w3.org/2000/svg";
               .line                 {fill: none; stroke: #1F1F1F;}
               .bold-line            {stroke: #0A0A0A; shape-rendering: crispEdges; stroke-width:
               2; }
               .thin-line            {stroke: #0F0F0F; shape-rendering: crispEdges}
               .filled               {fill: #1F1F1F; stroke: none;}
               text.terminal         {font-family: Verdana, Sans-serif;
               font-size: 12px;
               fill: #0A0A0A;
               font-weight: bold;
               }
               text.nonterminal      {font-family: Verdana, Sans-serif;
               font-size: 12px;
               fill: #0D0D0D;
               }
               text.regexp           {font-family: Verdana, Sans-serif;
               font-size: 12px;
               fill: #0F0F0F;
               }
               rect, circle, polygon {fill: #1F1F1F; stroke: #1F1F1F;}
               rect.terminal         {fill: #CCCCCC; stroke: #1F1F1F;}
               rect.nonterminal      {fill: #E3E3E3; stroke: #1F1F1F;}
               rect.text             {fill: none; stroke: none;}    
               polygon.regexp        {fill: #EFEFEF; stroke: #1F1F1F;}
               
            </style>
         </defs>
         <polygon points="9 17 1 13 1 21"/>
         <polygon points="17 17 9 13 9 21"/>
         <rect x="31" y="3" width="64" height="32" rx="10"/>
         <rect x="29" y="1" width="64" height="32" class="terminal" rx="10"/>
         <text class="terminal" x="39" y="21">upper(</text>
         <a xmlns:xlink="http://www.w3.org/1999/xlink" xlink:href="#string" xlink:title="string">
            <rect x="115" y="3" width="56" height="32"/>
            <rect x="113" y="1" width="56" height="32" class="nonterminal"/>
            <text class="nonterminal" x="123" y="21">string</text>
         </a>
         <rect x="211" y="3" width="24" height="32" rx="10"/>
         <rect x="209" y="1" width="24" height="32" class="terminal" rx="10"/>
         <text class="terminal" x="219" y="21">,</text>
         <a xmlns:xlink="http://www.w3.org/1999/xlink" xlink:href="#n" xlink:title="n">
            <rect x="275" y="3" width="28" height="32"/>
            <rect x="273" y="1" width="28" height="32" class="nonterminal"/>
            <text class="nonterminal" x="283" y="21">n</text>
         </a>
         <rect x="343" y="3" width="24" height="32" rx="10"/>
         <rect x="341" y="1" width="24" height="32" class="terminal" rx="10"/>
         <text class="terminal" x="351" y="21">,</text>
         <a xmlns:xlink="http://www.w3.org/1999/xlink" xlink:href="#length" xlink:title="length">
            <rect x="387" y="3" width="60" height="32"/>
            <rect x="385" y="1" width="60" height="32" class="nonterminal"/>
            <text class="nonterminal" x="395" y="21">length</text>
         </a>
         <rect x="527" y="3" width="26" height="32" rx="10"/>
         <rect x="525" y="1" width="26" height="32" class="terminal" rx="10"/>
         <text class="terminal" x="535" y="21">)</text>
         <svg:path xmlns:svg="http://www.w3.org/2000/svg" class="line" d="m17 17 h2 m0 0 h10 m64 0 h10 m0 0 h10 m56 0 h10 m20 0 h10 m24 0 h10 m20 0 h10 m28 0 h10 m20 0 h10 m24 0 h10 m0 0 h10 m60 0 h10 m-144 0 h20 m124 0 h20 m-164 0 q10 0 10 10 m144 0 q0 -10 10 -10 m-154 10 v14 m144 0 v-14 m-144 14 q0 10 10 10 m124 0 q10 0 10 -10 m-134 10 h10 m0 0 h114 m-212 -34 h20 m212 0 h20 m-252 0 q10 0 10 10 m232 0 q0 -10 10 -10 m-242 10 v30 m232 0 v-30 m-232 30 q0 10 10 10 m212 0 q10 0 10 -10 m-222 10 h10 m0 0 h202 m-296 -50 h20 m296 0 h20 m-336 0 q10 0 10 10 m316 0 q0 -10 10 -10 m-326 10 v46 m316 0 v-46 m-316 46 q0 10 10 10 m296 0 q10 0 10 -10 m-306 10 h10 m0 0 h286 m20 -66 h10 m26 0 h10 m3 0 h-3"/>
         <polygon points="571 17 579 13 579 21"/>
         <polygon points="571 17 563 13 563 21"/>
      </svg>
