      <svg xmlns="http://www.w3.org/2000/svg" width="606" height="68">
         <defs>
            <style type="text/css">
               @namespace "http://www.w3.org/2000/svg";
               .line                 {fill: none; stroke: #1F1F1F;}
               .bold-line            {stroke: #0A0A0A; shape-rendering: crispEdges; stroke-width:
               2; }
               .thin-line            {stroke: #0F0F0F; shape-rendering: crispEdges}
               .filled               {fill: #1F1F1F; stroke: none;}
               text.terminal         {font-family: Verdana, Sans-serif;
               font-size: 12px;
               fill: #0A0A0A;
               font-weight: bold;
               }
               text.nonterminal      {font-family: Verdana, Sans-serif; font-style: italic;
               font-size: 12px;
               fill: #0D0D0D;
               }
               text.regexp           {font-family: Verdana, Sans-serif;
               font-size: 12px;
               fill: #0F0F0F;
               }
               rect, circle, polygon {fill: #1F1F1F; stroke: #1F1F1F;}
               rect.terminal         {fill: #CCCCCC; stroke: #1F1F1F;}
               rect.nonterminal      {fill: #E3E3E3; stroke: #1F1F1F;}
               rect.text             {fill: none; stroke: none;}    
               polygon.regexp        {fill: #EFEFEF; stroke: #1F1F1F;}
               
            </style>
         </defs>
         <polygon points="9 17 1 13 1 21"/>
         <polygon points="17 17 9 13 9 21"/>
         <rect x="31" y="3" width="70" height="32" rx="10"/>
         <rect x="29" y="1" width="70" height="32" class="terminal" rx="10"/>
         <text class="terminal" x="39" y="21">VALUE(</text>
<!--     <a xmlns:xlink="http://www.w3.org/1999/xlink" xlink:href="#name" xlink:title="name"> -->
            <rect x="121" y="3" width="54" height="32"/>
            <rect x="119" y="1" width="54" height="32" class="nonterminal"/>
            <text class="nonterminal" x="129" y="21">name</text>
<!--     </a> -->
         <rect x="195" y="3" width="24" height="32" rx="10"/>
         <rect x="193" y="1" width="24" height="32" class="terminal" rx="10"/>
         <text class="terminal" x="203" y="21">,</text>
<!--     <a xmlns:xlink="http://www.w3.org/1999/xlink" xlink:href="#newvalue" xlink:title="newvalue"> -->
            <rect x="259" y="35" width="80" height="32"/>
            <rect x="257" y="33" width="80" height="32" class="nonterminal"/>
            <text class="nonterminal" x="267" y="53">newvalue</text>
<!--     </a> -->
         <rect x="379" y="3" width="24" height="32" rx="10"/>
         <rect x="377" y="1" width="24" height="32" class="terminal" rx="10"/>
         <text class="terminal" x="387" y="21">,</text>
<!--     <a xmlns:xlink="http://www.w3.org/1999/xlink" xlink:href="#selector" xlink:title="selector"> -->
            <rect x="443" y="35" width="70" height="32"/>
            <rect x="441" y="33" width="70" height="32" class="nonterminal"/>
            <text class="nonterminal" x="451" y="53">selector</text>
<!--     </a> -->
         <rect x="553" y="3" width="26" height="32" rx="10"/>
         <rect x="551" y="1" width="26" height="32" class="terminal" rx="10"/>
         <text class="terminal" x="561" y="21">)</text>
         <svg:path xmlns:svg="http://www.w3.org/2000/svg" class="line" d="m17 17 h2 m0 0 h10 m70 0 h10 m0 0 h10 m54 0 h10 m0 0 h10 m24 0 h10 m20 0 h10 m0 0 h90 m-120 0 h20 m100 0 h20 m-140 0 q10 0 10 10 m120 0 q0 -10 10 -10 m-130 10 v12 m120 0 v-12 m-120 12 q0 10 10 10 m100 0 q10 0 10 -10 m-110 10 h10 m80 0 h10 m20 -32 h10 m24 0 h10 m20 0 h10 m0 0 h80 m-110 0 h20 m90 0 h20 m-130 0 q10 0 10 10 m110 0 q0 -10 10 -10 m-120 10 v12 m110 0 v-12 m-110 12 q0 10 10 10 m90 0 q10 0 10 -10 m-100 10 h10 m70 0 h10 m20 -32 h10 m26 0 h10 m3 0 h-3"/>
         <polygon points="597 17 605 13 605 21"/>
         <polygon points="597 17 589 13 589 21"/>
      </svg>
