      <svg xmlns="http://www.w3.org/2000/svg" width="638" height="68">
         <defs>
            <style type="text/css">
               @namespace "http://www.w3.org/2000/svg";
               .line                 {fill: none; stroke: #1F1F1F;}
               .bold-line            {stroke: #0A0A0A; shape-rendering: crispEdges; stroke-width:
               2; }
               .thin-line            {stroke: #0F0F0F; shape-rendering: crispEdges}
               .filled               {fill: #1F1F1F; stroke: none;}
               text.terminal         {font-family: Verdana, Sans-serif;
               font-size: 12px;
               fill: #0A0A0A;
               font-weight: bold;
               }
               text.nonterminal      {font-family: Verdana, Sans-serif;
               font-size: 12px;
               fill: #0D0D0D;
               }
               text.regexp           {font-family: Verdana, Sans-serif;
               font-size: 12px;
               fill: #0F0F0F;
               }
               rect, circle, polygon {fill: #1F1F1F; stroke: #1F1F1F;}
               rect.terminal         {fill: #CCCCCC; stroke: #1F1F1F;}
               rect.nonterminal      {fill: #E3E3E3; stroke: #1F1F1F;}
               rect.text             {fill: none; stroke: none;}    
               polygon.regexp        {fill: #EFEFEF; stroke: #1F1F1F;}
               
            </style>
         </defs>
         <polygon points="9 17 1 13 1 21"/>
         <polygon points="17 17 9 13 9 21"/>
         <rect x="31" y="3" width="62" height="32" rx="10"/>
         <rect x="29" y="1" width="62" height="32" class="terminal" rx="10"/>
         <text class="terminal" x="39" y="21">value(</text>
         <a xmlns:xlink="http://www.w3.org/1999/xlink" xlink:href="#name" xlink:title="name">
            <rect x="113" y="3" width="54" height="32"/>
            <rect x="111" y="1" width="54" height="32" class="nonterminal"/>
            <text class="nonterminal" x="121" y="21">name</text>
         </a>
         <rect x="207" y="3" width="24" height="32" rx="10"/>
         <rect x="205" y="1" width="24" height="32" class="terminal" rx="10"/>
         <text class="terminal" x="215" y="21">,</text>
         <a xmlns:xlink="http://www.w3.org/1999/xlink" xlink:href="#newvalue" xlink:title="newvalue">
            <rect x="271" y="3" width="80" height="32"/>
            <rect x="269" y="1" width="80" height="32" class="nonterminal"/>
            <text class="nonterminal" x="279" y="21">newvalue</text>
         </a>
         <rect x="411" y="3" width="24" height="32" rx="10"/>
         <rect x="409" y="1" width="24" height="32" class="terminal" rx="10"/>
         <text class="terminal" x="419" y="21">,</text>
         <a xmlns:xlink="http://www.w3.org/1999/xlink" xlink:href="#selector" xlink:title="selector">
            <rect x="455" y="3" width="70" height="32"/>
            <rect x="453" y="1" width="70" height="32" class="nonterminal"/>
            <text class="nonterminal" x="463" y="21">selector</text>
         </a>
         <rect x="585" y="3" width="26" height="32" rx="10"/>
         <rect x="583" y="1" width="26" height="32" class="terminal" rx="10"/>
         <text class="terminal" x="593" y="21">)</text>
         <svg:path xmlns:svg="http://www.w3.org/2000/svg" class="line" d="m17 17 h2 m0 0 h10 m62 0 h10 m0 0 h10 m54 0 h10 m20 0 h10 m24 0 h10 m20 0 h10 m80 0 h10 m-120 0 h20 m100 0 h20 m-140 0 q10 0 10 10 m120 0 q0 -10 10 -10 m-130 10 v14 m120 0 v-14 m-120 14 q0 10 10 10 m100 0 q10 0 10 -10 m-110 10 h10 m0 0 h90 m40 -34 h10 m24 0 h10 m0 0 h10 m70 0 h10 m-154 0 h20 m134 0 h20 m-174 0 q10 0 10 10 m154 0 q0 -10 10 -10 m-164 10 v14 m154 0 v-14 m-154 14 q0 10 10 10 m134 0 q10 0 10 -10 m-144 10 h10 m0 0 h124 m-358 -34 h20 m358 0 h20 m-398 0 q10 0 10 10 m378 0 q0 -10 10 -10 m-388 10 v30 m378 0 v-30 m-378 30 q0 10 10 10 m358 0 q10 0 10 -10 m-368 10 h10 m0 0 h348 m20 -50 h10 m26 0 h10 m3 0 h-3"/>
         <polygon points="629 17 637 13 637 21"/>
         <polygon points="629 17 621 13 621 21"/>
      </svg>
