      <svg xmlns="http://www.w3.org/2000/svg" width="814" height="178">
         <defs>
            <style type="text/css">
               @namespace "http://www.w3.org/2000/svg";
               .line                 {fill: none; stroke: #1F1F1F;}
               .bold-line            {stroke: #0A0A0A; shape-rendering: crispEdges; stroke-width:
               2; }
               .thin-line            {stroke: #0F0F0F; shape-rendering: crispEdges}
               .filled               {fill: #1F1F1F; stroke: none;}
               text.terminal         {font-family: Verdana, Sans-serif;
               font-size: 12px;
               fill: #0A0A0A;
               font-weight: bold;
               }
               text.nonterminal      {font-family: Verdana, Sans-serif; font-style: italic;
               font-size: 12px;
               fill: #0D0D0D;
               }
               text.regexp           {font-family: Verdana, Sans-serif;
               font-size: 12px;
               fill: #0F0F0F;
               }
               rect, circle, polygon {fill: #1F1F1F; stroke: #1F1F1F;}
               rect.terminal         {fill: #CCCCCC; stroke: #1F1F1F;}
               rect.nonterminal      {fill: #E3E3E3; stroke: #1F1F1F;}
               rect.text             {fill: none; stroke: none;}    
               polygon.regexp        {fill: #EFEFEF; stroke: #1F1F1F;}
               
            </style>
         </defs>
         <polygon points="9 17 1 13 1 21"/>
         <polygon points="17 17 9 13 9 21"/>
         <rect x="31" y="3" width="76" height="32" rx="10"/>
         <rect x="29" y="1" width="76" height="32" class="terminal" rx="10"/>
         <text class="terminal" x="39" y="21">VERIFY(</text>
<!--     <a xmlns:xlink="http://www.w3.org/1999/xlink" xlink:href="#string" xlink:title="string"> -->
            <rect x="127" y="3" width="52" height="32"/>
            <rect x="125" y="1" width="52" height="32" class="nonterminal"/>
            <text class="nonterminal" x="135" y="21">string</text>
<!--     </a> -->
         <rect x="199" y="3" width="24" height="32" rx="10"/>
         <rect x="197" y="1" width="24" height="32" class="terminal" rx="10"/>
         <text class="terminal" x="207" y="21">,</text>
<!--     <a xmlns:xlink="http://www.w3.org/1999/xlink" xlink:href="#reference" xlink:title="reference"> -->
            <rect x="243" y="3" width="76" height="32"/>
            <rect x="241" y="1" width="76" height="32" class="nonterminal"/>
            <text class="nonterminal" x="251" y="21">reference</text>
<!--     </a> -->
         <rect x="339" y="3" width="24" height="32" rx="10"/>
         <rect x="337" y="1" width="24" height="32" class="terminal" rx="10"/>
         <text class="terminal" x="347" y="21">,</text>
         <rect x="403" y="35" width="44" height="32" rx="10"/>
         <rect x="401" y="33" width="44" height="32" class="terminal" rx="10"/>
         <text class="terminal" x="411" y="53">"N"</text>
<!--     <a xmlns:xlink="http://www.w3.org/1999/xlink" xlink:href="#option" xlink:title="option"> -->
            <rect x="403" y="79" width="58" height="32"/>
            <rect x="401" y="77" width="58" height="32" class="nonterminal"/>
            <text class="nonterminal" x="411" y="97">option</text>
<!--     </a> -->
         <rect x="501" y="3" width="24" height="32" rx="10"/>
         <rect x="499" y="1" width="24" height="32" class="terminal" rx="10"/>
         <text class="terminal" x="509" y="21">,</text>
<!--     <a xmlns:xlink="http://www.w3.org/1999/xlink" xlink:href="#start" xlink:title="start"> -->
            <rect x="565" y="35" width="48" height="32"/>
            <rect x="563" y="33" width="48" height="32" class="nonterminal"/>
            <text class="nonterminal" x="573" y="53">start</text>
<!--     </a> -->
         <rect x="673" y="35" width="24" height="32" rx="10"/>
         <rect x="671" y="33" width="24" height="32" class="terminal" rx="10"/>
         <text class="terminal" x="681" y="53">,</text>
<!--     <a xmlns:xlink="http://www.w3.org/1999/xlink" xlink:href="#length" xlink:title="length"> -->
            <rect x="717" y="35" width="56" height="32"/>
            <rect x="715" y="33" width="56" height="32" class="nonterminal"/>
            <text class="nonterminal" x="725" y="53">length</text>
<!--     </a> -->
         <rect x="761" y="145" width="26" height="32" rx="10"/>
         <rect x="759" y="143" width="26" height="32" class="terminal" rx="10"/>
         <text class="terminal" x="769" y="163">)</text>
         <svg:path xmlns:svg="http://www.w3.org/2000/svg" class="line" d="m17 17 h2 m0 0 h10 m76 0 h10 m0 0 h10 m52 0 h10 m0 0 h10 m24 0 h10 m0 0 h10 m76 0 h10 m0 0 h10 m24 0 h10 m20 0 h10 m0 0 h68 m-98 0 h20 m78 0 h20 m-118 0 q10 0 10 10 m98 0 q0 -10 10 -10 m-108 10 v12 m98 0 v-12 m-98 12 q0 10 10 10 m78 0 q10 0 10 -10 m-88 10 h10 m44 0 h10 m0 0 h14 m-88 -10 v20 m98 0 v-20 m-98 20 v24 m98 0 v-24 m-98 24 q0 10 10 10 m78 0 q10 0 10 -10 m-88 10 h10 m58 0 h10 m20 -76 h10 m24 0 h10 m20 0 h10 m0 0 h58 m-88 0 h20 m68 0 h20 m-108 0 q10 0 10 10 m88 0 q0 -10 10 -10 m-98 10 v12 m88 0 v-12 m-88 12 q0 10 10 10 m68 0 q10 0 10 -10 m-78 10 h10 m48 0 h10 m40 -32 h10 m0 0 h110 m-140 0 h20 m120 0 h20 m-160 0 q10 0 10 10 m140 0 q0 -10 10 -10 m-150 10 v12 m140 0 v-12 m-140 12 q0 10 10 10 m120 0 q10 0 10 -10 m-130 10 h10 m24 0 h10 m0 0 h10 m56 0 h10 m22 -32 l2 0 m2 0 l2 0 m2 0 l2 0 m-76 142 l2 0 m2 0 l2 0 m2 0 l2 0 m2 0 h10 m26 0 h10 m3 0 h-3"/>
         <polygon points="805 159 813 155 813 163"/>
         <polygon points="805 159 797 155 797 163"/>
      </svg>
