<svg xmlns="http://www.w3.org/2000/svg" width="831" height="179">
         <defs>
            <style type="text/css">
               @namespace "http://www.w3.org/2000/svg";
               .line                 {fill: none; stroke: #1F1F1F;}
               .bold-line            {stroke: #0A0A0A; shape-rendering: crispEdges; stroke-width:
               2; }
               .thin-line            {stroke: #0F0F0F; shape-rendering: crispEdges}
               .filled               {fill: #1F1F1F; stroke: none;}
               text.terminal         {font-family: Verdana, Sans-serif;
               font-size: 12px;
               fill: #0A0A0A;
               font-weight: bold;
               }
               text.nonterminal      {font-family: Verdana, Sans-serif; font-style: italic;
               font-size: 12px;
               fill: #0D0D0D;
               }
               text.regexp           {font-family: Verdana, Sans-serif;
               font-size: 12px;
               fill: #0F0F0F;
               }
               rect, circle, polygon {fill: #1F1F1F; stroke: #1F1F1F;}
               rect.terminal         {fill: #CCCCCC; stroke: #1F1F1F;}
               rect.nonterminal      {fill: #E3E3E3; stroke: #1F1F1F;}
               rect.text             {fill: none; stroke: none;}
               polygon.regexp        {fill: #EFEFEF; stroke: #1F1F1F;}

            </style>
         </defs>

         <defs>
            <style type="text/css">
    @namespace "http://www.w3.org/2000/svg";
    .line                 {fill: none; stroke: #1F1F1F;}
    .bold-line            {stroke: #0A0A0A; shape-rendering: crispEdges; stroke-width: 2; }
    .thin-line            {stroke: #0F0F0F; shape-rendering: crispEdges}
    .filled               {fill: #1F1F1F; stroke: none;}
    text.terminal         {font-family: Verdana, Sans-serif;
                            font-size: 12px;
                            fill: #0A0A0A;
                            font-weight: bold;
                          }
    text.nonterminal      {font-family: Verdana, Sans-serif;
                            font-size: 12px;
                            fill: #0D0D0D;
                            font-weight: normal;
                          }
    text.regexp           {font-family: Verdana, Sans-serif;
                            font-size: 12px;
                            fill: #0F0F0F;
                            font-weight: normal;
                          }
    rect, circle, polygon {fill: #1F1F1F; stroke: #1F1F1F;}
    rect.terminal         {fill: #cccccc; stroke: #1F1F1F;}
    rect.nonterminal      {fill: #E3E3E3; stroke: #1F1F1F;}
    rect.text             {fill: none; stroke: none;}    
    polygon.regexp        {fill: #EFEFEF; stroke: #1F1F1F;}
  </style>
         </defs>
         <polygon points="9 17 1 13 1 21"/>
         <polygon points="17 17 9 13 9 21"/>
         <rect x="31" y="3" width="76" height="32" rx="10"/>
         <rect x="29" y="1" width="76" height="32" class="terminal" rx="10"/>
         <text class="terminal" x="39" y="21">VERIFY(</text><a xmlns:xlink="http://www.w3.org/1999/xlink" xlink:href="#string" xlink:title="string">
            <rect x="127" y="3" width="56" height="32"/>
            <rect x="125" y="1" width="56" height="32" class="nonterminal"/>
            <text class="nonterminal" x="135" y="21">string</text></a><rect x="203" y="3" width="24" height="32" rx="10"/>
         <rect x="201" y="1" width="24" height="32" class="terminal" rx="10"/>
         <text class="terminal" x="211" y="21">,</text><a xmlns:xlink="http://www.w3.org/1999/xlink" xlink:href="#reference" xlink:title="reference">
            <rect x="247" y="3" width="80" height="32"/>
            <rect x="245" y="1" width="80" height="32" class="nonterminal"/>
            <text class="nonterminal" x="255" y="21">reference</text></a><rect x="347" y="3" width="24" height="32" rx="10"/>
         <rect x="345" y="1" width="24" height="32" class="terminal" rx="10"/>
         <text class="terminal" x="355" y="21">,</text>
         <rect x="411" y="35" width="44" height="32" rx="10"/>
         <rect x="409" y="33" width="44" height="32" class="terminal" rx="10"/>
         <text class="terminal" x="419" y="53">"N"</text><a xmlns:xlink="http://www.w3.org/1999/xlink" xlink:href="#option" xlink:title="option">
            <rect x="411" y="79" width="60" height="32"/>
            <rect x="409" y="77" width="60" height="32" class="nonterminal"/>
            <text class="nonterminal" x="419" y="97">option</text></a><rect x="511" y="3" width="24" height="32" rx="10"/>
         <rect x="509" y="1" width="24" height="32" class="terminal" rx="10"/>
         <text class="terminal" x="519" y="21">,</text><a xmlns:xlink="http://www.w3.org/1999/xlink" xlink:href="#start" xlink:title="start">
            <rect x="575" y="35" width="50" height="32"/>
            <rect x="573" y="33" width="50" height="32" class="nonterminal"/>
            <text class="nonterminal" x="583" y="53">start</text></a><rect x="685" y="35" width="24" height="32" rx="10"/>
         <rect x="683" y="33" width="24" height="32" class="terminal" rx="10"/>
         <text class="terminal" x="693" y="53">,</text><a xmlns:xlink="http://www.w3.org/1999/xlink" xlink:href="#length" xlink:title="length">
            <rect x="729" y="35" width="60" height="32"/>
            <rect x="727" y="33" width="60" height="32" class="nonterminal"/>
            <text class="nonterminal" x="737" y="53">length</text></a><rect x="777" y="145" width="26" height="32" rx="10"/>
         <rect x="775" y="143" width="26" height="32" class="terminal" rx="10"/>
         <text class="terminal" x="785" y="163">)</text>
         <svg:path xmlns:svg="http://www.w3.org/2000/svg" class="line" d="m17 17 h2 m0 0 h10 m76 0 h10 m0 0 h10 m56 0 h10 m0 0 h10 m24 0 h10 m0 0 h10 m80 0 h10 m0 0 h10 m24 0 h10 m20 0 h10 m0 0 h70 m-100 0 h20 m80 0 h20 m-120 0 q10 0 10 10 m100 0 q0 -10 10 -10 m-110 10 v12 m100 0 v-12 m-100 12 q0 10 10 10 m80 0 q10 0 10 -10 m-90 10 h10 m44 0 h10 m0 0 h16 m-90 -10 v20 m100 0 v-20 m-100 20 v24 m100 0 v-24 m-100 24 q0 10 10 10 m80 0 q10 0 10 -10 m-90 10 h10 m60 0 h10 m20 -76 h10 m24 0 h10 m20 0 h10 m0 0 h60 m-90 0 h20 m70 0 h20 m-110 0 q10 0 10 10 m90 0 q0 -10 10 -10 m-100 10 v12 m90 0 v-12 m-90 12 q0 10 10 10 m70 0 q10 0 10 -10 m-80 10 h10 m50 0 h10 m40 -32 h10 m0 0 h114 m-144 0 h20 m124 0 h20 m-164 0 q10 0 10 10 m144 0 q0 -10 10 -10 m-154 10 v12 m144 0 v-12 m-144 12 q0 10 10 10 m124 0 q10 0 10 -10 m-134 10 h10 m24 0 h10 m0 0 h10 m60 0 h10 m22 -32 l2 0 m2 0 l2 0 m2 0 l2 0 m-76 142 l2 0 m2 0 l2 0 m2 0 l2 0 m2 0 h10 m26 0 h10 m3 0 h-3"/>
         <polygon points="821 159 829 155 829 163"/>
         <polygon points="821 159 813 155 813 163"/>
</svg>