      <svg xmlns="http://www.w3.org/2000/svg" width="882" height="96">
         <defs>
            <style type="text/css">
               @namespace "http://www.w3.org/2000/svg";
               .line                 {fill: none; stroke: #1F1F1F;}
               .bold-line            {stroke: #0A0A0A; shape-rendering: crispEdges; stroke-width:
               2; }
               .thin-line            {stroke: #0F0F0F; shape-rendering: crispEdges}
               .filled               {fill: #1F1F1F; stroke: none;}
               text.terminal         {font-family: Verdana, Sans-serif;
               font-size: 12px;
               fill: #0A0A0A;
               font-weight: bold;
               }
               text.nonterminal      {font-family: Verdana, Sans-serif; font-style: italic;
               font-size: 12px;
               fill: #0D0D0D;
               }
               text.regexp           {font-family: Verdana, Sans-serif;
               font-size: 12px;
               fill: #0F0F0F;
               }
               rect, circle, polygon {fill: #1F1F1F; stroke: #1F1F1F;}
               rect.terminal         {fill: #CCCCCC; stroke: #1F1F1F;}
               rect.nonterminal      {fill: #E3E3E3; stroke: #1F1F1F;}
               rect.text             {fill: none; stroke: none;}    
               polygon.regexp        {fill: #EFEFEF; stroke: #1F1F1F;}
               
            </style>
         </defs>
         <polygon points="9 17 1 13 1 21"/>
         <polygon points="17 17 9 13 9 21"/>
         <rect x="31" y="3" width="76" height="32" rx="10"/>
         <rect x="29" y="1" width="76" height="32" class="terminal" rx="10"/>
         <text class="terminal" x="39" y="21">VERIFY(</text>
<!--     <a xmlns:xlink="http://www.w3.org/1999/xlink" xlink:href="#string" xlink:title="string"> -->
            <rect x="127" y="3" width="56" height="32"/>
            <rect x="125" y="1" width="56" height="32" class="nonterminal"/>
            <text class="nonterminal" x="135" y="21">string</text>
<!--     </a> -->
         <rect x="203" y="3" width="24" height="32" rx="10"/>
         <rect x="201" y="1" width="24" height="32" class="terminal" rx="10"/>
         <text class="terminal" x="211" y="21">,</text>
<!--     <a xmlns:xlink="http://www.w3.org/1999/xlink" xlink:href="#reference" xlink:title="reference"> -->
            <rect x="247" y="3" width="80" height="32"/>
            <rect x="245" y="1" width="80" height="32" class="nonterminal"/>
            <text class="nonterminal" x="255" y="21">reference</text>
<!--     </a> -->
         <rect x="347" y="3" width="24" height="32" rx="10"/>
         <rect x="345" y="1" width="24" height="32" class="terminal" rx="10"/>
         <text class="terminal" x="355" y="21">,</text>
         <rect x="411" y="3" width="30" height="32" rx="10"/>
         <rect x="409" y="1" width="30" height="32" class="terminal" rx="10"/>
         <text class="terminal" x="419" y="21">N</text>
<!--     <a xmlns:xlink="http://www.w3.org/1999/xlink" xlink:href="#option" xlink:title="option"> -->
            <rect x="411" y="47" width="60" height="32"/>
            <rect x="409" y="45" width="60" height="32" class="nonterminal"/>
            <text class="nonterminal" x="419" y="65">option</text>
<!--     </a> -->
         <rect x="511" y="3" width="24" height="32" rx="10"/>
         <rect x="509" y="1" width="24" height="32" class="terminal" rx="10"/>
         <text class="terminal" x="519" y="21">,</text>
<!--     <a xmlns:xlink="http://www.w3.org/1999/xlink" xlink:href="#start" xlink:title="start"> -->
            <rect x="575" y="3" width="50" height="32"/>
            <rect x="573" y="1" width="50" height="32" class="nonterminal"/>
            <text class="nonterminal" x="583" y="21">start</text>
<!--     </a> -->
         <rect x="665" y="3" width="24" height="32" rx="10"/>
         <rect x="663" y="1" width="24" height="32" class="terminal" rx="10"/>
         <text class="terminal" x="673" y="21">,</text>
<!--     <a xmlns:xlink="http://www.w3.org/1999/xlink" xlink:href="#length" xlink:title="length"> -->
            <rect x="729" y="3" width="60" height="32"/>
            <rect x="727" y="1" width="60" height="32" class="nonterminal"/>
            <text class="nonterminal" x="737" y="21">length</text>
<!--     </a> -->
         <rect x="829" y="3" width="26" height="32" rx="10"/>
         <rect x="827" y="1" width="26" height="32" class="terminal" rx="10"/>
         <text class="terminal" x="837" y="21">)</text>
         <svg:path xmlns:svg="http://www.w3.org/2000/svg" class="line" d="m17 17 h2 m0 0 h10 m76 0 h10 m0 0 h10 m56 0 h10 m0 0 h10 m24 0 h10 m0 0 h10 m80 0 h10 m0 0 h10 m24 0 h10 m20 0 h10 m30 0 h10 m0 0 h30 m-100 0 h20 m80 0 h20 m-120 0 q10 0 10 10 m100 0 q0 -10 10 -10 m-110 10 v24 m100 0 v-24 m-100 24 q0 10 10 10 m80 0 q10 0 10 -10 m-90 10 h10 m60 0 h10 m-90 -10 v20 m100 0 v-20 m-100 20 v14 m100 0 v-14 m-100 14 q0 10 10 10 m80 0 q10 0 10 -10 m-90 10 h10 m0 0 h70 m20 -78 h10 m24 0 h10 m20 0 h10 m50 0 h10 m-90 0 h20 m70 0 h20 m-110 0 q10 0 10 10 m90 0 q0 -10 10 -10 m-100 10 v14 m90 0 v-14 m-90 14 q0 10 10 10 m70 0 q10 0 10 -10 m-80 10 h10 m0 0 h60 m20 -34 h10 m24 0 h10 m20 0 h10 m60 0 h10 m-100 0 h20 m80 0 h20 m-120 0 q10 0 10 10 m100 0 q0 -10 10 -10 m-110 10 v14 m100 0 v-14 m-100 14 q0 10 10 10 m80 0 q10 0 10 -10 m-90 10 h10 m0 0 h70 m20 -34 h10 m26 0 h10 m3 0 h-3"/>
         <polygon points="873 17 881 13 881 21"/>
         <polygon points="873 17 865 13 865 21"/>
      </svg>
