<svg xmlns="http://www.w3.org/2000/svg" width="565" height="657">
         <defs>
            <style type="text/css">
               @namespace "http://www.w3.org/2000/svg";
               .line                 {fill: none; stroke: #1F1F1F;}
               .bold-line            {stroke: #0A0A0A; shape-rendering: crispEdges; stroke-width:
               2; }
               .thin-line            {stroke: #0F0F0F; shape-rendering: crispEdges}
               .filled               {fill: #1F1F1F; stroke: none;}
               text.terminal         {font-family: Verdana, Sans-serif;
               font-size: 12px;
               fill: #0A0A0A;
               font-weight: bold;
               }
               text.nonterminal      {font-family: Verdana, Sans-serif; font-style: italic;
               font-size: 12px;
               fill: #0D0D0D;
               }
               text.regexp           {font-family: Verdana, Sans-serif;
               font-size: 12px;
               fill: #0F0F0F;
               }
               rect, circle, polygon {fill: #1F1F1F; stroke: #1F1F1F;}
               rect.terminal         {fill: #CCCCCC; stroke: #1F1F1F;}
               rect.nonterminal      {fill: #E3E3E3; stroke: #1F1F1F;}
               rect.text             {fill: none; stroke: none;}
               polygon.regexp        {fill: #EFEFEF; stroke: #1F1F1F;}

            </style>
         </defs>

         <polygon points="9 61 1 57 1 65"/>
         <polygon points="17 61 9 57 9 65"/>
         <rect x="31" y="47" width="82" height="32" rx="10"/>
         <rect x="29" y="45" width="82" height="32" class="terminal" rx="10"/>
         <text class="terminal" x="39" y="65">XRANGE(</text><a xmlns:xlink="http://www.w3.org/1999/xlink" xlink:href="#start" xlink:title="start">
            <rect x="213" y="79" width="50" height="32"/>
            <rect x="211" y="77" width="50" height="32" class="nonterminal"/>
            <text class="nonterminal" x="221" y="97">start</text></a><rect x="303" y="47" width="24" height="32" rx="10"/>
         <rect x="301" y="45" width="24" height="32" class="terminal" rx="10"/>
         <text class="terminal" x="311" y="65">,</text><a xmlns:xlink="http://www.w3.org/1999/xlink" xlink:href="#end" xlink:title="end">
            <rect x="367" y="79" width="44" height="32"/>
            <rect x="365" y="77" width="44" height="32" class="nonterminal"/>
            <text class="nonterminal" x="375" y="97">end</text></a><rect x="193" y="123" width="68" height="32" rx="10"/>
         <rect x="191" y="121" width="68" height="32" class="terminal" rx="10"/>
         <text class="terminal" x="201" y="141">ALNUM</text>
         <rect x="193" y="167" width="66" height="32" rx="10"/>
         <rect x="191" y="165" width="66" height="32" class="terminal" rx="10"/>
         <text class="terminal" x="201" y="185">ALPHA</text>
         <rect x="193" y="211" width="66" height="32" rx="10"/>
         <rect x="191" y="209" width="66" height="32" class="terminal" rx="10"/>
         <text class="terminal" x="201" y="229">BLANK</text>
         <rect x="193" y="255" width="64" height="32" rx="10"/>
         <rect x="191" y="253" width="64" height="32" class="terminal" rx="10"/>
         <text class="terminal" x="201" y="273">CNTRL</text>
         <rect x="193" y="299" width="60" height="32" rx="10"/>
         <rect x="191" y="297" width="60" height="32" class="terminal" rx="10"/>
         <text class="terminal" x="201" y="317">DIGIT</text>
         <rect x="193" y="343" width="66" height="32" rx="10"/>
         <rect x="191" y="341" width="66" height="32" class="terminal" rx="10"/>
         <text class="terminal" x="201" y="361">GRAPH</text>
         <rect x="193" y="387" width="70" height="32" rx="10"/>
         <rect x="191" y="385" width="70" height="32" class="terminal" rx="10"/>
         <text class="terminal" x="201" y="405">LOWER</text>
         <rect x="193" y="431" width="62" height="32" rx="10"/>
         <rect x="191" y="429" width="62" height="32" class="terminal" rx="10"/>
         <text class="terminal" x="201" y="449">PRINT</text>
         <rect x="193" y="475" width="66" height="32" rx="10"/>
         <rect x="191" y="473" width="66" height="32" class="terminal" rx="10"/>
         <text class="terminal" x="201" y="493">PUNCT</text>
         <rect x="193" y="519" width="64" height="32" rx="10"/>
         <rect x="191" y="517" width="64" height="32" class="terminal" rx="10"/>
         <text class="terminal" x="201" y="537">SPACE</text>
         <rect x="193" y="563" width="64" height="32" rx="10"/>
         <rect x="191" y="561" width="64" height="32" class="terminal" rx="10"/>
         <text class="terminal" x="201" y="581">UPPER</text>
         <rect x="193" y="607" width="70" height="32" rx="10"/>
         <rect x="191" y="605" width="70" height="32" class="terminal" rx="10"/>
         <text class="terminal" x="201" y="625">XDIGIT</text>
         <rect x="173" y="3" width="24" height="32" rx="10"/>
         <rect x="171" y="1" width="24" height="32" class="terminal" rx="10"/>
         <text class="terminal" x="181" y="21">,</text>
         <rect x="511" y="47" width="26" height="32" rx="10"/>
         <rect x="509" y="45" width="26" height="32" class="terminal" rx="10"/>
         <text class="terminal" x="519" y="65">)</text>
         <path class="line" d="m17 61 h2 m0 0 h10 m82 0 h10 m80 0 h10 m0 0 h60 m-90 0 h20 m70 0 h20 m-110 0 q10 0 10 10 m90 0 q0 -10 10 -10 m-100 10 v12 m90 0 v-12 m-90 12 q0 10 10 10 m70 0 q10 0 10 -10 m-80 10 h10 m50 0 h10 m20 -32 h10 m24 0 h10 m20 0 h10 m0 0 h54 m-84 0 h20 m64 0 h20 m-104 0 q10 0 10 10 m84 0 q0 -10 10 -10 m-94 10 v12 m84 0 v-12 m-84 12 q0 10 10 10 m64 0 q10 0 10 -10 m-74 10 h10 m44 0 h10 m-258 -32 h20 m258 0 h20 m-298 0 q10 0 10 10 m278 0 q0 -10 10 -10 m-288 10 v56 m278 0 v-56 m-278 56 q0 10 10 10 m258 0 q10 0 10 -10 m-268 10 h10 m68 0 h10 m0 0 h170 m-268 -10 v20 m278 0 v-20 m-278 20 v24 m278 0 v-24 m-278 24 q0 10 10 10 m258 0 q10 0 10 -10 m-268 10 h10 m66 0 h10 m0 0 h172 m-268 -10 v20 m278 0 v-20 m-278 20 v24 m278 0 v-24 m-278 24 q0 10 10 10 m258 0 q10 0 10 -10 m-268 10 h10 m66 0 h10 m0 0 h172 m-268 -10 v20 m278 0 v-20 m-278 20 v24 m278 0 v-24 m-278 24 q0 10 10 10 m258 0 q10 0 10 -10 m-268 10 h10 m64 0 h10 m0 0 h174 m-268 -10 v20 m278 0 v-20 m-278 20 v24 m278 0 v-24 m-278 24 q0 10 10 10 m258 0 q10 0 10 -10 m-268 10 h10 m60 0 h10 m0 0 h178 m-268 -10 v20 m278 0 v-20 m-278 20 v24 m278 0 v-24 m-278 24 q0 10 10 10 m258 0 q10 0 10 -10 m-268 10 h10 m66 0 h10 m0 0 h172 m-268 -10 v20 m278 0 v-20 m-278 20 v24 m278 0 v-24 m-278 24 q0 10 10 10 m258 0 q10 0 10 -10 m-268 10 h10 m70 0 h10 m0 0 h168 m-268 -10 v20 m278 0 v-20 m-278 20 v24 m278 0 v-24 m-278 24 q0 10 10 10 m258 0 q10 0 10 -10 m-268 10 h10 m62 0 h10 m0 0 h176 m-268 -10 v20 m278 0 v-20 m-278 20 v24 m278 0 v-24 m-278 24 q0 10 10 10 m258 0 q10 0 10 -10 m-268 10 h10 m66 0 h10 m0 0 h172 m-268 -10 v20 m278 0 v-20 m-278 20 v24 m278 0 v-24 m-278 24 q0 10 10 10 m258 0 q10 0 10 -10 m-268 10 h10 m64 0 h10 m0 0 h174 m-268 -10 v20 m278 0 v-20 m-278 20 v24 m278 0 v-24 m-278 24 q0 10 10 10 m258 0 q10 0 10 -10 m-268 10 h10 m64 0 h10 m0 0 h174 m-268 -10 v20 m278 0 v-20 m-278 20 v24 m278 0 v-24 m-278 24 q0 10 10 10 m258 0 q10 0 10 -10 m-268 10 h10 m70 0 h10 m0 0 h168 m-298 -560 l20 0 m-1 0 q-9 0 -9 -10 l0 -24 q0 -10 10 -10 m298 44 l20 0 m-20 0 q10 0 10 -10 l0 -24 q0 -10 -10 -10 m-298 0 h10 m24 0 h10 m0 0 h254 m-338 44 h20 m338 0 h20 m-378 0 q10 0 10 10 m358 0 q0 -10 10 -10 m-368 10 v574 m358 0 v-574 m-358 574 q0 10 10 10 m338 0 q10 0 10 -10 m-348 10 h10 m0 0 h328 m20 -594 h10 m26 0 h10 m3 0 h-3"/>
         <polygon points="555 61 563 57 563 65"/>
         <polygon points="555 61 547 57 547 65"/>
</svg>