<svg xmlns="http://www.w3.org/2000/svg" width="749" height="255">
         <defs>
            <style type="text/css">
               @namespace "http://www.w3.org/2000/svg";
               .line                 {fill: none; stroke: #1F1F1F;}
               .bold-line            {stroke: #0A0A0A; shape-rendering: crispEdges; stroke-width:
               2; }
               .thin-line            {stroke: #0F0F0F; shape-rendering: crispEdges}
               .filled               {fill: #1F1F1F; stroke: none;}
               text.terminal         {font-family: Verdana, Sans-serif;
               font-size: 12px;
               fill: #0A0A0A;
               font-weight: bold;
               }
               text.nonterminal      {font-family: Verdana, Sans-serif; font-style: italic;
               font-size: 12px;
               fill: #0D0D0D;
               }
               text.regexp           {font-family: Verdana, Sans-serif;
               font-size: 12px;
               fill: #0F0F0F;
               }
               rect, circle, polygon {fill: #1F1F1F; stroke: #1F1F1F;}
               rect.terminal         {fill: #CCCCCC; stroke: #1F1F1F;}
               rect.nonterminal      {fill: #E3E3E3; stroke: #1F1F1F;}
               rect.text             {fill: none; stroke: none;}
               polygon.regexp        {fill: #EFEFEF; stroke: #1F1F1F;}

            </style>
         </defs>

         <defs>
            <style type="text/css">
    @namespace "http://www.w3.org/2000/svg";
    .line                 {fill: none; stroke: #1F1F1F; stroke-width: 1;}
    .bold-line            {stroke: #0A0A0A; shape-rendering: crispEdges; stroke-width: 2;}
    .thin-line            {stroke: #0F0F0F; shape-rendering: crispEdges}
    .filled               {fill: #1F1F1F; stroke: none;}
    text.terminal         {font-family: Verdana, Sans-serif;
                            font-size: 12px;
                            fill: #0A0A0A;
                            font-weight: bold;
                          }
    text.nonterminal      {font-family: Verdana, Sans-serif;
                            font-size: 12px;
                            fill: #0D0D0D;
                            font-weight: normal;
                          }
    text.regexp           {font-family: Verdana, Sans-serif;
                            font-size: 12px;
                            fill: #0F0F0F;
                            font-weight: normal;
                          }
    rect, circle, polygon {fill: #1F1F1F; stroke: #1F1F1F;}
    rect.terminal         {fill: #cccccc; stroke: #1F1F1F; stroke-width: 1;}
    rect.nonterminal      {fill: #E3E3E3; stroke: #1F1F1F; stroke-width: 1;}
    rect.text             {fill: none; stroke: none;}
    polygon.regexp        {fill: #EFEFEF; stroke: #1F1F1F; stroke-width: 1;}
  </style>
         </defs>
         <polygon points="11 17 3 13 3 21"/>
         <polygon points="19 17 11 13 11 21"/>
         <rect x="33" y="3" width="154" height="32" rx="10"/>
         <rect x="31" y="1" width="154" height="32" class="terminal" rx="10"/>
         <text class="terminal" x="41" y="21">SysTextScreenSize(</text>
         <rect x="65" y="101" width="104" height="32" rx="10"/>
         <rect x="63" y="99" width="104" height="32" class="terminal" rx="10"/>
         <text class="terminal" x="73" y="119">BUFFERSIZE</text>
         <rect x="229" y="101" width="24" height="32" rx="10"/>
         <rect x="227" y="99" width="24" height="32" class="terminal" rx="10"/>
         <text class="terminal" x="237" y="119">,</text><a xmlns:xlink="http://www.w3.org/1999/xlink" xlink:href="#rows" xlink:title="rows">
            <rect x="273" y="101" width="50" height="32"/>
            <rect x="271" y="99" width="50" height="32" class="nonterminal"/>
            <text class="nonterminal" x="281" y="119">rows</text></a><rect x="343" y="101" width="24" height="32" rx="10"/>
         <rect x="341" y="99" width="24" height="32" class="terminal" rx="10"/>
         <text class="terminal" x="351" y="119">,</text><a xmlns:xlink="http://www.w3.org/1999/xlink" xlink:href="#columns" xlink:title="columns">
            <rect x="387" y="101" width="72" height="32"/>
            <rect x="385" y="99" width="72" height="32" class="nonterminal"/>
            <text class="nonterminal" x="395" y="119">columns</text></a><rect x="45" y="145" width="120" height="32" rx="10"/>
         <rect x="43" y="143" width="120" height="32" class="terminal" rx="10"/>
         <text class="terminal" x="53" y="163">WINDOWRECT</text>
         <rect x="205" y="177" width="24" height="32" rx="10"/>
         <rect x="203" y="175" width="24" height="32" class="terminal" rx="10"/>
         <text class="terminal" x="213" y="195">,</text><a xmlns:xlink="http://www.w3.org/1999/xlink" xlink:href="#top" xlink:title="top">
            <rect x="249" y="177" width="40" height="32"/>
            <rect x="247" y="175" width="40" height="32" class="nonterminal"/>
            <text class="nonterminal" x="257" y="195">top</text></a><rect x="309" y="177" width="24" height="32" rx="10"/>
         <rect x="307" y="175" width="24" height="32" class="terminal" rx="10"/>
         <text class="terminal" x="317" y="195">,</text><a xmlns:xlink="http://www.w3.org/1999/xlink" xlink:href="#left" xlink:title="left">
            <rect x="353" y="177" width="40" height="32"/>
            <rect x="351" y="175" width="40" height="32" class="nonterminal"/>
            <text class="nonterminal" x="361" y="195">left</text></a><rect x="413" y="177" width="24" height="32" rx="10"/>
         <rect x="411" y="175" width="24" height="32" class="terminal" rx="10"/>
         <text class="terminal" x="421" y="195">,</text><a xmlns:xlink="http://www.w3.org/1999/xlink" xlink:href="#bottom" xlink:title="bottom">
            <rect x="457" y="177" width="66" height="32"/>
            <rect x="455" y="175" width="66" height="32" class="nonterminal"/>
            <text class="nonterminal" x="465" y="195">bottom</text></a><rect x="543" y="177" width="24" height="32" rx="10"/>
         <rect x="541" y="175" width="24" height="32" class="terminal" rx="10"/>
         <text class="terminal" x="551" y="195">,</text><a xmlns:xlink="http://www.w3.org/1999/xlink" xlink:href="#right" xlink:title="right">
            <rect x="587" y="177" width="48" height="32"/>
            <rect x="585" y="175" width="48" height="32" class="nonterminal"/>
            <text class="nonterminal" x="595" y="195">right</text></a><rect x="45" y="221" width="146" height="32" rx="10"/>
         <rect x="43" y="219" width="146" height="32" class="terminal" rx="10"/>
         <text class="terminal" x="53" y="239">MAXWINDOWSIZE</text>
         <rect x="695" y="69" width="26" height="32" rx="10"/>
         <rect x="693" y="67" width="26" height="32" class="terminal" rx="10"/>
         <text class="terminal" x="703" y="87">)</text>
         <svg:path xmlns:svg="http://www.w3.org/2000/svg" class="line" d="m19 17 h2 m0 0 h10 m154 0 h10 m2 0 l2 0 m2 0 l2 0 m2 0 l2 0 m-206 66 l2 0 m2 0 l2 0 m2 0 l2 0 m42 0 h10 m0 0 h114 m-144 0 h20 m124 0 h20 m-164 0 q10 0 10 10 m144 0 q0 -10 10 -10 m-154 10 v12 m144 0 v-12 m-144 12 q0 10 10 10 m124 0 q10 0 10 -10 m-134 10 h10 m104 0 h10 m40 -32 h10 m0 0 h240 m-270 0 h20 m250 0 h20 m-290 0 q10 0 10 10 m270 0 q0 -10 10 -10 m-280 10 v12 m270 0 v-12 m-270 12 q0 10 10 10 m250 0 q10 0 10 -10 m-260 10 h10 m24 0 h10 m0 0 h10 m50 0 h10 m0 0 h10 m24 0 h10 m0 0 h10 m72 0 h10 m20 -32 h176 m-650 0 h20 m630 0 h20 m-670 0 q10 0 10 10 m650 0 q0 -10 10 -10 m-660 10 v56 m650 0 v-56 m-650 56 q0 10 10 10 m630 0 q10 0 10 -10 m-640 10 h10 m120 0 h10 m20 0 h10 m0 0 h440 m-470 0 h20 m450 0 h20 m-490 0 q10 0 10 10 m470 0 q0 -10 10 -10 m-480 10 v12 m470 0 v-12 m-470 12 q0 10 10 10 m450 0 q10 0 10 -10 m-460 10 h10 m24 0 h10 m0 0 h10 m40 0 h10 m0 0 h10 m24 0 h10 m0 0 h10 m40 0 h10 m0 0 h10 m24 0 h10 m0 0 h10 m66 0 h10 m0 0 h10 m24 0 h10 m0 0 h10 m48 0 h10 m-620 -42 v20 m650 0 v-20 m-650 20 v56 m650 0 v-56 m-650 56 q0 10 10 10 m630 0 q10 0 10 -10 m-640 10 h10 m146 0 h10 m0 0 h464 m20 -152 h10 m26 0 h10 m3 0 h-3"/>
         <polygon points="739 83 747 79 747 87"/>
         <polygon points="739 83 731 79 731 87"/>
</svg>