      <svg xmlns="http://www.w3.org/2000/svg" width="712" height="36">
         <defs>
            <style type="text/css">
               @namespace "http://www.w3.org/2000/svg";
               .line                 {fill: none; stroke: #1F1F1F;}
               .bold-line            {stroke: #0A0A0A; shape-rendering: crispEdges; stroke-width:
               2; }
               .thin-line            {stroke: #0F0F0F; shape-rendering: crispEdges}
               .filled               {fill: #1F1F1F; stroke: none;}
               text.terminal         {font-family: Verdana, Sans-serif;
               font-size: 12px;
               fill: #0A0A0A;
               font-weight: bold;
               }
               text.nonterminal      {font-family: Verdana, Sans-serif;
               font-size: 12px;
               fill: #0D0D0D;
               }
               text.regexp           {font-family: Verdana, Sans-serif;
               font-size: 12px;
               fill: #0F0F0F;
               }
               rect, circle, polygon {fill: #1F1F1F; stroke: #1F1F1F;}
               rect.terminal         {fill: #CCCCCC; stroke: #1F1F1F;}
               rect.nonterminal      {fill: #E3E3E3; stroke: #1F1F1F;}
               rect.text             {fill: none; stroke: none;}    
               polygon.regexp        {fill: #EFEFEF; stroke: #1F1F1F;}
               
            </style>
         </defs>
         <polygon points="9 17 1 13 1 21"/>
         <polygon points="17 17 9 13 9 21"/>
         <a xmlns:xlink="http://www.w3.org/1999/xlink" xlink:href="#pad" xlink:title="pad">
            <rect x="31" y="3" width="44" height="32"/>
            <rect x="29" y="1" width="44" height="32" class="nonterminal"/>
            <text class="nonterminal" x="39" y="21">pad</text>
         </a>
         <rect x="95" y="3" width="30" height="32" rx="10"/>
         <rect x="93" y="1" width="30" height="32" class="terminal" rx="10"/>
         <text class="terminal" x="103" y="21">~</text>
         <rect x="145" y="3" width="74" height="32" rx="10"/>
         <rect x="143" y="1" width="74" height="32" class="terminal" rx="10"/>
         <text class="terminal" x="153" y="21">subpad(</text>
         <a xmlns:xlink="http://www.w3.org/1999/xlink" xlink:href="#nlines" xlink:title="nlines">
            <rect x="239" y="3" width="56" height="32"/>
            <rect x="237" y="1" width="56" height="32" class="nonterminal"/>
            <text class="nonterminal" x="247" y="21">nlines</text>
         </a>
         <rect x="315" y="3" width="24" height="32" rx="10"/>
         <rect x="313" y="1" width="24" height="32" class="terminal" rx="10"/>
         <text class="terminal" x="323" y="21">,</text>
         <a xmlns:xlink="http://www.w3.org/1999/xlink" xlink:href="#ncols" xlink:title="ncols">
            <rect x="359" y="3" width="52" height="32"/>
            <rect x="357" y="1" width="52" height="32" class="nonterminal"/>
            <text class="nonterminal" x="367" y="21">ncols</text>
         </a>
         <rect x="431" y="3" width="24" height="32" rx="10"/>
         <rect x="429" y="1" width="24" height="32" class="terminal" rx="10"/>
         <text class="terminal" x="439" y="21">,</text>
         <a xmlns:xlink="http://www.w3.org/1999/xlink" xlink:href="#begy" xlink:title="begy">
            <rect x="475" y="3" width="50" height="32"/>
            <rect x="473" y="1" width="50" height="32" class="nonterminal"/>
            <text class="nonterminal" x="483" y="21">begy</text>
         </a>
         <rect x="545" y="3" width="24" height="32" rx="10"/>
         <rect x="543" y="1" width="24" height="32" class="terminal" rx="10"/>
         <text class="terminal" x="553" y="21">,</text>
         <a xmlns:xlink="http://www.w3.org/1999/xlink" xlink:href="#begx" xlink:title="begx">
            <rect x="589" y="3" width="50" height="32"/>
            <rect x="587" y="1" width="50" height="32" class="nonterminal"/>
            <text class="nonterminal" x="597" y="21">begx</text>
         </a>
         <rect x="659" y="3" width="26" height="32" rx="10"/>
         <rect x="657" y="1" width="26" height="32" class="terminal" rx="10"/>
         <text class="terminal" x="667" y="21">)</text>
         <svg:path xmlns:svg="http://www.w3.org/2000/svg" class="line" d="m17 17 h2 m0 0 h10 m44 0 h10 m0 0 h10 m30 0 h10 m0 0 h10 m74 0 h10 m0 0 h10 m56 0 h10 m0 0 h10 m24 0 h10 m0 0 h10 m52 0 h10 m0 0 h10 m24 0 h10 m0 0 h10 m50 0 h10 m0 0 h10 m24 0 h10 m0 0 h10 m50 0 h10 m0 0 h10 m26 0 h10 m3 0 h-3"/>
         <polygon points="703 17 711 13 711 21"/>
         <polygon points="703 17 695 13 695 21"/>
      </svg>
