      <svg xmlns="http://www.w3.org/2000/svg" width="426" height="52">
         <defs>
            <style type="text/css">
               @namespace "http://www.w3.org/2000/svg";
               .line                 {fill: none; stroke: #1F1F1F;}
               .bold-line            {stroke: #0A0A0A; shape-rendering: crispEdges; stroke-width:
               2; }
               .thin-line            {stroke: #0F0F0F; shape-rendering: crispEdges}
               .filled               {fill: #1F1F1F; stroke: none;}
               text.terminal         {font-family: Verdana, Sans-serif;
               font-size: 12px;
               fill: #0A0A0A;
               font-weight: bold;
               }
               text.nonterminal      {font-family: Verdana, Sans-serif;
               font-size: 12px;
               fill: #0D0D0D;
               }
               text.regexp           {font-family: Verdana, Sans-serif;
               font-size: 12px;
               fill: #0F0F0F;
               }
               rect, circle, polygon {fill: #1F1F1F; stroke: #1F1F1F;}
               rect.terminal         {fill: #CCCCCC; stroke: #1F1F1F;}
               rect.nonterminal      {fill: #E3E3E3; stroke: #1F1F1F;}
               rect.text             {fill: none; stroke: none;}    
               polygon.regexp        {fill: #EFEFEF; stroke: #1F1F1F;}
               
            </style>
         </defs>
         <polygon points="9 17 1 13 1 21"/>
         <polygon points="17 17 9 13 9 21"/>
         <a xmlns:xlink="http://www.w3.org/1999/xlink" xlink:href="#win" xlink:title="win">
            <rect x="31" y="3" width="42" height="32"/>
            <rect x="29" y="1" width="42" height="32" class="nonterminal"/>
            <text class="nonterminal" x="39" y="21">win</text>
         </a>
         <rect x="93" y="3" width="30" height="32" rx="10"/>
         <rect x="91" y="1" width="30" height="32" class="terminal" rx="10"/>
         <text class="terminal" x="101" y="21">~</text>
         <rect x="143" y="3" width="104" height="32" rx="10"/>
         <rect x="141" y="1" width="104" height="32" class="terminal" rx="10"/>
         <text class="terminal" x="151" y="21">mousemask(</text>
         <a xmlns:xlink="http://www.w3.org/1999/xlink" xlink:href="#new" xlink:title="new">
            <rect x="287" y="3" width="46" height="32"/>
            <rect x="285" y="1" width="46" height="32" class="nonterminal"/>
            <text class="nonterminal" x="295" y="21">new</text>
         </a>
         <rect x="373" y="3" width="26" height="32" rx="10"/>
         <rect x="371" y="1" width="26" height="32" class="terminal" rx="10"/>
         <text class="terminal" x="381" y="21">)</text>
         <svg:path xmlns:svg="http://www.w3.org/2000/svg" class="line" d="m17 17 h2 m0 0 h10 m42 0 h10 m0 0 h10 m30 0 h10 m0 0 h10 m104 0 h10 m20 0 h10 m46 0 h10 m-86 0 h20 m66 0 h20 m-106 0 q10 0 10 10 m86 0 q0 -10 10 -10 m-96 10 v14 m86 0 v-14 m-86 14 q0 10 10 10 m66 0 q10 0 10 -10 m-76 10 h10 m0 0 h56 m20 -34 h10 m26 0 h10 m3 0 h-3"/>
         <polygon points="417 17 425 13 425 21"/>
         <polygon points="417 17 409 13 409 21"/>
      </svg>
