      <svg xmlns="http://www.w3.org/2000/svg" width="448" height="112">
         <defs>
            <style type="text/css">
               @namespace "http://www.w3.org/2000/svg";
               .line                 {fill: none; stroke: #1F1F1F;}
               .bold-line            {stroke: #0A0A0A; shape-rendering: crispEdges; stroke-width:
               2; }
               .thin-line            {stroke: #0F0F0F; shape-rendering: crispEdges}
               .filled               {fill: #1F1F1F; stroke: none;}
               text.terminal         {font-family: Verdana, Sans-serif;
               font-size: 12px;
               fill: #0A0A0A;
               font-weight: bold;
               }
               text.nonterminal      {font-family: Verdana, Sans-serif; font-style: italic;
               font-size: 12px;
               fill: #0D0D0D;
               }
               text.regexp           {font-family: Verdana, Sans-serif;
               font-size: 12px;
               fill: #0F0F0F;
               }
               rect, circle, polygon {fill: #1F1F1F; stroke: #1F1F1F;}
               rect.terminal         {fill: #CCCCCC; stroke: #1F1F1F;}
               rect.nonterminal      {fill: #E3E3E3; stroke: #1F1F1F;}
               rect.text             {fill: none; stroke: none;}    
               polygon.regexp        {fill: #EFEFEF; stroke: #1F1F1F;}
               
            </style>
         </defs>
         <polygon points="9 17 1 13 1 21"/>
         <polygon points="17 17 9 13 9 21"/>
         <rect x="31" y="3" width="64" height="32" rx="10"/>
         <rect x="29" y="1" width="64" height="32" class="terminal" rx="10"/>
         <text class="terminal" x="39" y="21">REXXC</text>
<!--     <a xmlns:xlink="http://www.w3.org/1999/xlink" xlink:href="#inputfile" xlink:title="inputfile"> -->
            <rect x="115" y="3" width="70" height="32"/>
            <rect x="113" y="1" width="70" height="32" class="nonterminal"/>
            <text class="nonterminal" x="123" y="21">inputfile</text>
<!--     </a> -->
<!--     <a xmlns:xlink="http://www.w3.org/1999/xlink" xlink:href="#outputfile" xlink:title="outputfile"> -->
            <rect x="225" y="35" width="80" height="32"/>
            <rect x="223" y="33" width="80" height="32" class="nonterminal"/>
            <text class="nonterminal" x="233" y="53">outputfile</text>
<!--     </a> -->
         <rect x="365" y="35" width="36" height="32" rx="10"/>
         <rect x="363" y="33" width="36" height="32" class="terminal" rx="10"/>
         <text class="terminal" x="373" y="53">/S</text>
         <rect x="365" y="79" width="34" height="32" rx="10"/>
         <rect x="363" y="77" width="34" height="32" class="terminal" rx="10"/>
         <text class="terminal" x="373" y="97">-S</text>
         <svg:path xmlns:svg="http://www.w3.org/2000/svg" class="line" d="m17 17 h2 m0 0 h10 m64 0 h10 m0 0 h10 m70 0 h10 m20 0 h10 m0 0 h90 m-120 0 h20 m100 0 h20 m-140 0 q10 0 10 10 m120 0 q0 -10 10 -10 m-130 10 v12 m120 0 v-12 m-120 12 q0 10 10 10 m100 0 q10 0 10 -10 m-110 10 h10 m80 0 h10 m40 -32 h10 m0 0 h46 m-76 0 h20 m56 0 h20 m-96 0 q10 0 10 10 m76 0 q0 -10 10 -10 m-86 10 v12 m76 0 v-12 m-76 12 q0 10 10 10 m56 0 q10 0 10 -10 m-66 10 h10 m36 0 h10 m-66 -10 v20 m76 0 v-20 m-76 20 v24 m76 0 v-24 m-76 24 q0 10 10 10 m56 0 q10 0 10 -10 m-66 10 h10 m34 0 h10 m0 0 h2 m23 -76 h-3"/>
         <polygon points="439 17 447 13 447 21"/>
         <polygon points="439 17 431 13 431 21"/>
      </svg>
