      <svg xmlns="http://www.w3.org/2000/svg" width="856" height="124">
         <defs>
            <style type="text/css">
               @namespace "http://www.w3.org/2000/svg";
               .line                 {fill: none; stroke: #1F1F1F;}
               .bold-line            {stroke: #0A0A0A; shape-rendering: crispEdges; stroke-width:
               2; }
               .thin-line            {stroke: #0F0F0F; shape-rendering: crispEdges}
               .filled               {fill: #1F1F1F; stroke: none;}
               text.terminal         {font-family: Verdana, Sans-serif;
               font-size: 12px;
               fill: #0A0A0A;
               font-weight: bold;
               }
               text.nonterminal      {font-family: Verdana, Sans-serif;
               font-size: 12px;
               fill: #0D0D0D;
               }
               text.regexp           {font-family: Verdana, Sans-serif;
               font-size: 12px;
               fill: #0F0F0F;
               }
               rect, circle, polygon {fill: #1F1F1F; stroke: #1F1F1F;}
               rect.terminal         {fill: #cccccc; stroke: #1F1F1F;}
               rect.nonterminal      {fill: #E3E3E3; stroke: #1F1F1F;}
               rect.text             {fill: none; stroke: none;}    
               polygon.regexp        {fill: #EFEFEF; stroke: #1F1F1F;}
               
            </style>
         </defs>
         <polygon points="9 61 1 57 1 65"/>
         <polygon points="17 61 9 57 9 65"/>
         <a xmlns:xlink="http://www.w3.org/1999/xlink" xlink:href="#receiver" xlink:title="receiver">
            <rect x="31" y="47" width="70" height="32"/>
            <rect x="29" y="45" width="70" height="32" class="nonterminal"/>
            <text class="nonterminal" x="39" y="65">receiver</text>
         </a>
         <rect x="141" y="47" width="30" height="32" rx="10"/>
         <rect x="139" y="45" width="30" height="32" class="terminal" rx="10"/>
         <text class="terminal" x="149" y="65">~</text>
         <rect x="141" y="91" width="40" height="32" rx="10"/>
         <rect x="139" y="89" width="40" height="32" class="terminal" rx="10"/>
         <text class="terminal" x="149" y="109">~~</text>
         <a xmlns:xlink="http://www.w3.org/1999/xlink" xlink:href="#message_name" xlink:title="message_name">
            <rect x="221" y="47" width="120" height="32"/>
            <rect x="219" y="45" width="120" height="32" class="nonterminal"/>
            <text class="nonterminal" x="229" y="65">message_name</text>
         </a>
         <rect x="381" y="47" width="24" height="32" rx="10"/>
         <rect x="379" y="45" width="24" height="32" class="terminal" rx="10"/>
         <text class="terminal" x="389" y="65">:</text>
         <a xmlns:xlink="http://www.w3.org/1999/xlink" xlink:href="#symbol" xlink:title="symbol">
            <rect x="425" y="47" width="64" height="32"/>
            <rect x="423" y="45" width="64" height="32" class="nonterminal"/>
            <text class="nonterminal" x="433" y="65">symbol</text>
         </a>
         <rect x="549" y="47" width="26" height="32" rx="10"/>
         <rect x="547" y="45" width="26" height="32" class="terminal" rx="10"/>
         <text class="terminal" x="557" y="65">(</text>
         <a xmlns:xlink="http://www.w3.org/1999/xlink" xlink:href="#expression" xlink:title="expression">
            <rect x="635" y="47" width="88" height="32"/>
            <rect x="633" y="45" width="88" height="32" class="nonterminal"/>
            <text class="nonterminal" x="643" y="65">expression</text>
         </a>
         <rect x="635" y="3" width="24" height="32" rx="10"/>
         <rect x="633" y="1" width="24" height="32" class="terminal" rx="10"/>
         <text class="terminal" x="643" y="21">,</text>
         <rect x="783" y="47" width="26" height="32" rx="10"/>
         <rect x="781" y="45" width="26" height="32" class="terminal" rx="10"/>
         <text class="terminal" x="791" y="65">)</text>
         <svg:path xmlns:svg="http://www.w3.org/2000/svg" class="line" d="m17 61 h2 m0 0 h10 m70 0 h10 m20 0 h10 m30 0 h10 m0 0 h10 m-80 0 h20 m60 0 h20 m-100 0 q10 0 10 10 m80 0 q0 -10 10 -10 m-90 10 v24 m80 0 v-24 m-80 24 q0 10 10 10 m60 0 q10 0 10 -10 m-70 10 h10 m40 0 h10 m20 -44 h10 m120 0 h10 m20 0 h10 m24 0 h10 m0 0 h10 m64 0 h10 m-148 0 h20 m128 0 h20 m-168 0 q10 0 10 10 m148 0 q0 -10 10 -10 m-158 10 v14 m148 0 v-14 m-148 14 q0 10 10 10 m128 0 q10 0 10 -10 m-138 10 h10 m0 0 h118 m40 -34 h10 m26 0 h10 m40 0 h10 m88 0 h10 m-128 0 l20 0 m-1 0 q-9 0 -9 -10 l0 -24 q0 -10 10 -10 m108 44 l20 0 m-20 0 q10 0 10 -10 l0 -24 q0 -10 -10 -10 m-108 0 h10 m24 0 h10 m0 0 h64 m-148 44 h20 m148 0 h20 m-188 0 q10 0 10 10 m168 0 q0 -10 10 -10 m-178 10 v14 m168 0 v-14 m-168 14 q0 10 10 10 m148 0 q10 0 10 -10 m-158 10 h10 m0 0 h138 m20 -34 h10 m26 0 h10 m-300 0 h20 m280 0 h20 m-320 0 q10 0 10 10 m300 0 q0 -10 10 -10 m-310 10 v30 m300 0 v-30 m-300 30 q0 10 10 10 m280 0 q10 0 10 -10 m-290 10 h10 m0 0 h270 m23 -50 h-3"/>
         <polygon points="847 61 855 57 855 65"/>
         <polygon points="847 61 839 57 839 65"/>
      </svg>
