      <svg xmlns="http://www.w3.org/2000/svg" width="836" height="84">
         <defs>
            <style type="text/css">
               @namespace "http://www.w3.org/2000/svg";
               .line                 {fill: none; stroke: #1F1F1F;}
               .bold-line            {stroke: #0A0A0A; shape-rendering: crispEdges; stroke-width:
               2; }
               .thin-line            {stroke: #0F0F0F; shape-rendering: crispEdges}
               .filled               {fill: #1F1F1F; stroke: none;}
               text.terminal         {font-family: Verdana, Sans-serif;
               font-size: 12px;
               fill: #0A0A0A;
               font-weight: bold;
               }
               text.nonterminal      {font-family: Verdana, Sans-serif;
               font-size: 12px;
               fill: #0D0D0D;
               }
               text.regexp           {font-family: Verdana, Sans-serif;
               font-size: 12px;
               fill: #0F0F0F;
               }
               rect, circle, polygon {fill: #1F1F1F; stroke: #1F1F1F;}
               rect.terminal         {fill: #CCCCCC; stroke: #1F1F1F;}
               rect.nonterminal      {fill: #E3E3E3; stroke: #1F1F1F;}
               rect.text             {fill: none; stroke: none;}    
               polygon.regexp        {fill: #EFEFEF; stroke: #1F1F1F;}
               
            </style>
         </defs>
         <polygon points="9 17 1 13 1 21"/>
         <polygon points="17 17 9 13 9 21"/>
         <rect x="31" y="3" width="126" height="32" rx="10"/>
         <rect x="29" y="1" width="126" height="32" class="terminal" rx="10"/>
         <text class="terminal" x="39" y="21">RxMessageBox(</text>
         <a xmlns:xlink="http://www.w3.org/1999/xlink" xlink:href="#text" xlink:title="text">
            <rect x="177" y="3" width="44" height="32"/>
            <rect x="175" y="1" width="44" height="32" class="nonterminal"/>
            <text class="nonterminal" x="185" y="21">text</text>
         </a>
         <rect x="261" y="3" width="24" height="32" rx="10"/>
         <rect x="259" y="1" width="24" height="32" class="terminal" rx="10"/>
         <text class="terminal" x="269" y="21">,</text>
         <a xmlns:xlink="http://www.w3.org/1999/xlink" xlink:href="#title" xlink:title="title">
            <rect x="325" y="3" width="44" height="32"/>
            <rect x="323" y="1" width="44" height="32" class="nonterminal"/>
            <text class="nonterminal" x="333" y="21">title</text>
         </a>
         <rect x="429" y="3" width="24" height="32" rx="10"/>
         <rect x="427" y="1" width="24" height="32" class="terminal" rx="10"/>
         <text class="terminal" x="437" y="21">,</text>
         <a xmlns:xlink="http://www.w3.org/1999/xlink" xlink:href="#button" xlink:title="button">
            <rect x="493" y="3" width="62" height="32"/>
            <rect x="491" y="1" width="62" height="32" class="nonterminal"/>
            <text class="nonterminal" x="501" y="21">button</text>
         </a>
         <rect x="615" y="3" width="24" height="32" rx="10"/>
         <rect x="613" y="1" width="24" height="32" class="terminal" rx="10"/>
         <text class="terminal" x="623" y="21">,</text>
         <a xmlns:xlink="http://www.w3.org/1999/xlink" xlink:href="#icon" xlink:title="icon">
            <rect x="659" y="3" width="44" height="32"/>
            <rect x="657" y="1" width="44" height="32" class="nonterminal"/>
            <text class="nonterminal" x="667" y="21">icon</text>
         </a>
         <rect x="783" y="3" width="26" height="32" rx="10"/>
         <rect x="781" y="1" width="26" height="32" class="terminal" rx="10"/>
         <text class="terminal" x="791" y="21">)</text>
         <svg:path xmlns:svg="http://www.w3.org/2000/svg" class="line" d="m17 17 h2 m0 0 h10 m126 0 h10 m0 0 h10 m44 0 h10 m20 0 h10 m24 0 h10 m20 0 h10 m44 0 h10 m-84 0 h20 m64 0 h20 m-104 0 q10 0 10 10 m84 0 q0 -10 10 -10 m-94 10 v14 m84 0 v-14 m-84 14 q0 10 10 10 m64 0 q10 0 10 -10 m-74 10 h10 m0 0 h54 m40 -34 h10 m24 0 h10 m20 0 h10 m62 0 h10 m-102 0 h20 m82 0 h20 m-122 0 q10 0 10 10 m102 0 q0 -10 10 -10 m-112 10 v14 m102 0 v-14 m-102 14 q0 10 10 10 m82 0 q10 0 10 -10 m-92 10 h10 m0 0 h72 m40 -34 h10 m24 0 h10 m0 0 h10 m44 0 h10 m-128 0 h20 m108 0 h20 m-148 0 q10 0 10 10 m128 0 q0 -10 10 -10 m-138 10 v14 m128 0 v-14 m-128 14 q0 10 10 10 m108 0 q10 0 10 -10 m-118 10 h10 m0 0 h98 m-314 -34 h20 m314 0 h20 m-354 0 q10 0 10 10 m334 0 q0 -10 10 -10 m-344 10 v30 m334 0 v-30 m-334 30 q0 10 10 10 m314 0 q10 0 10 -10 m-324 10 h10 m0 0 h304 m-502 -50 h20 m502 0 h20 m-542 0 q10 0 10 10 m522 0 q0 -10 10 -10 m-532 10 v46 m522 0 v-46 m-522 46 q0 10 10 10 m502 0 q10 0 10 -10 m-512 10 h10 m0 0 h492 m20 -66 h10 m26 0 h10 m3 0 h-3"/>
         <polygon points="827 17 835 13 835 21"/>
         <polygon points="827 17 819 13 819 21"/>
      </svg>
