      <svg xmlns="http://www.w3.org/2000/svg" width="582" height="68">
         <defs>
            <style type="text/css">
               @namespace "http://www.w3.org/2000/svg";
               .line                 {fill: none; stroke: #1F1F1F;}
               .bold-line            {stroke: #0A0A0A; shape-rendering: crispEdges; stroke-width:
               2; }
               .thin-line            {stroke: #0F0F0F; shape-rendering: crispEdges}
               .filled               {fill: #1F1F1F; stroke: none;}
               text.terminal         {font-family: Verdana, Sans-serif;
               font-size: 12px;
               fill: #0A0A0A;
               font-weight: bold;
               }
               text.nonterminal      {font-family: Verdana, Sans-serif; font-style: italic;
               font-size: 12px;
               fill: #0D0D0D;
               }
               text.regexp           {font-family: Verdana, Sans-serif;
               font-size: 12px;
               fill: #0F0F0F;
               }
               rect, circle, polygon {fill: #1F1F1F; stroke: #1F1F1F;}
               rect.terminal         {fill: #CCCCCC; stroke: #1F1F1F;}
               rect.nonterminal      {fill: #E3E3E3; stroke: #1F1F1F;}
               rect.text             {fill: none; stroke: none;}    
               polygon.regexp        {fill: #EFEFEF; stroke: #1F1F1F;}
               
            </style>
         </defs>
         <polygon points="9 17 1 13 1 21"/>
         <polygon points="17 17 9 13 9 21"/>
         <rect x="31" y="3" width="148" height="32" rx="10"/>
         <rect x="29" y="1" width="148" height="32" class="terminal" rx="10"/>
         <text class="terminal" x="39" y="21">SysAddRexxMacro(</text>
<!--     <a xmlns:xlink="http://www.w3.org/1999/xlink" xlink:href="#name" xlink:title="name"> -->
            <rect x="199" y="3" width="54" height="32"/>
            <rect x="197" y="1" width="54" height="32" class="nonterminal"/>
            <text class="nonterminal" x="207" y="21">name</text>
<!--     </a> -->
         <rect x="273" y="3" width="24" height="32" rx="10"/>
         <rect x="271" y="1" width="24" height="32" class="terminal" rx="10"/>
         <text class="terminal" x="281" y="21">,</text>
<!--     <a xmlns:xlink="http://www.w3.org/1999/xlink" xlink:href="#file" xlink:title="file"> -->
            <rect x="317" y="3" width="36" height="32"/>
            <rect x="315" y="1" width="36" height="32" class="nonterminal"/>
            <text class="nonterminal" x="325" y="21">file</text>
<!--     </a> -->
         <rect x="393" y="35" width="24" height="32" rx="10"/>
         <rect x="391" y="33" width="24" height="32" class="terminal" rx="10"/>
         <text class="terminal" x="401" y="53">,</text>
<!--     <a xmlns:xlink="http://www.w3.org/1999/xlink" xlink:href="#order" xlink:title="order"> -->
            <rect x="437" y="35" width="52" height="32"/>
            <rect x="435" y="33" width="52" height="32" class="nonterminal"/>
            <text class="nonterminal" x="445" y="53">order</text>
<!--     </a> -->
         <rect x="529" y="3" width="26" height="32" rx="10"/>
         <rect x="527" y="1" width="26" height="32" class="terminal" rx="10"/>
         <text class="terminal" x="537" y="21">)</text>
         <svg:path xmlns:svg="http://www.w3.org/2000/svg" class="line" d="m17 17 h2 m0 0 h10 m148 0 h10 m0 0 h10 m54 0 h10 m0 0 h10 m24 0 h10 m0 0 h10 m36 0 h10 m20 0 h10 m0 0 h106 m-136 0 h20 m116 0 h20 m-156 0 q10 0 10 10 m136 0 q0 -10 10 -10 m-146 10 v12 m136 0 v-12 m-136 12 q0 10 10 10 m116 0 q10 0 10 -10 m-126 10 h10 m24 0 h10 m0 0 h10 m52 0 h10 m20 -32 h10 m26 0 h10 m3 0 h-3"/>
         <polygon points="573 17 581 13 581 21"/>
         <polygon points="573 17 565 13 565 21"/>
      </svg>
