<svg xmlns="http://www.w3.org/2000/svg" width="595" height="69">
         <defs>
            <style type="text/css">
    @namespace "http://www.w3.org/2000/svg";
    .line                 {fill: none; stroke: #1F1F1F;}
    .bold-line            {stroke: #0A0A0A; shape-rendering: crispEdges; stroke-width: 2; }
    .thin-line            {stroke: #0F0F0F; shape-rendering: crispEdges}
    .filled               {fill: #1F1F1F; stroke: none;}
    text.terminal         {font-family: Verdana, Sans-serif;
                            font-size: 12px;
                            fill: #0A0A0A;
                            font-weight: bold;
                          }
    text.nonterminal      {font-family: Verdana, Sans-serif; font-style: italic;
                            font-size: 12px;
                            fill: #0D0D0D;
                            font-weight: normal;
                          }
    text.regexp           {font-family: Verdana, Sans-serif;
                            font-size: 12px;
                            fill: #0F0F0F;
                            font-weight: normal;
                          }
    rect, circle, polygon {fill: #1F1F1F; stroke: #1F1F1F;}
    rect.terminal         {fill: #CCCCCC; stroke: #1F1F1F;}
    rect.nonterminal      {fill: #E3E3E3; stroke: #1F1F1F;}
    rect.text             {fill: none; stroke: none;}    
    polygon.regexp        {fill: #EFEFEF; stroke: #1F1F1F;}
  </style>
         </defs>
         <polygon points="9 17 1 13 1 21"/>
         <polygon points="17 17 9 13 9 21"/>
         <rect x="31" y="3" width="162" height="32" rx="10"/>
         <rect x="29" y="1" width="162" height="32" class="terminal" rx="10"/>
         <text class="terminal" x="39" y="21">SysCreateEventSem(</text>
<!--  <a xmlns:xlink="http://www.w3.org/1999/xlink" xlink:href="#name" xlink:title="name"> -->
            <rect x="233" y="35" width="56" height="32"/>
            <rect x="231" y="33" width="56" height="32" class="nonterminal"/>
            <text class="nonterminal" x="241" y="53">name</text><!-- </a> -->
<rect x="349" y="35" width="24" height="32" rx="10"/>
         <rect x="347" y="33" width="24" height="32" class="terminal" rx="10"/>
         <text class="terminal" x="357" y="53">,</text>
<!--  <a xmlns:xlink="http://www.w3.org/1999/xlink" xlink:href="#manual_reset" xlink:title="manual_reset"> -->
            <rect x="393" y="35" width="108" height="32"/>
            <rect x="391" y="33" width="108" height="32" class="nonterminal"/>
            <text class="nonterminal" x="401" y="53">manual_reset</text><!-- </a> -->
<rect x="541" y="3" width="26" height="32" rx="10"/>
         <rect x="539" y="1" width="26" height="32" class="terminal" rx="10"/>
         <text class="terminal" x="549" y="21">)</text>
         <svg:path xmlns:svg="http://www.w3.org/2000/svg" class="line" d="m17 17 h2 m0 0 h10 m162 0 h10 m20 0 h10 m0 0 h66 m-96 0 h20 m76 0 h20 m-116 0 q10 0 10 10 m96 0 q0 -10 10 -10 m-106 10 v12 m96 0 v-12 m-96 12 q0 10 10 10 m76 0 q10 0 10 -10 m-86 10 h10 m56 0 h10 m40 -32 h10 m0 0 h162 m-192 0 h20 m172 0 h20 m-212 0 q10 0 10 10 m192 0 q0 -10 10 -10 m-202 10 v12 m192 0 v-12 m-192 12 q0 10 10 10 m172 0 q10 0 10 -10 m-182 10 h10 m24 0 h10 m0 0 h10 m108 0 h10 m20 -32 h10 m26 0 h10 m3 0 h-3"/>
         <polygon points="585 17 593 13 593 21"/>
         <polygon points="585 17 577 13 577 21"/></svg>
