      <svg xmlns="http://www.w3.org/2000/svg" width="434" height="52">
         <defs>
            <style type="text/css">
               @namespace "http://www.w3.org/2000/svg";
               .line                 {fill: none; stroke: #1F1F1F;}
               .bold-line            {stroke: #0A0A0A; shape-rendering: crispEdges; stroke-width:
               2; }
               .thin-line            {stroke: #0F0F0F; shape-rendering: crispEdges}
               .filled               {fill: #1F1F1F; stroke: none;}
               text.terminal         {font-family: Verdana, Sans-serif;
               font-size: 12px;
               fill: #0A0A0A;
               font-weight: bold;
               }
               text.nonterminal      {font-family: Verdana, Sans-serif;
               font-size: 12px;
               fill: #0D0D0D;
               }
               text.regexp           {font-family: Verdana, Sans-serif;
               font-size: 12px;
               fill: #0F0F0F;
               }
               rect, circle, polygon {fill: #1F1F1F; stroke: #1F1F1F;}
               rect.terminal         {fill: #CCCCCC; stroke: #1F1F1F;}
               rect.nonterminal      {fill: #E3E3E3; stroke: #1F1F1F;}
               rect.text             {fill: none; stroke: none;}    
               polygon.regexp        {fill: #EFEFEF; stroke: #1F1F1F;}
               
            </style>
         </defs>
         <polygon points="9 17 1 13 1 21"/>
         <polygon points="17 17 9 13 9 21"/>
         <rect x="31" y="3" width="98" height="32" rx="10"/>
         <rect x="29" y="1" width="98" height="32" class="terminal" rx="10"/>
         <text class="terminal" x="39" y="21">SysCurPos(</text>
         <a xmlns:xlink="http://www.w3.org/1999/xlink" xlink:href="#row" xlink:title="row">
            <rect x="169" y="3" width="44" height="32"/>
            <rect x="167" y="1" width="44" height="32" class="nonterminal"/>
            <text class="nonterminal" x="177" y="21">row</text>
         </a>
         <rect x="233" y="3" width="24" height="32" rx="10"/>
         <rect x="231" y="1" width="24" height="32" class="terminal" rx="10"/>
         <text class="terminal" x="241" y="21">,</text>
         <a xmlns:xlink="http://www.w3.org/1999/xlink" xlink:href="#column" xlink:title="column">
            <rect x="277" y="3" width="64" height="32"/>
            <rect x="275" y="1" width="64" height="32" class="nonterminal"/>
            <text class="nonterminal" x="285" y="21">column</text>
         </a>
         <rect x="381" y="3" width="26" height="32" rx="10"/>
         <rect x="379" y="1" width="26" height="32" class="terminal" rx="10"/>
         <text class="terminal" x="389" y="21">)</text>
         <svg:path xmlns:svg="http://www.w3.org/2000/svg" class="line" d="m17 17 h2 m0 0 h10 m98 0 h10 m20 0 h10 m44 0 h10 m0 0 h10 m24 0 h10 m0 0 h10 m64 0 h10 m-212 0 h20 m192 0 h20 m-232 0 q10 0 10 10 m212 0 q0 -10 10 -10 m-222 10 v14 m212 0 v-14 m-212 14 q0 10 10 10 m192 0 q10 0 10 -10 m-202 10 h10 m0 0 h182 m20 -34 h10 m26 0 h10 m3 0 h-3"/>
         <polygon points="425 17 433 13 433 21"/>
         <polygon points="425 17 417 13 417 21"/>
      </svg>
