      <svg xmlns="http://www.w3.org/2000/svg" width="854" height="134">
         <defs>
            <style type="text/css">
               @namespace "http://www.w3.org/2000/svg";
               .line                 {fill: none; stroke: #1F1F1F;}
               .bold-line            {stroke: #0A0A0A; shape-rendering: crispEdges; stroke-width:
               2; }
               .thin-line            {stroke: #0F0F0F; shape-rendering: crispEdges}
               .filled               {fill: #1F1F1F; stroke: none;}
               text.terminal         {font-family: Verdana, Sans-serif;
               font-size: 12px;
               fill: #0A0A0A;
               font-weight: bold;
               }
               text.nonterminal      {font-family: Verdana, Sans-serif; font-style: italic;
               font-size: 12px;
               fill: #0D0D0D;
               }
               text.regexp           {font-family: Verdana, Sans-serif;
               font-size: 12px;
               fill: #0F0F0F;
               }
               rect, circle, polygon {fill: #1F1F1F; stroke: #1F1F1F;}
               rect.terminal         {fill: #CCCCCC; stroke: #1F1F1F;}
               rect.nonterminal      {fill: #E3E3E3; stroke: #1F1F1F;}
               rect.text             {fill: none; stroke: none;}    
               polygon.regexp        {fill: #EFEFEF; stroke: #1F1F1F;}
               
            </style>
         </defs>
         <polygon points="9 17 1 13 1 21"/>
         <polygon points="17 17 9 13 9 21"/>
         <rect x="31" y="3" width="104" height="32" rx="10"/>
         <rect x="29" y="1" width="104" height="32" class="terminal" rx="10"/>
         <text class="terminal" x="39" y="21">SysFileTree(</text>
<!--     <a xmlns:xlink="http://www.w3.org/1999/xlink" xlink:href="#filespec" xlink:title="filespec"> -->
            <rect x="155" y="3" width="66" height="32"/>
            <rect x="153" y="1" width="66" height="32" class="nonterminal"/>
            <text class="nonterminal" x="163" y="21">filespec</text>
<!--     </a> -->
         <rect x="241" y="3" width="24" height="32" rx="10"/>
         <rect x="239" y="1" width="24" height="32" class="terminal" rx="10"/>
         <text class="terminal" x="249" y="21">,</text>
<!--     <a xmlns:xlink="http://www.w3.org/1999/xlink" xlink:href="#stem" xlink:title="stem"> -->
            <rect x="285" y="3" width="50" height="32"/>
            <rect x="283" y="1" width="50" height="32" class="nonterminal"/>
            <text class="nonterminal" x="293" y="21">stem</text>
<!--     </a> -->
         <rect x="355" y="3" width="24" height="32" rx="10"/>
         <rect x="353" y="1" width="24" height="32" class="terminal" rx="10"/>
         <text class="terminal" x="363" y="21">,</text>
<!--     <a xmlns:xlink="http://www.w3.org/1999/xlink" xlink:href="#options" xlink:title="options"> -->
            <rect x="419" y="35" width="66" height="32"/>
            <rect x="417" y="33" width="66" height="32" class="nonterminal"/>
            <text class="nonterminal" x="427" y="53">options</text>
<!--     </a> -->
         <rect x="525" y="3" width="24" height="32" rx="10"/>
         <rect x="523" y="1" width="24" height="32" class="terminal" rx="10"/>
         <text class="terminal" x="533" y="21">,</text>
<!--     <a xmlns:xlink="http://www.w3.org/1999/xlink" xlink:href="#tattrib" xlink:title="tattrib"> -->
            <rect x="589" y="35" width="58" height="32"/>
            <rect x="587" y="33" width="58" height="32" class="nonterminal"/>
            <text class="nonterminal" x="597" y="53">tattrib</text>
<!--     </a> -->
         <rect x="687" y="3" width="24" height="32" rx="10"/>
         <rect x="685" y="1" width="24" height="32" class="terminal" rx="10"/>
         <text class="terminal" x="695" y="21">,</text>
<!--     <a xmlns:xlink="http://www.w3.org/1999/xlink" xlink:href="#nattrib" xlink:title="nattrib"> -->
            <rect x="751" y="35" width="62" height="32"/>
            <rect x="749" y="33" width="62" height="32" class="nonterminal"/>
            <text class="nonterminal" x="759" y="53">nattrib</text>
<!--     </a> -->
         <rect x="801" y="101" width="26" height="32" rx="10"/>
         <rect x="799" y="99" width="26" height="32" class="terminal" rx="10"/>
         <text class="terminal" x="809" y="119">)</text>
         <svg:path xmlns:svg="http://www.w3.org/2000/svg" class="line" d="m17 17 h2 m0 0 h10 m104 0 h10 m0 0 h10 m66 0 h10 m0 0 h10 m24 0 h10 m0 0 h10 m50 0 h10 m0 0 h10 m24 0 h10 m20 0 h10 m0 0 h76 m-106 0 h20 m86 0 h20 m-126 0 q10 0 10 10 m106 0 q0 -10 10 -10 m-116 10 v12 m106 0 v-12 m-106 12 q0 10 10 10 m86 0 q10 0 10 -10 m-96 10 h10 m66 0 h10 m20 -32 h10 m24 0 h10 m20 0 h10 m0 0 h68 m-98 0 h20 m78 0 h20 m-118 0 q10 0 10 10 m98 0 q0 -10 10 -10 m-108 10 v12 m98 0 v-12 m-98 12 q0 10 10 10 m78 0 q10 0 10 -10 m-88 10 h10 m58 0 h10 m20 -32 h10 m24 0 h10 m20 0 h10 m0 0 h72 m-102 0 h20 m82 0 h20 m-122 0 q10 0 10 10 m102 0 q0 -10 10 -10 m-112 10 v12 m102 0 v-12 m-102 12 q0 10 10 10 m82 0 q10 0 10 -10 m-92 10 h10 m62 0 h10 m22 -32 l2 0 m2 0 l2 0 m2 0 l2 0 m-76 98 l2 0 m2 0 l2 0 m2 0 l2 0 m2 0 h10 m26 0 h10 m3 0 h-3"/>
         <polygon points="845 115 853 111 853 119"/>
         <polygon points="845 115 837 111 837 119"/>
      </svg>
