<svg xmlns="http://www.w3.org/2000/svg" width="693" height="69">
         <defs>
            <style type="text/css">
    @namespace "http://www.w3.org/2000/svg";
    .line                 {fill: none; stroke: #1F1F1F;}
    .bold-line            {stroke: #0A0A0A; shape-rendering: crispEdges; stroke-width: 2; }
    .thin-line            {stroke: #0F0F0F; shape-rendering: crispEdges}
    .filled               {fill: #1F1F1F; stroke: none;}
    text.terminal         {font-family: Verdana, Sans-serif;
                            font-size: 12px;
                            fill: #0A0A0A;
                            font-weight: bold;
                          }
    text.nonterminal      {font-family: Verdana, Sans-serif; font-style: italic;
                            font-size: 12px;
                            fill: #0D0D0D;
                            font-weight: normal;
                          }
    text.regexp           {font-family: Verdana, Sans-serif;
                            font-size: 12px;
                            fill: #0F0F0F;
                            font-weight: normal;
                          }
    rect, circle, polygon {fill: #1F1F1F; stroke: #1F1F1F;}
    rect.terminal         {fill: #cccccc; stroke: #1F1F1F;}
    rect.nonterminal      {fill: #E3E3E3; stroke: #1F1F1F;}
    rect.text             {fill: none; stroke: none;}    
    polygon.regexp        {fill: #EFEFEF; stroke: #1F1F1F;}
  </style>
         </defs>
         <polygon points="9 17 1 13 1 21"/>
         <polygon points="17 17 9 13 9 21"/>
         <rect x="31" y="3" width="122" height="32" rx="10"/>
         <rect x="29" y="1" width="122" height="32" class="terminal" rx="10"/>
         <text class="terminal" x="39" y="21">SysFileSearch(</text>
<!--  <a xmlns:xlink="http://www.w3.org/1999/xlink" xlink:href="#target" xlink:title="target"> -->
            <rect x="173" y="3" width="58" height="32"/>
            <rect x="171" y="1" width="58" height="32" class="nonterminal"/>
            <text class="nonterminal" x="181" y="21">target</text><!-- </a> -->
<rect x="251" y="3" width="24" height="32" rx="10"/>
         <rect x="249" y="1" width="24" height="32" class="terminal" rx="10"/>
         <text class="terminal" x="259" y="21">,</text>
<!--  <a xmlns:xlink="http://www.w3.org/1999/xlink" xlink:href="#file" xlink:title="file"> -->
            <rect x="295" y="3" width="38" height="32"/>
            <rect x="293" y="1" width="38" height="32" class="nonterminal"/>
            <text class="nonterminal" x="303" y="21">file</text><!-- </a> -->
<rect x="353" y="3" width="24" height="32" rx="10"/>
         <rect x="351" y="1" width="24" height="32" class="terminal" rx="10"/>
         <text class="terminal" x="361" y="21">,</text>
<!--  <a xmlns:xlink="http://www.w3.org/1999/xlink" xlink:href="#stem" xlink:title="stem"> -->
            <rect x="397" y="3" width="52" height="32"/>
            <rect x="395" y="1" width="52" height="32" class="nonterminal"/>
            <text class="nonterminal" x="405" y="21">stem</text><!-- </a> -->
<rect x="489" y="35" width="24" height="32" rx="10"/>
         <rect x="487" y="33" width="24" height="32" class="terminal" rx="10"/>
         <text class="terminal" x="497" y="53">,</text>
<!--  <a xmlns:xlink="http://www.w3.org/1999/xlink" xlink:href="#options" xlink:title="options"> -->
            <rect x="533" y="35" width="66" height="32"/>
            <rect x="531" y="33" width="66" height="32" class="nonterminal"/>
            <text class="nonterminal" x="541" y="53">options</text><!-- </a> -->
<rect x="639" y="3" width="26" height="32" rx="10"/>
         <rect x="637" y="1" width="26" height="32" class="terminal" rx="10"/>
         <text class="terminal" x="647" y="21">)</text>
         <svg:path xmlns:svg="http://www.w3.org/2000/svg" class="line" d="m17 17 h2 m0 0 h10 m122 0 h10 m0 0 h10 m58 0 h10 m0 0 h10 m24 0 h10 m0 0 h10 m38 0 h10 m0 0 h10 m24 0 h10 m0 0 h10 m52 0 h10 m20 0 h10 m0 0 h120 m-150 0 h20 m130 0 h20 m-170 0 q10 0 10 10 m150 0 q0 -10 10 -10 m-160 10 v12 m150 0 v-12 m-150 12 q0 10 10 10 m130 0 q10 0 10 -10 m-140 10 h10 m24 0 h10 m0 0 h10 m66 0 h10 m20 -32 h10 m26 0 h10 m3 0 h-3"/>
         <polygon points="683 17 691 13 691 21"/>
         <polygon points="683 17 675 13 675 21"/></svg>
