      <svg xmlns="http://www.w3.org/2000/svg" width="688" height="52">
         <defs>
            <style type="text/css">
               @namespace "http://www.w3.org/2000/svg";
               .line                 {fill: none; stroke: #1F1F1F;}
               .bold-line            {stroke: #0A0A0A; shape-rendering: crispEdges; stroke-width:
               2; }
               .thin-line            {stroke: #0F0F0F; shape-rendering: crispEdges}
               .filled               {fill: #1F1F1F; stroke: none;}
               text.terminal         {font-family: Verdana, Sans-serif;
               font-size: 12px;
               fill: #0A0A0A;
               font-weight: bold;
               }
               text.nonterminal      {font-family: Verdana, Sans-serif;
               font-size: 12px;
               fill: #0D0D0D;
               }
               text.regexp           {font-family: Verdana, Sans-serif;
               font-size: 12px;
               fill: #0F0F0F;
               }
               rect, circle, polygon {fill: #1F1F1F; stroke: #1F1F1F;}
               rect.terminal         {fill: #CCCCCC; stroke: #1F1F1F;}
               rect.nonterminal      {fill: #E3E3E3; stroke: #1F1F1F;}
               rect.text             {fill: none; stroke: none;}    
               polygon.regexp        {fill: #EFEFEF; stroke: #1F1F1F;}
               
            </style>
         </defs>
         <polygon points="9 17 1 13 1 21"/>
         <polygon points="17 17 9 13 9 21"/>
         <rect x="31" y="3" width="120" height="32" rx="10"/>
         <rect x="29" y="1" width="120" height="32" class="terminal" rx="10"/>
         <text class="terminal" x="39" y="21">SysFileSearch(</text>
         <a xmlns:xlink="http://www.w3.org/1999/xlink" xlink:href="#target" xlink:title="target">
            <rect x="171" y="3" width="58" height="32"/>
            <rect x="169" y="1" width="58" height="32" class="nonterminal"/>
            <text class="nonterminal" x="179" y="21">target</text>
         </a>
         <rect x="249" y="3" width="24" height="32" rx="10"/>
         <rect x="247" y="1" width="24" height="32" class="terminal" rx="10"/>
         <text class="terminal" x="257" y="21">,</text>
         <a xmlns:xlink="http://www.w3.org/1999/xlink" xlink:href="#file" xlink:title="file">
            <rect x="293" y="3" width="38" height="32"/>
            <rect x="291" y="1" width="38" height="32" class="nonterminal"/>
            <text class="nonterminal" x="301" y="21">file</text>
         </a>
         <rect x="351" y="3" width="24" height="32" rx="10"/>
         <rect x="349" y="1" width="24" height="32" class="terminal" rx="10"/>
         <text class="terminal" x="359" y="21">,</text>
         <a xmlns:xlink="http://www.w3.org/1999/xlink" xlink:href="#stem" xlink:title="stem">
            <rect x="395" y="3" width="50" height="32"/>
            <rect x="393" y="1" width="50" height="32" class="nonterminal"/>
            <text class="nonterminal" x="403" y="21">stem</text>
         </a>
         <rect x="485" y="3" width="24" height="32" rx="10"/>
         <rect x="483" y="1" width="24" height="32" class="terminal" rx="10"/>
         <text class="terminal" x="493" y="21">,</text>
         <a xmlns:xlink="http://www.w3.org/1999/xlink" xlink:href="#options" xlink:title="options">
            <rect x="529" y="3" width="66" height="32"/>
            <rect x="527" y="1" width="66" height="32" class="nonterminal"/>
            <text class="nonterminal" x="537" y="21">options</text>
         </a>
         <rect x="635" y="3" width="26" height="32" rx="10"/>
         <rect x="633" y="1" width="26" height="32" class="terminal" rx="10"/>
         <text class="terminal" x="643" y="21">)</text>
         <svg:path xmlns:svg="http://www.w3.org/2000/svg" class="line" d="m17 17 h2 m0 0 h10 m120 0 h10 m0 0 h10 m58 0 h10 m0 0 h10 m24 0 h10 m0 0 h10 m38 0 h10 m0 0 h10 m24 0 h10 m0 0 h10 m50 0 h10 m20 0 h10 m24 0 h10 m0 0 h10 m66 0 h10 m-150 0 h20 m130 0 h20 m-170 0 q10 0 10 10 m150 0 q0 -10 10 -10 m-160 10 v14 m150 0 v-14 m-150 14 q0 10 10 10 m130 0 q10 0 10 -10 m-140 10 h10 m0 0 h120 m20 -34 h10 m26 0 h10 m3 0 h-3"/>
         <polygon points="679 17 687 13 687 21"/>
         <polygon points="679 17 671 13 671 21"/>
      </svg>
