      <svg xmlns="http://www.w3.org/2000/svg" width="656" height="198">
         <defs>
            <style type="text/css">
               @namespace "http://www.w3.org/2000/svg";
               .line                 {fill: none; stroke: #1F1F1F;}
               .bold-line            {stroke: #0A0A0A; shape-rendering: crispEdges; stroke-width:
               2; }
               .thin-line            {stroke: #0F0F0F; shape-rendering: crispEdges}
               .filled               {fill: #1F1F1F; stroke: none;}
               text.terminal         {font-family: Verdana, Sans-serif;
               font-size: 12px;
               fill: #0A0A0A;
               font-weight: bold;
               }
               text.nonterminal      {font-family: Verdana, Sans-serif; font-style: italic;
               font-size: 12px;
               fill: #0D0D0D;
               }
               text.regexp           {font-family: Verdana, Sans-serif;
               font-size: 12px;
               fill: #0F0F0F;
               }
               rect, circle, polygon {fill: #1F1F1F; stroke: #1F1F1F;}
               rect.terminal         {fill: #CCCCCC; stroke: #1F1F1F;}
               rect.nonterminal      {fill: #E3E3E3; stroke: #1F1F1F;}
               rect.text             {fill: none; stroke: none;}    
               polygon.regexp        {fill: #EFEFEF; stroke: #1F1F1F;}
               
            </style>
         </defs>
         <polygon points="11 17 3 13 3 21"/>
         <polygon points="19 17 11 13 11 21"/>
         <rect x="33" y="3" width="104" height="32" rx="10"/>
         <rect x="31" y="1" width="104" height="32" class="terminal" rx="10"/>
         <text class="terminal" x="41" y="21">SysFileTree(</text>
<!--     <a xmlns:xlink="http://www.w3.org/1999/xlink" xlink:href="#filespec" xlink:title="filespec"> -->
            <rect x="157" y="3" width="66" height="32"/>
            <rect x="155" y="1" width="66" height="32" class="nonterminal"/>
            <text class="nonterminal" x="165" y="21">filespec</text>
<!--     </a> -->
         <rect x="243" y="3" width="24" height="32" rx="10"/>
         <rect x="241" y="1" width="24" height="32" class="terminal" rx="10"/>
         <text class="terminal" x="251" y="21">,</text>
<!--     <a xmlns:xlink="http://www.w3.org/1999/xlink" xlink:href="#stem" xlink:title="stem"> -->
            <rect x="287" y="3" width="50" height="32"/>
            <rect x="285" y="1" width="50" height="32" class="nonterminal"/>
            <text class="nonterminal" x="295" y="21">stem</text>
<!--     </a> -->
         <rect x="45" y="101" width="24" height="32" rx="10"/>
         <rect x="43" y="99" width="24" height="32" class="terminal" rx="10"/>
         <text class="terminal" x="53" y="119">,</text>
<!--     <a xmlns:xlink="http://www.w3.org/1999/xlink" xlink:href="#options" xlink:title="options"> -->
            <rect x="109" y="133" width="66" height="32"/>
            <rect x="107" y="131" width="66" height="32" class="nonterminal"/>
            <text class="nonterminal" x="117" y="151">options</text>
<!--     </a> -->
         <rect x="235" y="133" width="24" height="32" rx="10"/>
         <rect x="233" y="131" width="24" height="32" class="terminal" rx="10"/>
         <text class="terminal" x="243" y="151">,</text>
<!--     <a xmlns:xlink="http://www.w3.org/1999/xlink" xlink:href="#tattrib" xlink:title="tattrib"> -->
            <rect x="299" y="165" width="58" height="32"/>
            <rect x="297" y="163" width="58" height="32" class="nonterminal"/>
            <text class="nonterminal" x="307" y="183">tattrib</text>
<!--     </a> -->
         <rect x="417" y="165" width="24" height="32" rx="10"/>
         <rect x="415" y="163" width="24" height="32" class="terminal" rx="10"/>
         <text class="terminal" x="425" y="183">,</text>
<!--     <a xmlns:xlink="http://www.w3.org/1999/xlink" xlink:href="#nattrib" xlink:title="nattrib"> -->
            <rect x="461" y="165" width="62" height="32"/>
            <rect x="459" y="163" width="62" height="32" class="nonterminal"/>
            <text class="nonterminal" x="469" y="183">nattrib</text>
<!--     </a> -->
         <rect x="603" y="69" width="26" height="32" rx="10"/>
         <rect x="601" y="67" width="26" height="32" class="terminal" rx="10"/>
         <text class="terminal" x="611" y="87">)</text>
         <svg:path xmlns:svg="http://www.w3.org/2000/svg" class="line" d="m19 17 h2 m0 0 h10 m104 0 h10 m0 0 h10 m66 0 h10 m0 0 h10 m24 0 h10 m0 0 h10 m50 0 h10 m2 0 l2 0 m2 0 l2 0 m2 0 l2 0 m-356 66 l2 0 m2 0 l2 0 m2 0 l2 0 m22 0 h10 m0 0 h528 m-558 0 h20 m538 0 h20 m-578 0 q10 0 10 10 m558 0 q0 -10 10 -10 m-568 10 v12 m558 0 v-12 m-558 12 q0 10 10 10 m538 0 q10 0 10 -10 m-548 10 h10 m24 0 h10 m20 0 h10 m0 0 h76 m-106 0 h20 m86 0 h20 m-126 0 q10 0 10 10 m106 0 q0 -10 10 -10 m-116 10 v12 m106 0 v-12 m-106 12 q0 10 10 10 m86 0 q10 0 10 -10 m-96 10 h10 m66 0 h10 m40 -32 h10 m0 0 h318 m-348 0 h20 m328 0 h20 m-368 0 q10 0 10 10 m348 0 q0 -10 10 -10 m-358 10 v12 m348 0 v-12 m-348 12 q0 10 10 10 m328 0 q10 0 10 -10 m-338 10 h10 m24 0 h10 m20 0 h10 m0 0 h68 m-98 0 h20 m78 0 h20 m-118 0 q10 0 10 10 m98 0 q0 -10 10 -10 m-108 10 v12 m98 0 v-12 m-98 12 q0 10 10 10 m78 0 q10 0 10 -10 m-88 10 h10 m58 0 h10 m40 -32 h10 m0 0 h116 m-146 0 h20 m126 0 h20 m-166 0 q10 0 10 10 m146 0 q0 -10 10 -10 m-156 10 v12 m146 0 v-12 m-146 12 q0 10 10 10 m126 0 q10 0 10 -10 m-136 10 h10 m24 0 h10 m0 0 h10 m62 0 h10 m60 -96 h10 m26 0 h10 m3 0 h-3"/>
         <polygon points="647 83 655 79 655 87"/>
         <polygon points="647 83 639 79 639 87"/>
      </svg>
