      <svg xmlns="http://www.w3.org/2000/svg" width="840" height="134">
         <defs>
            <style type="text/css">
               @namespace "http://www.w3.org/2000/svg";
               .line                 {fill: none; stroke: #1F1F1F;}
               .bold-line            {stroke: #0A0A0A; shape-rendering: crispEdges; stroke-width:
               2; }
               .thin-line            {stroke: #0F0F0F; shape-rendering: crispEdges}
               .filled               {fill: #1F1F1F; stroke: none;}
               text.terminal         {font-family: Verdana, Sans-serif;
               font-size: 12px;
               fill: #0A0A0A;
               font-weight: bold;
               }
               text.nonterminal      {font-family: Verdana, Sans-serif; font-style: italic;
               font-size: 12px;
               fill: #0D0D0D;
               }
               text.regexp           {font-family: Verdana, Sans-serif;
               font-size: 12px;
               fill: #0F0F0F;
               }
               rect, circle, polygon {fill: #1F1F1F; stroke: #1F1F1F;}
               rect.terminal         {fill: #CCCCCC; stroke: #1F1F1F;}
               rect.nonterminal      {fill: #E3E3E3; stroke: #1F1F1F;}
               rect.text             {fill: none; stroke: none;}    
               polygon.regexp        {fill: #EFEFEF; stroke: #1F1F1F;}
               
            </style>
         </defs>
         <polygon points="9 17 1 13 1 21"/>
         <polygon points="17 17 9 13 9 21"/>
         <rect x="31" y="3" width="102" height="32" rx="10"/>
         <rect x="29" y="1" width="102" height="32" class="terminal" rx="10"/>
         <text class="terminal" x="39" y="21">SysFileTree(</text>
<!--     <a xmlns:xlink="http://www.w3.org/1999/xlink" xlink:href="#filespec" xlink:title="filespec"> -->
            <rect x="153" y="3" width="62" height="32"/>
            <rect x="151" y="1" width="62" height="32" class="nonterminal"/>
            <text class="nonterminal" x="161" y="21">filespec</text>
<!--     </a> -->
         <rect x="235" y="3" width="24" height="32" rx="10"/>
         <rect x="233" y="1" width="24" height="32" class="terminal" rx="10"/>
         <text class="terminal" x="243" y="21">,</text>
<!--     <a xmlns:xlink="http://www.w3.org/1999/xlink" xlink:href="#stem" xlink:title="stem"> -->
            <rect x="279" y="3" width="50" height="32"/>
            <rect x="277" y="1" width="50" height="32" class="nonterminal"/>
            <text class="nonterminal" x="287" y="21">stem</text>
<!--     </a> -->
         <rect x="349" y="3" width="24" height="32" rx="10"/>
         <rect x="347" y="1" width="24" height="32" class="terminal" rx="10"/>
         <text class="terminal" x="357" y="21">,</text>
<!--     <a xmlns:xlink="http://www.w3.org/1999/xlink" xlink:href="#options" xlink:title="options"> -->
            <rect x="413" y="35" width="64" height="32"/>
            <rect x="411" y="33" width="64" height="32" class="nonterminal"/>
            <text class="nonterminal" x="421" y="53">options</text>
<!--     </a> -->
         <rect x="517" y="3" width="24" height="32" rx="10"/>
         <rect x="515" y="1" width="24" height="32" class="terminal" rx="10"/>
         <text class="terminal" x="525" y="21">,</text>
<!--     <a xmlns:xlink="http://www.w3.org/1999/xlink" xlink:href="#tattrib" xlink:title="tattrib"> -->
            <rect x="581" y="35" width="56" height="32"/>
            <rect x="579" y="33" width="56" height="32" class="nonterminal"/>
            <text class="nonterminal" x="589" y="53">tattrib</text>
<!--     </a> -->
         <rect x="677" y="3" width="24" height="32" rx="10"/>
         <rect x="675" y="1" width="24" height="32" class="terminal" rx="10"/>
         <text class="terminal" x="685" y="21">,</text>
<!--     <a xmlns:xlink="http://www.w3.org/1999/xlink" xlink:href="#nattrib" xlink:title="nattrib"> -->
            <rect x="741" y="35" width="58" height="32"/>
            <rect x="739" y="33" width="58" height="32" class="nonterminal"/>
            <text class="nonterminal" x="749" y="53">nattrib</text>
<!--     </a> -->
         <rect x="787" y="101" width="26" height="32" rx="10"/>
         <rect x="785" y="99" width="26" height="32" class="terminal" rx="10"/>
         <text class="terminal" x="795" y="119">)</text>
         <svg:path xmlns:svg="http://www.w3.org/2000/svg" class="line" d="m17 17 h2 m0 0 h10 m102 0 h10 m0 0 h10 m62 0 h10 m0 0 h10 m24 0 h10 m0 0 h10 m50 0 h10 m0 0 h10 m24 0 h10 m20 0 h10 m0 0 h74 m-104 0 h20 m84 0 h20 m-124 0 q10 0 10 10 m104 0 q0 -10 10 -10 m-114 10 v12 m104 0 v-12 m-104 12 q0 10 10 10 m84 0 q10 0 10 -10 m-94 10 h10 m64 0 h10 m20 -32 h10 m24 0 h10 m20 0 h10 m0 0 h66 m-96 0 h20 m76 0 h20 m-116 0 q10 0 10 10 m96 0 q0 -10 10 -10 m-106 10 v12 m96 0 v-12 m-96 12 q0 10 10 10 m76 0 q10 0 10 -10 m-86 10 h10 m56 0 h10 m20 -32 h10 m24 0 h10 m20 0 h10 m0 0 h68 m-98 0 h20 m78 0 h20 m-118 0 q10 0 10 10 m98 0 q0 -10 10 -10 m-108 10 v12 m98 0 v-12 m-98 12 q0 10 10 10 m78 0 q10 0 10 -10 m-88 10 h10 m58 0 h10 m22 -32 l2 0 m2 0 l2 0 m2 0 l2 0 m-76 98 l2 0 m2 0 l2 0 m2 0 l2 0 m2 0 h10 m26 0 h10 m3 0 h-3"/>
         <polygon points="831 115 839 111 839 119"/>
         <polygon points="831 115 823 111 823 119"/>
      </svg>
