      <svg xmlns="http://www.w3.org/2000/svg" width="934" height="150">
         <defs>
            <style type="text/css">
               @namespace "http://www.w3.org/2000/svg";
               .line                 {fill: none; stroke: #1F1F1F;}
               .bold-line            {stroke: #0A0A0A; shape-rendering: crispEdges; stroke-width:
               2; }
               .thin-line            {stroke: #0F0F0F; shape-rendering: crispEdges}
               .filled               {fill: #1F1F1F; stroke: none;}
               text.terminal         {font-family: Verdana, Sans-serif;
               font-size: 12px;
               fill: #0A0A0A;
               font-weight: bold;
               }
               text.nonterminal      {font-family: Verdana, Sans-serif;
               font-size: 12px;
               fill: #0D0D0D;
               }
               text.regexp           {font-family: Verdana, Sans-serif;
               font-size: 12px;
               fill: #0F0F0F;
               }
               rect, circle, polygon {fill: #1F1F1F; stroke: #1F1F1F;}
               rect.terminal         {fill: #CCCCCC; stroke: #1F1F1F;}
               rect.nonterminal      {fill: #E3E3E3; stroke: #1F1F1F;}
               rect.text             {fill: none; stroke: none;}    
               polygon.regexp        {fill: #EFEFEF; stroke: #1F1F1F;}
               
            </style>
         </defs>
         <polygon points="9 17 1 13 1 21"/>
         <polygon points="17 17 9 13 9 21"/>
         <rect x="31" y="3" width="104" height="32" rx="10"/>
         <rect x="29" y="1" width="104" height="32" class="terminal" rx="10"/>
         <text class="terminal" x="39" y="21">SysFileTree(</text>
         <a xmlns:xlink="http://www.w3.org/1999/xlink" xlink:href="#filespec" xlink:title="filespec">
            <rect x="155" y="3" width="66" height="32"/>
            <rect x="153" y="1" width="66" height="32" class="nonterminal"/>
            <text class="nonterminal" x="163" y="21">filespec</text>
         </a>
         <rect x="241" y="3" width="24" height="32" rx="10"/>
         <rect x="239" y="1" width="24" height="32" class="terminal" rx="10"/>
         <text class="terminal" x="249" y="21">,</text>
         <a xmlns:xlink="http://www.w3.org/1999/xlink" xlink:href="#stem" xlink:title="stem">
            <rect x="285" y="3" width="50" height="32"/>
            <rect x="283" y="1" width="50" height="32" class="nonterminal"/>
            <text class="nonterminal" x="293" y="21">stem</text>
         </a>
         <rect x="375" y="3" width="24" height="32" rx="10"/>
         <rect x="373" y="1" width="24" height="32" class="terminal" rx="10"/>
         <text class="terminal" x="383" y="21">,</text>
         <a xmlns:xlink="http://www.w3.org/1999/xlink" xlink:href="#options" xlink:title="options">
            <rect x="439" y="3" width="66" height="32"/>
            <rect x="437" y="1" width="66" height="32" class="nonterminal"/>
            <text class="nonterminal" x="447" y="21">options</text>
         </a>
         <rect x="565" y="3" width="24" height="32" rx="10"/>
         <rect x="563" y="1" width="24" height="32" class="terminal" rx="10"/>
         <text class="terminal" x="573" y="21">,</text>
         <a xmlns:xlink="http://www.w3.org/1999/xlink" xlink:href="#tattrib" xlink:title="tattrib">
            <rect x="629" y="3" width="58" height="32"/>
            <rect x="627" y="1" width="58" height="32" class="nonterminal"/>
            <text class="nonterminal" x="637" y="21">tattrib</text>
         </a>
         <rect x="747" y="3" width="24" height="32" rx="10"/>
         <rect x="745" y="1" width="24" height="32" class="terminal" rx="10"/>
         <text class="terminal" x="755" y="21">,</text>
         <a xmlns:xlink="http://www.w3.org/1999/xlink" xlink:href="#nattrib" xlink:title="nattrib">
            <rect x="791" y="3" width="62" height="32"/>
            <rect x="789" y="1" width="62" height="32" class="nonterminal"/>
            <text class="nonterminal" x="799" y="21">nattrib</text>
         </a>
         <rect x="881" y="117" width="26" height="32" rx="10"/>
         <rect x="879" y="115" width="26" height="32" class="terminal" rx="10"/>
         <text class="terminal" x="889" y="135">)</text>
         <svg:path xmlns:svg="http://www.w3.org/2000/svg" class="line" d="m17 17 h2 m0 0 h10 m104 0 h10 m0 0 h10 m66 0 h10 m0 0 h10 m24 0 h10 m0 0 h10 m50 0 h10 m20 0 h10 m24 0 h10 m20 0 h10 m66 0 h10 m-106 0 h20 m86 0 h20 m-126 0 q10 0 10 10 m106 0 q0 -10 10 -10 m-116 10 v14 m106 0 v-14 m-106 14 q0 10 10 10 m86 0 q10 0 10 -10 m-96 10 h10 m0 0 h76 m40 -34 h10 m24 0 h10 m20 0 h10 m58 0 h10 m-98 0 h20 m78 0 h20 m-118 0 q10 0 10 10 m98 0 q0 -10 10 -10 m-108 10 v14 m98 0 v-14 m-98 14 q0 10 10 10 m78 0 q10 0 10 -10 m-88 10 h10 m0 0 h68 m40 -34 h10 m24 0 h10 m0 0 h10 m62 0 h10 m-146 0 h20 m126 0 h20 m-166 0 q10 0 10 10 m146 0 q0 -10 10 -10 m-156 10 v14 m146 0 v-14 m-146 14 q0 10 10 10 m126 0 q10 0 10 -10 m-136 10 h10 m0 0 h116 m-328 -34 h20 m328 0 h20 m-368 0 q10 0 10 10 m348 0 q0 -10 10 -10 m-358 10 v30 m348 0 v-30 m-348 30 q0 10 10 10 m328 0 q10 0 10 -10 m-338 10 h10 m0 0 h318 m-538 -50 h20 m538 0 h20 m-578 0 q10 0 10 10 m558 0 q0 -10 10 -10 m-568 10 v46 m558 0 v-46 m-558 46 q0 10 10 10 m538 0 q10 0 10 -10 m-548 10 h10 m0 0 h528 m22 -66 l2 0 m2 0 l2 0 m2 0 l2 0 m-76 114 l2 0 m2 0 l2 0 m2 0 l2 0 m2 0 h10 m26 0 h10 m3 0 h-3"/>
         <polygon points="925 131 933 127 933 135"/>
         <polygon points="925 131 917 127 917 135"/>
      </svg>
