      <svg xmlns="http://www.w3.org/2000/svg" width="778" height="102">
         <defs>
            <style type="text/css">
               @namespace "http://www.w3.org/2000/svg";
               .line                 {fill: none; stroke: #1F1F1F;}
               .bold-line            {stroke: #0A0A0A; shape-rendering: crispEdges; stroke-width:
               2; }
               .thin-line            {stroke: #0F0F0F; shape-rendering: crispEdges}
               .filled               {fill: #1F1F1F; stroke: none;}
               text.terminal         {font-family: Verdana, Sans-serif;
               font-size: 12px;
               fill: #0A0A0A;
               font-weight: bold;
               }
               text.nonterminal      {font-family: Verdana, Sans-serif; font-style: italic;
               font-size: 12px;
               fill: #0D0D0D;
               }
               text.regexp           {font-family: Verdana, Sans-serif;
               font-size: 12px;
               fill: #0F0F0F;
               }
               rect, circle, polygon {fill: #1F1F1F; stroke: #1F1F1F;}
               rect.terminal         {fill: #CCCCCC; stroke: #1F1F1F;}
               rect.nonterminal      {fill: #E3E3E3; stroke: #1F1F1F;}
               rect.text             {fill: none; stroke: none;}    
               polygon.regexp        {fill: #EFEFEF; stroke: #1F1F1F;}
               
            </style>
         </defs>
         <polygon points="9 17 1 13 1 21"/>
         <polygon points="17 17 9 13 9 21"/>
         <rect x="31" y="3" width="138" height="32" rx="10"/>
         <rect x="29" y="1" width="138" height="32" class="terminal" rx="10"/>
         <text class="terminal" x="39" y="21">SysFromUnicode(</text>
<!--     <a xmlns:xlink="http://www.w3.org/1999/xlink" xlink:href="#string" xlink:title="string"> -->
            <rect x="189" y="3" width="56" height="32"/>
            <rect x="187" y="1" width="56" height="32" class="nonterminal"/>
            <text class="nonterminal" x="197" y="21">string</text>
<!--     </a> -->
         <rect x="265" y="3" width="24" height="32" rx="10"/>
         <rect x="263" y="1" width="24" height="32" class="terminal" rx="10"/>
         <text class="terminal" x="273" y="21">,</text>
<!--     <a xmlns:xlink="http://www.w3.org/1999/xlink" xlink:href="#codepage" xlink:title="codepage"> -->
            <rect x="309" y="3" width="82" height="32"/>
            <rect x="307" y="1" width="82" height="32" class="nonterminal"/>
            <text class="nonterminal" x="317" y="21">codepage</text>
<!--     </a> -->
         <rect x="411" y="3" width="24" height="32" rx="10"/>
         <rect x="409" y="1" width="24" height="32" class="terminal" rx="10"/>
         <text class="terminal" x="419" y="21">,</text>
<!--     <a xmlns:xlink="http://www.w3.org/1999/xlink" xlink:href="#mappingflags" xlink:title="mappingflags"> -->
            <rect x="455" y="3" width="104" height="32"/>
            <rect x="453" y="1" width="104" height="32" class="nonterminal"/>
            <text class="nonterminal" x="463" y="21">mappingflags</text>
<!--     </a> -->
         <rect x="579" y="3" width="24" height="32" rx="10"/>
         <rect x="577" y="1" width="24" height="32" class="terminal" rx="10"/>
         <text class="terminal" x="587" y="21">,</text>
<!--     <a xmlns:xlink="http://www.w3.org/1999/xlink" xlink:href="#defaultchar" xlink:title="defaultchar"> -->
            <rect x="623" y="3" width="90" height="32"/>
            <rect x="621" y="1" width="90" height="32" class="nonterminal"/>
            <text class="nonterminal" x="631" y="21">defaultchar</text>
<!--     </a> -->
         <rect x="733" y="3" width="24" height="32" rx="10"/>
         <rect x="731" y="1" width="24" height="32" class="terminal" rx="10"/>
         <text class="terminal" x="741" y="21">,</text>
<!--     <a xmlns:xlink="http://www.w3.org/1999/xlink" xlink:href="#outstem" xlink:title="outstem"> -->
            <rect x="633" y="69" width="72" height="32"/>
            <rect x="631" y="67" width="72" height="32" class="nonterminal"/>
            <text class="nonterminal" x="641" y="87">outstem</text>
<!--     </a> -->
         <rect x="725" y="69" width="26" height="32" rx="10"/>
         <rect x="723" y="67" width="26" height="32" class="terminal" rx="10"/>
         <text class="terminal" x="733" y="87">)</text>
         <svg:path xmlns:svg="http://www.w3.org/2000/svg" class="line" d="m17 17 h2 m0 0 h10 m138 0 h10 m0 0 h10 m56 0 h10 m0 0 h10 m24 0 h10 m0 0 h10 m82 0 h10 m0 0 h10 m24 0 h10 m0 0 h10 m104 0 h10 m0 0 h10 m24 0 h10 m0 0 h10 m90 0 h10 m0 0 h10 m24 0 h10 m2 0 l2 0 m2 0 l2 0 m2 0 l2 0 m-168 66 l2 0 m2 0 l2 0 m2 0 l2 0 m2 0 h10 m72 0 h10 m0 0 h10 m26 0 h10 m3 0 h-3"/>
         <polygon points="769 83 777 79 777 87"/>
         <polygon points="769 83 761 79 761 87"/>
      </svg>
