<svg xmlns="http://www.w3.org/2000/svg" width="859" height="135">
         <defs>
            <style type="text/css">
    @namespace "http://www.w3.org/2000/svg";
    .line                 {fill: none; stroke: #1F1F1F;}
    .bold-line            {stroke: #0A0A0A; shape-rendering: crispEdges; stroke-width: 2; }
    .thin-line            {stroke: #0F0F0F; shape-rendering: crispEdges}
    .filled               {fill: #1F1F1F; stroke: none;}
    text.terminal         {font-family: Verdana, Sans-serif;
                            font-size: 12px;
                            fill: #0A0A0A;
                            font-weight: bold;
                          }
    text.nonterminal      {font-family: Verdana, Sans-serif; font-style: italic;
                            font-size: 12px;
                            fill: #0D0D0D;
                            font-weight: normal;
                          }
    text.regexp           {font-family: Verdana, Sans-serif;
                            font-size: 12px;
                            fill: #0F0F0F;
                            font-weight: normal;
                          }
    rect, circle, polygon {fill: #1F1F1F; stroke: #1F1F1F;}
    rect.terminal         {fill: #CCCCCC; stroke: #1F1F1F;}
    rect.nonterminal      {fill: #E3E3E3; stroke: #1F1F1F;}
    rect.text             {fill: none; stroke: none;}    
    polygon.regexp        {fill: #EFEFEF; stroke: #1F1F1F;}
  </style>
         </defs>
         <polygon points="9 17 1 13 1 21"/>
         <polygon points="17 17 9 13 9 21"/>
         <rect x="31" y="3" width="140" height="32" rx="10"/>
         <rect x="29" y="1" width="140" height="32" class="terminal" rx="10"/>
         <text class="terminal" x="39" y="21">SysFromUnicode(</text>
<!--  <a xmlns:xlink="http://www.w3.org/1999/xlink" xlink:href="#string" xlink:title="string"> -->
            <rect x="191" y="3" width="56" height="32"/>
            <rect x="189" y="1" width="56" height="32" class="nonterminal"/>
            <text class="nonterminal" x="199" y="21">string</text><!-- </a> -->
<rect x="267" y="3" width="24" height="32" rx="10"/>
         <rect x="265" y="1" width="24" height="32" class="terminal" rx="10"/>
         <text class="terminal" x="275" y="21">,</text>
<!--  <a xmlns:xlink="http://www.w3.org/1999/xlink" xlink:href="#codepage" xlink:title="codepage"> -->
            <rect x="331" y="35" width="82" height="32"/>
            <rect x="329" y="33" width="82" height="32" class="nonterminal"/>
            <text class="nonterminal" x="339" y="53">codepage</text><!-- </a> -->
<rect x="453" y="3" width="24" height="32" rx="10"/>
         <rect x="451" y="1" width="24" height="32" class="terminal" rx="10"/>
         <text class="terminal" x="461" y="21">,</text>
<!--  <a xmlns:xlink="http://www.w3.org/1999/xlink" xlink:href="#mappingflags" xlink:title="mappingflags"> -->
            <rect x="517" y="35" width="104" height="32"/>
            <rect x="515" y="33" width="104" height="32" class="nonterminal"/>
            <text class="nonterminal" x="525" y="53">mappingflags</text><!-- </a> -->
<rect x="661" y="3" width="24" height="32" rx="10"/>
         <rect x="659" y="1" width="24" height="32" class="terminal" rx="10"/>
         <text class="terminal" x="669" y="21">,</text>
<!--  <a xmlns:xlink="http://www.w3.org/1999/xlink" xlink:href="#defaultchar" xlink:title="defaultchar"> -->
            <rect x="725" y="35" width="92" height="32"/>
            <rect x="723" y="33" width="92" height="32" class="nonterminal"/>
            <text class="nonterminal" x="733" y="53">defaultchar</text><!-- </a> -->
<rect x="669" y="101" width="24" height="32" rx="10"/>
         <rect x="667" y="99" width="24" height="32" class="terminal" rx="10"/>
         <text class="terminal" x="677" y="119">,</text>
<!--  <a xmlns:xlink="http://www.w3.org/1999/xlink" xlink:href="#outstem" xlink:title="outstem"> -->
            <rect x="713" y="101" width="72" height="32"/>
            <rect x="711" y="99" width="72" height="32" class="nonterminal"/>
            <text class="nonterminal" x="721" y="119">outstem</text><!-- </a> -->
<rect x="805" y="101" width="26" height="32" rx="10"/>
         <rect x="803" y="99" width="26" height="32" class="terminal" rx="10"/>
         <text class="terminal" x="813" y="119">)</text>
         <svg:path xmlns:svg="http://www.w3.org/2000/svg" class="line" d="m17 17 h2 m0 0 h10 m140 0 h10 m0 0 h10 m56 0 h10 m0 0 h10 m24 0 h10 m20 0 h10 m0 0 h92 m-122 0 h20 m102 0 h20 m-142 0 q10 0 10 10 m122 0 q0 -10 10 -10 m-132 10 v12 m122 0 v-12 m-122 12 q0 10 10 10 m102 0 q10 0 10 -10 m-112 10 h10 m82 0 h10 m20 -32 h10 m24 0 h10 m20 0 h10 m0 0 h114 m-144 0 h20 m124 0 h20 m-164 0 q10 0 10 10 m144 0 q0 -10 10 -10 m-154 10 v12 m144 0 v-12 m-144 12 q0 10 10 10 m124 0 q10 0 10 -10 m-134 10 h10 m104 0 h10 m20 -32 h10 m24 0 h10 m20 0 h10 m0 0 h102 m-132 0 h20 m112 0 h20 m-152 0 q10 0 10 10 m132 0 q0 -10 10 -10 m-142 10 v12 m132 0 v-12 m-132 12 q0 10 10 10 m112 0 q10 0 10 -10 m-122 10 h10 m92 0 h10 m22 -32 l2 0 m2 0 l2 0 m2 0 l2 0 m-212 98 l2 0 m2 0 l2 0 m2 0 l2 0 m2 0 h10 m24 0 h10 m0 0 h10 m72 0 h10 m0 0 h10 m26 0 h10 m3 0 h-3"/>
         <polygon points="849 115 857 111 857 119"/>
         <polygon points="849 115 841 111 841 119"/></svg>
