      <svg xmlns="http://www.w3.org/2000/svg" width="518" height="68">
         <defs>
            <style type="text/css">
               @namespace "http://www.w3.org/2000/svg";
               .line                 {fill: none; stroke: #1F1F1F;}
               .bold-line            {stroke: #0A0A0A; shape-rendering: crispEdges; stroke-width:
               2; }
               .thin-line            {stroke: #0F0F0F; shape-rendering: crispEdges}
               .filled               {fill: #1F1F1F; stroke: none;}
               text.terminal         {font-family: Verdana, Sans-serif;
               font-size: 12px;
               fill: #0A0A0A;
               font-weight: bold;
               }
               text.nonterminal      {font-family: Verdana, Sans-serif; font-style: italic;
               font-size: 12px;
               fill: #0D0D0D;
               }
               text.regexp           {font-family: Verdana, Sans-serif;
               font-size: 12px;
               fill: #0F0F0F;
               }
               rect, circle, polygon {fill: #1F1F1F; stroke: #1F1F1F;}
               rect.terminal         {fill: #CCCCCC; stroke: #1F1F1F;}
               rect.nonterminal      {fill: #E3E3E3; stroke: #1F1F1F;}
               rect.text             {fill: none; stroke: none;}    
               polygon.regexp        {fill: #EFEFEF; stroke: #1F1F1F;}
               
            </style>
         </defs>
         <polygon points="9 17 1 13 1 21"/>
         <polygon points="17 17 9 13 9 21"/>
         <rect x="31" y="3" width="158" height="32" rx="10"/>
         <rect x="29" y="1" width="158" height="32" class="terminal" rx="10"/>
         <text class="terminal" x="39" y="21">SysGetFileDateTime(</text>
<!--     <a xmlns:xlink="http://www.w3.org/1999/xlink" xlink:href="#filename" xlink:title="filename"> -->
            <rect x="209" y="3" width="70" height="32"/>
            <rect x="207" y="1" width="70" height="32" class="nonterminal"/>
            <text class="nonterminal" x="217" y="21">filename</text>
<!--     </a> -->
         <rect x="319" y="35" width="24" height="32" rx="10"/>
         <rect x="317" y="33" width="24" height="32" class="terminal" rx="10"/>
         <text class="terminal" x="327" y="53">,</text>
<!--     <a xmlns:xlink="http://www.w3.org/1999/xlink" xlink:href="#timesel" xlink:title="timesel"> -->
            <rect x="363" y="35" width="62" height="32"/>
            <rect x="361" y="33" width="62" height="32" class="nonterminal"/>
            <text class="nonterminal" x="371" y="53">timesel</text>
<!--     </a> -->
         <rect x="465" y="3" width="26" height="32" rx="10"/>
         <rect x="463" y="1" width="26" height="32" class="terminal" rx="10"/>
         <text class="terminal" x="473" y="21">)</text>
         <svg:path xmlns:svg="http://www.w3.org/2000/svg" class="line" d="m17 17 h2 m0 0 h10 m158 0 h10 m0 0 h10 m70 0 h10 m20 0 h10 m0 0 h116 m-146 0 h20 m126 0 h20 m-166 0 q10 0 10 10 m146 0 q0 -10 10 -10 m-156 10 v12 m146 0 v-12 m-146 12 q0 10 10 10 m126 0 q10 0 10 -10 m-136 10 h10 m24 0 h10 m0 0 h10 m62 0 h10 m20 -32 h10 m26 0 h10 m3 0 h-3"/>
         <polygon points="509 17 517 13 517 21"/>
         <polygon points="509 17 501 13 501 21"/>
      </svg>
