      <svg xmlns="http://www.w3.org/2000/svg" width="770" height="206">
         <defs>
            <style type="text/css">
               @namespace "http://www.w3.org/2000/svg";
               .line                 {fill: none; stroke: #1F1F1F;}
               .bold-line            {stroke: #0A0A0A; shape-rendering: crispEdges; stroke-width:
               2; }
               .thin-line            {stroke: #0F0F0F; shape-rendering: crispEdges}
               .filled               {fill: #1F1F1F; stroke: none;}
               text.terminal         {font-family: Verdana, Sans-serif;
               font-size: 12px;
               fill: #0A0A0A;
               font-weight: bold;
               }
               text.nonterminal      {font-family: Verdana, Sans-serif;
               font-size: 12px;
               fill: #0D0D0D;
               }
               text.regexp           {font-family: Verdana, Sans-serif;
               font-size: 12px;
               fill: #0F0F0F;
               }
               rect, circle, polygon {fill: #1F1F1F; stroke: #1F1F1F;}
               rect.terminal         {fill: #CCCCCC; stroke: #1F1F1F;}
               rect.nonterminal      {fill: #E3E3E3; stroke: #1F1F1F;}
               rect.text             {fill: none; stroke: none;}    
               polygon.regexp        {fill: #EFEFEF; stroke: #1F1F1F;}
               
            </style>
         </defs>
         <polygon points="9 61 1 57 1 65"/>
         <polygon points="17 61 9 57 9 65"/>
         <rect x="31" y="47" width="140" height="32" rx="10"/>
         <rect x="29" y="45" width="140" height="32" class="terminal" rx="10"/>
         <text class="terminal" x="39" y="65">SysGetMessageX(</text>
         <a xmlns:xlink="http://www.w3.org/1999/xlink" xlink:href="#set" xlink:title="set">
            <rect x="191" y="47" width="40" height="32"/>
            <rect x="189" y="45" width="40" height="32" class="nonterminal"/>
            <text class="nonterminal" x="199" y="65">set</text>
         </a>
         <rect x="251" y="47" width="24" height="32" rx="10"/>
         <rect x="249" y="45" width="24" height="32" class="terminal" rx="10"/>
         <text class="terminal" x="259" y="65">,</text>
         <a xmlns:xlink="http://www.w3.org/1999/xlink" xlink:href="#num" xlink:title="num">
            <rect x="295" y="47" width="46" height="32"/>
            <rect x="293" y="45" width="46" height="32" class="nonterminal"/>
            <text class="nonterminal" x="303" y="65">num</text>
         </a>
         <rect x="381" y="47" width="24" height="32" rx="10"/>
         <rect x="379" y="45" width="24" height="32" class="terminal" rx="10"/>
         <text class="terminal" x="389" y="65">,</text>
         <a xmlns:xlink="http://www.w3.org/1999/xlink" xlink:href="#filename" xlink:title="filename">
            <rect x="425" y="47" width="72" height="32"/>
            <rect x="423" y="45" width="72" height="32" class="nonterminal"/>
            <text class="nonterminal" x="433" y="65">filename</text>
         </a>
         <rect x="537" y="47" width="24" height="32" rx="10"/>
         <rect x="535" y="45" width="24" height="32" class="terminal" rx="10"/>
         <text class="terminal" x="545" y="65">,</text>
         <a xmlns:xlink="http://www.w3.org/1999/xlink" xlink:href="#str" xlink:title="str">
            <rect x="601" y="47" width="36" height="32"/>
            <rect x="599" y="45" width="36" height="32" class="nonterminal"/>
            <text class="nonterminal" x="609" y="65">str</text>
         </a>
         <rect x="601" y="3" width="24" height="32" rx="10"/>
         <rect x="599" y="1" width="24" height="32" class="terminal" rx="10"/>
         <text class="terminal" x="609" y="21">,</text>
         <rect x="381" y="157" width="24" height="32" rx="10"/>
         <rect x="379" y="155" width="24" height="32" class="terminal" rx="10"/>
         <text class="terminal" x="389" y="175">,</text>
         <a xmlns:xlink="http://www.w3.org/1999/xlink" xlink:href="#str" xlink:title="str">
            <rect x="445" y="157" width="36" height="32"/>
            <rect x="443" y="155" width="36" height="32" class="nonterminal"/>
            <text class="nonterminal" x="453" y="175">str</text>
         </a>
         <rect x="445" y="113" width="24" height="32" rx="10"/>
         <rect x="443" y="111" width="24" height="32" class="terminal" rx="10"/>
         <text class="terminal" x="453" y="131">,</text>
         <rect x="717" y="47" width="26" height="32" rx="10"/>
         <rect x="715" y="45" width="26" height="32" class="terminal" rx="10"/>
         <text class="terminal" x="725" y="65">)</text>
         <svg:path xmlns:svg="http://www.w3.org/2000/svg" class="line" d="m17 61 h2 m0 0 h10 m140 0 h10 m0 0 h10 m40 0 h10 m0 0 h10 m24 0 h10 m0 0 h10 m46 0 h10 m20 0 h10 m24 0 h10 m0 0 h10 m72 0 h10 m20 0 h10 m24 0 h10 m20 0 h10 m36 0 h10 m-76 0 l20 0 m-1 0 q-9 0 -9 -10 l0 -24 q0 -10 10 -10 m56 44 l20 0 m-20 0 q10 0 10 -10 l0 -24 q0 -10 -10 -10 m-56 0 h10 m24 0 h10 m0 0 h12 m-140 44 h20 m140 0 h20 m-180 0 q10 0 10 10 m160 0 q0 -10 10 -10 m-170 10 v14 m160 0 v-14 m-160 14 q0 10 10 10 m140 0 q10 0 10 -10 m-150 10 h10 m0 0 h130 m-316 -34 h20 m316 0 h20 m-356 0 q10 0 10 10 m336 0 q0 -10 10 -10 m-346 10 v90 m336 0 v-90 m-336 90 q0 10 10 10 m316 0 q10 0 10 -10 m-326 10 h10 m24 0 h10 m20 0 h10 m36 0 h10 m-76 0 l20 0 m-1 0 q-9 0 -9 -10 l0 -24 q0 -10 10 -10 m56 44 l20 0 m-20 0 q10 0 10 -10 l0 -24 q0 -10 -10 -10 m-56 0 h10 m24 0 h10 m0 0 h12 m20 44 h176 m-326 -10 v20 m336 0 v-20 m-336 20 v14 m336 0 v-14 m-336 14 q0 10 10 10 m316 0 q10 0 10 -10 m-326 10 h10 m0 0 h306 m20 -144 h10 m26 0 h10 m3 0 h-3"/>
         <polygon points="761 61 769 57 769 65"/>
         <polygon points="761 61 753 57 753 65"/>
      </svg>
