<svg xmlns="http://www.w3.org/2000/svg" width="775" height="151">
         <defs>
            <style type="text/css">
    @namespace "http://www.w3.org/2000/svg";
    .line                 {fill: none; stroke: #1F1F1F;}
    .bold-line            {stroke: #0A0A0A; shape-rendering: crispEdges; stroke-width: 2; }
    .thin-line            {stroke: #0F0F0F; shape-rendering: crispEdges}
    .filled               {fill: #1F1F1F; stroke: none;}
    text.terminal         {font-family: Verdana, Sans-serif;
                            font-size: 12px;
                            fill: #0A0A0A;
                            font-weight: bold;
                          }
    text.nonterminal      {font-family: Verdana, Sans-serif; font-style: italic;
                            font-size: 12px;
                            fill: #0D0D0D;
                            font-weight: normal;
                          }
    text.regexp           {font-family: Verdana, Sans-serif;
                            font-size: 12px;
                            fill: #0F0F0F;
                            font-weight: normal;
                          }
    rect, circle, polygon {fill: #1F1F1F; stroke: #1F1F1F;}
    rect.terminal         {fill: #CCCCCC; stroke: #1F1F1F;}
    rect.nonterminal      {fill: #E3E3E3; stroke: #1F1F1F;}
    rect.text             {fill: none; stroke: none;}    
    polygon.regexp        {fill: #EFEFEF; stroke: #1F1F1F;}
  </style>
         </defs>
         <polygon points="9 33 1 29 1 37"/>
         <polygon points="17 33 9 29 9 37"/>
         <rect x="31" y="19" width="140" height="32" rx="10"/>
         <rect x="29" y="17" width="140" height="32" class="terminal" rx="10"/>
         <text class="terminal" x="39" y="37">SysGetMessageX(</text>
<!--  <a xmlns:xlink="http://www.w3.org/1999/xlink" xlink:href="#set" xlink:title="set"> -->
            <rect x="191" y="19" width="40" height="32"/>
            <rect x="189" y="17" width="40" height="32" class="nonterminal"/>
            <text class="nonterminal" x="199" y="37">set</text><!-- </a> -->
<rect x="251" y="19" width="24" height="32" rx="10"/>
         <rect x="249" y="17" width="24" height="32" class="terminal" rx="10"/>
         <text class="terminal" x="259" y="37">,</text>
<!--  <a xmlns:xlink="http://www.w3.org/1999/xlink" xlink:href="#num" xlink:title="num"> -->
            <rect x="295" y="19" width="48" height="32"/>
            <rect x="293" y="17" width="48" height="32" class="nonterminal"/>
            <text class="nonterminal" x="303" y="37">num</text><!-- </a> -->
<rect x="383" y="19" width="24" height="32" rx="10"/>
         <rect x="381" y="17" width="24" height="32" class="terminal" rx="10"/>
         <text class="terminal" x="391" y="37">,</text>
<!--  <a xmlns:xlink="http://www.w3.org/1999/xlink" xlink:href="#filename" xlink:title="filename"> -->
            <rect x="427" y="19" width="74" height="32"/>
            <rect x="425" y="17" width="74" height="32" class="nonterminal"/>
            <text class="nonterminal" x="435" y="37">filename</text><!-- </a> -->
<rect x="561" y="19" width="24" height="32" rx="10"/>
         <rect x="559" y="17" width="24" height="32" class="terminal" rx="10"/>
         <text class="terminal" x="569" y="37">,</text>
<!--  <a xmlns:xlink="http://www.w3.org/1999/xlink" xlink:href="#str" xlink:title="str"> -->
            <rect x="605" y="19" width="36" height="32"/>
            <rect x="603" y="17" width="36" height="32" class="nonterminal"/>
            <text class="nonterminal" x="613" y="37">str</text><!-- </a> -->
<rect x="403" y="101" width="24" height="32" rx="10"/>
         <rect x="401" y="99" width="24" height="32" class="terminal" rx="10"/>
         <text class="terminal" x="411" y="119">,</text>
<!--  <a xmlns:xlink="http://www.w3.org/1999/xlink" xlink:href="#str" xlink:title="str"> -->
            <rect x="447" y="101" width="36" height="32"/>
            <rect x="445" y="99" width="36" height="32" class="nonterminal"/>
            <text class="nonterminal" x="455" y="119">str</text><!-- </a> -->
<rect x="721" y="19" width="26" height="32" rx="10"/>
         <rect x="719" y="17" width="26" height="32" class="terminal" rx="10"/>
         <text class="terminal" x="729" y="37">)</text>
         <svg:path xmlns:svg="http://www.w3.org/2000/svg" class="line" d="m17 33 h2 m0 0 h10 m140 0 h10 m0 0 h10 m40 0 h10 m0 0 h10 m24 0 h10 m0 0 h10 m48 0 h10 m20 0 h10 m24 0 h10 m0 0 h10 m74 0 h10 m40 0 h10 m24 0 h10 m0 0 h10 m36 0 h10 m-120 0 l20 0 m-1 0 q-9 0 -9 -10 l0 -12 q0 -10 10 -10 m100 32 l20 0 m-20 0 q10 0 10 -10 l0 -12 q0 -10 -10 -10 m-100 0 h10 m0 0 h90 m-140 32 h20 m140 0 h20 m-180 0 q10 0 10 10 m160 0 q0 -10 10 -10 m-170 10 v14 m160 0 v-14 m-160 14 q0 10 10 10 m140 0 q10 0 10 -10 m-150 10 h10 m0 0 h130 m-318 -34 h20 m318 0 h20 m-358 0 q10 0 10 10 m338 0 q0 -10 10 -10 m-348 10 v62 m338 0 v-62 m-338 62 q0 10 10 10 m318 0 q10 0 10 -10 m-308 10 h10 m24 0 h10 m0 0 h10 m36 0 h10 m-120 0 l20 0 m-1 0 q-9 0 -9 -10 l0 -12 q0 -10 10 -10 m100 32 l20 0 m-20 0 q10 0 10 -10 l0 -12 q0 -10 -10 -10 m-100 0 h10 m0 0 h90 m20 32 h178 m-328 -10 v20 m338 0 v-20 m-338 20 v14 m338 0 v-14 m-338 14 q0 10 10 10 m318 0 q10 0 10 -10 m-328 10 h10 m0 0 h308 m20 -116 h10 m26 0 h10 m3 0 h-3"/>
         <polygon points="765 33 773 29 773 37"/>
         <polygon points="765 33 757 29 757 37"/></svg>
