      <svg xmlns="http://www.w3.org/2000/svg" width="654" height="150">
         <defs>
            <style type="text/css">
               @namespace "http://www.w3.org/2000/svg";
               .line                 {fill: none; stroke: #1F1F1F;}
               .bold-line            {stroke: #0A0A0A; shape-rendering: crispEdges; stroke-width:
               2; }
               .thin-line            {stroke: #0F0F0F; shape-rendering: crispEdges}
               .filled               {fill: #1F1F1F; stroke: none;}
               text.terminal         {font-family: Verdana, Sans-serif;
               font-size: 12px;
               fill: #0A0A0A;
               font-weight: bold;
               }
               text.nonterminal      {font-family: Verdana, Sans-serif; font-style: italic;
               font-size: 12px;
               fill: #0D0D0D;
               }
               text.regexp           {font-family: Verdana, Sans-serif;
               font-size: 12px;
               fill: #0F0F0F;
               }
               rect, circle, polygon {fill: #1F1F1F; stroke: #1F1F1F;}
               rect.terminal         {fill: #CCCCCC; stroke: #1F1F1F;}
               rect.nonterminal      {fill: #E3E3E3; stroke: #1F1F1F;}
               rect.text             {fill: none; stroke: none;}    
               polygon.regexp        {fill: #EFEFEF; stroke: #1F1F1F;}
               
            </style>
         </defs>
         <polygon points="9 33 1 29 1 37"/>
         <polygon points="17 33 9 29 9 37"/>
         <rect x="31" y="19" width="130" height="32" rx="10"/>
         <rect x="29" y="17" width="130" height="32" class="terminal" rx="10"/>
         <text class="terminal" x="39" y="37">SysGetMessage(</text>
<!--     <a xmlns:xlink="http://www.w3.org/1999/xlink" xlink:href="#num" xlink:title="num"> -->
            <rect x="181" y="19" width="46" height="32"/>
            <rect x="179" y="17" width="46" height="32" class="nonterminal"/>
            <text class="nonterminal" x="189" y="37">num</text>
<!--     </a> -->
         <rect x="267" y="19" width="24" height="32" rx="10"/>
         <rect x="265" y="17" width="24" height="32" class="terminal" rx="10"/>
         <text class="terminal" x="275" y="37">,</text>
<!--     <a xmlns:xlink="http://www.w3.org/1999/xlink" xlink:href="#filename" xlink:title="filename"> -->
            <rect x="311" y="19" width="70" height="32"/>
            <rect x="309" y="17" width="70" height="32" class="nonterminal"/>
            <text class="nonterminal" x="319" y="37">filename</text>
<!--     </a> -->
         <rect x="441" y="19" width="24" height="32" rx="10"/>
         <rect x="439" y="17" width="24" height="32" class="terminal" rx="10"/>
         <text class="terminal" x="449" y="37">,</text>
<!--     <a xmlns:xlink="http://www.w3.org/1999/xlink" xlink:href="#str" xlink:title="str"> -->
            <rect x="485" y="19" width="36" height="32"/>
            <rect x="483" y="17" width="36" height="32" class="nonterminal"/>
            <text class="nonterminal" x="493" y="37">str</text>
<!--     </a> -->
         <rect x="287" y="101" width="24" height="32" rx="10"/>
         <rect x="285" y="99" width="24" height="32" class="terminal" rx="10"/>
         <text class="terminal" x="295" y="119">,</text>
<!--     <a xmlns:xlink="http://www.w3.org/1999/xlink" xlink:href="#str" xlink:title="str"> -->
            <rect x="331" y="101" width="36" height="32"/>
            <rect x="329" y="99" width="36" height="32" class="nonterminal"/>
            <text class="nonterminal" x="339" y="119">str</text>
<!--     </a> -->
         <rect x="601" y="19" width="26" height="32" rx="10"/>
         <rect x="599" y="17" width="26" height="32" class="terminal" rx="10"/>
         <text class="terminal" x="609" y="37">)</text>
         <svg:path xmlns:svg="http://www.w3.org/2000/svg" class="line" d="m17 33 h2 m0 0 h10 m130 0 h10 m0 0 h10 m46 0 h10 m20 0 h10 m24 0 h10 m0 0 h10 m70 0 h10 m40 0 h10 m24 0 h10 m0 0 h10 m36 0 h10 m-120 0 l20 0 m-1 0 q-9 0 -9 -10 l0 -12 q0 -10 10 -10 m100 32 l20 0 m-20 0 q10 0 10 -10 l0 -12 q0 -10 -10 -10 m-100 0 h10 m0 0 h90 m-140 32 h20 m140 0 h20 m-180 0 q10 0 10 10 m160 0 q0 -10 10 -10 m-170 10 v14 m160 0 v-14 m-160 14 q0 10 10 10 m140 0 q10 0 10 -10 m-150 10 h10 m0 0 h130 m-314 -34 h20 m314 0 h20 m-354 0 q10 0 10 10 m334 0 q0 -10 10 -10 m-344 10 v62 m334 0 v-62 m-334 62 q0 10 10 10 m314 0 q10 0 10 -10 m-304 10 h10 m24 0 h10 m0 0 h10 m36 0 h10 m-120 0 l20 0 m-1 0 q-9 0 -9 -10 l0 -12 q0 -10 10 -10 m100 32 l20 0 m-20 0 q10 0 10 -10 l0 -12 q0 -10 -10 -10 m-100 0 h10 m0 0 h90 m20 32 h174 m-324 -10 v20 m334 0 v-20 m-334 20 v14 m334 0 v-14 m-334 14 q0 10 10 10 m314 0 q10 0 10 -10 m-324 10 h10 m0 0 h304 m20 -116 h10 m26 0 h10 m3 0 h-3"/>
         <polygon points="645 33 653 29 653 37"/>
         <polygon points="645 33 637 29 637 37"/>
      </svg>
