<svg xmlns="http://www.w3.org/2000/svg" width="617" height="85">
         <defs>
            <style type="text/css">
    @namespace "http://www.w3.org/2000/svg";
    .line                 {fill: none; stroke: #1F1F1F; stroke-width: 1;}
    .bold-line            {stroke: #0A0A0A; shape-rendering: crispEdges; stroke-width: 2;}
    .thin-line            {stroke: #0F0F0F; shape-rendering: crispEdges}
    .filled               {fill: #1F1F1F; stroke: none;}
    text.terminal         {font-family: Verdana, Sans-serif;
                            font-size: 12px;
                            fill: #0A0A0A;
                            font-weight: bold;
                          }
    text.nonterminal      {font-family: Verdana, Sans-serif; font-style: italic;
                            font-size: 12px;
                            fill: #0D0D0D;
                            font-weight: normal;
                          }
    text.regexp           {font-family: Verdana, Sans-serif;
                            font-size: 12px;
                            fill: #0F0F0F;
                            font-weight: normal;
                          }
    rect, circle, polygon {fill: #1F1F1F; stroke: #1F1F1F;}
    rect.terminal         {fill: #cccccc; stroke: #1F1F1F; stroke-width: 1;}
    rect.nonterminal      {fill: #E3E3E3; stroke: #1F1F1F; stroke-width: 1;}
    rect.text             {fill: none; stroke: none;}
    polygon.regexp        {fill: #EFEFEF; stroke: #1F1F1F; stroke-width: 1;}
  </style>
         </defs>
         <polygon points="9 33 1 29 1 37"/>
         <polygon points="17 33 9 29 9 37"/>
         <rect x="31" y="19" width="132" height="32" rx="10"/>
         <rect x="29" y="17" width="132" height="32" class="terminal" rx="10"/>
         <text class="terminal" x="39" y="37">SysGetMessage(</text>
<!--  <a xmlns:xlink="http://www.w3.org/1999/xlink" xlink:href="#num" xlink:title="num"> -->
            <rect x="183" y="19" width="48" height="32"/>
            <rect x="181" y="17" width="48" height="32" class="nonterminal"/>
            <text class="nonterminal" x="191" y="37">num</text><!-- </a> -->
<rect x="251" y="19" width="24" height="32" rx="10"/>
         <rect x="249" y="17" width="24" height="32" class="terminal" rx="10"/>
         <text class="terminal" x="259" y="37">,</text>
<!--  <a xmlns:xlink="http://www.w3.org/1999/xlink" xlink:href="#filename" xlink:title="filename"> -->
            <rect x="315" y="51" width="74" height="32"/>
            <rect x="313" y="49" width="74" height="32" class="nonterminal"/>
            <text class="nonterminal" x="323" y="69">filename</text><!-- </a> -->
<rect x="469" y="19" width="24" height="32" rx="10"/>
         <rect x="467" y="17" width="24" height="32" class="terminal" rx="10"/>
         <text class="terminal" x="477" y="37">,</text>
<!--  <a xmlns:xlink="http://www.w3.org/1999/xlink" xlink:href="#str" xlink:title="str"> -->
            <rect x="513" y="19" width="36" height="32"/>
            <rect x="511" y="17" width="36" height="32" class="nonterminal"/>
            <text class="nonterminal" x="521" y="37">str</text><!-- </a> -->
<svg:path xmlns:svg="http://www.w3.org/2000/svg" class="line" d="m17 33 h2 m0 0 h10 m132 0 h10 m0 0 h10 m48 0 h10 m0 0 h10 m24 0 h10 m20 0 h10 m0 0 h84 m-114 0 h20 m94 0 h20 m-134 0 q10 0 10 10 m114 0 q0 -10 10 -10 m-124 10 v12 m114 0 v-12 m-114 12 q0 10 10 10 m94 0 q10 0 10 -10 m-104 10 h10 m74 0 h10 m60 -32 h10 m24 0 h10 m0 0 h10 m36 0 h10 m-120 0 l20 0 m-1 0 q-9 0 -9 -10 l0 -12 q0 -10 10 -10 m100 32 l20 0 m-20 0 q10 0 10 -10 l0 -12 q0 -10 -10 -10 m-100 0 h10 m0 0 h90 m-140 32 h20 m140 0 h20 m-180 0 q10 0 10 10 m160 0 q0 -10 10 -10 m-170 10 v14 m160 0 v-14 m-160 14 q0 10 10 10 m140 0 q10 0 10 -10 m-150 10 h10 m0 0 h130 m23 -34 h-3"/>
         <polygon points="607 33 615 29 615 37"/>
         <polygon points="607 33 599 29 599 37"/></svg>
