      <svg xmlns="http://www.w3.org/2000/svg" width="538" height="68">
         <defs>
            <style type="text/css">
               @namespace "http://www.w3.org/2000/svg";
               .line                 {fill: none; stroke: #1F1F1F;}
               .bold-line            {stroke: #0A0A0A; shape-rendering: crispEdges; stroke-width:
               2; }
               .thin-line            {stroke: #0F0F0F; shape-rendering: crispEdges}
               .filled               {fill: #1F1F1F; stroke: none;}
               text.terminal         {font-family: Verdana, Sans-serif;
               font-size: 12px;
               fill: #0A0A0A;
               font-weight: bold;
               }
               text.nonterminal      {font-family: Verdana, Sans-serif; font-style: italic;
               font-size: 12px;
               fill: #0D0D0D;
               }
               text.regexp           {font-family: Verdana, Sans-serif;
               font-size: 12px;
               fill: #0F0F0F;
               }
               rect, circle, polygon {fill: #1F1F1F; stroke: #1F1F1F;}
               rect.terminal         {fill: #CCCCCC; stroke: #1F1F1F;}
               rect.nonterminal      {fill: #E3E3E3; stroke: #1F1F1F;}
               rect.text             {fill: none; stroke: none;}    
               polygon.regexp        {fill: #EFEFEF; stroke: #1F1F1F;}
               
            </style>
         </defs>
         <polygon points="9 17 1 13 1 21"/>
         <polygon points="17 17 9 13 9 21"/>
         <rect x="31" y="3" width="68" height="32" rx="10"/>
         <rect x="29" y="1" width="68" height="32" class="terminal" rx="10"/>
         <text class="terminal" x="39" y="21">SysIni(</text>
<!--     <a xmlns:xlink="http://www.w3.org/1999/xlink" xlink:href="#inifile" xlink:title="inifile"> -->
            <rect x="139" y="35" width="48" height="32"/>
            <rect x="137" y="33" width="48" height="32" class="nonterminal"/>
            <text class="nonterminal" x="147" y="53">inifile</text>
<!--     </a> -->
         <rect x="227" y="3" width="24" height="32" rx="10"/>
         <rect x="225" y="1" width="24" height="32" class="terminal" rx="10"/>
         <text class="terminal" x="235" y="21">,</text>
<!--     <a xmlns:xlink="http://www.w3.org/1999/xlink" xlink:href="#app" xlink:title="app"> -->
            <rect x="271" y="3" width="42" height="32"/>
            <rect x="269" y="1" width="42" height="32" class="nonterminal"/>
            <text class="nonterminal" x="279" y="21">app</text>
<!--     </a> -->
         <rect x="333" y="3" width="24" height="32" rx="10"/>
         <rect x="331" y="1" width="24" height="32" class="terminal" rx="10"/>
         <text class="terminal" x="341" y="21">,</text>
         <rect x="377" y="3" width="88" height="32" rx="10"/>
         <rect x="375" y="1" width="88" height="32" class="terminal" rx="10"/>
         <text class="terminal" x="385" y="21">"DELETE:"</text>
         <rect x="485" y="3" width="26" height="32" rx="10"/>
         <rect x="483" y="1" width="26" height="32" class="terminal" rx="10"/>
         <text class="terminal" x="493" y="21">)</text>
         <svg:path xmlns:svg="http://www.w3.org/2000/svg" class="line" d="m17 17 h2 m0 0 h10 m68 0 h10 m20 0 h10 m0 0 h58 m-88 0 h20 m68 0 h20 m-108 0 q10 0 10 10 m88 0 q0 -10 10 -10 m-98 10 v12 m88 0 v-12 m-88 12 q0 10 10 10 m68 0 q10 0 10 -10 m-78 10 h10 m48 0 h10 m20 -32 h10 m24 0 h10 m0 0 h10 m42 0 h10 m0 0 h10 m24 0 h10 m0 0 h10 m88 0 h10 m0 0 h10 m26 0 h10 m3 0 h-3"/>
         <polygon points="529 17 537 13 537 21"/>
         <polygon points="529 17 521 13 521 21"/>
      </svg>
