<svg xmlns="http://www.w3.org/2000/svg" width="653" height="69">
         <defs>
            <style type="text/css">
    @namespace "http://www.w3.org/2000/svg";
    .line                 {fill: none; stroke: #1F1F1F;}
    .bold-line            {stroke: #0A0A0A; shape-rendering: crispEdges; stroke-width: 2; }
    .thin-line            {stroke: #0F0F0F; shape-rendering: crispEdges}
    .filled               {fill: #1F1F1F; stroke: none;}
    text.terminal         {font-family: Verdana, Sans-serif;
                            font-size: 12px;
                            fill: #0A0A0A;
                            font-weight: bold;
                          }
    text.nonterminal      {font-family: Verdana, Sans-serif; font-style: italic;
                            font-size: 12px;
                            fill: #0D0D0D;
                            font-weight: normal;
                          }
    text.regexp           {font-family: Verdana, Sans-serif;
                            font-size: 12px;
                            fill: #0F0F0F;
                            font-weight: normal;
                          }
    rect, circle, polygon {fill: #1F1F1F; stroke: #1F1F1F;}
    rect.terminal         {fill: #CCCCCC; stroke: #1F1F1F;}
    rect.nonterminal      {fill: #E3E3E3; stroke: #1F1F1F;}
    rect.text             {fill: none; stroke: none;}    
    polygon.regexp        {fill: #EFEFEF; stroke: #1F1F1F;}
  </style>
         </defs>
         <polygon points="9 17 1 13 1 21"/>
         <polygon points="17 17 9 13 9 21"/>
         <rect x="31" y="3" width="70" height="32" rx="10"/>
         <rect x="29" y="1" width="70" height="32" class="terminal" rx="10"/>
         <text class="terminal" x="39" y="21">SysIni(</text>
<!--  <a xmlns:xlink="http://www.w3.org/1999/xlink" xlink:href="#inifile" xlink:title="inifile"> -->
            <rect x="141" y="35" width="52" height="32"/>
            <rect x="139" y="33" width="52" height="32" class="nonterminal"/>
            <text class="nonterminal" x="149" y="53">inifile</text><!-- </a> -->
<rect x="233" y="3" width="24" height="32" rx="10"/>
         <rect x="231" y="1" width="24" height="32" class="terminal" rx="10"/>
         <text class="terminal" x="241" y="21">,</text>
<!--  <a xmlns:xlink="http://www.w3.org/1999/xlink" xlink:href="#app" xlink:title="app"> -->
            <rect x="277" y="3" width="44" height="32"/>
            <rect x="275" y="1" width="44" height="32" class="nonterminal"/>
            <text class="nonterminal" x="285" y="21">app</text><!-- </a> -->
<rect x="341" y="3" width="24" height="32" rx="10"/>
         <rect x="339" y="1" width="24" height="32" class="terminal" rx="10"/>
         <text class="terminal" x="349" y="21">,</text>
         <rect x="385" y="3" width="64" height="32" rx="10"/>
         <rect x="383" y="1" width="64" height="32" class="terminal" rx="10"/>
         <text class="terminal" x="393" y="21">"ALL:"</text>
         <rect x="469" y="3" width="24" height="32" rx="10"/>
         <rect x="467" y="1" width="24" height="32" class="terminal" rx="10"/>
         <text class="terminal" x="477" y="21">,</text>
         <rect x="513" y="3" width="66" height="32" rx="10"/>
         <rect x="511" y="1" width="66" height="32" class="terminal" rx="10"/>
         <text class="terminal" x="521" y="21">"stem"</text>
         <rect x="599" y="3" width="26" height="32" rx="10"/>
         <rect x="597" y="1" width="26" height="32" class="terminal" rx="10"/>
         <text class="terminal" x="607" y="21">)</text>
         <svg:path xmlns:svg="http://www.w3.org/2000/svg" class="line" d="m17 17 h2 m0 0 h10 m70 0 h10 m20 0 h10 m0 0 h62 m-92 0 h20 m72 0 h20 m-112 0 q10 0 10 10 m92 0 q0 -10 10 -10 m-102 10 v12 m92 0 v-12 m-92 12 q0 10 10 10 m72 0 q10 0 10 -10 m-82 10 h10 m52 0 h10 m20 -32 h10 m24 0 h10 m0 0 h10 m44 0 h10 m0 0 h10 m24 0 h10 m0 0 h10 m64 0 h10 m0 0 h10 m24 0 h10 m0 0 h10 m66 0 h10 m0 0 h10 m26 0 h10 m3 0 h-3"/>
         <polygon points="643 17 651 13 651 21"/>
         <polygon points="643 17 635 13 635 21"/></svg>
