      <svg xmlns="http://www.w3.org/2000/svg" width="714" height="52">
         <defs>
            <style type="text/css">
               @namespace "http://www.w3.org/2000/svg";
               .line                 {fill: none; stroke: #1F1F1F;}
               .bold-line            {stroke: #0A0A0A; shape-rendering: crispEdges; stroke-width:
               2; }
               .thin-line            {stroke: #0F0F0F; shape-rendering: crispEdges}
               .filled               {fill: #1F1F1F; stroke: none;}
               text.terminal         {font-family: Verdana, Sans-serif;
               font-size: 12px;
               fill: #0A0A0A;
               font-weight: bold;
               }
               text.nonterminal      {font-family: Verdana, Sans-serif;
               font-size: 12px;
               fill: #0D0D0D;
               }
               text.regexp           {font-family: Verdana, Sans-serif;
               font-size: 12px;
               fill: #0F0F0F;
               }
               rect, circle, polygon {fill: #1F1F1F; stroke: #1F1F1F;}
               rect.terminal         {fill: #CCCCCC; stroke: #1F1F1F;}
               rect.nonterminal      {fill: #E3E3E3; stroke: #1F1F1F;}
               rect.text             {fill: none; stroke: none;}    
               polygon.regexp        {fill: #EFEFEF; stroke: #1F1F1F;}
               
            </style>
         </defs>
         <polygon points="9 17 1 13 1 21"/>
         <polygon points="17 17 9 13 9 21"/>
         <rect x="31" y="3" width="68" height="32" rx="10"/>
         <rect x="29" y="1" width="68" height="32" class="terminal" rx="10"/>
         <text class="terminal" x="39" y="21">SysIni(</text>
         <a xmlns:xlink="http://www.w3.org/1999/xlink" xlink:href="#inifile" xlink:title="inifile">
            <rect x="139" y="3" width="52" height="32"/>
            <rect x="137" y="1" width="52" height="32" class="nonterminal"/>
            <text class="nonterminal" x="147" y="21">inifile</text>
         </a>
         <rect x="231" y="3" width="24" height="32" rx="10"/>
         <rect x="229" y="1" width="24" height="32" class="terminal" rx="10"/>
         <text class="terminal" x="239" y="21">,</text>
         <a xmlns:xlink="http://www.w3.org/1999/xlink" xlink:href="#app" xlink:title="app">
            <rect x="275" y="3" width="44" height="32"/>
            <rect x="273" y="1" width="44" height="32" class="nonterminal"/>
            <text class="nonterminal" x="283" y="21">app</text>
         </a>
         <rect x="339" y="3" width="24" height="32" rx="10"/>
         <rect x="337" y="1" width="24" height="32" class="terminal" rx="10"/>
         <text class="terminal" x="347" y="21">,</text>
         <a xmlns:xlink="http://www.w3.org/1999/xlink" xlink:href="#key" xlink:title="key">
            <rect x="383" y="3" width="42" height="32"/>
            <rect x="381" y="1" width="42" height="32" class="nonterminal"/>
            <text class="nonterminal" x="391" y="21">key</text>
         </a>
         <rect x="445" y="3" width="24" height="32" rx="10"/>
         <rect x="443" y="1" width="24" height="32" class="terminal" rx="10"/>
         <text class="terminal" x="453" y="21">,</text>
         <a xmlns:xlink="http://www.w3.org/1999/xlink" xlink:href="#val" xlink:title="val">
            <rect x="489" y="3" width="38" height="32"/>
            <rect x="487" y="1" width="38" height="32" class="nonterminal"/>
            <text class="nonterminal" x="497" y="21">val</text>
         </a>
         <rect x="547" y="3" width="24" height="32" rx="10"/>
         <rect x="545" y="1" width="24" height="32" class="terminal" rx="10"/>
         <text class="terminal" x="555" y="21">,</text>
         <a xmlns:xlink="http://www.w3.org/1999/xlink" xlink:href="#stem" xlink:title="stem">
            <rect x="591" y="3" width="50" height="32"/>
            <rect x="589" y="1" width="50" height="32" class="nonterminal"/>
            <text class="nonterminal" x="599" y="21">stem</text>
         </a>
         <rect x="661" y="3" width="26" height="32" rx="10"/>
         <rect x="659" y="1" width="26" height="32" class="terminal" rx="10"/>
         <text class="terminal" x="669" y="21">)</text>
         <svg:path xmlns:svg="http://www.w3.org/2000/svg" class="line" d="m17 17 h2 m0 0 h10 m68 0 h10 m20 0 h10 m52 0 h10 m-92 0 h20 m72 0 h20 m-112 0 q10 0 10 10 m92 0 q0 -10 10 -10 m-102 10 v14 m92 0 v-14 m-92 14 q0 10 10 10 m72 0 q10 0 10 -10 m-82 10 h10 m0 0 h62 m20 -34 h10 m24 0 h10 m0 0 h10 m44 0 h10 m0 0 h10 m24 0 h10 m0 0 h10 m42 0 h10 m0 0 h10 m24 0 h10 m0 0 h10 m38 0 h10 m0 0 h10 m24 0 h10 m0 0 h10 m50 0 h10 m0 0 h10 m26 0 h10 m3 0 h-3"/>
         <polygon points="705 17 713 13 713 21"/>
         <polygon points="705 17 697 13 697 21"/>
      </svg>
