      <svg xmlns="http://www.w3.org/2000/svg" width="412" height="332">
         <defs>
            <style type="text/css">
               @namespace "http://www.w3.org/2000/svg";
               .line                 {fill: none; stroke: #1F1F1F;}
               .bold-line            {stroke: #0A0A0A; shape-rendering: crispEdges; stroke-width:
               2; }
               .thin-line            {stroke: #0F0F0F; shape-rendering: crispEdges}
               .filled               {fill: #1F1F1F; stroke: none;}
               text.terminal         {font-family: Verdana, Sans-serif;
               font-size: 12px;
               fill: #0A0A0A;
               font-weight: bold;
               }
               text.nonterminal      {font-family: Verdana, Sans-serif; font-style: italic;
               font-size: 12px;
               fill: #0D0D0D;
               }
               text.regexp           {font-family: Verdana, Sans-serif;
               font-size: 12px;
               fill: #0F0F0F;
               }
               rect, circle, polygon {fill: #1F1F1F; stroke: #1F1F1F;}
               rect.terminal         {fill: #CCCCCC; stroke: #1F1F1F;}
               rect.nonterminal      {fill: #E3E3E3; stroke: #1F1F1F;}
               rect.text             {fill: none; stroke: none;}    
               polygon.regexp        {fill: #EFEFEF; stroke: #1F1F1F;}
               
            </style>
         </defs>
         <polygon points="9 17 1 13 1 21"/>
         <polygon points="17 17 9 13 9 21"/>
         <rect x="31" y="3" width="144" height="32" rx="10"/>
         <rect x="29" y="1" width="144" height="32" class="terminal" rx="10"/>
         <text class="terminal" x="39" y="21">SysQueryProcess(</text>
         <rect x="215" y="35" width="58" height="32" rx="10"/>
         <rect x="213" y="33" width="58" height="32" class="terminal" rx="10"/>
         <text class="terminal" x="223" y="53">"PID"</text>
         <rect x="215" y="79" width="68" height="32" rx="10"/>
         <rect x="213" y="77" width="68" height="32" class="terminal" rx="10"/>
         <text class="terminal" x="223" y="97">"PPID"</text>
         <rect x="215" y="123" width="78" height="32" rx="10"/>
         <rect x="213" y="121" width="78" height="32" class="terminal" rx="10"/>
         <text class="terminal" x="223" y="141">"PPRIO"</text>
         <rect x="215" y="167" width="76" height="32" rx="10"/>
         <rect x="213" y="165" width="76" height="32" class="terminal" rx="10"/>
         <text class="terminal" x="223" y="185">"RTIME"</text>
         <rect x="215" y="211" width="72" height="32" rx="10"/>
         <rect x="213" y="209" width="72" height="32" class="terminal" rx="10"/>
         <text class="terminal" x="223" y="229">"PMEM"</text>
         <rect x="215" y="255" width="92" height="32" rx="10"/>
         <rect x="213" y="253" width="92" height="32" class="terminal" rx="10"/>
         <text class="terminal" x="223" y="273">"PSWAPS"</text>
         <rect x="215" y="299" width="104" height="32" rx="10"/>
         <rect x="213" y="297" width="104" height="32" class="terminal" rx="10"/>
         <text class="terminal" x="223" y="317">"PRCVDSIG"</text>
         <rect x="359" y="3" width="26" height="32" rx="10"/>
         <rect x="357" y="1" width="26" height="32" class="terminal" rx="10"/>
         <text class="terminal" x="367" y="21">)</text>
         <svg:path xmlns:svg="http://www.w3.org/2000/svg" class="line" d="m17 17 h2 m0 0 h10 m144 0 h10 m20 0 h10 m0 0 h114 m-144 0 h20 m124 0 h20 m-164 0 q10 0 10 10 m144 0 q0 -10 10 -10 m-154 10 v12 m144 0 v-12 m-144 12 q0 10 10 10 m124 0 q10 0 10 -10 m-134 10 h10 m58 0 h10 m0 0 h46 m-134 -10 v20 m144 0 v-20 m-144 20 v24 m144 0 v-24 m-144 24 q0 10 10 10 m124 0 q10 0 10 -10 m-134 10 h10 m68 0 h10 m0 0 h36 m-134 -10 v20 m144 0 v-20 m-144 20 v24 m144 0 v-24 m-144 24 q0 10 10 10 m124 0 q10 0 10 -10 m-134 10 h10 m78 0 h10 m0 0 h26 m-134 -10 v20 m144 0 v-20 m-144 20 v24 m144 0 v-24 m-144 24 q0 10 10 10 m124 0 q10 0 10 -10 m-134 10 h10 m76 0 h10 m0 0 h28 m-134 -10 v20 m144 0 v-20 m-144 20 v24 m144 0 v-24 m-144 24 q0 10 10 10 m124 0 q10 0 10 -10 m-134 10 h10 m72 0 h10 m0 0 h32 m-134 -10 v20 m144 0 v-20 m-144 20 v24 m144 0 v-24 m-144 24 q0 10 10 10 m124 0 q10 0 10 -10 m-134 10 h10 m92 0 h10 m0 0 h12 m-134 -10 v20 m144 0 v-20 m-144 20 v24 m144 0 v-24 m-144 24 q0 10 10 10 m124 0 q10 0 10 -10 m-134 10 h10 m104 0 h10 m20 -296 h10 m26 0 h10 m3 0 h-3"/>
         <polygon points="403 17 411 13 411 21"/>
         <polygon points="403 17 395 13 395 21"/>
      </svg>
