<svg xmlns="http://www.w3.org/2000/svg" width="387" height="289">
         <defs>
            <style type="text/css">
    @namespace "http://www.w3.org/2000/svg";
    .line                 {fill: none; stroke: #1F1F1F;}
    .bold-line            {stroke: #0A0A0A; shape-rendering: crispEdges; stroke-width: 2; }
    .thin-line            {stroke: #0F0F0F; shape-rendering: crispEdges}
    .filled               {fill: #1F1F1F; stroke: none;}
    text.terminal         {font-family: Verdana, Sans-serif;
                            font-size: 12px;
                            fill: #0A0A0A;
                            font-weight: bold;
                          }
    text.nonterminal      {font-family: Verdana, Sans-serif; font-style: italic;
                            font-size: 12px;
                            fill: #0D0D0D;
                            font-weight: normal;
                          }
    text.regexp           {font-family: Verdana, Sans-serif;
                            font-size: 12px;
                            fill: #0F0F0F;
                            font-weight: normal;
                          }
    rect, circle, polygon {fill: #1F1F1F; stroke: #1F1F1F;}
    rect.terminal         {fill: #cccccc; stroke: #1F1F1F;}
    rect.nonterminal      {fill: #E3E3E3; stroke: #1F1F1F;}
    rect.text             {fill: none; stroke: none;}    
    polygon.regexp        {fill: #EFEFEF; stroke: #1F1F1F;}
  </style>
         </defs>
         <polygon points="9 17 1 13 1 21"/>
         <polygon points="17 17 9 13 9 21"/>
         <rect x="31" y="3" width="144" height="32" rx="10"/>
         <rect x="29" y="1" width="144" height="32" class="terminal" rx="10"/>
         <text class="terminal" x="39" y="21">SysQueryProcess(</text>
         <rect x="215" y="35" width="58" height="32" rx="10"/>
         <rect x="213" y="33" width="58" height="32" class="terminal" rx="10"/>
         <text class="terminal" x="223" y="53">"PID"</text>
         <rect x="215" y="79" width="58" height="32" rx="10"/>
         <rect x="213" y="77" width="58" height="32" class="terminal" rx="10"/>
         <text class="terminal" x="223" y="97">"TID"</text>
         <rect x="215" y="123" width="78" height="32" rx="10"/>
         <rect x="213" y="121" width="78" height="32" class="terminal" rx="10"/>
         <text class="terminal" x="223" y="141">"PPRIO"</text>
         <rect x="215" y="167" width="78" height="32" rx="10"/>
         <rect x="213" y="165" width="78" height="32" class="terminal" rx="10"/>
         <text class="terminal" x="223" y="185">"TPRIO"</text>
         <rect x="215" y="211" width="76" height="32" rx="10"/>
         <rect x="213" y="209" width="76" height="32" class="terminal" rx="10"/>
         <text class="terminal" x="223" y="229">"PTIME"</text>
         <rect x="215" y="255" width="76" height="32" rx="10"/>
         <rect x="213" y="253" width="76" height="32" class="terminal" rx="10"/>
         <text class="terminal" x="223" y="273">"TTIME"</text>
         <rect x="333" y="3" width="26" height="32" rx="10"/>
         <rect x="331" y="1" width="26" height="32" class="terminal" rx="10"/>
         <text class="terminal" x="341" y="21">)</text>
         <svg:path xmlns:svg="http://www.w3.org/2000/svg" class="line" d="m17 17 h2 m0 0 h10 m144 0 h10 m20 0 h10 m0 0 h88 m-118 0 h20 m98 0 h20 m-138 0 q10 0 10 10 m118 0 q0 -10 10 -10 m-128 10 v12 m118 0 v-12 m-118 12 q0 10 10 10 m98 0 q10 0 10 -10 m-108 10 h10 m58 0 h10 m0 0 h20 m-108 -10 v20 m118 0 v-20 m-118 20 v24 m118 0 v-24 m-118 24 q0 10 10 10 m98 0 q10 0 10 -10 m-108 10 h10 m58 0 h10 m0 0 h20 m-108 -10 v20 m118 0 v-20 m-118 20 v24 m118 0 v-24 m-118 24 q0 10 10 10 m98 0 q10 0 10 -10 m-108 10 h10 m78 0 h10 m-108 -10 v20 m118 0 v-20 m-118 20 v24 m118 0 v-24 m-118 24 q0 10 10 10 m98 0 q10 0 10 -10 m-108 10 h10 m78 0 h10 m-108 -10 v20 m118 0 v-20 m-118 20 v24 m118 0 v-24 m-118 24 q0 10 10 10 m98 0 q10 0 10 -10 m-108 10 h10 m76 0 h10 m0 0 h2 m-108 -10 v20 m118 0 v-20 m-118 20 v24 m118 0 v-24 m-118 24 q0 10 10 10 m98 0 q10 0 10 -10 m-108 10 h10 m76 0 h10 m0 0 h2 m20 -252 h10 m26 0 h10 m3 0 h-3"/>
         <polygon points="377 17 385 13 385 21"/>
         <polygon points="377 17 369 13 369 21"/></svg>
