<svg xmlns="http://www.w3.org/2000/svg" width="535" height="69">
         <defs>
            <style type="text/css">
    @namespace "http://www.w3.org/2000/svg";
    .line                 {fill: none; stroke: #1F1F1F;}
    .bold-line            {stroke: #0A0A0A; shape-rendering: crispEdges; stroke-width: 2; }
    .thin-line            {stroke: #0F0F0F; shape-rendering: crispEdges}
    .filled               {fill: #1F1F1F; stroke: none;}
    text.terminal         {font-family: Verdana, Sans-serif;
                            font-size: 12px;
                            fill: #0A0A0A;
                            font-weight: bold;
                          }
    text.nonterminal      {font-family: Verdana, Sans-serif; font-style: italic;
                            font-size: 12px;
                            fill: #0D0D0D;
                            font-weight: normal;
                          }
    text.regexp           {font-family: Verdana, Sans-serif;
                            font-size: 12px;
                            fill: #0F0F0F;
                            font-weight: normal;
                          }
    rect, circle, polygon {fill: #1F1F1F; stroke: #1F1F1F;}
    rect.terminal         {fill: #CCCCCC; stroke: #1F1F1F;}
    rect.nonterminal      {fill: #E3E3E3; stroke: #1F1F1F;}
    rect.text             {fill: none; stroke: none;}    
    polygon.regexp        {fill: #EFEFEF; stroke: #1F1F1F;}
  </style>
         </defs>
         <polygon points="9 17 1 13 1 21"/>
         <polygon points="17 17 9 13 9 21"/>
         <rect x="31" y="3" width="176" height="32" rx="10"/>
         <rect x="29" y="1" width="176" height="32" class="terminal" rx="10"/>
         <text class="terminal" x="39" y="21">SysRequestMutexSem(</text>
<!--  <a xmlns:xlink="http://www.w3.org/1999/xlink" xlink:href="#handle" xlink:title="handle"> -->
            <rect x="227" y="3" width="62" height="32"/>
            <rect x="225" y="1" width="62" height="32" class="nonterminal"/>
            <text class="nonterminal" x="235" y="21">handle</text><!-- </a> -->
<rect x="329" y="35" width="24" height="32" rx="10"/>
         <rect x="327" y="33" width="24" height="32" class="terminal" rx="10"/>
         <text class="terminal" x="337" y="53">,</text>
<!--  <a xmlns:xlink="http://www.w3.org/1999/xlink" xlink:href="#timeout" xlink:title="timeout"> -->
            <rect x="373" y="35" width="68" height="32"/>
            <rect x="371" y="33" width="68" height="32" class="nonterminal"/>
            <text class="nonterminal" x="381" y="53">timeout</text><!-- </a> -->
<rect x="481" y="3" width="26" height="32" rx="10"/>
         <rect x="479" y="1" width="26" height="32" class="terminal" rx="10"/>
         <text class="terminal" x="489" y="21">)</text>
         <svg:path xmlns:svg="http://www.w3.org/2000/svg" class="line" d="m17 17 h2 m0 0 h10 m176 0 h10 m0 0 h10 m62 0 h10 m20 0 h10 m0 0 h122 m-152 0 h20 m132 0 h20 m-172 0 q10 0 10 10 m152 0 q0 -10 10 -10 m-162 10 v12 m152 0 v-12 m-152 12 q0 10 10 10 m132 0 q10 0 10 -10 m-142 10 h10 m24 0 h10 m0 0 h10 m68 0 h10 m20 -32 h10 m26 0 h10 m3 0 h-3"/>
         <polygon points="525 17 533 13 533 21"/>
         <polygon points="525 17 517 13 517 21"/></svg>
