      <svg xmlns="http://www.w3.org/2000/svg" width="832" height="190">
         <defs>
            <style type="text/css">
               @namespace "http://www.w3.org/2000/svg";
               .line                 {fill: none; stroke: #1F1F1F;}
               .bold-line            {stroke: #0A0A0A; shape-rendering: crispEdges; stroke-width:
               2; }
               .thin-line            {stroke: #0F0F0F; shape-rendering: crispEdges}
               .filled               {fill: #1F1F1F; stroke: none;}
               text.terminal         {font-family: Verdana, Sans-serif;
               font-size: 12px;
               fill: #0A0A0A;
               font-weight: bold;
               }
               text.nonterminal      {font-family: Verdana, Sans-serif; font-style: italic;
               font-size: 12px;
               fill: #0D0D0D;
               }
               text.regexp           {font-family: Verdana, Sans-serif;
               font-size: 12px;
               fill: #0F0F0F;
               }
               rect, circle, polygon {fill: #1F1F1F; stroke: #1F1F1F;}
               rect.terminal         {fill: #CCCCCC; stroke: #1F1F1F;}
               rect.nonterminal      {fill: #E3E3E3; stroke: #1F1F1F;}
               rect.text             {fill: none; stroke: none;}    
               polygon.regexp        {fill: #EFEFEF; stroke: #1F1F1F;}
               
            </style>
         </defs>
         <polygon points="9 17 1 13 1 21"/>
         <polygon points="17 17 9 13 9 21"/>
         <rect x="31" y="3" width="114" height="32" rx="10"/>
         <rect x="29" y="1" width="114" height="32" class="terminal" rx="10"/>
         <text class="terminal" x="39" y="21">SysStemSort(</text>
<!--     <a xmlns:xlink="http://www.w3.org/1999/xlink" xlink:href="#stem" xlink:title="stem"> -->
            <rect x="165" y="3" width="50" height="32"/>
            <rect x="163" y="1" width="50" height="32" class="nonterminal"/>
            <text class="nonterminal" x="173" y="21">stem</text>
<!--     </a> -->
         <rect x="235" y="3" width="24" height="32" rx="10"/>
         <rect x="233" y="1" width="24" height="32" class="terminal" rx="10"/>
         <text class="terminal" x="243" y="21">,</text>
         <rect x="299" y="3" width="44" height="32" rx="10"/>
         <rect x="297" y="1" width="44" height="32" class="terminal" rx="10"/>
         <text class="terminal" x="307" y="21">"A"</text>
         <rect x="299" y="47" width="44" height="32" rx="10"/>
         <rect x="297" y="45" width="44" height="32" class="terminal" rx="10"/>
         <text class="terminal" x="307" y="65">"D"</text>
         <rect x="383" y="3" width="24" height="32" rx="10"/>
         <rect x="381" y="1" width="24" height="32" class="terminal" rx="10"/>
         <text class="terminal" x="391" y="21">,</text>
         <rect x="447" y="3" width="42" height="32" rx="10"/>
         <rect x="445" y="1" width="42" height="32" class="terminal" rx="10"/>
         <text class="terminal" x="455" y="21">"C"</text>
         <rect x="447" y="47" width="40" height="32" rx="10"/>
         <rect x="445" y="45" width="40" height="32" class="terminal" rx="10"/>
         <text class="terminal" x="455" y="65">"I"</text>
         <rect x="529" y="3" width="24" height="32" rx="10"/>
         <rect x="527" y="1" width="24" height="32" class="terminal" rx="10"/>
         <text class="terminal" x="537" y="21">,</text>
         <rect x="593" y="3" width="42" height="32" rx="10"/>
         <rect x="591" y="1" width="42" height="32" class="terminal" rx="10"/>
         <text class="terminal" x="601" y="21">"1"</text>
<!--     <a xmlns:xlink="http://www.w3.org/1999/xlink" xlink:href="#start" xlink:title="start"> -->
            <rect x="593" y="47" width="48" height="32"/>
            <rect x="591" y="45" width="48" height="32" class="nonterminal"/>
            <text class="nonterminal" x="601" y="65">start</text>
<!--     </a> -->
         <rect x="681" y="3" width="24" height="32" rx="10"/>
         <rect x="679" y="1" width="24" height="32" class="terminal" rx="10"/>
         <text class="terminal" x="689" y="21">,</text>
<!--     <a xmlns:xlink="http://www.w3.org/1999/xlink" xlink:href="#end" xlink:title="end"> -->
            <rect x="725" y="3" width="42" height="32"/>
            <rect x="723" y="1" width="42" height="32" class="nonterminal"/>
            <text class="nonterminal" x="733" y="21">end</text>
<!--     </a> -->
         <rect x="787" y="3" width="24" height="32" rx="10"/>
         <rect x="785" y="1" width="24" height="32" class="terminal" rx="10"/>
         <text class="terminal" x="795" y="21">,</text>
         <rect x="559" y="113" width="42" height="32" rx="10"/>
         <rect x="557" y="111" width="42" height="32" class="terminal" rx="10"/>
         <text class="terminal" x="567" y="131">"1"</text>
<!--     <a xmlns:xlink="http://www.w3.org/1999/xlink" xlink:href="#firstcol" xlink:title="firstcol"> -->
            <rect x="559" y="157" width="58" height="32"/>
            <rect x="557" y="155" width="58" height="32" class="nonterminal"/>
            <text class="nonterminal" x="567" y="175">firstcol</text>
<!--     </a> -->
         <rect x="657" y="113" width="24" height="32" rx="10"/>
         <rect x="655" y="111" width="24" height="32" class="terminal" rx="10"/>
         <text class="terminal" x="665" y="131">,</text>
<!--     <a xmlns:xlink="http://www.w3.org/1999/xlink" xlink:href="#lastcol" xlink:title="lastcol"> -->
            <rect x="701" y="113" width="58" height="32"/>
            <rect x="699" y="111" width="58" height="32" class="nonterminal"/>
            <text class="nonterminal" x="709" y="131">lastcol</text>
<!--     </a> -->
         <rect x="779" y="113" width="26" height="32" rx="10"/>
         <rect x="777" y="111" width="26" height="32" class="terminal" rx="10"/>
         <text class="terminal" x="787" y="131">)</text>
         <svg:path xmlns:svg="http://www.w3.org/2000/svg" class="line" d="m17 17 h2 m0 0 h10 m114 0 h10 m0 0 h10 m50 0 h10 m0 0 h10 m24 0 h10 m20 0 h10 m44 0 h10 m-84 0 h20 m64 0 h20 m-104 0 q10 0 10 10 m84 0 q0 -10 10 -10 m-94 10 v24 m84 0 v-24 m-84 24 q0 10 10 10 m64 0 q10 0 10 -10 m-74 10 h10 m44 0 h10 m20 -44 h10 m24 0 h10 m20 0 h10 m42 0 h10 m-82 0 h20 m62 0 h20 m-102 0 q10 0 10 10 m82 0 q0 -10 10 -10 m-92 10 v24 m82 0 v-24 m-82 24 q0 10 10 10 m62 0 q10 0 10 -10 m-72 10 h10 m40 0 h10 m0 0 h2 m20 -44 h10 m24 0 h10 m20 0 h10 m42 0 h10 m0 0 h6 m-88 0 h20 m68 0 h20 m-108 0 q10 0 10 10 m88 0 q0 -10 10 -10 m-98 10 v24 m88 0 v-24 m-88 24 q0 10 10 10 m68 0 q10 0 10 -10 m-78 10 h10 m48 0 h10 m20 -44 h10 m24 0 h10 m0 0 h10 m42 0 h10 m0 0 h10 m24 0 h10 m2 0 l2 0 m2 0 l2 0 m2 0 l2 0 m-316 110 l2 0 m2 0 l2 0 m2 0 l2 0 m22 0 h10 m42 0 h10 m0 0 h16 m-98 0 h20 m78 0 h20 m-118 0 q10 0 10 10 m98 0 q0 -10 10 -10 m-108 10 v24 m98 0 v-24 m-98 24 q0 10 10 10 m78 0 q10 0 10 -10 m-88 10 h10 m58 0 h10 m20 -44 h10 m24 0 h10 m0 0 h10 m58 0 h10 m0 0 h10 m26 0 h10 m3 0 h-3"/>
         <polygon points="823 127 831 123 831 131"/>
         <polygon points="823 127 815 123 815 131"/>
      </svg>
