      <svg xmlns="http://www.w3.org/2000/svg" width="550" height="36">
         <defs>
            <style type="text/css">
               @namespace "http://www.w3.org/2000/svg";
               .line                 {fill: none; stroke: #1F1F1F;}
               .bold-line            {stroke: #0A0A0A; shape-rendering: crispEdges; stroke-width:
               2; }
               .thin-line            {stroke: #0F0F0F; shape-rendering: crispEdges}
               .filled               {fill: #1F1F1F; stroke: none;}
               text.terminal         {font-family: Verdana, Sans-serif;
               font-size: 12px;
               fill: #0A0A0A;
               font-weight: bold;
               }
               text.nonterminal      {font-family: Verdana, Sans-serif; font-style: italic;
               font-size: 12px;
               fill: #0D0D0D;
               }
               text.regexp           {font-family: Verdana, Sans-serif;
               font-size: 12px;
               fill: #0F0F0F;
               }
               rect, circle, polygon {fill: #1F1F1F; stroke: #1F1F1F;}
               rect.terminal         {fill: #CCCCCC; stroke: #1F1F1F;}
               rect.nonterminal      {fill: #E3E3E3; stroke: #1F1F1F;}
               rect.text             {fill: none; stroke: none;}    
               polygon.regexp        {fill: #EFEFEF; stroke: #1F1F1F;}
               
            </style>
         </defs>
         <polygon points="9 17 1 13 1 21"/>
         <polygon points="17 17 9 13 9 21"/>
         <rect x="31" y="3" width="124" height="32" rx="10"/>
         <rect x="29" y="1" width="124" height="32" class="terminal" rx="10"/>
         <text class="terminal" x="39" y="21">SysStemInsert(</text>
<!--     <a xmlns:xlink="http://www.w3.org/1999/xlink" xlink:href="#stem" xlink:title="stem"> -->
            <rect x="175" y="3" width="50" height="32"/>
            <rect x="173" y="1" width="50" height="32" class="nonterminal"/>
            <text class="nonterminal" x="183" y="21">stem</text>
<!--     </a> -->
         <rect x="245" y="3" width="24" height="32" rx="10"/>
         <rect x="243" y="1" width="24" height="32" class="terminal" rx="10"/>
         <text class="terminal" x="253" y="21">,</text>
<!--     <a xmlns:xlink="http://www.w3.org/1999/xlink" xlink:href="#position" xlink:title="position"> -->
            <rect x="289" y="3" width="70" height="32"/>
            <rect x="287" y="1" width="70" height="32" class="nonterminal"/>
            <text class="nonterminal" x="297" y="21">position</text>
<!--     </a> -->
         <rect x="379" y="3" width="24" height="32" rx="10"/>
         <rect x="377" y="1" width="24" height="32" class="terminal" rx="10"/>
         <text class="terminal" x="387" y="21">,</text>
<!--     <a xmlns:xlink="http://www.w3.org/1999/xlink" xlink:href="#value" xlink:title="value"> -->
            <rect x="423" y="3" width="54" height="32"/>
            <rect x="421" y="1" width="54" height="32" class="nonterminal"/>
            <text class="nonterminal" x="431" y="21">value</text>
<!--     </a> -->
         <rect x="497" y="3" width="26" height="32" rx="10"/>
         <rect x="495" y="1" width="26" height="32" class="terminal" rx="10"/>
         <text class="terminal" x="505" y="21">)</text>
         <svg:path xmlns:svg="http://www.w3.org/2000/svg" class="line" d="m17 17 h2 m0 0 h10 m124 0 h10 m0 0 h10 m50 0 h10 m0 0 h10 m24 0 h10 m0 0 h10 m70 0 h10 m0 0 h10 m24 0 h10 m0 0 h10 m54 0 h10 m0 0 h10 m26 0 h10 m3 0 h-3"/>
         <polygon points="541 17 549 13 549 21"/>
         <polygon points="541 17 533 13 533 21"/>
      </svg>
