      <svg xmlns="http://www.w3.org/2000/svg" width="858" height="166">
         <defs>
            <style type="text/css">
               @namespace "http://www.w3.org/2000/svg";
               .line                 {fill: none; stroke: #1F1F1F;}
               .bold-line            {stroke: #0A0A0A; shape-rendering: crispEdges; stroke-width:
               2; }
               .thin-line            {stroke: #0F0F0F; shape-rendering: crispEdges}
               .filled               {fill: #1F1F1F; stroke: none;}
               text.terminal         {font-family: Verdana, Sans-serif;
               font-size: 12px;
               fill: #0A0A0A;
               font-weight: bold;
               }
               text.nonterminal      {font-family: Verdana, Sans-serif; font-style: italic;
               font-size: 12px;
               fill: #0D0D0D;
               }
               text.regexp           {font-family: Verdana, Sans-serif;
               font-size: 12px;
               fill: #0F0F0F;
               }
               rect, circle, polygon {fill: #1F1F1F; stroke: #1F1F1F;}
               rect.terminal         {fill: #CCCCCC; stroke: #1F1F1F;}
               rect.nonterminal      {fill: #E3E3E3; stroke: #1F1F1F;}
               rect.text             {fill: none; stroke: none;}    
               polygon.regexp        {fill: #EFEFEF; stroke: #1F1F1F;}
               
            </style>
         </defs>
         <polygon points="9 17 1 13 1 21"/>
         <polygon points="17 17 9 13 9 21"/>
         <rect x="31" y="3" width="166" height="32" rx="10"/>
         <rect x="29" y="1" width="166" height="32" class="terminal" rx="10"/>
         <text class="terminal" x="39" y="21">SysShutdownSystem(</text>
<!--     <a xmlns:xlink="http://www.w3.org/1999/xlink" xlink:href="#computer" xlink:title="computer"> -->
            <rect x="237" y="35" width="78" height="32"/>
            <rect x="235" y="33" width="78" height="32" class="nonterminal"/>
            <text class="nonterminal" x="245" y="53">computer</text>
<!--     </a> -->
         <rect x="355" y="3" width="24" height="32" rx="10"/>
         <rect x="353" y="1" width="24" height="32" class="terminal" rx="10"/>
         <text class="terminal" x="363" y="21">,</text>
<!--     <a xmlns:xlink="http://www.w3.org/1999/xlink" xlink:href="#message" xlink:title="message"> -->
            <rect x="419" y="35" width="74" height="32"/>
            <rect x="417" y="33" width="74" height="32" class="nonterminal"/>
            <text class="nonterminal" x="427" y="53">message</text>
<!--     </a> -->
         <rect x="533" y="3" width="24" height="32" rx="10"/>
         <rect x="531" y="1" width="24" height="32" class="terminal" rx="10"/>
         <text class="terminal" x="541" y="21">,</text>
<!--     <a xmlns:xlink="http://www.w3.org/1999/xlink" xlink:href="#timeout" xlink:title="timeout"> -->
            <rect x="597" y="35" width="66" height="32"/>
            <rect x="595" y="33" width="66" height="32" class="nonterminal"/>
            <text class="nonterminal" x="605" y="53">timeout</text>
<!--     </a> -->
         <rect x="703" y="3" width="24" height="32" rx="10"/>
         <rect x="701" y="1" width="24" height="32" class="terminal" rx="10"/>
         <text class="terminal" x="711" y="21">,</text>
<!--     <a xmlns:xlink="http://www.w3.org/1999/xlink" xlink:href="#force" xlink:title="force"> -->
            <rect x="767" y="35" width="50" height="32"/>
            <rect x="765" y="33" width="50" height="32" class="nonterminal"/>
            <text class="nonterminal" x="775" y="53">force</text>
<!--     </a> -->
         <rect x="641" y="101" width="24" height="32" rx="10"/>
         <rect x="639" y="99" width="24" height="32" class="terminal" rx="10"/>
         <text class="terminal" x="649" y="119">,</text>
<!--     <a xmlns:xlink="http://www.w3.org/1999/xlink" xlink:href="#reboot" xlink:title="reboot"> -->
            <rect x="705" y="133" width="60" height="32"/>
            <rect x="703" y="131" width="60" height="32" class="nonterminal"/>
            <text class="nonterminal" x="713" y="151">reboot</text>
<!--     </a> -->
         <rect x="805" y="101" width="26" height="32" rx="10"/>
         <rect x="803" y="99" width="26" height="32" class="terminal" rx="10"/>
         <text class="terminal" x="813" y="119">)</text>
         <svg:path xmlns:svg="http://www.w3.org/2000/svg" class="line" d="m17 17 h2 m0 0 h10 m166 0 h10 m20 0 h10 m0 0 h88 m-118 0 h20 m98 0 h20 m-138 0 q10 0 10 10 m118 0 q0 -10 10 -10 m-128 10 v12 m118 0 v-12 m-118 12 q0 10 10 10 m98 0 q10 0 10 -10 m-108 10 h10 m78 0 h10 m20 -32 h10 m24 0 h10 m20 0 h10 m0 0 h84 m-114 0 h20 m94 0 h20 m-134 0 q10 0 10 10 m114 0 q0 -10 10 -10 m-124 10 v12 m114 0 v-12 m-114 12 q0 10 10 10 m94 0 q10 0 10 -10 m-104 10 h10 m74 0 h10 m20 -32 h10 m24 0 h10 m20 0 h10 m0 0 h76 m-106 0 h20 m86 0 h20 m-126 0 q10 0 10 10 m106 0 q0 -10 10 -10 m-116 10 v12 m106 0 v-12 m-106 12 q0 10 10 10 m86 0 q10 0 10 -10 m-96 10 h10 m66 0 h10 m20 -32 h10 m24 0 h10 m20 0 h10 m0 0 h60 m-90 0 h20 m70 0 h20 m-110 0 q10 0 10 10 m90 0 q0 -10 10 -10 m-100 10 v12 m90 0 v-12 m-90 12 q0 10 10 10 m70 0 q10 0 10 -10 m-80 10 h10 m50 0 h10 m22 -32 l2 0 m2 0 l2 0 m2 0 l2 0 m-240 98 l2 0 m2 0 l2 0 m2 0 l2 0 m2 0 h10 m24 0 h10 m20 0 h10 m0 0 h70 m-100 0 h20 m80 0 h20 m-120 0 q10 0 10 10 m100 0 q0 -10 10 -10 m-110 10 v12 m100 0 v-12 m-100 12 q0 10 10 10 m80 0 q10 0 10 -10 m-90 10 h10 m60 0 h10 m20 -32 h10 m26 0 h10 m3 0 h-3"/>
         <polygon points="849 115 857 111 857 119"/>
         <polygon points="849 115 841 111 841 119"/>
      </svg>
