      <svg xmlns="http://www.w3.org/2000/svg" width="832" height="210">
         <defs>
            <style type="text/css">
               @namespace "http://www.w3.org/2000/svg";
               .line                 {fill: none; stroke: #1F1F1F;}
               .bold-line            {stroke: #0A0A0A; shape-rendering: crispEdges; stroke-width:
               2; }
               .thin-line            {stroke: #0F0F0F; shape-rendering: crispEdges}
               .filled               {fill: #1F1F1F; stroke: none;}
               text.terminal         {font-family: Verdana, Sans-serif;
               font-size: 12px;
               fill: #0A0A0A;
               font-weight: bold;
               }
               text.nonterminal      {font-family: Verdana, Sans-serif;
               font-size: 12px;
               fill: #0D0D0D;
               }
               text.regexp           {font-family: Verdana, Sans-serif;
               font-size: 12px;
               fill: #0F0F0F;
               }
               rect, circle, polygon {fill: #1F1F1F; stroke: #1F1F1F;}
               rect.terminal         {fill: #CCCCCC; stroke: #1F1F1F;}
               rect.nonterminal      {fill: #E3E3E3; stroke: #1F1F1F;}
               rect.text             {fill: none; stroke: none;}    
               polygon.regexp        {fill: #EFEFEF; stroke: #1F1F1F;}
               
            </style>
         </defs>
         <polygon points="11 17 3 13 3 21"/>
         <polygon points="19 17 11 13 11 21"/>
         <rect x="33" y="3" width="118" height="32" rx="10"/>
         <rect x="31" y="1" width="118" height="32" class="terminal" rx="10"/>
         <text class="terminal" x="41" y="21">SysStemCopy(</text>
         <a xmlns:xlink="http://www.w3.org/1999/xlink" xlink:href="#fromstem" xlink:title="fromstem">
            <rect x="171" y="3" width="78" height="32"/>
            <rect x="169" y="1" width="78" height="32" class="nonterminal"/>
            <text class="nonterminal" x="179" y="21">fromstem</text>
         </a>
         <rect x="269" y="3" width="24" height="32" rx="10"/>
         <rect x="267" y="1" width="24" height="32" class="terminal" rx="10"/>
         <text class="terminal" x="277" y="21">,</text>
         <a xmlns:xlink="http://www.w3.org/1999/xlink" xlink:href="#tostrm" xlink:title="tostrm">
            <rect x="313" y="3" width="60" height="32"/>
            <rect x="311" y="1" width="60" height="32" class="nonterminal"/>
            <text class="nonterminal" x="321" y="21">tostrm</text>
         </a>
         <rect x="45" y="69" width="24" height="32" rx="10"/>
         <rect x="43" y="67" width="24" height="32" class="terminal" rx="10"/>
         <text class="terminal" x="53" y="87">,</text>
         <a xmlns:xlink="http://www.w3.org/1999/xlink" xlink:href="#from" xlink:title="from">
            <rect x="109" y="69" width="48" height="32"/>
            <rect x="107" y="67" width="48" height="32" class="nonterminal"/>
            <text class="nonterminal" x="117" y="87">from</text>
         </a>
         <rect x="217" y="69" width="24" height="32" rx="10"/>
         <rect x="215" y="67" width="24" height="32" class="terminal" rx="10"/>
         <text class="terminal" x="225" y="87">,</text>
         <a xmlns:xlink="http://www.w3.org/1999/xlink" xlink:href="#to" xlink:title="to">
            <rect x="281" y="69" width="32" height="32"/>
            <rect x="279" y="67" width="32" height="32" class="nonterminal"/>
            <text class="nonterminal" x="289" y="87">to</text>
         </a>
         <rect x="373" y="69" width="24" height="32" rx="10"/>
         <rect x="371" y="67" width="24" height="32" class="terminal" rx="10"/>
         <text class="terminal" x="381" y="87">,</text>
         <a xmlns:xlink="http://www.w3.org/1999/xlink" xlink:href="#count" xlink:title="count">
            <rect x="437" y="69" width="54" height="32"/>
            <rect x="435" y="67" width="54" height="32" class="nonterminal"/>
            <text class="nonterminal" x="445" y="87">count</text>
         </a>
         <rect x="551" y="69" width="24" height="32" rx="10"/>
         <rect x="549" y="67" width="24" height="32" class="terminal" rx="10"/>
         <text class="terminal" x="559" y="87">,</text>
         <rect x="615" y="69" width="40" height="32" rx="10"/>
         <rect x="613" y="67" width="40" height="32" class="terminal" rx="10"/>
         <text class="terminal" x="623" y="87">"I"</text>
         <rect x="615" y="113" width="44" height="32" rx="10"/>
         <rect x="613" y="111" width="44" height="32" class="terminal" rx="10"/>
         <text class="terminal" x="623" y="131">"O"</text>
         <rect x="779" y="69" width="26" height="32" rx="10"/>
         <rect x="777" y="67" width="26" height="32" class="terminal" rx="10"/>
         <text class="terminal" x="787" y="87">)</text>
         <svg:path xmlns:svg="http://www.w3.org/2000/svg" class="line" d="m19 17 h2 m0 0 h10 m118 0 h10 m0 0 h10 m78 0 h10 m0 0 h10 m24 0 h10 m0 0 h10 m60 0 h10 m2 0 l2 0 m2 0 l2 0 m2 0 l2 0 m-392 66 l2 0 m2 0 l2 0 m2 0 l2 0 m22 0 h10 m24 0 h10 m20 0 h10 m48 0 h10 m-88 0 h20 m68 0 h20 m-108 0 q10 0 10 10 m88 0 q0 -10 10 -10 m-98 10 v14 m88 0 v-14 m-88 14 q0 10 10 10 m68 0 q10 0 10 -10 m-78 10 h10 m0 0 h58 m40 -34 h10 m24 0 h10 m20 0 h10 m32 0 h10 m-72 0 h20 m52 0 h20 m-92 0 q10 0 10 10 m72 0 q0 -10 10 -10 m-82 10 v14 m72 0 v-14 m-72 14 q0 10 10 10 m52 0 q10 0 10 -10 m-62 10 h10 m0 0 h42 m40 -34 h10 m24 0 h10 m20 0 h10 m54 0 h10 m-94 0 h20 m74 0 h20 m-114 0 q10 0 10 10 m94 0 q0 -10 10 -10 m-104 10 v14 m94 0 v-14 m-94 14 q0 10 10 10 m74 0 q10 0 10 -10 m-84 10 h10 m0 0 h64 m40 -34 h10 m24 0 h10 m20 0 h10 m40 0 h10 m0 0 h4 m-84 0 h20 m64 0 h20 m-104 0 q10 0 10 10 m84 0 q0 -10 10 -10 m-94 10 v24 m84 0 v-24 m-84 24 q0 10 10 10 m64 0 q10 0 10 -10 m-74 10 h10 m44 0 h10 m-148 -44 h20 m148 0 h20 m-188 0 q10 0 10 10 m168 0 q0 -10 10 -10 m-178 10 v58 m168 0 v-58 m-168 58 q0 10 10 10 m148 0 q10 0 10 -10 m-158 10 h10 m0 0 h138 m-346 -78 h20 m346 0 h20 m-386 0 q10 0 10 10 m366 0 q0 -10 10 -10 m-376 10 v74 m366 0 v-74 m-366 74 q0 10 10 10 m346 0 q10 0 10 -10 m-356 10 h10 m0 0 h336 m-522 -94 h20 m522 0 h20 m-562 0 q10 0 10 10 m542 0 q0 -10 10 -10 m-552 10 v90 m542 0 v-90 m-542 90 q0 10 10 10 m522 0 q10 0 10 -10 m-532 10 h10 m0 0 h512 m-714 -110 h20 m714 0 h20 m-754 0 q10 0 10 10 m734 0 q0 -10 10 -10 m-744 10 v106 m734 0 v-106 m-734 106 q0 10 10 10 m714 0 q10 0 10 -10 m-724 10 h10 m0 0 h704 m20 -126 h10 m26 0 h10 m3 0 h-3"/>
         <polygon points="823 83 831 79 831 87"/>
         <polygon points="823 83 815 79 815 87"/>
      </svg>
