      <svg xmlns="http://www.w3.org/2000/svg" width="754" height="68">
         <defs>
            <style type="text/css">
               @namespace "http://www.w3.org/2000/svg";
               .line                 {fill: none; stroke: #1F1F1F;}
               .bold-line            {stroke: #0A0A0A; shape-rendering: crispEdges; stroke-width:
               2; }
               .thin-line            {stroke: #0F0F0F; shape-rendering: crispEdges}
               .filled               {fill: #1F1F1F; stroke: none;}
               text.terminal         {font-family: Verdana, Sans-serif;
               font-size: 12px;
               fill: #0A0A0A;
               font-weight: bold;
               }
               text.nonterminal      {font-family: Verdana, Sans-serif;
               font-size: 12px;
               fill: #0D0D0D;
               }
               text.regexp           {font-family: Verdana, Sans-serif;
               font-size: 12px;
               fill: #0F0F0F;
               }
               rect, circle, polygon {fill: #1F1F1F; stroke: #1F1F1F;}
               rect.terminal         {fill: #CCCCCC; stroke: #1F1F1F;}
               rect.nonterminal      {fill: #E3E3E3; stroke: #1F1F1F;}
               rect.text             {fill: none; stroke: none;}    
               polygon.regexp        {fill: #EFEFEF; stroke: #1F1F1F;}
               
            </style>
         </defs>
         <polygon points="9 17 1 13 1 21"/>
         <polygon points="17 17 9 13 9 21"/>
         <rect x="31" y="3" width="160" height="32" rx="10"/>
         <rect x="29" y="1" width="160" height="32" class="terminal" rx="10"/>
         <text class="terminal" x="39" y="21">SysSetFileDateTime(</text>
         <a xmlns:xlink="http://www.w3.org/1999/xlink" xlink:href="#filename" xlink:title="filename">
            <rect x="211" y="3" width="72" height="32"/>
            <rect x="209" y="1" width="72" height="32" class="nonterminal"/>
            <text class="nonterminal" x="219" y="21">filename</text>
         </a>
         <rect x="323" y="3" width="24" height="32" rx="10"/>
         <rect x="321" y="1" width="24" height="32" class="terminal" rx="10"/>
         <text class="terminal" x="331" y="21">,</text>
         <a xmlns:xlink="http://www.w3.org/1999/xlink" xlink:href="#newdate" xlink:title="newdate">
            <rect x="387" y="3" width="76" height="32"/>
            <rect x="385" y="1" width="76" height="32" class="nonterminal"/>
            <text class="nonterminal" x="395" y="21">newdate</text>
         </a>
         <rect x="523" y="3" width="24" height="32" rx="10"/>
         <rect x="521" y="1" width="24" height="32" class="terminal" rx="10"/>
         <text class="terminal" x="531" y="21">,</text>
         <a xmlns:xlink="http://www.w3.org/1999/xlink" xlink:href="#newtime" xlink:title="newtime">
            <rect x="567" y="3" width="74" height="32"/>
            <rect x="565" y="1" width="74" height="32" class="nonterminal"/>
            <text class="nonterminal" x="575" y="21">newtime</text>
         </a>
         <rect x="701" y="3" width="26" height="32" rx="10"/>
         <rect x="699" y="1" width="26" height="32" class="terminal" rx="10"/>
         <text class="terminal" x="709" y="21">)</text>
         <svg:path xmlns:svg="http://www.w3.org/2000/svg" class="line" d="m17 17 h2 m0 0 h10 m160 0 h10 m0 0 h10 m72 0 h10 m20 0 h10 m24 0 h10 m20 0 h10 m76 0 h10 m-116 0 h20 m96 0 h20 m-136 0 q10 0 10 10 m116 0 q0 -10 10 -10 m-126 10 v14 m116 0 v-14 m-116 14 q0 10 10 10 m96 0 q10 0 10 -10 m-106 10 h10 m0 0 h86 m40 -34 h10 m24 0 h10 m0 0 h10 m74 0 h10 m-158 0 h20 m138 0 h20 m-178 0 q10 0 10 10 m158 0 q0 -10 10 -10 m-168 10 v14 m158 0 v-14 m-158 14 q0 10 10 10 m138 0 q10 0 10 -10 m-148 10 h10 m0 0 h128 m-358 -34 h20 m358 0 h20 m-398 0 q10 0 10 10 m378 0 q0 -10 10 -10 m-388 10 v30 m378 0 v-30 m-378 30 q0 10 10 10 m358 0 q10 0 10 -10 m-368 10 h10 m0 0 h348 m20 -50 h10 m26 0 h10 m3 0 h-3"/>
         <polygon points="745 17 753 13 753 21"/>
         <polygon points="745 17 737 13 737 21"/>
      </svg>
