      <svg xmlns="http://www.w3.org/2000/svg" width="592" height="68">
         <defs>
            <style type="text/css">
               @namespace "http://www.w3.org/2000/svg";
               .line                 {fill: none; stroke: #1F1F1F;}
               .bold-line            {stroke: #0A0A0A; shape-rendering: crispEdges; stroke-width:
               2; }
               .thin-line            {stroke: #0F0F0F; shape-rendering: crispEdges}
               .filled               {fill: #1F1F1F; stroke: none;}
               text.terminal         {font-family: Verdana, Sans-serif;
               font-size: 12px;
               fill: #0A0A0A;
               font-weight: bold;
               }
               text.nonterminal      {font-family: Verdana, Sans-serif; font-style: italic;
               font-size: 12px;
               fill: #0D0D0D;
               }
               text.regexp           {font-family: Verdana, Sans-serif;
               font-size: 12px;
               fill: #0F0F0F;
               }
               rect, circle, polygon {fill: #1F1F1F; stroke: #1F1F1F;}
               rect.terminal         {fill: #CCCCCC; stroke: #1F1F1F;}
               rect.nonterminal      {fill: #E3E3E3; stroke: #1F1F1F;}
               rect.text             {fill: none; stroke: none;}    
               polygon.regexp        {fill: #EFEFEF; stroke: #1F1F1F;}
               
            </style>
         </defs>
         <polygon points="9 17 1 13 1 21"/>
         <polygon points="17 17 9 13 9 21"/>
         <rect x="31" y="3" width="126" height="32" rx="10"/>
         <rect x="29" y="1" width="126" height="32" class="terminal" rx="10"/>
         <text class="terminal" x="39" y="21">SysSearchPath(</text>
<!--     <a xmlns:xlink="http://www.w3.org/1999/xlink" xlink:href="#path" xlink:title="path"> -->
            <rect x="177" y="3" width="46" height="32"/>
            <rect x="175" y="1" width="46" height="32" class="nonterminal"/>
            <text class="nonterminal" x="185" y="21">path</text>
<!--     </a> -->
         <rect x="243" y="3" width="24" height="32" rx="10"/>
         <rect x="241" y="1" width="24" height="32" class="terminal" rx="10"/>
         <text class="terminal" x="251" y="21">,</text>
<!--     <a xmlns:xlink="http://www.w3.org/1999/xlink" xlink:href="#filename" xlink:title="filename"> -->
            <rect x="287" y="3" width="70" height="32"/>
            <rect x="285" y="1" width="70" height="32" class="nonterminal"/>
            <text class="nonterminal" x="295" y="21">filename</text>
<!--     </a> -->
         <rect x="397" y="35" width="24" height="32" rx="10"/>
         <rect x="395" y="33" width="24" height="32" class="terminal" rx="10"/>
         <text class="terminal" x="405" y="53">,</text>
<!--     <a xmlns:xlink="http://www.w3.org/1999/xlink" xlink:href="#option" xlink:title="option"> -->
            <rect x="441" y="35" width="58" height="32"/>
            <rect x="439" y="33" width="58" height="32" class="nonterminal"/>
            <text class="nonterminal" x="449" y="53">option</text>
<!--     </a> -->
         <rect x="539" y="3" width="26" height="32" rx="10"/>
         <rect x="537" y="1" width="26" height="32" class="terminal" rx="10"/>
         <text class="terminal" x="547" y="21">)</text>
         <svg:path xmlns:svg="http://www.w3.org/2000/svg" class="line" d="m17 17 h2 m0 0 h10 m126 0 h10 m0 0 h10 m46 0 h10 m0 0 h10 m24 0 h10 m0 0 h10 m70 0 h10 m20 0 h10 m0 0 h112 m-142 0 h20 m122 0 h20 m-162 0 q10 0 10 10 m142 0 q0 -10 10 -10 m-152 10 v12 m142 0 v-12 m-142 12 q0 10 10 10 m122 0 q10 0 10 -10 m-132 10 h10 m24 0 h10 m0 0 h10 m58 0 h10 m20 -32 h10 m26 0 h10 m3 0 h-3"/>
         <polygon points="583 17 591 13 591 21"/>
         <polygon points="583 17 575 13 575 21"/>
      </svg>
