      <svg xmlns="http://www.w3.org/2000/svg" width="624" height="68">
         <defs>
            <style type="text/css">
               @namespace "http://www.w3.org/2000/svg";
               .line                 {fill: none; stroke: #1F1F1F;}
               .bold-line            {stroke: #0A0A0A; shape-rendering: crispEdges; stroke-width:
               2; }
               .thin-line            {stroke: #0F0F0F; shape-rendering: crispEdges}
               .filled               {fill: #1F1F1F; stroke: none;}
               text.terminal         {font-family: Verdana, Sans-serif;
               font-size: 12px;
               fill: #0A0A0A;
               font-weight: bold;
               }
               text.nonterminal      {font-family: Verdana, Sans-serif; font-style: italic;
               font-size: 12px;
               fill: #0D0D0D;
               }
               text.regexp           {font-family: Verdana, Sans-serif;
               font-size: 12px;
               fill: #0F0F0F;
               }
               rect, circle, polygon {fill: #1F1F1F; stroke: #1F1F1F;}
               rect.terminal         {fill: #CCCCCC; stroke: #1F1F1F;}
               rect.nonterminal      {fill: #E3E3E3; stroke: #1F1F1F;}
               rect.text             {fill: none; stroke: none;}    
               polygon.regexp        {fill: #EFEFEF; stroke: #1F1F1F;}
               
            </style>
         </defs>
         <polygon points="9 17 1 13 1 21"/>
         <polygon points="17 17 9 13 9 21"/>
         <rect x="31" y="3" width="128" height="32" rx="10"/>
         <rect x="29" y="1" width="128" height="32" class="terminal" rx="10"/>
         <text class="terminal" x="39" y="21">SysStemDelete(</text>
<!--     <a xmlns:xlink="http://www.w3.org/1999/xlink" xlink:href="#stem" xlink:title="stem"> -->
            <rect x="179" y="3" width="50" height="32"/>
            <rect x="177" y="1" width="50" height="32" class="nonterminal"/>
            <text class="nonterminal" x="187" y="21">stem</text>
<!--     </a> -->
         <rect x="249" y="3" width="24" height="32" rx="10"/>
         <rect x="247" y="1" width="24" height="32" class="terminal" rx="10"/>
         <text class="terminal" x="257" y="21">,</text>
<!--     <a xmlns:xlink="http://www.w3.org/1999/xlink" xlink:href="#startitem" xlink:title="startitem"> -->
            <rect x="293" y="3" width="74" height="32"/>
            <rect x="291" y="1" width="74" height="32" class="nonterminal"/>
            <text class="nonterminal" x="301" y="21">startitem</text>
<!--     </a> -->
         <rect x="407" y="35" width="24" height="32" rx="10"/>
         <rect x="405" y="33" width="24" height="32" class="terminal" rx="10"/>
         <text class="terminal" x="415" y="53">,</text>
<!--     <a xmlns:xlink="http://www.w3.org/1999/xlink" xlink:href="#itemcount" xlink:title="itemcount"> -->
            <rect x="451" y="35" width="80" height="32"/>
            <rect x="449" y="33" width="80" height="32" class="nonterminal"/>
            <text class="nonterminal" x="459" y="53">itemcount</text>
<!--     </a> -->
         <rect x="571" y="3" width="26" height="32" rx="10"/>
         <rect x="569" y="1" width="26" height="32" class="terminal" rx="10"/>
         <text class="terminal" x="579" y="21">)</text>
         <svg:path xmlns:svg="http://www.w3.org/2000/svg" class="line" d="m17 17 h2 m0 0 h10 m128 0 h10 m0 0 h10 m50 0 h10 m0 0 h10 m24 0 h10 m0 0 h10 m74 0 h10 m20 0 h10 m0 0 h134 m-164 0 h20 m144 0 h20 m-184 0 q10 0 10 10 m164 0 q0 -10 10 -10 m-174 10 v12 m164 0 v-12 m-164 12 q0 10 10 10 m144 0 q10 0 10 -10 m-154 10 h10 m24 0 h10 m0 0 h10 m80 0 h10 m20 -32 h10 m26 0 h10 m3 0 h-3"/>
         <polygon points="615 17 623 13 623 21"/>
         <polygon points="615 17 607 13 607 21"/>
      </svg>
