<svg xmlns="http://www.w3.org/2000/svg" width="761" height="167">
         <defs>
            <style type="text/css">
    @namespace "http://www.w3.org/2000/svg";
    .line                 {fill: none; stroke: #1F1F1F;}
    .bold-line            {stroke: #0A0A0A; shape-rendering: crispEdges; stroke-width: 2; }
    .thin-line            {stroke: #0F0F0F; shape-rendering: crispEdges}
    .filled               {fill: #1F1F1F; stroke: none;}
    text.terminal         {font-family: Verdana, Sans-serif;
                            font-size: 12px;
                            fill: #0A0A0A;
                            font-weight: bold;
                          }
    text.nonterminal      {font-family: Verdana, Sans-serif; font-style: italic;
                            font-size: 12px;
                            fill: #0D0D0D;
                            font-weight: normal;
                          }
    text.regexp           {font-family: Verdana, Sans-serif;
                            font-size: 12px;
                            fill: #0F0F0F;
                            font-weight: normal;
                          }
    rect, circle, polygon {fill: #1F1F1F; stroke: #1F1F1F;}
    rect.terminal         {fill: #CCCCCC; stroke: #1F1F1F;}
    rect.nonterminal      {fill: #E3E3E3; stroke: #1F1F1F;}
    rect.text             {fill: none; stroke: none;}    
    polygon.regexp        {fill: #EFEFEF; stroke: #1F1F1F;}
  </style>
         </defs>
         <polygon points="9 17 1 13 1 21"/>
         <polygon points="17 17 9 13 9 21"/>
         <rect x="31" y="3" width="170" height="32" rx="10"/>
         <rect x="29" y="1" width="170" height="32" class="terminal" rx="10"/>
         <text class="terminal" x="39" y="21">SysShutdownSystem(</text>
<!--  <a xmlns:xlink="http://www.w3.org/1999/xlink" xlink:href="#computer" xlink:title="computer"> -->
            <rect x="241" y="35" width="80" height="32"/>
            <rect x="239" y="33" width="80" height="32" class="nonterminal"/>
            <text class="nonterminal" x="249" y="53">computer</text><!-- </a> -->
<rect x="361" y="3" width="24" height="32" rx="10"/>
         <rect x="359" y="1" width="24" height="32" class="terminal" rx="10"/>
         <text class="terminal" x="369" y="21">,</text>
<!--  <a xmlns:xlink="http://www.w3.org/1999/xlink" xlink:href="#message" xlink:title="message"> -->
            <rect x="425" y="35" width="78" height="32"/>
            <rect x="423" y="33" width="78" height="32" class="nonterminal"/>
            <text class="nonterminal" x="433" y="53">message</text><!-- </a> -->
<rect x="543" y="3" width="24" height="32" rx="10"/>
         <rect x="541" y="1" width="24" height="32" class="terminal" rx="10"/>
         <text class="terminal" x="551" y="21">,</text>
<!--  <a xmlns:xlink="http://www.w3.org/1999/xlink" xlink:href="#timeout" xlink:title="timeout"> -->
            <rect x="607" y="35" width="68" height="32"/>
            <rect x="605" y="33" width="68" height="32" class="nonterminal"/>
            <text class="nonterminal" x="615" y="53">timeout</text><!-- </a> -->
<rect x="715" y="3" width="24" height="32" rx="10"/>
         <rect x="713" y="1" width="24" height="32" class="terminal" rx="10"/>
         <text class="terminal" x="723" y="21">,</text>
<!--  <a xmlns:xlink="http://www.w3.org/1999/xlink" xlink:href="#force" xlink:title="force"> -->
            <rect x="449" y="133" width="52" height="32"/>
            <rect x="447" y="131" width="52" height="32" class="nonterminal"/>
            <text class="nonterminal" x="457" y="151">force</text><!-- </a> -->
<rect x="541" y="101" width="24" height="32" rx="10"/>
         <rect x="539" y="99" width="24" height="32" class="terminal" rx="10"/>
         <text class="terminal" x="549" y="119">,</text>
<!--  <a xmlns:xlink="http://www.w3.org/1999/xlink" xlink:href="#reboot" xlink:title="reboot"> -->
            <rect x="605" y="133" width="62" height="32"/>
            <rect x="603" y="131" width="62" height="32" class="nonterminal"/>
            <text class="nonterminal" x="613" y="151">reboot</text><!-- </a> -->
<rect x="707" y="101" width="26" height="32" rx="10"/>
         <rect x="705" y="99" width="26" height="32" class="terminal" rx="10"/>
         <text class="terminal" x="715" y="119">)</text>
         <svg:path xmlns:svg="http://www.w3.org/2000/svg" class="line" d="m17 17 h2 m0 0 h10 m170 0 h10 m20 0 h10 m0 0 h90 m-120 0 h20 m100 0 h20 m-140 0 q10 0 10 10 m120 0 q0 -10 10 -10 m-130 10 v12 m120 0 v-12 m-120 12 q0 10 10 10 m100 0 q10 0 10 -10 m-110 10 h10 m80 0 h10 m20 -32 h10 m24 0 h10 m20 0 h10 m0 0 h88 m-118 0 h20 m98 0 h20 m-138 0 q10 0 10 10 m118 0 q0 -10 10 -10 m-128 10 v12 m118 0 v-12 m-118 12 q0 10 10 10 m98 0 q10 0 10 -10 m-108 10 h10 m78 0 h10 m20 -32 h10 m24 0 h10 m20 0 h10 m0 0 h78 m-108 0 h20 m88 0 h20 m-128 0 q10 0 10 10 m108 0 q0 -10 10 -10 m-118 10 v12 m108 0 v-12 m-108 12 q0 10 10 10 m88 0 q10 0 10 -10 m-98 10 h10 m68 0 h10 m20 -32 h10 m24 0 h10 m2 0 l2 0 m2 0 l2 0 m2 0 l2 0 m-354 98 l2 0 m2 0 l2 0 m2 0 l2 0 m22 0 h10 m0 0 h62 m-92 0 h20 m72 0 h20 m-112 0 q10 0 10 10 m92 0 q0 -10 10 -10 m-102 10 v12 m92 0 v-12 m-92 12 q0 10 10 10 m72 0 q10 0 10 -10 m-82 10 h10 m52 0 h10 m20 -32 h10 m24 0 h10 m20 0 h10 m0 0 h72 m-102 0 h20 m82 0 h20 m-122 0 q10 0 10 10 m102 0 q0 -10 10 -10 m-112 10 v12 m102 0 v-12 m-102 12 q0 10 10 10 m82 0 q10 0 10 -10 m-92 10 h10 m62 0 h10 m20 -32 h10 m26 0 h10 m3 0 h-3"/>
         <polygon points="751 115 759 111 759 119"/>
         <polygon points="751 115 743 111 743 119"/></svg>
