<svg xmlns="http://www.w3.org/2000/svg" width="839" height="191">
         <defs>
            <style type="text/css">
    @namespace "http://www.w3.org/2000/svg";
    .line                 {fill: none; stroke: #1F1F1F; stroke-width: 1;}
    .bold-line            {stroke: #0A0A0A; shape-rendering: crispEdges; stroke-width: 2;}
    .thin-line            {stroke: #0F0F0F; shape-rendering: crispEdges}
    .filled               {fill: #1F1F1F; stroke: none;}
    text.terminal         {font-family: Verdana, Sans-serif;
                            font-size: 12px;
                            fill: #0A0A0A;
                            font-weight: bold;
                          }
    text.nonterminal      {font-family: Verdana, Sans-serif; font-style: italic;
                            font-size: 12px;
                            fill: #0D0D0D;
                            font-weight: normal;
                          }
    text.regexp           {font-family: Verdana, Sans-serif;
                            font-size: 12px;
                            fill: #0F0F0F;
                            font-weight: normal;
                          }
    rect, circle, polygon {fill: #1F1F1F; stroke: #1F1F1F;}
    rect.terminal         {fill: #cccccc; stroke: #1F1F1F; stroke-width: 1;}
    rect.nonterminal      {fill: #E3E3E3; stroke: #1F1F1F; stroke-width: 1;}
    rect.text             {fill: none; stroke: none;}
    polygon.regexp        {fill: #EFEFEF; stroke: #1F1F1F; stroke-width: 1;}
  </style>
         </defs>
         <polygon points="9 17 1 13 1 21"/>
         <polygon points="17 17 9 13 9 21"/>
         <rect x="31" y="3" width="114" height="32" rx="10"/>
         <rect x="29" y="1" width="114" height="32" class="terminal" rx="10"/>
         <text class="terminal" x="39" y="21">SysStemSort(</text>
<!--  <a xmlns:xlink="http://www.w3.org/1999/xlink" xlink:href="#stem" xlink:title="stem"> -->
            <rect x="165" y="3" width="52" height="32"/>
            <rect x="163" y="1" width="52" height="32" class="nonterminal"/>
            <text class="nonterminal" x="173" y="21">stem</text><!-- </a> -->
<rect x="237" y="3" width="24" height="32" rx="10"/>
         <rect x="235" y="1" width="24" height="32" class="terminal" rx="10"/>
         <text class="terminal" x="245" y="21">,</text>
         <rect x="301" y="3" width="42" height="32" rx="10"/>
         <rect x="299" y="1" width="42" height="32" class="terminal" rx="10"/>
         <text class="terminal" x="309" y="21">"A"</text>
         <rect x="301" y="47" width="44" height="32" rx="10"/>
         <rect x="299" y="45" width="44" height="32" class="terminal" rx="10"/>
         <text class="terminal" x="309" y="65">"D"</text>
         <rect x="385" y="3" width="24" height="32" rx="10"/>
         <rect x="383" y="1" width="24" height="32" class="terminal" rx="10"/>
         <text class="terminal" x="393" y="21">,</text>
         <rect x="449" y="3" width="42" height="32" rx="10"/>
         <rect x="447" y="1" width="42" height="32" class="terminal" rx="10"/>
         <text class="terminal" x="457" y="21">"C"</text>
         <rect x="449" y="47" width="40" height="32" rx="10"/>
         <rect x="447" y="45" width="40" height="32" class="terminal" rx="10"/>
         <text class="terminal" x="457" y="65">"I"</text>
         <rect x="531" y="3" width="24" height="32" rx="10"/>
         <rect x="529" y="1" width="24" height="32" class="terminal" rx="10"/>
         <text class="terminal" x="539" y="21">,</text>
         <rect x="595" y="3" width="42" height="32" rx="10"/>
         <rect x="593" y="1" width="42" height="32" class="terminal" rx="10"/>
         <text class="terminal" x="603" y="21">"1"</text>
<!--  <a xmlns:xlink="http://www.w3.org/1999/xlink" xlink:href="#start" xlink:title="start"> -->
            <rect x="595" y="47" width="50" height="32"/>
            <rect x="593" y="45" width="50" height="32" class="nonterminal"/>
            <text class="nonterminal" x="603" y="65">start</text><!-- </a> -->
<rect x="685" y="3" width="24" height="32" rx="10"/>
         <rect x="683" y="1" width="24" height="32" class="terminal" rx="10"/>
         <text class="terminal" x="693" y="21">,</text>
<!--  <a xmlns:xlink="http://www.w3.org/1999/xlink" xlink:href="#end" xlink:title="end"> -->
            <rect x="729" y="3" width="44" height="32"/>
            <rect x="727" y="1" width="44" height="32" class="nonterminal"/>
            <text class="nonterminal" x="737" y="21">end</text><!-- </a> -->
<rect x="793" y="3" width="24" height="32" rx="10"/>
         <rect x="791" y="1" width="24" height="32" class="terminal" rx="10"/>
         <text class="terminal" x="801" y="21">,</text>
         <rect x="559" y="113" width="42" height="32" rx="10"/>
         <rect x="557" y="111" width="42" height="32" class="terminal" rx="10"/>
         <text class="terminal" x="567" y="131">"1"</text>
<!--  <a xmlns:xlink="http://www.w3.org/1999/xlink" xlink:href="#firstcol" xlink:title="firstcol"> -->
            <rect x="559" y="157" width="62" height="32"/>
            <rect x="557" y="155" width="62" height="32" class="nonterminal"/>
            <text class="nonterminal" x="567" y="175">firstcol</text><!-- </a> -->
<rect x="661" y="113" width="24" height="32" rx="10"/>
         <rect x="659" y="111" width="24" height="32" class="terminal" rx="10"/>
         <text class="terminal" x="669" y="131">,</text>
<!--  <a xmlns:xlink="http://www.w3.org/1999/xlink" xlink:href="#lastcol" xlink:title="lastcol"> -->
            <rect x="705" y="113" width="60" height="32"/>
            <rect x="703" y="111" width="60" height="32" class="nonterminal"/>
            <text class="nonterminal" x="713" y="131">lastcol</text><!-- </a> -->
<rect x="785" y="113" width="26" height="32" rx="10"/>
         <rect x="783" y="111" width="26" height="32" class="terminal" rx="10"/>
         <text class="terminal" x="793" y="131">)</text>
         <svg:path xmlns:svg="http://www.w3.org/2000/svg" class="line" d="m17 17 h2 m0 0 h10 m114 0 h10 m0 0 h10 m52 0 h10 m0 0 h10 m24 0 h10 m20 0 h10 m42 0 h10 m0 0 h2 m-84 0 h20 m64 0 h20 m-104 0 q10 0 10 10 m84 0 q0 -10 10 -10 m-94 10 v24 m84 0 v-24 m-84 24 q0 10 10 10 m64 0 q10 0 10 -10 m-74 10 h10 m44 0 h10 m20 -44 h10 m24 0 h10 m20 0 h10 m42 0 h10 m-82 0 h20 m62 0 h20 m-102 0 q10 0 10 10 m82 0 q0 -10 10 -10 m-92 10 v24 m82 0 v-24 m-82 24 q0 10 10 10 m62 0 q10 0 10 -10 m-72 10 h10 m40 0 h10 m0 0 h2 m20 -44 h10 m24 0 h10 m20 0 h10 m42 0 h10 m0 0 h8 m-90 0 h20 m70 0 h20 m-110 0 q10 0 10 10 m90 0 q0 -10 10 -10 m-100 10 v24 m90 0 v-24 m-90 24 q0 10 10 10 m70 0 q10 0 10 -10 m-80 10 h10 m50 0 h10 m20 -44 h10 m24 0 h10 m0 0 h10 m44 0 h10 m0 0 h10 m24 0 h10 m2 0 l2 0 m2 0 l2 0 m2 0 l2 0 m-322 110 l2 0 m2 0 l2 0 m2 0 l2 0 m22 0 h10 m42 0 h10 m0 0 h20 m-102 0 h20 m82 0 h20 m-122 0 q10 0 10 10 m102 0 q0 -10 10 -10 m-112 10 v24 m102 0 v-24 m-102 24 q0 10 10 10 m82 0 q10 0 10 -10 m-92 10 h10 m62 0 h10 m20 -44 h10 m24 0 h10 m0 0 h10 m60 0 h10 m0 0 h10 m26 0 h10 m3 0 h-3"/>
         <polygon points="829 127 837 123 837 131"/>
         <polygon points="829 127 821 123 821 131"/></svg>
