<svg xmlns="http://www.w3.org/2000/svg" width="833" height="275">
         <defs>
            <style type="text/css">
    @namespace "http://www.w3.org/2000/svg";
    .line                 {fill: none; stroke: #1F1F1F;}
    .bold-line            {stroke: #0A0A0A; shape-rendering: crispEdges; stroke-width: 2; }
    .thin-line            {stroke: #0F0F0F; shape-rendering: crispEdges}
    .filled               {fill: #1F1F1F; stroke: none;}
    text.terminal         {font-family: Verdana, Sans-serif;
                            font-size: 12px;
                            fill: #0A0A0A;
                            font-weight: bold;
                          }
    text.nonterminal      {font-family: Verdana, Sans-serif; font-style: italic;
                            font-size: 12px;
                            fill: #0D0D0D;
                            font-weight: normal;
                          }
    text.regexp           {font-family: Verdana, Sans-serif;
                            font-size: 12px;
                            fill: #0F0F0F;
                            font-weight: normal;
                          }
    rect, circle, polygon {fill: #1F1F1F; stroke: #1F1F1F;}
    rect.terminal         {fill: #cccccc; stroke: #1F1F1F;}
    rect.nonterminal      {fill: #E3E3E3; stroke: #1F1F1F;}
    rect.text             {fill: none; stroke: none;}    
    polygon.regexp        {fill: #EFEFEF; stroke: #1F1F1F;}
  </style>
         </defs>
         <polygon points="11 17 3 13 3 21"/>
         <polygon points="19 17 11 13 11 21"/>
         <rect x="33" y="3" width="120" height="32" rx="10"/>
         <rect x="31" y="1" width="120" height="32" class="terminal" rx="10"/>
         <text class="terminal" x="41" y="21">SysStemCopy(</text>
<!--  <a xmlns:xlink="http://www.w3.org/1999/xlink" xlink:href="#fromstem" xlink:title="fromstem"> -->
            <rect x="173" y="3" width="80" height="32"/>
            <rect x="171" y="1" width="80" height="32" class="nonterminal"/>
            <text class="nonterminal" x="181" y="21">fromstem</text><!-- </a> -->
<rect x="273" y="3" width="24" height="32" rx="10"/>
         <rect x="271" y="1" width="24" height="32" class="terminal" rx="10"/>
         <text class="terminal" x="281" y="21">,</text>
<!--  <a xmlns:xlink="http://www.w3.org/1999/xlink" xlink:href="#tostrm" xlink:title="tostrm"> -->
            <rect x="317" y="3" width="62" height="32"/>
            <rect x="315" y="1" width="62" height="32" class="nonterminal"/>
            <text class="nonterminal" x="325" y="21">tostrm</text><!-- </a> -->
<rect x="45" y="101" width="24" height="32" rx="10"/>
         <rect x="43" y="99" width="24" height="32" class="terminal" rx="10"/>
         <text class="terminal" x="53" y="119">,</text>
<!--  <a xmlns:xlink="http://www.w3.org/1999/xlink" xlink:href="#from" xlink:title="from"> -->
            <rect x="109" y="133" width="48" height="32"/>
            <rect x="107" y="131" width="48" height="32" class="nonterminal"/>
            <text class="nonterminal" x="117" y="151">from</text><!-- </a> -->
<rect x="217" y="133" width="24" height="32" rx="10"/>
         <rect x="215" y="131" width="24" height="32" class="terminal" rx="10"/>
         <text class="terminal" x="225" y="151">,</text>
<!--  <a xmlns:xlink="http://www.w3.org/1999/xlink" xlink:href="#to" xlink:title="to"> -->
            <rect x="281" y="165" width="32" height="32"/>
            <rect x="279" y="163" width="32" height="32" class="nonterminal"/>
            <text class="nonterminal" x="289" y="183">to</text><!-- </a> -->
<rect x="373" y="165" width="24" height="32" rx="10"/>
         <rect x="371" y="163" width="24" height="32" class="terminal" rx="10"/>
         <text class="terminal" x="381" y="183">,</text>
<!--  <a xmlns:xlink="http://www.w3.org/1999/xlink" xlink:href="#count" xlink:title="count"> -->
            <rect x="437" y="197" width="54" height="32"/>
            <rect x="435" y="195" width="54" height="32" class="nonterminal"/>
            <text class="nonterminal" x="445" y="215">count</text><!-- </a> -->
<rect x="551" y="197" width="24" height="32" rx="10"/>
         <rect x="549" y="195" width="24" height="32" class="terminal" rx="10"/>
         <text class="terminal" x="559" y="215">,</text>
         <rect x="615" y="197" width="40" height="32" rx="10"/>
         <rect x="613" y="195" width="40" height="32" class="terminal" rx="10"/>
         <text class="terminal" x="623" y="215">"I"</text>
         <rect x="615" y="241" width="44" height="32" rx="10"/>
         <rect x="613" y="239" width="44" height="32" class="terminal" rx="10"/>
         <text class="terminal" x="623" y="259">"O"</text>
         <rect x="779" y="69" width="26" height="32" rx="10"/>
         <rect x="777" y="67" width="26" height="32" class="terminal" rx="10"/>
         <text class="terminal" x="787" y="87">)</text>
         <svg:path xmlns:svg="http://www.w3.org/2000/svg" class="line" d="m19 17 h2 m0 0 h10 m120 0 h10 m0 0 h10 m80 0 h10 m0 0 h10 m24 0 h10 m0 0 h10 m62 0 h10 m2 0 l2 0 m2 0 l2 0 m2 0 l2 0 m-398 66 l2 0 m2 0 l2 0 m2 0 l2 0 m22 0 h10 m0 0 h704 m-734 0 h20 m714 0 h20 m-754 0 q10 0 10 10 m734 0 q0 -10 10 -10 m-744 10 v12 m734 0 v-12 m-734 12 q0 10 10 10 m714 0 q10 0 10 -10 m-724 10 h10 m24 0 h10 m20 0 h10 m0 0 h58 m-88 0 h20 m68 0 h20 m-108 0 q10 0 10 10 m88 0 q0 -10 10 -10 m-98 10 v12 m88 0 v-12 m-88 12 q0 10 10 10 m68 0 q10 0 10 -10 m-78 10 h10 m48 0 h10 m40 -32 h10 m0 0 h512 m-542 0 h20 m522 0 h20 m-562 0 q10 0 10 10 m542 0 q0 -10 10 -10 m-552 10 v12 m542 0 v-12 m-542 12 q0 10 10 10 m522 0 q10 0 10 -10 m-532 10 h10 m24 0 h10 m20 0 h10 m0 0 h42 m-72 0 h20 m52 0 h20 m-92 0 q10 0 10 10 m72 0 q0 -10 10 -10 m-82 10 v12 m72 0 v-12 m-72 12 q0 10 10 10 m52 0 q10 0 10 -10 m-62 10 h10 m32 0 h10 m40 -32 h10 m0 0 h336 m-366 0 h20 m346 0 h20 m-386 0 q10 0 10 10 m366 0 q0 -10 10 -10 m-376 10 v12 m366 0 v-12 m-366 12 q0 10 10 10 m346 0 q10 0 10 -10 m-356 10 h10 m24 0 h10 m20 0 h10 m0 0 h64 m-94 0 h20 m74 0 h20 m-114 0 q10 0 10 10 m94 0 q0 -10 10 -10 m-104 10 v12 m94 0 v-12 m-94 12 q0 10 10 10 m74 0 q10 0 10 -10 m-84 10 h10 m54 0 h10 m40 -32 h10 m0 0 h138 m-168 0 h20 m148 0 h20 m-188 0 q10 0 10 10 m168 0 q0 -10 10 -10 m-178 10 v12 m168 0 v-12 m-168 12 q0 10 10 10 m148 0 q10 0 10 -10 m-158 10 h10 m24 0 h10 m20 0 h10 m40 0 h10 m0 0 h4 m-84 0 h20 m64 0 h20 m-104 0 q10 0 10 10 m84 0 q0 -10 10 -10 m-94 10 v24 m84 0 v-24 m-84 24 q0 10 10 10 m64 0 q10 0 10 -10 m-74 10 h10 m44 0 h10 m100 -172 h10 m26 0 h10 m3 0 h-3"/>
         <polygon points="823 83 831 79 831 87"/>
         <polygon points="823 83 815 79 815 87"/></svg>
