      <svg xmlns="http://www.w3.org/2000/svg" width="956" height="248">
         <defs>
            <style type="text/css">
               @namespace "http://www.w3.org/2000/svg";
               .line                 {fill: none; stroke: #1F1F1F;}
               .bold-line            {stroke: #0A0A0A; shape-rendering: crispEdges; stroke-width:
               2; }
               .thin-line            {stroke: #0F0F0F; shape-rendering: crispEdges}
               .filled               {fill: #1F1F1F; stroke: none;}
               text.terminal         {font-family: Verdana, Sans-serif;
               font-size: 12px;
               fill: #0A0A0A;
               font-weight: bold;
               }
               text.nonterminal      {font-family: Verdana, Sans-serif;
               font-size: 12px;
               fill: #0D0D0D;
               }
               text.regexp           {font-family: Verdana, Sans-serif;
               font-size: 12px;
               fill: #0F0F0F;
               }
               rect, circle, polygon {fill: #1F1F1F; stroke: #1F1F1F;}
               rect.terminal         {fill: #CCCCCC; stroke: #1F1F1F;}
               rect.nonterminal      {fill: #E3E3E3; stroke: #1F1F1F;}
               rect.text             {fill: none; stroke: none;}    
               polygon.regexp        {fill: #EFEFEF; stroke: #1F1F1F;}
               
            </style>
         </defs>
         <polygon points="9 17 1 13 1 21"/>
         <polygon points="17 17 9 13 9 21"/>
         <rect x="31" y="3" width="166" height="32" rx="10"/>
         <rect x="29" y="1" width="166" height="32" class="terminal" rx="10"/>
         <text class="terminal" x="39" y="21">SysShutdownSystem(</text>
         <a xmlns:xlink="http://www.w3.org/1999/xlink" xlink:href="#computer" xlink:title="computer">
            <rect x="45" y="69" width="78" height="32"/>
            <rect x="43" y="67" width="78" height="32" class="nonterminal"/>
            <text class="nonterminal" x="53" y="87">computer</text>
         </a>
         <rect x="163" y="69" width="24" height="32" rx="10"/>
         <rect x="161" y="67" width="24" height="32" class="terminal" rx="10"/>
         <text class="terminal" x="171" y="87">,</text>
         <a xmlns:xlink="http://www.w3.org/1999/xlink" xlink:href="#message" xlink:title="message">
            <rect x="227" y="69" width="76" height="32"/>
            <rect x="225" y="67" width="76" height="32" class="nonterminal"/>
            <text class="nonterminal" x="235" y="87">message</text>
         </a>
         <rect x="363" y="69" width="24" height="32" rx="10"/>
         <rect x="361" y="67" width="24" height="32" class="terminal" rx="10"/>
         <text class="terminal" x="371" y="87">,</text>
         <a xmlns:xlink="http://www.w3.org/1999/xlink" xlink:href="#timeout" xlink:title="timeout">
            <rect x="427" y="69" width="68" height="32"/>
            <rect x="425" y="67" width="68" height="32" class="nonterminal"/>
            <text class="nonterminal" x="435" y="87">timeout</text>
         </a>
         <rect x="555" y="69" width="24" height="32" rx="10"/>
         <rect x="553" y="67" width="24" height="32" class="terminal" rx="10"/>
         <text class="terminal" x="563" y="87">,</text>
         <a xmlns:xlink="http://www.w3.org/1999/xlink" xlink:href="#force" xlink:title="force">
            <rect x="619" y="69" width="50" height="32"/>
            <rect x="617" y="67" width="50" height="32" class="nonterminal"/>
            <text class="nonterminal" x="627" y="87">force</text>
         </a>
         <rect x="729" y="69" width="24" height="32" rx="10"/>
         <rect x="727" y="67" width="24" height="32" class="terminal" rx="10"/>
         <text class="terminal" x="737" y="87">,</text>
         <a xmlns:xlink="http://www.w3.org/1999/xlink" xlink:href="#reboot" xlink:title="reboot">
            <rect x="773" y="69" width="62" height="32"/>
            <rect x="771" y="67" width="62" height="32" class="nonterminal"/>
            <text class="nonterminal" x="781" y="87">reboot</text>
         </a>
         <rect x="903" y="215" width="26" height="32" rx="10"/>
         <rect x="901" y="213" width="26" height="32" class="terminal" rx="10"/>
         <text class="terminal" x="911" y="233">)</text>
         <svg:path xmlns:svg="http://www.w3.org/2000/svg" class="line" d="m17 17 h2 m0 0 h10 m166 0 h10 m2 0 l2 0 m2 0 l2 0 m2 0 l2 0 m-216 66 l2 0 m2 0 l2 0 m2 0 l2 0 m22 0 h10 m78 0 h10 m20 0 h10 m24 0 h10 m20 0 h10 m76 0 h10 m-116 0 h20 m96 0 h20 m-136 0 q10 0 10 10 m116 0 q0 -10 10 -10 m-126 10 v14 m116 0 v-14 m-116 14 q0 10 10 10 m96 0 q10 0 10 -10 m-106 10 h10 m0 0 h86 m40 -34 h10 m24 0 h10 m20 0 h10 m68 0 h10 m-108 0 h20 m88 0 h20 m-128 0 q10 0 10 10 m108 0 q0 -10 10 -10 m-118 10 v14 m108 0 v-14 m-108 14 q0 10 10 10 m88 0 q10 0 10 -10 m-98 10 h10 m0 0 h78 m40 -34 h10 m24 0 h10 m20 0 h10 m50 0 h10 m-90 0 h20 m70 0 h20 m-110 0 q10 0 10 10 m90 0 q0 -10 10 -10 m-100 10 v14 m90 0 v-14 m-90 14 q0 10 10 10 m70 0 q10 0 10 -10 m-80 10 h10 m0 0 h60 m40 -34 h10 m24 0 h10 m0 0 h10 m62 0 h10 m-146 0 h20 m126 0 h20 m-166 0 q10 0 10 10 m146 0 q0 -10 10 -10 m-156 10 v14 m146 0 v-14 m-146 14 q0 10 10 10 m126 0 q10 0 10 -10 m-136 10 h10 m0 0 h116 m-320 -34 h20 m320 0 h20 m-360 0 q10 0 10 10 m340 0 q0 -10 10 -10 m-350 10 v30 m340 0 v-30 m-340 30 q0 10 10 10 m320 0 q10 0 10 -10 m-330 10 h10 m0 0 h310 m-532 -50 h20 m532 0 h20 m-572 0 q10 0 10 10 m552 0 q0 -10 10 -10 m-562 10 v46 m552 0 v-46 m-552 46 q0 10 10 10 m532 0 q10 0 10 -10 m-542 10 h10 m0 0 h522 m-752 -66 h20 m752 0 h20 m-792 0 q10 0 10 10 m772 0 q0 -10 10 -10 m-782 10 v62 m772 0 v-62 m-772 62 q0 10 10 10 m752 0 q10 0 10 -10 m-762 10 h10 m0 0 h742 m-890 -82 h20 m890 0 h20 m-930 0 q10 0 10 10 m910 0 q0 -10 10 -10 m-920 10 v78 m910 0 v-78 m-910 78 q0 10 10 10 m890 0 q10 0 10 -10 m-900 10 h10 m0 0 h880 m22 -98 l2 0 m2 0 l2 0 m2 0 l2 0 m-76 146 l2 0 m2 0 l2 0 m2 0 l2 0 m2 0 h10 m26 0 h10 m3 0 h-3"/>
         <polygon points="947 229 955 225 955 233"/>
         <polygon points="947 229 939 225 939 233"/>
      </svg>
