      <svg xmlns="http://www.w3.org/2000/svg" width="862" height="166">
         <defs>
            <style type="text/css">
               @namespace "http://www.w3.org/2000/svg";
               .line                 {fill: none; stroke: #1F1F1F;}
               .bold-line            {stroke: #0A0A0A; shape-rendering: crispEdges; stroke-width:
               2; }
               .thin-line            {stroke: #0F0F0F; shape-rendering: crispEdges}
               .filled               {fill: #1F1F1F; stroke: none;}
               text.terminal         {font-family: Verdana, Sans-serif;
               font-size: 12px;
               fill: #0A0A0A;
               font-weight: bold;
               }
               text.nonterminal      {font-family: Verdana, Sans-serif; font-style: italic;
               font-size: 12px;
               fill: #0D0D0D;
               }
               text.regexp           {font-family: Verdana, Sans-serif;
               font-size: 12px;
               fill: #0F0F0F;
               }
               rect, circle, polygon {fill: #1F1F1F; stroke: #1F1F1F;}
               rect.terminal         {fill: #CCCCCC; stroke: #1F1F1F;}
               rect.nonterminal      {fill: #E3E3E3; stroke: #1F1F1F;}
               rect.text             {fill: none; stroke: none;}    
               polygon.regexp        {fill: #EFEFEF; stroke: #1F1F1F;}
               
            </style>
         </defs>
         <polygon points="9 17 1 13 1 21"/>
         <polygon points="17 17 9 13 9 21"/>
         <rect x="31" y="3" width="166" height="32" rx="10"/>
         <rect x="29" y="1" width="166" height="32" class="terminal" rx="10"/>
         <text class="terminal" x="39" y="21">SysShutdownSystem(</text>
<!--     <a xmlns:xlink="http://www.w3.org/1999/xlink" xlink:href="#computer" xlink:title="computer"> -->
            <rect x="237" y="35" width="78" height="32"/>
            <rect x="235" y="33" width="78" height="32" class="nonterminal"/>
            <text class="nonterminal" x="245" y="53">computer</text>
<!--     </a> -->
         <rect x="355" y="3" width="24" height="32" rx="10"/>
         <rect x="353" y="1" width="24" height="32" class="terminal" rx="10"/>
         <text class="terminal" x="363" y="21">,</text>
<!--     <a xmlns:xlink="http://www.w3.org/1999/xlink" xlink:href="#message" xlink:title="message"> -->
            <rect x="419" y="35" width="76" height="32"/>
            <rect x="417" y="33" width="76" height="32" class="nonterminal"/>
            <text class="nonterminal" x="427" y="53">message</text>
<!--     </a> -->
         <rect x="535" y="3" width="24" height="32" rx="10"/>
         <rect x="533" y="1" width="24" height="32" class="terminal" rx="10"/>
         <text class="terminal" x="543" y="21">,</text>
<!--     <a xmlns:xlink="http://www.w3.org/1999/xlink" xlink:href="#timeout" xlink:title="timeout"> -->
            <rect x="599" y="35" width="68" height="32"/>
            <rect x="597" y="33" width="68" height="32" class="nonterminal"/>
            <text class="nonterminal" x="607" y="53">timeout</text>
<!--     </a> -->
         <rect x="707" y="3" width="24" height="32" rx="10"/>
         <rect x="705" y="1" width="24" height="32" class="terminal" rx="10"/>
         <text class="terminal" x="715" y="21">,</text>
<!--     <a xmlns:xlink="http://www.w3.org/1999/xlink" xlink:href="#force" xlink:title="force"> -->
            <rect x="771" y="35" width="50" height="32"/>
            <rect x="769" y="33" width="50" height="32" class="nonterminal"/>
            <text class="nonterminal" x="779" y="53">force</text>
<!--     </a> -->
         <rect x="643" y="101" width="24" height="32" rx="10"/>
         <rect x="641" y="99" width="24" height="32" class="terminal" rx="10"/>
         <text class="terminal" x="651" y="119">,</text>
<!--     <a xmlns:xlink="http://www.w3.org/1999/xlink" xlink:href="#reboot" xlink:title="reboot"> -->
            <rect x="707" y="133" width="62" height="32"/>
            <rect x="705" y="131" width="62" height="32" class="nonterminal"/>
            <text class="nonterminal" x="715" y="151">reboot</text>
<!--     </a> -->
         <rect x="809" y="101" width="26" height="32" rx="10"/>
         <rect x="807" y="99" width="26" height="32" class="terminal" rx="10"/>
         <text class="terminal" x="817" y="119">)</text>
         <svg:path xmlns:svg="http://www.w3.org/2000/svg" class="line" d="m17 17 h2 m0 0 h10 m166 0 h10 m20 0 h10 m0 0 h88 m-118 0 h20 m98 0 h20 m-138 0 q10 0 10 10 m118 0 q0 -10 10 -10 m-128 10 v12 m118 0 v-12 m-118 12 q0 10 10 10 m98 0 q10 0 10 -10 m-108 10 h10 m78 0 h10 m20 -32 h10 m24 0 h10 m20 0 h10 m0 0 h86 m-116 0 h20 m96 0 h20 m-136 0 q10 0 10 10 m116 0 q0 -10 10 -10 m-126 10 v12 m116 0 v-12 m-116 12 q0 10 10 10 m96 0 q10 0 10 -10 m-106 10 h10 m76 0 h10 m20 -32 h10 m24 0 h10 m20 0 h10 m0 0 h78 m-108 0 h20 m88 0 h20 m-128 0 q10 0 10 10 m108 0 q0 -10 10 -10 m-118 10 v12 m108 0 v-12 m-108 12 q0 10 10 10 m88 0 q10 0 10 -10 m-98 10 h10 m68 0 h10 m20 -32 h10 m24 0 h10 m20 0 h10 m0 0 h60 m-90 0 h20 m70 0 h20 m-110 0 q10 0 10 10 m90 0 q0 -10 10 -10 m-100 10 v12 m90 0 v-12 m-90 12 q0 10 10 10 m70 0 q10 0 10 -10 m-80 10 h10 m50 0 h10 m22 -32 l2 0 m2 0 l2 0 m2 0 l2 0 m-242 98 l2 0 m2 0 l2 0 m2 0 l2 0 m2 0 h10 m24 0 h10 m20 0 h10 m0 0 h72 m-102 0 h20 m82 0 h20 m-122 0 q10 0 10 10 m102 0 q0 -10 10 -10 m-112 10 v12 m102 0 v-12 m-102 12 q0 10 10 10 m82 0 q10 0 10 -10 m-92 10 h10 m62 0 h10 m20 -32 h10 m26 0 h10 m3 0 h-3"/>
         <polygon points="853 115 861 111 861 119"/>
         <polygon points="853 115 845 111 845 119"/>
      </svg>
