      <svg xmlns="http://www.w3.org/2000/svg" width="590" height="68">
         <defs>
            <style type="text/css">
               @namespace "http://www.w3.org/2000/svg";
               .line                 {fill: none; stroke: #1F1F1F;}
               .bold-line            {stroke: #0A0A0A; shape-rendering: crispEdges; stroke-width:
               2; }
               .thin-line            {stroke: #0F0F0F; shape-rendering: crispEdges}
               .filled               {fill: #1F1F1F; stroke: none;}
               text.terminal         {font-family: Verdana, Sans-serif;
               font-size: 12px;
               fill: #0A0A0A;
               font-weight: bold;
               }
               text.nonterminal      {font-family: Verdana, Sans-serif; font-style: italic;
               font-size: 12px;
               fill: #0D0D0D;
               }
               text.regexp           {font-family: Verdana, Sans-serif;
               font-size: 12px;
               fill: #0F0F0F;
               }
               rect, circle, polygon {fill: #1F1F1F; stroke: #1F1F1F;}
               rect.terminal         {fill: #CCCCCC; stroke: #1F1F1F;}
               rect.nonterminal      {fill: #E3E3E3; stroke: #1F1F1F;}
               rect.text             {fill: none; stroke: none;}    
               polygon.regexp        {fill: #EFEFEF; stroke: #1F1F1F;}
               
            </style>
         </defs>
         <polygon points="9 17 1 13 1 21"/>
         <polygon points="17 17 9 13 9 21"/>
         <rect x="31" y="3" width="158" height="32" rx="10"/>
         <rect x="29" y="1" width="158" height="32" class="terminal" rx="10"/>
         <text class="terminal" x="39" y="21">SysTextScreenRead(</text>
<!--     <a xmlns:xlink="http://www.w3.org/1999/xlink" xlink:href="#row" xlink:title="row"> -->
            <rect x="209" y="3" width="42" height="32"/>
            <rect x="207" y="1" width="42" height="32" class="nonterminal"/>
            <text class="nonterminal" x="217" y="21">row</text>
<!--     </a> -->
         <rect x="271" y="3" width="24" height="32" rx="10"/>
         <rect x="269" y="1" width="24" height="32" class="terminal" rx="10"/>
         <text class="terminal" x="279" y="21">,</text>
<!--     <a xmlns:xlink="http://www.w3.org/1999/xlink" xlink:href="#column" xlink:title="column"> -->
            <rect x="315" y="3" width="62" height="32"/>
            <rect x="313" y="1" width="62" height="32" class="nonterminal"/>
            <text class="nonterminal" x="323" y="21">column</text>
<!--     </a> -->
         <rect x="417" y="35" width="24" height="32" rx="10"/>
         <rect x="415" y="33" width="24" height="32" class="terminal" rx="10"/>
         <text class="terminal" x="425" y="53">,</text>
<!--     <a xmlns:xlink="http://www.w3.org/1999/xlink" xlink:href="#len" xlink:title="len"> -->
            <rect x="461" y="35" width="36" height="32"/>
            <rect x="459" y="33" width="36" height="32" class="nonterminal"/>
            <text class="nonterminal" x="469" y="53">len</text>
<!--     </a> -->
         <rect x="537" y="3" width="26" height="32" rx="10"/>
         <rect x="535" y="1" width="26" height="32" class="terminal" rx="10"/>
         <text class="terminal" x="545" y="21">)</text>
         <svg:path xmlns:svg="http://www.w3.org/2000/svg" class="line" d="m17 17 h2 m0 0 h10 m158 0 h10 m0 0 h10 m42 0 h10 m0 0 h10 m24 0 h10 m0 0 h10 m62 0 h10 m20 0 h10 m0 0 h90 m-120 0 h20 m100 0 h20 m-140 0 q10 0 10 10 m120 0 q0 -10 10 -10 m-130 10 v12 m120 0 v-12 m-120 12 q0 10 10 10 m100 0 q10 0 10 -10 m-110 10 h10 m24 0 h10 m0 0 h10 m36 0 h10 m20 -32 h10 m26 0 h10 m3 0 h-3"/>
         <polygon points="581 17 589 13 589 21"/>
         <polygon points="581 17 573 13 573 21"/>
      </svg>
