      <svg xmlns="http://www.w3.org/2000/svg" width="500" height="52">
         <defs>
            <style type="text/css">
               @namespace "http://www.w3.org/2000/svg";
               .line                 {fill: none; stroke: #1F1F1F;}
               .bold-line            {stroke: #0A0A0A; shape-rendering: crispEdges; stroke-width:
               2; }
               .thin-line            {stroke: #0F0F0F; shape-rendering: crispEdges}
               .filled               {fill: #1F1F1F; stroke: none;}
               text.terminal         {font-family: Verdana, Sans-serif;
               font-size: 12px;
               fill: #0A0A0A;
               font-weight: bold;
               }
               text.nonterminal      {font-family: Verdana, Sans-serif;
               font-size: 12px;
               fill: #0D0D0D;
               }
               text.regexp           {font-family: Verdana, Sans-serif;
               font-size: 12px;
               fill: #0F0F0F;
               }
               rect, circle, polygon {fill: #1F1F1F; stroke: #1F1F1F;}
               rect.terminal         {fill: #CCCCCC; stroke: #1F1F1F;}
               rect.nonterminal      {fill: #E3E3E3; stroke: #1F1F1F;}
               rect.text             {fill: none; stroke: none;}    
               polygon.regexp        {fill: #EFEFEF; stroke: #1F1F1F;}
               
            </style>
         </defs>
         <polygon points="9 17 1 13 1 21"/>
         <polygon points="17 17 9 13 9 21"/>
         <rect x="31" y="3" width="148" height="32" rx="10"/>
         <rect x="29" y="1" width="148" height="32" class="terminal" rx="10"/>
         <text class="terminal" x="39" y="21">SysTempFileName(</text>
         <a xmlns:xlink="http://www.w3.org/1999/xlink" xlink:href="#template" xlink:title="template">
            <rect x="199" y="3" width="76" height="32"/>
            <rect x="197" y="1" width="76" height="32" class="nonterminal"/>
            <text class="nonterminal" x="207" y="21">template</text>
         </a>
         <rect x="315" y="3" width="24" height="32" rx="10"/>
         <rect x="313" y="1" width="24" height="32" class="terminal" rx="10"/>
         <text class="terminal" x="323" y="21">,</text>
         <a xmlns:xlink="http://www.w3.org/1999/xlink" xlink:href="#filter" xlink:title="filter">
            <rect x="359" y="3" width="48" height="32"/>
            <rect x="357" y="1" width="48" height="32" class="nonterminal"/>
            <text class="nonterminal" x="367" y="21">filter</text>
         </a>
         <rect x="447" y="3" width="26" height="32" rx="10"/>
         <rect x="445" y="1" width="26" height="32" class="terminal" rx="10"/>
         <text class="terminal" x="455" y="21">)</text>
         <svg:path xmlns:svg="http://www.w3.org/2000/svg" class="line" d="m17 17 h2 m0 0 h10 m148 0 h10 m0 0 h10 m76 0 h10 m20 0 h10 m24 0 h10 m0 0 h10 m48 0 h10 m-132 0 h20 m112 0 h20 m-152 0 q10 0 10 10 m132 0 q0 -10 10 -10 m-142 10 v14 m132 0 v-14 m-132 14 q0 10 10 10 m112 0 q10 0 10 -10 m-122 10 h10 m0 0 h102 m20 -34 h10 m26 0 h10 m3 0 h-3"/>
         <polygon points="491 17 499 13 499 21"/>
         <polygon points="491 17 483 13 483 21"/>
      </svg>
