      <svg xmlns="http://www.w3.org/2000/svg" width="752" height="36">
         <defs>
            <style type="text/css">
               @namespace "http://www.w3.org/2000/svg";
               .line                 {fill: none; stroke: #1F1F1F;}
               .bold-line            {stroke: #0A0A0A; shape-rendering: crispEdges; stroke-width:
               2; }
               .thin-line            {stroke: #0F0F0F; shape-rendering: crispEdges}
               .filled               {fill: #1F1F1F; stroke: none;}
               text.terminal         {font-family: Verdana, Sans-serif;
               font-size: 12px;
               fill: #0A0A0A;
               font-weight: bold;
               }
               text.nonterminal      {font-family: Verdana, Sans-serif; font-style: italic;
               font-size: 12px;
               fill: #0D0D0D;
               }
               text.regexp           {font-family: Verdana, Sans-serif;
               font-size: 12px;
               fill: #0F0F0F;
               }
               rect, circle, polygon {fill: #1F1F1F; stroke: #1F1F1F;}
               rect.terminal         {fill: #CCCCCC; stroke: #1F1F1F;}
               rect.nonterminal      {fill: #E3E3E3; stroke: #1F1F1F;}
               rect.text             {fill: none; stroke: none;}    
               polygon.regexp        {fill: #EFEFEF; stroke: #1F1F1F;}
               
            </style>
         </defs>
         <polygon points="9 17 1 13 1 21"/>
         <polygon points="17 17 9 13 9 21"/>
         <rect x="31" y="3" width="120" height="32" rx="10"/>
         <rect x="29" y="1" width="120" height="32" class="terminal" rx="10"/>
         <text class="terminal" x="39" y="21">SysToUnicode(</text>
<!--     <a xmlns:xlink="http://www.w3.org/1999/xlink" xlink:href="#string" xlink:title="string"> -->
            <rect x="171" y="3" width="56" height="32"/>
            <rect x="169" y="1" width="56" height="32" class="nonterminal"/>
            <text class="nonterminal" x="179" y="21">string</text>
<!--     </a> -->
         <rect x="247" y="3" width="24" height="32" rx="10"/>
         <rect x="245" y="1" width="24" height="32" class="terminal" rx="10"/>
         <text class="terminal" x="255" y="21">,</text>
<!--     <a xmlns:xlink="http://www.w3.org/1999/xlink" xlink:href="#codepage" xlink:title="codepage"> -->
            <rect x="291" y="3" width="82" height="32"/>
            <rect x="289" y="1" width="82" height="32" class="nonterminal"/>
            <text class="nonterminal" x="299" y="21">codepage</text>
<!--     </a> -->
         <rect x="393" y="3" width="24" height="32" rx="10"/>
         <rect x="391" y="1" width="24" height="32" class="terminal" rx="10"/>
         <text class="terminal" x="401" y="21">,</text>
<!--     <a xmlns:xlink="http://www.w3.org/1999/xlink" xlink:href="#translateflags" xlink:title="translateflags"> -->
            <rect x="437" y="3" width="106" height="32"/>
            <rect x="435" y="1" width="106" height="32" class="nonterminal"/>
            <text class="nonterminal" x="445" y="21">translateflags</text>
<!--     </a> -->
         <rect x="563" y="3" width="24" height="32" rx="10"/>
         <rect x="561" y="1" width="24" height="32" class="terminal" rx="10"/>
         <text class="terminal" x="571" y="21">,</text>
<!--     <a xmlns:xlink="http://www.w3.org/1999/xlink" xlink:href="#outstem" xlink:title="outstem"> -->
            <rect x="607" y="3" width="72" height="32"/>
            <rect x="605" y="1" width="72" height="32" class="nonterminal"/>
            <text class="nonterminal" x="615" y="21">outstem</text>
<!--     </a> -->
         <rect x="699" y="3" width="26" height="32" rx="10"/>
         <rect x="697" y="1" width="26" height="32" class="terminal" rx="10"/>
         <text class="terminal" x="707" y="21">)</text>
         <svg:path xmlns:svg="http://www.w3.org/2000/svg" class="line" d="m17 17 h2 m0 0 h10 m120 0 h10 m0 0 h10 m56 0 h10 m0 0 h10 m24 0 h10 m0 0 h10 m82 0 h10 m0 0 h10 m24 0 h10 m0 0 h10 m106 0 h10 m0 0 h10 m24 0 h10 m0 0 h10 m72 0 h10 m0 0 h10 m26 0 h10 m3 0 h-3"/>
         <polygon points="743 17 751 13 751 21"/>
         <polygon points="743 17 735 13 735 21"/>
      </svg>
