      <svg xmlns="http://www.w3.org/2000/svg" width="738" height="254">
         <defs>
            <style type="text/css">
               @namespace "http://www.w3.org/2000/svg";
               .line                 {fill: none; stroke: #1F1F1F;}
               .bold-line            {stroke: #0A0A0A; shape-rendering: crispEdges; stroke-width:
               2; }
               .thin-line            {stroke: #0F0F0F; shape-rendering: crispEdges}
               .filled               {fill: #1F1F1F; stroke: none;}
               text.terminal         {font-family: Verdana, Sans-serif;
               font-size: 12px;
               fill: #0A0A0A;
               font-weight: bold;
               }
               text.nonterminal      {font-family: Verdana, Sans-serif; font-style: italic;
               font-size: 12px;
               fill: #0D0D0D;
               }
               text.regexp           {font-family: Verdana, Sans-serif;
               font-size: 12px;
               fill: #0F0F0F;
               }
               rect, circle, polygon {fill: #1F1F1F; stroke: #1F1F1F;}
               rect.terminal         {fill: #CCCCCC; stroke: #1F1F1F;}
               rect.nonterminal      {fill: #E3E3E3; stroke: #1F1F1F;}
               rect.text             {fill: none; stroke: none;}    
               polygon.regexp        {fill: #EFEFEF; stroke: #1F1F1F;}
               
            </style>
         </defs>
         <polygon points="11 17 3 13 3 21"/>
         <polygon points="19 17 11 13 11 21"/>
         <rect x="33" y="3" width="152" height="32" rx="10"/>
         <rect x="31" y="1" width="152" height="32" class="terminal" rx="10"/>
         <text class="terminal" x="41" y="21">SysTextScreenSize(</text>
         <rect x="65" y="101" width="102" height="32" rx="10"/>
         <rect x="63" y="99" width="102" height="32" class="terminal" rx="10"/>
         <text class="terminal" x="73" y="119">BUFFERSIZE</text>
         <rect x="227" y="101" width="24" height="32" rx="10"/>
         <rect x="225" y="99" width="24" height="32" class="terminal" rx="10"/>
         <text class="terminal" x="235" y="119">,</text>
<!--     <a xmlns:xlink="http://www.w3.org/1999/xlink" xlink:href="#rows" xlink:title="rows"> -->
            <rect x="271" y="101" width="50" height="32"/>
            <rect x="269" y="99" width="50" height="32" class="nonterminal"/>
            <text class="nonterminal" x="279" y="119">rows</text>
<!--     </a> -->
         <rect x="341" y="101" width="24" height="32" rx="10"/>
         <rect x="339" y="99" width="24" height="32" class="terminal" rx="10"/>
         <text class="terminal" x="349" y="119">,</text>
<!--     <a xmlns:xlink="http://www.w3.org/1999/xlink" xlink:href="#columns" xlink:title="columns"> -->
            <rect x="385" y="101" width="70" height="32"/>
            <rect x="383" y="99" width="70" height="32" class="nonterminal"/>
            <text class="nonterminal" x="393" y="119">columns</text>
<!--     </a> -->
         <rect x="45" y="145" width="116" height="32" rx="10"/>
         <rect x="43" y="143" width="116" height="32" class="terminal" rx="10"/>
         <text class="terminal" x="53" y="163">WINDOWRECT</text>
         <rect x="201" y="177" width="24" height="32" rx="10"/>
         <rect x="199" y="175" width="24" height="32" class="terminal" rx="10"/>
         <text class="terminal" x="209" y="195">,</text>
<!--     <a xmlns:xlink="http://www.w3.org/1999/xlink" xlink:href="#top" xlink:title="top"> -->
            <rect x="245" y="177" width="40" height="32"/>
            <rect x="243" y="175" width="40" height="32" class="nonterminal"/>
            <text class="nonterminal" x="253" y="195">top</text>
<!--     </a> -->
         <rect x="305" y="177" width="24" height="32" rx="10"/>
         <rect x="303" y="175" width="24" height="32" class="terminal" rx="10"/>
         <text class="terminal" x="313" y="195">,</text>
<!--     <a xmlns:xlink="http://www.w3.org/1999/xlink" xlink:href="#left" xlink:title="left"> -->
            <rect x="349" y="177" width="38" height="32"/>
            <rect x="347" y="175" width="38" height="32" class="nonterminal"/>
            <text class="nonterminal" x="357" y="195">left</text>
<!--     </a> -->
         <rect x="407" y="177" width="24" height="32" rx="10"/>
         <rect x="405" y="175" width="24" height="32" class="terminal" rx="10"/>
         <text class="terminal" x="415" y="195">,</text>
<!--     <a xmlns:xlink="http://www.w3.org/1999/xlink" xlink:href="#bottom" xlink:title="bottom"> -->
            <rect x="451" y="177" width="64" height="32"/>
            <rect x="449" y="175" width="64" height="32" class="nonterminal"/>
            <text class="nonterminal" x="459" y="195">bottom</text>
<!--     </a> -->
         <rect x="535" y="177" width="24" height="32" rx="10"/>
         <rect x="533" y="175" width="24" height="32" class="terminal" rx="10"/>
         <text class="terminal" x="543" y="195">,</text>
<!--     <a xmlns:xlink="http://www.w3.org/1999/xlink" xlink:href="#right" xlink:title="right"> -->
            <rect x="579" y="177" width="46" height="32"/>
            <rect x="577" y="175" width="46" height="32" class="nonterminal"/>
            <text class="nonterminal" x="587" y="195">right</text>
<!--     </a> -->
         <rect x="45" y="221" width="142" height="32" rx="10"/>
         <rect x="43" y="219" width="142" height="32" class="terminal" rx="10"/>
         <text class="terminal" x="53" y="239">MAXWINDOWSIZE</text>
         <rect x="685" y="69" width="26" height="32" rx="10"/>
         <rect x="683" y="67" width="26" height="32" class="terminal" rx="10"/>
         <text class="terminal" x="693" y="87">)</text>
         <svg:path xmlns:svg="http://www.w3.org/2000/svg" class="line" d="m19 17 h2 m0 0 h10 m152 0 h10 m2 0 l2 0 m2 0 l2 0 m2 0 l2 0 m-204 66 l2 0 m2 0 l2 0 m2 0 l2 0 m42 0 h10 m0 0 h112 m-142 0 h20 m122 0 h20 m-162 0 q10 0 10 10 m142 0 q0 -10 10 -10 m-152 10 v12 m142 0 v-12 m-142 12 q0 10 10 10 m122 0 q10 0 10 -10 m-132 10 h10 m102 0 h10 m40 -32 h10 m0 0 h238 m-268 0 h20 m248 0 h20 m-288 0 q10 0 10 10 m268 0 q0 -10 10 -10 m-278 10 v12 m268 0 v-12 m-268 12 q0 10 10 10 m248 0 q10 0 10 -10 m-258 10 h10 m24 0 h10 m0 0 h10 m50 0 h10 m0 0 h10 m24 0 h10 m0 0 h10 m70 0 h10 m20 -32 h170 m-640 0 h20 m620 0 h20 m-660 0 q10 0 10 10 m640 0 q0 -10 10 -10 m-650 10 v56 m640 0 v-56 m-640 56 q0 10 10 10 m620 0 q10 0 10 -10 m-630 10 h10 m116 0 h10 m20 0 h10 m0 0 h434 m-464 0 h20 m444 0 h20 m-484 0 q10 0 10 10 m464 0 q0 -10 10 -10 m-474 10 v12 m464 0 v-12 m-464 12 q0 10 10 10 m444 0 q10 0 10 -10 m-454 10 h10 m24 0 h10 m0 0 h10 m40 0 h10 m0 0 h10 m24 0 h10 m0 0 h10 m38 0 h10 m0 0 h10 m24 0 h10 m0 0 h10 m64 0 h10 m0 0 h10 m24 0 h10 m0 0 h10 m46 0 h10 m-610 -42 v20 m640 0 v-20 m-640 20 v56 m640 0 v-56 m-640 56 q0 10 10 10 m620 0 q10 0 10 -10 m-630 10 h10 m142 0 h10 m0 0 h458 m20 -152 h10 m26 0 h10 m3 0 h-3"/>
         <polygon points="729 83 737 79 737 87"/>
         <polygon points="729 83 721 79 721 87"/>
      </svg>
