      <svg xmlns="http://www.w3.org/2000/svg" width="384" height="52">
         <defs>
            <style type="text/css">
               @namespace "http://www.w3.org/2000/svg";
               .line                 {fill: none; stroke: #1F1F1F;}
               .bold-line            {stroke: #0A0A0A; shape-rendering: crispEdges; stroke-width:
               2; }
               .thin-line            {stroke: #0F0F0F; shape-rendering: crispEdges}
               .filled               {fill: #1F1F1F; stroke: none;}
               text.terminal         {font-family: Verdana, Sans-serif;
               font-size: 12px;
               fill: #0A0A0A;
               font-weight: bold;
               }
               text.nonterminal      {font-family: Verdana, Sans-serif;
               font-size: 12px;
               fill: #0D0D0D;
               }
               text.regexp           {font-family: Verdana, Sans-serif;
               font-size: 12px;
               fill: #0F0F0F;
               }
               rect, circle, polygon {fill: #1F1F1F; stroke: #1F1F1F;}
               rect.terminal         {fill: #CCCCCC; stroke: #1F1F1F;}
               rect.nonterminal      {fill: #E3E3E3; stroke: #1F1F1F;}
               rect.text             {fill: none; stroke: none;}    
               polygon.regexp        {fill: #EFEFEF; stroke: #1F1F1F;}
               
            </style>
         </defs>
         <polygon points="9 17 1 13 1 21"/>
         <polygon points="17 17 9 13 9 21"/>
         <rect x="31" y="3" width="136" height="32" rx="10"/>
         <rect x="29" y="1" width="136" height="32" class="terminal" rx="10"/>
         <text class="terminal" x="39" y="21">SysVolumnLabel(</text>
         <a xmlns:xlink="http://www.w3.org/1999/xlink" xlink:href="#driveletter" xlink:title="driveletter">
            <rect x="207" y="3" width="84" height="32"/>
            <rect x="205" y="1" width="84" height="32" class="nonterminal"/>
            <text class="nonterminal" x="215" y="21">driveletter</text>
         </a>
         <rect x="331" y="3" width="26" height="32" rx="10"/>
         <rect x="329" y="1" width="26" height="32" class="terminal" rx="10"/>
         <text class="terminal" x="339" y="21">)</text>
         <svg:path xmlns:svg="http://www.w3.org/2000/svg" class="line" d="m17 17 h2 m0 0 h10 m136 0 h10 m20 0 h10 m84 0 h10 m-124 0 h20 m104 0 h20 m-144 0 q10 0 10 10 m124 0 q0 -10 10 -10 m-134 10 v14 m124 0 v-14 m-124 14 q0 10 10 10 m104 0 q10 0 10 -10 m-114 10 h10 m0 0 h94 m20 -34 h10 m26 0 h10 m3 0 h-3"/>
         <polygon points="375 17 383 13 383 21"/>
         <polygon points="375 17 367 13 367 21"/>
      </svg>
