      <svg xmlns="http://www.w3.org/2000/svg" width="506" height="68">
         <defs>
            <style type="text/css">
               @namespace "http://www.w3.org/2000/svg";
               .line                 {fill: none; stroke: #1F1F1F;}
               .bold-line            {stroke: #0A0A0A; shape-rendering: crispEdges; stroke-width:
               2; }
               .thin-line            {stroke: #0F0F0F; shape-rendering: crispEdges}
               .filled               {fill: #1F1F1F; stroke: none;}
               text.terminal         {font-family: Verdana, Sans-serif;
               font-size: 12px;
               fill: #0A0A0A;
               font-weight: bold;
               }
               text.nonterminal      {font-family: Verdana, Sans-serif; font-style: italic;
               font-size: 12px;
               fill: #0D0D0D;
               }
               text.regexp           {font-family: Verdana, Sans-serif;
               font-size: 12px;
               fill: #0F0F0F;
               }
               rect, circle, polygon {fill: #1F1F1F; stroke: #1F1F1F;}
               rect.terminal         {fill: #CCCCCC; stroke: #1F1F1F;}
               rect.nonterminal      {fill: #E3E3E3; stroke: #1F1F1F;}
               rect.text             {fill: none; stroke: none;}    
               polygon.regexp        {fill: #EFEFEF; stroke: #1F1F1F;}
               
            </style>
         </defs>
         <polygon points="9 17 1 13 1 21"/>
         <polygon points="17 17 9 13 9 21"/>
         <rect x="31" y="3" width="156" height="32" rx="10"/>
         <rect x="29" y="1" width="156" height="32" class="terminal" rx="10"/>
         <text class="terminal" x="39" y="21">SysWaitNamedPipe(</text>
<!--     <a xmlns:xlink="http://www.w3.org/1999/xlink" xlink:href="#name" xlink:title="name"> -->
            <rect x="207" y="3" width="54" height="32"/>
            <rect x="205" y="1" width="54" height="32" class="nonterminal"/>
            <text class="nonterminal" x="215" y="21">name</text>
<!--     </a> -->
         <rect x="301" y="35" width="24" height="32" rx="10"/>
         <rect x="299" y="33" width="24" height="32" class="terminal" rx="10"/>
         <text class="terminal" x="309" y="53">,</text>
<!--     <a xmlns:xlink="http://www.w3.org/1999/xlink" xlink:href="#timeout" xlink:title="timeout"> -->
            <rect x="345" y="35" width="68" height="32"/>
            <rect x="343" y="33" width="68" height="32" class="nonterminal"/>
            <text class="nonterminal" x="353" y="53">timeout</text>
<!--     </a> -->
         <rect x="453" y="3" width="26" height="32" rx="10"/>
         <rect x="451" y="1" width="26" height="32" class="terminal" rx="10"/>
         <text class="terminal" x="461" y="21">)</text>
         <svg:path xmlns:svg="http://www.w3.org/2000/svg" class="line" d="m17 17 h2 m0 0 h10 m156 0 h10 m0 0 h10 m54 0 h10 m20 0 h10 m0 0 h122 m-152 0 h20 m132 0 h20 m-172 0 q10 0 10 10 m152 0 q0 -10 10 -10 m-162 10 v12 m152 0 v-12 m-152 12 q0 10 10 10 m132 0 q10 0 10 -10 m-142 10 h10 m24 0 h10 m0 0 h10 m68 0 h10 m20 -32 h10 m26 0 h10 m3 0 h-3"/>
         <polygon points="497 17 505 13 505 21"/>
         <polygon points="497 17 489 13 489 21"/>
      </svg>
