      <svg xmlns="http://www.w3.org/2000/svg" width="498" height="68">
         <defs>
            <style type="text/css">
               @namespace "http://www.w3.org/2000/svg";
               .line                 {fill: none; stroke: #1F1F1F;}
               .bold-line            {stroke: #0A0A0A; shape-rendering: crispEdges; stroke-width:
               2; }
               .thin-line            {stroke: #0F0F0F; shape-rendering: crispEdges}
               .filled               {fill: #1F1F1F; stroke: none;}
               text.terminal         {font-family: Verdana, Sans-serif;
               font-size: 12px;
               fill: #0A0A0A;
               font-weight: bold;
               }
               text.nonterminal      {font-family: Verdana, Sans-serif; font-style: italic;
               font-size: 12px;
               fill: #0D0D0D;
               }
               text.regexp           {font-family: Verdana, Sans-serif;
               font-size: 12px;
               fill: #0F0F0F;
               }
               rect, circle, polygon {fill: #1F1F1F; stroke: #1F1F1F;}
               rect.terminal         {fill: #CCCCCC; stroke: #1F1F1F;}
               rect.nonterminal      {fill: #E3E3E3; stroke: #1F1F1F;}
               rect.text             {fill: none; stroke: none;}    
               polygon.regexp        {fill: #EFEFEF; stroke: #1F1F1F;}
               
            </style>
         </defs>
         <polygon points="9 17 1 13 1 21"/>
         <polygon points="17 17 9 13 9 21"/>
         <rect x="31" y="3" width="146" height="32" rx="10"/>
         <rect x="29" y="1" width="146" height="32" class="terminal" rx="10"/>
         <text class="terminal" x="39" y="21">SysWaitEventSem(</text>
<!--     <a xmlns:xlink="http://www.w3.org/1999/xlink" xlink:href="#handle" xlink:title="handle"> -->
            <rect x="197" y="3" width="58" height="32"/>
            <rect x="195" y="1" width="58" height="32" class="nonterminal"/>
            <text class="nonterminal" x="205" y="21">handle</text>
<!--     </a> -->
         <rect x="295" y="35" width="24" height="32" rx="10"/>
         <rect x="293" y="33" width="24" height="32" class="terminal" rx="10"/>
         <text class="terminal" x="303" y="53">,</text>
<!--     <a xmlns:xlink="http://www.w3.org/1999/xlink" xlink:href="#timeout" xlink:title="timeout"> -->
            <rect x="339" y="35" width="66" height="32"/>
            <rect x="337" y="33" width="66" height="32" class="nonterminal"/>
            <text class="nonterminal" x="347" y="53">timeout</text>
<!--     </a> -->
         <rect x="445" y="3" width="26" height="32" rx="10"/>
         <rect x="443" y="1" width="26" height="32" class="terminal" rx="10"/>
         <text class="terminal" x="453" y="21">)</text>
         <svg:path xmlns:svg="http://www.w3.org/2000/svg" class="line" d="m17 17 h2 m0 0 h10 m146 0 h10 m0 0 h10 m58 0 h10 m20 0 h10 m0 0 h120 m-150 0 h20 m130 0 h20 m-170 0 q10 0 10 10 m150 0 q0 -10 10 -10 m-160 10 v12 m150 0 v-12 m-150 12 q0 10 10 10 m130 0 q10 0 10 -10 m-140 10 h10 m24 0 h10 m0 0 h10 m66 0 h10 m20 -32 h10 m26 0 h10 m3 0 h-3"/>
         <polygon points="489 17 497 13 497 21"/>
         <polygon points="489 17 481 13 481 21"/>
      </svg>
