      <svg xmlns="http://www.w3.org/2000/svg" width="448" height="68">
         <defs>
            <style type="text/css">
               @namespace "http://www.w3.org/2000/svg";
               .line                 {fill: none; stroke: #1F1F1F;}
               .bold-line            {stroke: #0A0A0A; shape-rendering: crispEdges; stroke-width:
               2; }
               .thin-line            {stroke: #0F0F0F; shape-rendering: crispEdges}
               .filled               {fill: #1F1F1F; stroke: none;}
               text.terminal         {font-family: Verdana, Sans-serif;
               font-size: 12px;
               fill: #0A0A0A;
               font-weight: bold;
               }
               text.nonterminal      {font-family: Verdana, Sans-serif; font-style: italic;
               font-size: 12px;
               fill: #0D0D0D;
               }
               text.regexp           {font-family: Verdana, Sans-serif;
               font-size: 12px;
               fill: #0F0F0F;
               }
               rect, circle, polygon {fill: #1F1F1F; stroke: #1F1F1F;}
               rect.terminal         {fill: #CCCCCC; stroke: #1F1F1F;}
               rect.nonterminal      {fill: #E3E3E3; stroke: #1F1F1F;}
               rect.text             {fill: none; stroke: none;}    
               polygon.regexp        {fill: #EFEFEF; stroke: #1F1F1F;}
               
            </style>
         </defs>
         <polygon points="9 17 1 13 1 21"/>
         <polygon points="17 17 9 13 9 21"/>
         <rect x="31" y="3" width="58" height="32" rx="10"/>
         <rect x="29" y="1" width="58" height="32" class="terminal" rx="10"/>
         <text class="terminal" x="39" y="21">open(</text>
<!--     <a xmlns:xlink="http://www.w3.org/1999/xlink" xlink:href="#server" xlink:title="server"> -->
            <rect x="129" y="35" width="60" height="32"/>
            <rect x="127" y="33" width="60" height="32" class="nonterminal"/>
            <text class="nonterminal" x="137" y="53">server</text>
<!--     </a> -->
         <rect x="229" y="3" width="24" height="32" rx="10"/>
         <rect x="227" y="1" width="24" height="32" class="terminal" rx="10"/>
         <text class="terminal" x="237" y="21">,</text>
<!--     <a xmlns:xlink="http://www.w3.org/1999/xlink" xlink:href="#source" xlink:title="source"> -->
            <rect x="293" y="35" width="62" height="32"/>
            <rect x="291" y="33" width="62" height="32" class="nonterminal"/>
            <text class="nonterminal" x="301" y="53">source</text>
<!--     </a> -->
         <rect x="395" y="3" width="26" height="32" rx="10"/>
         <rect x="393" y="1" width="26" height="32" class="terminal" rx="10"/>
         <text class="terminal" x="403" y="21">)</text>
         <svg:path xmlns:svg="http://www.w3.org/2000/svg" class="line" d="m17 17 h2 m0 0 h10 m58 0 h10 m20 0 h10 m0 0 h70 m-100 0 h20 m80 0 h20 m-120 0 q10 0 10 10 m100 0 q0 -10 10 -10 m-110 10 v12 m100 0 v-12 m-100 12 q0 10 10 10 m80 0 q10 0 10 -10 m-90 10 h10 m60 0 h10 m20 -32 h10 m24 0 h10 m20 0 h10 m0 0 h72 m-102 0 h20 m82 0 h20 m-122 0 q10 0 10 10 m102 0 q0 -10 10 -10 m-112 10 v12 m102 0 v-12 m-102 12 q0 10 10 10 m82 0 q10 0 10 -10 m-92 10 h10 m62 0 h10 m20 -32 h10 m26 0 h10 m3 0 h-3"/>
         <polygon points="439 17 447 13 447 21"/>
         <polygon points="439 17 431 13 431 21"/>
      </svg>
