<?xml version="1.0" encoding="UTF-8"?>
<svg xmlns="http://www.w3.org/2000/svg" width="625" height="69">
   <defs>
            <style type="text/css">
               @namespace "http://www.w3.org/2000/svg";
               .line                 {fill: none; stroke: #1F1F1F;}
               .bold-line            {stroke: #0A0A0A; shape-rendering: crispEdges; stroke-width:
               2; }
               .thin-line            {stroke: #0F0F0F; shape-rendering: crispEdges}
               .filled               {fill: #1F1F1F; stroke: none;}
               text.terminal         {font-family: Verdana, Sans-serif;
               font-size: 12px;
               fill: #0A0A0A;
               font-weight: bold;
               }
               text.nonterminal      {font-family: Verdana, Sans-serif; font-style: italic;
               font-size: 12px;
               fill: #0D0D0D;
               }
               text.regexp           {font-family: Verdana, Sans-serif;
               font-size: 12px;
               fill: #0F0F0F;
               }
               rect, circle, polygon {fill: #1F1F1F; stroke: #1F1F1F;}
               rect.terminal         {fill: #CCCCCC; stroke: #1F1F1F;}
               rect.nonterminal      {fill: #E3E3E3; stroke: #1F1F1F;}
               rect.text             {fill: none; stroke: none;}
               polygon.regexp        {fill: #EFEFEF; stroke: #1F1F1F;}

            </style>
   </defs>
   <polygon points="9 17 1 13 1 21"/>
   <polygon points="17 17 9 13 9 21"/>
   <rect x="31" y="3" width="58" height="32" rx="10"/>
   <rect x="29"
          y="1"
          width="58"
          height="32"
          class="terminal"
          rx="10"/>
   <text class="terminal" x="39" y="21">copy(</text>
   <a xmlns:xlink="http://www.w3.org/1999/xlink"
       xlink:href="#text"
       xlink:title="text">
      <rect x="109" y="3" width="44" height="32"/>
      <rect x="107" y="1" width="44" height="32" class="nonterminal"/>
      <text class="nonterminal" x="117" y="21">text</text>
   </a>
   <rect x="173" y="3" width="24" height="32" rx="10"/>
   <rect x="171"
          y="1"
          width="24"
          height="32"
          class="terminal"
          rx="10"/>
   <text class="terminal" x="181" y="21">,</text>
   <a xmlns:xlink="http://www.w3.org/1999/xlink"
       xlink:href="#codepage"
       xlink:title="codepage">
      <rect x="237" y="35" width="82" height="32"/>
      <rect x="235" y="33" width="82" height="32" class="nonterminal"/>
      <text class="nonterminal" x="245" y="53">codepage</text>
   </a>
   <rect x="359" y="3" width="24" height="32" rx="10"/>
   <rect x="357"
          y="1"
          width="24"
          height="32"
          class="terminal"
          rx="10"/>
   <text class="terminal" x="367" y="21">,</text>
   <a xmlns:xlink="http://www.w3.org/1999/xlink"
       xlink:href="#translateflags"
       xlink:title="translateflags">
      <rect x="423" y="35" width="108" height="32"/>
      <rect x="421" y="33" width="108" height="32" class="nonterminal"/>
      <text class="nonterminal" x="431" y="53">translateflags</text>
   </a>
   <rect x="571" y="3" width="26" height="32" rx="10"/>
   <rect x="569"
          y="1"
          width="26"
          height="32"
          class="terminal"
          rx="10"/>
   <text class="terminal" x="579" y="21">)</text>
   <path class="line"
          d="m17 17 h2 m0 0 h10 m58 0 h10 m0 0 h10 m44 0 h10 m0 0 h10 m24 0 h10 m20 0 h10 m0 0 h92 m-122 0 h20 m102 0 h20 m-142 0 q10 0 10 10 m122 0 q0 -10 10 -10 m-132 10 v12 m122 0 v-12 m-122 12 q0 10 10 10 m102 0 q10 0 10 -10 m-112 10 h10 m82 0 h10 m20 -32 h10 m24 0 h10 m20 0 h10 m0 0 h118 m-148 0 h20 m128 0 h20 m-168 0 q10 0 10 10 m148 0 q0 -10 10 -10 m-158 10 v12 m148 0 v-12 m-148 12 q0 10 10 10 m128 0 q10 0 10 -10 m-138 10 h10 m108 0 h10 m20 -32 h10 m26 0 h10 m3 0 h-3"/>
   <polygon points="615 17 623 13 623 21"/>
   <polygon points="615 17 607 13 607 21"/>
</svg>
