      <svg xmlns="http://www.w3.org/2000/svg" width="580" height="36">
         <defs>
            <style type="text/css">
               @namespace "http://www.w3.org/2000/svg";
               .line                 {fill: none; stroke: #1F1F1F;}
               .bold-line            {stroke: #0A0A0A; shape-rendering: crispEdges; stroke-width:
               2; }
               .thin-line            {stroke: #0F0F0F; shape-rendering: crispEdges}
               .filled               {fill: #1F1F1F; stroke: none;}
               text.terminal         {font-family: Verdana, Sans-serif;
               font-size: 12px;
               fill: #0A0A0A;
               font-weight: bold;
               }
               text.nonterminal      {font-family: Verdana, Sans-serif;
               font-size: 12px;
               fill: #0D0D0D;
               }
               text.regexp           {font-family: Verdana, Sans-serif;
               font-size: 12px;
               fill: #0F0F0F;
               }
               rect, circle, polygon {fill: #1F1F1F; stroke: #1F1F1F;}
               rect.terminal         {fill: #CCCCCC; stroke: #1F1F1F;}
               rect.nonterminal      {fill: #E3E3E3; stroke: #1F1F1F;}
               rect.text             {fill: none; stroke: none;}    
               polygon.regexp        {fill: #EFEFEF; stroke: #1F1F1F;}
               
            </style>
         </defs>
         <polygon points="9 17 1 13 1 21"/>
         <polygon points="17 17 9 13 9 21"/>
         <rect x="31" y="3" width="70" height="32" rx="10"/>
         <rect x="29" y="1" width="70" height="32" class="terminal" rx="10"/>
         <text class="terminal" x="39" y="21">.Chtype</text>
         <rect x="121" y="3" width="30" height="32" rx="10"/>
         <rect x="119" y="1" width="30" height="32" class="terminal" rx="10"/>
         <text class="terminal" x="129" y="21">~</text>
         <rect x="171" y="3" width="54" height="32" rx="10"/>
         <rect x="169" y="1" width="54" height="32" class="terminal" rx="10"/>
         <text class="terminal" x="179" y="21">new(</text>
         <a xmlns:xlink="http://www.w3.org/1999/xlink" xlink:href="#attr" xlink:title="attr">
            <rect x="245" y="3" width="42" height="32"/>
            <rect x="243" y="1" width="42" height="32" class="nonterminal"/>
            <text class="nonterminal" x="253" y="21">attr</text>
         </a>
         <rect x="307" y="3" width="24" height="32" rx="10"/>
         <rect x="305" y="1" width="24" height="32" class="terminal" rx="10"/>
         <text class="terminal" x="315" y="21">,</text>
         <a xmlns:xlink="http://www.w3.org/1999/xlink" xlink:href="#num" xlink:title="num">
            <rect x="351" y="3" width="46" height="32"/>
            <rect x="349" y="1" width="46" height="32" class="nonterminal"/>
            <text class="nonterminal" x="359" y="21">num</text>
         </a>
         <rect x="417" y="3" width="24" height="32" rx="10"/>
         <rect x="415" y="1" width="24" height="32" class="terminal" rx="10"/>
         <text class="terminal" x="425" y="21">,</text>
         <a xmlns:xlink="http://www.w3.org/1999/xlink" xlink:href="#char" xlink:title="char">
            <rect x="461" y="3" width="46" height="32"/>
            <rect x="459" y="1" width="46" height="32" class="nonterminal"/>
            <text class="nonterminal" x="469" y="21">char</text>
         </a>
         <rect x="527" y="3" width="26" height="32" rx="10"/>
         <rect x="525" y="1" width="26" height="32" class="terminal" rx="10"/>
         <text class="terminal" x="535" y="21">)</text>
         <svg:path xmlns:svg="http://www.w3.org/2000/svg" class="line" d="m17 17 h2 m0 0 h10 m70 0 h10 m0 0 h10 m30 0 h10 m0 0 h10 m54 0 h10 m0 0 h10 m42 0 h10 m0 0 h10 m24 0 h10 m0 0 h10 m46 0 h10 m0 0 h10 m24 0 h10 m0 0 h10 m46 0 h10 m0 0 h10 m26 0 h10 m3 0 h-3"/>
         <polygon points="571 17 579 13 579 21"/>
         <polygon points="571 17 563 13 563 21"/>
      </svg>
