      <svg xmlns="http://www.w3.org/2000/svg" width="990" height="102">
         <defs>
            <style type="text/css">
               @namespace "http://www.w3.org/2000/svg";
               .line                 {fill: none; stroke: #1F1F1F;}
               .bold-line            {stroke: #0A0A0A; shape-rendering: crispEdges; stroke-width:
               2; }
               .thin-line            {stroke: #0F0F0F; shape-rendering: crispEdges}
               .filled               {fill: #1F1F1F; stroke: none;}
               text.terminal         {font-family: Verdana, Sans-serif;
               font-size: 12px;
               fill: #0A0A0A;
               font-weight: bold;
               }
               text.nonterminal      {font-family: Verdana, Sans-serif;
               font-size: 12px;
               fill: #0D0D0D;
               }
               text.regexp           {font-family: Verdana, Sans-serif;
               font-size: 12px;
               fill: #0F0F0F;
               }
               rect, circle, polygon {fill: #1F1F1F; stroke: #1F1F1F;}
               rect.terminal         {fill: #CCCCCC; stroke: #1F1F1F;}
               rect.nonterminal      {fill: #E3E3E3; stroke: #1F1F1F;}
               rect.text             {fill: none; stroke: none;}    
               polygon.regexp        {fill: #EFEFEF; stroke: #1F1F1F;}
               
            </style>
         </defs>
         <polygon points="9 17 1 13 1 21"/>
         <polygon points="17 17 9 13 9 21"/>
         <a xmlns:xlink="http://www.w3.org/1999/xlink" xlink:href="#win" xlink:title="win">
            <rect x="31" y="3" width="42" height="32"/>
            <rect x="29" y="1" width="42" height="32" class="nonterminal"/>
            <text class="nonterminal" x="39" y="21">win</text>
         </a>
         <rect x="93" y="3" width="30" height="32" rx="10"/>
         <rect x="91" y="1" width="30" height="32" class="terminal" rx="10"/>
         <text class="terminal" x="101" y="21">~</text>
         <rect x="143" y="3" width="82" height="32" rx="10"/>
         <rect x="141" y="1" width="82" height="32" class="terminal" rx="10"/>
         <text class="terminal" x="151" y="21">copywin(</text>
         <a xmlns:xlink="http://www.w3.org/1999/xlink" xlink:href="#swin" xlink:title="swin">
            <rect x="245" y="3" width="48" height="32"/>
            <rect x="243" y="1" width="48" height="32" class="nonterminal"/>
            <text class="nonterminal" x="253" y="21">swin</text>
         </a>
         <rect x="313" y="3" width="24" height="32" rx="10"/>
         <rect x="311" y="1" width="24" height="32" class="terminal" rx="10"/>
         <text class="terminal" x="321" y="21">,</text>
         <a xmlns:xlink="http://www.w3.org/1999/xlink" xlink:href="#sminrow" xlink:title="sminrow">
            <rect x="357" y="3" width="72" height="32"/>
            <rect x="355" y="1" width="72" height="32" class="nonterminal"/>
            <text class="nonterminal" x="365" y="21">sminrow</text>
         </a>
         <rect x="449" y="3" width="24" height="32" rx="10"/>
         <rect x="447" y="1" width="24" height="32" class="terminal" rx="10"/>
         <text class="terminal" x="457" y="21">,</text>
         <a xmlns:xlink="http://www.w3.org/1999/xlink" xlink:href="#smincol" xlink:title="smincol">
            <rect x="493" y="3" width="66" height="32"/>
            <rect x="491" y="1" width="66" height="32" class="nonterminal"/>
            <text class="nonterminal" x="501" y="21">smincol</text>
         </a>
         <rect x="579" y="3" width="24" height="32" rx="10"/>
         <rect x="577" y="1" width="24" height="32" class="terminal" rx="10"/>
         <text class="terminal" x="587" y="21">,</text>
         <a xmlns:xlink="http://www.w3.org/1999/xlink" xlink:href="#dminrow" xlink:title="dminrow">
            <rect x="623" y="3" width="74" height="32"/>
            <rect x="621" y="1" width="74" height="32" class="nonterminal"/>
            <text class="nonterminal" x="631" y="21">dminrow</text>
         </a>
         <rect x="717" y="3" width="24" height="32" rx="10"/>
         <rect x="715" y="1" width="24" height="32" class="terminal" rx="10"/>
         <text class="terminal" x="725" y="21">,</text>
         <a xmlns:xlink="http://www.w3.org/1999/xlink" xlink:href="#dmincol" xlink:title="dmincol">
            <rect x="761" y="3" width="66" height="32"/>
            <rect x="759" y="1" width="66" height="32" class="nonterminal"/>
            <text class="nonterminal" x="769" y="21">dmincol</text>
         </a>
         <rect x="847" y="3" width="24" height="32" rx="10"/>
         <rect x="845" y="1" width="24" height="32" class="terminal" rx="10"/>
         <text class="terminal" x="855" y="21">,</text>
         <a xmlns:xlink="http://www.w3.org/1999/xlink" xlink:href="#dmaxrow" xlink:title="dmaxrow">
            <rect x="891" y="3" width="78" height="32"/>
            <rect x="889" y="1" width="78" height="32" class="nonterminal"/>
            <text class="nonterminal" x="899" y="21">dmaxrow</text>
         </a>
         <rect x="673" y="69" width="24" height="32" rx="10"/>
         <rect x="671" y="67" width="24" height="32" class="terminal" rx="10"/>
         <text class="terminal" x="681" y="87">,</text>
         <a xmlns:xlink="http://www.w3.org/1999/xlink" xlink:href="#dmaxcol" xlink:title="dmaxcol">
            <rect x="717" y="69" width="70" height="32"/>
            <rect x="715" y="67" width="70" height="32" class="nonterminal"/>
            <text class="nonterminal" x="725" y="87">dmaxcol</text>
         </a>
         <rect x="807" y="69" width="24" height="32" rx="10"/>
         <rect x="805" y="67" width="24" height="32" class="terminal" rx="10"/>
         <text class="terminal" x="815" y="87">,</text>
         <a xmlns:xlink="http://www.w3.org/1999/xlink" xlink:href="#overlay" xlink:title="overlay">
            <rect x="851" y="69" width="66" height="32"/>
            <rect x="849" y="67" width="66" height="32" class="nonterminal"/>
            <text class="nonterminal" x="859" y="87">overlay</text>
         </a>
         <rect x="937" y="69" width="26" height="32" rx="10"/>
         <rect x="935" y="67" width="26" height="32" class="terminal" rx="10"/>
         <text class="terminal" x="945" y="87">)</text>
         <svg:path xmlns:svg="http://www.w3.org/2000/svg" class="line" d="m17 17 h2 m0 0 h10 m42 0 h10 m0 0 h10 m30 0 h10 m0 0 h10 m82 0 h10 m0 0 h10 m48 0 h10 m0 0 h10 m24 0 h10 m0 0 h10 m72 0 h10 m0 0 h10 m24 0 h10 m0 0 h10 m66 0 h10 m0 0 h10 m24 0 h10 m0 0 h10 m74 0 h10 m0 0 h10 m24 0 h10 m0 0 h10 m66 0 h10 m0 0 h10 m24 0 h10 m0 0 h10 m78 0 h10 m2 0 l2 0 m2 0 l2 0 m2 0 l2 0 m-340 66 l2 0 m2 0 l2 0 m2 0 l2 0 m2 0 h10 m24 0 h10 m0 0 h10 m70 0 h10 m0 0 h10 m24 0 h10 m0 0 h10 m66 0 h10 m0 0 h10 m26 0 h10 m3 0 h-3"/>
         <polygon points="981 83 989 79 989 87"/>
         <polygon points="981 83 973 79 973 87"/>
      </svg>
