      <svg xmlns="http://www.w3.org/2000/svg" width="546" height="36">
         <defs>
            <style type="text/css">
               @namespace "http://www.w3.org/2000/svg";
               .line                 {fill: none; stroke: #1F1F1F;}
               .bold-line            {stroke: #0A0A0A; shape-rendering: crispEdges; stroke-width:
               2; }
               .thin-line            {stroke: #0F0F0F; shape-rendering: crispEdges}
               .filled               {fill: #1F1F1F; stroke: none;}
               text.terminal         {font-family: Verdana, Sans-serif;
               font-size: 12px;
               fill: #0A0A0A;
               font-weight: bold;
               }
               text.nonterminal      {font-family: Verdana, Sans-serif;
               font-size: 12px;
               fill: #0D0D0D;
               }
               text.regexp           {font-family: Verdana, Sans-serif;
               font-size: 12px;
               fill: #0F0F0F;
               }
               rect, circle, polygon {fill: #1F1F1F; stroke: #1F1F1F;}
               rect.terminal         {fill: #CCCCCC; stroke: #1F1F1F;}
               rect.nonterminal      {fill: #E3E3E3; stroke: #1F1F1F;}
               rect.text             {fill: none; stroke: none;}    
               polygon.regexp        {fill: #EFEFEF; stroke: #1F1F1F;}
               
            </style>
         </defs>
         <polygon points="9 17 1 13 1 21"/>
         <polygon points="17 17 9 13 9 21"/>
         <a xmlns:xlink="http://www.w3.org/1999/xlink" xlink:href="#win" xlink:title="win">
            <rect x="31" y="3" width="42" height="32"/>
            <rect x="29" y="1" width="42" height="32" class="nonterminal"/>
            <text class="nonterminal" x="39" y="21">win</text>
         </a>
         <rect x="93" y="3" width="30" height="32" rx="10"/>
         <rect x="91" y="1" width="30" height="32" class="terminal" rx="10"/>
         <text class="terminal" x="101" y="21">~</text>
         <rect x="143" y="3" width="62" height="32" rx="10"/>
         <rect x="141" y="1" width="62" height="32" class="terminal" rx="10"/>
         <text class="terminal" x="151" y="21">chgat(</text>
         <a xmlns:xlink="http://www.w3.org/1999/xlink" xlink:href="#n" xlink:title="n">
            <rect x="225" y="3" width="28" height="32"/>
            <rect x="223" y="1" width="28" height="32" class="nonterminal"/>
            <text class="nonterminal" x="233" y="21">n</text>
         </a>
         <rect x="273" y="3" width="24" height="32" rx="10"/>
         <rect x="271" y="1" width="24" height="32" class="terminal" rx="10"/>
         <text class="terminal" x="281" y="21">,</text>
         <a xmlns:xlink="http://www.w3.org/1999/xlink" xlink:href="#attr" xlink:title="attr">
            <rect x="317" y="3" width="42" height="32"/>
            <rect x="315" y="1" width="42" height="32" class="nonterminal"/>
            <text class="nonterminal" x="325" y="21">attr</text>
         </a>
         <rect x="379" y="3" width="24" height="32" rx="10"/>
         <rect x="377" y="1" width="24" height="32" class="terminal" rx="10"/>
         <text class="terminal" x="387" y="21">,</text>
         <a xmlns:xlink="http://www.w3.org/1999/xlink" xlink:href="#color" xlink:title="color">
            <rect x="423" y="3" width="50" height="32"/>
            <rect x="421" y="1" width="50" height="32" class="nonterminal"/>
            <text class="nonterminal" x="431" y="21">color</text>
         </a>
         <rect x="493" y="3" width="26" height="32" rx="10"/>
         <rect x="491" y="1" width="26" height="32" class="terminal" rx="10"/>
         <text class="terminal" x="501" y="21">)</text>
         <svg:path xmlns:svg="http://www.w3.org/2000/svg" class="line" d="m17 17 h2 m0 0 h10 m42 0 h10 m0 0 h10 m30 0 h10 m0 0 h10 m62 0 h10 m0 0 h10 m28 0 h10 m0 0 h10 m24 0 h10 m0 0 h10 m42 0 h10 m0 0 h10 m24 0 h10 m0 0 h10 m50 0 h10 m0 0 h10 m26 0 h10 m3 0 h-3"/>
         <polygon points="537 17 545 13 545 21"/>
         <polygon points="537 17 529 13 529 21"/>
      </svg>
