      <svg xmlns="http://www.w3.org/2000/svg" width="746" height="36">
         <defs>
            <style type="text/css">
               @namespace "http://www.w3.org/2000/svg";
               .line                 {fill: none; stroke: #1F1F1F;}
               .bold-line            {stroke: #0A0A0A; shape-rendering: crispEdges; stroke-width:
               2; }
               .thin-line            {stroke: #0F0F0F; shape-rendering: crispEdges}
               .filled               {fill: #1F1F1F; stroke: none;}
               text.terminal         {font-family: Verdana, Sans-serif;
               font-size: 12px;
               fill: #0A0A0A;
               font-weight: bold;
               }
               text.nonterminal      {font-family: Verdana, Sans-serif;
               font-size: 12px;
               fill: #0D0D0D;
               }
               text.regexp           {font-family: Verdana, Sans-serif;
               font-size: 12px;
               fill: #0F0F0F;
               }
               rect, circle, polygon {fill: #1F1F1F; stroke: #1F1F1F;}
               rect.terminal         {fill: #CCCCCC; stroke: #1F1F1F;}
               rect.nonterminal      {fill: #E3E3E3; stroke: #1F1F1F;}
               rect.text             {fill: none; stroke: none;}    
               polygon.regexp        {fill: #EFEFEF; stroke: #1F1F1F;}
               
            </style>
         </defs>
         <polygon points="9 17 1 13 1 21"/>
         <polygon points="17 17 9 13 9 21"/>
         <a xmlns:xlink="http://www.w3.org/1999/xlink" xlink:href="#win" xlink:title="win">
            <rect x="31" y="3" width="42" height="32"/>
            <rect x="29" y="1" width="42" height="32" class="nonterminal"/>
            <text class="nonterminal" x="39" y="21">win</text>
         </a>
         <rect x="93" y="3" width="30" height="32" rx="10"/>
         <rect x="91" y="1" width="30" height="32" class="terminal" rx="10"/>
         <text class="terminal" x="101" y="21">~</text>
         <rect x="143" y="3" width="82" height="32" rx="10"/>
         <rect x="141" y="1" width="82" height="32" class="terminal" rx="10"/>
         <text class="terminal" x="151" y="21">mvchgat(</text>
         <a xmlns:xlink="http://www.w3.org/1999/xlink" xlink:href="#y" xlink:title="y">
            <rect x="245" y="3" width="26" height="32"/>
            <rect x="243" y="1" width="26" height="32" class="nonterminal"/>
            <text class="nonterminal" x="253" y="21">y</text>
         </a>
         <rect x="291" y="3" width="24" height="32" rx="10"/>
         <rect x="289" y="1" width="24" height="32" class="terminal" rx="10"/>
         <text class="terminal" x="299" y="21">,</text>
         <a xmlns:xlink="http://www.w3.org/1999/xlink" xlink:href="#x" xlink:title="x">
            <rect x="335" y="3" width="26" height="32"/>
            <rect x="333" y="1" width="26" height="32" class="nonterminal"/>
            <text class="nonterminal" x="343" y="21">x</text>
         </a>
         <rect x="381" y="3" width="24" height="32" rx="10"/>
         <rect x="379" y="1" width="24" height="32" class="terminal" rx="10"/>
         <text class="terminal" x="389" y="21">,</text>
         <a xmlns:xlink="http://www.w3.org/1999/xlink" xlink:href="#n" xlink:title="n">
            <rect x="425" y="3" width="28" height="32"/>
            <rect x="423" y="1" width="28" height="32" class="nonterminal"/>
            <text class="nonterminal" x="433" y="21">n</text>
         </a>
         <rect x="473" y="3" width="24" height="32" rx="10"/>
         <rect x="471" y="1" width="24" height="32" class="terminal" rx="10"/>
         <text class="terminal" x="481" y="21">,</text>
         <a xmlns:xlink="http://www.w3.org/1999/xlink" xlink:href="#arrt" xlink:title="arrt">
            <rect x="517" y="3" width="42" height="32"/>
            <rect x="515" y="1" width="42" height="32" class="nonterminal"/>
            <text class="nonterminal" x="525" y="21">arrt</text>
         </a>
         <rect x="579" y="3" width="24" height="32" rx="10"/>
         <rect x="577" y="1" width="24" height="32" class="terminal" rx="10"/>
         <text class="terminal" x="587" y="21">,</text>
         <a xmlns:xlink="http://www.w3.org/1999/xlink" xlink:href="#color" xlink:title="color">
            <rect x="623" y="3" width="50" height="32"/>
            <rect x="621" y="1" width="50" height="32" class="nonterminal"/>
            <text class="nonterminal" x="631" y="21">color</text>
         </a>
         <rect x="693" y="3" width="26" height="32" rx="10"/>
         <rect x="691" y="1" width="26" height="32" class="terminal" rx="10"/>
         <text class="terminal" x="701" y="21">)</text>
         <svg:path xmlns:svg="http://www.w3.org/2000/svg" class="line" d="m17 17 h2 m0 0 h10 m42 0 h10 m0 0 h10 m30 0 h10 m0 0 h10 m82 0 h10 m0 0 h10 m26 0 h10 m0 0 h10 m24 0 h10 m0 0 h10 m26 0 h10 m0 0 h10 m24 0 h10 m0 0 h10 m28 0 h10 m0 0 h10 m24 0 h10 m0 0 h10 m42 0 h10 m0 0 h10 m24 0 h10 m0 0 h10 m50 0 h10 m0 0 h10 m26 0 h10 m3 0 h-3"/>
         <polygon points="737 17 745 13 745 21"/>
         <polygon points="737 17 729 13 729 21"/>
      </svg>
