<svg xmlns="http://www.w3.org/2000/svg" width="611" height="69">
         <defs>
            <style type="text/css">
               @namespace "http://www.w3.org/2000/svg";
               .line                 {fill: none; stroke: #1F1F1F;}
               .bold-line            {stroke: #0A0A0A; shape-rendering: crispEdges; stroke-width:
               2; }
               .thin-line            {stroke: #0F0F0F; shape-rendering: crispEdges}
               .filled               {fill: #1F1F1F; stroke: none;}
               text.terminal         {font-family: Verdana, Sans-serif;
               font-size: 12px;
               fill: #0A0A0A;
               font-weight: bold;
               }
               text.nonterminal      {font-family: Verdana, Sans-serif; font-style: italic;
               font-size: 12px;
               fill: #0D0D0D;
               }
               text.regexp           {font-family: Verdana, Sans-serif;
               font-size: 12px;
               fill: #0F0F0F;
               }
               rect, circle, polygon {fill: #1F1F1F; stroke: #1F1F1F;}
               rect.terminal         {fill: #CCCCCC; stroke: #1F1F1F;}
               rect.nonterminal      {fill: #E3E3E3; stroke: #1F1F1F;}
               rect.text             {fill: none; stroke: none;}
               polygon.regexp        {fill: #EFEFEF; stroke: #1F1F1F;}

            </style>
         </defs>

         <polygon points="9 17 1 13 1 21"/>
         <polygon points="17 17 9 13 9 21"/>
         <rect x="31" y="3" width="48" height="32" rx="10"/>
         <rect x="29" y="1" width="48" height="32" class="terminal" rx="10"/>
         <text class="terminal" x="39" y="21">init(</text><a xmlns:xlink="http://www.w3.org/1999/xlink" xlink:href="#year" xlink:title="year">
            <rect x="99" y="3" width="48" height="32"/>
            <rect x="97" y="1" width="48" height="32" class="nonterminal"/>
            <text class="nonterminal" x="107" y="21">year</text></a><rect x="167" y="3" width="24" height="32" rx="10"/>
         <rect x="165" y="1" width="24" height="32" class="terminal" rx="10"/>
         <text class="terminal" x="175" y="21">,</text><a xmlns:xlink="http://www.w3.org/1999/xlink" xlink:href="#month" xlink:title="month">
            <rect x="211" y="3" width="60" height="32"/>
            <rect x="209" y="1" width="60" height="32" class="nonterminal"/>
            <text class="nonterminal" x="219" y="21">month</text></a><rect x="291" y="3" width="24" height="32" rx="10"/>
         <rect x="289" y="1" width="24" height="32" class="terminal" rx="10"/>
         <text class="terminal" x="299" y="21">,</text><a xmlns:xlink="http://www.w3.org/1999/xlink" xlink:href="#day" xlink:title="day">
            <rect x="335" y="3" width="42" height="32"/>
            <rect x="333" y="1" width="42" height="32" class="nonterminal"/>
            <text class="nonterminal" x="343" y="21">day</text></a><rect x="417" y="35" width="24" height="32" rx="10"/>
         <rect x="415" y="33" width="24" height="32" class="terminal" rx="10"/>
         <text class="terminal" x="425" y="53">,</text><a xmlns:xlink="http://www.w3.org/1999/xlink" xlink:href="#offset" xlink:title="offset">
            <rect x="461" y="35" width="56" height="32"/>
            <rect x="459" y="33" width="56" height="32" class="nonterminal"/>
            <text class="nonterminal" x="469" y="53">offset</text></a><rect x="557" y="3" width="26" height="32" rx="10"/>
         <rect x="555" y="1" width="26" height="32" class="terminal" rx="10"/>
         <text class="terminal" x="565" y="21">)</text>
         <path class="line" d="m17 17 h2 m0 0 h10 m48 0 h10 m0 0 h10 m48 0 h10 m0 0 h10 m24 0 h10 m0 0 h10 m60 0 h10 m0 0 h10 m24 0 h10 m0 0 h10 m42 0 h10 m20 0 h10 m0 0 h110 m-140 0 h20 m120 0 h20 m-160 0 q10 0 10 10 m140 0 q0 -10 10 -10 m-150 10 v12 m140 0 v-12 m-140 12 q0 10 10 10 m120 0 q10 0 10 -10 m-130 10 h10 m24 0 h10 m0 0 h10 m56 0 h10 m20 -32 h10 m26 0 h10 m3 0 h-3"/>
         <polygon points="601 17 609 13 609 21"/>
         <polygon points="601 17 593 13 593 21"/>
</svg>