<svg xmlns="http://www.w3.org/2000/svg" width="817" height="343">
         <defs>
            <style type="text/css">
               @namespace "http://www.w3.org/2000/svg";
               .line                 {fill: none; stroke: #1F1F1F;}
               .bold-line            {stroke: #0A0A0A; shape-rendering: crispEdges; stroke-width:
               2; }
               .thin-line            {stroke: #0F0F0F; shape-rendering: crispEdges}
               .filled               {fill: #1F1F1F; stroke: none;}
               text.terminal         {font-family: Verdana, Sans-serif;
               font-size: 12px;
               fill: #0A0A0A;
               font-weight: bold;
               }
               text.nonterminal      {font-family: Verdana, Sans-serif; font-style: italic;
               font-size: 12px;
               fill: #0D0D0D;
               }
               text.regexp           {font-family: Verdana, Sans-serif;
               font-size: 12px;
               fill: #0F0F0F;
               }
               rect, circle, polygon {fill: #1F1F1F; stroke: #1F1F1F;}
               rect.terminal         {fill: #CCCCCC; stroke: #1F1F1F;}
               rect.nonterminal      {fill: #E3E3E3; stroke: #1F1F1F;}
               rect.text             {fill: none; stroke: none;}
               polygon.regexp        {fill: #EFEFEF; stroke: #1F1F1F;}

            </style>
         </defs>

         <defs>
            <style type="text/css">
    @namespace "http://www.w3.org/2000/svg";
    .line                 {fill: none; stroke: #1F1F1F; stroke-width: 1;}
    .bold-line            {stroke: #0A0A0A; shape-rendering: crispEdges; stroke-width: 2;}
    .thin-line            {stroke: #0F0F0F; shape-rendering: crispEdges}
    .filled               {fill: #1F1F1F; stroke: none;}
    text.terminal         {font-family: Verdana, Sans-serif;
                            font-size: 12px;
                            fill: #0A0A0A;
                            font-weight: bold;
                          }
    text.nonterminal      {font-family: Verdana, Sans-serif;
                            font-size: 12px;
                            fill: #0D0D0D;
                            font-weight: normal;
                          }
    text.regexp           {font-family: Verdana, Sans-serif;
                            font-size: 12px;
                            fill: #0F0F0F;
                            font-weight: normal;
                          }
    rect, circle, polygon {fill: #1F1F1F; stroke: #1F1F1F;}
    rect.terminal         {fill: #cccccc; stroke: #1F1F1F; stroke-width: 1;}
    rect.nonterminal      {fill: #E3E3E3; stroke: #1F1F1F; stroke-width: 1;}
    rect.text             {fill: none; stroke: none;}
    polygon.regexp        {fill: #EFEFEF; stroke: #1F1F1F; stroke-width: 1;}
  </style>
         </defs>
         <polygon points="9 17 1 13 1 21"/>
         <polygon points="17 17 9 13 9 21"/><a xmlns:xlink="http://www.w3.org/1999/xlink" xlink:href="#control1" xlink:title="control1">
            <rect x="51" y="3" width="72" height="32"/>
            <rect x="49" y="1" width="72" height="32" class="nonterminal"/>
            <text class="nonterminal" x="59" y="21">control1</text></a><rect x="143" y="3" width="30" height="32" rx="10"/>
         <rect x="141" y="1" width="30" height="32" class="terminal" rx="10"/>
         <text class="terminal" x="151" y="21">=</text><a xmlns:xlink="http://www.w3.org/1999/xlink" xlink:href="#expri" xlink:title="expri">
            <rect x="193" y="3" width="52" height="32"/>
            <rect x="191" y="1" width="52" height="32" class="nonterminal"/>
            <text class="nonterminal" x="201" y="21">expri</text></a><rect x="285" y="35" width="38" height="32" rx="10"/>
         <rect x="283" y="33" width="38" height="32" class="terminal" rx="10"/>
         <text class="terminal" x="293" y="53">TO</text><a xmlns:xlink="http://www.w3.org/1999/xlink" xlink:href="#exprt" xlink:title="exprt">
            <rect x="343" y="35" width="52" height="32"/>
            <rect x="341" y="33" width="52" height="32" class="nonterminal"/>
            <text class="nonterminal" x="351" y="53">exprt</text></a><rect x="455" y="35" width="38" height="32" rx="10"/>
         <rect x="453" y="33" width="38" height="32" class="terminal" rx="10"/>
         <text class="terminal" x="463" y="53">BY</text><a xmlns:xlink="http://www.w3.org/1999/xlink" xlink:href="#exprb" xlink:title="exprb">
            <rect x="513" y="35" width="56" height="32"/>
            <rect x="511" y="33" width="56" height="32" class="nonterminal"/>
            <text class="nonterminal" x="521" y="53">exprb</text></a><rect x="629" y="35" width="48" height="32" rx="10"/>
         <rect x="627" y="33" width="48" height="32" class="terminal" rx="10"/>
         <text class="terminal" x="637" y="53">FOR</text><a xmlns:xlink="http://www.w3.org/1999/xlink" xlink:href="#exprf" xlink:title="exprf">
            <rect x="697" y="35" width="52" height="32"/>
            <rect x="695" y="33" width="52" height="32" class="nonterminal"/>
            <text class="nonterminal" x="705" y="53">exprf</text></a><a xmlns:xlink="http://www.w3.org/1999/xlink" xlink:href="#control2" xlink:title="control2">
            <rect x="51" y="79" width="72" height="32"/>
            <rect x="49" y="77" width="72" height="32" class="nonterminal"/>
            <text class="nonterminal" x="59" y="97">control2</text></a><rect x="143" y="79" width="58" height="32" rx="10"/>
         <rect x="141" y="77" width="58" height="32" class="terminal" rx="10"/>
         <text class="terminal" x="151" y="97">OVER</text><a xmlns:xlink="http://www.w3.org/1999/xlink" xlink:href="#collection" xlink:title="collection">
            <rect x="221" y="79" width="78" height="32"/>
            <rect x="219" y="77" width="78" height="32" class="nonterminal"/>
            <text class="nonterminal" x="229" y="97">collection</text></a><rect x="339" y="111" width="48" height="32" rx="10"/>
         <rect x="337" y="109" width="48" height="32" class="terminal" rx="10"/>
         <text class="terminal" x="347" y="129">FOR</text><a xmlns:xlink="http://www.w3.org/1999/xlink" xlink:href="#exprf" xlink:title="exprf">
            <rect x="407" y="111" width="52" height="32"/>
            <rect x="405" y="109" width="52" height="32" class="nonterminal"/>
            <text class="nonterminal" x="415" y="129">exprf</text></a><rect x="51" y="177" width="58" height="32" rx="10"/>
         <rect x="49" y="175" width="58" height="32" class="terminal" rx="10"/>
         <text class="terminal" x="59" y="195">WITH</text>
         <rect x="169" y="177" width="64" height="32" rx="10"/>
         <rect x="167" y="175" width="64" height="32" class="terminal" rx="10"/>
         <text class="terminal" x="177" y="195">INDEX</text><a xmlns:xlink="http://www.w3.org/1999/xlink" xlink:href="#index" xlink:title="index">
            <rect x="253" y="177" width="54" height="32"/>
            <rect x="251" y="175" width="54" height="32" class="nonterminal"/>
            <text class="nonterminal" x="261" y="195">index</text></a><rect x="169" y="221" width="54" height="32" rx="10"/>
         <rect x="167" y="219" width="54" height="32" class="terminal" rx="10"/>
         <text class="terminal" x="177" y="239">ITEM</text><a xmlns:xlink="http://www.w3.org/1999/xlink" xlink:href="#item" xlink:title="item">
            <rect x="243" y="221" width="48" height="32"/>
            <rect x="241" y="219" width="48" height="32" class="nonterminal"/>
            <text class="nonterminal" x="251" y="239">item</text></a><rect x="367" y="177" width="58" height="32" rx="10"/>
         <rect x="365" y="175" width="58" height="32" class="terminal" rx="10"/>
         <text class="terminal" x="375" y="195">OVER</text><a xmlns:xlink="http://www.w3.org/1999/xlink" xlink:href="#supplier" xlink:title="supplier">
            <rect x="445" y="177" width="70" height="32"/>
            <rect x="443" y="175" width="70" height="32" class="nonterminal"/>
            <text class="nonterminal" x="453" y="195">supplier</text></a><rect x="555" y="209" width="48" height="32" rx="10"/>
         <rect x="553" y="207" width="48" height="32" class="terminal" rx="10"/>
         <text class="terminal" x="563" y="227">FOR</text><a xmlns:xlink="http://www.w3.org/1999/xlink" xlink:href="#exprf" xlink:title="exprf">
            <rect x="623" y="209" width="52" height="32"/>
            <rect x="621" y="207" width="52" height="32" class="nonterminal"/>
            <text class="nonterminal" x="631" y="227">exprf</text></a><rect x="51" y="265" width="82" height="32" rx="10"/>
         <rect x="49" y="263" width="82" height="32" class="terminal" rx="10"/>
         <text class="terminal" x="59" y="283">FOREVER</text><a xmlns:xlink="http://www.w3.org/1999/xlink" xlink:href="#exprr" xlink:title="exprr">
            <rect x="51" y="309" width="52" height="32"/>
            <rect x="49" y="307" width="52" height="32" class="nonterminal"/>
            <text class="nonterminal" x="59" y="327">exprr</text></a><svg:path xmlns:svg="http://www.w3.org/2000/svg" class="line" d="m17 17 h2 m20 0 h10 m72 0 h10 m0 0 h10 m30 0 h10 m0 0 h10 m52 0 h10 m20 0 h10 m0 0 h120 m-150 0 h20 m130 0 h20 m-170 0 q10 0 10 10 m150 0 q0 -10 10 -10 m-160 10 v12 m150 0 v-12 m-150 12 q0 10 10 10 m130 0 q10 0 10 -10 m-140 10 h10 m38 0 h10 m0 0 h10 m52 0 h10 m40 -32 h10 m0 0 h124 m-154 0 h20 m134 0 h20 m-174 0 q10 0 10 10 m154 0 q0 -10 10 -10 m-164 10 v12 m154 0 v-12 m-154 12 q0 10 10 10 m134 0 q10 0 10 -10 m-144 10 h10 m38 0 h10 m0 0 h10 m56 0 h10 m40 -32 h10 m0 0 h130 m-160 0 h20 m140 0 h20 m-180 0 q10 0 10 10 m160 0 q0 -10 10 -10 m-170 10 v12 m160 0 v-12 m-160 12 q0 10 10 10 m140 0 q10 0 10 -10 m-150 10 h10 m48 0 h10 m0 0 h10 m52 0 h10 m-738 -32 h20 m738 0 h20 m-778 0 q10 0 10 10 m758 0 q0 -10 10 -10 m-768 10 v56 m758 0 v-56 m-758 56 q0 10 10 10 m738 0 q10 0 10 -10 m-748 10 h10 m72 0 h10 m0 0 h10 m58 0 h10 m0 0 h10 m78 0 h10 m20 0 h10 m0 0 h130 m-160 0 h20 m140 0 h20 m-180 0 q10 0 10 10 m160 0 q0 -10 10 -10 m-170 10 v12 m160 0 v-12 m-160 12 q0 10 10 10 m140 0 q10 0 10 -10 m-150 10 h10 m48 0 h10 m0 0 h10 m52 0 h10 m20 -32 h290 m-748 -10 v20 m758 0 v-20 m-758 20 v78 m758 0 v-78 m-758 78 q0 10 10 10 m738 0 q10 0 10 -10 m-748 10 h10 m58 0 h10 m40 0 h10 m64 0 h10 m0 0 h10 m54 0 h10 m-178 0 h20 m158 0 h20 m-198 0 q10 0 10 10 m178 0 q0 -10 10 -10 m-188 10 v24 m178 0 v-24 m-178 24 q0 10 10 10 m158 0 q10 0 10 -10 m-168 10 h10 m54 0 h10 m0 0 h10 m48 0 h10 m0 0 h16 m-198 -44 l20 0 m-1 0 q-9 0 -9 -10 l0 -12 q0 -10 10 -10 m198 32 l20 0 m-20 0 q10 0 10 -10 l0 -12 q0 -10 -10 -10 m-198 0 h10 m0 0 h188 m20 32 h10 m58 0 h10 m0 0 h10 m70 0 h10 m20 0 h10 m0 0 h130 m-160 0 h20 m140 0 h20 m-180 0 q10 0 10 10 m160 0 q0 -10 10 -10 m-170 10 v12 m160 0 v-12 m-160 12 q0 10 10 10 m140 0 q10 0 10 -10 m-150 10 h10 m48 0 h10 m0 0 h10 m52 0 h10 m20 -32 h74 m-748 -10 v20 m758 0 v-20 m-758 20 v68 m758 0 v-68 m-758 68 q0 10 10 10 m738 0 q10 0 10 -10 m-748 10 h10 m82 0 h10 m0 0 h636 m-748 -10 v20 m758 0 v-20 m-758 20 v24 m758 0 v-24 m-758 24 q0 10 10 10 m738 0 q10 0 10 -10 m-748 10 h10 m52 0 h10 m0 0 h666 m23 -306 h-3"/>
         <polygon points="807 17 815 13 815 21"/>
         <polygon points="807 17 799 13 799 21"/>
</svg>