<svg xmlns="http://www.w3.org/2000/svg" width="365" height="97">
         <defs>
            <style type="text/css">
               @namespace "http://www.w3.org/2000/svg";
               .line                 {fill: none; stroke: #1F1F1F;}
               .bold-line            {stroke: #0A0A0A; shape-rendering: crispEdges; stroke-width:
               2; }
               .thin-line            {stroke: #0F0F0F; shape-rendering: crispEdges}
               .filled               {fill: #1F1F1F; stroke: none;}
               text.terminal         {font-family: Verdana, Sans-serif;
               font-size: 12px;
               fill: #0A0A0A;
               font-weight: bold;
               }
               text.nonterminal      {font-family: Verdana, Sans-serif; font-style: italic;
               font-size: 12px;
               fill: #0D0D0D;
               }
               text.regexp           {font-family: Verdana, Sans-serif;
               font-size: 12px;
               fill: #0F0F0F;
               }
               rect, circle, polygon {fill: #1F1F1F; stroke: #1F1F1F;}
               rect.terminal         {fill: #CCCCCC; stroke: #1F1F1F;}
               rect.nonterminal      {fill: #E3E3E3; stroke: #1F1F1F;}
               rect.text             {fill: none; stroke: none;}
               polygon.regexp        {fill: #EFEFEF; stroke: #1F1F1F;}

            </style>
         </defs>

         <defs>
            <style type="text/css">
    @namespace "http://www.w3.org/2000/svg";
    .line                 {fill: none; stroke: #1F1F1F; stroke-width: 1;}
    .bold-line            {stroke: #0A0A0A; shape-rendering: crispEdges; stroke-width: 2;}
    .thin-line            {stroke: #0F0F0F; shape-rendering: crispEdges}
    .filled               {fill: #1F1F1F; stroke: none;}
    text.terminal         {font-family: Verdana, Sans-serif;
                            font-size: 12px;
                            fill: #0A0A0A;
                            font-weight: bold;
                          }
    text.nonterminal      {font-family: Verdana, Sans-serif;
                            font-size: 12px;
                            fill: #0D0D0D;
                            font-weight: normal;
                          }
    text.regexp           {font-family: Verdana, Sans-serif;
                            font-size: 12px;
                            fill: #0F0F0F;
                            font-weight: normal;
                          }
    rect, circle, polygon {fill: #1F1F1F; stroke: #1F1F1F;}
    rect.terminal         {fill: #cccccc; stroke: #1F1F1F; stroke-width: 1;}
    rect.nonterminal      {fill: #E3E3E3; stroke: #1F1F1F; stroke-width: 1;}
    rect.text             {fill: none; stroke: none;}
    polygon.regexp        {fill: #EFEFEF; stroke: #1F1F1F; stroke-width: 1;}
  </style>
         </defs>
         <polygon points="9 33 1 29 1 37"/>
         <polygon points="17 33 9 29 9 37"/>
         <rect x="31" y="19" width="58" height="32" rx="10"/>
         <rect x="29" y="17" width="58" height="32" class="terminal" rx="10"/>
         <text class="terminal" x="39" y="37">DROP</text><a xmlns:xlink="http://www.w3.org/1999/xlink" xlink:href="#name" xlink:title="name">
            <rect x="149" y="19" width="56" height="32"/>
            <rect x="147" y="17" width="56" height="32" class="nonterminal"/>
            <text class="nonterminal" x="157" y="37">name</text></a><rect x="149" y="63" width="26" height="32" rx="10"/>
         <rect x="147" y="61" width="26" height="32" class="terminal" rx="10"/>
         <text class="terminal" x="157" y="81">(</text><a xmlns:xlink="http://www.w3.org/1999/xlink" xlink:href="#name" xlink:title="name">
            <rect x="195" y="63" width="56" height="32"/>
            <rect x="193" y="61" width="56" height="32" class="nonterminal"/>
            <text class="nonterminal" x="203" y="81">name</text></a><rect x="271" y="63" width="26" height="32" rx="10"/>
         <rect x="269" y="61" width="26" height="32" class="terminal" rx="10"/>
         <text class="terminal" x="279" y="81">)</text>
         <svg:path xmlns:svg="http://www.w3.org/2000/svg" class="line" d="m17 33 h2 m0 0 h10 m58 0 h10 m40 0 h10 m56 0 h10 m0 0 h92 m-188 0 h20 m168 0 h20 m-208 0 q10 0 10 10 m188 0 q0 -10 10 -10 m-198 10 v24 m188 0 v-24 m-188 24 q0 10 10 10 m168 0 q10 0 10 -10 m-178 10 h10 m26 0 h10 m0 0 h10 m56 0 h10 m0 0 h10 m26 0 h10 m-208 -44 l20 0 m-1 0 q-9 0 -9 -10 l0 -12 q0 -10 10 -10 m208 32 l20 0 m-20 0 q10 0 10 -10 l0 -12 q0 -10 -10 -10 m-208 0 h10 m0 0 h198 m23 32 h-3"/>
         <polygon points="355 33 363 29 363 37"/>
         <polygon points="355 33 347 29 347 37"/>
</svg>