      <svg xmlns="http://www.w3.org/2000/svg" width="692" height="52">
         <defs>
            <style type="text/css">
               @namespace "http://www.w3.org/2000/svg";
               .line                 {fill: none; stroke: #1F1F1F;}
               .bold-line            {stroke: #0A0A0A; shape-rendering: crispEdges; stroke-width:
               2; }
               .thin-line            {stroke: #0F0F0F; shape-rendering: crispEdges}
               .filled               {fill: #1F1F1F; stroke: none;}
               text.terminal         {font-family: Verdana, Sans-serif;
               font-size: 12px;
               fill: #0A0A0A;
               font-weight: bold;
               }
               text.nonterminal      {font-family: Verdana, Sans-serif;
               font-size: 12px;
               fill: #0D0D0D;
               }
               text.regexp           {font-family: Verdana, Sans-serif;
               font-size: 12px;
               fill: #0F0F0F;
               }
               rect, circle, polygon {fill: #1F1F1F; stroke: #1F1F1F;}
               rect.terminal         {fill: #CCCCCC; stroke: #1F1F1F;}
               rect.nonterminal      {fill: #E3E3E3; stroke: #1F1F1F;}
               rect.text             {fill: none; stroke: none;}    
               polygon.regexp        {fill: #EFEFEF; stroke: #1F1F1F;}
               
            </style>
         </defs>
         <polygon points="9 17 1 13 1 21"/>
         <polygon points="17 17 9 13 9 21"/>
         <rect x="31" y="3" width="108" height="32" rx="10"/>
         <rect x="29" y="1" width="108" height="32" class="terminal" rx="10"/>
         <text class="terminal" x="39" y="21">SockSendTo(</text>
         <a xmlns:xlink="http://www.w3.org/1999/xlink" xlink:href="#socket" xlink:title="socket">
            <rect x="159" y="3" width="60" height="32"/>
            <rect x="157" y="1" width="60" height="32" class="nonterminal"/>
            <text class="nonterminal" x="167" y="21">socket</text>
         </a>
         <rect x="239" y="3" width="24" height="32" rx="10"/>
         <rect x="237" y="1" width="24" height="32" class="terminal" rx="10"/>
         <text class="terminal" x="247" y="21">,</text>
         <a xmlns:xlink="http://www.w3.org/1999/xlink" xlink:href="#data" xlink:title="data">
            <rect x="283" y="3" width="48" height="32"/>
            <rect x="281" y="1" width="48" height="32" class="nonterminal"/>
            <text class="nonterminal" x="291" y="21">data</text>
         </a>
         <rect x="371" y="3" width="24" height="32" rx="10"/>
         <rect x="369" y="1" width="24" height="32" class="terminal" rx="10"/>
         <text class="terminal" x="379" y="21">,</text>
         <a xmlns:xlink="http://www.w3.org/1999/xlink" xlink:href="#flags" xlink:title="flags">
            <rect x="415" y="3" width="50" height="32"/>
            <rect x="413" y="1" width="50" height="32" class="nonterminal"/>
            <text class="nonterminal" x="423" y="21">flags</text>
         </a>
         <rect x="505" y="3" width="24" height="32" rx="10"/>
         <rect x="503" y="1" width="24" height="32" class="terminal" rx="10"/>
         <text class="terminal" x="513" y="21">,</text>
         <a xmlns:xlink="http://www.w3.org/1999/xlink" xlink:href="#address" xlink:title="address">
            <rect x="549" y="3" width="70" height="32"/>
            <rect x="547" y="1" width="70" height="32" class="nonterminal"/>
            <text class="nonterminal" x="557" y="21">address</text>
         </a>
         <rect x="639" y="3" width="26" height="32" rx="10"/>
         <rect x="637" y="1" width="26" height="32" class="terminal" rx="10"/>
         <text class="terminal" x="647" y="21">)</text>
         <svg:path xmlns:svg="http://www.w3.org/2000/svg" class="line" d="m17 17 h2 m0 0 h10 m108 0 h10 m0 0 h10 m60 0 h10 m0 0 h10 m24 0 h10 m0 0 h10 m48 0 h10 m20 0 h10 m24 0 h10 m0 0 h10 m50 0 h10 m-134 0 h20 m114 0 h20 m-154 0 q10 0 10 10 m134 0 q0 -10 10 -10 m-144 10 v14 m134 0 v-14 m-134 14 q0 10 10 10 m114 0 q10 0 10 -10 m-124 10 h10 m0 0 h104 m20 -34 h10 m24 0 h10 m0 0 h10 m70 0 h10 m0 0 h10 m26 0 h10 m3 0 h-3"/>
         <polygon points="683 17 691 13 691 21"/>
         <polygon points="683 17 675 13 675 21"/>
      </svg>
