      <svg xmlns="http://www.w3.org/2000/svg" width="420" height="36">
         <defs>
            <style type="text/css">
               @namespace "http://www.w3.org/2000/svg";
               .line                 {fill: none; stroke: #1F1F1F;}
               .bold-line            {stroke: #0A0A0A; shape-rendering: crispEdges; stroke-width:
               2; }
               .thin-line            {stroke: #0F0F0F; shape-rendering: crispEdges}
               .filled               {fill: #1F1F1F; stroke: none;}
               text.terminal         {font-family: Verdana, Sans-serif;
               font-size: 12px;
               fill: #0A0A0A;
               font-weight: bold;
               }
               text.nonterminal      {font-family: Verdana, Sans-serif; font-style: italic;
               font-size: 12px;
               fill: #0D0D0D;
               }
               text.regexp           {font-family: Verdana, Sans-serif;
               font-size: 12px;
               fill: #0F0F0F;
               }
               rect, circle, polygon {fill: #1F1F1F; stroke: #1F1F1F;}
               rect.terminal         {fill: #CCCCCC; stroke: #1F1F1F;}
               rect.nonterminal      {fill: #E3E3E3; stroke: #1F1F1F;}
               rect.text             {fill: none; stroke: none;}    
               polygon.regexp        {fill: #EFEFEF; stroke: #1F1F1F;}
               
            </style>
         </defs>
         <polygon points="9 17 1 13 1 21"/>
         <polygon points="17 17 9 13 9 21"/>
         <rect x="31" y="3" width="78" height="32" rx="10"/>
         <rect x="29" y="1" width="78" height="32" class="terminal" rx="10"/>
         <text class="terminal" x="39" y="21">SysLink(</text>
<!--     <a xmlns:xlink="http://www.w3.org/1999/xlink" xlink:href="#srcpath" xlink:title="srcpath"> -->
            <rect x="129" y="3" width="66" height="32"/>
            <rect x="127" y="1" width="66" height="32" class="nonterminal"/>
            <text class="nonterminal" x="137" y="21">srcpath</text>
<!--     </a> -->
         <rect x="215" y="3" width="24" height="32" rx="10"/>
         <rect x="213" y="1" width="24" height="32" class="terminal" rx="10"/>
         <text class="terminal" x="223" y="21">,</text>
<!--     <a xmlns:xlink="http://www.w3.org/1999/xlink" xlink:href="#targetpath" xlink:title="targetpath"> -->
            <rect x="259" y="3" width="88" height="32"/>
            <rect x="257" y="1" width="88" height="32" class="nonterminal"/>
            <text class="nonterminal" x="267" y="21">targetpath</text>
<!--     </a> -->
         <rect x="367" y="3" width="26" height="32" rx="10"/>
         <rect x="365" y="1" width="26" height="32" class="terminal" rx="10"/>
         <text class="terminal" x="375" y="21">)</text>
         <svg:path xmlns:svg="http://www.w3.org/2000/svg" class="line" d="m17 17 h2 m0 0 h10 m78 0 h10 m0 0 h10 m66 0 h10 m0 0 h10 m24 0 h10 m0 0 h10 m88 0 h10 m0 0 h10 m26 0 h10 m3 0 h-3"/>
         <polygon points="411 17 419 13 419 21"/>
         <polygon points="411 17 403 13 403 21"/>
      </svg>
