      <svg xmlns="http://www.w3.org/2000/svg" width="698" height="36">
         <defs>
            <style type="text/css">
               @namespace "http://www.w3.org/2000/svg";
               .line                 {fill: none; stroke: #1F1F1F;}
               .bold-line            {stroke: #0A0A0A; shape-rendering: crispEdges; stroke-width:
               2; }
               .thin-line            {stroke: #0F0F0F; shape-rendering: crispEdges}
               .filled               {fill: #1F1F1F; stroke: none;}
               text.terminal         {font-family: Verdana, Sans-serif;
               font-size: 12px;
               fill: #0A0A0A;
               font-weight: bold;
               }
               text.nonterminal      {font-family: Verdana, Sans-serif;
               font-size: 12px;
               fill: #0D0D0D;
               }
               text.regexp           {font-family: Verdana, Sans-serif;
               font-size: 12px;
               fill: #0F0F0F;
               }
               rect, circle, polygon {fill: #1F1F1F; stroke: #1F1F1F;}
               rect.terminal         {fill: #CCCCCC; stroke: #1F1F1F;}
               rect.nonterminal      {fill: #E3E3E3; stroke: #1F1F1F;}
               rect.text             {fill: none; stroke: none;}    
               polygon.regexp        {fill: #EFEFEF; stroke: #1F1F1F;}
               
            </style>
         </defs>
         <polygon points="9 17 1 13 1 21"/>
         <polygon points="17 17 9 13 9 21"/>
         <rect x="31" y="3" width="138" height="32" rx="10"/>
         <rect x="29" y="1" width="138" height="32" class="terminal" rx="10"/>
         <text class="terminal" x="39" y="21">SockGetSockOpt(</text>
         <a xmlns:xlink="http://www.w3.org/1999/xlink" xlink:href="#socket" xlink:title="socket">
            <rect x="189" y="3" width="60" height="32"/>
            <rect x="187" y="1" width="60" height="32" class="nonterminal"/>
            <text class="nonterminal" x="197" y="21">socket</text>
         </a>
         <rect x="269" y="3" width="24" height="32" rx="10"/>
         <rect x="267" y="1" width="24" height="32" class="terminal" rx="10"/>
         <text class="terminal" x="277" y="21">,</text>
         <a xmlns:xlink="http://www.w3.org/1999/xlink" xlink:href="#level" xlink:title="level">
            <rect x="313" y="3" width="48" height="32"/>
            <rect x="311" y="1" width="48" height="32" class="nonterminal"/>
            <text class="nonterminal" x="321" y="21">level</text>
         </a>
         <rect x="381" y="3" width="24" height="32" rx="10"/>
         <rect x="379" y="1" width="24" height="32" class="terminal" rx="10"/>
         <text class="terminal" x="389" y="21">,</text>
         <a xmlns:xlink="http://www.w3.org/1999/xlink" xlink:href="#optName" xlink:title="optName">
            <rect x="425" y="3" width="76" height="32"/>
            <rect x="423" y="1" width="76" height="32" class="nonterminal"/>
            <text class="nonterminal" x="433" y="21">optName</text>
         </a>
         <rect x="521" y="3" width="24" height="32" rx="10"/>
         <rect x="519" y="1" width="24" height="32" class="terminal" rx="10"/>
         <text class="terminal" x="529" y="21">,</text>
         <a xmlns:xlink="http://www.w3.org/1999/xlink" xlink:href="#optVal" xlink:title="optVal">
            <rect x="565" y="3" width="60" height="32"/>
            <rect x="563" y="1" width="60" height="32" class="nonterminal"/>
            <text class="nonterminal" x="573" y="21">optVal</text>
         </a>
         <rect x="645" y="3" width="26" height="32" rx="10"/>
         <rect x="643" y="1" width="26" height="32" class="terminal" rx="10"/>
         <text class="terminal" x="653" y="21">)</text>
         <svg:path xmlns:svg="http://www.w3.org/2000/svg" class="line" d="m17 17 h2 m0 0 h10 m138 0 h10 m0 0 h10 m60 0 h10 m0 0 h10 m24 0 h10 m0 0 h10 m48 0 h10 m0 0 h10 m24 0 h10 m0 0 h10 m76 0 h10 m0 0 h10 m24 0 h10 m0 0 h10 m60 0 h10 m0 0 h10 m26 0 h10 m3 0 h-3"/>
         <polygon points="689 17 697 13 697 21"/>
         <polygon points="689 17 681 13 681 21"/>
      </svg>
