      <svg xmlns="http://www.w3.org/2000/svg" width="548" height="198">
         <defs>
            <style type="text/css">
               @namespace "http://www.w3.org/2000/svg";
               .line                 {fill: none; stroke: #1F1F1F;}
               .bold-line            {stroke: #0A0A0A; shape-rendering: crispEdges; stroke-width:
               2; }
               .thin-line            {stroke: #0F0F0F; shape-rendering: crispEdges}
               .filled               {fill: #1F1F1F; stroke: none;}
               text.terminal         {font-family: Verdana, Sans-serif;
               font-size: 12px;
               fill: #0A0A0A;
               font-weight: bold;
               }
               text.nonterminal      {font-family: Verdana, Sans-serif; font-style: italic;
               font-size: 12px;
               fill: #0D0D0D;
               }
               text.regexp           {font-family: Verdana, Sans-serif;
               font-size: 12px;
               fill: #0F0F0F;
               }
               rect, circle, polygon {fill: #1F1F1F; stroke: #1F1F1F;}
               rect.terminal         {fill: #CCCCCC; stroke: #1F1F1F;}
               rect.nonterminal      {fill: #E3E3E3; stroke: #1F1F1F;}
               rect.text             {fill: none; stroke: none;}    
               polygon.regexp        {fill: #EFEFEF; stroke: #1F1F1F;}
               
            </style>
         </defs>
         <polygon points="11 17 3 13 3 21"/>
         <polygon points="19 17 11 13 11 21"/>
         <rect x="33" y="3" width="70" height="32" rx="10"/>
         <rect x="31" y="1" width="70" height="32" class="terminal" rx="10"/>
         <text class="terminal" x="41" y="21">EXECIO</text>
<!--     <a xmlns:xlink="http://www.w3.org/1999/xlink" xlink:href="#lines" xlink:title="lines"> -->
            <rect x="143" y="3" width="48" height="32"/>
            <rect x="141" y="1" width="48" height="32" class="nonterminal"/>
            <text class="nonterminal" x="151" y="21">lines</text>
<!--     </a> -->
         <rect x="143" y="47" width="28" height="32" rx="10"/>
         <rect x="141" y="45" width="28" height="32" class="terminal" rx="10"/>
         <text class="terminal" x="151" y="65">*</text>
         <rect x="231" y="3" width="68" height="32" rx="10"/>
         <rect x="229" y="1" width="68" height="32" class="terminal" rx="10"/>
         <text class="terminal" x="239" y="21">DISKW</text>
<!--     <a xmlns:xlink="http://www.w3.org/1999/xlink" xlink:href="#filename" xlink:title="filename"> -->
            <rect x="319" y="3" width="72" height="32"/>
            <rect x="317" y="1" width="72" height="32" class="nonterminal"/>
            <text class="nonterminal" x="327" y="21">filename</text>
<!--     </a> -->
         <rect x="45" y="133" width="26" height="32" rx="10"/>
         <rect x="43" y="131" width="26" height="32" class="terminal" rx="10"/>
         <text class="terminal" x="53" y="151">(</text>
         <rect x="111" y="165" width="58" height="32" rx="10"/>
         <rect x="109" y="163" width="58" height="32" class="terminal" rx="10"/>
         <text class="terminal" x="119" y="183">FINIS</text>
         <rect x="229" y="165" width="56" height="32" rx="10"/>
         <rect x="227" y="163" width="56" height="32" class="terminal" rx="10"/>
         <text class="terminal" x="237" y="183">STEM</text>
<!--     <a xmlns:xlink="http://www.w3.org/1999/xlink" xlink:href="#stemname." xlink:title="stemname."> -->
            <rect x="305" y="165" width="90" height="32"/>
            <rect x="303" y="163" width="90" height="32" class="nonterminal"/>
            <text class="nonterminal" x="313" y="183">stemname.</text>
<!--     </a> -->
         <rect x="455" y="165" width="26" height="32" rx="10"/>
         <rect x="453" y="163" width="26" height="32" class="terminal" rx="10"/>
         <text class="terminal" x="463" y="183">)</text>
         <svg:path xmlns:svg="http://www.w3.org/2000/svg" class="line" d="m19 17 h2 m0 0 h10 m70 0 h10 m20 0 h10 m48 0 h10 m-88 0 h20 m68 0 h20 m-108 0 q10 0 10 10 m88 0 q0 -10 10 -10 m-98 10 v24 m88 0 v-24 m-88 24 q0 10 10 10 m68 0 q10 0 10 -10 m-78 10 h10 m28 0 h10 m0 0 h20 m20 -44 h10 m68 0 h10 m0 0 h10 m72 0 h10 m2 0 l2 0 m2 0 l2 0 m2 0 l2 0 m-410 98 l2 0 m2 0 l2 0 m2 0 l2 0 m22 0 h10 m0 0 h466 m-496 0 h20 m476 0 h20 m-516 0 q10 0 10 10 m496 0 q0 -10 10 -10 m-506 10 v12 m496 0 v-12 m-496 12 q0 10 10 10 m476 0 q10 0 10 -10 m-486 10 h10 m26 0 h10 m20 0 h10 m0 0 h68 m-98 0 h20 m78 0 h20 m-118 0 q10 0 10 10 m98 0 q0 -10 10 -10 m-108 10 v12 m98 0 v-12 m-98 12 q0 10 10 10 m78 0 q10 0 10 -10 m-88 10 h10 m58 0 h10 m40 -32 h10 m0 0 h176 m-206 0 h20 m186 0 h20 m-226 0 q10 0 10 10 m206 0 q0 -10 10 -10 m-216 10 v12 m206 0 v-12 m-206 12 q0 10 10 10 m186 0 q10 0 10 -10 m-196 10 h10 m56 0 h10 m0 0 h10 m90 0 h10 m40 -32 h10 m0 0 h36 m-66 0 h20 m46 0 h20 m-86 0 q10 0 10 10 m66 0 q0 -10 10 -10 m-76 10 v12 m66 0 v-12 m-66 12 q0 10 10 10 m46 0 q10 0 10 -10 m-56 10 h10 m26 0 h10 m43 -64 h-3"/>
         <polygon points="539 115 547 111 547 119"/>
         <polygon points="539 115 531 111 531 119"/>
      </svg>
