      <svg xmlns="http://www.w3.org/2000/svg" width="334" height="156">
         <defs>
            <style type="text/css">
               @namespace "http://www.w3.org/2000/svg";
               .line                 {fill: none; stroke: #1F1F1F;}
               .bold-line            {stroke: #0A0A0A; shape-rendering: crispEdges; stroke-width:
               2; }
               .thin-line            {stroke: #0F0F0F; shape-rendering: crispEdges}
               .filled               {fill: #1F1F1F; stroke: none;}
               text.terminal         {font-family: Liberation Sans, Sans-serif;
               font-size: 13px;
               fill: #0A0A0A;
               font-weight: bold;
               }
               text.nonterminal      {font-family: Liberation Sans, Sans-serif; font-style: italic;
               font-size: 13px;
               fill: #0D0D0D;
               }
               text.regexp           {font-family: Liberation Sans, Sans-serif;
               font-size: 13px;
               fill: #0F0F0F;
               }
               rect, circle, polygon {fill: #1F1F1F; stroke: #1F1F1F;}
               rect.terminal         {fill: #CCCCCC; stroke: #1F1F1F;}
               rect.nonterminal      {fill: #E3E3E3; stroke: #1F1F1F;}
               rect.text             {fill: none; stroke: none;}    
               polygon.regexp        {fill: #EFEFEF; stroke: #1F1F1F;}
               
            </style>
         </defs>
         <polygon points="9 17 1 13 1 21"/>
         <polygon points="17 17 9 13 9 21"/>
         <rect x="31" y="3" width="98" height="32" rx="10"/>
         <rect x="29" y="1" width="98" height="32" class="terminal" rx="10"/>
         <text class="terminal" x="39" y="21">STATEMENT</text>
<!--     <a xmlns:xlink="http://www.w3.org/1999/xlink" xlink:href="#default_choice" xlink:title="default_choice"> -->
            <rect x="169" y="35" width="110" height="32"/>
            <rect x="167" y="33" width="110" height="32" class="nonterminal"/>
            <text class="nonterminal" x="177" y="53">default_choice</text>
<!--     </a> -->
<!--     <a xmlns:xlink="http://www.w3.org/1999/xlink" xlink:href="#optional_choice" xlink:title="optional_choice"> -->
            <rect x="169" y="79" width="118" height="32"/>
            <rect x="167" y="77" width="118" height="32" class="nonterminal"/>
            <text class="nonterminal" x="177" y="97">optional_choice</text>
<!--     </a> -->
<!--     <a xmlns:xlink="http://www.w3.org/1999/xlink" xlink:href="#optional_choice" xlink:title="optional_choice"> -->
            <rect x="169" y="123" width="118" height="32"/>
            <rect x="167" y="121" width="118" height="32" class="nonterminal"/>
            <text class="nonterminal" x="177" y="141">optional_choice</text>
<!--     </a> -->
         <svg:path xmlns:svg="http://www.w3.org/2000/svg" class="line" d="m17 17 h2 m0 0 h10 m98 0 h10 m20 0 h10 m0 0 h128 m-158 0 h20 m138 0 h20 m-178 0 q10 0 10 10 m158 0 q0 -10 10 -10 m-168 10 v12 m158 0 v-12 m-158 12 q0 10 10 10 m138 0 q10 0 10 -10 m-148 10 h10 m110 0 h10 m0 0 h8 m-148 -10 v20 m158 0 v-20 m-158 20 v24 m158 0 v-24 m-158 24 q0 10 10 10 m138 0 q10 0 10 -10 m-148 10 h10 m118 0 h10 m-148 -10 v20 m158 0 v-20 m-158 20 v24 m158 0 v-24 m-158 24 q0 10 10 10 m138 0 q10 0 10 -10 m-148 10 h10 m118 0 h10 m23 -120 h-3"/>
         <polygon points="325 17 333 13 333 21"/>
         <polygon points="325 17 317 13 317 21"/>
      </svg>
