      <svg xmlns="http://www.w3.org/2000/svg" width="682" height="100">
         <defs>
            <style type="text/css">
               @namespace "http://www.w3.org/2000/svg";
               .line                 {fill: none; stroke: #1F1F1F;}
               .bold-line            {stroke: #0A0A0A; shape-rendering: crispEdges; stroke-width:
               2; }
               .thin-line            {stroke: #0F0F0F; shape-rendering: crispEdges}
               .filled               {fill: #1F1F1F; stroke: none;}
               text.terminal         {font-family: Verdana, Sans-serif;
               font-size: 12px;
               fill: #0A0A0A;
               font-weight: bold;
               }
               text.nonterminal      {font-family: Verdana, Sans-serif; font-style: italic;
               font-size: 12px;
               fill: #0D0D0D;
               }
               text.regexp           {font-family: Verdana, Sans-serif;
               font-size: 12px;
               fill: #0F0F0F;
               }
               rect, circle, polygon {fill: #1F1F1F; stroke: #1F1F1F;}
               rect.terminal         {fill: #CCCCCC; stroke: #1F1F1F;}
               rect.nonterminal      {fill: #E3E3E3; stroke: #1F1F1F;}
               rect.text             {fill: none; stroke: none;}    
               polygon.regexp        {fill: #EFEFEF; stroke: #1F1F1F;}
               
            </style>
         </defs>
         <polygon points="9 17 1 13 1 21"/>
         <polygon points="17 17 9 13 9 21"/>
         <rect x="31" y="3" width="54" height="32" rx="10"/>
         <rect x="29" y="1" width="54" height="32" class="terminal" rx="10"/>
         <text class="terminal" x="39" y="21">new(</text>
<!--     <a xmlns:xlink="http://www.w3.org/1999/xlink" xlink:href="#valueObject" xlink:title="valueObject"> -->
            <rect x="105" y="3" width="94" height="32"/>
            <rect x="103" y="1" width="94" height="32" class="nonterminal"/>
            <text class="nonterminal" x="113" y="21">valueObject</text>
<!--     </a> -->
         <rect x="239" y="35" width="24" height="32" rx="10"/>
         <rect x="237" y="33" width="24" height="32" class="terminal" rx="10"/>
         <text class="terminal" x="247" y="53">,</text>
<!--     <a xmlns:xlink="http://www.w3.org/1999/xlink" xlink:href="#varType" xlink:title="varType"> -->
            <rect x="303" y="67" width="70" height="32"/>
            <rect x="301" y="65" width="70" height="32" class="nonterminal"/>
            <text class="nonterminal" x="311" y="85">varType</text>
<!--     </a> -->
         <rect x="433" y="67" width="24" height="32" rx="10"/>
         <rect x="431" y="65" width="24" height="32" class="terminal" rx="10"/>
         <text class="terminal" x="441" y="85">,</text>
<!--     <a xmlns:xlink="http://www.w3.org/1999/xlink" xlink:href="#paramFlags" xlink:title="paramFlags"> -->
            <rect x="477" y="67" width="92" height="32"/>
            <rect x="475" y="65" width="92" height="32" class="nonterminal"/>
            <text class="nonterminal" x="485" y="85">paramFlags</text>
<!--     </a> -->
         <rect x="629" y="3" width="26" height="32" rx="10"/>
         <rect x="627" y="1" width="26" height="32" class="terminal" rx="10"/>
         <text class="terminal" x="637" y="21">)</text>
         <svg:path xmlns:svg="http://www.w3.org/2000/svg" class="line" d="m17 17 h2 m0 0 h10 m54 0 h10 m0 0 h10 m94 0 h10 m20 0 h10 m0 0 h360 m-390 0 h20 m370 0 h20 m-410 0 q10 0 10 10 m390 0 q0 -10 10 -10 m-400 10 v12 m390 0 v-12 m-390 12 q0 10 10 10 m370 0 q10 0 10 -10 m-380 10 h10 m24 0 h10 m20 0 h10 m0 0 h80 m-110 0 h20 m90 0 h20 m-130 0 q10 0 10 10 m110 0 q0 -10 10 -10 m-120 10 v12 m110 0 v-12 m-110 12 q0 10 10 10 m90 0 q10 0 10 -10 m-100 10 h10 m70 0 h10 m40 -32 h10 m0 0 h146 m-176 0 h20 m156 0 h20 m-196 0 q10 0 10 10 m176 0 q0 -10 10 -10 m-186 10 v12 m176 0 v-12 m-176 12 q0 10 10 10 m156 0 q10 0 10 -10 m-166 10 h10 m24 0 h10 m0 0 h10 m92 0 h10 m40 -64 h10 m26 0 h10 m3 0 h-3"/>
         <polygon points="673 17 681 13 681 21"/>
         <polygon points="673 17 665 13 665 21"/>
      </svg>
