<svg xmlns="http://www.w3.org/2000/svg" width="531" height="69">
         <defs>
            <style type="text/css">
    @namespace "http://www.w3.org/2000/svg";
    .line                 {fill: none; stroke: #1F1F1F; stroke-width: 1;}
    .bold-line            {stroke: #0A0A0A; shape-rendering: crispEdges; stroke-width: 2;}
    .thin-line            {stroke: #0F0F0F; shape-rendering: crispEdges}
    .filled               {fill: #1F1F1F; stroke: none;}
    text.terminal         {font-family: Verdana, Sans-serif;
                            font-size: 12px;
                            fill: #0A0A0A;
                            font-weight: bold;
                          }
    text.nonterminal      {font-family: Verdana, Sans-serif; font-style: italic;
                            font-size: 12px;
                            fill: #0D0D0D;
                            font-weight: normal;
                          }
    text.regexp           {font-family: Verdana, Sans-serif;
                            font-size: 12px;
                            fill: #0F0F0F;
                            font-weight: normal;
                          }
    rect, circle, polygon {fill: #1F1F1F; stroke: #1F1F1F;}
    rect.terminal         {fill: #cccccc; stroke: #1F1F1F; stroke-width: 1;}
    rect.nonterminal      {fill: #E3E3E3; stroke: #1F1F1F; stroke-width: 1;}
    rect.text             {fill: none; stroke: none;}
    polygon.regexp        {fill: #EFEFEF; stroke: #1F1F1F; stroke-width: 1;}
  </style>
         </defs>
         <polygon points="9 17 1 13 1 21"/>
         <polygon points="17 17 9 13 9 21"/>
         <rect x="31" y="3" width="56" height="32" rx="10"/>
         <rect x="29" y="1" width="56" height="32" class="terminal" rx="10"/>
         <text class="terminal" x="39" y="21">rexxc</text>
<!--  <a xmlns:xlink="http://www.w3.org/1999/xlink" xlink:href="#inputfile" xlink:title="inputfile"> -->
            <rect x="107" y="3" width="70" height="32"/>
            <rect x="105" y="1" width="70" height="32" class="nonterminal"/>
            <text class="nonterminal" x="115" y="21">inputfile</text><!-- </a> -->
<!--  <a xmlns:xlink="http://www.w3.org/1999/xlink" xlink:href="#outputfile" xlink:title="outputfile"> -->
            <rect x="217" y="35" width="80" height="32"/>
            <rect x="215" y="33" width="80" height="32" class="nonterminal"/>
            <text class="nonterminal" x="225" y="53">outputfile</text><!-- </a> -->
<rect x="357" y="35" width="32" height="32" rx="10"/>
         <rect x="355" y="33" width="32" height="32" class="terminal" rx="10"/>
         <text class="terminal" x="365" y="53">-s</text>
         <rect x="449" y="35" width="34" height="32" rx="10"/>
         <rect x="447" y="33" width="34" height="32" class="terminal" rx="10"/>
         <text class="terminal" x="457" y="53">-e</text>
         <svg:path xmlns:svg="http://www.w3.org/2000/svg" class="line" d="m17 17 h2 m0 0 h10 m56 0 h10 m0 0 h10 m70 0 h10 m20 0 h10 m0 0 h90 m-120 0 h20 m100 0 h20 m-140 0 q10 0 10 10 m120 0 q0 -10 10 -10 m-130 10 v12 m120 0 v-12 m-120 12 q0 10 10 10 m100 0 q10 0 10 -10 m-110 10 h10 m80 0 h10 m40 -32 h10 m0 0 h42 m-72 0 h20 m52 0 h20 m-92 0 q10 0 10 10 m72 0 q0 -10 10 -10 m-82 10 v12 m72 0 v-12 m-72 12 q0 10 10 10 m52 0 q10 0 10 -10 m-62 10 h10 m32 0 h10 m40 -32 h10 m0 0 h44 m-74 0 h20 m54 0 h20 m-94 0 q10 0 10 10 m74 0 q0 -10 10 -10 m-84 10 v12 m74 0 v-12 m-74 12 q0 10 10 10 m54 0 q10 0 10 -10 m-64 10 h10 m34 0 h10 m23 -32 h-3"/>
         <polygon points="521 17 529 13 529 21"/>
         <polygon points="521 17 513 13 513 21"/></svg>
