<svg xmlns="http://www.w3.org/2000/svg" width="457" height="69">
         <defs>
            <style type="text/css">
               @namespace "http://www.w3.org/2000/svg";
               .line                 {fill: none; stroke: #1F1F1F;}
               .bold-line            {stroke: #0A0A0A; shape-rendering: crispEdges; stroke-width:
               2; }
               .thin-line            {stroke: #0F0F0F; shape-rendering: crispEdges}
               .filled               {fill: #1F1F1F; stroke: none;}
               text.terminal         {font-family: Verdana, Sans-serif;
               font-size: 12px;
               fill: #0A0A0A;
               font-weight: bold;
               }
               text.nonterminal      {font-family: Verdana, Sans-serif; font-style: italic;
               font-size: 12px;
               fill: #0D0D0D;
               }
               text.regexp           {font-family: Verdana, Sans-serif;
               font-size: 12px;
               fill: #0F0F0F;
               }
               rect, circle, polygon {fill: #1F1F1F; stroke: #1F1F1F;}
               rect.terminal         {fill: #CCCCCC; stroke: #1F1F1F;}
               rect.nonterminal      {fill: #E3E3E3; stroke: #1F1F1F;}
               rect.text             {fill: none; stroke: none;}
               polygon.regexp        {fill: #EFEFEF; stroke: #1F1F1F;}

            </style>
         </defs>

         <polygon points="9 17 1 13 1 21"></polygon>
         <polygon points="17 17 9 13 9 21"></polygon>
         <rect x="31" y="3" width="78" height="32" rx="10"></rect>
         <rect x="29" y="1" width="78" height="32" class="terminal" rx="10"></rect>
         <text class="terminal" x="39" y="21">toJSON(</text><a xmlns:xlink="http://www.w3.org/1999/xlink" xlink:href="#rexxObject" xlink:title="rexxObject">
            <rect x="129" y="3" width="88" height="32"></rect>
            <rect x="127" y="1" width="88" height="32" class="nonterminal"></rect>
            <text class="nonterminal" x="137" y="21">rexxObject</text></a><rect x="257" y="35" width="24" height="32" rx="10"></rect>
         <rect x="255" y="33" width="24" height="32" class="terminal" rx="10"></rect>
         <text class="terminal" x="265" y="53">,</text><a xmlns:xlink="http://www.w3.org/1999/xlink" xlink:href="#legible" xlink:title="legible">
            <rect x="301" y="35" width="62" height="32"></rect>
            <rect x="299" y="33" width="62" height="32" class="nonterminal"></rect>
            <text class="nonterminal" x="309" y="53">legible</text></a><rect x="403" y="3" width="26" height="32" rx="10"></rect>
         <rect x="401" y="1" width="26" height="32" class="terminal" rx="10"></rect>
         <text class="terminal" x="411" y="21">)</text>
         <path class="line" d="m17 17 h2 m0 0 h10 m78 0 h10 m0 0 h10 m88 0 h10 m20 0 h10 m0 0 h116 m-146 0 h20 m126 0 h20 m-166 0 q10 0 10 10 m146 0 q0 -10 10 -10 m-156 10 v12 m146 0 v-12 m-146 12 q0 10 10 10 m126 0 q10 0 10 -10 m-136 10 h10 m24 0 h10 m0 0 h10 m62 0 h10 m20 -32 h10 m26 0 h10 m3 0 h-3"></path>
         <polygon points="447 17 455 13 455 21"></polygon>
         <polygon points="447 17 439 13 439 21"></polygon>
</svg>