<svg xmlns="http://www.w3.org/2000/svg" width="573" height="113">
         <defs>
            <style type="text/css">
               @namespace "http://www.w3.org/2000/svg";
               .line                 {fill: none; stroke: #1F1F1F;}
               .bold-line            {stroke: #0A0A0A; shape-rendering: crispEdges; stroke-width:
               2; }
               .thin-line            {stroke: #0F0F0F; shape-rendering: crispEdges}
               .filled               {fill: #1F1F1F; stroke: none;}
               text.terminal         {font-family: Verdana, Sans-serif;
               font-size: 12px;
               fill: #0A0A0A;
               font-weight: bold;
               }
               text.nonterminal      {font-family: Verdana, Sans-serif; font-style: italic;
               font-size: 12px;
               fill: #0D0D0D;
               }
               text.regexp           {font-family: Verdana, Sans-serif;
               font-size: 12px;
               fill: #0F0F0F;
               }
               rect, circle, polygon {fill: #1F1F1F; stroke: #1F1F1F;}
               rect.terminal         {fill: #CCCCCC; stroke: #1F1F1F;}
               rect.nonterminal      {fill: #E3E3E3; stroke: #1F1F1F;}
               rect.text             {fill: none; stroke: none;}
               polygon.regexp        {fill: #EFEFEF; stroke: #1F1F1F;}

            </style>
         </defs>

         <polygon points="9 17 1 13 1 21"/>
         <polygon points="17 17 9 13 9 21"/>
         <rect x="31" y="3" width="78" height="32" rx="10"/>
         <rect x="29" y="1" width="78" height="32" class="terminal" rx="10"/>
         <text class="terminal" x="39" y="21">toJSON(</text><a xmlns:xlink="http://www.w3.org/1999/xlink" xlink:href="#rexxObject" xlink:title="rexxObject">
            <rect x="129" y="3" width="88" height="32"/>
            <rect x="127" y="1" width="88" height="32" class="nonterminal"/>
            <text class="nonterminal" x="137" y="21">rexxObject</text></a><rect x="257" y="35" width="24" height="32" rx="10"/>
         <rect x="255" y="33" width="24" height="32" class="terminal" rx="10"/>
         <text class="terminal" x="265" y="53">,</text><a xmlns:xlink="http://www.w3.org/1999/xlink" xlink:href="#legible" xlink:title="legible">
            <rect x="301" y="35" width="62" height="32"/>
            <rect x="299" y="33" width="62" height="32" class="nonterminal"/>
            <text class="nonterminal" x="309" y="53">legible</text></a><rect x="403" y="35" width="56" height="32" rx="10"/>
         <rect x="401" y="33" width="56" height="32" class="terminal" rx="10"/>
         <text class="terminal" x="411" y="53">.false</text>
         <line class="bold-line" x1="412" y1="56" x2="448" y2="56"/>
         <rect x="403" y="79" width="52" height="32" rx="10"/>
         <rect x="401" y="77" width="52" height="32" class="terminal" rx="10"/>
         <text class="terminal" x="411" y="97">.true</text>
         <rect x="519" y="3" width="26" height="32" rx="10"/>
         <rect x="517" y="1" width="26" height="32" class="terminal" rx="10"/>
         <text class="terminal" x="527" y="21">)</text>
         <path class="line" d="m17 17 h2 m0 0 h10 m78 0 h10 m0 0 h10 m88 0 h10 m20 0 h10 m0 0 h232 m-262 0 h20 m242 0 h20 m-282 0 q10 0 10 10 m262 0 q0 -10 10 -10 m-272 10 v12 m262 0 v-12 m-262 12 q0 10 10 10 m242 0 q10 0 10 -10 m-252 10 h10 m24 0 h10 m0 0 h10 m62 0 h10 m20 0 h10 m56 0 h10 m-96 0 h20 m76 0 h20 m-116 0 q10 0 10 10 m96 0 q0 -10 10 -10 m-106 10 v24 m96 0 v-24 m-96 24 q0 10 10 10 m76 0 q10 0 10 -10 m-86 10 h10 m52 0 h10 m0 0 h4 m40 -76 h10 m26 0 h10 m3 0 h-3"/>
         <polygon points="563 17 571 13 571 21"/>
         <polygon points="563 17 555 13 555 21"/>
</svg>