      <svg xmlns="http://www.w3.org/2000/svg" width="840" height="36">
         <defs>
            <style type="text/css">
               @namespace "http://www.w3.org/2000/svg";
               .line                 {fill: none; stroke: #1F1F1F;}
               .bold-line            {stroke: #0A0A0A; shape-rendering: crispEdges; stroke-width:
               2; }
               .thin-line            {stroke: #0F0F0F; shape-rendering: crispEdges}
               .filled               {fill: #1F1F1F; stroke: none;}
               text.terminal         {font-family: Verdana, Sans-serif;
               font-size: 12px;
               fill: #0A0A0A;
               font-weight: bold;
               }
               text.nonterminal      {font-family: Verdana, Sans-serif;
               font-size: 12px;
               fill: #0D0D0D;
               }
               text.regexp           {font-family: Verdana, Sans-serif;
               font-size: 12px;
               fill: #0F0F0F;
               }
               rect, circle, polygon {fill: #1F1F1F; stroke: #1F1F1F;}
               rect.terminal         {fill: #CCCCCC; stroke: #1F1F1F;}
               rect.nonterminal      {fill: #E3E3E3; stroke: #1F1F1F;}
               rect.text             {fill: none; stroke: none;}    
               polygon.regexp        {fill: #EFEFEF; stroke: #1F1F1F;}
               
            </style>
         </defs>
         <polygon points="9 17 1 13 1 21"/>
         <polygon points="17 17 9 13 9 21"/>
         <rect x="31" y="3" width="24" height="32" rx="10"/>
         <rect x="29" y="1" width="24" height="32" class="terminal" rx="10"/>
         <text class="terminal" x="39" y="21">.</text>
         <a xmlns:xlink="http://www.w3.org/1999/xlink" xlink:href="#Window" xlink:title="Window">
            <rect x="75" y="3" width="70" height="32"/>
            <rect x="73" y="1" width="70" height="32" class="nonterminal"/>
            <text class="nonterminal" x="83" y="21">Window</text>
         </a>
         <rect x="165" y="3" width="30" height="32" rx="10"/>
         <rect x="163" y="1" width="30" height="32" class="terminal" rx="10"/>
         <text class="terminal" x="173" y="21">~</text>
         <a xmlns:xlink="http://www.w3.org/1999/xlink" xlink:href="#new" xlink:title="new">
            <rect x="215" y="3" width="46" height="32"/>
            <rect x="213" y="1" width="46" height="32" class="nonterminal"/>
            <text class="nonterminal" x="223" y="21">new</text>
         </a>
         <rect x="281" y="3" width="26" height="32" rx="10"/>
         <rect x="279" y="1" width="26" height="32" class="terminal" rx="10"/>
         <text class="terminal" x="289" y="21">(</text>
         <a xmlns:xlink="http://www.w3.org/1999/xlink" xlink:href="#nlines" xlink:title="nlines">
            <rect x="327" y="3" width="56" height="32"/>
            <rect x="325" y="1" width="56" height="32" class="nonterminal"/>
            <text class="nonterminal" x="335" y="21">nlines</text>
         </a>
         <rect x="403" y="3" width="24" height="32" rx="10"/>
         <rect x="401" y="1" width="24" height="32" class="terminal" rx="10"/>
         <text class="terminal" x="411" y="21">,</text>
         <a xmlns:xlink="http://www.w3.org/1999/xlink" xlink:href="#ncols" xlink:title="ncols">
            <rect x="447" y="3" width="52" height="32"/>
            <rect x="445" y="1" width="52" height="32" class="nonterminal"/>
            <text class="nonterminal" x="455" y="21">ncols</text>
         </a>
         <rect x="519" y="3" width="24" height="32" rx="10"/>
         <rect x="517" y="1" width="24" height="32" class="terminal" rx="10"/>
         <text class="terminal" x="527" y="21">,</text>
         <a xmlns:xlink="http://www.w3.org/1999/xlink" xlink:href="#begin_y" xlink:title="begin_y">
            <rect x="563" y="3" width="70" height="32"/>
            <rect x="561" y="1" width="70" height="32" class="nonterminal"/>
            <text class="nonterminal" x="571" y="21">begin_y</text>
         </a>
         <rect x="653" y="3" width="24" height="32" rx="10"/>
         <rect x="651" y="1" width="24" height="32" class="terminal" rx="10"/>
         <text class="terminal" x="661" y="21">,</text>
         <a xmlns:xlink="http://www.w3.org/1999/xlink" xlink:href="#begin_x" xlink:title="begin_x">
            <rect x="697" y="3" width="70" height="32"/>
            <rect x="695" y="1" width="70" height="32" class="nonterminal"/>
            <text class="nonterminal" x="705" y="21">begin_x</text>
         </a>
         <rect x="787" y="3" width="26" height="32" rx="10"/>
         <rect x="785" y="1" width="26" height="32" class="terminal" rx="10"/>
         <text class="terminal" x="795" y="21">)</text>
         <svg:path xmlns:svg="http://www.w3.org/2000/svg" class="line" d="m17 17 h2 m0 0 h10 m24 0 h10 m0 0 h10 m70 0 h10 m0 0 h10 m30 0 h10 m0 0 h10 m46 0 h10 m0 0 h10 m26 0 h10 m0 0 h10 m56 0 h10 m0 0 h10 m24 0 h10 m0 0 h10 m52 0 h10 m0 0 h10 m24 0 h10 m0 0 h10 m70 0 h10 m0 0 h10 m24 0 h10 m0 0 h10 m70 0 h10 m0 0 h10 m26 0 h10 m3 0 h-3"/>
         <polygon points="831 17 839 13 839 21"/>
         <polygon points="831 17 823 13 823 21"/>
      </svg>
