      <svg xmlns="http://www.w3.org/2000/svg" width="788" height="68">
         <defs>
            <style type="text/css">
               @namespace "http://www.w3.org/2000/svg";
               .line                 {fill: none; stroke: #1F1F1F;}
               .bold-line            {stroke: #0A0A0A; shape-rendering: crispEdges; stroke-width:
               2; }
               .thin-line            {stroke: #0F0F0F; shape-rendering: crispEdges}
               .filled               {fill: #1F1F1F; stroke: none;}
               text.terminal         {font-family: Verdana, Sans-serif;
               font-size: 12px;
               fill: #0A0A0A;
               font-weight: bold;
               }
               text.nonterminal      {font-family: Verdana, Sans-serif; font-style: italic;
               font-size: 12px;
               fill: #0D0D0D;
               }
               text.regexp           {font-family: Verdana, Sans-serif;
               font-size: 12px;
               fill: #0F0F0F;
               }
               rect, circle, polygon {fill: #1F1F1F; stroke: #1F1F1F;}
               rect.terminal         {fill: #CCCCCC; stroke: #1F1F1F;}
               rect.nonterminal      {fill: #E3E3E3; stroke: #1F1F1F;}
               rect.text             {fill: none; stroke: none;}    
               polygon.regexp        {fill: #EFEFEF; stroke: #1F1F1F;}
               
            </style>
         </defs>
         <polygon points="9 17 1 13 1 21"/>
         <polygon points="17 17 9 13 9 21"/>
         <rect x="31" y="3" width="60" height="32" rx="10"/>
         <rect x="29" y="1" width="60" height="32" class="terminal" rx="10"/>
         <text class="terminal" x="39" y="21">clear(</text>
<!--     <a xmlns:xlink="http://www.w3.org/1999/xlink" xlink:href="#srvr" xlink:title="srvr"> -->
            <rect x="131" y="35" width="44" height="32"/>
            <rect x="129" y="33" width="44" height="32" class="nonterminal"/>
            <text class="nonterminal" x="139" y="53">srvr</text>
<!--     </a> -->
         <rect x="215" y="3" width="24" height="32" rx="10"/>
         <rect x="213" y="1" width="24" height="32" class="terminal" rx="10"/>
         <text class="terminal" x="223" y="21">,</text>
<!--     <a xmlns:xlink="http://www.w3.org/1999/xlink" xlink:href="#src" xlink:title="src"> -->
            <rect x="279" y="35" width="38" height="32"/>
            <rect x="277" y="33" width="38" height="32" class="nonterminal"/>
            <text class="nonterminal" x="287" y="53">src</text>
<!--     </a> -->
         <rect x="357" y="3" width="24" height="32" rx="10"/>
         <rect x="355" y="1" width="24" height="32" class="terminal" rx="10"/>
         <text class="terminal" x="365" y="21">,</text>
<!--     <a xmlns:xlink="http://www.w3.org/1999/xlink" xlink:href="#type" xlink:title="type"> -->
            <rect x="421" y="35" width="48" height="32"/>
            <rect x="419" y="33" width="48" height="32" class="nonterminal"/>
            <text class="nonterminal" x="429" y="53">type</text>
<!--     </a> -->
         <rect x="509" y="3" width="24" height="32" rx="10"/>
         <rect x="507" y="1" width="24" height="32" class="terminal" rx="10"/>
         <text class="terminal" x="517" y="21">,</text>
<!--     <a xmlns:xlink="http://www.w3.org/1999/xlink" xlink:href="#backupFileName" xlink:title="backupFileName"> -->
            <rect x="573" y="35" width="122" height="32"/>
            <rect x="571" y="33" width="122" height="32" class="nonterminal"/>
            <text class="nonterminal" x="581" y="53">backupFileName</text>
<!--     </a> -->
         <rect x="735" y="3" width="26" height="32" rx="10"/>
         <rect x="733" y="1" width="26" height="32" class="terminal" rx="10"/>
         <text class="terminal" x="743" y="21">)</text>
         <svg:path xmlns:svg="http://www.w3.org/2000/svg" class="line" d="m17 17 h2 m0 0 h10 m60 0 h10 m20 0 h10 m0 0 h54 m-84 0 h20 m64 0 h20 m-104 0 q10 0 10 10 m84 0 q0 -10 10 -10 m-94 10 v12 m84 0 v-12 m-84 12 q0 10 10 10 m64 0 q10 0 10 -10 m-74 10 h10 m44 0 h10 m20 -32 h10 m24 0 h10 m20 0 h10 m0 0 h48 m-78 0 h20 m58 0 h20 m-98 0 q10 0 10 10 m78 0 q0 -10 10 -10 m-88 10 v12 m78 0 v-12 m-78 12 q0 10 10 10 m58 0 q10 0 10 -10 m-68 10 h10 m38 0 h10 m20 -32 h10 m24 0 h10 m20 0 h10 m0 0 h58 m-88 0 h20 m68 0 h20 m-108 0 q10 0 10 10 m88 0 q0 -10 10 -10 m-98 10 v12 m88 0 v-12 m-88 12 q0 10 10 10 m68 0 q10 0 10 -10 m-78 10 h10 m48 0 h10 m20 -32 h10 m24 0 h10 m20 0 h10 m0 0 h132 m-162 0 h20 m142 0 h20 m-182 0 q10 0 10 10 m162 0 q0 -10 10 -10 m-172 10 v12 m162 0 v-12 m-162 12 q0 10 10 10 m142 0 q10 0 10 -10 m-152 10 h10 m122 0 h10 m20 -32 h10 m26 0 h10 m3 0 h-3"/>
         <polygon points="779 17 787 13 787 21"/>
         <polygon points="779 17 771 13 771 21"/>
      </svg>
