      <svg xmlns="http://www.w3.org/2000/svg" width="1300" height="288">
         <defs>
            <style type="text/css">
               @namespace "http://www.w3.org/2000/svg";
               .line                 {fill: none; stroke: #1F1F1F;}
               .bold-line            {stroke: #0A0A0A; shape-rendering: crispEdges; stroke-width:
               2; }
               .thin-line            {stroke: #0F0F0F; shape-rendering: crispEdges}
               .filled               {fill: #1F1F1F; stroke: none;}
               text.terminal         {font-family: Verdana, Sans-serif;
               font-size: 12px;
               fill: #0A0A0A;
               font-weight: bold;
               }
               text.nonterminal      {font-family: Verdana, Sans-serif;
               font-size: 12px;
               fill: #0D0D0D;
               }
               text.regexp           {font-family: Verdana, Sans-serif;
               font-size: 12px;
               fill: #0F0F0F;
               }
               rect, circle, polygon {fill: #1F1F1F; stroke: #1F1F1F;}
               rect.terminal         {fill: #CCCCCC; stroke: #1F1F1F;}
               rect.nonterminal      {fill: #E3E3E3; stroke: #1F1F1F;}
               rect.text             {fill: none; stroke: none;}    
               polygon.regexp        {fill: #EFEFEF; stroke: #1F1F1F;}
               
            </style>
         </defs>
         <polygon points="9 17 1 13 1 21"/>
         <polygon points="17 17 9 13 9 21"/>
         <rect x="31" y="3" width="106" height="32" rx="10"/>
         <rect x="29" y="1" width="106" height="32" class="terminal" rx="10"/>
         <text class="terminal" x="39" y="21">addShortcut(</text>
         <a xmlns:xlink="http://www.w3.org/1999/xlink" xlink:href="#name" xlink:title="name">
            <rect x="157" y="3" width="54" height="32"/>
            <rect x="155" y="1" width="54" height="32" class="nonterminal"/>
            <text class="nonterminal" x="165" y="21">name</text>
         </a>
         <rect x="231" y="3" width="24" height="32" rx="10"/>
         <rect x="229" y="1" width="24" height="32" class="terminal" rx="10"/>
         <text class="terminal" x="239" y="21">,</text>
         <a xmlns:xlink="http://www.w3.org/1999/xlink" xlink:href="#program" xlink:title="program">
            <rect x="275" y="3" width="72" height="32"/>
            <rect x="273" y="1" width="72" height="32" class="nonterminal"/>
            <text class="nonterminal" x="283" y="21">program</text>
         </a>
         <rect x="45" y="69" width="24" height="32" rx="10"/>
         <rect x="43" y="67" width="24" height="32" class="terminal" rx="10"/>
         <text class="terminal" x="53" y="87">,</text>
         <a xmlns:xlink="http://www.w3.org/1999/xlink" xlink:href="#iconfile" xlink:title="iconfile">
            <rect x="109" y="69" width="62" height="32"/>
            <rect x="107" y="67" width="62" height="32" class="nonterminal"/>
            <text class="nonterminal" x="117" y="87">iconfile</text>
         </a>
         <rect x="211" y="69" width="24" height="32" rx="10"/>
         <rect x="209" y="67" width="24" height="32" class="terminal" rx="10"/>
         <text class="terminal" x="219" y="87">,</text>
         <rect x="275" y="69" width="42" height="32" rx="10"/>
         <rect x="273" y="67" width="42" height="32" class="terminal" rx="10"/>
         <text class="terminal" x="283" y="87">"0"</text>
         <a xmlns:xlink="http://www.w3.org/1999/xlink" xlink:href="#iconr" xlink:title="iconr">
            <rect x="275" y="113" width="50" height="32"/>
            <rect x="273" y="111" width="50" height="32" class="nonterminal"/>
            <text class="nonterminal" x="283" y="131">iconr</text>
         </a>
         <rect x="365" y="69" width="24" height="32" rx="10"/>
         <rect x="363" y="67" width="24" height="32" class="terminal" rx="10"/>
         <text class="terminal" x="373" y="87">,</text>
         <a xmlns:xlink="http://www.w3.org/1999/xlink" xlink:href="#workdir" xlink:title="workdir">
            <rect x="429" y="69" width="66" height="32"/>
            <rect x="427" y="67" width="66" height="32" class="nonterminal"/>
            <text class="nonterminal" x="437" y="87">workdir</text>
         </a>
         <rect x="535" y="69" width="24" height="32" rx="10"/>
         <rect x="533" y="67" width="24" height="32" class="terminal" rx="10"/>
         <text class="terminal" x="543" y="87">,</text>
         <rect x="599" y="69" width="106" height="32" rx="10"/>
         <rect x="597" y="67" width="106" height="32" class="terminal" rx="10"/>
         <text class="terminal" x="607" y="87">"PERSONAL"</text>
         <rect x="599" y="113" width="96" height="32" rx="10"/>
         <rect x="597" y="111" width="96" height="32" class="terminal" rx="10"/>
         <text class="terminal" x="607" y="131">"COMMON"</text>
         <rect x="745" y="69" width="24" height="32" rx="10"/>
         <rect x="743" y="67" width="24" height="32" class="terminal" rx="10"/>
         <text class="terminal" x="753" y="87">,</text>
         <a xmlns:xlink="http://www.w3.org/1999/xlink" xlink:href="#args" xlink:title="args">
            <rect x="809" y="69" width="48" height="32"/>
            <rect x="807" y="67" width="48" height="32" class="nonterminal"/>
            <text class="nonterminal" x="817" y="87">args</text>
         </a>
         <rect x="897" y="69" width="24" height="32" rx="10"/>
         <rect x="895" y="67" width="24" height="32" class="terminal" rx="10"/>
         <text class="terminal" x="905" y="87">,</text>
         <a xmlns:xlink="http://www.w3.org/1999/xlink" xlink:href="#hotkey" xlink:title="hotkey">
            <rect x="961" y="69" width="62" height="32"/>
            <rect x="959" y="67" width="62" height="32" class="nonterminal"/>
            <text class="nonterminal" x="969" y="87">hotkey</text>
         </a>
         <rect x="1063" y="69" width="24" height="32" rx="10"/>
         <rect x="1061" y="67" width="24" height="32" class="terminal" rx="10"/>
         <text class="terminal" x="1071" y="87">,</text>
         <rect x="1127" y="69" width="92" height="32" rx="10"/>
         <rect x="1125" y="67" width="92" height="32" class="terminal" rx="10"/>
         <text class="terminal" x="1135" y="87">"NORMAL"</text>
         <rect x="1127" y="113" width="112" height="32" rx="10"/>
         <rect x="1125" y="111" width="112" height="32" class="terminal" rx="10"/>
         <text class="terminal" x="1135" y="131">"MAXIMIZED"</text>
         <rect x="1127" y="157" width="110" height="32" rx="10"/>
         <rect x="1125" y="155" width="110" height="32" class="terminal" rx="10"/>
         <text class="terminal" x="1135" y="175">"MINIMIZED"</text>
         <rect x="1247" y="255" width="26" height="32" rx="10"/>
         <rect x="1245" y="253" width="26" height="32" class="terminal" rx="10"/>
         <text class="terminal" x="1255" y="273">)</text>
         <svg:path xmlns:svg="http://www.w3.org/2000/svg" class="line" d="m17 17 h2 m0 0 h10 m106 0 h10 m0 0 h10 m54 0 h10 m0 0 h10 m24 0 h10 m0 0 h10 m72 0 h10 m2 0 l2 0 m2 0 l2 0 m2 0 l2 0 m-366 66 l2 0 m2 0 l2 0 m2 0 l2 0 m22 0 h10 m24 0 h10 m20 0 h10 m62 0 h10 m-102 0 h20 m82 0 h20 m-122 0 q10 0 10 10 m102 0 q0 -10 10 -10 m-112 10 v14 m102 0 v-14 m-102 14 q0 10 10 10 m82 0 q10 0 10 -10 m-92 10 h10 m0 0 h72 m20 -34 h10 m24 0 h10 m20 0 h10 m42 0 h10 m0 0 h8 m-90 0 h20 m70 0 h20 m-110 0 q10 0 10 10 m90 0 q0 -10 10 -10 m-100 10 v24 m90 0 v-24 m-90 24 q0 10 10 10 m70 0 q10 0 10 -10 m-80 10 h10 m50 0 h10 m-80 -10 v20 m90 0 v-20 m-90 20 v14 m90 0 v-14 m-90 14 q0 10 10 10 m70 0 q10 0 10 -10 m-80 10 h10 m0 0 h60 m20 -78 h10 m24 0 h10 m20 0 h10 m66 0 h10 m-106 0 h20 m86 0 h20 m-126 0 q10 0 10 10 m106 0 q0 -10 10 -10 m-116 10 v14 m106 0 v-14 m-106 14 q0 10 10 10 m86 0 q10 0 10 -10 m-96 10 h10 m0 0 h76 m20 -34 h10 m24 0 h10 m20 0 h10 m106 0 h10 m-146 0 h20 m126 0 h20 m-166 0 q10 0 10 10 m146 0 q0 -10 10 -10 m-156 10 v24 m146 0 v-24 m-146 24 q0 10 10 10 m126 0 q10 0 10 -10 m-136 10 h10 m96 0 h10 m0 0 h10 m-136 -10 v20 m146 0 v-20 m-146 20 v14 m146 0 v-14 m-146 14 q0 10 10 10 m126 0 q10 0 10 -10 m-136 10 h10 m0 0 h116 m20 -78 h10 m24 0 h10 m20 0 h10 m48 0 h10 m-88 0 h20 m68 0 h20 m-108 0 q10 0 10 10 m88 0 q0 -10 10 -10 m-98 10 v14 m88 0 v-14 m-88 14 q0 10 10 10 m68 0 q10 0 10 -10 m-78 10 h10 m0 0 h58 m20 -34 h10 m24 0 h10 m20 0 h10 m62 0 h10 m-102 0 h20 m82 0 h20 m-122 0 q10 0 10 10 m102 0 q0 -10 10 -10 m-112 10 v14 m102 0 v-14 m-102 14 q0 10 10 10 m82 0 q10 0 10 -10 m-92 10 h10 m0 0 h72 m20 -34 h10 m24 0 h10 m20 0 h10 m92 0 h10 m0 0 h20 m-152 0 h20 m132 0 h20 m-172 0 q10 0 10 10 m152 0 q0 -10 10 -10 m-162 10 v24 m152 0 v-24 m-152 24 q0 10 10 10 m132 0 q10 0 10 -10 m-142 10 h10 m112 0 h10 m-142 -10 v20 m152 0 v-20 m-152 20 v24 m152 0 v-24 m-152 24 q0 10 10 10 m132 0 q10 0 10 -10 m-142 10 h10 m110 0 h10 m0 0 h2 m-142 -10 v20 m152 0 v-20 m-152 20 v14 m152 0 v-14 m-152 14 q0 10 10 10 m132 0 q10 0 10 -10 m-142 10 h10 m0 0 h122 m-1234 -122 h20 m1234 0 h20 m-1274 0 q10 0 10 10 m1254 0 q0 -10 10 -10 m-1264 10 v118 m1254 0 v-118 m-1254 118 q0 10 10 10 m1234 0 q10 0 10 -10 m-1244 10 h10 m0 0 h1224 m22 -138 l2 0 m2 0 l2 0 m2 0 l2 0 m-76 186 l2 0 m2 0 l2 0 m2 0 l2 0 m2 0 h10 m26 0 h10 m3 0 h-3"/>
         <polygon points="1291 269 1299 265 1299 273"/>
         <polygon points="1291 269 1283 265 1283 273"/>
      </svg>
