      <svg xmlns="http://www.w3.org/2000/svg" width="1380" height="304">
         <defs>
            <style type="text/css">
               @namespace "http://www.w3.org/2000/svg";
               .line                 {fill: none; stroke: #1F1F1F;}
               .bold-line            {stroke: #0A0A0A; shape-rendering: crispEdges; stroke-width:
               2; }
               .thin-line            {stroke: #0F0F0F; shape-rendering: crispEdges}
               .filled               {fill: #1F1F1F; stroke: none;}
               text.terminal         {font-family: Verdana, Sans-serif;
               font-size: 12px;
               fill: #0A0A0A;
               font-weight: bold;
               }
               text.nonterminal      {font-family: Verdana, Sans-serif;
               font-size: 12px;
               fill: #0D0D0D;
               }
               text.regexp           {font-family: Verdana, Sans-serif;
               font-size: 12px;
               fill: #0F0F0F;
               }
               rect, circle, polygon {fill: #1F1F1F; stroke: #1F1F1F;}
               rect.terminal         {fill: #CCCCCC; stroke: #1F1F1F;}
               rect.nonterminal      {fill: #E3E3E3; stroke: #1F1F1F;}
               rect.text             {fill: none; stroke: none;}    
               polygon.regexp        {fill: #EFEFEF; stroke: #1F1F1F;}
               
            </style>
         </defs>
         <polygon points="9 17 1 13 1 21"/>
         <polygon points="17 17 9 13 9 21"/>
         <rect x="31" y="3" width="134" height="32" rx="10"/>
         <rect x="29" y="1" width="134" height="32" class="terminal" rx="10"/>
         <text class="terminal" x="39" y="21">addDesktopIcon(</text>
         <a xmlns:xlink="http://www.w3.org/1999/xlink" xlink:href="#name" xlink:title="name">
            <rect x="185" y="3" width="54" height="32"/>
            <rect x="183" y="1" width="54" height="32" class="nonterminal"/>
            <text class="nonterminal" x="193" y="21">name</text>
         </a>
         <rect x="259" y="3" width="24" height="32" rx="10"/>
         <rect x="257" y="1" width="24" height="32" class="terminal" rx="10"/>
         <text class="terminal" x="267" y="21">,</text>
         <a xmlns:xlink="http://www.w3.org/1999/xlink" xlink:href="#program" xlink:title="program">
            <rect x="303" y="3" width="72" height="32"/>
            <rect x="301" y="1" width="72" height="32" class="nonterminal"/>
            <text class="nonterminal" x="311" y="21">program</text>
         </a>
         <rect x="65" y="69" width="24" height="32" rx="10"/>
         <rect x="63" y="67" width="24" height="32" class="terminal" rx="10"/>
         <text class="terminal" x="73" y="87">,</text>
         <a xmlns:xlink="http://www.w3.org/1999/xlink" xlink:href="#iconfile" xlink:title="iconfile">
            <rect x="129" y="69" width="62" height="32"/>
            <rect x="127" y="67" width="62" height="32" class="nonterminal"/>
            <text class="nonterminal" x="137" y="87">iconfile</text>
         </a>
         <rect x="231" y="69" width="24" height="32" rx="10"/>
         <rect x="229" y="67" width="24" height="32" class="terminal" rx="10"/>
         <text class="terminal" x="239" y="87">,</text>
         <rect x="295" y="69" width="42" height="32" rx="10"/>
         <rect x="293" y="67" width="42" height="32" class="terminal" rx="10"/>
         <text class="terminal" x="303" y="87">"0"</text>
         <a xmlns:xlink="http://www.w3.org/1999/xlink" xlink:href="#iconr" xlink:title="iconr">
            <rect x="295" y="113" width="50" height="32"/>
            <rect x="293" y="111" width="50" height="32" class="nonterminal"/>
            <text class="nonterminal" x="303" y="131">iconr</text>
         </a>
         <rect x="425" y="69" width="24" height="32" rx="10"/>
         <rect x="423" y="67" width="24" height="32" class="terminal" rx="10"/>
         <text class="terminal" x="433" y="87">,</text>
         <a xmlns:xlink="http://www.w3.org/1999/xlink" xlink:href="#workdir" xlink:title="workdir">
            <rect x="489" y="69" width="66" height="32"/>
            <rect x="487" y="67" width="66" height="32" class="nonterminal"/>
            <text class="nonterminal" x="497" y="87">workdir</text>
         </a>
         <rect x="595" y="69" width="24" height="32" rx="10"/>
         <rect x="593" y="67" width="24" height="32" class="terminal" rx="10"/>
         <text class="terminal" x="603" y="87">,</text>
         <rect x="659" y="69" width="106" height="32" rx="10"/>
         <rect x="657" y="67" width="106" height="32" class="terminal" rx="10"/>
         <text class="terminal" x="667" y="87">"PERSONAL"</text>
         <rect x="659" y="113" width="96" height="32" rx="10"/>
         <rect x="657" y="111" width="96" height="32" class="terminal" rx="10"/>
         <text class="terminal" x="667" y="131">"COMMON"</text>
         <rect x="805" y="69" width="24" height="32" rx="10"/>
         <rect x="803" y="67" width="24" height="32" class="terminal" rx="10"/>
         <text class="terminal" x="813" y="87">,</text>
         <a xmlns:xlink="http://www.w3.org/1999/xlink" xlink:href="#args" xlink:title="args">
            <rect x="869" y="69" width="48" height="32"/>
            <rect x="867" y="67" width="48" height="32" class="nonterminal"/>
            <text class="nonterminal" x="877" y="87">args</text>
         </a>
         <rect x="957" y="69" width="24" height="32" rx="10"/>
         <rect x="955" y="67" width="24" height="32" class="terminal" rx="10"/>
         <text class="terminal" x="965" y="87">,</text>
         <a xmlns:xlink="http://www.w3.org/1999/xlink" xlink:href="#hotkey" xlink:title="hotkey">
            <rect x="1021" y="69" width="62" height="32"/>
            <rect x="1019" y="67" width="62" height="32" class="nonterminal"/>
            <text class="nonterminal" x="1029" y="87">hotkey</text>
         </a>
         <rect x="1123" y="69" width="24" height="32" rx="10"/>
         <rect x="1121" y="67" width="24" height="32" class="terminal" rx="10"/>
         <text class="terminal" x="1131" y="87">,</text>
         <rect x="1187" y="69" width="92" height="32" rx="10"/>
         <rect x="1185" y="67" width="92" height="32" class="terminal" rx="10"/>
         <text class="terminal" x="1195" y="87">"NORMAL"</text>
         <rect x="1187" y="113" width="112" height="32" rx="10"/>
         <rect x="1185" y="111" width="112" height="32" class="terminal" rx="10"/>
         <text class="terminal" x="1195" y="131">"MAXIMIZED"</text>
         <rect x="1187" y="157" width="110" height="32" rx="10"/>
         <rect x="1185" y="155" width="110" height="32" class="terminal" rx="10"/>
         <text class="terminal" x="1195" y="175">"MINIMIZED"</text>
         <rect x="1327" y="271" width="26" height="32" rx="10"/>
         <rect x="1325" y="269" width="26" height="32" class="terminal" rx="10"/>
         <text class="terminal" x="1335" y="289">)</text>
         <svg:path xmlns:svg="http://www.w3.org/2000/svg" class="line" d="m17 17 h2 m0 0 h10 m134 0 h10 m0 0 h10 m54 0 h10 m0 0 h10 m24 0 h10 m0 0 h10 m72 0 h10 m2 0 l2 0 m2 0 l2 0 m2 0 l2 0 m-394 66 l2 0 m2 0 l2 0 m2 0 l2 0 m42 0 h10 m24 0 h10 m20 0 h10 m62 0 h10 m-102 0 h20 m82 0 h20 m-122 0 q10 0 10 10 m102 0 q0 -10 10 -10 m-112 10 v14 m102 0 v-14 m-102 14 q0 10 10 10 m82 0 q10 0 10 -10 m-92 10 h10 m0 0 h72 m20 -34 h10 m24 0 h10 m20 0 h10 m42 0 h10 m0 0 h8 m-90 0 h20 m70 0 h20 m-110 0 q10 0 10 10 m90 0 q0 -10 10 -10 m-100 10 v24 m90 0 v-24 m-90 24 q0 10 10 10 m70 0 q10 0 10 -10 m-80 10 h10 m50 0 h10 m-80 -10 v20 m90 0 v-20 m-90 20 v14 m90 0 v-14 m-90 14 q0 10 10 10 m70 0 q10 0 10 -10 m-80 10 h10 m0 0 h60 m-320 -78 h20 m320 0 h20 m-360 0 q10 0 10 10 m340 0 q0 -10 10 -10 m-350 10 v74 m340 0 v-74 m-340 74 q0 10 10 10 m320 0 q10 0 10 -10 m-330 10 h10 m0 0 h310 m40 -94 h10 m24 0 h10 m20 0 h10 m66 0 h10 m-106 0 h20 m86 0 h20 m-126 0 q10 0 10 10 m106 0 q0 -10 10 -10 m-116 10 v14 m106 0 v-14 m-106 14 q0 10 10 10 m86 0 q10 0 10 -10 m-96 10 h10 m0 0 h76 m20 -34 h10 m24 0 h10 m20 0 h10 m106 0 h10 m-146 0 h20 m126 0 h20 m-166 0 q10 0 10 10 m146 0 q0 -10 10 -10 m-156 10 v24 m146 0 v-24 m-146 24 q0 10 10 10 m126 0 q10 0 10 -10 m-136 10 h10 m96 0 h10 m0 0 h10 m-136 -10 v20 m146 0 v-20 m-146 20 v14 m146 0 v-14 m-146 14 q0 10 10 10 m126 0 q10 0 10 -10 m-136 10 h10 m0 0 h116 m20 -78 h10 m24 0 h10 m20 0 h10 m48 0 h10 m-88 0 h20 m68 0 h20 m-108 0 q10 0 10 10 m88 0 q0 -10 10 -10 m-98 10 v14 m88 0 v-14 m-88 14 q0 10 10 10 m68 0 q10 0 10 -10 m-78 10 h10 m0 0 h58 m20 -34 h10 m24 0 h10 m20 0 h10 m62 0 h10 m-102 0 h20 m82 0 h20 m-122 0 q10 0 10 10 m102 0 q0 -10 10 -10 m-112 10 v14 m102 0 v-14 m-102 14 q0 10 10 10 m82 0 q10 0 10 -10 m-92 10 h10 m0 0 h72 m20 -34 h10 m24 0 h10 m20 0 h10 m92 0 h10 m0 0 h20 m-152 0 h20 m132 0 h20 m-172 0 q10 0 10 10 m152 0 q0 -10 10 -10 m-162 10 v24 m152 0 v-24 m-152 24 q0 10 10 10 m132 0 q10 0 10 -10 m-142 10 h10 m112 0 h10 m-142 -10 v20 m152 0 v-20 m-152 20 v24 m152 0 v-24 m-152 24 q0 10 10 10 m132 0 q10 0 10 -10 m-142 10 h10 m110 0 h10 m0 0 h2 m-142 -10 v20 m152 0 v-20 m-152 20 v14 m152 0 v-14 m-152 14 q0 10 10 10 m132 0 q10 0 10 -10 m-142 10 h10 m0 0 h122 m-914 -122 h20 m914 0 h20 m-954 0 q10 0 10 10 m934 0 q0 -10 10 -10 m-944 10 v118 m934 0 v-118 m-934 118 q0 10 10 10 m914 0 q10 0 10 -10 m-924 10 h10 m0 0 h904 m-1314 -138 h20 m1314 0 h20 m-1354 0 q10 0 10 10 m1334 0 q0 -10 10 -10 m-1344 10 v134 m1334 0 v-134 m-1334 134 q0 10 10 10 m1314 0 q10 0 10 -10 m-1324 10 h10 m0 0 h1304 m22 -154 l2 0 m2 0 l2 0 m2 0 l2 0 m-76 202 l2 0 m2 0 l2 0 m2 0 l2 0 m2 0 h10 m26 0 h10 m3 0 h-3"/>
         <polygon points="1371 285 1379 281 1379 289"/>
         <polygon points="1371 285 1363 281 1363 289"/>
      </svg>
