      <svg xmlns="http://www.w3.org/2000/svg" width="538" height="80">
         <defs>
            <style type="text/css">
               @namespace "http://www.w3.org/2000/svg";
               .line                 {fill: none; stroke: #1F1F1F;}
               .bold-line            {stroke: #0A0A0A; shape-rendering: crispEdges; stroke-width:
               2; }
               .thin-line            {stroke: #0F0F0F; shape-rendering: crispEdges}
               .filled               {fill: #1F1F1F; stroke: none;}
               text.terminal         {font-family: Verdana, Sans-serif;
               font-size: 12px;
               fill: #0A0A0A;
               font-weight: bold;
               }
               text.nonterminal      {font-family: Verdana, Sans-serif;
               font-size: 12px;
               fill: #0D0D0D;
               }
               text.regexp           {font-family: Verdana, Sans-serif;
               font-size: 12px;
               fill: #0F0F0F;
               }
               rect, circle, polygon {fill: #1F1F1F; stroke: #1F1F1F;}
               rect.terminal         {fill: #CCCCCC; stroke: #1F1F1F;}
               rect.nonterminal      {fill: #E3E3E3; stroke: #1F1F1F;}
               rect.text             {fill: none; stroke: none;}    
               polygon.regexp        {fill: #EFEFEF; stroke: #1F1F1F;}
               
            </style>
         </defs>
         <polygon points="9 17 1 13 1 21"/>
         <polygon points="17 17 9 13 9 21"/>
         <rect x="31" y="3" width="150" height="32" rx="10"/>
         <rect x="29" y="1" width="150" height="32" class="terminal" rx="10"/>
         <text class="terminal" x="39" y="21">deleteDesktopIcon(</text>
         <a xmlns:xlink="http://www.w3.org/1999/xlink" xlink:href="#name" xlink:title="name">
            <rect x="201" y="3" width="54" height="32"/>
            <rect x="199" y="1" width="54" height="32" class="nonterminal"/>
            <text class="nonterminal" x="209" y="21">name</text>
         </a>
         <rect x="275" y="3" width="24" height="32" rx="10"/>
         <rect x="273" y="1" width="24" height="32" class="terminal" rx="10"/>
         <text class="terminal" x="283" y="21">,</text>
         <rect x="339" y="3" width="106" height="32" rx="10"/>
         <rect x="337" y="1" width="106" height="32" class="terminal" rx="10"/>
         <text class="terminal" x="347" y="21">"PERSONAL"</text>
         <rect x="339" y="47" width="96" height="32" rx="10"/>
         <rect x="337" y="45" width="96" height="32" class="terminal" rx="10"/>
         <text class="terminal" x="347" y="65">"COMMON"</text>
         <rect x="485" y="3" width="26" height="32" rx="10"/>
         <rect x="483" y="1" width="26" height="32" class="terminal" rx="10"/>
         <text class="terminal" x="493" y="21">)</text>
         <svg:path xmlns:svg="http://www.w3.org/2000/svg" class="line" d="m17 17 h2 m0 0 h10 m150 0 h10 m0 0 h10 m54 0 h10 m0 0 h10 m24 0 h10 m20 0 h10 m106 0 h10 m-146 0 h20 m126 0 h20 m-166 0 q10 0 10 10 m146 0 q0 -10 10 -10 m-156 10 v24 m146 0 v-24 m-146 24 q0 10 10 10 m126 0 q10 0 10 -10 m-136 10 h10 m96 0 h10 m0 0 h10 m20 -44 h10 m26 0 h10 m3 0 h-3"/>
         <polygon points="529 17 537 13 537 21"/>
         <polygon points="529 17 521 13 521 21"/>
      </svg>
