      <svg xmlns="http://www.w3.org/2000/svg" width="974" height="150">
         <defs>
            <style type="text/css">
               @namespace "http://www.w3.org/2000/svg";
               .line                 {fill: none; stroke: #1F1F1F;}
               .bold-line            {stroke: #0A0A0A; shape-rendering: crispEdges; stroke-width:
               2; }
               .thin-line            {stroke: #0F0F0F; shape-rendering: crispEdges}
               .filled               {fill: #1F1F1F; stroke: none;}
               text.terminal         {font-family: Verdana, Sans-serif;
               font-size: 12px;
               fill: #0A0A0A;
               font-weight: bold;
               }
               text.nonterminal      {font-family: Verdana, Sans-serif;
               font-size: 12px;
               fill: #0D0D0D;
               }
               text.regexp           {font-family: Verdana, Sans-serif;
               font-size: 12px;
               fill: #0F0F0F;
               }
               rect, circle, polygon {fill: #1F1F1F; stroke: #1F1F1F;}
               rect.terminal         {fill: #CCCCCC; stroke: #1F1F1F;}
               rect.nonterminal      {fill: #E3E3E3; stroke: #1F1F1F;}
               rect.text             {fill: none; stroke: none;}    
               polygon.regexp        {fill: #EFEFEF; stroke: #1F1F1F;}
               
            </style>
         </defs>
         <polygon points="9 17 1 13 1 21"/>
         <polygon points="17 17 9 13 9 21"/>
         <rect x="31" y="3" width="82" height="32" rx="10"/>
         <rect x="29" y="1" width="82" height="32" class="terminal" rx="10"/>
         <text class="terminal" x="39" y="21">addItem(</text>
         <a xmlns:xlink="http://www.w3.org/1999/xlink" xlink:href="#shortcut" xlink:title="shortcut">
            <rect x="133" y="3" width="72" height="32"/>
            <rect x="131" y="1" width="72" height="32" class="nonterminal"/>
            <text class="nonterminal" x="141" y="21">shortcut</text>
         </a>
         <rect x="225" y="3" width="24" height="32" rx="10"/>
         <rect x="223" y="1" width="24" height="32" class="terminal" rx="10"/>
         <text class="terminal" x="233" y="21">,</text>
         <a xmlns:xlink="http://www.w3.org/1999/xlink" xlink:href="#program" xlink:title="program">
            <rect x="269" y="3" width="72" height="32"/>
            <rect x="267" y="1" width="72" height="32" class="nonterminal"/>
            <text class="nonterminal" x="277" y="21">program</text>
         </a>
         <rect x="381" y="3" width="24" height="32" rx="10"/>
         <rect x="379" y="1" width="24" height="32" class="terminal" rx="10"/>
         <text class="terminal" x="389" y="21">,</text>
         <a xmlns:xlink="http://www.w3.org/1999/xlink" xlink:href="#iconfile" xlink:title="iconfile">
            <rect x="445" y="3" width="62" height="32"/>
            <rect x="443" y="1" width="62" height="32" class="nonterminal"/>
            <text class="nonterminal" x="453" y="21">iconfile</text>
         </a>
         <rect x="567" y="3" width="24" height="32" rx="10"/>
         <rect x="565" y="1" width="24" height="32" class="terminal" rx="10"/>
         <text class="terminal" x="575" y="21">,</text>
         <a xmlns:xlink="http://www.w3.org/1999/xlink" xlink:href="#iconnumber" xlink:title="iconnumber">
            <rect x="631" y="3" width="92" height="32"/>
            <rect x="629" y="1" width="92" height="32" class="nonterminal"/>
            <text class="nonterminal" x="639" y="21">iconnumber</text>
         </a>
         <rect x="783" y="3" width="24" height="32" rx="10"/>
         <rect x="781" y="1" width="24" height="32" class="terminal" rx="10"/>
         <text class="terminal" x="791" y="21">,</text>
         <a xmlns:xlink="http://www.w3.org/1999/xlink" xlink:href="#workdir" xlink:title="workdir">
            <rect x="827" y="3" width="66" height="32"/>
            <rect x="825" y="1" width="66" height="32" class="nonterminal"/>
            <text class="nonterminal" x="835" y="21">workdir</text>
         </a>
         <rect x="921" y="117" width="26" height="32" rx="10"/>
         <rect x="919" y="115" width="26" height="32" class="terminal" rx="10"/>
         <text class="terminal" x="929" y="135">)</text>
         <svg:path xmlns:svg="http://www.w3.org/2000/svg" class="line" d="m17 17 h2 m0 0 h10 m82 0 h10 m0 0 h10 m72 0 h10 m0 0 h10 m24 0 h10 m0 0 h10 m72 0 h10 m20 0 h10 m24 0 h10 m20 0 h10 m62 0 h10 m-102 0 h20 m82 0 h20 m-122 0 q10 0 10 10 m102 0 q0 -10 10 -10 m-112 10 v14 m102 0 v-14 m-102 14 q0 10 10 10 m82 0 q10 0 10 -10 m-92 10 h10 m0 0 h72 m40 -34 h10 m24 0 h10 m20 0 h10 m92 0 h10 m-132 0 h20 m112 0 h20 m-152 0 q10 0 10 10 m132 0 q0 -10 10 -10 m-142 10 v14 m132 0 v-14 m-132 14 q0 10 10 10 m112 0 q10 0 10 -10 m-122 10 h10 m0 0 h102 m40 -34 h10 m24 0 h10 m0 0 h10 m66 0 h10 m-150 0 h20 m130 0 h20 m-170 0 q10 0 10 10 m150 0 q0 -10 10 -10 m-160 10 v14 m150 0 v-14 m-150 14 q0 10 10 10 m130 0 q10 0 10 -10 m-140 10 h10 m0 0 h120 m-366 -34 h20 m366 0 h20 m-406 0 q10 0 10 10 m386 0 q0 -10 10 -10 m-396 10 v30 m386 0 v-30 m-386 30 q0 10 10 10 m366 0 q10 0 10 -10 m-376 10 h10 m0 0 h356 m-572 -50 h20 m572 0 h20 m-612 0 q10 0 10 10 m592 0 q0 -10 10 -10 m-602 10 v46 m592 0 v-46 m-592 46 q0 10 10 10 m572 0 q10 0 10 -10 m-582 10 h10 m0 0 h562 m22 -66 l2 0 m2 0 l2 0 m2 0 l2 0 m-76 114 l2 0 m2 0 l2 0 m2 0 l2 0 m2 0 h10 m26 0 h10 m3 0 h-3"/>
         <polygon points="965 131 973 127 973 135"/>
         <polygon points="965 131 957 127 957 135"/>
      </svg>
