      <svg xmlns="http://www.w3.org/2000/svg" width="472" height="96">
         <defs>
            <style type="text/css">
               @namespace "http://www.w3.org/2000/svg";
               .line                 {fill: none; stroke: #1F1F1F;}
               .bold-line            {stroke: #0A0A0A; shape-rendering: crispEdges; stroke-width:
               2; }
               .thin-line            {stroke: #0F0F0F; shape-rendering: crispEdges}
               .filled               {fill: #1F1F1F; stroke: none;}
               text.terminal         {font-family: Verdana, Sans-serif;
               font-size: 12px;
               fill: #0A0A0A;
               font-weight: bold;
               }
               text.nonterminal      {font-family: Verdana, Sans-serif;
               font-size: 12px;
               fill: #0D0D0D;
               }
               text.regexp           {font-family: Verdana, Sans-serif;
               font-size: 12px;
               fill: #0F0F0F;
               }
               rect, circle, polygon {fill: #1F1F1F; stroke: #1F1F1F;}
               rect.terminal         {fill: #CCCCCC; stroke: #1F1F1F;}
               rect.nonterminal      {fill: #E3E3E3; stroke: #1F1F1F;}
               rect.text             {fill: none; stroke: none;}    
               polygon.regexp        {fill: #EFEFEF; stroke: #1F1F1F;}
               
            </style>
         </defs>
         <polygon points="9 17 1 13 1 21"/>
         <polygon points="17 17 9 13 9 21"/>
         <rect x="31" y="3" width="102" height="32" rx="10"/>
         <rect x="29" y="1" width="102" height="32" class="terminal" rx="10"/>
         <text class="terminal" x="39" y="21">showGroup(</text>
         <a xmlns:xlink="http://www.w3.org/1999/xlink" xlink:href="#group" xlink:title="group">
            <rect x="153" y="3" width="56" height="32"/>
            <rect x="151" y="1" width="56" height="32" class="nonterminal"/>
            <text class="nonterminal" x="161" y="21">group</text>
         </a>
         <rect x="249" y="3" width="24" height="32" rx="10"/>
         <rect x="247" y="1" width="24" height="32" class="terminal" rx="10"/>
         <text class="terminal" x="257" y="21">,</text>
         <a xmlns:xlink="http://www.w3.org/1999/xlink" xlink:href="#MIN" xlink:title="MIN">
            <rect x="313" y="3" width="44" height="32"/>
            <rect x="311" y="1" width="44" height="32" class="nonterminal"/>
            <text class="nonterminal" x="321" y="21">MIN</text>
         </a>
         <a xmlns:xlink="http://www.w3.org/1999/xlink" xlink:href="#MAX" xlink:title="MAX">
            <rect x="313" y="47" width="46" height="32"/>
            <rect x="311" y="45" width="46" height="32" class="nonterminal"/>
            <text class="nonterminal" x="321" y="65">MAX</text>
         </a>
         <rect x="419" y="3" width="26" height="32" rx="10"/>
         <rect x="417" y="1" width="26" height="32" class="terminal" rx="10"/>
         <text class="terminal" x="427" y="21">)</text>
         <svg:path xmlns:svg="http://www.w3.org/2000/svg" class="line" d="m17 17 h2 m0 0 h10 m102 0 h10 m0 0 h10 m56 0 h10 m20 0 h10 m24 0 h10 m20 0 h10 m44 0 h10 m0 0 h2 m-86 0 h20 m66 0 h20 m-106 0 q10 0 10 10 m86 0 q0 -10 10 -10 m-96 10 v24 m86 0 v-24 m-86 24 q0 10 10 10 m66 0 q10 0 10 -10 m-76 10 h10 m46 0 h10 m-150 -44 h20 m150 0 h20 m-190 0 q10 0 10 10 m170 0 q0 -10 10 -10 m-180 10 v58 m170 0 v-58 m-170 58 q0 10 10 10 m150 0 q10 0 10 -10 m-160 10 h10 m0 0 h140 m20 -78 h10 m26 0 h10 m3 0 h-3"/>
         <polygon points="463 17 471 13 471 21"/>
         <polygon points="463 17 455 13 455 21"/>
      </svg>
