      <svg xmlns="http://www.w3.org/2000/svg" width="768" height="166">
         <defs>
            <style type="text/css">
               @namespace "http://www.w3.org/2000/svg";
               .line                 {fill: none; stroke: #1F1F1F;}
               .bold-line            {stroke: #0A0A0A; shape-rendering: crispEdges; stroke-width:
               2; }
               .thin-line            {stroke: #0F0F0F; shape-rendering: crispEdges}
               .filled               {fill: #1F1F1F; stroke: none;}
               text.terminal         {font-family: Verdana, Sans-serif;
               font-size: 12px;
               fill: #0A0A0A;
               font-weight: bold;
               }
               text.nonterminal      {font-family: Verdana, Sans-serif; font-style: italic;
               font-size: 12px;
               fill: #0D0D0D;
               }
               text.regexp           {font-family: Verdana, Sans-serif;
               font-size: 12px;
               fill: #0F0F0F;
               }
               rect, circle, polygon {fill: #1F1F1F; stroke: #1F1F1F;}
               rect.terminal         {fill: #CCCCCC; stroke: #1F1F1F;}
               rect.nonterminal      {fill: #E3E3E3; stroke: #1F1F1F;}
               rect.text             {fill: none; stroke: none;}    
               polygon.regexp        {fill: #EFEFEF; stroke: #1F1F1F;}
               
            </style>
         </defs>
         <polygon points="9 17 1 13 1 21"/>
         <polygon points="17 17 9 13 9 21"/>
         <rect x="31" y="3" width="82" height="32" rx="10"/>
         <rect x="29" y="1" width="82" height="32" class="terminal" rx="10"/>
         <text class="terminal" x="39" y="21">addItem(</text>
<!--     <a xmlns:xlink="http://www.w3.org/1999/xlink" xlink:href="#shortcut" xlink:title="shortcut"> -->
            <rect x="133" y="3" width="72" height="32"/>
            <rect x="131" y="1" width="72" height="32" class="nonterminal"/>
            <text class="nonterminal" x="141" y="21">shortcut</text>
<!--     </a> -->
         <rect x="225" y="3" width="24" height="32" rx="10"/>
         <rect x="223" y="1" width="24" height="32" class="terminal" rx="10"/>
         <text class="terminal" x="233" y="21">,</text>
<!--     <a xmlns:xlink="http://www.w3.org/1999/xlink" xlink:href="#program" xlink:title="program"> -->
            <rect x="269" y="3" width="72" height="32"/>
            <rect x="267" y="1" width="72" height="32" class="nonterminal"/>
            <text class="nonterminal" x="277" y="21">program</text>
<!--     </a> -->
         <rect x="361" y="3" width="24" height="32" rx="10"/>
         <rect x="359" y="1" width="24" height="32" class="terminal" rx="10"/>
         <text class="terminal" x="369" y="21">,</text>
<!--     <a xmlns:xlink="http://www.w3.org/1999/xlink" xlink:href="#iconfile" xlink:title="iconfile"> -->
            <rect x="425" y="35" width="62" height="32"/>
            <rect x="423" y="33" width="62" height="32" class="nonterminal"/>
            <text class="nonterminal" x="433" y="53">iconfile</text>
<!--     </a> -->
         <rect x="527" y="3" width="24" height="32" rx="10"/>
         <rect x="525" y="1" width="24" height="32" class="terminal" rx="10"/>
         <text class="terminal" x="535" y="21">,</text>
<!--     <a xmlns:xlink="http://www.w3.org/1999/xlink" xlink:href="#iconnumber" xlink:title="iconnumber"> -->
            <rect x="591" y="35" width="92" height="32"/>
            <rect x="589" y="33" width="92" height="32" class="nonterminal"/>
            <text class="nonterminal" x="599" y="53">iconnumber</text>
<!--     </a> -->
         <rect x="723" y="3" width="24" height="32" rx="10"/>
         <rect x="721" y="1" width="24" height="32" class="terminal" rx="10"/>
         <text class="terminal" x="731" y="21">,</text>
<!--     <a xmlns:xlink="http://www.w3.org/1999/xlink" xlink:href="#workdir" xlink:title="workdir"> -->
            <rect x="609" y="133" width="66" height="32"/>
            <rect x="607" y="131" width="66" height="32" class="nonterminal"/>
            <text class="nonterminal" x="617" y="151">workdir</text>
<!--     </a> -->
         <rect x="715" y="101" width="26" height="32" rx="10"/>
         <rect x="713" y="99" width="26" height="32" class="terminal" rx="10"/>
         <text class="terminal" x="723" y="119">)</text>
         <svg:path xmlns:svg="http://www.w3.org/2000/svg" class="line" d="m17 17 h2 m0 0 h10 m82 0 h10 m0 0 h10 m72 0 h10 m0 0 h10 m24 0 h10 m0 0 h10 m72 0 h10 m0 0 h10 m24 0 h10 m20 0 h10 m0 0 h72 m-102 0 h20 m82 0 h20 m-122 0 q10 0 10 10 m102 0 q0 -10 10 -10 m-112 10 v12 m102 0 v-12 m-102 12 q0 10 10 10 m82 0 q10 0 10 -10 m-92 10 h10 m62 0 h10 m20 -32 h10 m24 0 h10 m20 0 h10 m0 0 h102 m-132 0 h20 m112 0 h20 m-152 0 q10 0 10 10 m132 0 q0 -10 10 -10 m-142 10 v12 m132 0 v-12 m-132 12 q0 10 10 10 m112 0 q10 0 10 -10 m-122 10 h10 m92 0 h10 m20 -32 h10 m24 0 h10 m2 0 l2 0 m2 0 l2 0 m2 0 l2 0 m-202 98 l2 0 m2 0 l2 0 m2 0 l2 0 m22 0 h10 m0 0 h76 m-106 0 h20 m86 0 h20 m-126 0 q10 0 10 10 m106 0 q0 -10 10 -10 m-116 10 v12 m106 0 v-12 m-106 12 q0 10 10 10 m86 0 q10 0 10 -10 m-96 10 h10 m66 0 h10 m20 -32 h10 m26 0 h10 m3 0 h-3"/>
         <polygon points="759 115 767 111 767 119"/>
         <polygon points="759 115 751 111 751 119"/>
      </svg>
