<svg xmlns="http://www.w3.org/2000/svg" width="433" height="119">
         <defs>
            <style type="text/css">
               @namespace "http://www.w3.org/2000/svg";
               .line                 {fill: none; stroke: #1F1F1F;}
               .bold-line            {stroke: #0A0A0A; shape-rendering: crispEdges; stroke-width:
               2; }
               .thin-line            {stroke: #0F0F0F; shape-rendering: crispEdges}
               .filled               {fill: #1F1F1F; stroke: none;}
               text.terminal         {font-family: Verdana, Sans-serif;
               font-size: 12px;
               fill: #0A0A0A;
               font-weight: bold;
               }
               text.nonterminal      {font-family: Verdana, Sans-serif; font-style: italic;
               font-size: 12px;
               fill: #0D0D0D;
               }
               text.regexp           {font-family: Verdana, Sans-serif;
               font-size: 12px;
               fill: #0F0F0F;
               }
               rect, circle, polygon {fill: #1F1F1F; stroke: #1F1F1F;}
               rect.terminal         {fill: #CCCCCC; stroke: #1F1F1F;}
               rect.nonterminal      {fill: #E3E3E3; stroke: #1F1F1F;}
               rect.text             {fill: none; stroke: none;}
               polygon.regexp        {fill: #EFEFEF; stroke: #1F1F1F;}

            </style>
         </defs>

         <defs>
            <style type="text/css">
    @namespace "http://www.w3.org/2000/svg";
    .line                 {fill: none; stroke: #1F1F1F; stroke-width: 1;}
    .bold-line            {stroke: #0A0A0A; shape-rendering: crispEdges; stroke-width: 2;}
    .thin-line            {stroke: #0F0F0F; shape-rendering: crispEdges}
    .filled               {fill: #1F1F1F; stroke: none;}
    text.terminal         {font-family: Verdana, Sans-serif;
                            font-size: 12px;
                            fill: #0A0A0A;
                            font-weight: bold;
                          }
    text.nonterminal      {font-family: Verdana, Sans-serif;
                            font-size: 12px;
                            fill: #0D0D0D;
                            font-weight: normal;
                          }
    text.regexp           {font-family: Verdana, Sans-serif;
                            font-size: 12px;
                            fill: #0F0F0F;
                            font-weight: normal;
                          }
    rect, circle, polygon {fill: #1F1F1F; stroke: #1F1F1F;}
    rect.terminal         {fill: #cccccc; stroke: #1F1F1F; stroke-width: 1;}
    rect.nonterminal      {fill: #E3E3E3; stroke: #1F1F1F; stroke-width: 1;}
    rect.text             {fill: none; stroke: none;}
    polygon.regexp        {fill: #EFEFEF; stroke: #1F1F1F; stroke-width: 1;}
  </style>
         </defs>
         <polygon points="9 51 1 47 1 55"/>
         <polygon points="17 51 9 47 9 55"/>
         <rect x="51" y="37" width="104" height="32" rx="10"/>
         <rect x="49" y="35" width="104" height="32" class="terminal" rx="10"/>
         <text class="terminal" x="59" y="55">OTHERWISE</text>
         <rect x="195" y="69" width="24" height="32" rx="10"/>
         <rect x="193" y="67" width="24" height="32" class="terminal" rx="10"/>
         <text class="terminal" x="203" y="87">;</text><a xmlns:xlink="http://www.w3.org/1999/xlink" xlink:href="#instruction" xlink:title="instruction">
            <rect x="279" y="3" width="86" height="32"/>
            <rect x="277" y="1" width="86" height="32" class="nonterminal"/>
            <text class="nonterminal" x="287" y="21">instruction</text></a><svg:path xmlns:svg="http://www.w3.org/2000/svg" class="line" d="m17 51 h2 m20 0 h10 m104 0 h10 m20 0 h10 m0 0 h34 m-64 0 h20 m44 0 h20 m-84 0 q10 0 10 10 m64 0 q0 -10 10 -10 m-74 10 v12 m64 0 v-12 m-64 12 q0 10 10 10 m44 0 q10 0 10 -10 m-54 10 h10 m24 0 h10 m40 -32 h10 m0 0 h96 m-126 0 l20 0 m-1 0 q-9 0 -9 -10 l0 -14 q0 -10 10 -10 m106 34 l20 0 m-20 0 q10 0 10 -10 l0 -14 q0 -10 -10 -10 m-106 0 h10 m86 0 h10 m-354 34 h20 m354 0 h20 m-394 0 q10 0 10 10 m374 0 q0 -10 10 -10 m-384 10 v46 m374 0 v-46 m-374 46 q0 10 10 10 m354 0 q10 0 10 -10 m-364 10 h10 m0 0 h344 m23 -66 h-3"/>
         <polygon points="423 51 431 47 431 55"/>
         <polygon points="423 51 415 47 415 55"/>
</svg>