<svg xmlns="http://www.w3.org/2000/svg" width="667" height="157">
         <defs>
            <style type="text/css">
    @namespace "http://www.w3.org/2000/svg";
    .line                 {fill: none; stroke: #1F1F1F;}
    .bold-line            {stroke: #0A0A0A; shape-rendering: crispEdges; stroke-width: 2; }
    .thin-line            {stroke: #0F0F0F; shape-rendering: crispEdges}
    .filled               {fill: #1F1F1F; stroke: none;}
    text.terminal         {font-family: Verdana, Sans-serif;
                            font-size: 12px;
                            fill: #0A0A0A;
                            font-weight: bold;
                          }
    text.nonterminal      {font-family: Verdana, Sans-serif; font-style: italic;
                            font-size: 12px;
                            fill: #0D0D0D;
                            font-weight: normal;
                          }
    text.regexp           {font-family: Verdana, Sans-serif;
                            font-size: 12px;
                            fill: #0F0F0F;
                            font-weight: normal;
                          }
    rect, circle, polygon {fill: #1F1F1F; stroke: #1F1F1F;}
    rect.terminal         {fill: #cccccc; stroke: #1F1F1F;}
    rect.nonterminal      {fill: #E3E3E3; stroke: #1F1F1F;}
    rect.text             {fill: none; stroke: none;}    
    polygon.regexp        {fill: #EFEFEF; stroke: #1F1F1F;}
  </style>
         </defs>
         <polygon points="9 17 1 13 1 21"/>
         <polygon points="17 17 9 13 9 21"/>
         <rect x="31" y="3" width="82" height="32" rx="10"/>
         <rect x="29" y="1" width="82" height="32" class="terminal" rx="10"/>
         <text class="terminal" x="39" y="21">STREAM(</text>
<!--  <a xmlns:xlink="http://www.w3.org/1999/xlink" xlink:href="#name" xlink:title="name"> -->
            <rect x="133" y="3" width="56" height="32"/>
            <rect x="131" y="1" width="56" height="32" class="nonterminal"/>
            <text class="nonterminal" x="141" y="21">name</text><!-- </a> -->
<rect x="209" y="3" width="24" height="32" rx="10"/>
         <rect x="207" y="1" width="24" height="32" class="terminal" rx="10"/>
         <text class="terminal" x="217" y="21">,</text>
         <rect x="273" y="35" width="70" height="32" rx="10"/>
         <rect x="271" y="33" width="70" height="32" class="terminal" rx="10"/>
         <text class="terminal" x="281" y="53">"State"</text>
         <rect x="273" y="79" width="102" height="32" rx="10"/>
         <rect x="271" y="77" width="102" height="32" class="terminal" rx="10"/>
         <text class="terminal" x="281" y="97">"Command"</text>
         <rect x="395" y="79" width="24" height="32" rx="10"/>
         <rect x="393" y="77" width="24" height="32" class="terminal" rx="10"/>
         <text class="terminal" x="403" y="97">,</text>
<!--  <a xmlns:xlink="http://www.w3.org/1999/xlink" xlink:href="#stream_command" xlink:title="stream_command"> -->
            <rect x="439" y="79" width="134" height="32"/>
            <rect x="437" y="77" width="134" height="32" class="nonterminal"/>
            <text class="nonterminal" x="447" y="97">stream_command</text><!-- </a> -->
<rect x="273" y="123" width="110" height="32" rx="10"/>
         <rect x="271" y="121" width="110" height="32" class="terminal" rx="10"/>
         <text class="terminal" x="281" y="141">"Description"</text>
         <rect x="613" y="3" width="26" height="32" rx="10"/>
         <rect x="611" y="1" width="26" height="32" class="terminal" rx="10"/>
         <text class="terminal" x="621" y="21">)</text>
         <svg:path xmlns:svg="http://www.w3.org/2000/svg" class="line" d="m17 17 h2 m0 0 h10 m82 0 h10 m0 0 h10 m56 0 h10 m0 0 h10 m24 0 h10 m20 0 h10 m0 0 h310 m-340 0 h20 m320 0 h20 m-360 0 q10 0 10 10 m340 0 q0 -10 10 -10 m-350 10 v12 m340 0 v-12 m-340 12 q0 10 10 10 m320 0 q10 0 10 -10 m-330 10 h10 m70 0 h10 m0 0 h230 m-330 -10 v20 m340 0 v-20 m-340 20 v24 m340 0 v-24 m-340 24 q0 10 10 10 m320 0 q10 0 10 -10 m-330 10 h10 m102 0 h10 m0 0 h10 m24 0 h10 m0 0 h10 m134 0 h10 m-330 -10 v20 m340 0 v-20 m-340 20 v24 m340 0 v-24 m-340 24 q0 10 10 10 m320 0 q10 0 10 -10 m-330 10 h10 m110 0 h10 m0 0 h190 m20 -120 h10 m26 0 h10 m3 0 h-3"/>
         <polygon points="657 17 665 13 665 21"/>
         <polygon points="657 17 649 13 649 21"/></svg>
