<svg xmlns="http://www.w3.org/2000/svg" width="699" height="145">
         <defs>
            <style type="text/css">
    @namespace "http://www.w3.org/2000/svg";
    .line                 {fill: none; stroke: #1F1F1F;}
    .bold-line            {stroke: #0A0A0A; shape-rendering: crispEdges; stroke-width: 2; }
    .thin-line            {stroke: #0F0F0F; shape-rendering: crispEdges}
    .filled               {fill: #1F1F1F; stroke: none;}
    text.terminal         {font-family: Verdana, Sans-serif;
                            font-size: 12px;
                            fill: #0A0A0A;
                            font-weight: bold;
                          }
    text.nonterminal      {font-family: Verdana, Sans-serif; font-style: italic;
                            font-size: 12px;
                            fill: #0D0D0D;
                            font-weight: normal;
                          }
    text.regexp           {font-family: Verdana, Sans-serif;
                            font-size: 12px;
                            fill: #0F0F0F;
                            font-weight: normal;
                          }
    rect, circle, polygon {fill: #1F1F1F; stroke: #1F1F1F;}
    rect.terminal         {fill: #cccccc; stroke: #1F1F1F;}
    rect.nonterminal      {fill: #E3E3E3; stroke: #1F1F1F;}
    rect.text             {fill: none; stroke: none;}    
    polygon.regexp        {fill: #EFEFEF; stroke: #1F1F1F;}
  </style>
         </defs>
         <polygon points="9 5 1 1 1 9"/>
         <polygon points="17 5 9 1 9 9"/>
         <rect x="51" y="23" width="76" height="32" rx="10"/>
         <rect x="49" y="21" width="76" height="32" class="terminal" rx="10"/>
         <text class="terminal" x="59" y="41">SHARED</text>
         <rect x="51" y="67" width="100" height="32" rx="10"/>
         <rect x="49" y="65" width="100" height="32" class="terminal" rx="10"/>
         <text class="terminal" x="59" y="85">SHARERead</text>
         <rect x="51" y="111" width="102" height="32" rx="10"/>
         <rect x="49" y="109" width="102" height="32" class="terminal" rx="10"/>
         <text class="terminal" x="59" y="129">SHAREWrite</text>
         <rect x="213" y="23" width="82" height="32" rx="10"/>
         <rect x="211" y="21" width="82" height="32" class="terminal" rx="10"/>
         <text class="terminal" x="221" y="41">NOBuffer</text>
         <rect x="355" y="23" width="66" height="32" rx="10"/>
         <rect x="353" y="21" width="66" height="32" class="terminal" rx="10"/>
         <text class="terminal" x="363" y="41">BInary</text>
         <rect x="461" y="55" width="90" height="32" rx="10"/>
         <rect x="459" y="53" width="90" height="32" class="terminal" rx="10"/>
         <text class="terminal" x="469" y="73">REClength</text>
<!--  <a xmlns:xlink="http://www.w3.org/1999/xlink" xlink:href="#length" xlink:title="length"> -->
            <rect x="571" y="55" width="60" height="32"/>
            <rect x="569" y="53" width="60" height="32" class="nonterminal"/>
            <text class="nonterminal" x="579" y="73">length</text><!-- </a> -->
<svg:path xmlns:svg="http://www.w3.org/2000/svg" class="line" d="m17 5 h2 m20 0 h10 m0 0 h112 m-142 0 h20 m122 0 h20 m-162 0 q10 0 10 10 m142 0 q0 -10 10 -10 m-152 10 v12 m142 0 v-12 m-142 12 q0 10 10 10 m122 0 q10 0 10 -10 m-132 10 h10 m76 0 h10 m0 0 h26 m-132 -10 v20 m142 0 v-20 m-142 20 v24 m142 0 v-24 m-142 24 q0 10 10 10 m122 0 q10 0 10 -10 m-132 10 h10 m100 0 h10 m0 0 h2 m-132 -10 v20 m142 0 v-20 m-142 20 v24 m142 0 v-24 m-142 24 q0 10 10 10 m122 0 q10 0 10 -10 m-132 10 h10 m102 0 h10 m40 -120 h10 m0 0 h92 m-122 0 h20 m102 0 h20 m-142 0 q10 0 10 10 m122 0 q0 -10 10 -10 m-132 10 v12 m122 0 v-12 m-122 12 q0 10 10 10 m102 0 q10 0 10 -10 m-112 10 h10 m82 0 h10 m40 -32 h10 m0 0 h306 m-336 0 h20 m316 0 h20 m-356 0 q10 0 10 10 m336 0 q0 -10 10 -10 m-346 10 v12 m336 0 v-12 m-336 12 q0 10 10 10 m316 0 q10 0 10 -10 m-326 10 h10 m66 0 h10 m20 0 h10 m0 0 h180 m-210 0 h20 m190 0 h20 m-230 0 q10 0 10 10 m210 0 q0 -10 10 -10 m-220 10 v12 m210 0 v-12 m-210 12 q0 10 10 10 m190 0 q10 0 10 -10 m-200 10 h10 m90 0 h10 m0 0 h10 m60 0 h10 m43 -64 h-3"/>
         <polygon points="689 5 697 1 697 9"/>
         <polygon points="689 5 681 1 681 9"/></svg>
