<svg xmlns="http://www.w3.org/2000/svg" width="397" height="69">
         <defs>
            <style type="text/css">
    @namespace "http://www.w3.org/2000/svg";
    .line                 {fill: none; stroke: #1F1F1F;}
    .bold-line            {stroke: #0A0A0A; shape-rendering: crispEdges; stroke-width: 2; }
    .thin-line            {stroke: #0F0F0F; shape-rendering: crispEdges}
    .filled               {fill: #1F1F1F; stroke: none;}
    text.terminal         {font-family: Verdana, Sans-serif;
                            font-size: 12px;
                            fill: #0A0A0A;
                            font-weight: bold;
                          }
    text.nonterminal      {font-family: Verdana, Sans-serif; font-style: italic;
                            font-size: 12px;
                            fill: #0D0D0D;
                            font-weight: normal;
                          }
    text.regexp           {font-family: Verdana, Sans-serif;
                            font-size: 12px;
                            fill: #0F0F0F;
                            font-weight: normal;
                          }
    rect, circle, polygon {fill: #1F1F1F; stroke: #1F1F1F;}
    rect.terminal         {fill: #cccccc; stroke: #1F1F1F;}
    rect.nonterminal      {fill: #E3E3E3; stroke: #1F1F1F;}
    rect.text             {fill: none; stroke: none;}    
    polygon.regexp        {fill: #EFEFEF; stroke: #1F1F1F;}
  </style>
         </defs>
         <polygon points="9 17 1 13 1 21"/>
         <polygon points="17 17 9 13 9 21"/>
         <rect x="31" y="3" width="72" height="32" rx="10"/>
         <rect x="29" y="1" width="72" height="32" class="terminal" rx="10"/>
         <text class="terminal" x="39" y="21">TRUNC(</text>
<!--  <a xmlns:xlink="http://www.w3.org/1999/xlink" xlink:href="#number" xlink:title="number"> -->
            <rect x="123" y="3" width="68" height="32"/>
            <rect x="121" y="1" width="68" height="32" class="nonterminal"/>
            <text class="nonterminal" x="131" y="21">number</text><!-- </a> -->
<rect x="231" y="35" width="24" height="32" rx="10"/>
         <rect x="229" y="33" width="24" height="32" class="terminal" rx="10"/>
         <text class="terminal" x="239" y="53">,</text>
<!--  <a xmlns:xlink="http://www.w3.org/1999/xlink" xlink:href="#n" xlink:title="n"> -->
            <rect x="275" y="35" width="28" height="32"/>
            <rect x="273" y="33" width="28" height="32" class="nonterminal"/>
            <text class="nonterminal" x="283" y="53">n</text><!-- </a> -->
<rect x="343" y="3" width="26" height="32" rx="10"/>
         <rect x="341" y="1" width="26" height="32" class="terminal" rx="10"/>
         <text class="terminal" x="351" y="21">)</text>
         <svg:path xmlns:svg="http://www.w3.org/2000/svg" class="line" d="m17 17 h2 m0 0 h10 m72 0 h10 m0 0 h10 m68 0 h10 m20 0 h10 m0 0 h82 m-112 0 h20 m92 0 h20 m-132 0 q10 0 10 10 m112 0 q0 -10 10 -10 m-122 10 v12 m112 0 v-12 m-112 12 q0 10 10 10 m92 0 q10 0 10 -10 m-102 10 h10 m24 0 h10 m0 0 h10 m28 0 h10 m20 -32 h10 m26 0 h10 m3 0 h-3"/>
         <polygon points="387 17 395 13 395 21"/>
         <polygon points="387 17 379 13 379 21"/></svg>
