      <svg xmlns="http://www.w3.org/2000/svg" width="658" height="52">
         <defs>
            <style type="text/css">
               @namespace "http://www.w3.org/2000/svg";
               .line                 {fill: none; stroke: #1F1F1F;}
               .bold-line            {stroke: #0A0A0A; shape-rendering: crispEdges; stroke-width:
               2; }
               .thin-line            {stroke: #0F0F0F; shape-rendering: crispEdges}
               .filled               {fill: #1F1F1F; stroke: none;}
               text.terminal         {font-family: Verdana, Sans-serif;
               font-size: 12px;
               fill: #0A0A0A;
               font-weight: bold;
               }
               text.nonterminal      {font-family: Verdana, Sans-serif;
               font-size: 12px;
               fill: #0D0D0D;
               }
               text.regexp           {font-family: Verdana, Sans-serif;
               font-size: 12px;
               fill: #0F0F0F;
               }
               rect, circle, polygon {fill: #1F1F1F; stroke: #1F1F1F;}
               rect.terminal         {fill: #CCCCCC; stroke: #1F1F1F;}
               rect.nonterminal      {fill: #E3E3E3; stroke: #1F1F1F;}
               rect.text             {fill: none; stroke: none;}    
               polygon.regexp        {fill: #EFEFEF; stroke: #1F1F1F;}
               
            </style>
         </defs>
         <polygon points="9 17 1 13 1 21"/>
         <polygon points="17 17 9 13 9 21"/>
         <rect x="31" y="3" width="160" height="32" rx="10"/>
         <rect x="29" y="1" width="160" height="32" class="terminal" rx="10"/>
         <text class="terminal" x="39" y="21">SockGetHostByAddr(</text>
         <a xmlns:xlink="http://www.w3.org/1999/xlink" xlink:href="#dotAddress" xlink:title="dotAddress">
            <rect x="211" y="3" width="92" height="32"/>
            <rect x="209" y="1" width="92" height="32" class="nonterminal"/>
            <text class="nonterminal" x="219" y="21">dotAddress</text>
         </a>
         <rect x="323" y="3" width="24" height="32" rx="10"/>
         <rect x="321" y="1" width="24" height="32" class="terminal" rx="10"/>
         <text class="terminal" x="331" y="21">,</text>
         <a xmlns:xlink="http://www.w3.org/1999/xlink" xlink:href="#host" xlink:title="host">
            <rect x="367" y="3" width="48" height="32"/>
            <rect x="365" y="1" width="48" height="32" class="nonterminal"/>
            <text class="nonterminal" x="375" y="21">host</text>
         </a>
         <rect x="455" y="3" width="24" height="32" rx="10"/>
         <rect x="453" y="1" width="24" height="32" class="terminal" rx="10"/>
         <text class="terminal" x="463" y="21">,</text>
         <a xmlns:xlink="http://www.w3.org/1999/xlink" xlink:href="#domain" xlink:title="domain">
            <rect x="499" y="3" width="66" height="32"/>
            <rect x="497" y="1" width="66" height="32" class="nonterminal"/>
            <text class="nonterminal" x="507" y="21">domain</text>
         </a>
         <rect x="605" y="3" width="26" height="32" rx="10"/>
         <rect x="603" y="1" width="26" height="32" class="terminal" rx="10"/>
         <text class="terminal" x="613" y="21">)</text>
         <svg:path xmlns:svg="http://www.w3.org/2000/svg" class="line" d="m17 17 h2 m0 0 h10 m160 0 h10 m0 0 h10 m92 0 h10 m0 0 h10 m24 0 h10 m0 0 h10 m48 0 h10 m20 0 h10 m24 0 h10 m0 0 h10 m66 0 h10 m-150 0 h20 m130 0 h20 m-170 0 q10 0 10 10 m150 0 q0 -10 10 -10 m-160 10 v14 m150 0 v-14 m-150 14 q0 10 10 10 m130 0 q10 0 10 -10 m-140 10 h10 m0 0 h120 m20 -34 h10 m26 0 h10 m3 0 h-3"/>
         <polygon points="649 17 657 13 657 21"/>
         <polygon points="649 17 641 13 641 21"/>
      </svg>
