      <svg xmlns="http://www.w3.org/2000/svg" width="616" height="156">
         <defs>
            <style type="text/css">
               @namespace "http://www.w3.org/2000/svg";
               .line                 {fill: none; stroke: #1F1F1F;}
               .bold-line            {stroke: #0A0A0A; shape-rendering: crispEdges; stroke-width:
               2; }
               .thin-line            {stroke: #0F0F0F; shape-rendering: crispEdges}
               .filled               {fill: #1F1F1F; stroke: none;}
               text.terminal         {font-family: Verdana, Sans-serif;
               font-size: 12px;
               fill: #0A0A0A;
               font-weight: bold;
               }
               text.nonterminal      {font-family: Verdana, Sans-serif; font-style: italic;
               font-size: 12px;
               fill: #0D0D0D;
               }
               text.regexp           {font-family: Verdana, Sans-serif;
               font-size: 12px;
               fill: #0F0F0F;
               }
               rect, circle, polygon {fill: #1F1F1F; stroke: #1F1F1F;}
               rect.terminal         {fill: #CCCCCC; stroke: #1F1F1F;}
               rect.nonterminal      {fill: #E3E3E3; stroke: #1F1F1F;}
               rect.text             {fill: none; stroke: none;}    
               polygon.regexp        {fill: #EFEFEF; stroke: #1F1F1F;}
               
            </style>
         </defs>
         <polygon points="9 17 1 13 1 21"/>
         <polygon points="17 17 9 13 9 21"/>
         <rect x="31" y="3" width="110" height="32" rx="10"/>
         <rect x="29" y="1" width="110" height="32" class="terminal" rx="10"/>
         <text class="terminal" x="39" y="21">RxCalcCotan(</text>
<!--     <a xmlns:xlink="http://www.w3.org/1999/xlink" xlink:href="#number" xlink:title="number"> -->
            <rect x="161" y="3" width="68" height="32"/>
            <rect x="159" y="1" width="68" height="32" class="nonterminal"/>
            <text class="nonterminal" x="169" y="21">number</text>
<!--     </a> -->
         <rect x="249" y="3" width="24" height="32" rx="10"/>
         <rect x="247" y="1" width="24" height="32" class="terminal" rx="10"/>
         <text class="terminal" x="257" y="21">,</text>
<!--     <a xmlns:xlink="http://www.w3.org/1999/xlink" xlink:href="#precision" xlink:title="precision"> -->
            <rect x="313" y="35" width="76" height="32"/>
            <rect x="311" y="33" width="76" height="32" class="nonterminal"/>
            <text class="nonterminal" x="321" y="53">precision</text>
<!--     </a> -->
         <rect x="429" y="3" width="24" height="32" rx="10"/>
         <rect x="427" y="1" width="24" height="32" class="terminal" rx="10"/>
         <text class="terminal" x="437" y="21">,</text>
         <rect x="493" y="35" width="30" height="32" rx="10"/>
         <rect x="491" y="33" width="30" height="32" class="terminal" rx="10"/>
         <text class="terminal" x="501" y="53">D</text>
         <rect x="493" y="79" width="28" height="32" rx="10"/>
         <rect x="491" y="77" width="28" height="32" class="terminal" rx="10"/>
         <text class="terminal" x="501" y="97">R</text>
         <rect x="493" y="123" width="30" height="32" rx="10"/>
         <rect x="491" y="121" width="30" height="32" class="terminal" rx="10"/>
         <text class="terminal" x="501" y="141">G</text>
         <rect x="563" y="3" width="26" height="32" rx="10"/>
         <rect x="561" y="1" width="26" height="32" class="terminal" rx="10"/>
         <text class="terminal" x="571" y="21">)</text>
         <svg:path xmlns:svg="http://www.w3.org/2000/svg" class="line" d="m17 17 h2 m0 0 h10 m110 0 h10 m0 0 h10 m68 0 h10 m0 0 h10 m24 0 h10 m20 0 h10 m0 0 h86 m-116 0 h20 m96 0 h20 m-136 0 q10 0 10 10 m116 0 q0 -10 10 -10 m-126 10 v12 m116 0 v-12 m-116 12 q0 10 10 10 m96 0 q10 0 10 -10 m-106 10 h10 m76 0 h10 m20 -32 h10 m24 0 h10 m20 0 h10 m0 0 h40 m-70 0 h20 m50 0 h20 m-90 0 q10 0 10 10 m70 0 q0 -10 10 -10 m-80 10 v12 m70 0 v-12 m-70 12 q0 10 10 10 m50 0 q10 0 10 -10 m-60 10 h10 m30 0 h10 m-60 -10 v20 m70 0 v-20 m-70 20 v24 m70 0 v-24 m-70 24 q0 10 10 10 m50 0 q10 0 10 -10 m-60 10 h10 m28 0 h10 m0 0 h2 m-60 -10 v20 m70 0 v-20 m-70 20 v24 m70 0 v-24 m-70 24 q0 10 10 10 m50 0 q10 0 10 -10 m-60 10 h10 m30 0 h10 m20 -120 h10 m26 0 h10 m3 0 h-3"/>
         <polygon points="607 17 615 13 615 21"/>
         <polygon points="607 17 599 13 599 21"/>
      </svg>
