      <svg xmlns="http://www.w3.org/2000/svg" width="452" height="52">
         <defs>
            <style type="text/css">
               @namespace "http://www.w3.org/2000/svg";
               .line                 {fill: none; stroke: #1F1F1F;}
               .bold-line            {stroke: #0A0A0A; shape-rendering: crispEdges; stroke-width:
               2; }
               .thin-line            {stroke: #0F0F0F; shape-rendering: crispEdges}
               .filled               {fill: #1F1F1F; stroke: none;}
               text.terminal         {font-family: Verdana, Sans-serif;
               font-size: 12px;
               fill: #0A0A0A;
               font-weight: bold;
               }
               text.nonterminal      {font-family: Verdana, Sans-serif;
               font-size: 12px;
               fill: #0D0D0D;
               }
               text.regexp           {font-family: Verdana, Sans-serif;
               font-size: 12px;
               fill: #0F0F0F;
               }
               rect, circle, polygon {fill: #1F1F1F; stroke: #1F1F1F;}
               rect.terminal         {fill: #CCCCCC; stroke: #1F1F1F;}
               rect.nonterminal      {fill: #E3E3E3; stroke: #1F1F1F;}
               rect.text             {fill: none; stroke: none;}    
               polygon.regexp        {fill: #EFEFEF; stroke: #1F1F1F;}
               
            </style>
         </defs>
         <polygon points="9 17 1 13 1 21"/>
         <polygon points="17 17 9 13 9 21"/>
         <rect x="31" y="3" width="70" height="32" rx="10"/>
         <rect x="29" y="1" width="70" height="32" class="terminal" rx="10"/>
         <text class="terminal" x="39" y="21">"rexxc"</text>
         <a xmlns:xlink="http://www.w3.org/1999/xlink" xlink:href="#inputfile" xlink:title="inputfile">
            <rect x="121" y="3" width="70" height="32"/>
            <rect x="119" y="1" width="70" height="32" class="nonterminal"/>
            <text class="nonterminal" x="129" y="21">inputfile</text>
         </a>
         <a xmlns:xlink="http://www.w3.org/1999/xlink" xlink:href="#outputfile" xlink:title="outputfile">
            <rect x="231" y="3" width="80" height="32"/>
            <rect x="229" y="1" width="80" height="32" class="nonterminal"/>
            <text class="nonterminal" x="239" y="21">outputfile</text>
         </a>
         <rect x="371" y="3" width="34" height="32" rx="10"/>
         <rect x="369" y="1" width="34" height="32" class="terminal" rx="10"/>
         <text class="terminal" x="379" y="21">/s</text>
         <svg:path xmlns:svg="http://www.w3.org/2000/svg" class="line" d="m17 17 h2 m0 0 h10 m70 0 h10 m0 0 h10 m70 0 h10 m20 0 h10 m80 0 h10 m-120 0 h20 m100 0 h20 m-140 0 q10 0 10 10 m120 0 q0 -10 10 -10 m-130 10 v14 m120 0 v-14 m-120 14 q0 10 10 10 m100 0 q10 0 10 -10 m-110 10 h10 m0 0 h90 m40 -34 h10 m34 0 h10 m-74 0 h20 m54 0 h20 m-94 0 q10 0 10 10 m74 0 q0 -10 10 -10 m-84 10 v14 m74 0 v-14 m-74 14 q0 10 10 10 m54 0 q10 0 10 -10 m-64 10 h10 m0 0 h44 m23 -34 h-3"/>
         <polygon points="443 17 451 13 451 21"/>
         <polygon points="443 17 435 13 435 21"/>
      </svg>
