      <svg xmlns="http://www.w3.org/2000/svg" width="340" height="124">
         <defs>
            <style type="text/css">
               @namespace "http://www.w3.org/2000/svg";
               .line                 {fill: none; stroke: #1F1F1F;}
               .bold-line            {stroke: #0A0A0A; shape-rendering: crispEdges; stroke-width:
               2; }
               .thin-line            {stroke: #0F0F0F; shape-rendering: crispEdges}
               .filled               {fill: #1F1F1F; stroke: none;}
               text.terminal         {font-family: Verdana, Sans-serif;
               font-size: 12px;
               fill: #0A0A0A;
               font-weight: bold;
               }
               text.nonterminal      {font-family: Verdana, Sans-serif;
               font-size: 12px;
               fill: #0D0D0D;
               }
               text.regexp           {font-family: Verdana, Sans-serif;
               font-size: 12px;
               fill: #0F0F0F;
               }
               rect, circle, polygon {fill: #1F1F1F; stroke: #1F1F1F;}
               rect.terminal         {fill: #cccccc; stroke: #1F1F1F;}
               rect.nonterminal      {fill: #E3E3E3; stroke: #1F1F1F;}
               rect.text             {fill: none; stroke: none;}    
               polygon.regexp        {fill: #EFEFEF; stroke: #1F1F1F;}
               
            </style>
         </defs>
         <polygon points="9 17 1 13 1 21"/>
         <polygon points="17 17 9 13 9 21"/>
         <rect x="31" y="3" width="98" height="32" rx="10"/>
         <rect x="29" y="1" width="98" height="32" class="terminal" rx="10"/>
         <text class="terminal" x="39" y="21">STATEMENT</text>
         <rect x="169" y="3" width="116" height="32" rx="10"/>
         <rect x="167" y="1" width="116" height="32" class="terminal" rx="10"/>
         <text class="terminal" x="177" y="21">default_choice</text>
         <rect x="169" y="47" width="124" height="32" rx="10"/>
         <rect x="167" y="45" width="124" height="32" class="terminal" rx="10"/>
         <text class="terminal" x="177" y="65">optional_choice</text>
         <rect x="169" y="91" width="124" height="32" rx="10"/>
         <rect x="167" y="89" width="124" height="32" class="terminal" rx="10"/>
         <text class="terminal" x="177" y="109">optional_choice</text>
         <svg:path xmlns:svg="http://www.w3.org/2000/svg" class="line" d="m17 17 h2 m0 0 h10 m98 0 h10 m20 0 h10 m116 0 h10 m0 0 h8 m-164 0 h20 m144 0 h20 m-184 0 q10 0 10 10 m164 0 q0 -10 10 -10 m-174 10 v24 m164 0 v-24 m-164 24 q0 10 10 10 m144 0 q10 0 10 -10 m-154 10 h10 m124 0 h10 m-154 -10 v20 m164 0 v-20 m-164 20 v24 m164 0 v-24 m-164 24 q0 10 10 10 m144 0 q10 0 10 -10 m-154 10 h10 m124 0 h10 m23 -88 h-3"/>
         <polygon points="331 17 339 13 339 21"/>
         <polygon points="331 17 323 13 323 21"/>
      </svg>
